<svg xmlns="http://www.w3.org/2000/svg" width="1600" height="1200" viewBox="0 0 1600 1200"><defs><pattern id="b" width="20" height="20" patternUnits="userSpaceOnUse" patternTransform="rotate(-45)"><path fill="#5521da" opacity=".7" d="M0 0h20v20h-20z"/><path fill="#1f26b5" opacity=".65" d="M0 0h20v8h-20z"/></pattern><pattern id="a" width="20" height="4" patternUnits="userSpaceOnUse" patternTransform="rotate(-45)"><path fill="#5521da" opacity=".6" d="M0 0h20v4h-20z"/><path fill="#1f26b5" opacity=".65" d="M0 0h20v2h-20z"/></pattern></defs><path fill="url(#a)" d="M569.519 0l62.982 207.29 35.797 6.908.081.542c39.725-12.179 81.906-18.74 125.621-18.74 217.101 0 396.439 161.645 424.248 371.145l.038.285c.396 2.997.762 6.003 1.095 9.021l.043.398c.658 6.01 1.193 12.054 1.603 18.133l.043.629c.187 2.853.342 5.713.473 8.579l.06 1.348c.119 2.8.215 5.604.278 8.419l.024 1.267c.059 2.922.097 5.847.097 8.778 0 236.378-191.622 428-428 428s-428.002-191.624-428.002-428.002c0-3.074.04-6.14.104-9.199l.02-1.016c.069-2.975.174-5.939.304-8.898l.047-1.053c.141-3.035.312-6.062.517-9.08l.033-.48c1.108-16.146 3.11-32.047 5.959-47.649l-.984-84.625-69-41-67 14-1 6-62-41-66 16-19 44-88-18.374v758.374h1600v-1200h-1030.481z"/><path fill="url(#b)" d="M794.75 238.5c-39.458 0-77.53 5.922-113.385 16.917l.635.583 1.25 119.5 90.75 298.5-199-43.25v-43.75l-85.833-16.833-9.667 22.667-31.333-13.667-36.333.667-.491-2.115c-1.872 15.416-2.842 31.11-2.842 47.031 0 213.32 172.93 386.25 386.25 386.25s386.25-172.93 386.25-386.25c-.001-213.32-172.931-386.25-386.251-386.25z"/></svg>