<?xml version="1.0" encoding="utf-8"?>
<!-- Generator: Adobe Illustrator 16.0.0, SVG Export Plug-In . SVG Version: 6.00 Build 0)  -->
<!DOCTYPE svg PUBLIC "-//W3C//DTD SVG 1.1//EN" "http://www.w3.org/Graphics/SVG/1.1/DTD/svg11.dtd">
<svg version="1.1" id="Layer_1" xmlns="http://www.w3.org/2000/svg" xmlns:xlink="http://www.w3.org/1999/xlink" x="0px" y="0px"
	 width="750px" height="510px" viewBox="0 0 750 510" enable-background="new 0 0 750 510" xml:space="preserve">
<path fill="#FFFFFF" d="M617.315,374.098h-3.769v-4.22h-2.049v10.663h2.049v-4.676h3.769v4.676h2.049v-10.663h-2.049V374.098z
	 M626.405,338.84c-0.453-0.658-1.045-1.184-1.771-1.564c-0.727-0.387-1.635-0.577-2.736-0.577c-1.029,0-1.919,0.187-2.665,0.559
	c-0.749,0.376-1.367,0.882-1.862,1.53c-0.49,0.646-0.854,1.406-1.086,2.271c-0.234,0.868-0.354,1.793-0.354,2.774
	c0,0.983,0.101,1.905,0.301,2.755c0.198,0.857,0.525,1.588,0.981,2.202c0.456,0.612,1.051,1.095,1.789,1.44
	c0.737,0.351,1.645,0.521,2.718,0.521c1.031,0,1.918-0.163,2.666-0.503c0.751-0.341,1.362-0.801,1.846-1.406
	c0.479-0.602,0.837-1.313,1.068-2.146c0.234-0.828,0.354-1.733,0.354-2.719c0-0.986-0.093-1.924-0.283-2.812
	C627.183,340.275,626.865,339.497,626.405,338.84L626.405,338.84z M624.021,345.218c-0.032,0.468-0.129,0.917-0.281,1.333
	c-0.148,0.426-0.384,0.777-0.697,1.064c-0.32,0.289-0.744,0.434-1.282,0.434c-0.562,0-0.995-0.146-1.3-0.434
	c-0.302-0.287-0.525-0.639-0.665-1.064c-0.142-0.419-0.223-0.869-0.248-1.349c-0.024-0.479-0.034-0.916-0.034-1.298
	c0-0.409,0.02-0.877,0.055-1.405c0.034-0.53,0.135-1.021,0.299-1.478c0.162-0.457,0.402-0.842,0.719-1.156
	c0.316-0.309,0.755-0.465,1.314-0.465c0.516,0,0.92,0.164,1.213,0.502c0.294,0.336,0.509,0.742,0.647,1.225
	c0.141,0.48,0.231,0.98,0.265,1.498c0.037,0.516,0.054,0.954,0.054,1.312C624.074,344.325,624.059,344.748,624.021,345.218
	L624.021,345.218z M625.266,362.891l14.458-27.076h-2.984l-14.524,27.076H625.266L625.266,362.891z M330.91,241.06h19.061v-11.159
	h-51.218v11.159h19.061v50.142h13.098L330.91,241.06L330.91,241.06z M637.312,379.441c-0.023-0.213-0.038-0.422-0.047-0.629
	l-0.025-0.535c-0.018-0.241-0.05-1.033-0.098-1.275c-0.049-0.238-0.122-0.461-0.229-0.663c-0.104-0.198-0.238-0.374-0.403-0.522
	c-0.165-0.146-0.374-0.252-0.627-0.328v-0.025c0.521-0.215,0.899-0.525,1.128-0.936c0.23-0.411,0.345-1.562,0.345-2.125
	c0-0.366-0.063-0.704-0.189-1.023c-0.127-0.318-0.308-0.596-0.547-0.837c-0.241-0.241-0.527-0.321-0.863-0.459
	c-0.33-0.14-0.708-0.209-1.123-0.209h-5.021v10.664h2.047v-4.286h2.046c0.513,0,0.882,0.115,1.108,0.348
	c0.228,0.232,0.376,1.15,0.443,1.651c0.052,0.382,0.092,0.784,0.115,1.207c0.024,0.418,0.099,0.776,0.209,1.08h2.05
	c-0.101-0.134-0.169-0.295-0.216-0.489C637.367,379.863,637.333,379.658,637.312,379.441L637.312,379.441z M634.957,374.436
	c-0.234,0.213-0.586,0.317-1.055,0.317h-2.242V371.4h2.242c0.469,0,0.819,0.104,1.055,0.313c0.235,0.21,0.354,1.211,0.354,1.675
	C635.312,373.869,635.191,374.221,634.957,374.436L634.957,374.436z M636.247,229.926v40.596h-0.464l-26.007-40.597h-13.613v60.22
	l13.021,0.099V249.76l25.901,40.483h14.278v-60.316L636.247,229.926L636.247,229.926z M645.761,355.977
	c0-0.984-0.095-1.908-0.281-2.773c-0.188-0.867-0.508-1.615-0.967-2.254c-0.457-0.637-1.045-1.141-1.771-1.514
	c-0.729-0.371-1.638-0.56-2.74-0.56c-1.029,0-1.916,0.179-2.667,0.542c-0.746,0.357-1.369,0.854-1.857,1.479
	c-0.491,0.625-0.855,1.356-1.087,2.199c-0.234,0.84-0.352,1.75-0.352,2.737c0,0.985,0.096,1.912,0.298,2.774
	c0.197,0.863,0.524,1.619,0.981,2.254c0.456,0.634,1.049,1.136,1.788,1.494c0.735,0.359,1.645,0.541,2.719,0.541
	c1.033,0,1.919-0.176,2.667-0.522c0.749-0.347,1.362-0.835,1.844-1.454c0.48-0.625,0.837-1.357,1.071-2.2
	C645.644,357.87,645.761,356.961,645.761,355.977L645.761,355.977z M642.127,357.219c-0.036,0.496-0.126,0.963-0.277,1.403
	c-0.151,0.444-0.388,0.826-0.701,1.137c-0.318,0.313-0.743,0.474-1.278,0.474c-0.562,0-0.996-0.159-1.301-0.474
	c-0.307-0.311-0.527-0.688-0.665-1.137c-0.143-0.442-0.222-0.919-0.247-1.419c-0.029-0.508-0.037-0.953-0.037-1.334
	c0-0.41,0.021-0.865,0.055-1.371c0.035-0.503,0.134-0.977,0.298-1.406c0.164-0.431,0.402-0.793,0.721-1.081
	c0.314-0.29,0.754-0.434,1.314-0.434c0.518,0,0.921,0.159,1.212,0.485c0.293,0.324,0.509,0.715,0.648,1.155
	c0.141,0.442,0.227,0.915,0.267,1.404c0.033,0.493,0.051,0.92,0.051,1.276C642.181,356.29,642.163,356.727,642.127,357.219
	L642.127,357.219z M623.209,375.879h4.516v-1.632h-4.516v-2.712h4.916v-1.657h-6.964v10.663h7.066v-1.766h-5.02L623.209,375.879
	L623.209,375.879z M409.189,287.406c-0.318-1.225-0.556-2.523-0.696-3.891c-0.146-1.369-0.249-2.613-0.307-3.929
	c-0.062-1.312-0.118-2.45-0.177-3.422c-0.114-1.538-0.336-3.078-0.652-4.619c-0.319-1.54-0.828-2.948-1.527-4.233
	c-0.698-1.283-1.601-2.396-2.704-3.338c-1.105-0.939-2.502-1.639-4.19-2.096v-0.172c3.492-1.368,6.009-3.364,7.552-5.986
	c1.542-2.625,2.312-5.733,2.312-9.327c0-2.339-0.424-4.329-1.266-6.354c-0.847-2.023-2.066-3.807-3.666-5.346
	c-1.604-1.54-3.521-2.56-5.761-3.445c-2.239-0.884-4.755-1.326-7.55-1.326h-33.501v60.22h13.03v-23.678h14.274
	c3.434,0,5.903,0.743,7.42,2.229c1.513,1.48,2.498,4.106,2.966,7.301c0.351,2.455,0.612,4.925,0.784,7.605
	c0.177,2.68,0.643,4.604,1.396,6.545h13.702C409.989,289.29,409.512,288.634,409.189,287.406L409.189,287.406z M392.74,255.025
	c-1.57,1.368-3.928,2.053-7.068,2.053h-15.587v-17.099h15.587c3.142,0,5.498,0.671,7.068,2.011c1.57,1.34,2.355,3.494,2.355,6.458
	C395.098,251.528,394.312,253.656,392.74,255.025L392.74,255.025z M510.736,270.777c0,1.082-0.043,2.209-0.133,3.379
	c-0.088,1.17-0.351,2.254-0.784,3.25c-0.438,0.998-1.148,1.812-2.141,2.439c-0.987,0.627-2.386,0.939-4.188,0.939
	c-1.629,0-2.856-0.258-3.874-0.771c-1.021-0.514-1.818-1.213-2.4-2.097s-0.988-1.952-1.222-3.208
	c-0.233-1.253-0.351-2.622-0.351-4.105v-2.451H483.54v5.019c0,3.366,0.583,6.231,1.745,8.601c1.163,2.367,2.513,4.306,4.435,5.814
	c1.919,1.516,4.004,2.624,6.447,3.337c2.442,0.714,4.879,1.069,7.497,1.069c4.653,0,8.348-0.698,11.084-2.098
	c2.732-1.396,5.115-3.135,6.572-5.219c1.452-2.08,2.384-4.318,2.792-6.716c0.403-2.396,0.706-4.59,0.706-6.589v-41.452h-14.086
	v40.854h0.002v0.004H510.736z M99.121,360.741l-0.051,0.354l-3.738-1.293c0.096-0.637,0.153-1.285,0.153-1.951
	c0-0.668-0.057-1.322-0.153-1.961l3.744-1.184l0.044,0.307l0.112,0.729l2.787-0.352h0.005l0.005-0.002l2.784-0.349l-0.145-0.974
	c-0.051-0.289-0.081-0.633-0.172-0.991l-0.281-1.12c-0.106-0.376-0.175-0.766-0.308-1.111l-0.339-0.947l-0.338-0.92l-5.181,2.215
	l0.247,0.692l0.258,0.71l0.067,0.223l-3.68,1.33c-0.572-1.926-1.58-3.66-2.904-5.1l2.884-2.758l0.566,0.631l0.437,0.59l4.483-3.439
	l-0.586-0.783l-1.434-1.598l-1.578-1.451l-0.773-0.594l-3.398,4.539l0.584,0.444l0.334,0.306l-2.789,2.907
	c-1.316-1.092-2.848-1.93-4.528-2.435l1.404-3.879l0.676,0.253l0.684,0.249l1.095-2.621v-0.002l1.094-2.621l-0.91-0.342
	l-0.935-0.346c-0.339-0.133-0.725-0.205-1.098-0.312l-1.105-0.286c-0.354-0.091-0.693-0.119-0.978-0.175l-0.96-0.146l-0.691,5.654
	l0.719,0.111l0.552,0.091l-1.25,3.993c-0.661-0.104-1.336-0.174-2.028-0.174c-0.824,0-1.625,0.084-2.407,0.231l-1.147-4.038
	l0.626-0.105l0.719-0.111l-0.346-2.825v-0.004l-0.345-2.823l-0.959,0.146c-0.286,0.053-0.626,0.082-0.979,0.173l-1.098,0.286
	l-0.008,0.002l-0.007,0.001c-0.37,0.104-0.753,0.179-1.091,0.312l-0.935,0.346l-0.91,0.342l2.188,5.244l0.684-0.249l0.587-0.222
	l1.323,3.971c-1.871,0.623-3.549,1.666-4.933,3.01l-2.535-3.311l0.656-0.602l0.583-0.443l-3.398-4.539l-0.774,0.594l-1.579,1.449
	l-1.434,1.601l-0.586,0.783l4.484,3.44l0.436-0.591l0.272-0.304l2.701,3.229c-0.808,1.029-1.459,2.187-1.93,3.432l-4.021-0.934
	l0.167-0.459l0.246-0.691l-5.182-2.217l-0.337,0.922l-0.34,0.949c-0.132,0.344-0.202,0.731-0.308,1.109l-0.283,1.12
	c-0.089,0.354-0.118,0.7-0.17,0.991l-0.146,0.971l2.786,0.35l0.005,0.002h0.004l2.787,0.352l0.11-0.729
	c0.041-0.219,0.053-0.479,0.125-0.744l0.011-0.049l4.033,0.764c-0.21,0.922-0.331,1.878-0.331,2.865
	c0,0.814,0.084,1.612,0.227,2.387l-3.94,1.246c-0.071-0.268-0.084-0.528-0.125-0.744l-0.11-0.729l-5.583,0.698l0.146,0.972
	c0.051,0.289,0.082,0.635,0.17,0.99l0.281,1.112l0.001,0.009l0.003,0.012c0.104,0.377,0.175,0.76,0.306,1.1l0.338,0.949l0.338,0.922
	l5.182-2.217l-0.247-0.692l-0.187-0.513l3.867-1.402c0.531,1.596,1.377,3.041,2.442,4.294l-2.901,3.044l-0.411-0.459l-0.435-0.592
	l-4.483,3.441l0.587,0.782l1.433,1.599v0.002l1.578,1.451l0.773,0.592l3.399-4.537l-0.584-0.444l-0.495-0.453l2.766-3.165
	c1.2,1.079,2.59,1.948,4.131,2.521l-1.049,4.113l-0.451-0.17l-0.685-0.252l-1.091,2.616l-0.003,0.01l-0.002,0.009l-1.09,2.614
	l0.91,0.343l0.935,0.346c0.339,0.134,0.724,0.203,1.097,0.311l1.105,0.286c0.354,0.093,0.693,0.119,0.979,0.173l0.96,0.148
	l0.691-5.654l-0.72-0.111c-0.216-0.039-0.472-0.053-0.735-0.127l-0.058-0.016l0.862-4.145c0.921,0.209,1.876,0.326,2.86,0.326
	c0.891,0,1.76-0.093,2.6-0.262l0.981,4.062l-0.119,0.031c-0.264,0.073-0.522,0.086-0.735,0.127l-0.72,0.11l0.345,2.827v0.001
	l0.346,2.825l0.96-0.148c0.285-0.052,0.625-0.082,0.979-0.173l1.101-0.286h0.004l0.004-0.002c0.372-0.105,0.755-0.179,1.092-0.312
	l0.936-0.342l0.91-0.343l-1.093-2.62v-0.002l-0.001-0.003l-1.095-2.622l-0.684,0.252l-0.393,0.146l-1.157-4.004
	c1.846-0.644,3.498-1.691,4.858-3.037l2.435,3.271l-0.842,0.775l-0.584,0.443l3.398,4.537l0.773-0.595l1.578-1.45l1.434-1.599
	l0.585-0.782l-4.482-3.439l-0.437,0.591l-0.09,0.1l-2.596-3.186c0.953-1.24,1.681-2.662,2.14-4.197l3.667,1.438l-0.051,0.172
	l-0.258,0.709l-0.248,0.693l2.589,1.105l0.004,0.002h0.003l2.587,1.107l0.337-0.922l0.339-0.947
	c0.134-0.346,0.203-0.732,0.309-1.111l0.282-1.119c0.09-0.357,0.118-0.701,0.17-0.992l0.146-0.971l-5.582-0.7L99.121,360.741
	L99.121,360.741z M470.65,283.031c2.631-2.883,4.646-6.268,6.048-10.156c1.4-3.893,2.104-8.085,2.104-12.58
	c0-4.609-0.702-8.89-2.104-12.839c-1.402-3.947-3.417-7.391-6.048-10.33c-2.633-2.94-5.847-5.246-9.646-6.918
	c-3.799-1.67-8.124-2.41-12.973-2.41c-4.794,0-9.105,0.739-12.934,2.41c-3.827,1.672-7.057,3.978-9.688,6.918
	c-2.63,2.939-4.646,6.383-6.047,10.33c-1.402,3.949-2.105,8.229-2.105,12.839c0,4.496,0.701,8.688,2.105,12.58
	c1.399,3.889,3.417,7.273,6.047,10.156c2.63,2.882,5.857,5.145,9.688,6.787c3.826,1.642,8.14,2.367,12.934,2.367
	c4.849,0,9.174-0.728,12.973-2.367C464.806,288.176,468.02,285.913,470.65,283.031z M455.615,279.385
	c-2.119,1.191-4.691,1.784-7.725,1.784c-3.03,0-5.604-0.595-7.722-1.784c-2.114-1.189-3.832-2.775-5.145-4.75
	c-1.319-1.974-2.276-4.195-2.878-6.666c-0.6-2.469-0.896-5.011-0.896-7.627c0-2.729,0.301-5.373,0.896-7.928
	c0.604-2.557,1.559-4.836,2.878-6.842c1.312-2.005,3.028-3.601,5.145-4.792c2.116-1.19,4.69-1.786,7.722-1.786
	c3.032,0,5.604,0.597,7.725,1.786c2.111,1.191,3.826,2.786,5.145,4.792c1.316,2.004,2.275,4.285,2.874,6.842
	c0.604,2.556,0.9,5.2,0.9,7.928c0,2.616-0.3,5.158-0.9,7.627c-0.6,2.471-1.558,4.692-2.874,6.666
	C459.444,276.609,457.729,278.195,455.615,279.385L455.615,279.385z M600.927,371.33c-0.391-0.457-0.87-0.812-1.436-1.073
	c-0.562-0.257-1.209-0.389-1.927-0.389c-0.713,0-1.355,0.132-1.924,0.389c-0.57,0.261-1.051,0.616-1.44,1.073
	c-0.389,0.455-0.69,0.988-0.9,1.604c-0.208,0.608-0.312,1.604-0.312,2.314c0,0.699,0.104,1.79,0.312,2.395
	c0.21,0.602,0.511,1.125,0.9,1.571c0.391,0.447,0.87,0.8,1.44,1.052c0.567,0.254,1.213,0.379,1.924,0.379
	c0.722,0,1.363-0.125,1.927-0.379c0.564-0.252,1.045-0.604,1.436-1.052c0.392-0.446,0.689-0.971,0.898-1.571
	c0.21-0.604,0.314-1.693,0.314-2.395c0-0.714-0.104-1.706-0.314-2.314C601.617,372.318,601.317,371.785,600.927,371.33z
	 M599.955,376.861c-0.091,0.383-0.237,0.724-0.438,1.027c-0.198,0.303-0.462,0.547-0.783,0.729c-0.317,0.184-0.712,0.275-1.17,0.275
	c-0.463,0-0.854-0.09-1.176-0.275c-0.32-0.182-0.582-0.426-0.78-0.729c-0.199-0.305-0.346-0.645-0.436-1.027
	c-0.093-0.377-0.138-1.211-0.138-1.611c0-0.419,0.045-0.822,0.138-1.216c0.09-0.392,0.235-1.076,0.436-1.386
	c0.198-0.308,0.462-0.551,0.78-0.732c0.324-0.186,0.713-0.277,1.176-0.277c0.461,0,0.854,0.094,1.17,0.277
	c0.322,0.184,0.585,0.426,0.783,0.732c0.199,0.311,0.347,0.994,0.438,1.386c0.092,0.394,0.136,0.798,0.136,1.216
	C600.091,375.65,600.047,376.484,599.955,376.861z M602.804,371.535h2.79v9.006h2.046v-9.006h2.79v-1.657h-7.626V371.535z
	 M576.527,290.145h14.226l-23.301-60.22H553.4l-23.562,60.316h13.789l4.887-13.122h23.301L576.527,290.145z M552.093,267.109
	l8.114-22.511h0.177l7.854,22.511H552.093z M244.533,282.146v-9.039h-11.518c-1.803-6.985-7.751-12.293-15.078-13.137
	c-17.126-20.624-16.596-39.279-16.596-46.127c8.426-10.022,16.071-13.2,16.071-27.121v-52.231c0-4.373,2.009-3.72,2.009,0
	c0,3.72,6.172,12.973,8.729,19.23c2.556,6.258,16.34,13.583,16.34,8.163c0-15.541,7.587-32.819,10.431-46.06
	c1.903-8.859,0.463-6.883,0.463-11.083c0-4.199,6.225-12.436,6.225-12.436h-4.018c0,0-5.904,4.662-7.653,4.273
	c-3.197-0.709,2.724-5.443,2.724-5.443s-4.363-10.882-29.957-10.882c-54.08,0-52.501,60.265-52.501,60.265h-66.293
	c-3.225-7.287-10.197-12.053-20.089-12.053l-0.351,0.028c-0.378-0.017-0.758-0.029-1.14-0.029
	c-13.205,0-23.978,10.402-24.581,23.459c-0.017,0.264-0.028,0.537-0.028,0.829l0.003,0.209l-0.003,0.114l0.006,0.143
	c0.133,12.693,5.578,15.24,6.021,41.497l-0.016,22.14l16.071-10.044c0,0,0.095-2.664,0-7.031c-0.095-4.457,2.009-4.884,2.009-2.008
	v63.323c-5.208,2.062-9.188,6.518-10.608,12.012H60.719v9.039h10.533c2.035,7.525,8.896,13.074,17.072,13.074
	c8.176,0,15.037-5.547,17.071-13.074h93.427c2.035,7.525,8.897,13.074,17.072,13.074s15.038-5.547,17.072-13.074H244.533
	L244.533,282.146L244.533,282.146z M241.515,115.406c1.661,0,3.005,1.354,3.005,3.02c0,1.667-1.344,3.021-3.005,3.021
	c-1.658,0-3.005-1.353-3.005-3.021C238.51,116.76,239.856,115.406,241.515,115.406z M88.346,282.143c-2.501,0-4.53-2.021-4.53-4.511
	c0-2.489,2.029-4.509,4.53-4.509c2.502,0,4.53,2.02,4.53,4.509C92.876,280.122,90.848,282.143,88.346,282.143z M133.041,273.107
	v-8.037c0,0-19.085-14.223-19.085-48.213c0-4.584,6.861-7.357,16.582-14.155c0,0,20.987,8.535,40.425,13.605
	c0,17.366,4.878,53.044,5.398,56.8H133.041z M215.9,282.143c-2.491,0-4.513-2.021-4.513-4.511c0-2.489,2.022-4.509,4.513-4.509
	c2.493,0,4.514,2.02,4.514,4.509C220.414,280.122,218.393,282.143,215.9,282.143z M561.959,364.646h-0.068H561.959z
	 M605.021,337.199l-11.263,15.148v4.686h11.428v5.84h4.29v-5.84h2.97v-4.221h-2.97v-15.614L605.021,337.199L605.021,337.199z
	 M605.184,352.814h-6.901l6.796-8.754h0.105V352.814z M554.223,358.85c-1.144-0.274-2.317-0.52-3.746-0.52
	c-7.131,0-12.838,5.523-12.838,12.431l0.004,0.003c0,6.907,5.704,12.43,12.837,12.43c7.131,0,12.836-5.521,12.836-12.43
	c0-0.891-1.646-4.572-1.426-6.117c0.09-0.58,0.104-0.183,0.071,0h4.206v-7.127h5.704v-5.705h5.702v-5.697h5.704l0.011-7.123h-8.56
	L554.223,358.85L554.223,358.85z M546.928,376.05c-2.142,0-3.571-1.43-3.571-3.569c0-2.144,1.431-3.574,3.571-3.574
	c2.145,0,3.572,1.432,3.572,3.574C550.5,374.62,549.071,376.05,546.928,376.05z M61.116,428.955
	c0.288-0.822,0.702-1.539,1.242-2.151c0.54-0.609,1.203-1.092,1.989-1.438c0.786-0.351,1.671-0.522,2.655-0.522
	c0.996,0,1.884,0.174,2.664,0.522c0.78,0.348,1.44,0.828,1.98,1.438c0.54,0.612,0.954,1.329,1.242,2.151s0.432,1.713,0.432,2.673
	c0,0.938-0.144,1.809-0.432,2.619c-0.288,0.81-0.702,1.515-1.242,2.115c-0.54,0.6-1.2,1.068-1.98,1.413
	c-0.78,0.342-1.668,0.513-2.664,0.513c-0.984,0-1.869-0.171-2.655-0.513c-0.786-0.345-1.449-0.813-1.989-1.413
	c-0.54-0.603-0.954-1.308-1.242-2.115c-0.288-0.812-0.432-1.683-0.432-2.619C60.684,430.668,60.828,429.777,61.116,428.955z
	 M63.699,433.203c0.126,0.51,0.327,0.969,0.603,1.377c0.276,0.408,0.636,0.735,1.08,0.979c0.444,0.246,0.984,0.369,1.62,0.369
	c0.636,0,1.176-0.123,1.62-0.369c0.444-0.243,0.804-0.57,1.08-0.979s0.477-0.867,0.603-1.377s0.189-1.035,0.189-1.575
	c0-0.562-0.063-1.109-0.189-1.638c-0.126-0.529-0.327-0.999-0.603-1.413s-0.636-0.744-1.08-0.99s-0.984-0.369-1.62-0.369
	c-0.636,0-1.176,0.123-1.62,0.369c-0.444,0.246-0.804,0.576-1.08,0.99c-0.276,0.414-0.477,0.885-0.603,1.413
	c-0.126,0.526-0.189,1.074-0.189,1.638C63.51,432.168,63.573,432.693,63.699,433.203L63.699,433.203z M75.016,430.404v-1.71h1.53
	v-0.723c0-0.825,0.258-1.506,0.774-2.031c0.516-0.528,1.296-0.792,2.34-0.792c0.228,0,0.456,0.009,0.684,0.024l0.666,0.045v1.908
	c-0.3-0.036-0.612-0.054-0.936-0.054c-0.348,0-0.597,0.081-0.747,0.243c-0.15,0.159-0.225,0.435-0.225,0.816v0.561h1.764v1.71
	h-1.764V438h-2.556v-7.596H75.016z M86.877,431.556c0.036-0.6,0.186-1.098,0.45-1.493s0.6-0.714,1.008-0.952
	c0.408-0.24,0.867-0.411,1.377-0.516c0.51-0.102,1.022-0.15,1.539-0.15c0.468,0,0.942,0.031,1.422,0.099
	c0.479,0.066,0.918,0.195,1.314,0.387c0.396,0.192,0.72,0.459,0.972,0.803c0.252,0.343,0.378,0.796,0.378,1.357v4.842
	c0,0.421,0.024,0.822,0.072,1.206c0.048,0.387,0.132,0.673,0.252,0.864h-2.592c-0.048-0.144-0.087-0.291-0.117-0.441
	c-0.03-0.147-0.051-0.303-0.063-0.459c-0.408,0.422-0.888,0.717-1.44,0.885c-0.552,0.168-1.116,0.252-1.692,0.252
	c-0.444,0-0.858-0.057-1.242-0.162c-0.384-0.108-0.72-0.276-1.008-0.504c-0.288-0.229-0.513-0.519-0.675-0.864
	c-0.162-0.348-0.243-0.762-0.243-1.242c0-0.526,0.093-0.963,0.279-1.305s0.426-0.615,0.72-0.819s0.63-0.354,1.008-0.459
	c0.378-0.102,0.759-0.183,1.143-0.243c0.384-0.06,0.762-0.105,1.134-0.144s0.702-0.09,0.99-0.162
	c0.288-0.072,0.516-0.177,0.684-0.315c0.168-0.138,0.246-0.339,0.234-0.603c0-0.276-0.045-0.495-0.135-0.657
	c-0.09-0.162-0.21-0.288-0.36-0.378s-0.324-0.147-0.522-0.18c-0.198-0.03-0.411-0.045-0.639-0.045c-0.504,0-0.9,0.105-1.188,0.321
	c-0.288,0.219-0.456,0.576-0.504,1.08L86.877,431.556L86.877,431.556z M92.781,433.446c-0.108,0.096-0.243,0.171-0.405,0.225
	s-0.336,0.099-0.522,0.135l-0.585,0.093c-0.204,0.021-0.408,0.054-0.612,0.09c-0.192,0.036-0.381,0.084-0.567,0.144
	c-0.187,0.062-0.348,0.144-0.486,0.243c-0.138,0.102-0.249,0.231-0.333,0.387c-0.084,0.156-0.126,0.354-0.126,0.596
	c0,0.229,0.042,0.421,0.126,0.574c0.084,0.156,0.198,0.279,0.342,0.369s0.312,0.153,0.504,0.189s0.39,0.054,0.594,0.054
	c0.504,0,0.894-0.084,1.17-0.252c0.276-0.168,0.479-0.369,0.612-0.604c0.132-0.232,0.213-0.472,0.243-0.712
	c0.03-0.237,0.045-0.432,0.045-0.573V433.446L92.781,433.446z M99.945,425.148V438h-2.556v-12.852H99.945z M104.589,425.148V438
	h-2.556v-12.852H104.589z M116.721,428.694v1.71h-1.872v4.605c0,0.435,0.072,0.723,0.216,0.864c0.144,0.144,0.432,0.216,0.864,0.216
	l0.414-0.018l0.378-0.057V438c-0.216,0.036-0.456,0.06-0.72,0.072c-0.264,0.012-0.522,0.018-0.774,0.018
	c-0.396,0-0.771-0.024-1.125-0.081c-0.354-0.054-0.666-0.159-0.936-0.312c-0.27-0.156-0.483-0.378-0.639-0.666
	c-0.156-0.288-0.234-0.666-0.234-1.136v-5.488h-1.548v-1.71h1.548v-2.79h2.556v2.79L116.721,428.694L116.721,428.694z
	 M120.5,425.148v4.842h0.054c0.324-0.54,0.738-0.936,1.242-1.182c0.504-0.243,0.996-0.366,1.476-0.366
	c0.684,0,1.245,0.093,1.683,0.276c0.438,0.188,0.783,0.444,1.035,0.774s0.429,0.73,0.531,1.206c0.102,0.474,0.153,0.999,0.153,1.575
	V438h-2.556v-5.256c0-0.77-0.12-1.341-0.36-1.719c-0.24-0.378-0.666-0.567-1.278-0.567c-0.696,0-1.2,0.207-1.512,0.621
	s-0.468,1.095-0.468,2.043V438h-2.556v-12.852H120.5L120.5,425.148z M131.354,435.768c0.384,0.372,0.936,0.561,1.656,0.561
	c0.516,0,0.96-0.129,1.332-0.387c0.372-0.261,0.6-0.531,0.684-0.819h2.25c-0.36,1.116-0.912,1.914-1.656,2.394
	c-0.744,0.48-1.645,0.723-2.7,0.723c-0.732,0-1.392-0.117-1.98-0.354c-0.588-0.231-1.086-0.564-1.494-0.999
	c-0.408-0.432-0.723-0.945-0.945-1.548c-0.222-0.6-0.333-1.26-0.333-1.979c0-0.696,0.114-1.347,0.342-1.944
	c0.228-0.599,0.552-1.119,0.972-1.557c0.42-0.438,0.921-0.783,1.503-1.035c0.582-0.252,1.227-0.378,1.935-0.378
	c0.792,0,1.482,0.15,2.07,0.459c0.587,0.306,1.071,0.717,1.449,1.23c0.378,0.519,0.651,1.104,0.819,1.767
	c0.168,0.657,0.228,1.35,0.18,2.067h-6.714C130.76,434.796,130.97,435.396,131.354,435.768L131.354,435.768z M134.244,430.872
	c-0.306-0.336-0.771-0.504-1.395-0.504c-0.408,0-0.747,0.069-1.017,0.207s-0.486,0.309-0.648,0.513s-0.276,0.42-0.342,0.648
	c-0.066,0.228-0.105,0.432-0.117,0.609h4.158C134.762,431.7,134.549,431.208,134.244,430.872z M146.51,425.148v4.842h0.054
	c0.324-0.54,0.738-0.936,1.242-1.182c0.504-0.243,0.996-0.366,1.476-0.366c0.684,0,1.245,0.093,1.683,0.276
	c0.438,0.188,0.783,0.444,1.035,0.774s0.429,0.73,0.531,1.206c0.102,0.474,0.153,0.999,0.153,1.575V438h-2.556v-5.256
	c0-0.77-0.12-1.341-0.36-1.719c-0.24-0.378-0.666-0.567-1.278-0.567c-0.696,0-1.2,0.207-1.512,0.621s-0.468,1.095-0.468,2.043V438
	h-2.556v-12.852H146.51L146.51,425.148z M154.52,431.556c0.036-0.6,0.186-1.098,0.45-1.493c0.264-0.396,0.6-0.714,1.008-0.952
	c0.408-0.24,0.867-0.411,1.377-0.516c0.51-0.102,1.022-0.15,1.539-0.15c0.468,0,0.942,0.031,1.422,0.099
	c0.479,0.066,0.918,0.195,1.314,0.387c0.396,0.192,0.72,0.459,0.972,0.803c0.252,0.343,0.378,0.796,0.378,1.357v4.842
	c0,0.421,0.024,0.822,0.072,1.206c0.048,0.387,0.132,0.673,0.252,0.864h-2.592c-0.048-0.144-0.087-0.291-0.117-0.441
	c-0.03-0.147-0.051-0.303-0.063-0.459c-0.408,0.422-0.888,0.717-1.44,0.885c-0.552,0.168-1.116,0.252-1.692,0.252
	c-0.444,0-0.858-0.057-1.242-0.162c-0.384-0.108-0.72-0.276-1.008-0.504c-0.288-0.229-0.513-0.519-0.675-0.864
	c-0.162-0.348-0.243-0.762-0.243-1.242c0-0.526,0.093-0.963,0.279-1.305s0.426-0.615,0.72-0.819s0.63-0.354,1.008-0.459
	c0.378-0.102,0.759-0.183,1.143-0.243c0.384-0.06,0.762-0.105,1.134-0.144s0.702-0.09,0.99-0.162
	c0.288-0.072,0.516-0.177,0.684-0.315c0.168-0.138,0.246-0.339,0.234-0.603c0-0.276-0.045-0.495-0.135-0.657s-0.21-0.288-0.36-0.378
	s-0.324-0.147-0.522-0.18c-0.198-0.03-0.411-0.045-0.639-0.045c-0.504,0-0.9,0.105-1.188,0.321c-0.288,0.219-0.456,0.576-0.504,1.08
	L154.52,431.556L154.52,431.556z M160.424,433.446c-0.108,0.096-0.243,0.171-0.405,0.225s-0.336,0.099-0.522,0.135l-0.585,0.093
	c-0.204,0.021-0.408,0.054-0.612,0.09c-0.192,0.036-0.381,0.084-0.567,0.144c-0.187,0.062-0.348,0.144-0.486,0.243
	c-0.138,0.102-0.249,0.231-0.333,0.387c-0.084,0.156-0.126,0.354-0.126,0.596c0,0.229,0.042,0.421,0.126,0.574
	c0.084,0.156,0.198,0.279,0.342,0.369c0.144,0.09,0.312,0.153,0.504,0.189c0.192,0.036,0.39,0.054,0.594,0.054
	c0.504,0,0.894-0.084,1.17-0.252c0.276-0.168,0.479-0.369,0.612-0.604c0.132-0.232,0.213-0.472,0.243-0.712
	c0.03-0.237,0.045-0.432,0.045-0.573V433.446L160.424,433.446z M167.39,428.694v1.728h0.036c0.12-0.288,0.282-0.555,0.486-0.801
	s0.438-0.456,0.702-0.63c0.264-0.174,0.546-0.311,0.846-0.405c0.3-0.095,0.612-0.144,0.936-0.144c0.167,0,0.354,0.027,0.558,0.09
	v2.376l-0.432-0.063c-0.168-0.018-0.331-0.024-0.486-0.024c-0.468,0-0.864,0.078-1.188,0.231c-0.324,0.156-0.585,0.369-0.783,0.642
	c-0.198,0.27-0.339,0.585-0.423,0.942c-0.084,0.36-0.126,0.75-0.126,1.17V438h-2.556v-9.306H167.39L167.39,428.694z
	 M174.446,428.694v1.26h0.036c0.335-0.479,0.741-0.854,1.215-1.116c0.474-0.264,1.017-0.396,1.629-0.396
	c0.588,0,1.125,0.112,1.611,0.342c0.486,0.228,0.855,0.63,1.107,1.206c0.276-0.408,0.65-0.77,1.125-1.08
	c0.474-0.312,1.035-0.468,1.683-0.468c0.492,0,0.948,0.06,1.368,0.18s0.78,0.312,1.08,0.576c0.3,0.264,0.534,0.607,0.702,1.035
	c0.167,0.426,0.252,0.938,0.252,1.539V438h-2.556v-5.274c0-0.312-0.012-0.604-0.036-0.882c-0.024-0.273-0.09-0.516-0.198-0.72
	c-0.108-0.204-0.267-0.366-0.477-0.486c-0.21-0.117-0.495-0.18-0.855-0.18c-0.36,0-0.651,0.069-0.873,0.207
	c-0.222,0.138-0.396,0.318-0.522,0.54c-0.126,0.222-0.21,0.474-0.252,0.756s-0.063,0.567-0.063,0.855V438h-2.556v-5.22
	c0-0.276-0.006-0.549-0.018-0.819c-0.012-0.27-0.063-0.519-0.153-0.747c-0.09-0.228-0.24-0.411-0.45-0.549s-0.519-0.207-0.927-0.207
	c-0.12,0-0.279,0.027-0.477,0.081c-0.198,0.054-0.39,0.156-0.576,0.306c-0.186,0.15-0.345,0.366-0.477,0.648
	s-0.198,0.651-0.198,1.104v5.4h-2.556v-9.306L174.446,428.694L174.446,428.694z M187.298,430.404v-1.71h1.53v-0.723
	c0-0.825,0.258-1.506,0.774-2.031c0.516-0.528,1.296-0.792,2.34-0.792c0.228,0,0.456,0.009,0.684,0.024l0.666,0.045v1.908
	c-0.3-0.036-0.612-0.054-0.936-0.054c-0.348,0-0.597,0.081-0.747,0.243c-0.15,0.159-0.225,0.435-0.225,0.816v0.561h1.764v1.71
	h-1.764V438h-2.556v-7.596H187.298z M200.563,438v-1.296h-0.054c-0.324,0.54-0.744,0.93-1.26,1.17s-1.044,0.36-1.584,0.36
	c-0.684,0-1.245-0.093-1.683-0.271s-0.783-0.435-1.035-0.765s-0.429-0.732-0.531-1.206c-0.102-0.476-0.153-0.999-0.153-1.575v-5.724
	h2.556v5.256c0,0.768,0.12,1.341,0.36,1.719c0.24,0.378,0.666,0.567,1.278,0.567c0.696,0,1.2-0.207,1.512-0.621
	s0.468-1.097,0.468-2.043v-4.878h2.556V438H200.563z M207.565,425.148V438h-2.556v-12.852H207.565z M217.015,428.694v1.188h0.036
	c0.312-0.504,0.708-0.87,1.188-1.098c0.48-0.229,1.008-0.342,1.584-0.342c0.732,0,1.362,0.138,1.89,0.414
	c0.528,0.273,0.966,0.642,1.314,1.098c0.348,0.456,0.606,0.987,0.774,1.593c0.168,0.606,0.252,1.239,0.252,1.899
	c0,0.624-0.084,1.224-0.252,1.8s-0.423,1.086-0.765,1.53c-0.342,0.441-0.768,0.798-1.278,1.062c-0.51,0.264-1.107,0.396-1.791,0.396
	c-0.576,0-1.107-0.117-1.593-0.354c-0.486-0.231-0.885-0.579-1.197-1.035h-0.036v4.41h-2.556v-12.562H217.015L217.015,428.694z
	 M220.336,436.074c0.282-0.168,0.51-0.39,0.684-0.657c0.174-0.27,0.297-0.585,0.369-0.945c0.072-0.357,0.108-0.726,0.108-1.098
	s-0.039-0.738-0.117-1.098c-0.078-0.36-0.207-0.684-0.387-0.964c-0.18-0.281-0.411-0.512-0.693-0.686
	c-0.282-0.174-0.627-0.261-1.035-0.261c-0.42,0-0.771,0.087-1.053,0.261c-0.282,0.174-0.51,0.399-0.684,0.675
	c-0.174,0.276-0.297,0.597-0.369,0.954c-0.072,0.36-0.108,0.732-0.108,1.116c0,0.372,0.039,0.738,0.117,1.098
	c0.078,0.36,0.204,0.677,0.378,0.945c0.174,0.27,0.405,0.489,0.693,0.657s0.636,0.252,1.044,0.252
	C219.703,436.326,220.054,436.242,220.336,436.074L220.336,436.074z M228.013,428.694v1.728h0.036
	c0.12-0.288,0.282-0.555,0.486-0.801s0.438-0.456,0.702-0.63c0.264-0.174,0.546-0.311,0.846-0.405
	c0.3-0.095,0.612-0.144,0.936-0.144c0.167,0,0.354,0.027,0.558,0.09v2.376l-0.432-0.063c-0.168-0.018-0.331-0.024-0.486-0.024
	c-0.468,0-0.864,0.078-1.188,0.231c-0.324,0.156-0.585,0.369-0.783,0.642c-0.198,0.27-0.339,0.585-0.423,0.942
	c-0.084,0.36-0.126,0.75-0.126,1.17V438h-2.556v-9.306H228.013L228.013,428.694z M232.315,431.331
	c0.228-0.605,0.552-1.122,0.972-1.548s0.924-0.756,1.512-0.99c0.588-0.234,1.248-0.351,1.98-0.351c0.731,0,1.395,0.114,1.989,0.351
	c0.594,0.235,1.101,0.564,1.521,0.99s0.744,0.94,0.972,1.548c0.228,0.604,0.342,1.281,0.342,2.025c0,0.742-0.114,1.415-0.342,2.016
	s-0.552,1.113-0.972,1.539s-0.927,0.753-1.521,0.979c-0.594,0.229-1.257,0.345-1.989,0.345c-0.732,0-1.393-0.114-1.98-0.345
	c-0.588-0.228-1.092-0.555-1.512-0.979c-0.42-0.426-0.744-0.938-0.972-1.539c-0.228-0.602-0.342-1.271-0.342-2.016
	C231.973,432.611,232.087,431.938,232.315,431.331z M234.637,434.445c0.072,0.354,0.195,0.672,0.369,0.954
	c0.174,0.279,0.405,0.507,0.693,0.675s0.648,0.252,1.08,0.252c0.432,0,0.794-0.084,1.089-0.252c0.294-0.168,0.528-0.396,0.702-0.675
	c0.174-0.282,0.297-0.603,0.369-0.954c0.072-0.354,0.108-0.719,0.108-1.089c0-0.372-0.036-0.738-0.108-1.101
	c-0.072-0.357-0.195-0.678-0.369-0.954c-0.174-0.273-0.408-0.501-0.702-0.675s-0.657-0.261-1.089-0.261
	c-0.432,0-0.792,0.087-1.08,0.261s-0.52,0.399-0.693,0.675c-0.174,0.276-0.297,0.597-0.369,0.954
	c-0.072,0.36-0.108,0.729-0.108,1.101S234.565,434.091,234.637,434.445z M252.052,438.684c-0.102,0.48-0.321,0.93-0.657,1.344
	s-0.822,0.765-1.458,1.053c-0.636,0.288-1.488,0.432-2.556,0.432c-0.457,0-0.921-0.057-1.395-0.171
	c-0.475-0.114-0.906-0.291-1.296-0.531c-0.39-0.238-0.714-0.549-0.972-0.927c-0.258-0.378-0.405-0.831-0.441-1.356h2.538
	c0.12,0.479,0.354,0.812,0.702,0.999c0.348,0.186,0.75,0.276,1.206,0.276c0.72,0,1.245-0.216,1.575-0.646
	c0.33-0.435,0.489-0.979,0.477-1.641v-1.224h-0.036c-0.276,0.492-0.669,0.854-1.179,1.089c-0.51,0.234-1.047,0.354-1.611,0.354
	c-0.696,0-1.296-0.123-1.8-0.369c-0.504-0.246-0.918-0.582-1.242-1.009c-0.324-0.428-0.561-0.926-0.711-1.493
	c-0.15-0.57-0.225-1.173-0.225-1.812c0-0.6,0.087-1.179,0.261-1.734c0.174-0.561,0.429-1.053,0.765-1.479s0.753-0.765,1.251-1.017
	s1.071-0.378,1.719-0.378c0.612,0,1.149,0.112,1.611,0.342c0.462,0.228,0.849,0.612,1.161,1.151h0.036v-1.241h2.43v8.712
	C252.205,437.778,252.154,438.204,252.052,438.684L252.052,438.684z M248.551,435.588c0.276-0.144,0.504-0.336,0.684-0.576
	c0.18-0.237,0.315-0.513,0.405-0.816c0.09-0.309,0.135-0.627,0.135-0.963c0-0.387-0.036-0.747-0.108-1.092
	c-0.072-0.342-0.192-0.645-0.36-0.906c-0.168-0.267-0.39-0.477-0.666-0.633c-0.276-0.153-0.624-0.231-1.044-0.231
	c-0.36,0-0.669,0.072-0.927,0.216c-0.258,0.146-0.474,0.339-0.648,0.585c-0.174,0.246-0.3,0.528-0.378,0.846
	c-0.078,0.318-0.117,0.651-0.117,0.999c0,0.336,0.033,0.669,0.099,0.999s0.18,0.628,0.342,0.894
	c0.162,0.264,0.375,0.479,0.639,0.646c0.264,0.167,0.594,0.252,0.99,0.252C247.957,435.804,248.275,435.732,248.551,435.588
	L248.551,435.588z M256.687,428.694v1.728h0.036c0.12-0.288,0.282-0.555,0.486-0.801s0.438-0.456,0.702-0.63
	s0.546-0.311,0.846-0.405c0.3-0.096,0.612-0.144,0.936-0.144c0.167,0,0.354,0.027,0.558,0.09v2.376l-0.432-0.063
	c-0.168-0.018-0.331-0.024-0.486-0.024c-0.468,0-0.864,0.078-1.188,0.231c-0.324,0.156-0.585,0.369-0.783,0.642
	c-0.198,0.27-0.339,0.585-0.423,0.942c-0.084,0.36-0.126,0.75-0.126,1.17V438h-2.556v-9.306H256.687L256.687,428.694z
	 M261.15,431.556c0.036-0.6,0.186-1.098,0.45-1.493s0.6-0.714,1.008-0.952c0.408-0.24,0.867-0.411,1.377-0.516
	c0.51-0.102,1.022-0.15,1.539-0.15c0.468,0,0.942,0.031,1.422,0.099c0.479,0.066,0.918,0.195,1.314,0.387
	c0.396,0.192,0.72,0.459,0.972,0.803c0.252,0.343,0.378,0.796,0.378,1.357v4.842c0,0.421,0.024,0.822,0.072,1.206
	c0.048,0.387,0.132,0.673,0.252,0.864h-2.592c-0.048-0.144-0.087-0.291-0.117-0.441c-0.03-0.147-0.051-0.303-0.063-0.459
	c-0.408,0.422-0.888,0.717-1.44,0.885c-0.552,0.168-1.116,0.252-1.692,0.252c-0.444,0-0.858-0.057-1.242-0.162
	c-0.384-0.108-0.72-0.276-1.008-0.504c-0.288-0.229-0.513-0.519-0.675-0.864c-0.162-0.348-0.243-0.762-0.243-1.242
	c0-0.526,0.093-0.963,0.279-1.305s0.426-0.615,0.72-0.819c0.294-0.204,0.63-0.354,1.008-0.459c0.378-0.102,0.759-0.183,1.143-0.243
	c0.384-0.06,0.762-0.105,1.134-0.144s0.702-0.09,0.99-0.162c0.288-0.072,0.516-0.177,0.684-0.315
	c0.168-0.138,0.246-0.339,0.234-0.603c0-0.276-0.045-0.495-0.135-0.657c-0.09-0.162-0.21-0.288-0.36-0.378s-0.324-0.147-0.522-0.18
	c-0.198-0.03-0.411-0.045-0.639-0.045c-0.504,0-0.9,0.105-1.188,0.321c-0.288,0.219-0.456,0.576-0.504,1.08L261.15,431.556
	L261.15,431.556z M267.055,433.446c-0.108,0.096-0.243,0.171-0.405,0.225c-0.162,0.054-0.336,0.099-0.522,0.135l-0.585,0.093
	c-0.204,0.021-0.408,0.054-0.612,0.09c-0.192,0.036-0.381,0.084-0.567,0.144c-0.188,0.062-0.348,0.144-0.486,0.243
	c-0.138,0.102-0.249,0.231-0.333,0.387c-0.084,0.156-0.126,0.354-0.126,0.596c0,0.229,0.042,0.421,0.126,0.574
	c0.084,0.156,0.198,0.279,0.342,0.369s0.312,0.153,0.504,0.189s0.39,0.054,0.594,0.054c0.504,0,0.894-0.084,1.17-0.252
	c0.276-0.168,0.479-0.369,0.612-0.604c0.132-0.232,0.213-0.472,0.243-0.712c0.03-0.237,0.045-0.432,0.045-0.573V433.446
	L267.055,433.446z M274.075,428.694v1.26h0.036c0.335-0.479,0.741-0.854,1.215-1.116c0.474-0.264,1.017-0.396,1.629-0.396
	c0.588,0,1.125,0.112,1.611,0.342c0.485,0.228,0.854,0.63,1.106,1.206c0.276-0.408,0.65-0.77,1.125-1.08
	c0.475-0.312,1.035-0.468,1.684-0.468c0.491,0,0.947,0.06,1.367,0.18c0.421,0.12,0.78,0.312,1.08,0.576
	c0.301,0.264,0.534,0.607,0.702,1.035c0.167,0.426,0.252,0.938,0.252,1.539V438h-2.556v-5.274c0-0.312-0.012-0.604-0.036-0.882
	c-0.023-0.273-0.09-0.516-0.198-0.72c-0.107-0.204-0.267-0.366-0.477-0.486c-0.21-0.117-0.495-0.18-0.855-0.18
	c-0.359,0-0.65,0.069-0.873,0.207c-0.222,0.138-0.396,0.318-0.521,0.54s-0.21,0.474-0.252,0.756s-0.063,0.567-0.063,0.855V438
	h-2.556v-5.22c0-0.276-0.006-0.549-0.018-0.819c-0.013-0.27-0.063-0.519-0.153-0.747c-0.09-0.228-0.24-0.411-0.45-0.549
	s-0.519-0.207-0.927-0.207c-0.12,0-0.279,0.027-0.478,0.081c-0.197,0.054-0.39,0.156-0.575,0.306
	c-0.187,0.15-0.346,0.366-0.478,0.648s-0.198,0.651-0.198,1.104v5.4h-2.556v-9.306L274.075,428.694L274.075,428.694z
	 M290.049,435.688c0.114,0.197,0.262,0.359,0.441,0.485s0.387,0.22,0.621,0.279c0.233,0.059,0.477,0.09,0.729,0.09
	c0.181,0,0.369-0.021,0.567-0.063c0.198-0.039,0.378-0.105,0.54-0.195s0.297-0.21,0.405-0.36c0.107-0.147,0.161-0.339,0.161-0.565
	c0-0.386-0.255-0.674-0.765-0.863c-0.51-0.192-1.221-0.384-2.133-0.576c-0.372-0.084-0.735-0.183-1.089-0.297
	c-0.354-0.114-0.669-0.264-0.945-0.45c-0.276-0.186-0.498-0.42-0.666-0.702c-0.168-0.281-0.252-0.627-0.252-1.035
	c0-0.6,0.117-1.092,0.351-1.476c0.234-0.384,0.543-0.688,0.928-0.909c0.384-0.222,0.815-0.378,1.296-0.468
	c0.479-0.09,0.972-0.135,1.476-0.135s0.993,0.048,1.467,0.144c0.475,0.097,0.897,0.258,1.27,0.486
	c0.372,0.228,0.681,0.529,0.927,0.909c0.246,0.378,0.394,0.854,0.441,1.431h-2.431c-0.035-0.492-0.222-0.825-0.558-0.999
	s-0.732-0.261-1.188-0.261l-0.469,0.024c-0.168,0.021-0.32,0.06-0.459,0.117c-0.138,0.062-0.255,0.147-0.351,0.261
	c-0.096,0.114-0.145,0.27-0.145,0.459c0,0.229,0.084,0.414,0.252,0.561c0.168,0.144,0.388,0.261,0.657,0.351
	c0.271,0.091,0.579,0.171,0.927,0.243l1.062,0.234c0.372,0.084,0.735,0.186,1.089,0.306c0.354,0.12,0.669,0.279,0.945,0.479
	c0.275,0.196,0.498,0.442,0.666,0.736s0.252,0.657,0.252,1.089c0,0.612-0.123,1.125-0.369,1.539s-0.567,0.747-0.963,0.999
	c-0.396,0.252-0.85,0.432-1.359,0.531c-0.51,0.103-1.028,0.153-1.557,0.153c-0.54,0-1.068-0.057-1.584-0.162
	c-0.517-0.108-0.976-0.288-1.377-0.54c-0.402-0.252-0.732-0.585-0.99-0.999s-0.399-0.934-0.423-1.559h2.43
	C289.878,435.252,289.936,435.489,290.049,435.688L290.049,435.688z M301.596,430.404v-1.71h1.53v-0.723
	c0-0.825,0.258-1.506,0.774-2.031c0.516-0.528,1.296-0.792,2.34-0.792c0.228,0,0.456,0.009,0.684,0.024l0.666,0.045v1.908
	c-0.3-0.036-0.611-0.054-0.936-0.054c-0.349,0-0.598,0.081-0.747,0.243c-0.15,0.16-0.226,0.435-0.226,0.816v0.561h1.765v1.71h-1.765
	V438h-2.556v-7.596H301.596L301.596,430.404z M308.616,431.331c0.228-0.605,0.552-1.122,0.972-1.548s0.924-0.756,1.512-0.99
	c0.589-0.234,1.248-0.351,1.98-0.351c0.73,0,1.395,0.114,1.989,0.351c0.594,0.235,1.101,0.564,1.521,0.99s0.744,0.94,0.973,1.548
	c0.229,0.605,0.343,1.281,0.343,2.025c0,0.742-0.114,1.415-0.343,2.016s-0.553,1.113-0.973,1.539s-0.927,0.753-1.521,0.979
	c-0.595,0.229-1.257,0.345-1.989,0.345s-1.393-0.114-1.98-0.345c-0.588-0.228-1.092-0.555-1.512-0.979
	c-0.42-0.426-0.744-0.938-0.972-1.539c-0.229-0.601-0.342-1.271-0.342-2.016C308.274,432.611,308.388,431.938,308.616,431.331z
	 M310.938,434.445c0.071,0.354,0.194,0.672,0.368,0.954c0.175,0.279,0.405,0.507,0.693,0.675s0.648,0.252,1.08,0.252
	s0.794-0.084,1.089-0.252c0.294-0.168,0.528-0.396,0.702-0.675c0.174-0.282,0.297-0.603,0.369-0.954
	c0.071-0.354,0.107-0.718,0.107-1.089c0-0.372-0.036-0.738-0.107-1.101c-0.072-0.357-0.195-0.678-0.369-0.954
	c-0.174-0.273-0.408-0.501-0.702-0.675s-0.657-0.261-1.089-0.261s-0.792,0.087-1.08,0.261s-0.52,0.399-0.693,0.675
	c-0.174,0.276-0.297,0.597-0.368,0.954c-0.072,0.36-0.108,0.729-0.108,1.101S310.866,434.091,310.938,434.445z M321.99,428.694
	v1.728h0.036c0.119-0.288,0.28-0.555,0.484-0.801s0.438-0.456,0.702-0.63s0.546-0.311,0.846-0.405
	c0.301-0.096,0.612-0.144,0.938-0.144c0.168,0,0.354,0.027,0.558,0.09v2.376l-0.432-0.063c-0.168-0.018-0.33-0.024-0.486-0.024
	c-0.468,0-0.863,0.078-1.188,0.231c-0.324,0.156-0.585,0.369-0.783,0.642c-0.198,0.27-0.339,0.585-0.423,0.942
	c-0.084,0.36-0.126,0.75-0.126,1.17V438h-2.558v-9.306H321.99L321.99,428.694z M335.004,440.772
	c-0.492,0.321-1.177,0.483-2.052,0.483c-0.265,0-0.525-0.009-0.783-0.024l-0.783-0.063v-2.104l0.738,0.07
	c0,0,0.504,0.03,0.756,0.021c0.336-0.036,0.585-0.169,0.747-0.396c0.162-0.227,0.243-0.479,0.243-0.756
	c0-0.204-0.036-0.396-0.108-0.576l-3.258-8.729h2.718l2.106,6.372h0.035l2.034-6.372h2.646l-3.889,10.458
	C335.88,439.908,335.496,440.448,335.004,440.772L335.004,440.772z M340.962,431.331c0.229-0.605,0.552-1.122,0.972-1.548
	c0.421-0.426,0.925-0.756,1.513-0.99s1.248-0.351,1.979-0.351c0.73,0,1.396,0.114,1.988,0.351c0.595,0.234,1.102,0.564,1.521,0.99
	c0.418,0.426,0.742,0.94,0.971,1.548c0.229,0.605,0.344,1.281,0.344,2.025c0,0.742-0.114,1.415-0.344,2.016
	c-0.229,0.601-0.551,1.113-0.971,1.539c-0.421,0.426-0.929,0.753-1.521,0.979c-0.594,0.229-1.257,0.345-1.988,0.345
	s-1.393-0.114-1.979-0.345c-0.588-0.228-1.092-0.555-1.513-0.979c-0.42-0.424-0.743-0.938-0.972-1.539s-0.343-1.271-0.343-2.016
	C340.619,432.611,340.733,431.938,340.962,431.331z M343.283,434.445c0.072,0.354,0.195,0.672,0.369,0.954
	c0.174,0.279,0.403,0.507,0.691,0.675s0.647,0.252,1.08,0.252c0.434,0,0.795-0.084,1.089-0.252c0.295-0.168,0.527-0.396,0.702-0.675
	c0.175-0.282,0.297-0.603,0.369-0.954c0.071-0.354,0.106-0.718,0.106-1.089c0-0.372-0.035-0.738-0.106-1.101
	c-0.072-0.357-0.194-0.678-0.369-0.954c-0.175-0.273-0.407-0.501-0.702-0.675c-0.294-0.174-0.655-0.261-1.089-0.261
	c-0.433,0-0.792,0.087-1.08,0.261s-0.52,0.399-0.691,0.675c-0.174,0.276-0.297,0.597-0.369,0.954
	c-0.071,0.36-0.107,0.729-0.107,1.101S343.212,434.091,343.283,434.445z M358.206,438v-1.296h-0.056
	c-0.323,0.54-0.743,0.93-1.261,1.17c-0.516,0.24-1.043,0.36-1.584,0.36c-0.684,0-1.243-0.093-1.683-0.271s-0.783-0.435-1.035-0.765
	s-0.43-0.732-0.53-1.206c-0.104-0.476-0.153-0.999-0.153-1.575v-5.724h2.558v5.256c0,0.768,0.119,1.341,0.358,1.719
	c0.24,0.378,0.666,0.567,1.278,0.567c0.694,0,1.199-0.207,1.513-0.621c0.312-0.414,0.469-1.097,0.469-2.043v-4.878h2.556V438
	H358.206L358.206,438z M365.01,428.694v1.728h0.036c0.119-0.288,0.281-0.555,0.485-0.801s0.438-0.456,0.702-0.63
	c0.264-0.174,0.546-0.311,0.846-0.405s0.612-0.144,0.937-0.144c0.168,0,0.354,0.027,0.56,0.09v2.376l-0.434-0.063
	c-0.168-0.018-0.328-0.024-0.484-0.024c-0.468,0-0.864,0.078-1.188,0.231c-0.323,0.156-0.585,0.369-0.782,0.642
	c-0.197,0.27-0.34,0.585-0.424,0.942c-0.084,0.36-0.126,0.75-0.126,1.17V438h-2.557v-9.306H365.01z M379.031,430.368
	c-0.408,0-0.75,0.093-1.026,0.279c-0.273,0.186-0.501,0.426-0.675,0.72s-0.297,0.618-0.369,0.972
	c-0.071,0.354-0.106,0.705-0.106,1.053c0,0.339,0.035,0.681,0.106,1.026c0.072,0.349,0.189,0.663,0.353,0.945
	c0.163,0.281,0.382,0.513,0.656,0.69c0.275,0.183,0.611,0.271,1.009,0.271c0.61,0,1.083-0.171,1.412-0.513
	c0.329-0.345,0.536-0.804,0.621-1.38h2.467c-0.168,1.236-0.647,2.181-1.439,2.826c-0.792,0.648-1.806,0.975-3.042,0.975
	c-0.696,0-1.335-0.117-1.917-0.354c-0.582-0.231-1.077-0.561-1.484-0.979c-0.406-0.42-0.727-0.921-0.953-1.503
	c-0.229-0.582-0.344-1.224-0.344-1.917c0-0.723,0.105-1.392,0.315-2.01c0.21-0.615,0.519-1.149,0.927-1.602s0.906-0.801,1.494-1.053
	s1.26-0.378,2.016-0.378c0.554,0,1.083,0.069,1.595,0.216c0.511,0.144,0.967,0.362,1.367,0.657c0.401,0.294,0.729,0.657,0.98,1.098
	c0.251,0.438,0.396,0.957,0.432,1.557h-2.502C380.753,430.902,380.123,430.368,379.031,430.368L379.031,430.368z M384.972,431.331
	c0.229-0.605,0.554-1.122,0.974-1.548s0.924-0.756,1.512-0.99s1.248-0.351,1.979-0.351c0.73,0,1.396,0.114,1.987,0.351
	c0.596,0.234,1.104,0.564,1.521,0.99s0.744,0.94,0.972,1.548c0.229,0.606,0.343,1.281,0.343,2.025c0,0.742-0.113,1.416-0.343,2.016
	c-0.228,0.601-0.552,1.113-0.972,1.539s-0.929,0.753-1.521,0.979c-0.594,0.229-1.257,0.345-1.987,0.345
	c-0.731,0-1.394-0.114-1.979-0.345c-0.588-0.228-1.092-0.555-1.512-0.979s-0.744-0.938-0.974-1.539
	c-0.229-0.6-0.343-1.271-0.343-2.016C384.629,432.611,384.743,431.938,384.972,431.331z M387.293,434.445
	c0.072,0.354,0.195,0.672,0.369,0.954c0.174,0.279,0.405,0.507,0.693,0.675c0.286,0.168,0.646,0.252,1.078,0.252
	c0.434,0,0.797-0.084,1.091-0.252s0.525-0.396,0.7-0.675c0.176-0.282,0.299-0.603,0.369-0.954c0.071-0.354,0.107-0.717,0.107-1.089
	s-0.036-0.738-0.107-1.101c-0.07-0.357-0.193-0.678-0.369-0.954c-0.175-0.273-0.406-0.501-0.7-0.675
	c-0.295-0.174-0.657-0.261-1.091-0.261c-0.433,0-0.791,0.087-1.078,0.261c-0.288,0.174-0.521,0.399-0.693,0.675
	c-0.174,0.276-0.297,0.597-0.369,0.954c-0.071,0.36-0.106,0.729-0.106,1.101S387.222,434.091,387.293,434.445z M398.398,428.694
	v1.26h0.035c0.336-0.479,0.739-0.853,1.216-1.116c0.474-0.264,1.017-0.396,1.629-0.396c0.588,0,1.125,0.112,1.609,0.342
	c0.485,0.228,0.854,0.63,1.106,1.206c0.276-0.408,0.651-0.77,1.125-1.08c0.475-0.312,1.035-0.468,1.684-0.468
	c0.491,0,0.947,0.06,1.368,0.18c0.42,0.12,0.779,0.312,1.079,0.576c0.3,0.264,0.534,0.607,0.702,1.035
	c0.168,0.426,0.252,0.938,0.252,1.539V438h-2.556v-5.273c0-0.312-0.014-0.604-0.036-0.883c-0.024-0.273-0.09-0.516-0.198-0.72
	c-0.107-0.204-0.267-0.366-0.477-0.486c-0.21-0.117-0.495-0.18-0.855-0.18c-0.359,0-0.65,0.069-0.873,0.207
	c-0.222,0.138-0.396,0.318-0.521,0.54s-0.21,0.474-0.252,0.756c-0.043,0.282-0.063,0.567-0.063,0.855V438h-2.556v-5.22
	c0-0.276-0.006-0.549-0.02-0.819c-0.013-0.27-0.062-0.519-0.151-0.747c-0.092-0.228-0.24-0.411-0.45-0.549s-0.521-0.207-0.929-0.207
	c-0.118,0-0.277,0.027-0.478,0.081c-0.197,0.054-0.39,0.156-0.575,0.306c-0.187,0.15-0.346,0.366-0.478,0.648
	s-0.198,0.651-0.198,1.105v5.399h-2.556v-9.306L398.398,428.694L398.398,428.694z M414.653,428.694v1.188h0.036
	c0.312-0.504,0.707-0.87,1.188-1.098c0.479-0.229,1.008-0.342,1.584-0.342c0.731,0,1.362,0.138,1.891,0.414
	c0.527,0.273,0.967,0.642,1.313,1.098s0.605,0.987,0.774,1.593c0.167,0.606,0.252,1.239,0.252,1.899c0,0.624-0.085,1.224-0.252,1.8
	c-0.17,0.576-0.426,1.086-0.768,1.53c-0.342,0.441-0.768,0.798-1.277,1.062c-0.511,0.264-1.105,0.396-1.79,0.396
	c-0.575,0-1.106-0.117-1.595-0.354c-0.483-0.231-0.885-0.579-1.194-1.035h-0.036v4.41h-2.559v-12.562H414.653L414.653,428.694z
	 M417.975,436.074c0.281-0.168,0.511-0.389,0.686-0.657c0.174-0.27,0.297-0.585,0.369-0.945c0.07-0.357,0.105-0.726,0.105-1.098
	s-0.039-0.738-0.116-1.098c-0.077-0.36-0.207-0.684-0.388-0.963c-0.18-0.282-0.411-0.513-0.691-0.687
	c-0.281-0.174-0.628-0.261-1.034-0.261c-0.421,0-0.771,0.087-1.055,0.261c-0.28,0.174-0.511,0.399-0.685,0.675
	c-0.174,0.276-0.297,0.597-0.369,0.954c-0.071,0.36-0.105,0.732-0.105,1.116c0,0.372,0.038,0.738,0.115,1.098
	c0.077,0.36,0.203,0.678,0.378,0.945c0.175,0.27,0.404,0.489,0.692,0.657s0.636,0.252,1.044,0.252
	C417.341,436.326,417.691,436.242,417.975,436.074L417.975,436.074z M429.521,438v-1.296h-0.057c-0.324,0.54-0.744,0.93-1.26,1.17
	s-1.044,0.36-1.584,0.36c-0.684,0-1.245-0.093-1.683-0.271c-0.438-0.18-0.783-0.435-1.035-0.765s-0.432-0.732-0.531-1.206
	c-0.104-0.476-0.153-0.999-0.153-1.575v-5.724h2.559v5.256c0,0.768,0.118,1.341,0.357,1.719c0.24,0.378,0.666,0.567,1.278,0.567
	c0.695,0,1.2-0.207,1.512-0.621c0.312-0.414,0.47-1.096,0.47-2.043v-4.878h2.557V438H429.521L429.521,438z M439.006,428.694v1.71
	h-1.872v4.605c0,0.435,0.072,0.723,0.216,0.864c0.146,0.145,0.435,0.216,0.864,0.216l0.414-0.018l0.378-0.057V438
	c-0.216,0.036-0.456,0.061-0.72,0.072c-0.265,0.012-0.522,0.018-0.774,0.018c-0.396,0-0.771-0.024-1.125-0.081
	c-0.354-0.054-0.666-0.159-0.936-0.312c-0.271-0.156-0.483-0.378-0.641-0.666c-0.154-0.288-0.232-0.666-0.232-1.135v-5.489h-1.548
	v-1.71h1.548v-2.79h2.556v2.79L439.006,428.694L439.006,428.694z M442.966,435.768c0.384,0.372,0.938,0.561,1.656,0.561
	c0.516,0,0.96-0.129,1.332-0.387c0.371-0.261,0.6-0.531,0.684-0.819h2.25c-0.358,1.116-0.911,1.914-1.654,2.394
	c-0.744,0.48-1.646,0.723-2.699,0.723c-0.732,0-1.395-0.117-1.98-0.354c-0.588-0.231-1.086-0.564-1.493-0.999
	c-0.407-0.432-0.724-0.945-0.943-1.548c-0.224-0.6-0.333-1.26-0.333-1.979c0-0.696,0.112-1.347,0.342-1.944
	c0.229-0.6,0.552-1.119,0.972-1.557c0.421-0.438,0.922-0.783,1.504-1.035c0.581-0.252,1.228-0.378,1.937-0.378
	c0.792,0,1.48,0.15,2.068,0.459c0.589,0.306,1.07,0.717,1.448,1.23c0.378,0.519,0.65,1.104,0.819,1.767
	c0.168,0.658,0.229,1.35,0.18,2.067h-6.714C442.372,434.796,442.582,435.396,442.966,435.768z M445.854,430.872
	c-0.307-0.336-0.771-0.504-1.396-0.504c-0.408,0-0.747,0.069-1.018,0.207c-0.271,0.138-0.485,0.309-0.647,0.513
	s-0.275,0.42-0.342,0.648c-0.066,0.228-0.105,0.432-0.117,0.609h4.158C446.374,431.7,446.161,431.208,445.854,430.872
	L445.854,430.872z M452.992,428.694v1.728h0.036c0.119-0.288,0.28-0.555,0.483-0.801c0.204-0.246,0.438-0.456,0.702-0.63
	c0.265-0.174,0.546-0.311,0.847-0.405c0.301-0.096,0.611-0.144,0.938-0.144c0.168,0,0.354,0.027,0.558,0.09v2.376l-0.432-0.063
	c-0.168-0.018-0.33-0.024-0.486-0.024c-0.468,0-0.862,0.078-1.188,0.231c-0.324,0.156-0.585,0.369-0.783,0.642
	c-0.198,0.27-0.339,0.585-0.423,0.942c-0.084,0.36-0.126,0.75-0.126,1.17V438h-2.558v-9.306H452.992L452.992,428.694z
	 M458.859,435.229V438c0,0.408-0.075,0.783-0.227,1.125c-0.148,0.342-0.352,0.639-0.604,0.891s-0.549,0.459-0.893,0.621
	c-0.342,0.162-0.705,0.273-1.089,0.333v-1.296c0.182-0.036,0.353-0.105,0.515-0.216c0.16-0.109,0.303-0.237,0.423-0.387
	c0.12-0.15,0.21-0.318,0.271-0.504c0.062-0.188,0.084-0.376,0.071-0.567h-1.296v-2.771H458.859L458.859,435.229z M465.178,427.524
	v-2.376h10.529v2.376h-3.852V438h-2.826v-10.476H465.178z M477.688,428.694v1.728h0.034c0.119-0.288,0.281-0.555,0.485-0.801
	s0.438-0.456,0.702-0.63s0.546-0.311,0.846-0.405c0.301-0.095,0.612-0.144,0.938-0.144c0.168,0,0.354,0.027,0.558,0.09v2.376
	l-0.432-0.063c-0.168-0.018-0.33-0.024-0.486-0.024c-0.468,0-0.864,0.078-1.188,0.231c-0.324,0.156-0.586,0.369-0.783,0.642
	c-0.198,0.27-0.339,0.585-0.423,0.942c-0.084,0.36-0.126,0.75-0.126,1.17V438h-2.559v-9.306H477.688L477.688,428.694z
	 M481.99,431.331c0.228-0.605,0.552-1.122,0.972-1.548s0.924-0.756,1.513-0.99s1.247-0.351,1.979-0.351
	c0.729,0,1.396,0.114,1.988,0.351c0.595,0.234,1.102,0.564,1.521,0.99s0.744,0.94,0.973,1.548c0.229,0.606,0.344,1.281,0.344,2.025
	c0,0.742-0.114,1.416-0.344,2.016c-0.229,0.601-0.553,1.113-0.973,1.539s-0.927,0.753-1.521,0.979
	c-0.596,0.229-1.259,0.345-1.988,0.345c-0.732,0-1.394-0.114-1.979-0.345c-0.589-0.228-1.093-0.555-1.513-0.979
	s-0.744-0.938-0.972-1.539c-0.229-0.6-0.344-1.271-0.344-2.016C481.646,432.611,481.762,431.938,481.99,431.331z M484.312,434.445
	c0.07,0.354,0.193,0.672,0.367,0.954c0.176,0.279,0.405,0.507,0.693,0.675s0.647,0.252,1.08,0.252c0.432,0,0.795-0.084,1.089-0.252
	s0.527-0.396,0.702-0.675c0.174-0.282,0.297-0.603,0.369-0.954c0.071-0.354,0.105-0.717,0.105-1.089s-0.034-0.738-0.105-1.101
	c-0.072-0.357-0.195-0.678-0.369-0.954c-0.175-0.273-0.408-0.501-0.702-0.675s-0.657-0.261-1.089-0.261
	c-0.433,0-0.792,0.087-1.08,0.261s-0.521,0.399-0.693,0.675c-0.174,0.276-0.297,0.597-0.367,0.954
	c-0.071,0.36-0.107,0.729-0.107,1.101S484.24,434.091,484.312,434.445z M492.178,439.152c0.266,0,0.495-0.054,0.693-0.153
	c0.198-0.103,0.297-0.327,0.297-0.675v-9.63h2.557v9.756c0,0.479-0.052,0.894-0.151,1.242c-0.104,0.348-0.276,0.639-0.522,0.873
	c-0.245,0.231-0.578,0.405-0.999,0.521c-0.42,0.115-0.953,0.171-1.602,0.171c-0.301,0-0.57-0.022-0.812-0.071v-2.104
	C491.771,439.128,491.95,439.152,492.178,439.152L492.178,439.152z M493.168,427.254v-2.104h2.557v2.104H493.168z M497.83,431.556
	c0.036-0.6,0.186-1.098,0.45-1.492c0.264-0.396,0.6-0.715,1.008-0.953c0.407-0.24,0.866-0.411,1.377-0.516
	c0.51-0.102,1.022-0.15,1.539-0.15c0.468,0,0.94,0.031,1.422,0.099c0.479,0.066,0.918,0.195,1.313,0.387
	c0.396,0.192,0.721,0.459,0.973,0.803c0.252,0.343,0.378,0.796,0.378,1.357v4.842c0,0.422,0.023,0.822,0.072,1.206
	c0.047,0.387,0.132,0.675,0.252,0.864h-2.593c-0.049-0.144-0.088-0.291-0.116-0.439c-0.03-0.149-0.052-0.305-0.063-0.461
	c-0.407,0.423-0.888,0.717-1.438,0.885c-0.553,0.168-1.115,0.252-1.691,0.252c-0.442,0-0.856-0.057-1.242-0.162
	c-0.384-0.108-0.72-0.276-1.008-0.504c-0.288-0.229-0.513-0.519-0.675-0.864s-0.243-0.762-0.243-1.242
	c0-0.525,0.093-0.963,0.279-1.305c0.186-0.342,0.426-0.615,0.72-0.819s0.63-0.354,1.008-0.459c0.378-0.102,0.76-0.183,1.145-0.243
	c0.385-0.06,0.763-0.105,1.135-0.144c0.371-0.036,0.701-0.09,0.989-0.162s0.517-0.177,0.685-0.314
	c0.168-0.139,0.246-0.34,0.233-0.604c0-0.276-0.045-0.495-0.136-0.657s-0.211-0.288-0.358-0.378c-0.15-0.09-0.324-0.147-0.522-0.18
	c-0.196-0.031-0.41-0.045-0.639-0.045c-0.504,0-0.899,0.105-1.188,0.322c-0.288,0.218-0.456,0.575-0.505,1.079L497.83,431.556
	L497.83,431.556z M503.733,433.446c-0.107,0.096-0.242,0.171-0.404,0.225s-0.336,0.101-0.521,0.135l-0.585,0.093
	c-0.204,0.021-0.407,0.054-0.611,0.09c-0.191,0.036-0.381,0.084-0.566,0.144c-0.187,0.062-0.349,0.144-0.485,0.243
	c-0.138,0.103-0.249,0.231-0.333,0.387c-0.084,0.156-0.126,0.354-0.126,0.596c0,0.229,0.042,0.421,0.126,0.574
	c0.084,0.156,0.197,0.279,0.343,0.369c0.145,0.09,0.312,0.153,0.504,0.189c0.19,0.036,0.391,0.054,0.595,0.054
	c0.504,0,0.895-0.084,1.17-0.252s0.479-0.369,0.612-0.604c0.132-0.233,0.213-0.473,0.242-0.712c0.028-0.238,0.045-0.433,0.045-0.574
	v-0.955L503.733,433.446L503.733,433.446z M510.7,428.694v1.296h0.054c0.324-0.54,0.744-0.936,1.26-1.18
	c0.518-0.245,1.045-0.368,1.584-0.368c0.687,0,1.245,0.093,1.686,0.276c0.438,0.188,0.782,0.444,1.034,0.774s0.43,0.73,0.53,1.206
	c0.102,0.474,0.152,1,0.152,1.576V438h-2.556v-5.256c0-0.77-0.12-1.341-0.36-1.719s-0.666-0.567-1.277-0.567
	c-0.695,0-1.199,0.207-1.513,0.621c-0.312,0.414-0.468,1.095-0.468,2.043V438h-2.558v-9.306H510.7L510.7,428.694z M521.095,435.688
	c0.114,0.196,0.263,0.358,0.441,0.484s0.387,0.22,0.62,0.279c0.232,0.059,0.478,0.09,0.729,0.09c0.182,0,0.369-0.021,0.567-0.062
	c0.197-0.041,0.378-0.107,0.54-0.197c0.161-0.09,0.297-0.21,0.404-0.36c0.106-0.147,0.16-0.339,0.16-0.565
	c0-0.386-0.255-0.673-0.765-0.863c-0.511-0.192-1.222-0.384-2.133-0.576c-0.372-0.084-0.735-0.183-1.09-0.297
	c-0.355-0.114-0.669-0.264-0.944-0.45c-0.275-0.186-0.498-0.42-0.666-0.702c-0.168-0.279-0.252-0.627-0.252-1.035
	c0-0.6,0.117-1.092,0.352-1.476c0.233-0.384,0.543-0.687,0.928-0.909c0.385-0.222,0.814-0.378,1.296-0.468
	c0.479-0.09,0.973-0.135,1.477-0.135s0.993,0.048,1.468,0.144c0.475,0.099,0.896,0.258,1.271,0.486
	c0.371,0.228,0.681,0.53,0.927,0.909c0.246,0.378,0.395,0.854,0.44,1.431h-2.432c-0.035-0.492-0.222-0.825-0.558-0.999
	s-0.732-0.261-1.188-0.261l-0.47,0.024c-0.168,0.021-0.319,0.06-0.459,0.117c-0.138,0.062-0.255,0.147-0.351,0.262
	c-0.097,0.113-0.146,0.269-0.146,0.46c0,0.229,0.084,0.412,0.252,0.559c0.168,0.144,0.389,0.261,0.657,0.351
	c0.271,0.092,0.579,0.171,0.927,0.243l1.062,0.234c0.371,0.084,0.734,0.186,1.089,0.306c0.355,0.12,0.669,0.279,0.944,0.479
	c0.274,0.196,0.498,0.442,0.666,0.736s0.252,0.657,0.252,1.089c0,0.612-0.123,1.125-0.368,1.539
	c-0.246,0.414-0.567,0.747-0.964,0.999c-0.397,0.252-0.851,0.432-1.358,0.531c-0.511,0.104-1.027,0.153-1.557,0.153
	c-0.54,0-1.068-0.056-1.585-0.162c-0.518-0.108-0.977-0.288-1.377-0.54c-0.401-0.252-0.731-0.585-0.989-0.999
	c-0.259-0.414-0.399-0.934-0.423-1.558h2.43C520.924,435.252,520.98,435.489,521.095,435.688L521.095,435.688z M533.505,431.556
	c0.036-0.6,0.188-1.098,0.45-1.492c0.264-0.396,0.6-0.715,1.008-0.953c0.407-0.24,0.866-0.411,1.377-0.516
	c0.511-0.102,1.022-0.15,1.539-0.15c0.469,0,0.941,0.031,1.422,0.099c0.479,0.066,0.918,0.195,1.313,0.387
	c0.396,0.192,0.721,0.459,0.973,0.803c0.252,0.343,0.378,0.796,0.378,1.357v4.842c0,0.422,0.023,0.822,0.072,1.206
	c0.047,0.387,0.132,0.675,0.252,0.864h-2.593c-0.048-0.144-0.087-0.291-0.116-0.439c-0.03-0.149-0.052-0.305-0.062-0.461
	c-0.407,0.423-0.889,0.717-1.439,0.885s-1.115,0.252-1.691,0.252c-0.442,0-0.856-0.057-1.24-0.162
	c-0.386-0.108-0.722-0.276-1.01-0.504c-0.287-0.229-0.513-0.519-0.675-0.864s-0.243-0.762-0.243-1.242
	c0-0.525,0.095-0.963,0.279-1.305c0.186-0.342,0.426-0.615,0.72-0.819s0.63-0.354,1.009-0.459c0.379-0.102,0.76-0.183,1.144-0.243
	c0.385-0.06,0.763-0.105,1.135-0.144c0.371-0.036,0.701-0.09,0.989-0.162s0.517-0.177,0.685-0.314
	c0.169-0.139,0.246-0.34,0.233-0.604c0-0.276-0.045-0.495-0.135-0.657c-0.091-0.162-0.21-0.288-0.359-0.378
	c-0.15-0.09-0.324-0.147-0.521-0.18c-0.198-0.031-0.411-0.045-0.641-0.045c-0.504,0-0.898,0.105-1.188,0.322
	c-0.288,0.218-0.456,0.575-0.504,1.079L533.505,431.556L533.505,431.556z M539.408,433.446c-0.107,0.096-0.242,0.171-0.404,0.225
	s-0.336,0.101-0.521,0.135l-0.585,0.093c-0.204,0.021-0.408,0.054-0.612,0.09c-0.191,0.036-0.381,0.084-0.566,0.144
	c-0.187,0.062-0.349,0.144-0.484,0.243c-0.138,0.103-0.249,0.231-0.333,0.387c-0.084,0.156-0.126,0.354-0.126,0.596
	c0,0.229,0.042,0.421,0.126,0.574c0.084,0.156,0.197,0.279,0.342,0.369s0.312,0.153,0.504,0.189
	c0.192,0.036,0.391,0.054,0.595,0.054c0.505,0,0.896-0.084,1.17-0.252c0.275-0.168,0.479-0.369,0.612-0.604
	c0.132-0.233,0.213-0.473,0.242-0.712c0.029-0.238,0.045-0.433,0.045-0.574v-0.955L539.408,433.446L539.408,433.446z
	 M546.375,428.694v1.728h0.036c0.119-0.288,0.281-0.555,0.485-0.801c0.203-0.246,0.438-0.456,0.7-0.63
	c0.266-0.174,0.548-0.311,0.848-0.405s0.61-0.144,0.937-0.144c0.168,0,0.354,0.027,0.56,0.09v2.376l-0.434-0.063
	c-0.168-0.018-0.33-0.024-0.484-0.024c-0.47,0-0.864,0.078-1.188,0.231c-0.324,0.156-0.585,0.369-0.783,0.642
	c-0.197,0.27-0.339,0.585-0.423,0.942c-0.084,0.36-0.126,0.75-0.126,1.17V438h-2.557v-9.306H546.375L546.375,428.694z
	 M553.358,435.768c0.384,0.372,0.936,0.561,1.654,0.561c0.518,0,0.96-0.129,1.332-0.387c0.371-0.261,0.602-0.531,0.686-0.819h2.25
	c-0.36,1.116-0.912,1.914-1.656,2.394c-0.744,0.48-1.644,0.723-2.699,0.723c-0.73,0-1.393-0.117-1.979-0.354
	c-0.588-0.231-1.086-0.564-1.494-0.999c-0.408-0.432-0.724-0.945-0.944-1.548c-0.223-0.6-0.333-1.26-0.333-1.979
	c0-0.696,0.113-1.347,0.343-1.944c0.229-0.6,0.553-1.119,0.973-1.557c0.42-0.438,0.921-0.783,1.503-1.035s1.227-0.378,1.936-0.378
	c0.792,0,1.481,0.15,2.069,0.459c0.588,0.306,1.07,0.717,1.449,1.23c0.378,0.519,0.648,1.104,0.817,1.767
	c0.168,0.659,0.229,1.35,0.181,2.067h-6.714C552.765,434.796,552.975,435.396,553.358,435.768L553.358,435.768z M556.247,430.872
	c-0.306-0.336-0.771-0.504-1.396-0.504c-0.407,0-0.747,0.069-1.019,0.207c-0.271,0.138-0.485,0.309-0.646,0.513
	s-0.275,0.42-0.343,0.648c-0.064,0.228-0.104,0.432-0.116,0.609h4.157C556.768,431.7,556.554,431.208,556.247,430.872
	L556.247,430.872z M571.07,428.694v1.71h-1.872v4.605c0,0.435,0.071,0.723,0.216,0.864c0.145,0.146,0.433,0.216,0.864,0.216
	l0.414-0.018l0.378-0.057V438c-0.217,0.036-0.456,0.062-0.722,0.072l-0.772,0.018c-0.396,0-0.771-0.024-1.125-0.081
	c-0.354-0.054-0.666-0.159-0.938-0.312c-0.271-0.156-0.481-0.378-0.64-0.666c-0.155-0.288-0.233-0.666-0.233-1.135v-5.489h-1.548
	v-1.71h1.548v-2.79h2.558v2.79L571.07,428.694z M574.852,425.148v4.842h0.055c0.323-0.54,0.736-0.936,1.241-1.18
	c0.505-0.245,0.995-0.368,1.477-0.368c0.685,0,1.245,0.093,1.685,0.276c0.438,0.188,0.781,0.444,1.033,0.774
	s0.432,0.731,0.531,1.206c0.1,0.474,0.153,0.999,0.153,1.575V438h-2.558v-5.256c0-0.768-0.119-1.341-0.358-1.719
	c-0.24-0.378-0.666-0.567-1.278-0.567c-0.696,0-1.2,0.207-1.512,0.621c-0.312,0.414-0.469,1.095-0.469,2.043V438h-2.558v-12.852
	H574.852L574.852,425.148z M585.704,435.768c0.384,0.372,0.936,0.561,1.656,0.561c0.516,0,0.96-0.129,1.332-0.387
	c0.37-0.261,0.6-0.531,0.684-0.819h2.25c-0.36,1.116-0.912,1.914-1.656,2.394c-0.743,0.48-1.644,0.723-2.697,0.723
	c-0.732,0-1.395-0.117-1.98-0.354c-0.588-0.231-1.086-0.564-1.494-0.999c-0.408-0.432-0.723-0.945-0.942-1.548
	c-0.225-0.6-0.334-1.26-0.334-1.979c0-0.696,0.112-1.347,0.343-1.944c0.228-0.6,0.552-1.119,0.972-1.557
	c0.42-0.438,0.921-0.783,1.503-1.035s1.229-0.378,1.938-0.378c0.791,0,1.479,0.15,2.067,0.459c0.588,0.306,1.071,0.717,1.449,1.23
	c0.378,0.519,0.65,1.104,0.818,1.767c0.169,0.659,0.229,1.35,0.181,2.067h-6.714C585.109,434.796,585.32,435.396,585.704,435.768z
	 M588.593,430.872c-0.306-0.336-0.771-0.504-1.395-0.504c-0.408,0-0.747,0.069-1.02,0.207c-0.27,0.138-0.483,0.309-0.646,0.513
	s-0.276,0.42-0.342,0.648c-0.066,0.228-0.105,0.432-0.117,0.609h4.158C589.112,431.7,588.899,431.208,588.593,430.872
	L588.593,430.872z M63.456,449.694v1.26h0.036c0.335-0.479,0.741-0.852,1.215-1.116c0.474-0.264,1.017-0.396,1.629-0.396
	c0.588,0,1.125,0.112,1.611,0.342c0.486,0.228,0.855,0.63,1.107,1.206c0.276-0.408,0.65-0.77,1.125-1.08
	c0.474-0.312,1.035-0.468,1.683-0.468c0.492,0,0.948,0.06,1.368,0.18s0.78,0.312,1.08,0.576s0.534,0.607,0.702,1.035
	c0.167,0.426,0.252,0.938,0.252,1.539V459h-2.556v-5.272c0-0.312-0.012-0.605-0.036-0.884c-0.024-0.273-0.09-0.516-0.198-0.72
	s-0.267-0.366-0.477-0.486c-0.21-0.117-0.495-0.18-0.855-0.18s-0.651,0.069-0.873,0.207s-0.396,0.318-0.522,0.54
	s-0.21,0.474-0.252,0.756s-0.063,0.567-0.063,0.855V459h-2.556v-5.22c0-0.276-0.006-0.549-0.018-0.819
	c-0.012-0.27-0.063-0.519-0.153-0.747c-0.09-0.228-0.24-0.411-0.45-0.549s-0.519-0.207-0.927-0.207c-0.12,0-0.279,0.027-0.477,0.081
	c-0.198,0.054-0.39,0.156-0.576,0.306c-0.186,0.15-0.345,0.366-0.477,0.648c-0.132,0.282-0.198,0.652-0.198,1.106v5.4h-2.556v-9.306
	H63.456L63.456,449.694z M77.333,452.331c0.228-0.605,0.552-1.122,0.972-1.548s0.924-0.756,1.512-0.99
	c0.588-0.234,1.248-0.351,1.98-0.351c0.731,0,1.395,0.114,1.989,0.351c0.594,0.235,1.101,0.564,1.521,0.99s0.744,0.94,0.972,1.548
	c0.228,0.607,0.342,1.281,0.342,2.025c0,0.742-0.114,1.416-0.342,2.016c-0.228,0.601-0.552,1.113-0.972,1.539
	s-0.927,0.753-1.521,0.979c-0.594,0.229-1.257,0.345-1.989,0.345c-0.732,0-1.393-0.114-1.98-0.345
	c-0.588-0.228-1.092-0.555-1.512-0.979c-0.42-0.426-0.744-0.938-0.972-1.539c-0.228-0.6-0.342-1.271-0.342-2.016
	C76.991,453.611,77.105,452.938,77.333,452.331z M79.656,455.445c0.072,0.354,0.195,0.672,0.369,0.954
	c0.174,0.279,0.405,0.507,0.693,0.675c0.288,0.168,0.648,0.252,1.08,0.252c0.432,0,0.794-0.084,1.089-0.252
	c0.294-0.168,0.528-0.396,0.702-0.675c0.174-0.282,0.297-0.603,0.369-0.954c0.072-0.354,0.108-0.717,0.108-1.089
	s-0.036-0.738-0.108-1.101c-0.072-0.357-0.195-0.678-0.369-0.954c-0.174-0.273-0.408-0.501-0.702-0.675s-0.657-0.261-1.089-0.261
	c-0.432,0-0.792,0.087-1.08,0.261c-0.288,0.174-0.52,0.399-0.693,0.675c-0.174,0.276-0.297,0.597-0.369,0.954
	c-0.072,0.36-0.108,0.729-0.108,1.101S79.583,455.091,79.656,455.445z M90.429,456.688c0.114,0.196,0.261,0.358,0.441,0.484
	c0.18,0.126,0.387,0.22,0.621,0.279c0.234,0.059,0.477,0.09,0.729,0.09c0.18,0,0.369-0.021,0.567-0.062
	c0.198-0.041,0.378-0.107,0.54-0.197s0.297-0.21,0.405-0.36c0.108-0.147,0.162-0.339,0.162-0.565c0-0.386-0.255-0.672-0.765-0.863
	c-0.51-0.192-1.221-0.384-2.133-0.576c-0.372-0.084-0.735-0.183-1.089-0.297s-0.669-0.264-0.945-0.45
	c-0.276-0.186-0.498-0.42-0.666-0.702c-0.168-0.279-0.252-0.627-0.252-1.035c0-0.6,0.117-1.092,0.351-1.476s0.543-0.687,0.927-0.909
	c0.384-0.222,0.816-0.378,1.296-0.468s0.972-0.135,1.476-0.135c0.504,0,0.993,0.048,1.467,0.144
	c0.474,0.099,0.897,0.258,1.269,0.486c0.372,0.228,0.681,0.53,0.927,0.909c0.246,0.378,0.393,0.854,0.441,1.431h-2.43
	c-0.036-0.492-0.222-0.825-0.558-0.999s-0.732-0.261-1.188-0.261l-0.468,0.024c-0.168,0.021-0.321,0.06-0.459,0.117
	c-0.138,0.062-0.255,0.147-0.351,0.263c-0.096,0.112-0.144,0.268-0.144,0.459c0,0.229,0.084,0.412,0.252,0.559
	c0.168,0.144,0.387,0.261,0.657,0.351c0.27,0.092,0.579,0.171,0.927,0.243l1.062,0.234c0.372,0.084,0.735,0.186,1.089,0.306
	s0.669,0.279,0.945,0.479c0.276,0.196,0.498,0.442,0.666,0.736s0.252,0.657,0.252,1.089c0,0.612-0.123,1.125-0.369,1.539
	s-0.567,0.747-0.963,0.999s-0.849,0.432-1.359,0.531c-0.51,0.104-1.029,0.153-1.557,0.153c-0.54,0-1.068-0.055-1.584-0.162
	c-0.516-0.108-0.975-0.288-1.377-0.54c-0.402-0.252-0.732-0.585-0.99-0.999c-0.258-0.414-0.399-0.934-0.423-1.558h2.43
	C90.258,456.252,90.314,456.489,90.429,456.688L90.429,456.688z M103.056,449.694v1.71h-1.872v4.605
	c0,0.435,0.072,0.723,0.216,0.864c0.144,0.146,0.432,0.216,0.864,0.216l0.414-0.018l0.378-0.057V459
	c-0.216,0.036-0.456,0.062-0.72,0.072l-0.774,0.018c-0.396,0-0.771-0.024-1.125-0.081c-0.354-0.054-0.666-0.159-0.936-0.312
	c-0.27-0.156-0.483-0.378-0.639-0.666c-0.156-0.288-0.234-0.666-0.234-1.135v-5.489H97.08v-1.71h1.548v-2.79h2.556v2.79
	L103.056,449.694z M113.729,451.368c-0.408,0-0.75,0.093-1.026,0.279c-0.276,0.186-0.501,0.426-0.675,0.72
	c-0.174,0.294-0.297,0.618-0.369,0.972c-0.072,0.354-0.108,0.705-0.108,1.054c0,0.338,0.036,0.68,0.108,1.025
	c0.072,0.35,0.189,0.663,0.351,0.945c0.162,0.282,0.38,0.513,0.657,0.69c0.276,0.183,0.612,0.271,1.008,0.271
	c0.612,0,1.083-0.171,1.413-0.513c0.33-0.345,0.537-0.804,0.621-1.378h2.466c-0.168,1.234-0.648,2.179-1.44,2.824
	c-0.792,0.648-1.806,0.975-3.042,0.975c-0.696,0-1.335-0.117-1.917-0.354c-0.582-0.231-1.077-0.561-1.485-0.979
	c-0.408-0.42-0.726-0.921-0.954-1.503s-0.342-1.224-0.342-1.917c0-0.723,0.105-1.392,0.315-2.01c0.21-0.615,0.519-1.149,0.927-1.602
	c0.408-0.45,0.906-0.801,1.494-1.053s1.26-0.378,2.016-0.378c0.552,0,1.083,0.069,1.593,0.216c0.51,0.144,0.966,0.363,1.368,0.657
	s0.729,0.657,0.981,1.098s0.396,0.957,0.432,1.557h-2.502C115.451,451.902,114.821,451.368,113.729,451.368L113.729,451.368z
	 M119.669,452.331c0.228-0.604,0.552-1.122,0.972-1.548s0.924-0.756,1.512-0.99c0.588-0.232,1.248-0.351,1.98-0.351
	c0.731,0,1.395,0.114,1.989,0.351c0.594,0.235,1.101,0.564,1.521,0.99s0.744,0.941,0.972,1.548c0.228,0.607,0.342,1.281,0.342,2.025
	c0,0.743-0.114,1.416-0.342,2.016c-0.228,0.601-0.552,1.113-0.972,1.539s-0.927,0.753-1.521,0.979
	c-0.594,0.229-1.257,0.345-1.989,0.345c-0.732,0-1.393-0.114-1.98-0.345c-0.588-0.228-1.092-0.555-1.512-0.979
	c-0.42-0.426-0.744-0.938-0.972-1.539c-0.228-0.6-0.342-1.271-0.342-2.016S119.441,452.938,119.669,452.331L119.669,452.331z
	 M121.991,455.445c0.072,0.354,0.195,0.672,0.369,0.954c0.174,0.279,0.405,0.507,0.693,0.675c0.288,0.168,0.648,0.252,1.08,0.252
	c0.432,0,0.794-0.084,1.089-0.252c0.294-0.168,0.528-0.396,0.702-0.675c0.174-0.282,0.297-0.603,0.369-0.954
	c0.072-0.354,0.108-0.717,0.108-1.089s-0.036-0.738-0.108-1.101c-0.072-0.357-0.195-0.678-0.369-0.954
	c-0.174-0.273-0.408-0.501-0.702-0.675s-0.657-0.261-1.089-0.261c-0.432,0-0.792,0.087-1.08,0.261
	c-0.288,0.174-0.52,0.399-0.693,0.675c-0.174,0.276-0.297,0.597-0.369,0.954c-0.072,0.36-0.108,0.729-0.108,1.101
	S121.919,455.091,121.991,455.445z M133.097,449.694v1.26h0.036c0.335-0.479,0.741-0.852,1.215-1.116
	c0.474-0.264,1.017-0.396,1.629-0.396c0.588,0,1.125,0.112,1.611,0.342c0.486,0.228,0.855,0.63,1.107,1.206
	c0.276-0.408,0.65-0.77,1.125-1.08c0.474-0.312,1.035-0.468,1.683-0.468c0.492,0,0.948,0.06,1.368,0.18s0.78,0.312,1.08,0.576
	c0.3,0.264,0.534,0.608,0.702,1.035c0.167,0.426,0.252,0.938,0.252,1.539V459h-2.556v-5.272c0-0.312-0.012-0.605-0.036-0.884
	c-0.024-0.273-0.09-0.516-0.198-0.72c-0.108-0.204-0.267-0.366-0.477-0.486c-0.21-0.117-0.495-0.18-0.855-0.18
	c-0.36,0-0.651,0.069-0.873,0.207c-0.222,0.138-0.396,0.318-0.522,0.54s-0.21,0.474-0.252,0.756s-0.063,0.567-0.063,0.855V459
	h-2.556v-5.22c0-0.276-0.006-0.549-0.018-0.819c-0.012-0.27-0.063-0.519-0.153-0.747c-0.09-0.228-0.24-0.411-0.45-0.549
	s-0.519-0.207-0.927-0.207c-0.12,0-0.279,0.027-0.477,0.081c-0.198,0.054-0.39,0.156-0.576,0.306
	c-0.186,0.15-0.345,0.366-0.477,0.648s-0.198,0.651-0.198,1.106v5.398h-2.556v-9.306L133.097,449.694L133.097,449.694z
	 M149.405,449.694v1.26h0.036c0.335-0.479,0.741-0.852,1.215-1.116c0.474-0.264,1.017-0.396,1.629-0.396
	c0.588,0,1.125,0.112,1.611,0.342c0.486,0.228,0.855,0.63,1.107,1.206c0.276-0.408,0.65-0.77,1.125-1.08
	c0.474-0.312,1.035-0.468,1.683-0.468c0.492,0,0.948,0.06,1.368,0.18c0.42,0.12,0.78,0.312,1.08,0.576
	c0.3,0.264,0.534,0.608,0.702,1.035c0.167,0.426,0.252,0.938,0.252,1.539V459h-2.556v-5.272c0-0.312-0.012-0.605-0.036-0.884
	c-0.024-0.273-0.09-0.516-0.198-0.72c-0.108-0.204-0.267-0.366-0.477-0.486c-0.21-0.117-0.495-0.18-0.855-0.18
	c-0.36,0-0.651,0.069-0.873,0.207c-0.222,0.138-0.396,0.318-0.522,0.54c-0.126,0.222-0.21,0.474-0.252,0.756
	s-0.063,0.567-0.063,0.855V459h-2.556v-5.22c0-0.276-0.006-0.549-0.018-0.819c-0.012-0.27-0.063-0.519-0.153-0.747
	c-0.09-0.228-0.24-0.411-0.45-0.549s-0.519-0.207-0.927-0.207c-0.12,0-0.279,0.027-0.477,0.081c-0.198,0.054-0.39,0.156-0.576,0.306
	c-0.186,0.15-0.345,0.366-0.477,0.648s-0.198,0.651-0.198,1.106v5.398h-2.556v-9.306L149.405,449.694L149.405,449.694z
	 M163.283,452.331c0.228-0.604,0.552-1.122,0.972-1.548s0.924-0.756,1.512-0.99c0.588-0.232,1.248-0.351,1.98-0.351
	c0.731,0,1.395,0.114,1.989,0.351c0.594,0.235,1.101,0.564,1.521,0.99c0.42,0.426,0.744,0.941,0.972,1.548
	c0.228,0.607,0.342,1.281,0.342,2.025c0,0.743-0.114,1.416-0.342,2.016c-0.228,0.601-0.552,1.113-0.972,1.539
	c-0.42,0.426-0.927,0.753-1.521,0.979c-0.594,0.229-1.257,0.345-1.989,0.345s-1.393-0.114-1.98-0.345
	c-0.588-0.228-1.092-0.555-1.512-0.979c-0.42-0.426-0.744-0.938-0.972-1.539c-0.228-0.6-0.342-1.271-0.342-2.016
	S163.055,452.938,163.283,452.331z M165.605,455.445c0.072,0.354,0.195,0.672,0.369,0.954c0.174,0.279,0.405,0.507,0.693,0.675
	s0.648,0.252,1.08,0.252s0.794-0.084,1.089-0.252c0.294-0.168,0.528-0.396,0.702-0.675c0.174-0.282,0.297-0.603,0.369-0.954
	c0.072-0.354,0.108-0.717,0.108-1.089s-0.036-0.738-0.108-1.101c-0.072-0.357-0.195-0.678-0.369-0.954
	c-0.174-0.273-0.408-0.501-0.702-0.675s-0.657-0.261-1.089-0.261s-0.792,0.087-1.08,0.261s-0.52,0.399-0.693,0.675
	c-0.174,0.276-0.297,0.597-0.369,0.954c-0.072,0.36-0.108,0.729-0.108,1.101S165.533,455.091,165.605,455.445z M176.656,449.694
	v1.296h0.054c0.324-0.54,0.744-0.936,1.26-1.18c0.516-0.245,1.044-0.368,1.584-0.368c0.684,0,1.245,0.093,1.683,0.276
	c0.438,0.188,0.783,0.444,1.035,0.774s0.429,0.731,0.531,1.206c0.102,0.474,0.153,0.999,0.153,1.575V459H180.4v-5.256
	c0-0.768-0.12-1.341-0.36-1.719s-0.666-0.567-1.278-0.567c-0.696,0-1.2,0.207-1.512,0.621s-0.468,1.095-0.468,2.043V459h-2.556
	v-9.306H176.656z M187.834,456.229V459h-2.826v-2.771H187.834z"/>
<path fill="#C62139" d="M61,506.334h586.667V510H61V506.334z"/>
<path fill="#FFFFFF" d="M253.972,336.74l-23.771,7.906c-3.682,1.225-5.664,5.176-4.43,8.826l7.973,23.575
	c1.234,3.651,5.22,5.619,8.9,4.396l23.77-7.905c3.681-1.226,5.663-5.177,4.428-8.828l-7.973-23.576
	C261.636,337.482,257.651,335.518,253.972,336.74L253.972,336.74z M233.03,349.789c1.689-0.562,3.519,0.34,4.086,2.018
	c0.566,1.676-0.344,3.491-2.033,4.053c-1.691,0.562-3.52-0.342-4.087-2.018C230.429,352.165,231.339,350.352,233.03,349.789
	L233.03,349.789z M242.161,375.246c-1.69,0.562-3.521-0.342-4.087-2.018c-0.567-1.677,0.344-3.492,2.034-4.055
	c1.689-0.562,3.519,0.344,4.086,2.02S243.851,374.684,242.161,375.246L242.161,375.246z M249.334,362.126
	c-1.69,0.562-3.52-0.342-4.086-2.017c-0.567-1.678,0.343-3.492,2.033-4.055c1.689-0.562,3.519,0.342,4.086,2.019
	C251.934,359.749,251.023,361.564,249.334,362.126L249.334,362.126z M253.901,342.848c1.689-0.562,3.52,0.34,4.087,2.018
	c0.566,1.676-0.345,3.49-2.034,4.054c-1.69,0.562-3.521-0.342-4.087-2.019C251.3,345.223,252.211,343.409,253.901,342.848
	L253.901,342.848z M263.033,368.305c-1.69,0.562-3.521-0.342-4.087-2.018c-0.567-1.676,0.343-3.492,2.033-4.055
	c1.689-0.562,3.521,0.343,4.088,2.02C265.634,365.927,264.723,367.742,263.033,368.305z"/>
<path fill="#FFFFFF" d="M420.475,357.689c-1.189-3.383-3.055-3.556-4.236-3.254v8.17l-1.179-1.25v-6.914
	c-0.152-0.768-0.554-2.246-1.444-2.787c-1.455-0.879-2.925-0.313-3.815,0.227v8.928l-1.179-1.25v-7.822
	c-1.651-3.551-4.263-2.906-5.852-1.956v9.36l-1.181-1.25l-0.172-19.342l-0.046-0.271l0.008-0.086c0-1.277-0.679-2.379-1.671-2.957
	c-0.52-0.418-1.114-0.67-1.728-0.646c-0.747,0.028-1.442,0.47-1.994,1.117c-0.521,0.505-0.877,1.185-0.993,1.953
	c-0.099,0.384-0.165,0.776-0.165,1.174c0,3.937-0.137,20.269-0.137,20.269l-0.059-0.104v2.167l-1.181-1.251v-2.796
	c-1.82-2.499-3.551-3.201-4.519-3.703c-2.536-0.893-7.254-0.951-4.125,3.432c6.527,9.135,7.146,17.018,9.596,20.969
	c0.976,3.285,5.821,5.785,11.669,5.785c4.335,0,8.116-1.377,10.185-3.428C420.601,377.922,421.316,360.078,420.475,357.689
	L420.475,357.689z"/>
<path fill="#FFFFFF" d="M436.125,365.715v-18.541h-7.188v-4.367c1.008,0.025,1.979-0.05,2.92-0.227
	c0.939-0.176,1.782-0.49,2.531-0.939s1.382-1.041,1.9-1.777c0.517-0.732,0.855-1.646,1.021-2.734h4.615v28.587L436.125,365.715
	L436.125,365.715z M448.662,359.1v-5.309l12.416-16.663h5.186v17.192h3.8v4.777h-3.8v6.616h-5.514v-6.616h-12.088V359.1z
	 M460.628,344.396l-7.393,9.924h7.515v-9.924H460.628z M473.574,341.499c0.271-0.981,0.694-1.839,1.266-2.575
	c0.572-0.734,1.294-1.312,2.165-1.734s1.905-0.633,3.104-0.633c1.278,0,2.341,0.219,3.187,0.653
	c0.843,0.437,1.531,1.028,2.062,1.774c0.528,0.75,0.902,1.629,1.121,2.636c0.219,1.008,0.325,2.069,0.325,3.187
	c0,1.116-0.135,2.146-0.404,3.084c-0.273,0.938-0.69,1.748-1.247,2.43c-0.56,0.682-1.273,1.212-2.146,1.593
	s-1.907,0.571-3.104,0.571c-1.252,0-2.309-0.197-3.164-0.592c-0.859-0.396-1.555-0.938-2.085-1.635
	c-0.531-0.695-0.912-1.523-1.144-2.49s-0.348-2.008-0.348-3.125C473.165,343.525,473.302,342.479,473.574,341.499L473.574,341.499z
	 M477.372,346.193c0.027,0.546,0.123,1.057,0.286,1.531c0.163,0.478,0.422,0.879,0.775,1.207c0.354,0.325,0.856,0.488,1.512,0.488
	c0.626,0,1.123-0.163,1.489-0.488c0.367-0.328,0.641-0.729,0.818-1.207c0.176-0.476,0.285-0.979,0.326-1.511
	c0.041-0.53,0.062-1.014,0.062-1.45c0-0.408-0.021-0.904-0.062-1.49c-0.041-0.584-0.145-1.149-0.309-1.694
	c-0.161-0.544-0.415-1.007-0.755-1.39c-0.34-0.379-0.81-0.57-1.408-0.57c-0.653,0-1.164,0.178-1.531,0.531
	c-0.367,0.353-0.647,0.791-0.838,1.308c-0.189,0.519-0.307,1.074-0.348,1.674c-0.041,0.599-0.062,1.13-0.062,1.593
	C477.331,345.16,477.345,345.648,477.372,346.193L477.372,346.193z M500.854,336.229l-16.823,30.346h-3.554l16.908-30.346H500.854
	L500.854,336.229z M494.647,355.139c0.271-0.953,0.694-1.783,1.267-2.492c0.57-0.707,1.293-1.265,2.164-1.674
	c0.87-0.408,1.906-0.611,3.104-0.611c1.28,0,2.342,0.212,3.187,0.632c0.844,0.423,1.532,0.995,2.062,1.716
	c0.531,0.723,0.905,1.572,1.122,2.553c0.22,0.98,0.328,2.028,0.328,3.146c0,1.116-0.137,2.151-0.41,3.104
	c-0.271,0.953-0.687,1.784-1.244,2.491c-0.559,0.708-1.271,1.261-2.145,1.652c-0.872,0.396-1.906,0.595-3.103,0.595
	c-1.255,0-2.31-0.206-3.166-0.615c-0.858-0.406-1.553-0.972-2.083-1.693c-0.53-0.721-0.911-1.571-1.143-2.553
	c-0.231-0.979-0.349-2.027-0.349-3.145C494.239,357.127,494.374,356.092,494.647,355.139L494.647,355.139z M498.446,359.794
	c0.024,0.572,0.121,1.11,0.286,1.613c0.16,0.504,0.421,0.933,0.772,1.286c0.355,0.354,0.859,0.529,1.512,0.529
	c0.628,0,1.124-0.176,1.492-0.529c0.367-0.354,0.64-0.782,0.815-1.286c0.177-0.503,0.286-1.034,0.326-1.593
	c0.042-0.56,0.062-1.057,0.062-1.491c0-0.407-0.021-0.892-0.062-1.449c-0.04-0.558-0.144-1.09-0.306-1.593
	c-0.164-0.504-0.415-0.939-0.757-1.307c-0.34-0.369-0.81-0.553-1.408-0.553c-0.653,0-1.163,0.163-1.531,0.49
	c-0.366,0.327-0.646,0.734-0.839,1.225c-0.188,0.49-0.306,1.021-0.347,1.594c-0.039,0.571-0.06,1.09-0.06,1.553
	C498.405,358.721,498.417,359.223,498.446,359.794L498.446,359.794z M435.281,372.236l3.634,9.719h-2.219l-0.735-2.163h-3.635
	l-0.762,2.163h-2.151l3.676-9.719H435.281z M435.402,378.199l-1.226-3.567h-0.026l-1.267,3.567H435.402z M443.748,372.236
	c0.625,0,1.209,0.101,1.749,0.299c0.54,0.199,1.007,0.5,1.401,0.898c0.396,0.399,0.703,0.897,0.927,1.498
	c0.221,0.6,0.333,1.301,0.333,2.108c0,0.709-0.092,1.362-0.271,1.963c-0.182,0.599-0.457,1.114-0.823,1.55
	c-0.367,0.438-0.826,0.778-1.375,1.028c-0.552,0.25-1.195,0.373-1.939,0.373h-4.193v-9.718H443.748L443.748,372.236z
	 M443.598,380.159c0.31,0,0.609-0.052,0.9-0.15c0.289-0.099,0.547-0.265,0.774-0.497c0.228-0.23,0.407-0.531,0.545-0.904
	c0.135-0.371,0.204-0.824,0.204-1.36c0-0.491-0.049-0.935-0.144-1.327c-0.096-0.395-0.253-0.732-0.471-1.016
	c-0.218-0.281-0.505-0.496-0.864-0.646c-0.357-0.149-0.8-0.226-1.327-0.226h-1.523v6.126H443.598z M456.571,381.955l-1.646-6.615
	h-0.026l-1.62,6.615h-2.165l-2.573-9.719h2.138l1.538,6.615h0.028l1.688-6.615h2.001l1.662,6.697h0.025l1.593-6.697h2.097
	l-2.612,9.719H456.571L456.571,381.955z M466.604,372.236l3.636,9.719h-2.221l-0.733-2.163h-3.633l-0.765,2.163h-2.149l3.675-9.719
	H466.604z M466.727,378.199l-1.225-3.567h-0.029l-1.265,3.567H466.727z M476.12,372.236c0.436,0,0.829,0.07,1.179,0.211
	c0.351,0.141,0.647,0.332,0.897,0.578s0.439,0.529,0.571,0.853c0.132,0.322,0.197,0.669,0.197,1.04c0,0.572-0.121,1.064-0.361,1.482
	c-0.239,0.418-0.633,0.735-1.178,0.953v0.027c0.265,0.074,0.48,0.184,0.654,0.334c0.172,0.15,0.312,0.326,0.422,0.531
	c0.109,0.203,0.188,0.429,0.238,0.673c0.049,0.245,0.084,0.49,0.103,0.736l0.026,0.544c0.01,0.209,0.024,0.422,0.048,0.639
	c0.022,0.219,0.06,0.426,0.108,0.62c0.051,0.194,0.126,0.36,0.226,0.496h-2.14c-0.117-0.308-0.189-0.675-0.216-1.101
	c-0.028-0.428-0.069-0.836-0.122-1.228c-0.073-0.507-0.229-0.88-0.465-1.116c-0.234-0.236-0.622-0.354-1.155-0.354h-2.139v3.797
	h-2.138v-9.719h5.243V372.236z M475.357,376.634c0.489,0,0.857-0.108,1.103-0.325c0.246-0.22,0.367-0.572,0.367-1.062
	c0-0.473-0.121-0.814-0.367-1.028c-0.244-0.215-0.612-0.319-1.103-0.319h-2.342v2.735H475.357L475.357,376.634z M487.773,372.236
	v1.797h-5.133v2.08h4.71v1.664h-4.71v2.382h5.241v1.796h-7.38v-9.719H487.773L487.773,372.236z M114.984,342.896
	c0.418-1.35,1.047-2.527,1.886-3.537c0.838-1.008,1.892-1.793,3.163-2.356c1.27-0.562,2.73-0.845,4.38-0.845
	c1.257,0,2.456,0.195,3.595,0.59c1.14,0.393,2.142,0.956,3.006,1.688c0.864,0.734,1.552,1.64,2.062,2.713
	c0.511,1.074,0.766,2.278,0.766,3.613c0,1.389-0.223,2.581-0.668,3.576c-0.445,0.995-1.035,1.879-1.768,2.65
	c-0.734,0.773-1.565,1.475-2.495,2.104c-0.93,0.628-1.866,1.251-2.809,1.866c-0.943,0.614-1.861,1.276-2.75,1.983
	c-0.891,0.707-1.677,1.533-2.357,2.476H134v4.794h-20.196c0-1.598,0.229-2.986,0.688-4.165c0.458-1.179,1.08-2.231,1.866-3.163
	c0.786-0.93,1.709-1.787,2.77-2.572s2.18-1.586,3.359-2.397c0.602-0.418,1.244-0.845,1.925-1.276
	c0.681-0.432,1.303-0.908,1.867-1.434c0.562-0.523,1.034-1.113,1.415-1.77c0.379-0.654,0.569-1.399,0.569-2.24
	c0-1.334-0.387-2.375-1.159-3.123c-0.773-0.745-1.762-1.118-2.966-1.118c-0.812,0-1.5,0.188-2.063,0.569
	c-0.563,0.379-1.015,0.877-1.355,1.492c-0.341,0.616-0.583,1.297-0.727,2.043c-0.145,0.746-0.216,1.486-0.216,2.221h-5.344
	C114.38,345.706,114.564,344.246,114.984,342.896L114.984,342.896z M136.24,342.896c0.418-1.35,1.047-2.527,1.886-3.537
	c0.838-1.008,1.892-1.793,3.163-2.356c1.27-0.562,2.73-0.845,4.38-0.845c1.258,0,2.456,0.195,3.595,0.59
	c1.14,0.393,2.142,0.956,3.006,1.688c0.864,0.734,1.552,1.64,2.062,2.713c0.511,1.074,0.767,2.278,0.767,3.613
	c0,1.389-0.223,2.581-0.668,3.576c-0.446,0.995-1.035,1.879-1.768,2.65c-0.734,0.773-1.565,1.475-2.495,2.104
	c-0.93,0.628-1.866,1.251-2.809,1.866c-0.943,0.614-1.86,1.276-2.75,1.983c-0.891,0.707-1.677,1.533-2.357,2.476h13.005v4.794
	h-20.196c0-1.598,0.229-2.986,0.688-4.165c0.458-1.179,1.081-2.231,1.866-3.163c0.786-0.93,1.709-1.787,2.77-2.572
	c1.061-0.785,2.181-1.586,3.359-2.397c0.602-0.418,1.244-0.845,1.925-1.276c0.681-0.433,1.303-0.908,1.867-1.434
	c0.563-0.523,1.034-1.113,1.415-1.77c0.379-0.654,0.569-1.399,0.569-2.24c0-1.334-0.386-2.375-1.159-3.123
	c-0.773-0.745-1.762-1.118-2.967-1.118c-0.812,0-1.5,0.188-2.062,0.569c-0.563,0.379-1.015,0.877-1.355,1.492
	c-0.341,0.616-0.583,1.297-0.727,2.043c-0.145,0.746-0.216,1.486-0.216,2.221h-5.344C135.637,345.706,135.82,344.246,136.24,342.896
	L136.24,342.896z M158.832,340.912c0.261-0.941,0.668-1.768,1.218-2.477c0.55-0.705,1.244-1.263,2.083-1.67
	c0.838-0.404,1.833-0.607,2.986-0.607c1.231,0,2.252,0.21,3.065,0.629c0.812,0.419,1.474,0.988,1.984,1.709s0.871,1.564,1.08,2.533
	c0.209,0.971,0.314,1.992,0.314,3.064c0,1.074-0.131,2.062-0.393,2.967c-0.262,0.904-0.662,1.685-1.198,2.338
	c-0.537,0.654-1.225,1.166-2.062,1.533c-0.839,0.366-1.834,0.549-2.986,0.549c-1.205,0-2.22-0.188-3.045-0.568
	s-1.493-0.903-2.004-1.572c-0.511-0.668-0.878-1.467-1.1-2.396c-0.223-0.93-0.334-1.93-0.334-3.004S158.57,341.855,158.832,340.912
	L158.832,340.912z M162.486,345.432c0.026,0.523,0.118,1.016,0.275,1.473c0.157,0.459,0.406,0.846,0.747,1.16
	c0.341,0.313,0.825,0.471,1.454,0.471c0.603,0,1.081-0.156,1.434-0.471c0.354-0.314,0.615-0.701,0.786-1.16
	c0.17-0.457,0.275-0.942,0.314-1.453c0.039-0.512,0.059-0.975,0.059-1.395c0-0.394-0.02-0.871-0.059-1.435s-0.138-1.106-0.294-1.631
	c-0.158-0.523-0.4-0.97-0.727-1.337c-0.328-0.365-0.78-0.549-1.356-0.549c-0.628,0-1.12,0.17-1.473,0.511
	c-0.354,0.34-0.623,0.76-0.805,1.257c-0.184,0.498-0.295,1.035-0.334,1.611s-0.059,1.086-0.059,1.531
	C162.447,344.436,162.459,344.907,162.486,345.432L162.486,345.432z M185.078,335.844l-16.188,29.193h-3.418l16.266-29.193H185.078z
	 M179.106,354.036c0.261-0.917,0.668-1.716,1.218-2.397c0.55-0.681,1.244-1.218,2.083-1.611c0.838-0.392,1.833-0.588,2.986-0.588
	c1.231,0,2.253,0.203,3.065,0.608c0.812,0.406,1.473,0.956,1.984,1.649c0.511,0.695,0.871,1.513,1.081,2.455
	c0.209,0.943,0.314,1.953,0.314,3.025c0,1.074-0.131,2.069-0.393,2.986c-0.262,0.917-0.662,1.716-1.198,2.396
	c-0.537,0.682-1.225,1.211-2.062,1.59c-0.839,0.381-1.834,0.57-2.986,0.57c-1.205,0-2.22-0.195-3.045-0.589
	c-0.825-0.394-1.493-0.938-2.004-1.631c-0.511-0.694-0.878-1.513-1.1-2.456c-0.223-0.943-0.334-1.951-0.334-3.025
	C178.713,355.948,178.844,354.953,179.106,354.036z M182.76,358.516c0.026,0.549,0.118,1.067,0.275,1.551
	c0.157,0.485,0.406,0.897,0.747,1.238c0.34,0.34,0.825,0.512,1.454,0.512c0.602,0,1.08-0.172,1.434-0.512
	c0.354-0.341,0.615-0.753,0.786-1.238c0.17-0.482,0.275-0.993,0.314-1.531c0.039-0.537,0.059-1.016,0.059-1.436
	c0-0.393-0.02-0.855-0.059-1.394c-0.04-0.537-0.138-1.048-0.295-1.533c-0.157-0.483-0.399-0.903-0.727-1.257
	s-0.78-0.531-1.356-0.531c-0.628,0-1.12,0.158-1.473,0.473c-0.354,0.313-0.623,0.707-0.805,1.18
	c-0.184,0.471-0.295,0.98-0.334,1.531c-0.039,0.551-0.059,1.049-0.059,1.492C182.721,357.48,182.733,357.965,182.76,358.516
	L182.76,358.516z M115.914,379.836l-3.025-9.352h2.108l2.083,6.574h0.026l2.108-6.574h2.122l-3.104,9.352H115.914z M123.994,370.484
	v9.352h-2.056v-9.352H123.994z M130.647,370.484c0.419,0,0.796,0.067,1.133,0.203c0.336,0.136,0.624,0.32,0.864,0.558
	c0.24,0.235,0.423,0.509,0.55,0.817c0.127,0.31,0.19,0.645,0.19,1.002c0,0.551-0.116,1.025-0.347,1.428s-0.609,0.708-1.133,0.917
	v0.026c0.253,0.069,0.463,0.176,0.629,0.319c0.166,0.146,0.301,0.315,0.406,0.511c0.105,0.197,0.181,0.414,0.229,0.648
	c0.048,0.236,0.081,0.472,0.098,0.708l0.026,0.522c0.008,0.201,0.024,0.406,0.045,0.617c0.022,0.209,0.057,0.406,0.105,0.596
	c0.048,0.188,0.12,0.347,0.216,0.478h-2.056c-0.114-0.296-0.184-0.649-0.21-1.062c-0.026-0.409-0.065-0.803-0.118-1.178
	c-0.07-0.488-0.218-0.848-0.445-1.074c-0.227-0.228-0.598-0.34-1.113-0.34h-2.056v3.652h-2.056v-9.352h5.043V370.484z
	 M129.914,374.716c0.471,0,0.825-0.104,1.061-0.313c0.236-0.211,0.354-0.551,0.354-1.021c0-0.454-0.118-0.783-0.354-0.988
	c-0.236-0.205-0.589-0.309-1.061-0.309h-2.253v2.633L129.914,374.716L129.914,374.716z M141.74,379.122
	c-0.707,0.616-1.685,0.924-2.934,0.924c-1.266,0-2.246-0.306-2.94-0.917c-0.694-0.609-1.042-1.554-1.042-2.829v-5.813h2.056v5.813
	c0,0.255,0.022,0.503,0.065,0.747s0.136,0.46,0.275,0.646c0.14,0.188,0.334,0.342,0.583,0.459c0.249,0.119,0.583,0.178,1.002,0.178
	c0.733,0,1.24-0.164,1.519-0.491c0.279-0.327,0.419-0.841,0.419-1.539v-5.813h2.056v5.813
	C142.801,377.566,142.447,378.507,141.74,379.122L141.74,379.122z M145.944,377.531c0.113,0.219,0.264,0.396,0.452,0.529
	c0.188,0.135,0.408,0.236,0.661,0.303c0.253,0.064,0.515,0.098,0.786,0.098c0.183,0,0.38-0.016,0.589-0.046s0.406-0.09,0.589-0.177
	c0.183-0.088,0.336-0.207,0.458-0.359s0.183-0.348,0.183-0.583c0-0.254-0.081-0.459-0.242-0.616
	c-0.161-0.156-0.374-0.287-0.635-0.393c-0.262-0.104-0.559-0.196-0.89-0.275c-0.333-0.078-0.668-0.164-1.009-0.262
	c-0.35-0.087-0.69-0.193-1.021-0.32c-0.332-0.127-0.628-0.289-0.891-0.492c-0.262-0.199-0.474-0.451-0.635-0.752
	c-0.162-0.302-0.242-0.666-0.242-1.095c0-0.479,0.102-0.896,0.308-1.25c0.205-0.354,0.474-0.647,0.806-0.884
	s0.707-0.411,1.126-0.523c0.419-0.113,0.838-0.17,1.257-0.17c0.489,0,0.958,0.055,1.408,0.162c0.45,0.109,0.85,0.286,1.199,0.531
	c0.349,0.244,0.626,0.557,0.832,0.936c0.205,0.381,0.308,0.842,0.308,1.383h-1.991c-0.018-0.279-0.077-0.51-0.177-0.694
	c-0.1-0.183-0.233-0.326-0.399-0.433c-0.166-0.104-0.355-0.179-0.569-0.223c-0.214-0.043-0.448-0.064-0.701-0.064
	c-0.167,0-0.332,0.018-0.498,0.053c-0.166,0.033-0.316,0.096-0.452,0.184c-0.136,0.086-0.247,0.196-0.334,0.327
	c-0.087,0.13-0.131,0.298-0.131,0.497c0,0.184,0.035,0.332,0.105,0.445c0.069,0.113,0.207,0.218,0.412,0.314
	c0.205,0.096,0.489,0.191,0.852,0.287c0.362,0.096,0.835,0.219,1.421,0.367c0.174,0.034,0.417,0.1,0.727,0.189
	c0.31,0.092,0.617,0.238,0.923,0.438c0.305,0.202,0.569,0.471,0.792,0.807c0.223,0.336,0.334,0.767,0.334,1.289
	c0,0.428-0.083,0.825-0.249,1.192c-0.166,0.366-0.412,0.683-0.74,0.949c-0.327,0.267-0.733,0.474-1.218,0.622
	c-0.485,0.148-1.046,0.223-1.683,0.223c-0.515,0-1.015-0.062-1.5-0.189c-0.484-0.127-0.913-0.324-1.284-0.597
	c-0.371-0.271-0.666-0.614-0.884-1.034c-0.218-0.42-0.323-0.916-0.314-1.492h1.991C145.774,377.047,145.831,377.312,145.944,377.531
	L145.944,377.531z M160.782,370.484l3.497,9.352h-2.135l-0.707-2.082h-3.497l-0.733,2.082h-2.069l3.537-9.352H160.782z
	 M160.9,376.223l-1.179-3.433h-0.026l-1.218,3.433H160.9z M166.938,370.484l3.903,6.273h0.026v-6.273h1.925v9.352h-2.056
	l-3.89-6.261h-0.026v6.261h-1.925v-9.352H166.938z M178.438,370.484c0.602,0,1.163,0.097,1.683,0.289
	c0.52,0.191,0.969,0.479,1.349,0.863c0.38,0.385,0.677,0.864,0.891,1.44c0.214,0.575,0.32,1.253,0.32,2.03
	c0,0.681-0.087,1.31-0.262,1.886c-0.174,0.577-0.439,1.073-0.792,1.493c-0.354,0.418-0.795,0.748-1.323,0.988
	c-0.528,0.24-1.15,0.359-1.866,0.359h-4.034v-9.352h4.034V370.484z M178.293,378.107c0.296,0,0.585-0.049,0.865-0.146
	c0.279-0.096,0.528-0.255,0.747-0.478c0.218-0.223,0.393-0.514,0.523-0.87c0.131-0.358,0.197-0.796,0.197-1.312
	c0-0.472-0.046-0.896-0.138-1.275c-0.092-0.381-0.242-0.705-0.452-0.978c-0.209-0.27-0.487-0.478-0.832-0.622
	c-0.345-0.144-0.771-0.216-1.277-0.216h-1.467v5.894h1.834V378.107z M120.746,395.461l-1.585-6.365h-0.026l-1.559,6.365h-2.083
	l-2.475-9.352h2.056l1.48,6.365h0.026l1.624-6.365h1.925l1.598,6.443h0.026l1.532-6.443h2.018l-2.515,9.352H120.746L120.746,395.461
	z M125.958,388.88c0.209-0.599,0.511-1.12,0.904-1.565c0.393-0.444,0.875-0.795,1.447-1.047c0.572-0.254,1.216-0.381,1.932-0.381
	c0.725,0,1.371,0.127,1.938,0.381c0.568,0.252,1.048,0.603,1.441,1.047c0.393,0.445,0.694,0.968,0.904,1.565
	c0.209,0.599,0.314,1.246,0.314,1.944c0,0.682-0.104,1.316-0.314,1.906c-0.209,0.588-0.511,1.102-0.904,1.537
	c-0.393,0.438-0.873,0.779-1.441,1.028c-0.567,0.249-1.213,0.373-1.938,0.373c-0.716,0-1.36-0.124-1.932-0.373
	c-0.572-0.249-1.054-0.592-1.447-1.028c-0.393-0.436-0.694-0.949-0.904-1.537c-0.209-0.59-0.314-1.226-0.314-1.906
	C125.644,390.126,125.749,389.479,125.958,388.88L125.958,388.88z M127.838,391.971c0.092,0.371,0.238,0.705,0.439,1.002
	c0.201,0.297,0.462,0.534,0.786,0.715c0.323,0.179,0.716,0.269,1.179,0.269c0.462,0,0.855-0.09,1.179-0.269
	c0.323-0.181,0.585-0.418,0.786-0.715s0.347-0.631,0.439-1.002s0.138-0.753,0.138-1.146c0-0.41-0.046-0.808-0.138-1.191
	c-0.092-0.383-0.238-0.727-0.439-1.028c-0.201-0.301-0.463-0.541-0.786-0.72c-0.323-0.18-0.716-0.269-1.179-0.269
	c-0.463,0-0.855,0.089-1.179,0.269c-0.323,0.179-0.585,0.419-0.786,0.72c-0.201,0.303-0.347,0.646-0.439,1.028
	c-0.092,0.384-0.137,0.781-0.137,1.191C127.701,391.218,127.746,391.6,127.838,391.971z M141.085,386.109
	c0.419,0,0.797,0.067,1.133,0.203c0.336,0.136,0.625,0.32,0.865,0.557c0.24,0.234,0.423,0.509,0.55,0.818
	c0.126,0.311,0.19,0.645,0.19,1.002c0,0.551-0.116,1.025-0.347,1.428s-0.609,0.707-1.133,0.917v0.026
	c0.253,0.069,0.462,0.176,0.628,0.319c0.166,0.146,0.301,0.313,0.406,0.511c0.104,0.196,0.181,0.412,0.229,0.648
	c0.047,0.234,0.08,0.473,0.098,0.707l0.026,0.523c0.008,0.201,0.024,0.405,0.046,0.615c0.022,0.211,0.057,0.408,0.105,0.596
	c0.047,0.188,0.12,0.349,0.216,0.479h-2.056c-0.113-0.297-0.184-0.649-0.21-1.062c-0.026-0.409-0.065-0.803-0.117-1.18
	c-0.07-0.488-0.219-0.847-0.446-1.072c-0.227-0.229-0.598-0.342-1.113-0.342H138.1v3.654h-2.057v-9.352h5.042V386.109z
	 M140.352,390.34c0.471,0,0.825-0.104,1.061-0.314c0.236-0.209,0.354-0.549,0.354-1.021c0-0.454-0.118-0.784-0.354-0.987
	c-0.236-0.207-0.59-0.309-1.061-0.309H138.1v2.632L140.352,390.34L140.352,390.34z M148.197,386.109l2.187,6.431h0.026l2.069-6.431
	h2.895v9.352h-1.925v-6.627h-0.026l-2.292,6.627h-1.584l-2.292-6.562h-0.026v6.562h-1.925v-9.352H148.197L148.197,386.109z
	 M158.556,393.154c0.114,0.22,0.264,0.396,0.452,0.531s0.408,0.235,0.661,0.301s0.515,0.1,0.786,0.1
	c0.183,0,0.379-0.016,0.589-0.047c0.209-0.03,0.406-0.089,0.59-0.176c0.183-0.088,0.335-0.207,0.458-0.36
	c0.122-0.151,0.183-0.348,0.183-0.583c0-0.253-0.081-0.458-0.243-0.615c-0.161-0.156-0.373-0.287-0.635-0.394
	c-0.262-0.104-0.559-0.196-0.891-0.274s-0.668-0.166-1.009-0.263c-0.349-0.087-0.69-0.194-1.021-0.319
	c-0.333-0.127-0.629-0.291-0.891-0.492s-0.474-0.451-0.635-0.752c-0.161-0.303-0.242-0.666-0.242-1.095
	c0-0.479,0.103-0.897,0.308-1.25c0.205-0.354,0.474-0.647,0.805-0.885c0.332-0.235,0.708-0.41,1.126-0.524
	c0.419-0.113,0.838-0.17,1.257-0.17c0.489,0,0.958,0.055,1.408,0.164c0.45,0.109,0.849,0.286,1.199,0.53
	c0.349,0.245,0.626,0.558,0.832,0.937c0.205,0.381,0.308,0.84,0.308,1.383h-1.991c-0.018-0.279-0.077-0.512-0.177-0.694
	c-0.101-0.185-0.234-0.327-0.399-0.433c-0.166-0.104-0.356-0.18-0.57-0.224c-0.214-0.043-0.447-0.065-0.701-0.065
	c-0.166,0-0.332,0.019-0.498,0.054c-0.166,0.034-0.316,0.097-0.451,0.185c-0.136,0.086-0.247,0.195-0.334,0.326
	s-0.13,0.297-0.13,0.497c0,0.185,0.035,0.332,0.104,0.445c0.069,0.114,0.207,0.219,0.413,0.315c0.205,0.096,0.489,0.19,0.851,0.287
	c0.362,0.096,0.836,0.219,1.421,0.366c0.175,0.035,0.417,0.099,0.727,0.188c0.31,0.093,0.618,0.238,0.923,0.439
	c0.305,0.201,0.569,0.469,0.792,0.807c0.223,0.336,0.334,0.766,0.334,1.289c0,0.428-0.083,0.825-0.249,1.191
	s-0.413,0.684-0.74,0.949c-0.328,0.267-0.733,0.474-1.218,0.623c-0.485,0.146-1.046,0.222-1.683,0.222
	c-0.516,0-1.016-0.062-1.5-0.188s-0.912-0.326-1.283-0.597s-0.666-0.616-0.884-1.034c-0.218-0.42-0.323-0.916-0.314-1.494h1.991
	C158.386,392.671,158.443,392.938,158.556,393.154L158.556,393.154z M286.116,363.139v-17.449h-6.764v-4.11
	c0.948,0.024,1.864-0.045,2.748-0.211c0.884-0.167,1.677-0.461,2.382-0.886c0.705-0.422,1.3-0.979,1.788-1.67
	c0.486-0.692,0.807-1.551,0.96-2.576h4.343v26.9h-5.457L286.116,363.139z M299.759,339.85c0.538-0.923,1.235-1.69,2.095-2.306
	c0.857-0.614,1.825-1.076,2.9-1.383c1.077-0.31,2.165-0.462,3.268-0.462c1.665,0,3.074,0.257,4.228,0.769
	c1.153,0.513,2.081,1.134,2.787,1.863c0.704,0.729,1.21,1.513,1.518,2.345c0.308,0.833,0.461,1.582,0.461,2.248
	c0,1.332-0.327,2.498-0.979,3.497c-0.654,0.999-1.633,1.718-2.94,2.152v0.077c1.614,0.357,2.857,1.121,3.729,2.285
	c0.871,1.166,1.306,2.595,1.306,4.285c0,1.436-0.288,2.678-0.865,3.728c-0.575,1.051-1.338,1.922-2.286,2.614
	c-0.947,0.69-2.023,1.209-3.228,1.557c-1.204,0.346-2.434,0.52-3.689,0.52c-1.307,0-2.568-0.16-3.786-0.48
	c-1.217-0.32-2.306-0.826-3.267-1.52c-0.961-0.69-1.729-1.562-2.306-2.613c-0.576-1.049-0.865-2.305-0.865-3.766
	c0-1.716,0.442-3.15,1.326-4.304c0.883-1.153,2.133-1.922,3.747-2.306v-0.077c-1.307-0.358-2.293-1.038-2.959-2.037
	s-0.998-2.164-0.998-3.496C298.952,341.836,299.221,340.771,299.759,339.85L299.759,339.85z M303.678,356.874
	c0.255,0.563,0.596,1.044,1.019,1.44c0.422,0.397,0.928,0.705,1.518,0.922c0.59,0.219,1.204,0.328,1.845,0.328
	c0.666,0,1.274-0.109,1.825-0.328c0.551-0.217,1.038-0.523,1.461-0.922c0.424-0.396,0.75-0.877,0.979-1.44s0.346-1.179,0.346-1.845
	c0-0.641-0.122-1.225-0.365-1.75c-0.243-0.522-0.575-0.979-0.999-1.362c-0.423-0.385-0.909-0.679-1.46-0.885
	c-0.551-0.205-1.146-0.308-1.786-0.308c-1.333,0-2.459,0.364-3.382,1.094c-0.922,0.73-1.383,1.789-1.383,3.173
	C303.294,355.682,303.422,356.311,303.678,356.874L303.678,356.874z M305.139,346.172c0.819,0.602,1.78,0.902,2.882,0.902
	c1.152,0,2.113-0.301,2.883-0.902c0.769-0.604,1.151-1.48,1.151-2.634c0-0.356-0.052-0.749-0.152-1.171
	c-0.104-0.424-0.303-0.827-0.597-1.211c-0.295-0.385-0.705-0.704-1.229-0.961c-0.525-0.256-1.21-0.385-2.057-0.385
	c-0.537,0-1.056,0.084-1.556,0.25c-0.5,0.168-0.941,0.402-1.326,0.711c-0.385,0.308-0.686,0.691-0.903,1.152
	c-0.218,0.461-0.327,0.999-0.327,1.613C303.909,344.691,304.318,345.568,305.139,346.172L305.139,346.172z M321.356,340.35
	c0.255-0.923,0.652-1.729,1.19-2.422c0.538-0.691,1.216-1.234,2.037-1.632c0.819-0.397,1.793-0.597,2.92-0.597
	c1.204,0,2.203,0.205,2.998,0.615c0.793,0.408,1.441,0.967,1.94,1.67c0.5,0.707,0.852,1.531,1.057,2.479
	c0.205,0.949,0.307,1.948,0.307,2.998c0,1.052-0.128,2.019-0.384,2.901c-0.256,0.884-0.646,1.646-1.172,2.287
	c-0.525,0.64-1.199,1.14-2.018,1.498c-0.82,0.358-1.793,0.537-2.922,0.537c-1.178,0-2.171-0.185-2.978-0.557
	c-0.807-0.371-1.46-0.884-1.96-1.537c-0.5-0.654-0.858-1.436-1.076-2.345s-0.327-1.89-0.327-2.938
	C320.97,342.258,321.099,341.271,321.356,340.35L321.356,340.35z M324.93,344.77c0.025,0.513,0.116,0.992,0.27,1.439
	c0.154,0.449,0.396,0.827,0.729,1.134c0.333,0.31,0.808,0.462,1.422,0.462c0.589,0,1.057-0.152,1.402-0.462
	c0.346-0.307,0.603-0.685,0.77-1.134c0.166-0.447,0.269-0.922,0.308-1.421c0.038-0.5,0.058-0.954,0.058-1.364
	c0-0.384-0.02-0.852-0.058-1.402c-0.039-0.551-0.135-1.082-0.289-1.596c-0.153-0.512-0.391-0.945-0.711-1.307
	c-0.32-0.357-0.762-0.537-1.326-0.537c-0.615,0-1.096,0.167-1.44,0.499c-0.347,0.333-0.609,0.743-0.788,1.229
	c-0.18,0.485-0.288,1.012-0.326,1.575c-0.039,0.563-0.059,1.063-0.059,1.498C324.891,343.795,324.904,344.256,324.93,344.77
	L324.93,344.77z M347.026,335.393l-15.833,28.553h-3.344l15.91-28.553H347.026z M341.185,353.186
	c0.257-0.896,0.654-1.679,1.191-2.345c0.538-0.666,1.217-1.19,2.037-1.575c0.819-0.386,1.793-0.576,2.921-0.576
	c1.204,0,2.203,0.197,2.998,0.595c0.793,0.397,1.441,0.937,1.94,1.614c0.499,0.679,0.852,1.479,1.056,2.401
	c0.205,0.923,0.308,1.908,0.308,2.96c0,1.051-0.129,2.022-0.385,2.92c-0.256,0.896-0.647,1.68-1.172,2.346
	c-0.525,0.666-1.198,1.185-2.019,1.556c-0.819,0.371-1.793,0.558-2.92,0.558c-1.179,0-2.171-0.191-2.978-0.576
	c-0.808-0.385-1.461-0.916-1.96-1.596c-0.499-0.679-0.858-1.479-1.076-2.4c-0.218-0.924-0.327-1.908-0.327-2.959
	S340.929,354.082,341.185,353.186L341.185,353.186z M344.759,357.564c0.026,0.539,0.116,1.045,0.271,1.519
	c0.152,0.476,0.396,0.879,0.729,1.211c0.333,0.333,0.809,0.5,1.422,0.5c0.589,0,1.058-0.167,1.403-0.5
	c0.345-0.332,0.602-0.735,0.769-1.211c0.168-0.474,0.27-0.974,0.308-1.498c0.039-0.524,0.058-0.993,0.058-1.401
	c0-0.386-0.019-0.84-0.058-1.365c-0.039-0.523-0.134-1.024-0.288-1.498c-0.154-0.475-0.391-0.885-0.711-1.229
	c-0.321-0.347-0.763-0.52-1.326-0.52c-0.615,0-1.095,0.153-1.441,0.461c-0.346,0.308-0.607,0.692-0.787,1.153
	c-0.181,0.461-0.288,0.959-0.327,1.498c-0.038,0.537-0.059,1.025-0.059,1.461C344.721,356.555,344.733,357.027,344.759,357.564
	L344.759,357.564z M285.693,369.273c0.411,0,0.779,0.065,1.108,0.199c0.329,0.131,0.61,0.312,0.845,0.543s0.415,0.498,0.538,0.801
	c0.123,0.304,0.186,0.631,0.186,0.979c0,0.539-0.113,1.004-0.34,1.396c-0.226,0.395-0.595,0.691-1.108,0.896v0.026
	c0.248,0.067,0.453,0.172,0.615,0.313c0.162,0.141,0.294,0.307,0.397,0.498c0.103,0.192,0.177,0.403,0.224,0.635
	c0.047,0.23,0.079,0.461,0.096,0.691l0.026,0.512l0.044,0.604c0.021,0.204,0.056,0.397,0.103,0.582
	c0.047,0.184,0.117,0.34,0.212,0.468h-2.012c-0.111-0.29-0.179-0.637-0.205-1.038c-0.025-0.399-0.064-0.784-0.115-1.151
	c-0.069-0.479-0.213-0.828-0.436-1.052c-0.222-0.222-0.585-0.333-1.089-0.333h-2.011v3.574h-2.012v-9.146h4.934V369.273z
	 M284.977,373.411c0.461,0,0.807-0.103,1.037-0.308c0.231-0.205,0.346-0.537,0.346-1c0-0.442-0.115-0.767-0.346-0.967
	c-0.23-0.201-0.576-0.301-1.037-0.301h-2.204v2.574L284.977,373.411L284.977,373.411z M291.829,369.273v9.146h-2.012v-9.146H291.829
	z M294.942,376.165c0.11,0.214,0.258,0.388,0.442,0.521c0.184,0.131,0.399,0.229,0.646,0.293c0.248,0.064,0.504,0.098,0.769,0.098
	c0.18,0,0.372-0.016,0.577-0.046c0.205-0.029,0.396-0.087,0.576-0.173c0.179-0.086,0.329-0.202,0.448-0.353
	c0.119-0.149,0.18-0.34,0.18-0.569c0-0.248-0.079-0.449-0.237-0.604c-0.159-0.152-0.365-0.281-0.622-0.384
	c-0.257-0.103-0.546-0.192-0.871-0.269c-0.325-0.078-0.654-0.162-0.987-0.258c-0.341-0.085-0.675-0.189-0.999-0.312
	c-0.325-0.123-0.615-0.283-0.871-0.48c-0.256-0.195-0.463-0.441-0.621-0.736c-0.159-0.295-0.238-0.65-0.238-1.069
	c0-0.47,0.101-0.878,0.301-1.224c0.201-0.346,0.464-0.634,0.788-0.863c0.325-0.23,0.692-0.402,1.102-0.514
	c0.41-0.111,0.82-0.166,1.229-0.166c0.479,0,0.938,0.053,1.377,0.159c0.44,0.107,0.831,0.28,1.172,0.521
	c0.342,0.238,0.613,0.544,0.814,0.914c0.2,0.373,0.301,0.822,0.301,1.353h-1.948c-0.017-0.272-0.074-0.499-0.173-0.679
	c-0.098-0.18-0.228-0.32-0.39-0.424c-0.163-0.102-0.349-0.174-0.557-0.217c-0.21-0.043-0.438-0.064-0.686-0.064
	c-0.162,0-0.324,0.018-0.486,0.052c-0.163,0.034-0.31,0.095-0.442,0.181c-0.132,0.084-0.241,0.191-0.326,0.319
	c-0.086,0.127-0.128,0.29-0.128,0.486c0,0.18,0.034,0.323,0.102,0.437c0.068,0.109,0.203,0.213,0.404,0.307
	c0.2,0.095,0.479,0.188,0.833,0.281l1.39,0.359c0.17,0.033,0.407,0.096,0.71,0.186c0.303,0.09,0.604,0.232,0.903,0.43
	c0.299,0.197,0.558,0.459,0.775,0.787c0.218,0.328,0.327,0.75,0.327,1.263c0,0.419-0.082,0.808-0.243,1.166
	c-0.163,0.358-0.403,0.668-0.724,0.928c-0.32,0.263-0.717,0.464-1.191,0.609c-0.474,0.146-1.022,0.218-1.646,0.218
	c-0.504,0-0.993-0.062-1.467-0.186c-0.474-0.125-0.893-0.318-1.255-0.584c-0.362-0.265-0.651-0.603-0.865-1.012
	c-0.213-0.41-0.316-0.896-0.307-1.461h1.947C294.776,375.691,294.831,375.952,294.942,376.165L294.942,376.165z M303.538,369.273
	v3.791l3.574-3.791h2.51l-3.574,3.611l3.92,5.534h-2.523l-2.754-4.112l-1.152,1.166v2.946h-2.012v-9.146H303.538L303.538,369.273z
	 M317.295,378.42l-1.55-6.227h-0.026l-1.523,6.227h-2.037l-2.421-9.146h2.011l1.448,6.227h0.024l1.588-6.227h1.884l1.562,6.304
	h0.025l1.499-6.304h1.972l-2.458,9.146H317.295z M326.736,369.273l3.42,9.146h-2.088l-0.692-2.037h-3.42l-0.718,2.037h-2.023
	l3.458-9.146H326.736z M326.852,374.885l-1.152-3.355h-0.026l-1.19,3.355H326.852L326.852,374.885z M335.689,369.273
	c0.409,0,0.778,0.065,1.107,0.199c0.329,0.131,0.61,0.312,0.845,0.543c0.235,0.23,0.415,0.498,0.538,0.801
	c0.123,0.304,0.187,0.631,0.187,0.979c0,0.539-0.113,1.004-0.34,1.396c-0.227,0.395-0.596,0.691-1.108,0.896v0.026
	c0.248,0.067,0.453,0.172,0.615,0.313c0.162,0.141,0.294,0.307,0.396,0.498c0.104,0.192,0.178,0.403,0.225,0.635
	c0.047,0.23,0.079,0.461,0.096,0.691l0.026,0.512l0.044,0.604c0.021,0.204,0.056,0.397,0.103,0.582
	c0.047,0.184,0.117,0.34,0.212,0.468h-2.012c-0.111-0.29-0.179-0.637-0.205-1.038c-0.025-0.399-0.063-0.784-0.115-1.151
	c-0.068-0.479-0.213-0.828-0.436-1.052c-0.222-0.222-0.585-0.333-1.089-0.333h-2.011v3.574h-2.013v-9.146h4.935V369.273z
	 M334.973,373.411c0.461,0,0.808-0.103,1.037-0.308c0.231-0.205,0.347-0.537,0.347-1c0-0.442-0.115-0.767-0.347-0.967
	c-0.229-0.201-0.576-0.301-1.037-0.301h-2.204v2.574L334.973,373.411L334.973,373.411z M346.655,369.273v1.69h-4.83v1.959h4.433
	v1.563h-4.433v2.24h4.932v1.691h-6.943v-9.146h6.842V369.273z M292.948,181.003v-23.914l55.92-75.051h23.362v77.443h17.106v21.522
	H372.23v29.8h-24.834v-29.8H292.948L292.948,181.003z M346.845,114.781l-33.295,44.7h33.847v-44.7H346.845L346.845,114.781z
	 M393.938,111.01c1.96-6.315,4.902-11.833,8.828-16.556c3.925-4.719,8.858-8.398,14.809-11.037
	c5.947-2.635,12.785-3.955,20.511-3.955c5.887,0,11.497,0.919,16.831,2.759c5.335,1.839,10.025,4.478,14.072,7.91
	c4.047,3.435,7.267,7.666,9.656,12.692c2.393,5.03,3.588,10.669,3.588,16.923c0,6.501-1.043,12.081-3.127,16.74
	c-2.087,4.662-4.847,8.801-8.277,12.417c-3.436,3.619-7.329,6.898-11.681,9.841c-4.354,2.943-8.738,5.857-13.152,8.737
	c-4.415,2.883-8.709,5.979-12.877,9.29c-4.17,3.311-7.851,7.174-11.037,11.589h60.888v22.442h-94.55
	c0-7.479,1.071-13.98,3.219-19.499c2.146-5.519,5.06-10.454,8.737-14.808c3.68-4.352,8.002-8.37,12.969-12.049
	c4.967-3.679,10.209-7.418,15.729-11.221c2.818-1.96,5.822-3.955,9.014-5.979c3.188-2.023,6.099-4.259,8.737-6.714
	c2.636-2.452,4.844-5.211,6.622-8.278c1.775-3.064,2.668-6.559,2.668-10.485c0-6.254-1.812-11.129-5.428-14.624
	c-3.617-3.495-8.248-5.242-13.889-5.242c-3.802,0-7.021,0.891-9.657,2.667c-2.639,1.779-4.754,4.11-6.346,6.99
	c-1.596,2.883-2.729,6.07-3.403,9.565c-0.676,3.495-1.012,6.961-1.012,10.393H391.36
	C391.113,124.163,391.973,117.328,393.938,111.01L393.938,111.01z M492.202,101.721c1.225-4.415,3.127-8.278,5.702-11.589
	c2.574-3.311,5.822-5.915,9.75-7.818c3.923-1.9,8.582-2.851,13.979-2.851c5.764,0,10.546,0.983,14.35,2.943
	c3.8,1.963,6.896,4.63,9.289,8.002c2.392,3.375,4.075,7.329,5.059,11.865c0.979,4.539,1.472,9.321,1.472,14.348
	c0,5.03-0.614,9.657-1.84,13.888c-1.227,4.231-3.098,7.881-5.61,10.945c-2.515,3.067-5.732,5.458-9.656,7.174
	c-3.927,1.719-8.585,2.575-13.98,2.575c-5.642,0-10.393-0.888-14.256-2.667c-3.862-1.776-6.99-4.23-9.381-7.358
	c-2.393-3.127-4.11-6.866-5.151-11.221c-1.043-4.352-1.562-9.042-1.562-14.072C490.362,110.858,490.975,106.135,492.202,101.721z
	 M509.31,122.875c0.12,2.455,0.553,4.754,1.287,6.898c0.736,2.147,1.9,3.955,3.495,5.426c1.594,1.472,3.863,2.208,6.808,2.208
	c2.818,0,5.059-0.736,6.714-2.208c1.654-1.471,2.88-3.279,3.679-5.426c0.797-2.144,1.288-4.415,1.472-6.806
	c0.186-2.391,0.276-4.567,0.276-6.53c0-1.839-0.092-4.076-0.276-6.714c-0.184-2.636-0.644-5.18-1.379-7.634
	c-0.735-2.452-1.871-4.535-3.402-6.254c-1.535-1.716-3.65-2.576-6.348-2.576c-2.942,0-5.242,0.799-6.896,2.392
	c-1.656,1.595-2.915,3.558-3.771,5.886c-0.858,2.331-1.38,4.846-1.562,7.542c-0.185,2.699-0.276,5.09-0.276,7.174
	C509.125,118.216,509.187,120.423,509.31,122.875L509.31,122.875z M615.08,77.991l-75.787,136.674H523.29l76.154-136.674H615.08z
	 M587.12,163.16c1.225-4.291,3.127-8.03,5.702-11.221c2.575-3.188,5.822-5.703,9.75-7.542c3.923-1.839,8.582-2.759,13.979-2.759
	c5.764,0,10.546,0.951,14.35,2.851c3.8,1.903,6.896,4.478,9.289,7.726c2.392,3.25,4.075,7.082,5.059,11.497
	c0.98,4.415,1.472,9.137,1.472,14.165c0,5.03-0.614,9.689-1.84,13.98c-1.227,4.294-3.098,8.033-5.61,11.221
	c-2.515,3.19-5.732,5.674-9.656,7.45c-3.926,1.776-8.585,2.667-13.98,2.667c-5.642,0-10.393-0.919-14.256-2.759
	c-3.862-1.84-6.99-4.383-9.381-7.634c-2.392-3.248-4.11-7.082-5.151-11.497c-1.043-4.415-1.562-9.134-1.562-14.164
	C585.28,172.113,585.894,167.454,587.12,163.16L587.12,163.16z M604.228,184.13c0.12,2.576,0.553,4.999,1.287,7.266
	c0.736,2.271,1.9,4.202,3.495,5.794c1.593,1.595,3.863,2.392,6.808,2.392c2.818,0,5.059-0.796,6.714-2.392
	c1.654-1.592,2.88-3.524,3.679-5.794c0.797-2.268,1.288-4.659,1.472-7.174c0.186-2.512,0.276-4.751,0.276-6.714
	c0-1.839-0.092-4.015-0.276-6.53c-0.184-2.512-0.644-4.903-1.379-7.174c-0.736-2.268-1.871-4.231-3.402-5.887
	c-1.535-1.655-3.65-2.483-6.348-2.483c-2.942,0-5.242,0.736-6.896,2.207c-1.656,1.472-2.915,3.312-3.771,5.519
	c-0.858,2.208-1.38,4.599-1.562,7.174c-0.185,2.575-0.276,4.906-0.276,6.99C604.043,179.287,604.104,181.555,604.228,184.13
	L604.228,184.13z"/>
</svg>
