<?xml version="1.0" encoding="utf-8"?>
<!-- Generator: Adobe Illustrator 16.0.0, SVG Export Plug-In . SVG Version: 6.00 Build 0)  -->
<!DOCTYPE svg PUBLIC "-//W3C//DTD SVG 1.1//EN" "http://www.w3.org/Graphics/SVG/1.1/DTD/svg11.dtd">
<svg version="1.1" id="Layer_1" xmlns="http://www.w3.org/2000/svg" xmlns:xlink="http://www.w3.org/1999/xlink" x="0px" y="0px"
	 width="750px" height="510px" viewBox="0 0 750 510" enable-background="new 0 0 750 510" xml:space="preserve">
<path fill="#FFFFFF" d="M409.027,254.638v-10.885h-44.981v58.879h45.659v-10.885h-32.738v-14.863h29.424v-10.061h-29.424v-12.188
	L409.027,254.638z M306.964,360.633h-3v-6l-0.037-0.492l0.031-0.611c0-7.68-6.266-13.896-13.996-13.896
	c-7.426,0-13.484,5.746-13.949,13.004h3.982c0.449-5.049,4.732-9.01,9.959-9.01c5.229,0,9.512,3.963,9.959,9.012l0.051-0.002v8h-27
	c-0.871,0-2,1.146-2,2v19.084l4.549-4.391l0.975,2.688l5.855-6.151l-6.285,9.424l-1.217-2.396l-2.982,3.604
	c0.826,1.966,2.551,3.458,4.666,3.956c0.188,0.108,0.344,0.186,0.439,0.186l0.465-0.027c0.215,0.021,0.432,0.029,0.65,0.029h24.129
	c1.885,0,3.588-0.771,4.812-2.018c0.293-0.056,0.609-0.521,0.9-1.146c0.656-1.039,1.041-2.267,1.041-3.586v-19.81
	C308.962,361.222,307.833,360.633,306.964,360.633L306.964,360.633z M289.968,381.64c-1.1,0-1.99-0.895-1.99-1.996
	c0-1.104,0.893-1.994,1.99-1.994c1.1,0,1.992,0.896,1.992,1.994C291.96,380.746,291.068,381.64,289.968,381.64z M295.583,376.211
	c-0.246,0.274-0.57,0.412-0.895,0.412s-0.646-0.138-0.896-0.412c-1.021-1.142-2.389-1.769-3.84-1.769
	c-1.449,0-2.811,0.625-3.834,1.769c-0.496,0.551-1.297,0.549-1.791,0.002c-0.494-0.551-0.494-1.443,0-1.994
	c1.5-1.672,3.498-2.594,5.625-2.594c2.125,0,4.125,0.922,5.629,2.594C296.078,374.767,296.078,375.66,295.583,376.211
	L295.583,376.211z M298.57,371.235c-0.516,0.527-1.344,0.527-1.857,0c-1.805-1.864-4.205-2.896-6.758-2.896
	c-2.555,0-4.955,1.027-6.758,2.896c-0.258,0.267-0.594,0.396-0.93,0.396c-0.334,0-0.672-0.133-0.928-0.396
	c-0.514-0.528-0.514-1.393,0-1.918c1.584-1.644,3.535-2.762,5.656-3.307l-0.141-0.064l6.355,0.151
	c2.004,0.571,3.848,1.655,5.357,3.22C299.082,369.847,299.082,370.705,298.57,371.235L298.57,371.235z M443.965,360.633h-3v-6
	l-0.037-0.492l0.031-0.611c0-7.68-6.266-13.896-13.996-13.896c-7.426,0-13.484,5.746-13.949,13.004h3.982
	c0.449-5.049,4.729-9.01,9.959-9.01c5.229,0,9.512,3.963,9.959,9.012l0.051-0.002v8h-27c-0.869,0-2,1.146-2,2v19.084l4.549-4.391
	l0.979,2.688l5.854-6.151l-6.287,9.424l-1.217-2.396l-2.979,3.604c0.822,1.966,2.551,3.458,4.666,3.956
	c0.188,0.108,0.344,0.186,0.438,0.186l0.465-0.027c0.215,0.021,0.436,0.029,0.65,0.029h24.129c1.885,0,3.588-0.771,4.812-2.018
	c0.294-0.056,0.607-0.521,0.898-1.146c0.656-1.039,1.041-2.267,1.041-3.586v-19.81C445.963,361.222,444.834,360.633,443.965,360.633
	L443.965,360.633z M426.969,381.64c-1.1,0-1.99-0.895-1.99-1.996c0-1.104,0.896-1.994,1.99-1.994c1.104,0,1.992,0.896,1.992,1.994
	C428.961,380.746,428.068,381.64,426.969,381.64z M432.584,376.211c-0.246,0.274-0.57,0.412-0.895,0.412
	c-0.325,0-0.646-0.138-0.896-0.412c-1.021-1.142-2.389-1.769-3.84-1.769c-1.449,0-2.812,0.625-3.834,1.769
	c-0.496,0.551-1.297,0.549-1.791,0.002c-0.494-0.551-0.494-1.443,0-1.994c1.5-1.672,3.498-2.594,5.625-2.594
	c2.125,0,4.125,0.922,5.629,2.594C433.078,374.767,433.078,375.66,432.584,376.211L432.584,376.211z M435.57,371.235
	c-0.52,0.527-1.348,0.527-1.857,0c-1.805-1.864-4.205-2.896-6.758-2.896c-2.555,0-4.955,1.027-6.758,2.896
	c-0.258,0.267-0.596,0.396-0.934,0.396c-0.334,0-0.672-0.133-0.928-0.396c-0.514-0.528-0.514-1.393,0-1.918
	c1.584-1.644,3.535-2.762,5.656-3.307l-0.143-0.064l6.354,0.151c2.004,0.571,3.848,1.655,5.355,3.22
	C436.082,369.847,436.082,370.705,435.57,371.235z M511.965,360.633h-3v-6l-0.037-0.492l0.031-0.611
	c0-7.68-6.266-13.896-13.996-13.896c-7.426,0-13.484,5.746-13.949,13.004h3.982c0.449-5.049,4.729-9.01,9.959-9.01
	c5.229,0,9.512,3.963,9.959,9.012l0.051-0.002v8h-27c-0.869,0-2,1.146-2,2v19.084l4.549-4.391l0.979,2.688l5.854-6.151l-6.287,9.424
	l-1.217-2.396l-2.979,3.604c0.822,1.966,2.551,3.458,4.666,3.956c0.188,0.108,0.344,0.186,0.438,0.186l0.465-0.027
	c0.215,0.021,0.436,0.029,0.65,0.029h24.129c1.885,0,3.588-0.771,4.812-2.018c0.294-0.056,0.607-0.521,0.898-1.146
	c0.656-1.039,1.041-2.267,1.041-3.586v-19.81C513.963,361.222,512.834,360.633,511.965,360.633L511.965,360.633z M494.969,381.64
	c-1.1,0-1.99-0.895-1.99-1.996c0-1.104,0.896-1.994,1.99-1.994c1.104,0,1.992,0.896,1.992,1.994
	C496.961,380.746,496.068,381.64,494.969,381.64z M500.584,376.211c-0.246,0.274-0.57,0.412-0.896,0.412
	c-0.323,0-0.646-0.138-0.896-0.412c-1.021-1.142-2.389-1.769-3.84-1.769c-1.449,0-2.812,0.625-3.834,1.769
	c-0.496,0.551-1.297,0.549-1.791,0.002c-0.494-0.551-0.494-1.443,0-1.994c1.5-1.672,3.498-2.594,5.625-2.594
	c2.125,0,4.125,0.922,5.629,2.594C501.078,374.767,501.078,375.66,500.584,376.211L500.584,376.211z M503.57,371.235
	c-0.52,0.527-1.348,0.527-1.857,0c-1.805-1.864-4.205-2.896-6.758-2.896c-2.555,0-4.955,1.027-6.758,2.896
	c-0.26,0.267-0.596,0.396-0.934,0.396c-0.334,0-0.672-0.133-0.928-0.396c-0.514-0.528-0.514-1.393,0-1.918
	c1.584-1.644,3.535-2.762,5.656-3.307l-0.143-0.064l6.354,0.151c2.004,0.571,3.848,1.655,5.355,3.22
	C504.082,369.847,504.082,370.705,503.57,371.235z M347.937,298.633c2.127-1.676,3.727-3.67,4.805-5.979
	c1.076-2.309,1.615-4.812,1.615-7.504c0-3.299-0.723-6.006-2.168-8.123c-1.445-2.114-3.16-3.807-5.146-5.069
	c-1.982-1.267-3.982-2.187-5.994-2.765c-2.014-0.575-3.586-0.979-4.719-1.194c-3.799-0.935-6.875-1.703-9.227-2.31
	c-2.355-0.604-4.197-1.209-5.527-1.813c-1.334-0.604-2.227-1.265-2.68-1.979c-0.455-0.715-0.682-1.646-0.682-2.805
	c0-1.264,0.283-2.309,0.852-3.133c0.566-0.826,1.289-1.512,2.168-2.062c0.879-0.549,1.855-0.934,2.936-1.153
	c1.076-0.22,2.152-0.33,3.23-0.33c1.643,0,3.16,0.139,4.549,0.412c1.389,0.274,2.623,0.741,3.699,1.401s1.941,1.566,2.594,2.722
	c0.65,1.152,1.033,1.965,1.146,3.725h12.928c0-3.408-0.668-5.662-1.998-8.053c-1.334-2.394-3.133-4.357-5.4-5.896
	s-4.861-2.651-7.781-3.34c-2.92-0.688-5.967-1.031-9.141-1.031c-2.721,0-5.443,0.359-8.164,1.072
	c-2.721,0.715-5.16,1.814-7.312,3.299c-2.154,1.484-3.898,3.34-5.229,5.566c-1.334,2.227-2,4.852-2,7.875
	c0,2.691,0.525,4.986,1.574,6.885c1.049,1.898,2.424,3.479,4.125,4.742c1.699,1.266,3.627,2.297,5.781,3.092
	c2.152,0.799,4.363,1.473,6.633,2.021c2.211,0.604,4.393,1.152,6.549,1.646c2.152,0.493,4.082,1.069,5.781,1.729
	c1.701,0.657,3.074,1.479,4.125,2.475c1.049,0.988,1.572,2.281,1.572,3.875c0,1.484-0.396,2.71-1.189,3.673
	c-0.795,0.963-1.785,1.719-2.979,2.27c-1.189,0.549-2.465,0.92-3.824,1.111c-1.361,0.19-2.637,0.289-3.826,0.289
	c-1.76,0-3.459-0.207-5.104-0.619c-1.646-0.412-3.076-1.043-4.295-1.896c-1.221-0.854-2.197-1.965-2.934-3.34
	c-0.738-1.373-1.105-2.403-1.105-4.383H303.25c-0.057,3.627,0.623,6.113,2.041,8.754c1.416,2.639,3.33,4.812,5.74,6.514
	c2.408,1.705,5.188,2.955,8.334,3.753c3.145,0.798,6.391,1.194,9.734,1.194c4.139,0,7.781-0.469,10.928-1.398
	C343.175,301.615,345.812,300.311,347.937,298.633L347.937,298.633z M520.041,280.367c0,4.396-0.908,7.629-2.721,9.688
	c-1.816,2.062-5.104,3.092-9.865,3.092c-2.721,0-4.891-0.371-6.504-1.108c-1.617-0.742-2.879-1.703-3.785-2.89
	c-0.908-1.182-1.502-2.543-1.785-4.082c-0.285-1.539-0.426-3.104-0.426-4.696v-36.613h-12.92v36.613
	c0,8.022,1.82,13.965,6.33,17.812c4.506,3.846,10.867,5.771,19.09,5.771c8.105,0,14.457-1.938,19.049-5.812
	c4.592-3.877,6.457-9.801,6.457-17.771v-36.613h-12.92V280.367L520.041,280.367z M374.965,360.633h-3v-6l-0.037-0.492l0.031-0.611
	c0-7.68-6.266-13.896-13.996-13.896c-7.426,0-13.484,5.746-13.949,13.004h3.982c0.449-5.049,4.732-9.01,9.959-9.01
	c5.229,0,9.512,3.963,9.959,9.012l0.051-0.002v8h-27c-0.871,0-2,1.146-2,2v19.084l4.549-4.391l0.975,2.688l5.855-6.151l-6.285,9.424
	l-1.217-2.396l-2.982,3.604c0.826,1.966,2.551,3.458,4.666,3.956c0.188,0.108,0.344,0.186,0.439,0.186l0.465-0.027
	c0.215,0.021,0.432,0.029,0.65,0.029h24.129c1.885,0,3.588-0.771,4.813-2.018c0.293-0.056,0.609-0.521,0.9-1.146
	c0.656-1.039,1.041-2.267,1.041-3.586v-19.81C376.963,361.222,375.834,360.633,374.965,360.633L374.965,360.633z M357.968,381.64
	c-1.1,0-1.99-0.895-1.99-1.996c0-1.104,0.893-1.994,1.99-1.994c1.1,0,1.992,0.896,1.992,1.994
	C359.96,380.746,359.068,381.64,357.968,381.64z M363.583,376.211c-0.246,0.274-0.57,0.412-0.895,0.412
	c-0.325,0-0.646-0.138-0.896-0.412c-1.021-1.142-2.389-1.769-3.84-1.769c-1.449,0-2.811,0.625-3.834,1.769
	c-0.496,0.551-1.297,0.549-1.791,0.002c-0.494-0.551-0.494-1.443,0-1.994c1.5-1.672,3.498-2.594,5.625-2.594
	c2.125,0,4.125,0.922,5.629,2.594C364.078,374.767,364.078,375.66,363.583,376.211L363.583,376.211z M366.57,371.235
	c-0.516,0.527-1.344,0.527-1.857,0c-1.805-1.864-4.205-2.896-6.758-2.896c-2.555,0-4.955,1.027-6.758,2.896
	c-0.258,0.267-0.594,0.396-0.93,0.396c-0.334,0-0.672-0.133-0.928-0.396c-0.514-0.528-0.514-1.393,0-1.918
	c1.584-1.644,3.535-2.762,5.656-3.307l-0.141-0.064l6.355,0.151c2.004,0.571,3.848,1.655,5.357,3.22
	C367.082,369.847,367.082,370.705,366.57,371.235L366.57,371.235z M455.422,289.521c-2.295,2.42-5.484,3.627-9.564,3.627
	c-3.006,0-5.559-0.562-7.65-1.688c-2.1-1.127-3.799-2.625-5.104-4.494c-1.307-1.868-2.256-3.971-2.85-6.309
	c-0.596-2.337-0.895-4.742-0.895-7.216c0-2.584,0.299-5.086,0.895-7.506c0.594-2.418,1.543-4.576,2.85-6.477
	c1.307-1.896,3.007-3.404,5.104-4.535c2.096-1.127,4.646-1.691,7.65-1.691c1.646,0,3.219,0.263,4.723,0.785
	c1.502,0.521,2.848,1.25,4.039,2.185c1.188,0.938,2.182,2.021,2.977,3.258c0.793,1.236,1.309,2.602,1.529,4.082h12.926
	c-0.395-3.404-1.355-6.436-2.891-9.07c-1.531-2.639-3.041-4.852-5.396-6.639c-2.354-1.785-5.447-3.146-8.426-4.082
	c-2.977-0.935-6.139-1.402-9.48-1.402c-4.646,0-8.828,0.799-12.541,2.394c-3.717,1.594-6.85,3.793-9.396,6.596
	c-2.551,2.805-4.506,6.094-5.867,9.854c-1.355,3.769-2.041,7.851-2.041,12.246c0,4.287,0.686,8.287,2.041,11.998
	c1.361,3.711,3.316,6.939,5.867,9.688c2.553,2.748,5.686,4.906,9.396,6.476c3.713,1.563,7.895,2.352,12.541,2.352
	c3.74,0,7.174-0.551,10.291-1.646c3.115-1.102,5.84-2.693,8.16-4.783c2.324-2.088,4.195-4.615,5.611-7.586
	c1.418-2.971,2.297-6.295,2.639-9.979h-12.928C459.121,283.914,457.719,287.102,455.422,289.521L455.422,289.521z M621.02,291.748
	V276.67h29.207v-10.062H621.02V254.64h31.848v-10.885h-44.979v58.879h46.088v-10.885L621.02,291.748L621.02,291.748z
	 M581.965,360.633h-3v-6l-0.037-0.492l0.031-0.611c0-7.68-6.266-13.896-13.996-13.896c-7.426,0-13.482,5.746-13.949,13.004h3.982
	c0.449-5.049,4.73-9.01,9.959-9.01s9.512,3.963,9.959,9.012l0.051-0.002v8h-27c-0.869,0-2,1.146-2,2v19.084l4.549-4.391l0.979,2.688
	l5.854-6.151l-6.286,9.424l-1.218-2.396l-2.979,3.604c0.824,1.966,2.551,3.458,4.666,3.956c0.188,0.108,0.344,0.186,0.438,0.186
	l0.465-0.027c0.219,0.021,0.436,0.029,0.65,0.029h24.129c1.885,0,3.588-0.771,4.812-2.018c0.293-0.056,0.605-0.521,0.896-1.146
	c0.656-1.039,1.041-2.267,1.041-3.586v-19.81C583.963,361.222,582.834,360.633,581.965,360.633L581.965,360.633z M564.969,381.64
	c-1.1,0-1.99-0.895-1.99-1.996c0-1.104,0.896-1.994,1.99-1.994c1.104,0,1.992,0.896,1.992,1.994
	C566.961,380.746,566.068,381.64,564.969,381.64z M570.584,376.211c-0.246,0.274-0.57,0.412-0.896,0.412
	c-0.323,0-0.646-0.138-0.896-0.412c-1.021-1.142-2.389-1.769-3.84-1.769c-1.449,0-2.812,0.625-3.834,1.769
	c-0.496,0.551-1.297,0.549-1.791,0.002c-0.494-0.551-0.494-1.443,0-1.994c1.5-1.672,3.498-2.594,5.625-2.594
	c2.125,0,4.125,0.922,5.629,2.594C571.078,374.767,571.078,375.66,570.584,376.211L570.584,376.211z M573.57,371.235
	c-0.52,0.527-1.348,0.527-1.857,0c-1.805-1.864-4.205-2.896-6.758-2.896c-2.555,0-4.955,1.027-6.758,2.896
	c-0.258,0.267-0.596,0.396-0.934,0.396c-0.334,0-0.672-0.133-0.928-0.396c-0.514-0.528-0.514-1.393,0-1.918
	c1.584-1.644,3.535-2.762,5.656-3.307l-0.143-0.064l6.354,0.151c2.004,0.571,3.848,1.655,5.355,3.22
	C574.082,369.847,574.082,370.705,573.57,371.235L573.57,371.235z M648.965,360.633h-3v-6l-0.037-0.492l0.031-0.611
	c0-7.68-6.266-13.896-13.996-13.896c-7.426,0-13.48,5.746-13.949,13.004h3.982c0.449-5.049,4.732-9.01,9.959-9.01
	c5.229,0,9.512,3.963,9.959,9.012l0.051-0.002v8h-27c-0.869,0-2,1.146-2,2v19.084l4.549-4.391l0.979,2.688l5.854-6.151l-6.285,9.424
	l-1.219-2.396l-2.979,3.604c0.825,1.966,2.551,3.458,4.666,3.956c0.188,0.108,0.344,0.186,0.438,0.186l0.465-0.027
	c0.219,0.021,0.436,0.029,0.65,0.029h24.129c1.885,0,3.588-0.771,4.812-2.018c0.293-0.056,0.605-0.521,0.896-1.146
	c0.656-1.039,1.041-2.267,1.041-3.586v-19.81C650.963,361.222,649.834,360.633,648.965,360.633L648.965,360.633z M631.969,381.64
	c-1.1,0-1.99-0.895-1.99-1.996c0-1.104,0.896-1.994,1.99-1.994c1.104,0,1.992,0.896,1.992,1.994
	C633.961,380.746,633.068,381.64,631.969,381.64z M637.584,376.211c-0.246,0.274-0.57,0.412-0.895,0.412
	c-0.325,0-0.646-0.138-0.896-0.412c-1.021-1.142-2.389-1.769-3.84-1.769c-1.449,0-2.812,0.625-3.834,1.769
	c-0.496,0.551-1.297,0.549-1.791,0.002c-0.494-0.551-0.494-1.443,0-1.994c1.5-1.672,3.498-2.594,5.625-2.594
	c2.125,0,4.125,0.922,5.629,2.594C638.078,374.767,638.078,375.66,637.584,376.211L637.584,376.211z M640.57,371.235
	c-0.52,0.527-1.348,0.527-1.857,0c-1.805-1.864-4.205-2.896-6.758-2.896c-2.555,0-4.955,1.027-6.758,2.896
	c-0.258,0.267-0.594,0.396-0.934,0.396c-0.334,0-0.672-0.133-0.928-0.396c-0.514-0.528-0.514-1.393,0-1.918
	c1.584-1.644,3.535-2.762,5.656-3.307l-0.143-0.064l6.354,0.151c2.004,0.571,3.848,1.655,5.356,3.22
	C641.082,369.847,641.082,370.705,640.57,371.235z M595.885,295.871c-0.143-1.32-0.24-2.611-0.299-3.877
	c-0.057-1.266-0.113-2.363-0.17-3.301c-0.113-1.482-0.326-2.969-0.637-4.451c-0.312-1.482-0.812-2.846-1.488-4.08
	c-0.68-1.238-1.561-2.312-2.637-3.219c-1.076-0.907-2.438-1.578-4.082-2.021v-0.166c3.398-1.316,5.854-3.24,7.354-5.771
	c1.502-2.526,2.254-5.522,2.254-8.985c0-2.254-0.408-4.354-1.229-6.31c-0.822-1.95-2.014-3.67-3.572-5.153
	c-1.559-1.484-3.43-2.652-5.611-3.506c-2.184-0.853-4.635-1.277-7.354-1.277h-32.311v58.879h12.922v-23.008h13.352
	c3.346,0,5.754,0.715,7.229,2.146c1.475,1.432,2.438,3.687,2.894,6.765c0.34,2.362,0.596,4.838,0.766,7.422s0.623,4.812,1.359,6.681
	H598.4c-0.623-0.824-1.523-1.828-1.834-3.011C596.252,298.439,596.025,297.188,595.885,295.871L595.885,295.871z M580.535,268.41
	c-1.531,1.318-3.826,1.979-6.887,1.979H559.02v-16.574h14.631c3.061,0,5.354,0.646,6.887,1.938c1.531,1.293,2.297,3.369,2.297,6.228
	C582.832,264.945,582.066,267.092,580.535,268.41z M163.435,149.623c-18.991,0-36.841,7.63-50.25,21.492
	c-2.994,3.093-2.994,8.098,0,11.181c1.497,1.548,3.456,2.318,5.414,2.318c1.959,0,3.919-0.771,5.418-2.318
	c10.521-10.87,25.082-16.75,39.977-16.75c14.898,0,28.338,5.88,38.871,16.75c2.992,3.096,7.832,3.096,10.83,0
	c2.992-3.093,2.992-8.088,0-11.181C200.271,157.251,182.427,149.623,163.435,149.623L163.435,149.623z M163.955,212.624
	c-6.627,0-11.999,5.603-11.999,12.513c0,6.908,5.372,12.51,11.999,12.51c6.629,0,12.002-5.602,12.002-12.51
	C175.957,218.226,170.583,212.624,163.955,212.624z M252.208,111.523c-0.379,0-9.758,0.012-10.139,0.032l-0.555,0.032
	c-3.799,0.22-8.943,0.044-13.553,0.044c-28.809,0-42.387-12.761-50.748-21.418c-4.396-4.925-10.469-6.322-14.596-6.591
	c-3.979-0.259-2.402,0.153-2.701,0.153h0.006c-1.084,0.121-3.053,0.483-5.301,1.455c-2.584,1.118-4.897,2.775-6.784,4.851
	c-15.782,16.307-39.366,21.743-56.428,21.743c-3.422,0-6.244-0.137-8.555-0.271c-0.379-0.021-8.759-0.032-9.137-0.032
	c-11.892,0-11.166-3.652-11.757,11.108c-0.015,0.364,0.013,9.638,0,10c-0.926,27.057,3.955,50.237,12.072,72.777
	c14.645,43.957,41.201,73.952,78.935,93.1c2.771,1.406,9.941,4.141,9.941,4.141s3.715-1.436,9.047-4.141
	c37.732-19.146,64.289-49.143,78.934-93.1c7.91-23.747,11.967-39.264,12.072-72.777c0.002-0.448,0-9.545,0-10
	C262.964,109.528,264.472,111.523,252.208,111.523L252.208,111.523z M163.527,281.623h-1.125
	c-78.852-39.84-81.439-120.935-81.439-150.99c2.319,0.133,5.843,0,10,0c17.898,0,49.658-5.608,72-28.985l-0.004-0.005h0.008
	l-0.004,0.005c22.078,23.102,48.617,28.985,68,28.985c5.521,0,9.82,0.24,14,0C244.964,160.368,242.376,241.783,163.527,281.623z
	 M163.423,180.629c-13.116,0-24.921,5.162-34.178,14.942c-3.043,3.217-3.043,8.438,0.006,11.657
	c3.049,3.197,7.987,3.208,11.035-0.013c6.308-6.678,14.707-10.34,23.653-10.34c8.943,0,17.359,3.676,23.676,10.34
	c1.527,1.611,3.523,2.418,5.521,2.418c1.992,0,3.992-0.807,5.51-2.418c3.045-3.217,3.045-8.435,0-11.645
	C189.371,185.79,176.531,180.629,163.423,180.629L163.423,180.629z"/>
<path fill="#C62139" d="M65.007,506.334h586.667V510H65.007V506.334z"/>
<path fill="#FFFFFF" d="M62.783,432.622c0.288-0.821,0.702-1.539,1.242-2.151c0.54-0.61,1.202-1.092,1.988-1.438
	c0.786-0.348,1.671-0.522,2.655-0.522c0.996,0,1.884,0.175,2.664,0.522c0.78,0.347,1.44,0.828,1.98,1.438
	c0.539,0.612,0.953,1.33,1.241,2.151c0.288,0.821,0.433,1.713,0.433,2.673c0,0.937-0.145,1.809-0.433,2.619
	c-0.288,0.81-0.702,1.516-1.241,2.115c-0.54,0.6-1.2,1.069-1.98,1.412c-0.78,0.343-1.668,0.514-2.664,0.514
	c-0.984,0-1.869-0.171-2.655-0.514c-0.786-0.343-1.448-0.812-1.988-1.412c-0.54-0.601-0.954-1.306-1.242-2.115
	c-0.288-0.811-0.433-1.684-0.433-2.619C62.351,434.335,62.495,433.443,62.783,432.622z M65.366,436.87
	c0.126,0.511,0.326,0.97,0.603,1.377c0.276,0.408,0.636,0.735,1.08,0.98c0.444,0.246,0.984,0.369,1.62,0.369
	c0.636,0,1.176-0.123,1.62-0.369c0.443-0.245,0.804-0.572,1.08-0.98c0.275-0.407,0.477-0.866,0.603-1.377s0.189-1.035,0.189-1.575
	c0-0.563-0.063-1.109-0.189-1.638c-0.126-0.529-0.327-0.999-0.603-1.413c-0.276-0.414-0.637-0.744-1.08-0.99
	c-0.444-0.246-0.984-0.369-1.62-0.369c-0.636,0-1.176,0.123-1.62,0.369c-0.444,0.246-0.804,0.576-1.08,0.99
	c-0.276,0.414-0.477,0.885-0.603,1.413c-0.126,0.527-0.189,1.073-0.189,1.638C65.177,435.835,65.24,436.359,65.366,436.87z
	 M79.073,432.361v1.296h0.054c0.324-0.54,0.744-0.934,1.26-1.18c0.516-0.245,1.044-0.368,1.584-0.368
	c0.685,0,1.245,0.093,1.684,0.278c0.438,0.187,0.782,0.443,1.034,0.773s0.43,0.731,0.531,1.206c0.101,0.474,0.153,0.999,0.153,1.575
	v5.724h-2.556v-5.256c0-0.77-0.12-1.341-0.36-1.72c-0.24-0.378-0.666-0.566-1.278-0.566c-0.696,0-1.2,0.207-1.512,0.621
	s-0.468,1.096-0.468,2.043v4.878h-2.557v-9.306L79.073,432.361L79.073,432.361z M89.944,428.814v12.853h-2.556v-12.853H89.944z
	 M95.398,444.439c-0.492,0.322-1.177,0.484-2.052,0.484c-0.265,0-0.525-0.009-0.783-0.025l-0.783-0.063v-2.106l0.738,0.072
	c0,0,0.504,0.03,0.756,0.02c0.336-0.036,0.585-0.169,0.747-0.396c0.162-0.227,0.243-0.479,0.243-0.756
	c0-0.204-0.036-0.396-0.108-0.576l-3.258-8.729h2.718l2.106,6.371h0.035l2.034-6.371h2.646l-3.889,10.458
	C96.274,443.575,95.891,444.115,95.398,444.439L95.398,444.439z M110.321,434.161c0.312-0.024,0.603-0.093,0.873-0.207
	s0.491-0.279,0.666-0.495c0.174-0.216,0.261-0.504,0.261-0.863c0-0.541-0.18-0.955-0.54-1.242c-0.36-0.288-0.774-0.433-1.242-0.433
	c-0.647,0-1.137,0.214-1.467,0.64c-0.33,0.427-0.489,0.964-0.478,1.61h-2.43c0.024-0.646,0.141-1.239,0.352-1.771
	c0.209-0.534,0.504-0.993,0.882-1.378c0.378-0.385,0.83-0.682,1.358-0.892c0.528-0.21,1.116-0.314,1.765-0.314
	c0.504,0,1.008,0.075,1.512,0.226s0.957,0.375,1.359,0.675c0.401,0.301,0.729,0.666,0.98,1.099c0.252,0.433,0.378,0.931,0.378,1.493
	c0,0.612-0.146,1.152-0.44,1.62c-0.295,0.468-0.735,0.786-1.323,0.954v0.036c0.695,0.156,1.242,0.492,1.638,1.008
	c0.396,0.518,0.594,1.134,0.594,1.854c0,0.66-0.129,1.248-0.387,1.764c-0.258,0.516-0.603,0.948-1.035,1.296
	c-0.432,0.35-0.93,0.612-1.494,0.792c-0.563,0.18-1.151,0.271-1.764,0.271c-0.708,0-1.353-0.104-1.935-0.307
	c-0.583-0.205-1.077-0.502-1.485-0.892c-0.408-0.39-0.723-0.866-0.945-1.431c-0.222-0.564-0.327-1.214-0.314-1.944h2.43
	c0.012,0.336,0.065,0.657,0.162,0.963c0.096,0.306,0.234,0.57,0.414,0.792c0.18,0.223,0.405,0.398,0.675,0.531
	c0.271,0.132,0.591,0.196,0.963,0.196c0.576,0,1.062-0.176,1.458-0.529c0.396-0.354,0.594-0.837,0.594-1.449
	c0-0.479-0.093-0.847-0.278-1.099c-0.187-0.252-0.423-0.435-0.711-0.55c-0.288-0.112-0.604-0.18-0.945-0.196
	c-0.341-0.018-0.669-0.027-0.981-0.027v-1.8C109.715,434.186,110.009,434.186,110.321,434.161L110.321,434.161z M121.391,430.921
	v-2.105h2.556v2.105H121.391z M123.946,432.361v9.306h-2.556v-9.306H123.946z M128.393,432.361v1.296h0.054
	c0.324-0.54,0.744-0.934,1.26-1.179c0.516-0.246,1.044-0.369,1.584-0.369c0.685,0,1.245,0.093,1.684,0.278
	c0.438,0.187,0.782,0.443,1.034,0.773c0.252,0.33,0.43,0.731,0.531,1.206c0.101,0.474,0.153,0.999,0.153,1.575v5.724h-2.556v-5.256
	c0-0.77-0.12-1.341-0.36-1.72c-0.24-0.377-0.666-0.566-1.278-0.566c-0.696,0-1.2,0.207-1.512,0.621s-0.468,1.096-0.468,2.043v4.878
	h-2.557v-9.306L128.393,432.361L128.393,432.361z M145.168,441.667v-8.172H142v-1.927c0.443,0.013,0.873-0.021,1.287-0.099
	s0.786-0.217,1.116-0.414c0.329-0.198,0.608-0.459,0.837-0.782c0.228-0.324,0.378-0.728,0.45-1.207h2.033v12.601H145.168
	L145.168,441.667z M151.424,432.227c0.246-0.834,0.579-1.504,0.999-2.008s0.909-0.862,1.467-1.08
	c0.559-0.216,1.149-0.323,1.773-0.323c0.636,0,1.232,0.107,1.791,0.323c0.558,0.218,1.05,0.576,1.476,1.08
	c0.426,0.504,0.762,1.174,1.008,2.008s0.369,1.862,0.369,3.087c0,1.26-0.123,2.312-0.369,3.159s-0.582,1.521-1.008,2.024
	c-0.426,0.503-0.918,0.864-1.476,1.08c-0.559,0.216-1.155,0.324-1.791,0.324c-0.624,0-1.215-0.108-1.773-0.324
	c-0.558-0.216-1.047-0.576-1.467-1.08s-0.753-1.179-0.999-2.024c-0.246-0.847-0.369-1.899-0.369-3.159
	C151.055,434.089,151.178,433.061,151.424,432.227z M153.646,436.618c0.024,0.511,0.1,1.002,0.226,1.476
	c0.126,0.476,0.326,0.879,0.603,1.215s0.672,0.505,1.188,0.505c0.527,0,0.933-0.169,1.215-0.505
	c0.281-0.336,0.485-0.739,0.612-1.215c0.126-0.474,0.2-0.965,0.225-1.476c0.023-0.511,0.036-0.945,0.036-1.306l-0.009-0.783
	c-0.007-0.306-0.03-0.62-0.072-0.944c-0.042-0.323-0.103-0.646-0.18-0.963c-0.079-0.317-0.195-0.604-0.352-0.854
	c-0.157-0.251-0.354-0.457-0.594-0.612c-0.24-0.155-0.534-0.233-0.882-0.233c-0.349,0-0.64,0.078-0.873,0.233
	c-0.234,0.155-0.427,0.36-0.576,0.612c-0.15,0.252-0.268,0.537-0.352,0.854s-0.144,0.64-0.18,0.963
	c-0.036,0.324-0.057,0.64-0.062,0.944l-0.01,0.783C153.61,435.673,153.623,436.107,153.646,436.618z M176.362,441.667l-2.178-8.748
	h-0.036l-2.142,8.748h-2.862l-3.402-12.853h2.826l2.034,8.748h0.036l2.231-8.748h2.646l2.196,8.855h0.035l2.106-8.855h2.772
	l-3.456,12.853H176.362L176.362,441.667z M183.724,430.921v-2.105h2.556v2.105H183.724z M186.279,432.361v9.306h-2.556v-9.306
	H186.279z M197.603,428.814v2.377h-6.21v2.97h5.382v2.196h-5.382v5.31h-2.826v-12.853H197.603L197.603,428.814z M199.042,430.921
	v-2.105h2.556v2.105H199.042z M201.598,432.361v9.306h-2.556v-9.306H201.598z M211.174,428.814v4.843h0.054
	c0.324-0.54,0.738-0.934,1.242-1.179c0.504-0.246,0.996-0.369,1.476-0.369c0.685,0,1.245,0.093,1.684,0.278
	c0.438,0.187,0.782,0.443,1.034,0.773s0.43,0.731,0.531,1.206c0.101,0.474,0.153,0.999,0.153,1.575v5.724h-2.556v-5.256
	c0-0.77-0.12-1.341-0.36-1.72c-0.24-0.377-0.666-0.566-1.278-0.566c-0.696,0-1.2,0.207-1.512,0.621s-0.468,1.096-0.468,2.043v4.878
	h-2.557v-12.853L211.174,428.814L211.174,428.814z M219.346,434.998c0.228-0.605,0.552-1.122,0.972-1.548s0.924-0.757,1.512-0.99
	s1.248-0.351,1.98-0.351c0.731,0,1.395,0.116,1.988,0.351c0.595,0.233,1.102,0.564,1.521,0.99s0.744,0.941,0.972,1.548
	c0.229,0.605,0.343,1.281,0.343,2.025c0,0.743-0.114,1.416-0.343,2.016c-0.228,0.6-0.552,1.113-0.972,1.539
	s-0.927,0.753-1.521,0.979c-0.594,0.229-1.257,0.344-1.988,0.344c-0.732,0-1.393-0.114-1.98-0.344
	c-0.588-0.228-1.092-0.555-1.512-0.979s-0.744-0.939-0.972-1.539c-0.229-0.6-0.343-1.271-0.343-2.016
	C219.003,436.278,219.117,435.604,219.346,434.998z M221.667,438.111c0.072,0.354,0.195,0.673,0.369,0.955
	c0.174,0.28,0.405,0.507,0.693,0.675s0.647,0.252,1.08,0.252c0.432,0,0.795-0.084,1.089-0.252s0.527-0.395,0.702-0.675
	c0.174-0.282,0.297-0.601,0.369-0.955c0.071-0.354,0.107-0.718,0.107-1.088c0-0.372-0.036-0.738-0.107-1.1
	c-0.072-0.359-0.195-0.678-0.369-0.954c-0.175-0.274-0.408-0.5-0.702-0.675c-0.294-0.174-0.657-0.261-1.089-0.261
	c-0.433,0-0.792,0.087-1.08,0.261c-0.288,0.175-0.52,0.399-0.693,0.675c-0.174,0.276-0.297,0.595-0.369,0.954
	c-0.071,0.36-0.107,0.728-0.107,1.1C221.56,437.395,221.596,437.758,221.667,438.111z M235.401,432.361v1.709h-1.872v4.608
	c0,0.433,0.072,0.72,0.216,0.863c0.145,0.146,0.433,0.216,0.864,0.216l0.414-0.018l0.378-0.054v1.979
	c-0.216,0.036-0.456,0.06-0.72,0.072c-0.265,0.012-0.522,0.018-0.774,0.018c-0.396,0-0.771-0.025-1.125-0.081
	c-0.354-0.054-0.666-0.158-0.936-0.313c-0.271-0.156-0.483-0.379-0.64-0.666c-0.155-0.288-0.233-0.666-0.233-1.136v-5.489h-1.548
	v-1.709h1.548v-2.791h2.556v2.791L235.401,432.361L235.401,432.361z M238.776,439.354c0.114,0.197,0.261,0.359,0.441,0.485
	c0.18,0.126,0.387,0.219,0.62,0.279c0.234,0.061,0.478,0.09,0.729,0.09c0.18,0,0.369-0.021,0.567-0.062
	c0.197-0.044,0.378-0.108,0.54-0.199c0.161-0.09,0.297-0.209,0.404-0.359c0.108-0.149,0.162-0.339,0.162-0.565
	c0-0.386-0.255-0.673-0.765-0.864c-0.511-0.192-1.222-0.384-2.133-0.576c-0.372-0.084-0.735-0.183-1.09-0.297
	c-0.354-0.114-0.669-0.266-0.944-0.45c-0.276-0.186-0.498-0.42-0.666-0.702s-0.252-0.627-0.252-1.034
	c0-0.601,0.117-1.092,0.351-1.477c0.234-0.384,0.543-0.688,0.927-0.909c0.385-0.222,0.816-0.378,1.296-0.468
	s0.973-0.135,1.477-0.135s0.993,0.048,1.467,0.144c0.474,0.097,0.897,0.259,1.27,0.485c0.371,0.229,0.681,0.531,0.927,0.91
	c0.246,0.377,0.393,0.854,0.44,1.431h-2.43c-0.036-0.492-0.222-0.825-0.558-0.999s-0.732-0.262-1.188-0.262l-0.468,0.026
	c0,0-0.321,0.059-0.459,0.117c-0.138,0.062-0.255,0.146-0.351,0.262c-0.097,0.113-0.145,0.268-0.145,0.459
	c0,0.229,0.084,0.414,0.252,0.559c0.168,0.144,0.387,0.261,0.657,0.351s0.579,0.172,0.927,0.243c0.348,0.072,0.702,0.15,1.062,0.233
	c0.371,0.085,0.734,0.188,1.089,0.307c0.354,0.12,0.669,0.279,0.944,0.478c0.276,0.197,0.498,0.443,0.666,0.737
	c0.168,0.295,0.252,0.657,0.252,1.09c0,0.611-0.123,1.125-0.368,1.538c-0.246,0.414-0.567,0.747-0.964,0.999
	c-0.396,0.252-0.849,0.431-1.358,0.531c-0.511,0.102-1.029,0.153-1.557,0.153c-0.54,0-1.068-0.056-1.585-0.162
	c-0.516-0.108-0.975-0.288-1.377-0.54c-0.401-0.252-0.731-0.586-0.989-0.999c-0.259-0.414-0.399-0.933-0.423-1.558h2.43
	C238.605,438.919,238.662,439.156,238.776,439.354L238.776,439.354z M248.722,432.361v1.188h0.036
	c0.312-0.504,0.707-0.869,1.188-1.098c0.479-0.229,1.008-0.342,1.584-0.342c0.731,0,1.362,0.138,1.89,0.414
	c0.528,0.274,0.966,0.642,1.314,1.098s0.605,0.987,0.774,1.593c0.167,0.606,0.252,1.239,0.252,1.899c0,0.624-0.085,1.224-0.252,1.8
	c-0.169,0.575-0.424,1.086-0.766,1.53c-0.342,0.442-0.768,0.798-1.278,1.062c-0.51,0.264-1.106,0.396-1.791,0.396
	c-0.575,0-1.106-0.117-1.593-0.353c-0.485-0.232-0.885-0.579-1.196-1.034h-0.036v4.409h-2.557v-12.562H248.722L248.722,432.361z
	 M252.042,439.741c0.282-0.168,0.51-0.388,0.685-0.657c0.174-0.27,0.297-0.585,0.369-0.945c0.071-0.358,0.107-0.726,0.107-1.098
	s-0.039-0.738-0.117-1.098c-0.078-0.36-0.207-0.683-0.387-0.963c-0.18-0.282-0.411-0.511-0.693-0.686
	c-0.281-0.174-0.627-0.261-1.034-0.261c-0.421,0-0.771,0.087-1.054,0.261c-0.281,0.175-0.51,0.399-0.684,0.675
	c-0.174,0.276-0.297,0.595-0.369,0.954c-0.072,0.36-0.107,0.732-0.107,1.116c0,0.372,0.038,0.738,0.116,1.098
	c0.078,0.36,0.204,0.677,0.378,0.945s0.405,0.489,0.693,0.657c0.288,0.168,0.636,0.252,1.044,0.252
	C251.409,439.993,251.76,439.909,252.042,439.741z M257.343,434.998c0.228-0.605,0.552-1.122,0.972-1.548s0.924-0.757,1.512-0.99
	c0.588-0.233,1.248-0.351,1.98-0.351c0.731,0,1.395,0.116,1.988,0.351c0.595,0.233,1.102,0.564,1.521,0.99s0.744,0.941,0.972,1.548
	c0.229,0.605,0.343,1.281,0.343,2.025c0,0.743-0.114,1.416-0.343,2.016c-0.228,0.6-0.552,1.113-0.972,1.539
	s-0.927,0.753-1.521,0.979c-0.594,0.229-1.257,0.344-1.988,0.344c-0.732,0-1.393-0.114-1.98-0.344
	c-0.588-0.228-1.092-0.555-1.512-0.979s-0.744-0.939-0.972-1.539c-0.229-0.6-0.343-1.271-0.343-2.016
	C257,436.278,257.114,435.604,257.343,434.998z M259.664,438.111c0.072,0.354,0.195,0.673,0.369,0.955
	c0.174,0.28,0.405,0.507,0.693,0.675s0.647,0.252,1.08,0.252c0.432,0,0.795-0.084,1.089-0.252s0.527-0.395,0.702-0.675
	c0.174-0.282,0.297-0.601,0.369-0.955c0.071-0.354,0.107-0.718,0.107-1.088c0-0.372-0.036-0.738-0.107-1.1
	c-0.072-0.359-0.195-0.678-0.369-0.954c-0.175-0.274-0.408-0.5-0.702-0.675c-0.294-0.174-0.657-0.261-1.089-0.261
	c-0.433,0-0.792,0.087-1.08,0.261c-0.288,0.175-0.52,0.399-0.693,0.675c-0.174,0.276-0.297,0.595-0.369,0.954
	c-0.071,0.36-0.107,0.728-0.107,1.1C259.557,437.395,259.593,437.758,259.664,438.111z M273.398,432.361v1.709h-1.872v4.608
	c0,0.433,0.072,0.72,0.216,0.863c0.145,0.146,0.433,0.216,0.864,0.216l0.414-0.018l0.378-0.054v1.979
	c-0.216,0.036-0.456,0.06-0.72,0.072c-0.265,0.012-0.522,0.018-0.774,0.018c-0.396,0-0.771-0.025-1.125-0.081
	c-0.354-0.054-0.666-0.158-0.936-0.313c-0.271-0.156-0.483-0.379-0.64-0.666c-0.155-0.288-0.233-0.666-0.233-1.136v-5.489h-1.548
	v-1.709h1.548v-2.791h2.556v2.791L273.398,432.361L273.398,432.361z M276.773,439.354c0.114,0.197,0.261,0.359,0.441,0.485
	c0.18,0.126,0.387,0.219,0.62,0.279c0.234,0.061,0.478,0.09,0.729,0.09c0.18,0,0.369-0.021,0.567-0.062
	c0.197-0.044,0.378-0.108,0.54-0.199c0.161-0.09,0.297-0.209,0.404-0.359c0.108-0.149,0.162-0.339,0.162-0.565
	c0-0.386-0.255-0.673-0.765-0.864c-0.511-0.192-1.222-0.384-2.133-0.576c-0.372-0.084-0.735-0.183-1.09-0.297
	c-0.354-0.114-0.669-0.266-0.944-0.45c-0.276-0.186-0.498-0.42-0.666-0.702s-0.252-0.627-0.252-1.034
	c0-0.601,0.117-1.092,0.351-1.477c0.234-0.384,0.543-0.688,0.927-0.909c0.385-0.222,0.816-0.378,1.296-0.468
	s0.973-0.135,1.477-0.135s0.993,0.048,1.467,0.144c0.474,0.097,0.897,0.259,1.27,0.485c0.371,0.229,0.681,0.531,0.927,0.91
	c0.246,0.377,0.393,0.854,0.44,1.431h-2.43c-0.036-0.492-0.222-0.825-0.558-0.999c-0.336-0.174-0.732-0.262-1.188-0.262
	l-0.468,0.026c0,0-0.321,0.059-0.459,0.117c-0.138,0.062-0.255,0.146-0.351,0.262c-0.097,0.113-0.145,0.268-0.145,0.459
	c0,0.229,0.084,0.414,0.252,0.559c0.168,0.144,0.387,0.261,0.657,0.351s0.579,0.172,0.927,0.243c0.348,0.072,0.702,0.15,1.062,0.233
	c0.371,0.085,0.734,0.188,1.089,0.307c0.354,0.12,0.669,0.279,0.944,0.478c0.276,0.197,0.498,0.443,0.666,0.737
	c0.168,0.295,0.252,0.657,0.252,1.09c0,0.611-0.123,1.125-0.368,1.538c-0.246,0.414-0.567,0.747-0.964,0.999
	c-0.396,0.252-0.849,0.431-1.358,0.531c-0.511,0.102-1.029,0.153-1.557,0.153c-0.54,0-1.068-0.056-1.585-0.162
	c-0.516-0.108-0.975-0.288-1.377-0.54c-0.401-0.252-0.731-0.586-0.989-0.999c-0.259-0.414-0.399-0.933-0.423-1.558h2.43
	C276.603,438.919,276.659,439.156,276.773,439.354L276.773,439.354z M289.185,435.223c0.036-0.6,0.186-1.098,0.45-1.493
	c0.264-0.396,0.6-0.714,1.008-0.953c0.407-0.24,0.866-0.411,1.377-0.515c0.51-0.102,1.022-0.151,1.539-0.151
	c0.468,0,0.941,0.032,1.422,0.099c0.479,0.065,0.918,0.195,1.313,0.388c0.396,0.191,0.721,0.459,0.973,0.802
	c0.252,0.342,0.378,0.795,0.378,1.357v4.843c0,0.42,0.023,0.821,0.072,1.205c0.047,0.386,0.132,0.672,0.252,0.864h-2.593
	c-0.048-0.144-0.087-0.291-0.116-0.44c-0.03-0.149-0.052-0.304-0.062-0.459c-0.408,0.421-0.888,0.714-1.44,0.882
	c-0.552,0.169-1.115,0.253-1.691,0.253c-0.444,0-0.858-0.056-1.242-0.162c-0.384-0.108-0.72-0.276-1.008-0.505
	c-0.288-0.228-0.513-0.517-0.675-0.863s-0.243-0.762-0.243-1.242c0-0.527,0.093-0.963,0.279-1.305
	c0.186-0.342,0.426-0.615,0.72-0.819s0.63-0.355,1.008-0.459c0.378-0.102,0.759-0.183,1.143-0.243
	c0.385-0.06,0.763-0.106,1.135-0.144c0.371-0.036,0.701-0.091,0.989-0.162c0.288-0.072,0.517-0.177,0.685-0.315
	c0.168-0.138,0.246-0.338,0.233-0.603c0-0.276-0.045-0.495-0.135-0.657s-0.21-0.288-0.359-0.378c-0.15-0.09-0.324-0.149-0.522-0.181
	c-0.198-0.029-0.411-0.045-0.639-0.045c-0.504,0-0.9,0.107-1.188,0.323c-0.288,0.218-0.456,0.576-0.504,1.08L289.185,435.223
	L289.185,435.223z M295.088,437.113c-0.107,0.096-0.242,0.171-0.404,0.225c-0.162,0.055-0.336,0.101-0.522,0.135
	c-0.186,0.036-0.381,0.066-0.585,0.091l-0.612,0.09c-0.191,0.037-0.381,0.085-0.566,0.145c-0.187,0.062-0.349,0.142-0.486,0.243
	c-0.137,0.102-0.249,0.231-0.333,0.387c-0.084,0.156-0.126,0.354-0.126,0.596c0,0.228,0.042,0.42,0.126,0.575
	s0.198,0.278,0.342,0.368c0.145,0.091,0.312,0.153,0.504,0.188c0.192,0.037,0.391,0.055,0.595,0.055c0.504,0,0.894-0.084,1.17-0.252
	c0.275-0.168,0.479-0.369,0.612-0.604c0.132-0.232,0.213-0.471,0.242-0.711c0.03-0.238,0.045-0.432,0.045-0.575v-0.954H295.088z
	 M302.055,432.361v1.728h0.036c0.119-0.288,0.281-0.555,0.485-0.801c0.204-0.246,0.438-0.456,0.702-0.63
	c0.264-0.174,0.546-0.31,0.846-0.405s0.612-0.144,0.937-0.144c0.168,0,0.354,0.028,0.558,0.09v2.376l-0.432-0.063l-0.486-0.026
	c-0.468,0-0.864,0.078-1.188,0.233c-0.324,0.156-0.585,0.369-0.783,0.64c-0.198,0.271-0.339,0.586-0.423,0.944
	c-0.084,0.36-0.126,0.75-0.126,1.17v4.194h-2.557v-9.306H302.055L302.055,432.361z M309.038,439.436
	c0.384,0.371,0.936,0.559,1.656,0.559c0.516,0,0.96-0.129,1.332-0.388c0.371-0.259,0.6-0.53,0.684-0.818h2.25
	c-0.36,1.115-0.912,1.914-1.656,2.395c-0.744,0.479-1.644,0.721-2.699,0.721c-0.732,0-1.393-0.117-1.98-0.353
	c-0.588-0.232-1.086-0.566-1.494-0.999c-0.408-0.432-0.723-0.946-0.944-1.548c-0.223-0.6-0.333-1.26-0.333-1.979
	c0-0.696,0.113-1.345,0.342-1.944c0.228-0.601,0.552-1.119,0.972-1.558s0.921-0.783,1.503-1.035s1.227-0.377,1.936-0.377
	c0.792,0,1.481,0.151,2.069,0.459c0.588,0.306,1.071,0.717,1.449,1.231c0.378,0.516,0.65,1.104,0.819,1.765
	c0.168,0.659,0.228,1.351,0.18,2.069h-6.714C308.444,438.463,308.654,439.062,309.038,439.436L309.038,439.436z M311.927,434.539
	c-0.306-0.336-0.771-0.504-1.395-0.504c-0.408,0-0.747,0.068-1.018,0.207c-0.27,0.138-0.485,0.309-0.647,0.513
	s-0.276,0.421-0.342,0.647c-0.066,0.229-0.105,0.433-0.117,0.612h4.158C312.446,435.367,312.233,434.875,311.927,434.539
	L311.927,434.539z M323.789,439.354c0.114,0.197,0.261,0.359,0.441,0.485s0.387,0.219,0.62,0.279c0.234,0.061,0.478,0.09,0.729,0.09
	c0.18,0,0.369-0.021,0.567-0.062c0.197-0.044,0.378-0.108,0.54-0.199c0.161-0.09,0.297-0.209,0.404-0.359
	c0.108-0.149,0.162-0.339,0.162-0.565c0-0.386-0.255-0.673-0.765-0.864c-0.511-0.192-1.222-0.384-2.133-0.576
	c-0.372-0.084-0.735-0.183-1.09-0.297c-0.354-0.114-0.669-0.266-0.944-0.45c-0.276-0.186-0.498-0.42-0.666-0.702
	c-0.168-0.282-0.252-0.627-0.252-1.034c0-0.601,0.117-1.092,0.351-1.477c0.234-0.384,0.543-0.688,0.927-0.909
	c0.385-0.222,0.816-0.378,1.296-0.468s0.973-0.135,1.477-0.135s0.993,0.048,1.467,0.144c0.474,0.097,0.897,0.259,1.27,0.485
	c0.371,0.229,0.681,0.531,0.927,0.91c0.246,0.377,0.393,0.854,0.44,1.431h-2.43c-0.036-0.492-0.222-0.825-0.558-0.999
	c-0.336-0.174-0.732-0.262-1.188-0.262l-0.468,0.026c0,0-0.321,0.059-0.459,0.117c-0.138,0.062-0.255,0.146-0.351,0.262
	c-0.097,0.113-0.145,0.268-0.145,0.459c0,0.229,0.084,0.414,0.252,0.559c0.168,0.144,0.387,0.261,0.657,0.351
	s0.579,0.172,0.927,0.243c0.348,0.072,0.702,0.15,1.062,0.233c0.371,0.085,0.734,0.188,1.089,0.307
	c0.354,0.12,0.669,0.279,0.944,0.478c0.276,0.197,0.498,0.443,0.666,0.737c0.168,0.295,0.252,0.657,0.252,1.09
	c0,0.611-0.123,1.125-0.368,1.538c-0.246,0.414-0.567,0.747-0.964,0.999c-0.396,0.252-0.849,0.431-1.358,0.531
	c-0.511,0.102-1.029,0.153-1.557,0.153c-0.54,0-1.068-0.056-1.585-0.162c-0.516-0.108-0.975-0.288-1.377-0.54
	c-0.401-0.252-0.731-0.586-0.989-0.999c-0.259-0.414-0.399-0.933-0.423-1.558h2.43C323.618,438.919,323.675,439.156,323.789,439.354
	L323.789,439.354z M334.04,439.436c0.384,0.371,0.936,0.559,1.656,0.559c0.516,0,0.96-0.129,1.332-0.388
	c0.371-0.259,0.6-0.53,0.684-0.818h2.25c-0.36,1.115-0.912,1.914-1.656,2.395c-0.744,0.479-1.644,0.721-2.699,0.721
	c-0.732,0-1.393-0.117-1.98-0.353c-0.588-0.232-1.086-0.566-1.494-0.999c-0.408-0.432-0.723-0.946-0.944-1.548
	c-0.223-0.6-0.333-1.26-0.333-1.979c0-0.696,0.113-1.345,0.342-1.944c0.228-0.601,0.552-1.119,0.972-1.558s0.921-0.783,1.503-1.035
	s1.227-0.377,1.936-0.377c0.792,0,1.481,0.151,2.069,0.459c0.588,0.306,1.071,0.717,1.449,1.231c0.378,0.516,0.65,1.104,0.819,1.765
	c0.168,0.659,0.228,1.351,0.18,2.069h-6.714C333.446,438.463,333.656,439.062,334.04,439.436L334.04,439.436z M336.929,434.539
	c-0.306-0.336-0.771-0.504-1.395-0.504c-0.408,0-0.747,0.068-1.018,0.207c-0.27,0.138-0.485,0.309-0.647,0.513
	s-0.276,0.421-0.342,0.647c-0.066,0.229-0.105,0.433-0.117,0.612h4.158C337.448,435.367,337.235,434.875,336.929,434.539
	L336.929,434.539z M346.081,434.035c-0.408,0-0.75,0.093-1.026,0.279c-0.275,0.186-0.501,0.426-0.675,0.72
	c-0.174,0.294-0.297,0.618-0.369,0.972c-0.071,0.354-0.107,0.705-0.107,1.053c0,0.336,0.036,0.68,0.107,1.026
	c0.072,0.349,0.189,0.663,0.352,0.944c0.162,0.283,0.381,0.514,0.657,0.692c0.275,0.181,0.611,0.271,1.008,0.271
	c0.611,0,1.083-0.171,1.413-0.513c0.329-0.343,0.536-0.802,0.621-1.378h2.466c-0.168,1.235-0.648,2.179-1.44,2.826
	s-1.806,0.973-3.042,0.973c-0.696,0-1.335-0.117-1.917-0.353c-0.582-0.232-1.077-0.561-1.484-0.98
	c-0.408-0.42-0.727-0.92-0.954-1.502c-0.229-0.582-0.343-1.222-0.343-1.918c0-0.72,0.105-1.39,0.315-2.007
	c0.21-0.618,0.519-1.151,0.927-1.603c0.408-0.451,0.906-0.802,1.494-1.054s1.26-0.377,2.016-0.377c0.553,0,1.083,0.071,1.594,0.216
	c0.51,0.144,0.966,0.361,1.368,0.657c0.401,0.294,0.729,0.659,0.98,1.098c0.251,0.438,0.396,0.957,0.432,1.557h-2.502
	C347.803,434.568,347.173,434.035,346.081,434.035L346.081,434.035z M358.268,441.667v-1.296h-0.055
	c-0.324,0.54-0.744,0.93-1.26,1.17s-1.044,0.36-1.584,0.36c-0.684,0-1.245-0.092-1.683-0.271s-0.783-0.435-1.035-0.765
	s-0.43-0.731-0.531-1.206c-0.103-0.476-0.153-0.999-0.153-1.575v-5.724h2.557v5.256c0,0.768,0.119,1.341,0.359,1.719
	c0.24,0.378,0.666,0.566,1.278,0.566c0.695,0,1.2-0.207,1.512-0.62c0.312-0.414,0.469-1.096,0.469-2.044v-4.877h2.556v9.306
	L358.268,441.667L358.268,441.667z M365.071,432.361v1.728h0.036c0.119-0.288,0.281-0.555,0.485-0.801
	c0.204-0.246,0.438-0.456,0.702-0.63c0.264-0.174,0.546-0.31,0.846-0.405c0.3-0.096,0.612-0.144,0.937-0.144
	c0.168,0,0.354,0.028,0.558,0.09v2.376l-0.432-0.063l-0.486-0.026c-0.468,0-0.864,0.078-1.188,0.233
	c-0.324,0.156-0.585,0.369-0.783,0.64c-0.198,0.271-0.339,0.586-0.423,0.944c-0.084,0.36-0.126,0.75-0.126,1.17v4.194h-2.557v-9.306
	H365.071L365.071,432.361z M372.055,439.436c0.384,0.371,0.936,0.559,1.656,0.559c0.516,0,0.96-0.129,1.332-0.388
	c0.371-0.259,0.6-0.53,0.684-0.818h2.25c-0.359,1.115-0.912,1.914-1.655,2.395c-0.744,0.479-1.644,0.721-2.699,0.721
	c-0.732,0-1.393-0.117-1.98-0.353c-0.588-0.232-1.086-0.566-1.494-0.999c-0.408-0.432-0.723-0.946-0.944-1.548
	c-0.223-0.6-0.333-1.26-0.333-1.979c0-0.696,0.113-1.345,0.342-1.944c0.228-0.601,0.552-1.119,0.972-1.558s0.921-0.783,1.503-1.035
	s1.227-0.377,1.936-0.377c0.792,0,1.481,0.151,2.069,0.459c0.588,0.306,1.07,0.717,1.449,1.231c0.377,0.516,0.649,1.104,0.818,1.765
	c0.168,0.659,0.229,1.351,0.18,2.069h-6.713C371.461,438.463,371.671,439.062,372.055,439.436L372.055,439.436z M374.943,434.539
	c-0.306-0.336-0.771-0.504-1.395-0.504c-0.408,0-0.747,0.068-1.018,0.207c-0.27,0.138-0.485,0.309-0.647,0.513
	c-0.162,0.204-0.276,0.421-0.342,0.647c-0.066,0.229-0.105,0.433-0.117,0.612h4.158C375.463,435.367,375.25,434.875,374.943,434.539
	L374.943,434.539z M382.604,438.895v2.772c0,0.408-0.075,0.783-0.226,1.125c-0.149,0.342-0.353,0.639-0.604,0.891
	s-0.549,0.459-0.891,0.621s-0.705,0.273-1.089,0.333v-1.296c0.181-0.036,0.351-0.106,0.513-0.216s0.304-0.237,0.424-0.387
	c0.119-0.15,0.209-0.318,0.271-0.504c0.06-0.188,0.084-0.376,0.071-0.567h-1.296v-2.771L382.604,438.895L382.604,438.895z
	 M393.098,444.439c-0.492,0.322-1.178,0.484-2.053,0.484c-0.265,0-0.525-0.009-0.783-0.025l-0.783-0.063v-2.105l0.738,0.071
	c0,0,0.504,0.03,0.756,0.02c0.336-0.036,0.586-0.169,0.748-0.396c0.162-0.227,0.242-0.479,0.242-0.756
	c0-0.204-0.035-0.396-0.107-0.576l-3.258-8.729h2.717l2.106,6.371h0.035l2.034-6.371h2.646l-3.889,10.458
	C393.973,443.575,393.589,444.115,393.098,444.439L393.098,444.439z M401.736,439.436c0.384,0.371,0.936,0.559,1.656,0.559
	c0.516,0,0.96-0.129,1.331-0.388s0.601-0.53,0.685-0.818h2.25c-0.36,1.115-0.912,1.914-1.656,2.395
	c-0.744,0.479-1.644,0.721-2.699,0.721c-0.731,0-1.393-0.117-1.979-0.353c-0.588-0.232-1.086-0.566-1.494-0.999
	c-0.408-0.432-0.723-0.946-0.944-1.548c-0.223-0.6-0.333-1.26-0.333-1.979c0-0.696,0.113-1.345,0.343-1.944
	c0.228-0.601,0.552-1.119,0.972-1.558s0.921-0.783,1.503-1.035s1.227-0.377,1.936-0.377c0.792,0,1.481,0.151,2.069,0.459
	c0.588,0.306,1.071,0.717,1.449,1.231c0.378,0.516,0.649,1.104,0.818,1.765c0.169,0.659,0.229,1.351,0.181,2.069h-6.714
	C401.143,438.463,401.354,439.062,401.736,439.436L401.736,439.436z M404.625,434.539c-0.306-0.336-0.771-0.504-1.395-0.504
	c-0.408,0-0.747,0.068-1.019,0.207c-0.27,0.138-0.484,0.309-0.646,0.513s-0.276,0.421-0.343,0.647
	c-0.065,0.229-0.104,0.433-0.116,0.612h4.157C405.146,435.367,404.932,434.875,404.625,434.539L404.625,434.539z M414.444,432.361
	v1.709h-1.872v4.608c0,0.433,0.072,0.72,0.216,0.863c0.145,0.146,0.433,0.216,0.864,0.216l0.414-0.018l0.378-0.054v1.979
	c-0.216,0.036-0.456,0.06-0.721,0.072c-0.265,0.012-0.521,0.018-0.773,0.018c-0.396,0-0.771-0.025-1.125-0.081
	c-0.354-0.054-0.666-0.158-0.937-0.313c-0.271-0.156-0.482-0.379-0.64-0.666c-0.155-0.288-0.233-0.666-0.233-1.136v-5.489h-1.548
	v-1.709h1.548v-2.791h2.557v2.791L414.444,432.361L414.444,432.361z M428.684,441.667l-1.656-6.246h-0.036l-1.584,6.246h-2.646
	l-2.95-9.306h2.698l1.71,6.317h0.036l1.548-6.317h2.484l1.584,6.3h0.036l1.71-6.3h2.628l-2.934,9.306H428.684L428.684,441.667z
	 M438.062,439.436c0.384,0.371,0.936,0.559,1.655,0.559c0.517,0,0.96-0.129,1.332-0.388c0.371-0.259,0.601-0.53,0.685-0.818h2.25
	c-0.36,1.115-0.912,1.914-1.656,2.395c-0.744,0.479-1.645,0.721-2.699,0.721c-0.731,0-1.393-0.117-1.979-0.353
	c-0.588-0.232-1.086-0.566-1.494-0.999c-0.408-0.432-0.724-0.946-0.944-1.548c-0.223-0.6-0.333-1.26-0.333-1.979
	c0-0.696,0.113-1.345,0.342-1.944c0.229-0.601,0.553-1.119,0.973-1.558s0.921-0.783,1.503-1.035s1.227-0.377,1.936-0.377
	c0.792,0,1.481,0.151,2.069,0.459c0.588,0.306,1.071,0.717,1.449,1.231c0.378,0.516,0.649,1.104,0.818,1.765
	c0.168,0.659,0.229,1.351,0.181,2.069h-6.715C437.467,438.463,437.677,439.062,438.062,439.436L438.062,439.436z M440.949,434.539
	c-0.306-0.336-0.771-0.504-1.396-0.504c-0.407,0-0.747,0.068-1.018,0.207c-0.271,0.138-0.485,0.309-0.647,0.513
	c-0.161,0.204-0.275,0.421-0.342,0.647c-0.065,0.229-0.104,0.433-0.117,0.612h4.158
	C441.469,435.367,441.256,434.875,440.949,434.539L440.949,434.539z M450.553,435.223c0.036-0.6,0.187-1.098,0.45-1.493
	c0.265-0.396,0.601-0.714,1.008-0.953c0.407-0.24,0.866-0.411,1.377-0.515c0.511-0.102,1.022-0.151,1.539-0.151
	c0.469,0,0.941,0.032,1.423,0.099c0.479,0.065,0.918,0.195,1.312,0.388c0.396,0.191,0.721,0.459,0.973,0.802
	c0.252,0.342,0.378,0.795,0.378,1.357v4.843c0,0.42,0.023,0.821,0.072,1.205c0.047,0.386,0.132,0.672,0.252,0.864h-2.593
	c-0.048-0.144-0.087-0.291-0.116-0.44c-0.03-0.149-0.052-0.304-0.062-0.459c-0.408,0.421-0.889,0.714-1.44,0.882
	c-0.552,0.169-1.115,0.253-1.69,0.253c-0.444,0-0.858-0.056-1.242-0.162c-0.384-0.108-0.721-0.276-1.008-0.505
	c-0.288-0.228-0.514-0.517-0.676-0.863s-0.243-0.762-0.243-1.242c0-0.527,0.094-0.963,0.279-1.305
	c0.187-0.342,0.426-0.615,0.72-0.819c0.295-0.204,0.631-0.355,1.009-0.459c0.378-0.102,0.759-0.183,1.143-0.243
	c0.385-0.06,0.763-0.106,1.135-0.144c0.371-0.036,0.701-0.091,0.989-0.162c0.288-0.072,0.517-0.177,0.686-0.315
	c0.168-0.138,0.245-0.338,0.232-0.603c0-0.276-0.045-0.495-0.135-0.657s-0.21-0.288-0.359-0.378s-0.324-0.149-0.521-0.181
	c-0.198-0.029-0.411-0.045-0.64-0.045c-0.504,0-0.899,0.107-1.188,0.323c-0.288,0.218-0.456,0.576-0.504,1.08L450.553,435.223
	L450.553,435.223z M456.456,437.113c-0.106,0.096-0.242,0.171-0.404,0.225c-0.161,0.055-0.336,0.101-0.521,0.135
	c-0.187,0.036-0.381,0.066-0.585,0.091l-0.612,0.09c-0.19,0.037-0.381,0.085-0.565,0.145c-0.188,0.062-0.35,0.142-0.486,0.243
	s-0.249,0.231-0.333,0.387c-0.084,0.156-0.126,0.354-0.126,0.596c0,0.228,0.042,0.42,0.126,0.575s0.198,0.278,0.342,0.368
	c0.146,0.091,0.312,0.153,0.504,0.188c0.192,0.037,0.392,0.055,0.595,0.055c0.505,0,0.895-0.084,1.171-0.252
	c0.274-0.168,0.479-0.369,0.611-0.604c0.132-0.232,0.213-0.471,0.242-0.711c0.03-0.238,0.045-0.432,0.045-0.575v-0.954H456.456z
	 M463.619,428.814v12.853h-2.556v-12.853H463.619z M468.264,428.814v12.853h-2.556v-12.853H468.264z M477.714,432.361v1.728h0.036
	c0.119-0.288,0.281-0.555,0.485-0.801s0.438-0.456,0.702-0.63c0.264-0.174,0.546-0.31,0.846-0.405s0.612-0.144,0.937-0.144
	c0.168,0,0.354,0.028,0.559,0.09v2.376l-0.433-0.063l-0.485-0.026c-0.468,0-0.864,0.078-1.188,0.233
	c-0.324,0.156-0.585,0.369-0.783,0.64c-0.197,0.271-0.339,0.586-0.423,0.944c-0.084,0.36-0.126,0.75-0.126,1.17v4.194h-2.557v-9.306
	H477.714L477.714,432.361z M484.698,439.436c0.384,0.371,0.936,0.559,1.656,0.559c0.516,0,0.96-0.129,1.332-0.388
	c0.37-0.259,0.6-0.53,0.684-0.818h2.25c-0.36,1.115-0.912,1.914-1.656,2.395c-0.744,0.479-1.644,0.721-2.699,0.721
	c-0.731,0-1.393-0.117-1.979-0.353c-0.588-0.232-1.086-0.566-1.494-0.999c-0.408-0.432-0.723-0.946-0.944-1.548
	c-0.223-0.6-0.333-1.26-0.333-1.979c0-0.696,0.113-1.345,0.343-1.944c0.228-0.601,0.552-1.119,0.972-1.558s0.921-0.783,1.503-1.035
	s1.227-0.377,1.937-0.377c0.791,0,1.48,0.151,2.068,0.459c0.588,0.306,1.071,0.717,1.449,1.231c0.378,0.516,0.65,1.104,0.819,1.765
	c0.168,0.659,0.228,1.351,0.18,2.069h-6.714C484.104,438.463,484.314,439.062,484.698,439.436L484.698,439.436z M487.587,434.539
	c-0.306-0.336-0.771-0.504-1.395-0.504c-0.408,0-0.747,0.068-1.019,0.207c-0.27,0.138-0.484,0.309-0.646,0.513
	s-0.276,0.421-0.342,0.647c-0.066,0.229-0.105,0.433-0.117,0.612h4.158C488.106,435.367,487.895,434.875,487.587,434.539
	L487.587,434.539z M501.086,442.351c-0.102,0.48-0.321,0.929-0.656,1.343c-0.337,0.414-0.821,0.765-1.458,1.053
	s-1.487,0.432-2.557,0.432c-0.456,0-0.921-0.057-1.395-0.171c-0.476-0.114-0.906-0.291-1.296-0.53
	c-0.392-0.24-0.716-0.55-0.974-0.928s-0.404-0.831-0.439-1.357h2.538c0.118,0.479,0.354,0.812,0.701,0.999
	c0.349,0.186,0.749,0.277,1.205,0.277c0.722,0,1.245-0.216,1.575-0.646c0.33-0.434,0.489-0.979,0.479-1.639v-1.225h-0.036
	c-0.276,0.492-0.669,0.855-1.18,1.089s-1.048,0.352-1.61,0.352c-0.696,0-1.296-0.123-1.8-0.369
	c-0.505-0.245-0.918-0.581-1.242-1.008s-0.562-0.925-0.711-1.494c-0.15-0.569-0.227-1.172-0.227-1.81c0-0.6,0.087-1.179,0.262-1.735
	c0.175-0.56,0.43-1.052,0.766-1.478s0.753-0.766,1.251-1.018s1.071-0.377,1.719-0.377c0.612,0,1.149,0.112,1.611,0.342
	c0.462,0.229,0.849,0.611,1.161,1.152h0.036v-1.242h2.43v8.711C501.239,441.445,501.188,441.871,501.086,442.351L501.086,442.351z
	 M497.585,439.255c0.276-0.144,0.504-0.336,0.686-0.575c0.18-0.239,0.313-0.514,0.403-0.819c0.091-0.306,0.137-0.627,0.137-0.963
	c0-0.384-0.036-0.746-0.108-1.089s-0.192-0.646-0.36-0.909c-0.168-0.265-0.39-0.474-0.666-0.63
	c-0.274-0.155-0.624-0.233-1.044-0.233c-0.358,0-0.669,0.072-0.927,0.216c-0.258,0.145-0.474,0.339-0.646,0.585
	c-0.176,0.246-0.302,0.528-0.379,0.846c-0.077,0.318-0.116,0.651-0.116,1c0,0.336,0.031,0.668,0.099,0.998s0.18,0.627,0.342,0.892
	s0.375,0.479,0.641,0.647c0.264,0.168,0.594,0.252,0.988,0.252C496.991,439.471,497.311,439.398,497.585,439.255L497.585,439.255z
	 M509.592,441.667v-1.296h-0.055c-0.324,0.54-0.744,0.93-1.26,1.17c-0.517,0.24-1.044,0.36-1.584,0.36
	c-0.685,0-1.245-0.092-1.684-0.271c-0.438-0.18-0.782-0.435-1.035-0.765c-0.252-0.33-0.43-0.731-0.53-1.206
	c-0.104-0.476-0.153-0.999-0.153-1.575v-5.724h2.557v5.256c0,0.768,0.119,1.341,0.359,1.719s0.666,0.566,1.278,0.566
	c0.694,0,1.2-0.207,1.512-0.62c0.312-0.414,0.469-1.096,0.469-2.044v-4.877h2.557v9.306L509.592,441.667L509.592,441.667z
	 M516.593,428.814v12.853h-2.556v-12.853H516.593z M518.502,435.223c0.036-0.6,0.187-1.098,0.45-1.493
	c0.264-0.396,0.6-0.714,1.008-0.953c0.407-0.24,0.866-0.411,1.377-0.515c0.51-0.102,1.022-0.151,1.539-0.151
	c0.468,0,0.941,0.032,1.422,0.099c0.479,0.065,0.918,0.195,1.313,0.388c0.396,0.191,0.721,0.459,0.973,0.802
	c0.252,0.342,0.378,0.795,0.378,1.357v4.843c0,0.42,0.023,0.821,0.072,1.205c0.047,0.386,0.132,0.672,0.252,0.864h-2.593
	c-0.048-0.144-0.087-0.291-0.116-0.44c-0.03-0.149-0.052-0.304-0.063-0.459c-0.407,0.421-0.888,0.714-1.439,0.882
	c-0.552,0.169-1.115,0.253-1.691,0.253c-0.443,0-0.857-0.056-1.242-0.162c-0.384-0.108-0.72-0.276-1.008-0.505
	c-0.288-0.228-0.513-0.517-0.675-0.863s-0.243-0.762-0.243-1.242c0-0.527,0.094-0.963,0.279-1.305s0.426-0.615,0.72-0.819
	s0.63-0.355,1.008-0.459c0.378-0.102,0.76-0.183,1.144-0.243c0.385-0.06,0.763-0.106,1.135-0.144
	c0.371-0.036,0.701-0.091,0.989-0.162c0.288-0.072,0.517-0.177,0.685-0.315c0.168-0.138,0.246-0.338,0.233-0.603
	c0-0.276-0.045-0.495-0.135-0.657c-0.091-0.162-0.21-0.288-0.359-0.378c-0.15-0.09-0.324-0.149-0.522-0.181
	c-0.197-0.029-0.41-0.045-0.639-0.045c-0.504,0-0.899,0.107-1.188,0.323c-0.288,0.218-0.456,0.576-0.504,1.08L518.502,435.223
	L518.502,435.223z M524.405,437.113c-0.107,0.096-0.242,0.171-0.404,0.225c-0.162,0.055-0.336,0.101-0.521,0.135
	c-0.187,0.036-0.382,0.066-0.585,0.091l-0.612,0.09c-0.191,0.037-0.381,0.085-0.566,0.145c-0.187,0.062-0.349,0.142-0.485,0.243
	c-0.138,0.102-0.249,0.231-0.333,0.387c-0.084,0.156-0.126,0.354-0.126,0.596c0,0.228,0.042,0.42,0.126,0.575
	s0.197,0.278,0.342,0.368c0.145,0.091,0.312,0.153,0.504,0.188c0.192,0.037,0.391,0.055,0.595,0.055c0.504,0,0.895-0.084,1.17-0.252
	s0.479-0.369,0.612-0.604c0.132-0.232,0.213-0.471,0.242-0.711c0.03-0.238,0.045-0.432,0.045-0.575v-0.954H524.405z
	 M531.371,432.361v1.728h0.036c0.119-0.288,0.281-0.555,0.485-0.801c0.203-0.246,0.438-0.456,0.701-0.63
	c0.265-0.174,0.547-0.31,0.847-0.405s0.611-0.144,0.937-0.144c0.168,0,0.354,0.028,0.559,0.09v2.376l-0.433-0.063l-0.485-0.026
	c-0.469,0-0.864,0.078-1.188,0.233c-0.324,0.156-0.585,0.369-0.783,0.64s-0.339,0.586-0.423,0.944
	c-0.084,0.36-0.126,0.75-0.126,1.17v4.194h-2.557v-9.306H531.371L531.371,432.361z M538.57,428.814v12.853h-2.557v-12.853H538.57z
	 M544.025,444.439c-0.492,0.322-1.178,0.484-2.053,0.484c-0.265,0-0.524-0.009-0.782-0.025l-0.783-0.063v-2.105l0.737,0.071
	c0,0,0.505,0.03,0.757,0.02c0.336-0.036,0.585-0.169,0.747-0.396c0.161-0.227,0.242-0.479,0.242-0.756
	c0-0.204-0.035-0.396-0.107-0.576l-3.258-8.729h2.718l2.105,6.371h0.035l2.034-6.371h2.646l-3.89,10.458
	C544.901,443.575,544.518,444.115,544.025,444.439L544.025,444.439z M554.177,442.819c0.265,0,0.495-0.053,0.693-0.153
	c0.198-0.103,0.297-0.327,0.297-0.675v-9.63h2.556v9.756c0,0.479-0.051,0.894-0.151,1.242c-0.104,0.348-0.276,0.639-0.522,0.873
	c-0.246,0.232-0.579,0.406-0.999,0.521s-0.954,0.171-1.602,0.171c-0.301,0-0.57-0.023-0.812-0.072v-2.104
	C553.771,442.795,553.949,442.819,554.177,442.819L554.177,442.819z M555.167,430.921v-2.105h2.556v2.105H555.167z M559.991,434.998
	c0.228-0.605,0.552-1.122,0.972-1.548s0.924-0.757,1.512-0.99c0.589-0.233,1.248-0.351,1.98-0.351c0.73,0,1.395,0.116,1.988,0.351
	c0.595,0.233,1.102,0.564,1.521,0.99s0.744,0.941,0.972,1.548c0.229,0.605,0.344,1.281,0.344,2.025c0,0.743-0.114,1.416-0.344,2.016
	c-0.228,0.6-0.552,1.113-0.972,1.539s-0.927,0.753-1.521,0.979c-0.595,0.229-1.258,0.344-1.988,0.344
	c-0.732,0-1.393-0.114-1.98-0.344c-0.588-0.228-1.092-0.555-1.512-0.979s-0.744-0.939-0.972-1.539
	c-0.229-0.6-0.343-1.271-0.343-2.016C559.648,436.278,559.763,435.604,559.991,434.998z M562.312,438.111
	c0.071,0.354,0.194,0.673,0.368,0.955c0.175,0.28,0.405,0.507,0.693,0.675s0.647,0.252,1.08,0.252c0.432,0,0.795-0.084,1.089-0.252
	s0.527-0.395,0.702-0.675c0.174-0.282,0.297-0.601,0.369-0.955c0.071-0.354,0.106-0.718,0.106-1.088c0-0.372-0.035-0.738-0.106-1.1
	c-0.072-0.359-0.195-0.678-0.369-0.954c-0.175-0.274-0.408-0.5-0.702-0.675c-0.294-0.174-0.657-0.261-1.089-0.261
	c-0.433,0-0.792,0.087-1.08,0.261c-0.288,0.175-0.521,0.399-0.693,0.675c-0.174,0.276-0.297,0.595-0.368,0.954
	c-0.071,0.36-0.107,0.728-0.107,1.1C562.205,437.395,562.241,437.758,562.312,438.111z M571.007,430.921v-2.105h2.557v2.105H571.007
	z M573.562,432.361v9.306h-2.557v-9.306H573.562z M578.009,432.361v1.296h0.055c0.323-0.54,0.743-0.934,1.26-1.179
	c0.516-0.246,1.044-0.369,1.584-0.369c0.685,0,1.245,0.093,1.684,0.278c0.438,0.187,0.782,0.443,1.034,0.773s0.43,0.731,0.531,1.206
	c0.101,0.474,0.152,0.999,0.152,1.575v5.724h-2.556v-5.256c0-0.77-0.12-1.341-0.36-1.72c-0.239-0.377-0.666-0.566-1.277-0.566
	c-0.696,0-1.2,0.207-1.512,0.621c-0.312,0.414-0.469,1.096-0.469,2.043v4.878h-2.557v-9.306L578.009,432.361L578.009,432.361z
	 M590.284,434.07v-1.709h1.53v-0.722c0-0.827,0.258-1.506,0.772-2.032c0.517-0.528,1.296-0.793,2.34-0.793
	c0.229,0,0.456,0.01,0.686,0.026l0.666,0.045v1.908c-0.3-0.036-0.612-0.054-0.938-0.054c-0.348,0-0.597,0.081-0.747,0.243
	c-0.148,0.162-0.225,0.435-0.225,0.817v0.56h1.764v1.709h-1.764v7.597h-2.556v-7.597L590.284,434.07L590.284,434.07z
	 M599.681,432.361v1.728h0.036c0.119-0.288,0.281-0.555,0.485-0.801s0.438-0.456,0.702-0.63c0.264-0.174,0.546-0.31,0.846-0.405
	s0.612-0.144,0.938-0.144c0.168,0,0.354,0.028,0.558,0.09v2.376l-0.432-0.063l-0.486-0.026c-0.468,0-0.864,0.078-1.188,0.233
	c-0.323,0.156-0.585,0.369-0.782,0.64c-0.198,0.271-0.34,0.586-0.424,0.944c-0.084,0.36-0.126,0.75-0.126,1.17v4.194h-2.557v-9.306
	H599.681L599.681,432.361z M606.664,439.436c0.384,0.371,0.936,0.559,1.656,0.559c0.516,0,0.96-0.129,1.332-0.388
	c0.371-0.259,0.6-0.53,0.684-0.818h2.25c-0.36,1.115-0.912,1.914-1.656,2.395c-0.744,0.479-1.644,0.721-2.698,0.721
	c-0.732,0-1.394-0.117-1.98-0.353c-0.588-0.232-1.086-0.566-1.494-0.999c-0.408-0.432-0.723-0.946-0.943-1.548
	c-0.224-0.6-0.333-1.26-0.333-1.979c0-0.696,0.112-1.345,0.342-1.944c0.228-0.601,0.552-1.119,0.972-1.558s0.921-0.783,1.503-1.035
	s1.228-0.377,1.937-0.377c0.792,0,1.48,0.151,2.068,0.459c0.588,0.306,1.071,0.717,1.449,1.231c0.378,0.516,0.65,1.104,0.819,1.765
	c0.168,0.659,0.228,1.351,0.18,2.069h-6.714C606.07,438.463,606.28,439.062,606.664,439.436L606.664,439.436z M609.553,434.539
	c-0.306-0.336-0.771-0.504-1.395-0.504c-0.408,0-0.747,0.068-1.019,0.207c-0.27,0.138-0.484,0.309-0.646,0.513
	s-0.276,0.421-0.342,0.647c-0.066,0.229-0.105,0.433-0.117,0.612h4.158C610.072,435.367,609.859,434.875,609.553,434.539
	L609.553,434.539z M616.996,439.436c0.384,0.371,0.936,0.559,1.656,0.559c0.516,0,0.96-0.129,1.332-0.388
	c0.37-0.259,0.6-0.53,0.684-0.818h2.25c-0.36,1.115-0.912,1.914-1.656,2.395c-0.744,0.479-1.644,0.721-2.699,0.721
	c-0.731,0-1.393-0.117-1.979-0.353c-0.588-0.232-1.086-0.566-1.494-0.999c-0.408-0.432-0.723-0.946-0.944-1.548
	c-0.223-0.6-0.332-1.26-0.332-1.979c0-0.696,0.112-1.345,0.342-1.944c0.228-0.601,0.552-1.119,0.972-1.558s0.921-0.783,1.503-1.035
	s1.227-0.377,1.936-0.377c0.793,0,1.481,0.151,2.069,0.459c0.588,0.306,1.071,0.717,1.449,1.231
	c0.378,0.516,0.649,1.104,0.819,1.765c0.168,0.659,0.228,1.351,0.18,2.069h-6.714C616.402,438.463,616.612,439.062,616.996,439.436
	L616.996,439.436z M619.885,434.539c-0.306-0.336-0.771-0.504-1.395-0.504c-0.408,0-0.747,0.068-1.019,0.207
	c-0.27,0.138-0.484,0.309-0.646,0.513s-0.276,0.421-0.342,0.647c-0.066,0.229-0.105,0.433-0.117,0.612h4.158
	C620.404,435.367,620.191,434.875,619.885,434.539L619.885,434.539z M72.341,462.667l-2.178-8.748h-0.036l-2.142,8.748h-2.862
	l-3.402-12.852h2.826l2.034,8.748h0.036l2.231-8.748h2.646l2.196,8.854h0.035l2.106-8.854h2.772l-3.456,12.852H72.341z
	 M79.703,451.921v-2.104h2.556v2.104H79.703z M82.259,453.361v9.306h-2.556v-9.306H82.259z M93.581,449.815v2.376h-6.21v2.97h5.382
	v2.196h-5.382v5.31h-2.826v-12.852H93.581L93.581,449.815z M95.021,451.921v-2.104h2.556v2.104H95.021z M97.576,453.361v9.306H95.02
	v-9.306H97.576z M102.544,459.895v2.772c0,0.408-0.075,0.783-0.225,1.125s-0.352,0.639-0.604,0.891s-0.549,0.459-0.891,0.621
	c-0.342,0.162-0.705,0.273-1.089,0.333v-1.296c0.18-0.036,0.351-0.106,0.513-0.216s0.303-0.237,0.423-0.387
	c0.12-0.15,0.21-0.318,0.271-0.504c0.06-0.188,0.084-0.376,0.071-0.567h-1.296v-2.771L102.544,459.895L102.544,459.895z
	 M111.751,460.354c0.114,0.197,0.261,0.359,0.441,0.485s0.387,0.22,0.62,0.279c0.234,0.06,0.478,0.09,0.729,0.09
	c0.18,0,0.369-0.021,0.567-0.062c0.197-0.041,0.378-0.107,0.54-0.197c0.161-0.09,0.297-0.21,0.404-0.36
	c0.108-0.148,0.162-0.339,0.162-0.566c0-0.385-0.255-0.673-0.765-0.863c-0.511-0.192-1.222-0.384-2.133-0.576
	c-0.372-0.084-0.735-0.183-1.09-0.297c-0.354-0.114-0.669-0.264-0.944-0.45c-0.276-0.186-0.498-0.42-0.666-0.702
	c-0.168-0.28-0.252-0.627-0.252-1.035c0-0.6,0.117-1.092,0.351-1.476s0.543-0.688,0.927-0.909c0.385-0.222,0.816-0.378,1.296-0.468
	s0.973-0.135,1.477-0.135s0.993,0.048,1.467,0.144c0.474,0.097,0.897,0.258,1.27,0.486c0.371,0.228,0.681,0.53,0.927,0.909
	c0.246,0.378,0.393,0.854,0.44,1.431h-2.43c-0.036-0.492-0.222-0.825-0.558-0.999c-0.336-0.174-0.732-0.261-1.188-0.261
	l-0.468,0.025c-0.168,0.02-0.321,0.059-0.459,0.117c-0.138,0.062-0.255,0.147-0.351,0.261c-0.097,0.114-0.145,0.269-0.145,0.459
	c0,0.229,0.084,0.414,0.252,0.56c0.168,0.144,0.387,0.261,0.657,0.351s0.579,0.171,0.927,0.243l1.062,0.234
	c0.371,0.084,0.734,0.186,1.089,0.306c0.354,0.12,0.669,0.279,0.944,0.478c0.276,0.197,0.498,0.443,0.666,0.737
	s0.252,0.657,0.252,1.089c0,0.612-0.123,1.125-0.368,1.539c-0.246,0.414-0.567,0.747-0.964,0.999
	c-0.396,0.252-0.849,0.431-1.358,0.531c-0.511,0.103-1.029,0.153-1.557,0.153c-0.54,0-1.068-0.056-1.585-0.162
	c-0.516-0.108-0.975-0.288-1.377-0.54c-0.401-0.252-0.731-0.585-0.989-0.999c-0.259-0.414-0.399-0.934-0.423-1.558h2.43
	C111.58,459.919,111.637,460.156,111.751,460.354L111.751,460.354z M119.32,455.998c0.228-0.605,0.552-1.122,0.972-1.548
	s0.924-0.756,1.512-0.99c0.588-0.233,1.248-0.351,1.98-0.351c0.731,0,1.395,0.115,1.988,0.351c0.595,0.234,1.102,0.564,1.521,0.99
	s0.744,0.941,0.972,1.548c0.229,0.606,0.343,1.281,0.343,2.025c0,0.743-0.114,1.416-0.343,2.016
	c-0.228,0.601-0.552,1.113-0.972,1.539s-0.927,0.753-1.521,0.979c-0.594,0.229-1.257,0.344-1.988,0.344
	c-0.732,0-1.393-0.114-1.98-0.344c-0.588-0.228-1.092-0.555-1.512-0.979s-0.744-0.938-0.972-1.539
	c-0.229-0.6-0.343-1.271-0.343-2.016C118.977,457.278,119.092,456.604,119.32,455.998z M121.642,459.112
	c0.072,0.354,0.195,0.672,0.369,0.954c0.174,0.28,0.405,0.507,0.693,0.675s0.647,0.252,1.08,0.252c0.432,0,0.795-0.084,1.089-0.252
	s0.527-0.395,0.702-0.675c0.174-0.282,0.297-0.602,0.369-0.954c0.071-0.354,0.107-0.717,0.107-1.089s-0.036-0.738-0.107-1.1
	c-0.072-0.358-0.195-0.678-0.369-0.954c-0.175-0.274-0.408-0.501-0.702-0.675s-0.657-0.261-1.089-0.261
	c-0.433,0-0.792,0.087-1.08,0.261s-0.52,0.399-0.693,0.675c-0.174,0.276-0.297,0.596-0.369,0.954c-0.071,0.36-0.107,0.728-0.107,1.1
	S121.57,458.758,121.642,459.112z M132.748,453.361v1.26h0.036c0.336-0.479,0.74-0.852,1.215-1.116
	c0.474-0.264,1.017-0.396,1.629-0.396c0.588,0,1.125,0.113,1.611,0.342c0.485,0.228,0.854,0.63,1.106,1.206
	c0.276-0.408,0.651-0.769,1.125-1.08c0.475-0.312,1.035-0.468,1.684-0.468c0.491,0,0.947,0.06,1.368,0.18
	c0.42,0.12,0.779,0.312,1.079,0.576c0.3,0.264,0.534,0.608,0.702,1.035c0.168,0.426,0.252,0.938,0.252,1.539v6.228H142v-5.273
	c0-0.312-0.012-0.605-0.036-0.883c-0.024-0.274-0.09-0.516-0.198-0.72c-0.107-0.204-0.267-0.366-0.477-0.486
	c-0.21-0.118-0.495-0.18-0.855-0.18c-0.359,0-0.65,0.069-0.873,0.207c-0.222,0.138-0.396,0.318-0.521,0.54s-0.21,0.474-0.252,0.756
	s-0.063,0.567-0.063,0.855v5.184h-2.556v-5.22c0-0.276-0.006-0.549-0.018-0.819c-0.013-0.27-0.063-0.519-0.153-0.747
	c-0.09-0.228-0.24-0.411-0.45-0.549s-0.52-0.207-0.927-0.207c-0.12,0-0.279,0.027-0.478,0.081c-0.197,0.054-0.39,0.156-0.575,0.306
	c-0.187,0.15-0.346,0.366-0.478,0.648c-0.132,0.282-0.198,0.651-0.198,1.105v5.4h-2.556v-9.306L132.748,453.361L132.748,453.361z
	 M149.308,460.436c0.384,0.371,0.936,0.559,1.656,0.559c0.516,0,0.96-0.129,1.332-0.387c0.371-0.26,0.6-0.531,0.684-0.819h2.25
	c-0.36,1.116-0.912,1.914-1.656,2.394c-0.744,0.48-1.644,0.722-2.699,0.722c-0.732,0-1.393-0.117-1.98-0.353
	c-0.588-0.232-1.086-0.565-1.494-0.999c-0.408-0.432-0.723-0.946-0.944-1.548c-0.223-0.6-0.333-1.26-0.333-1.979
	c0-0.696,0.113-1.346,0.342-1.944c0.228-0.6,0.552-1.119,0.972-1.557c0.42-0.438,0.921-0.783,1.503-1.035s1.227-0.378,1.936-0.378
	c0.792,0,1.481,0.151,2.069,0.459c0.588,0.306,1.071,0.717,1.449,1.231c0.378,0.518,0.65,1.104,0.819,1.766
	c0.168,0.659,0.228,1.35,0.18,2.068h-6.714C148.714,459.463,148.924,460.063,149.308,460.436L149.308,460.436z M152.196,455.539
	c-0.306-0.336-0.771-0.504-1.395-0.504c-0.408,0-0.747,0.069-1.018,0.207c-0.27,0.138-0.485,0.309-0.647,0.513
	c-0.162,0.204-0.276,0.42-0.342,0.648c-0.066,0.228-0.105,0.432-0.117,0.61h4.158C152.716,456.367,152.503,455.875,152.196,455.539
	L152.196,455.539z M162.016,453.361v1.71h-1.872v4.606c0,0.434,0.072,0.722,0.216,0.864c0.145,0.145,0.433,0.216,0.864,0.216
	l0.414-0.018l0.378-0.055v1.979c-0.216,0.036-0.456,0.06-0.72,0.072c-0.265,0.012-0.522,0.018-0.774,0.018
	c-0.396,0-0.771-0.025-1.125-0.081c-0.354-0.054-0.666-0.159-0.936-0.313c-0.271-0.156-0.483-0.378-0.64-0.666
	c-0.155-0.288-0.233-0.666-0.233-1.136v-5.488h-1.548v-1.71h1.548v-2.79h2.556v2.79L162.016,453.361L162.016,453.361z
	 M163.312,451.921v-2.104h2.556v2.104H163.312z M165.867,453.361v9.306h-2.556v-9.306H165.867z M170.367,453.361v1.26h0.036
	c0.336-0.479,0.74-0.852,1.215-1.116c0.474-0.264,1.017-0.396,1.629-0.396c0.588,0,1.125,0.113,1.611,0.342
	c0.485,0.228,0.854,0.63,1.106,1.206c0.276-0.408,0.651-0.769,1.125-1.08c0.475-0.312,1.035-0.468,1.684-0.468
	c0.491,0,0.947,0.06,1.368,0.18c0.42,0.12,0.779,0.312,1.079,0.576c0.3,0.264,0.534,0.608,0.702,1.035
	c0.168,0.426,0.252,0.938,0.252,1.539v6.228h-2.556v-5.273c0-0.312-0.012-0.605-0.036-0.883c-0.024-0.274-0.09-0.516-0.198-0.72
	c-0.107-0.204-0.267-0.366-0.477-0.486c-0.21-0.118-0.495-0.18-0.855-0.18c-0.359,0-0.65,0.069-0.873,0.207
	c-0.222,0.138-0.396,0.318-0.521,0.54s-0.21,0.474-0.252,0.756s-0.063,0.567-0.063,0.855v5.184h-2.556v-5.22
	c0-0.276-0.006-0.549-0.018-0.819c-0.013-0.27-0.063-0.519-0.153-0.747c-0.09-0.228-0.24-0.411-0.45-0.549s-0.52-0.207-0.927-0.207
	c-0.12,0-0.279,0.027-0.478,0.081c-0.197,0.054-0.39,0.156-0.575,0.306c-0.187,0.15-0.346,0.366-0.478,0.648
	c-0.132,0.282-0.198,0.651-0.198,1.105v5.4h-2.556v-9.306L170.367,453.361L170.367,453.361z M186.927,460.436
	c0.384,0.371,0.936,0.559,1.656,0.559c0.516,0,0.96-0.129,1.332-0.387c0.371-0.26,0.6-0.531,0.684-0.819h2.25
	c-0.36,1.116-0.912,1.914-1.656,2.394c-0.744,0.48-1.644,0.722-2.699,0.722c-0.732,0-1.393-0.117-1.98-0.353
	c-0.588-0.232-1.086-0.565-1.494-0.999c-0.408-0.432-0.723-0.946-0.944-1.548c-0.223-0.6-0.333-1.26-0.333-1.979
	c0-0.696,0.113-1.346,0.342-1.944c0.228-0.6,0.552-1.119,0.972-1.557c0.42-0.438,0.921-0.783,1.503-1.035s1.227-0.378,1.936-0.378
	c0.792,0,1.481,0.151,2.069,0.459c0.588,0.306,1.071,0.717,1.449,1.231c0.378,0.518,0.65,1.104,0.819,1.766
	c0.168,0.659,0.228,1.35,0.18,2.068h-6.714C186.333,459.463,186.543,460.063,186.927,460.436L186.927,460.436z M189.815,455.539
	c-0.306-0.336-0.771-0.504-1.395-0.504c-0.408,0-0.747,0.069-1.018,0.207c-0.27,0.138-0.485,0.309-0.647,0.513
	s-0.276,0.42-0.342,0.648c-0.066,0.228-0.105,0.432-0.117,0.61h4.158C190.335,456.367,190.122,455.875,189.815,455.539
	L189.815,455.539z M196.674,460.354c0.114,0.197,0.261,0.359,0.441,0.485c0.18,0.126,0.387,0.221,0.62,0.279
	c0.234,0.06,0.478,0.09,0.729,0.09c0.18,0,0.369-0.021,0.567-0.062c0.197-0.041,0.378-0.107,0.54-0.197
	c0.161-0.09,0.297-0.21,0.404-0.36c0.108-0.148,0.162-0.339,0.162-0.566c0-0.385-0.255-0.673-0.765-0.863
	c-0.511-0.192-1.222-0.384-2.133-0.576c-0.372-0.084-0.735-0.183-1.09-0.297c-0.354-0.114-0.669-0.264-0.944-0.45
	c-0.276-0.186-0.498-0.42-0.666-0.702c-0.168-0.28-0.252-0.627-0.252-1.035c0-0.6,0.117-1.092,0.351-1.476
	c0.234-0.384,0.543-0.687,0.927-0.909c0.385-0.222,0.816-0.378,1.296-0.468s0.973-0.135,1.477-0.135s0.993,0.048,1.467,0.144
	c0.474,0.098,0.897,0.258,1.27,0.486c0.371,0.228,0.681,0.53,0.927,0.909c0.246,0.378,0.393,0.854,0.44,1.431h-2.43
	c-0.036-0.492-0.222-0.825-0.558-0.999s-0.732-0.261-1.188-0.261l-0.468,0.025c-0.168,0.02-0.321,0.059-0.459,0.117
	c-0.138,0.062-0.255,0.147-0.351,0.261c-0.097,0.114-0.145,0.269-0.145,0.46c0,0.229,0.084,0.413,0.252,0.559
	c0.168,0.144,0.387,0.261,0.657,0.351c0.27,0.091,0.579,0.171,0.927,0.243l1.062,0.234c0.371,0.084,0.734,0.186,1.089,0.306
	c0.354,0.12,0.669,0.279,0.944,0.478c0.276,0.197,0.498,0.443,0.666,0.737s0.252,0.657,0.252,1.089c0,0.612-0.123,1.125-0.368,1.539
	c-0.246,0.414-0.567,0.747-0.964,0.999c-0.396,0.252-0.849,0.431-1.358,0.531c-0.511,0.103-1.029,0.153-1.557,0.153
	c-0.54,0-1.068-0.056-1.585-0.162c-0.516-0.108-0.975-0.288-1.377-0.54c-0.401-0.252-0.731-0.585-0.989-0.999
	c-0.259-0.414-0.399-0.934-0.423-1.558h2.43C196.503,459.919,196.56,460.156,196.674,460.354L196.674,460.354z M209.085,456.223
	c0.036-0.6,0.186-1.098,0.45-1.493c0.264-0.396,0.6-0.714,1.008-0.953c0.407-0.24,0.866-0.411,1.377-0.515
	c0.51-0.102,1.022-0.151,1.539-0.151c0.468,0,0.941,0.032,1.422,0.099c0.479,0.066,0.918,0.195,1.313,0.387
	c0.396,0.192,0.721,0.459,0.973,0.802s0.378,0.796,0.378,1.358v4.842c0,0.422,0.023,0.822,0.072,1.206
	c0.047,0.386,0.132,0.673,0.252,0.864h-2.593c-0.048-0.144-0.087-0.291-0.116-0.441c-0.03-0.148-0.052-0.303-0.063-0.459
	c-0.408,0.422-0.888,0.716-1.44,0.884c-0.552,0.168-1.115,0.252-1.691,0.252c-0.444,0-0.858-0.056-1.242-0.162
	c-0.384-0.108-0.72-0.276-1.008-0.504c-0.288-0.229-0.513-0.518-0.675-0.864s-0.243-0.762-0.243-1.242
	c0-0.526,0.093-0.963,0.279-1.305c0.186-0.342,0.426-0.615,0.72-0.819s0.63-0.355,1.008-0.459c0.378-0.102,0.759-0.183,1.143-0.243
	c0.385-0.06,0.763-0.106,1.135-0.144c0.371-0.036,0.701-0.09,0.989-0.162c0.288-0.072,0.517-0.177,0.685-0.315
	c0.168-0.138,0.246-0.339,0.233-0.603c0-0.276-0.045-0.495-0.135-0.657s-0.21-0.288-0.359-0.378c-0.15-0.09-0.324-0.148-0.522-0.18
	c-0.198-0.031-0.411-0.045-0.639-0.045c-0.504,0-0.9,0.106-1.188,0.322c-0.288,0.218-0.456,0.576-0.504,1.08L209.085,456.223
	L209.085,456.223z M214.988,458.113c-0.107,0.096-0.242,0.171-0.404,0.225c-0.162,0.055-0.336,0.1-0.522,0.135
	c-0.186,0.036-0.381,0.066-0.585,0.092c-0.204,0.022-0.408,0.054-0.612,0.09c-0.191,0.036-0.381,0.084-0.566,0.144
	c-0.187,0.062-0.349,0.143-0.486,0.243c-0.137,0.102-0.249,0.231-0.333,0.387c-0.084,0.156-0.126,0.354-0.126,0.595
	c0,0.229,0.042,0.421,0.126,0.575c0.084,0.156,0.198,0.279,0.342,0.369c0.145,0.09,0.312,0.153,0.504,0.189
	c0.192,0.036,0.391,0.054,0.595,0.054c0.504,0,0.894-0.084,1.17-0.252c0.275-0.168,0.479-0.369,0.612-0.604
	c0.132-0.233,0.213-0.472,0.242-0.712c0.03-0.238,0.045-0.432,0.045-0.574v-0.955H214.988z M225.825,462.667v-1.296h-0.055
	c-0.324,0.54-0.744,0.93-1.26,1.17c-0.516,0.24-1.044,0.36-1.584,0.36c-0.684,0-1.245-0.091-1.683-0.271
	c-0.438-0.18-0.783-0.435-1.035-0.765s-0.43-0.732-0.531-1.206c-0.103-0.474-0.153-0.999-0.153-1.575v-5.724h2.557v5.256
	c0,0.768,0.119,1.341,0.359,1.719c0.24,0.378,0.666,0.567,1.278,0.567c0.695,0,1.2-0.207,1.512-0.621s0.469-1.096,0.469-2.043
	v-4.878h2.556v9.306L225.825,462.667L225.825,462.667z M235.311,453.361v1.71h-1.872v4.606c0,0.434,0.072,0.722,0.216,0.864
	c0.145,0.145,0.433,0.216,0.864,0.216l0.414-0.018l0.378-0.055v1.979c-0.216,0.036-0.456,0.06-0.72,0.072
	c-0.265,0.012-0.522,0.018-0.774,0.018c-0.396,0-0.771-0.025-1.125-0.081c-0.354-0.054-0.666-0.159-0.936-0.313
	c-0.271-0.156-0.483-0.378-0.64-0.666c-0.155-0.288-0.233-0.666-0.233-1.136v-5.488h-1.548v-1.71h1.548v-2.79h2.556v2.79
	L235.311,453.361L235.311,453.361z M236.589,455.998c0.228-0.605,0.552-1.122,0.972-1.548s0.924-0.756,1.512-0.99
	c0.588-0.233,1.248-0.351,1.98-0.351c0.731,0,1.395,0.115,1.988,0.351c0.595,0.234,1.102,0.564,1.521,0.99s0.744,0.941,0.972,1.548
	c0.229,0.606,0.343,1.281,0.343,2.025c0,0.743-0.114,1.416-0.343,2.016c-0.228,0.601-0.552,1.113-0.972,1.539
	s-0.927,0.753-1.521,0.979c-0.594,0.229-1.257,0.344-1.988,0.344c-0.732,0-1.393-0.114-1.98-0.344
	c-0.588-0.228-1.092-0.555-1.512-0.979s-0.744-0.938-0.972-1.539c-0.229-0.6-0.343-1.271-0.343-2.016
	C236.246,457.278,236.36,456.604,236.589,455.998z M238.91,459.112c0.072,0.354,0.195,0.672,0.369,0.954
	c0.174,0.28,0.405,0.507,0.693,0.675c0.288,0.168,0.647,0.252,1.08,0.252c0.432,0,0.795-0.084,1.089-0.252
	c0.294-0.168,0.527-0.395,0.702-0.675c0.174-0.282,0.297-0.602,0.369-0.954c0.071-0.354,0.107-0.717,0.107-1.089
	s-0.036-0.738-0.107-1.1c-0.072-0.358-0.195-0.678-0.369-0.954c-0.175-0.274-0.408-0.501-0.702-0.675
	c-0.294-0.174-0.657-0.261-1.089-0.261c-0.433,0-0.792,0.087-1.08,0.261c-0.288,0.174-0.52,0.399-0.693,0.675
	c-0.174,0.276-0.297,0.596-0.369,0.954c-0.071,0.36-0.107,0.728-0.107,1.1S238.839,458.758,238.91,459.112z M250.016,453.361v1.26
	h0.036c0.336-0.479,0.74-0.852,1.215-1.116c0.474-0.264,1.017-0.396,1.629-0.396c0.588,0,1.125,0.113,1.611,0.342
	c0.485,0.228,0.854,0.63,1.106,1.206c0.276-0.408,0.651-0.769,1.125-1.08c0.475-0.312,1.035-0.468,1.684-0.468
	c0.491,0,0.947,0.06,1.368,0.18c0.42,0.12,0.779,0.312,1.079,0.576c0.3,0.264,0.534,0.608,0.702,1.035
	c0.168,0.426,0.252,0.938,0.252,1.539v6.228h-2.556v-5.273c0-0.312-0.012-0.605-0.036-0.883c-0.024-0.274-0.09-0.516-0.198-0.72
	c-0.107-0.204-0.267-0.366-0.477-0.486c-0.21-0.118-0.495-0.18-0.855-0.18c-0.359,0-0.65,0.069-0.873,0.207
	c-0.222,0.138-0.396,0.318-0.521,0.54s-0.21,0.474-0.252,0.756c-0.042,0.282-0.063,0.567-0.063,0.855v5.184h-2.556v-5.22
	c0-0.276-0.006-0.549-0.018-0.819c-0.013-0.27-0.063-0.519-0.153-0.747c-0.09-0.228-0.24-0.411-0.45-0.549s-0.52-0.207-0.927-0.207
	c-0.12,0-0.279,0.027-0.478,0.081c-0.197,0.054-0.39,0.156-0.575,0.306c-0.187,0.15-0.346,0.366-0.478,0.648
	s-0.198,0.651-0.198,1.105v5.4h-2.556v-9.306L250.016,453.361L250.016,453.361z M263.732,456.223c0.036-0.6,0.186-1.098,0.45-1.493
	c0.264-0.396,0.6-0.714,1.008-0.953c0.407-0.24,0.866-0.411,1.377-0.515c0.51-0.102,1.022-0.151,1.539-0.151
	c0.468,0,0.941,0.032,1.422,0.099c0.479,0.066,0.918,0.195,1.313,0.387c0.396,0.192,0.721,0.459,0.973,0.802
	s0.378,0.796,0.378,1.358v4.842c0,0.422,0.023,0.822,0.072,1.206c0.047,0.386,0.132,0.673,0.252,0.864h-2.593
	c-0.048-0.144-0.087-0.291-0.116-0.441c-0.03-0.148-0.052-0.303-0.063-0.459c-0.408,0.422-0.888,0.716-1.44,0.884
	c-0.552,0.168-1.115,0.252-1.691,0.252c-0.444,0-0.858-0.056-1.242-0.162c-0.384-0.108-0.72-0.276-1.008-0.504
	c-0.288-0.229-0.513-0.518-0.675-0.864s-0.243-0.762-0.243-1.242c0-0.526,0.093-0.963,0.279-1.305s0.426-0.615,0.72-0.819
	s0.63-0.355,1.008-0.459c0.378-0.102,0.759-0.183,1.143-0.243c0.385-0.06,0.763-0.106,1.135-0.144
	c0.371-0.036,0.701-0.09,0.989-0.162s0.517-0.177,0.685-0.315c0.168-0.138,0.246-0.339,0.233-0.603c0-0.276-0.045-0.495-0.135-0.657
	s-0.21-0.288-0.359-0.378c-0.15-0.09-0.324-0.148-0.522-0.18c-0.198-0.031-0.411-0.045-0.639-0.045c-0.504,0-0.9,0.106-1.188,0.322
	c-0.288,0.218-0.456,0.576-0.504,1.08L263.732,456.223L263.732,456.223z M269.636,458.113c-0.107,0.096-0.242,0.171-0.404,0.225
	c-0.162,0.055-0.336,0.1-0.522,0.135c-0.186,0.036-0.381,0.066-0.585,0.092c-0.204,0.022-0.408,0.054-0.612,0.09
	c-0.191,0.036-0.381,0.084-0.566,0.144c-0.187,0.062-0.349,0.143-0.486,0.243c-0.137,0.102-0.249,0.231-0.333,0.387
	c-0.084,0.156-0.126,0.354-0.126,0.595c0,0.229,0.042,0.421,0.126,0.575c0.084,0.156,0.198,0.279,0.342,0.369
	c0.145,0.09,0.312,0.153,0.504,0.189c0.192,0.036,0.391,0.054,0.595,0.054c0.504,0,0.894-0.084,1.17-0.252
	c0.275-0.168,0.479-0.369,0.612-0.604c0.132-0.233,0.213-0.472,0.242-0.712c0.03-0.238,0.045-0.432,0.045-0.574v-0.955H269.636z
	 M279.283,453.361v1.71h-1.872v4.606c0,0.434,0.072,0.722,0.216,0.864c0.145,0.145,0.433,0.216,0.864,0.216l0.414-0.018l0.378-0.055
	v1.979c-0.216,0.036-0.456,0.06-0.72,0.072c-0.265,0.012-0.522,0.018-0.774,0.018c-0.396,0-0.771-0.025-1.125-0.081
	c-0.354-0.054-0.666-0.159-0.936-0.313c-0.271-0.156-0.483-0.378-0.64-0.666c-0.155-0.288-0.233-0.666-0.233-1.136v-5.488h-1.548
	v-1.71h1.548v-2.79h2.556v2.79L279.283,453.361L279.283,453.361z M280.579,451.921v-2.104h2.556v2.104H280.579z M283.135,453.361
	v9.306h-2.556v-9.306H283.135z M289.598,455.035c-0.408,0-0.75,0.093-1.026,0.279c-0.275,0.186-0.501,0.426-0.675,0.72
	s-0.297,0.618-0.369,0.972c-0.071,0.354-0.107,0.705-0.107,1.053c0,0.338,0.036,0.68,0.107,1.026
	c0.072,0.349,0.189,0.663,0.352,0.945s0.381,0.513,0.657,0.691c0.275,0.182,0.611,0.271,1.008,0.271
	c0.611,0,1.083-0.171,1.413-0.513c0.329-0.344,0.536-0.803,0.621-1.379h2.466c-0.168,1.236-0.648,2.18-1.44,2.826
	c-0.792,0.648-1.806,0.974-3.042,0.974c-0.696,0-1.335-0.117-1.917-0.353c-0.582-0.232-1.077-0.561-1.484-0.979
	c-0.408-0.42-0.727-0.921-0.954-1.503c-0.229-0.582-0.343-1.223-0.343-1.917c0-0.722,0.105-1.391,0.315-2.009
	c0.21-0.616,0.519-1.15,0.927-1.602s0.906-0.801,1.494-1.053c0.588-0.252,1.26-0.378,2.016-0.378c0.553,0,1.083,0.07,1.594,0.216
	c0.51,0.144,0.966,0.363,1.368,0.657c0.401,0.294,0.729,0.658,0.98,1.098c0.251,0.438,0.396,0.957,0.432,1.557h-2.502
	C291.319,455.569,290.689,455.035,289.598,455.035L289.598,455.035z M295.375,456.223c0.036-0.6,0.186-1.098,0.45-1.493
	c0.264-0.396,0.6-0.714,1.008-0.953c0.407-0.24,0.866-0.411,1.377-0.515c0.51-0.102,1.022-0.151,1.539-0.151
	c0.468,0,0.941,0.032,1.422,0.099c0.479,0.066,0.918,0.195,1.313,0.387c0.396,0.192,0.721,0.459,0.973,0.802
	s0.378,0.796,0.378,1.358v4.842c0,0.422,0.023,0.822,0.072,1.206c0.047,0.386,0.132,0.673,0.252,0.864h-2.593
	c-0.048-0.144-0.087-0.291-0.116-0.441c-0.03-0.148-0.052-0.303-0.063-0.459c-0.408,0.422-0.888,0.716-1.44,0.884
	c-0.552,0.168-1.115,0.252-1.691,0.252c-0.444,0-0.858-0.056-1.242-0.162c-0.384-0.108-0.72-0.276-1.008-0.504
	c-0.288-0.229-0.513-0.518-0.675-0.864s-0.243-0.762-0.243-1.242c0-0.526,0.093-0.963,0.279-1.305s0.426-0.615,0.72-0.819
	s0.63-0.355,1.008-0.459c0.378-0.102,0.759-0.183,1.143-0.243c0.385-0.06,0.763-0.106,1.135-0.144
	c0.371-0.036,0.701-0.09,0.989-0.162s0.517-0.177,0.685-0.315c0.168-0.138,0.246-0.339,0.233-0.603c0-0.276-0.045-0.495-0.135-0.657
	c-0.09-0.162-0.21-0.288-0.359-0.378c-0.15-0.09-0.324-0.148-0.522-0.18c-0.198-0.031-0.411-0.045-0.639-0.045
	c-0.504,0-0.9,0.106-1.188,0.322c-0.288,0.218-0.456,0.576-0.504,1.08L295.375,456.223L295.375,456.223z M301.278,458.113
	c-0.107,0.096-0.242,0.171-0.404,0.225c-0.162,0.055-0.336,0.1-0.522,0.135c-0.186,0.036-0.381,0.066-0.585,0.092
	c-0.204,0.022-0.408,0.054-0.612,0.09c-0.191,0.036-0.381,0.084-0.566,0.144c-0.187,0.062-0.349,0.143-0.486,0.243
	c-0.137,0.102-0.249,0.231-0.333,0.387c-0.084,0.156-0.126,0.354-0.126,0.595c0,0.229,0.042,0.421,0.126,0.575
	c0.084,0.156,0.198,0.279,0.342,0.369c0.145,0.09,0.312,0.153,0.504,0.189c0.192,0.036,0.391,0.054,0.595,0.054
	c0.504,0,0.894-0.084,1.17-0.252c0.275-0.168,0.479-0.369,0.612-0.604c0.132-0.233,0.213-0.472,0.242-0.712
	c0.03-0.238,0.045-0.432,0.045-0.574v-0.955H301.278z M308.442,449.815v12.852h-2.556v-12.852H308.442z M313.087,449.815v12.852
	h-2.556v-12.852H313.087z M318.541,465.439c-0.492,0.322-1.177,0.484-2.052,0.484c-0.265,0-0.525-0.009-0.783-0.025l-0.783-0.063
	v-2.105l0.738,0.071c0,0,0.504,0.03,0.756,0.02c0.336-0.036,0.585-0.169,0.747-0.396c0.162-0.227,0.243-0.479,0.243-0.756
	c0-0.204-0.036-0.396-0.108-0.576l-3.258-8.729h2.718l2.106,6.372h0.035l2.034-6.372h2.646l-3.889,10.458
	C319.417,464.575,319.033,465.115,318.541,465.439L318.541,465.439z M326.047,459.896v2.771h-2.826v-2.771H326.047z"/>
<path fill="#FFFFFF" d="M101.923,380.538v-18.56c0-0.854-0.791-1.225-1.662-1.225l-3.16-0.048v-5.999l-0.037-0.488l0.031-0.62
	c0-7.674-6.274-13.896-14.014-13.896c-7.739,0-14.013,6.222-14.013,13.896c0,0.627,0.057,1.25,0.138,1.869l-0.075,5.286h-2.868
	c-0.871,0-2.203,1.098-2.203,1.952v20c0,0.18,0.238,0.559,0.607,1.032c0.648,2.37,2.555,4.218,4.962,4.784
	c0.187,0.111,0.341,0.184,0.438,0.184l0.457-0.03c0.218,0.021,0.438,0.033,0.662,0.033h24.158c1.888,0,3.593-0.773,4.82-2.019
	c0.256-0.05,0.517-0.405,0.756-0.915c0.748-1.086,1.187-2.399,1.187-3.815C102.106,381.431,102.039,380.963,101.923,380.538
	L101.923,380.538z M83.074,343.697c5.233,0,9.523,3.963,9.971,9.014l0.05-0.003v7.999h-2.028l-0.094,0.159H74.807l-0.088-0.159
	h-1.648v-6.731l-0.013-0.394C73.058,348.123,77.542,343.697,83.074,343.697z M79.694,365.888l6.303,0.196
	c2.139,0.541,4.105,1.659,5.702,3.309c0.514,0.53,0.514,1.389,0,1.918c-0.515,0.532-1.345,0.532-1.859,0
	c-1.808-1.864-4.21-2.893-6.767-2.893c-2.556,0-4.959,1.027-6.766,2.893c-0.257,0.268-0.593,0.398-0.93,0.398
	c-0.336,0-0.672-0.132-0.929-0.398c-0.515-0.527-0.515-1.388,0-1.918c1.586-1.64,3.54-2.758,5.665-3.303L79.694,365.888z
	 M83.074,374.517c-1.453,0-2.816,0.627-3.84,1.77c-0.495,0.55-1.297,0.549-1.792,0.002c-0.495-0.551-0.495-1.443-0.001-1.993
	c1.503-1.673,3.503-2.595,5.633-2.595c2.128,0,4.13,0.922,5.636,2.595c0.495,0.549,0.495,1.44,0,1.991
	c-0.247,0.274-0.571,0.413-0.895,0.413c-0.325,0-0.649-0.139-0.897-0.413C85.893,375.146,84.526,374.517,83.074,374.517z
	 M85.083,379.719c0,1.104-0.893,1.997-1.995,1.997c-1.101,0-1.993-0.895-1.993-1.997c0-1.104,0.893-1.998,1.993-1.998
	C84.189,377.721,85.083,378.614,85.083,379.719z M171.923,380.538v-18.56c0-0.854-0.791-1.225-1.662-1.225l-3.16-0.048v-5.999
	l-0.037-0.488l0.031-0.62c0-7.674-6.274-13.896-14.014-13.896c-7.739,0-14.013,6.222-14.013,13.896c0,0.627,0.057,1.25,0.138,1.869
	l-0.075,5.286h-2.868c-0.871,0-2.203,1.098-2.203,1.952v20c0,0.18,0.238,0.559,0.607,1.032c0.648,2.37,2.555,4.218,4.962,4.784
	c0.187,0.111,0.341,0.184,0.438,0.184l0.457-0.03c0.218,0.021,0.438,0.033,0.662,0.033h24.158c1.888,0,3.593-0.773,4.82-2.019
	c0.256-0.05,0.517-0.405,0.756-0.915c0.748-1.086,1.187-2.399,1.187-3.815C172.106,381.431,172.039,380.963,171.923,380.538
	L171.923,380.538z M153.074,343.697c5.233,0,9.523,3.963,9.971,9.014l0.05-0.003v7.999h-2.028l-0.094,0.159h-16.166l-0.088-0.159
	h-1.648v-6.731l-0.013-0.394C143.058,348.123,147.542,343.697,153.074,343.697L153.074,343.697z M149.694,365.888l6.303,0.196
	c2.139,0.541,4.105,1.659,5.702,3.309c0.514,0.53,0.514,1.389,0,1.918c-0.515,0.532-1.345,0.532-1.859,0
	c-1.808-1.864-4.21-2.893-6.767-2.893c-2.556,0-4.959,1.027-6.766,2.893c-0.257,0.268-0.593,0.398-0.93,0.398
	c-0.336,0-0.672-0.132-0.929-0.398c-0.515-0.527-0.515-1.388,0-1.918c1.586-1.64,3.54-2.758,5.665-3.303L149.694,365.888
	L149.694,365.888z M153.074,374.517c-1.453,0-2.816,0.627-3.84,1.77c-0.495,0.55-1.297,0.549-1.792,0.002
	c-0.495-0.551-0.495-1.443-0.001-1.993c1.503-1.673,3.503-2.595,5.633-2.595c2.128,0,4.13,0.922,5.636,2.595
	c0.495,0.549,0.495,1.44,0,1.991c-0.247,0.274-0.571,0.413-0.895,0.413c-0.325,0-0.649-0.139-0.897-0.413
	C155.893,375.146,154.526,374.517,153.074,374.517L153.074,374.517z M155.083,379.719c0,1.104-0.893,1.997-1.995,1.997
	c-1.101,0-1.993-0.895-1.993-1.997c0-1.104,0.893-1.998,1.993-1.998C154.189,377.721,155.083,378.614,155.083,379.719z
	 M238.923,380.871v-18.559c0-0.854-0.791-1.226-1.662-1.226l-3.16-0.048v-5.999l-0.037-0.488l0.031-0.62
	c0-7.674-6.274-13.896-14.014-13.896c-7.739,0-14.013,6.222-14.013,13.896c0,0.627,0.057,1.25,0.138,1.869l-0.075,5.286h-2.868
	c-0.871,0-2.203,1.098-2.203,1.952v20c0,0.18,0.238,0.559,0.607,1.032c0.648,2.37,2.555,4.218,4.962,4.784
	c0.187,0.111,0.341,0.184,0.438,0.184l0.457-0.03c0.218,0.021,0.438,0.033,0.662,0.033h24.158c1.888,0,3.593-0.773,4.82-2.019
	c0.256-0.049,0.517-0.405,0.756-0.915c0.748-1.087,1.187-2.399,1.187-3.815C239.106,381.764,239.039,381.295,238.923,380.871
	L238.923,380.871z M220.074,344.03c5.233,0,9.523,3.963,9.971,9.014l0.05-0.003v7.999h-2.028l-0.094,0.159h-16.166l-0.088-0.159
	h-1.648v-6.731l-0.013-0.394C210.058,348.456,214.542,344.03,220.074,344.03L220.074,344.03z M216.692,366.221l6.305,0.196
	c2.139,0.54,4.105,1.659,5.701,3.309c0.514,0.53,0.514,1.389,0,1.918c-0.515,0.532-1.345,0.532-1.859,0
	c-1.808-1.864-4.21-2.893-6.767-2.893c-2.556,0-4.959,1.027-6.766,2.893c-0.257,0.268-0.593,0.398-0.93,0.398
	c-0.336,0-0.672-0.132-0.929-0.398c-0.515-0.527-0.515-1.388,0-1.918c1.586-1.64,3.54-2.758,5.665-3.302L216.692,366.221z
	 M220.074,374.85c-1.453,0-2.816,0.627-3.84,1.77c-0.495,0.55-1.297,0.549-1.792,0.002c-0.495-0.551-0.495-1.443-0.001-1.993
	c1.503-1.673,3.503-2.595,5.633-2.595c2.128,0,4.13,0.922,5.636,2.595c0.495,0.549,0.495,1.44,0,1.991
	c-0.247,0.274-0.571,0.413-0.895,0.413c-0.325,0-0.649-0.139-0.897-0.413C222.893,375.479,221.526,374.85,220.074,374.85
	L220.074,374.85z M222.083,380.052c0,1.104-0.893,1.997-1.995,1.997c-1.101,0-1.993-0.895-1.993-1.997
	c0-1.104,0.893-1.998,1.993-1.998C221.189,378.054,222.083,378.947,222.083,380.052z"/>
<g>
	<path fill="#FFFFFF" d="M336.223,147.114c3.329-0.255,6.437-0.991,9.319-2.209c2.882-1.216,5.25-2.979,7.109-5.284
		c1.855-2.306,2.786-5.38,2.786-9.223c0-5.764-1.921-10.184-5.764-13.258s-8.262-4.611-13.258-4.611
		c-6.917,0-12.138,2.276-15.659,6.821c-3.525,4.548-5.221,10.279-5.092,17.196h-25.939c0.255-6.917,1.504-13.225,3.747-18.926
		c2.24-5.698,5.38-10.598,9.415-14.699c4.035-4.098,8.868-7.269,14.506-9.511c5.635-2.239,11.913-3.362,18.83-3.362
		c5.38,0,10.76,0.802,16.14,2.402c5.38,1.603,10.213,4.005,14.506,7.205c4.291,3.204,7.782,7.109,10.471,11.721
		c2.691,4.611,4.035,9.928,4.035,15.948c0,6.533-1.57,12.297-4.707,17.292c-3.141,4.996-7.848,8.391-14.122,10.184v0.384
		c7.427,1.666,13.257,5.254,17.485,10.76c4.227,5.509,6.34,12.105,6.34,19.791c0,7.046-1.379,13.324-4.131,18.83
		c-2.756,5.509-6.438,10.12-11.048,13.834c-4.611,3.717-9.928,6.533-15.948,8.454c-6.022,1.921-12.297,2.882-18.83,2.882
		c-7.56,0-14.443-1.09-20.655-3.267c-6.214-2.177-11.498-5.347-15.852-9.511c-4.356-4.161-7.718-9.253-10.087-15.275
		c-2.372-6.02-3.491-12.937-3.362-20.751h25.939c0.126,3.587,0.703,7.013,1.729,10.279c1.023,3.267,2.498,6.085,4.419,8.454
		c1.921,2.372,4.323,4.26,7.206,5.668c2.882,1.411,6.308,2.113,10.279,2.113c6.148,0,11.336-1.888,15.563-5.668
		c4.227-3.777,6.341-8.935,6.341-15.467c0-5.122-0.994-9.031-2.979-11.721c-1.987-2.69-4.515-4.642-7.589-5.86
		c-3.074-1.216-6.437-1.921-10.087-2.113c-3.651-0.192-7.142-0.289-10.472-0.289v-19.214
		C329.753,147.372,332.89,147.372,336.223,147.114z"/>
	<path fill="#FFFFFF" d="M460.479,86.782l-53.607,143.529H385.16l53.416-143.529H460.479z"/>
	<path fill="#FFFFFF" d="M498.482,227.236v-87.232h-33.816v-20.559c4.737,0.129,9.318-0.222,13.737-1.057
		c4.42-0.832,8.389-2.306,11.913-4.419c3.521-2.113,6.5-4.899,8.935-8.358c2.432-3.458,4.035-7.749,4.804-12.874h21.712v134.499
		H498.482z"/>
	<path fill="#FFFFFF" d="M555.222,126.458c2.624-8.901,6.179-16.043,10.664-21.424c4.482-5.38,9.703-9.223,15.659-11.528
		c5.957-2.306,12.265-3.458,18.926-3.458c6.788,0,13.162,1.153,19.118,3.458s11.207,6.148,15.756,11.528
		c4.545,5.38,8.133,12.522,10.76,21.424c2.624,8.905,3.938,19.887,3.938,32.952c0,13.45-1.314,24.69-3.938,33.721
		c-2.627,9.031-6.215,16.236-10.76,21.616c-4.549,5.38-9.8,9.223-15.756,11.528c-5.956,2.306-12.33,3.459-19.118,3.459
		c-6.661,0-12.969-1.153-18.926-3.459c-5.956-2.306-11.177-6.148-15.659-11.528c-4.485-5.38-8.04-12.585-10.664-21.616
		c-2.627-9.031-3.938-20.271-3.938-33.721C551.283,146.345,552.595,135.363,555.222,126.458z M578.951,173.341
		c0.255,5.446,1.057,10.697,2.401,15.755c1.346,5.062,3.489,9.385,6.438,12.97c2.945,3.587,7.172,5.38,12.681,5.38
		c5.636,0,9.959-1.792,12.97-5.38c3.008-3.584,5.188-7.908,6.533-12.97c1.345-5.059,2.144-10.309,2.401-15.755
		c0.255-5.443,0.385-10.087,0.385-13.93c0-2.306-0.033-5.092-0.097-8.358c-0.065-3.267-0.321-6.629-0.769-10.087
		c-0.45-3.458-1.09-6.884-1.921-10.28c-0.835-3.393-2.084-6.437-3.747-9.126c-1.666-2.69-3.78-4.867-6.341-6.533
		c-2.563-1.664-5.701-2.498-9.415-2.498c-3.717,0-6.82,0.834-9.318,2.498c-2.498,1.666-4.549,3.843-6.148,6.533
		c-1.604,2.69-2.853,5.734-3.747,9.126c-0.897,3.396-1.537,6.821-1.921,10.28c-0.385,3.458-0.609,6.821-0.673,10.087
		c-0.066,3.266-0.096,6.052-0.096,8.358C578.567,163.253,578.693,167.898,578.951,173.341z"/>
</g>
</svg>
