<svg xmlns="http://www.w3.org/2000/svg" width="750" height="510" viewBox="0 0 750 510"><path fill="#C62139" d="M66.174 505.334h586.667v3.666h-586.667v-3.666z"/><path fill="#fff" d="M102.135 99.144c-.651-.662-1.438-1.177-2.357-1.54-.92-.363-1.946-.546-3.082-.546-1.135 0-2.156.183-3.066.546-.912.363-1.693.878-2.344 1.54-.651.662-1.153 1.466-1.508 2.407-.354.942-.528 1.993-.528 3.15 0 1.157.177 2.202.528 3.136.354.935.854 1.731 1.508 2.396.648.661 1.432 1.171 2.344 1.524.91.354 1.934.532 3.066.532 1.136 0 2.162-.178 3.082-.532.922-.354 1.706-.863 2.357-1.524.65-.663 1.152-1.461 1.506-2.396.354-.934.53-1.979.53-3.136s-.177-2.208-.53-3.15c-.353-.942-.856-1.745-1.506-2.407zm-2.092 7.252c-.112.551-.305 1.045-.572 1.482-.269.438-.633.789-1.088 1.05-.456.263-1.021.395-1.688.395-.67 0-1.229-.131-1.674-.395-.445-.261-.805-.61-1.074-1.05-.269-.438-.461-.933-.57-1.482-.111-.551-.167-1.115-.167-1.694s.056-1.148.167-1.708c.109-.562.303-1.055.57-1.484.271-.429.629-.778 1.074-1.05.445-.271 1.004-.406 1.674-.406.671 0 1.231.137 1.688.406.455.271.818.62 1.088 1.05.271.431.46.924.572 1.484.109.56.166 1.129.166 1.708s-.055 1.143-.166 1.694zm68.417-6.819c-.41.615-.644 1.391-.697 2.324h3.961c.074-.784.334-1.345.781-1.681.445-.337 1.06-.505 1.841-.505.354 0 .685.024.99.07.307.047.576.14.809.28s.419.336.56.588c.14.252.21.593.21 1.021.018.411-.104.725-.363.938-.261.214-.613.378-1.06.488-.446.112-.958.196-1.534.253-.577.057-1.163.131-1.758.225-.597.094-1.188.22-1.771.378-.585.159-1.104.397-1.562.714-.456.318-.828.742-1.116 1.273-.288.532-.435 1.209-.435 2.03 0 .746.126 1.392.377 1.933s.602.989 1.048 1.344c.444.355.967.616 1.562.784s1.236.252 1.925.252c.895 0 1.769-.131 2.622-.392.855-.263 1.6-.72 2.231-1.373.019.242.051.48.098.715.046.232.106.462.182.686h4.019c-.188-.299-.316-.746-.392-1.344-.074-.598-.11-1.223-.11-1.876v-7.532c0-.877-.195-1.582-.586-2.113-.393-.532-.895-.946-1.507-1.245-.613-.3-1.292-.5-2.036-.604-.744-.103-1.479-.153-2.203-.153-.8 0-1.595.079-2.386.237-.79.159-1.504.425-2.136.798-.634.377-1.156.871-1.564 1.487zm8.452 6.748c0 .224-.023.521-.07.896-.047.373-.172.741-.376 1.105-.205.363-.521.677-.949.938-.428.263-1.031.394-1.812.394-.316 0-.623-.028-.921-.084-.3-.058-.56-.154-.781-.295-.225-.14-.399-.33-.529-.573-.131-.243-.195-.542-.195-.896 0-.374.064-.682.195-.925.13-.242.302-.441.516-.602.216-.16.467-.284.755-.378.286-.095.579-.168.879-.226.314-.056.632-.102.946-.14.316-.037.618-.084.907-.14.288-.058.56-.128.811-.212s.46-.198.628-.35v1.487l-.004.001zm405.134 63.751c-3.313 0-6 2.687-6 6v51c0 3.312 2.687 6 6 6h25c3.312 0 6-2.688 6-6v-51c0-3.313-2.688-6-6-6h-25zm13 59c-1.657 0-3-1.343-3-3s1.343-3 3-3c1.656 0 3 1.343 3 3s-1.344 3-3 3zm13-8h-26v-45h26v45zm-497.128 5.679v-100.101h-16.1c-.568 3.813-1.759 7.007-3.562 9.581-1.805 2.573-4.014 4.646-6.624 6.221-2.614 1.573-5.557 2.67-8.833 3.289-3.277.621-6.674.883-10.188.786v15.302h25.074v64.922h20.233zm10.375-129.109c-.902.392-1.682.928-2.33 1.608-.65.681-1.152 1.488-1.506 2.422-.354.935-.53 1.941-.53 3.024 0 1.12.172 2.146.517 3.08.346.934.832 1.734 1.466 2.406.632.673 1.402 1.19 2.313 1.556.911.363 1.936.546 3.068.546 1.637 0 3.029-.373 4.185-1.12 1.153-.746 2.009-1.988 2.566-3.725h-3.487c-.13.448-.483.873-1.06 1.273-.577.401-1.267.604-2.064.604-1.116 0-1.972-.289-2.565-.868-.595-.579-.922-1.514-.977-2.8h10.404c.074-1.12-.021-2.193-.279-3.222-.26-1.024-.684-1.94-1.27-2.744-.586-.802-1.334-1.44-2.245-1.918-.911-.476-1.98-.713-3.208-.713-1.098.003-2.097.198-2.998.591zm6.039 5.487h-6.443c.02-.28.078-.597.181-.952.104-.354.278-.688.53-1.008.251-.315.586-.583 1.004-.798.418-.214.943-.322 1.576-.322.967 0 1.688.263 2.162.784.473.523.804 1.288.99 2.296zm31.854 125.48c5.033 0 9.759-.857 14.175-2.573 4.417-1.717 8.312-4.576 11.685-8.58 3.37-4.004 6.029-9.367 7.978-16.088 1.946-6.721 2.921-15.087 2.921-25.097 0-9.725-.975-17.897-2.921-24.524-1.945-6.625-4.605-11.94-7.978-15.944-3.373-4.004-7.268-6.863-11.685-8.58-4.416-1.716-9.142-2.573-14.175-2.573-4.938 0-9.616.857-14.033 2.573-4.416 1.717-8.285 4.576-11.609 8.58-3.325 4.004-5.961 9.319-7.906 15.944-1.947 6.627-2.92 14.801-2.92 24.524 0 10.01.973 18.376 2.92 25.097 1.945 6.721 4.581 12.084 7.906 16.088 3.324 4.004 7.193 6.863 11.609 8.58 4.416 1.716 9.093 2.573 14.033 2.573zm-15.957-41.97c-.189-4.051-.285-7.507-.285-10.366 0-1.717.022-3.789.071-6.222.047-2.431.214-4.934.498-7.507.285-2.574.76-5.124 1.426-7.649.663-2.525 1.589-4.791 2.777-6.793 1.187-2.003 2.707-3.622 4.56-4.862 1.854-1.237 4.153-1.858 6.909-1.858 2.753 0 5.08.621 6.98 1.858 1.897 1.24 3.466 2.859 4.701 4.862 1.231 2.002 2.157 4.268 2.776 6.793.617 2.525 1.091 5.075 1.425 7.649.331 2.573.521 5.076.569 7.507.047 2.433.071 4.505.071 6.222 0 2.859-.098 6.315-.284 10.366-.191 4.055-.784 7.963-1.781 11.728-.997 3.767-2.612 6.983-4.844 9.652-2.232 2.67-5.438 4.004-9.616 4.004-4.085 0-7.219-1.334-9.402-4.004-2.187-2.669-3.773-5.887-4.771-9.652-.996-3.767-1.591-7.675-1.78-11.728zm6.083-86.535v-2.659h-2.898v-4.341h-3.961v4.341h-2.399v2.659h2.399v8.541c0 .728.118 1.314.36 1.764.241.447.571.793.99 1.036.419.243.901.404 1.45.489.549.084 1.13.127 1.743.127.391 0 .791-.011 1.198-.028.409-.019.781-.056 1.115-.112v-3.08c-.186.038-.381.066-.585.084-.205.021-.419.028-.642.028-.67 0-1.116-.112-1.339-.336-.226-.224-.335-.672-.335-1.345v-7.168h2.904zm-26.536 136.873h-6.296v31.772h6.296v-31.772zm28.604-145.048v19.992h3.961v-7.588c0-1.475.241-2.534.726-3.178.483-.646 1.266-.967 2.345-.967.946 0 1.606.295 1.979.883.372.588.56 1.479.56 2.674v8.176h3.962v-8.903c0-.896-.08-1.713-.237-2.449-.158-.737-.434-1.363-.823-1.877-.391-.514-.925-.914-1.604-1.203-.682-.289-1.55-.435-2.608-.435-.744 0-1.507.191-2.287.573-.781.383-1.423.994-1.925 1.834h-.084v-7.532h-3.965zm46.124 11.088c0-.896-.079-1.713-.237-2.449-.158-.737-.433-1.363-.823-1.877-.39-.514-.925-.914-1.604-1.203s-1.548-.435-2.608-.435c-.837 0-1.653.191-2.455.573-.8.383-1.448.994-1.95 1.834h-.084v-2.016h-3.768v14.476h3.961v-7.588c0-1.475.241-2.534.728-3.178.481-.646 1.265-.967 2.343-.967.949 0 1.607.295 1.979.883.372.588.561 1.479.561 2.674v8.176h3.961l-.004-8.903zm-52.597 139.167v-5.206h-6.298v5.206h6.298zm-17.36 26.567h6.295v-31.772h-6.295v31.772zm23.9 18.725c-.738.236-1.436.57-2.085 1.002-.648.431-1.227.947-1.729 1.558-.504.608-.902 1.269-1.197 1.979h-.089v-4.271h-5.985v23.007h6.298v-10.368c0-1.039.103-2.003.31-2.894.207-.892.555-1.668 1.042-2.336.488-.667 1.131-1.193 1.929-1.58.799-.386 1.773-.578 2.928-.578.384 0 .781.021 1.195.065s.771.098 1.064.156v-5.875c-.503-.146-.961-.223-1.375-.223-.8.003-1.568.122-2.306.358zm-6.54-41.732h-6.298v23.007h6.298v-23.007zm20.549 22.739c1.463-.562 2.711-1.372 3.746-2.425 1.032-1.055 1.832-2.321 2.394-3.807.562-1.482.843-3.145.843-4.982 0-1.84-.279-3.509-.843-5.007-.562-1.497-1.359-2.772-2.394-3.826-1.035-1.054-2.283-1.869-3.746-2.447-1.463-.579-3.099-.868-4.899-.868s-3.429.289-4.876.868c-1.449.578-2.688 1.395-3.725 2.447-1.035 1.054-1.833 2.329-2.396 3.826-.562 1.498-.843 3.167-.843 5.007 0 1.84.28 3.5.843 4.982.562 1.483 1.358 2.752 2.396 3.807 1.033 1.053 2.273 1.86 3.725 2.425 1.447.562 3.073.846 4.876.846s3.436-.282 4.899-.846zm-9.266-6.163c-.43-.696-.73-1.483-.907-2.358-.18-.875-.268-1.771-.268-2.69s.088-1.824.268-2.716c.177-.89.479-1.675.907-2.357.43-.683.997-1.238 1.706-1.668.71-.431 1.599-.646 2.66-.646 1.064 0 1.958.216 2.684.646.725.43 1.301.985 1.729 1.668.429.684.731 1.469.909 2.357.177.892.266 1.796.266 2.716s-.089 1.815-.266 2.69c-.178.875-.48 1.662-.909 2.358-.429.697-1.005 1.254-1.729 1.669-.726.416-1.617.623-2.684.623-1.062 0-1.95-.207-2.66-.623-.708-.415-1.278-.972-1.706-1.669zm39.745-14.595c-.621-.814-1.471-1.452-2.549-1.913-1.08-.459-2.461-.689-4.146-.689-1.329 0-2.632.305-3.9.912-1.271.608-2.307 1.58-3.104 2.915h-.133v-3.204h-5.983v23.007h6.296v-12.06c0-2.345.384-4.027 1.15-5.052.77-1.023 2.012-1.534 3.727-1.534 1.507 0 2.556.467 3.146 1.4.592.936.888 2.353.888 4.25v12.993h6.296v-14.151c0-1.424-.126-2.722-.378-3.894-.255-1.171-.689-2.164-1.31-2.98zm-20.217 51.123c-.68-.488-1.456-.883-2.327-1.18-.872-.297-1.767-.549-2.683-.757-.887-.207-1.758-.399-2.615-.578s-1.618-.379-2.283-.602c-.665-.224-1.204-.513-1.618-.867-.414-.356-.619-.815-.619-1.38 0-.475.116-.854.354-1.137.236-.279.524-.494.864-.645s.716-.245 1.131-.29c.413-.044.798-.065 1.152-.065 1.121 0 2.098.217 2.926.646.827.431 1.286 1.254 1.374 2.47h5.983c-.116-1.424-.479-2.604-1.086-3.537-.604-.936-1.366-1.685-2.281-2.248-.916-.562-1.96-.963-3.128-1.199-1.166-.237-2.369-.356-3.61-.356-1.242 0-2.454.111-3.636.334-1.185.224-2.247.608-3.192 1.157-.946.549-1.707 1.298-2.283 2.247-.576.948-.864 2.166-.864 3.647 0 1.01.206 1.861.621 2.56.413.696.96 1.274 1.642 1.735.68.459 1.456.83 2.328 1.111.869.282 1.766.527 2.682.734 2.246.475 3.997.947 5.254 1.424 1.256.475 1.884 1.188 1.884 2.136 0 .564-.133 1.031-.396 1.402-.269.371-.601.667-.998.89-.398.223-.842.387-1.33.489-.487.104-.953.156-1.396.156-.62 0-1.219-.074-1.795-.224-.577-.147-1.087-.38-1.528-.688-.443-.312-.807-.713-1.088-1.202-.279-.489-.421-1.075-.421-1.758h-5.983c.06 1.543.404 2.824 1.042 3.85.636 1.024 1.447 1.848 2.438 2.471.991.623 2.12 1.067 3.394 1.334 1.271.269 2.569.4 3.899.4 1.301 0 2.578-.127 3.835-.378 1.257-.252 2.372-.69 3.349-1.312.976-.623 1.766-1.446 2.372-2.472.604-1.022.907-2.291.907-3.805 0-1.067-.207-1.965-.62-2.69-.425-.727-.972-1.335-1.651-1.823zm-66.29 0c-.68-.488-1.456-.883-2.328-1.18-.871-.297-1.766-.549-2.682-.757-.888-.207-1.759-.399-2.615-.578-.857-.179-1.619-.379-2.283-.602-.666-.224-1.205-.513-1.619-.867-.414-.356-.619-.815-.619-1.38 0-.475.117-.854.354-1.137.236-.279.524-.494.865-.645.339-.148.716-.245 1.13-.29.413-.044.798-.065 1.153-.065 1.122 0 2.098.217 2.926.646.826.431 1.285 1.254 1.374 2.47h5.983c-.117-1.424-.479-2.604-1.086-3.537-.606-.935-1.368-1.685-2.281-2.248-.917-.562-1.96-.963-3.126-1.199-1.17-.237-2.372-.356-3.613-.356s-2.454.111-3.636.334c-1.184.224-2.246.608-3.191 1.157-.946.549-1.707 1.298-2.283 2.247-.576.948-.865 2.166-.865 3.647 0 1.01.207 1.861.621 2.56s.96 1.274 1.643 1.735c.68.459 1.455.83 2.327 1.111.871.282 1.767.527 2.683.734 2.246.475 3.996.947 5.254 1.424 1.256.475 1.884 1.188 1.884 2.136 0 .564-.134 1.031-.397 1.402-.267.371-.6.667-.998.89s-.842.387-1.329.489-.953.156-1.396.156c-.621 0-1.22-.074-1.796-.224-.576-.148-1.086-.38-1.527-.688-.443-.312-.808-.713-1.086-1.202-.281-.489-.424-1.075-.424-1.758h-5.982c.059 1.543.406 2.824 1.041 3.85.636 1.022 1.447 1.848 2.438 2.471.989.623 2.12 1.067 3.393 1.334 1.271.269 2.57.4 3.9.4 1.301 0 2.578-.127 3.834-.378 1.256-.252 2.372-.69 3.35-1.312.975-.623 1.766-1.446 2.371-2.472.604-1.024.907-2.291.907-3.805 0-1.067-.207-1.965-.618-2.69-.425-.727-.972-1.335-1.651-1.823zm-16.838-48.298c.518.297.909.698 1.176 1.202.268.505.428 1.098.487 1.779.059.684.089 1.41.089 2.181v13.039h6.295v-15.396c0-1.483-.207-2.751-.621-3.806-.414-1.053-.99-1.905-1.729-2.559-.739-.653-1.625-1.127-2.66-1.424-1.035-.297-2.157-.445-3.369-.445-1.596 0-2.979.386-4.146 1.157-1.168.771-2.092 1.662-2.771 2.67-.621-1.424-1.529-2.418-2.727-2.981-1.198-.562-2.521-.846-3.97-.846-1.507 0-2.845.327-4.013.979-1.168.651-2.165 1.571-2.992 2.759h-.088v-3.115h-5.941v23.007h6.297v-13.351c0-1.127.16-2.039.486-2.736.324-.697.717-1.229 1.175-1.603.458-.37.933-.623 1.421-.757.485-.134.879-.199 1.175-.199 1.005 0 1.766.171 2.283.512.517.341.886.794 1.106 1.356.221.563.347 1.18.377 1.848.029.667.044 1.343.044 2.022v12.905h6.296v-12.815c0-.712.053-1.417.154-2.112.103-.697.311-1.32.621-1.869.31-.549.738-.994 1.285-1.335s1.264-.512 2.148-.512c.891 0 1.595.149 2.112.445zm12.826 18.201h6.295v-23.007h-6.295v23.007zm9.849-167.96c.26.028.483.062.669.099v-3.696c-.314-.093-.604-.14-.864-.14-.502 0-.984.074-1.448.225-.466.148-.902.358-1.312.63-.41.271-.771.598-1.088.979-.315.384-.567.798-.753 1.245h-.057v-2.688h-3.768v14.476h3.961v-6.522c0-.653.065-1.261.195-1.82.131-.561.35-1.05.656-1.471.307-.42.711-.75 1.213-.993.502-.243 1.116-.364 1.842-.364.242-.002.493.012.754.04zm-9.849 141.393h6.295v-5.206h-6.295v5.206zm28.984 49.121c-.932-1.273-2.121-2.291-3.567-3.049-1.448-.757-3.147-1.135-5.101-1.135-1.742 0-3.332.312-4.766.936s-2.668 1.478-3.701 2.56c-1.035 1.083-1.833 2.366-2.395 3.851-.562 1.483-.844 3.086-.844 4.807 0 1.779.272 3.412.82 4.896.546 1.483 1.322 2.759 2.327 3.826s2.231 1.892 3.68 2.47c1.448.579 3.073.868 4.876.868 2.604 0 4.817-.593 6.65-1.78 1.832-1.186 3.192-3.158 4.079-5.918h-5.542c-.207.713-.771 1.387-1.687 2.024-.917.639-2.011.957-3.278.957-1.773 0-3.136-.46-4.079-1.38-.946-.92-1.463-2.402-1.553-4.45h16.536c.117-1.779-.028-3.485-.441-5.117-.411-1.637-1.083-3.091-2.014-4.366zm-14.077 5.472c.028-.444.125-.949.287-1.514.162-.562.443-1.098.845-1.603.396-.505.931-.928 1.596-1.269.665-.342 1.5-.514 2.505-.514 1.536 0 2.684.416 3.438 1.246.754.831 1.276 2.047 1.572 3.648h-10.241l-.002.006zm366.329-114.323c56.81 4.961 83.396 21.618 83.396 21.618v-18s-40.643-5.81-85.163-8.093c66.011-12.779 122.163-60.907 122.163-60.907v-16c-47.637 39.037-104.581 73.708-150.481 75.889-4.104-.4-6.127-1.925-7.88-4.783-13.382-46.271-56.057-80.104-106.639-80.104-61.304 0-111 49.696-111 111s49.696 111 111 111 111-49.696 111-111c0-4.856-.313-9.64-.919-14.331.331-5.832 1.792-7.23 6.09-7.562 68.775 3.117 117.533 82.422 132.829 106.895v-26c-.001 0-43.497-60.946-104.396-79.622zm-101.739 72.809c0 7.627-6.211 13.812-13.87 13.812-5.103 0-9.545-2.753-11.948-6.841h-.018c-.575-.793-1.509-1.316-2.565-1.316-1.061 0-1.991.523-2.567 1.316h-.016c-2.402 4.088-6.847 6.841-11.948 6.841-5.103 0-9.543-2.753-11.948-6.841h-.017c-.576-.793-1.508-1.316-2.565-1.316-1.061 0-1.99.523-2.566 1.316h-.017c-2.403 4.088-6.848 6.841-11.948 6.841-7.66 0-13.871-6.185-13.871-13.812v-74.38c0-23.643 19.253-42.812 43-42.812 23.748 0 43 19.169 43 42.812-.003 0-.135 68.82-.136 74.38zm-24.875-89.183c-7.182 0-13.001 5.816-13.001 12.99s5.819 12.99 13.001 12.99c7.181 0 12.998-5.816 12.998-12.99s-5.817-12.99-12.998-12.99zm.008 19.992c-3.866 0-7-3.134-7-7s3.134-7 7-7c3.865 0 7 3.134 7 7s-3.135 7-7 7zm-18 28.416c9.938 0 18.632-7.899 20-17.416h-40c1.367 9.517 10.062 17.416 20 17.416zm304-123.416h-25c-3.313 0-6 2.687-6 6v51c0 3.312 2.687 6 6 6h25c3.312 0 6-2.688 6-6v-51c0-3.313-2.687-6-6-6zm-12 59c-1.657 0-3-1.343-3-3s1.343-3 3-3c1.656 0 3 1.343 3 3s-1.344 3-3 3zm13-8h-26v-45h26v45zm-17 106h-25c-3.313 0-6 2.687-6 6v51c0 3.312 2.687 6 6 6h25c3.312 0 6-2.688 6-6v-51c0-3.313-2.687-6-6-6zm-12 59c-1.657 0-3-1.344-3-3 0-1.657 1.343-3 3-3 1.656 0 3 1.343 3 3 0 1.656-1.344 3-3 3zm13-8h-26v-45h26v45zm-293.991-120.002c0-7.174-5.819-12.99-13-12.99-7.182 0-13 5.816-13 12.99s5.818 12.99 13 12.99 13-5.816 13-12.99zm-20.009.002c0-3.866 3.134-7 7-7 3.865 0 7 3.134 7 7s-3.135 7-7 7c-3.866 0-7-3.134-7-7zm-236.403 120.733c0 2.345-.385 4.026-1.15 5.051-.771 1.022-2.013 1.535-3.727 1.535-1.508 0-2.557-.469-3.146-1.4-.594-.936-.889-2.354-.889-4.25v-12.995h-6.296v14.15c0 1.424.126 2.722.377 3.894.252 1.172.688 2.166 1.311 2.981.62.814 1.47 1.445 2.549 1.892 1.078.444 2.461.667 4.146.667 1.329 0 2.631-.297 3.901-.891s2.305-1.559 3.104-2.894h.134v3.204h5.982v-23.007h-6.295l-.001 12.063zm-11.576-201.912h.058l4.882 14.026h3.376l4.881-14.168h.057v14.168h4.102v-19.991h-6.164l-4.408 13.748h-.056l-4.658-13.748h-6.167v19.992h4.101v-14.027h-.004zm3.66 268.449l4.807 12.852h-2.935l-.972-2.862h-4.807l-1.008 2.862h-2.844l4.86-12.852h2.899zm.162 7.883l-1.62-4.715h-.036l-1.674 4.715h3.33zm7.92-4.338v1.297h.054c.324-.541.744-.935 1.261-1.181.516-.245 1.044-.368 1.584-.368.684 0 1.245.094 1.683.278.438.187.783.444 1.035.774s.429.731.531 1.205c.102.475.152 1 .152 1.576v5.723h-2.556v-5.256c0-.768-.12-1.34-.36-1.719-.239-.378-.666-.566-1.277-.566-.696 0-1.2.207-1.513.621-.312.414-.468 1.095-.468 2.043v4.877h-2.556v-9.305h2.43v.001zm14.85 8.117c-.301.506-.693.867-1.18 1.09-.485.223-1.035.334-1.646.334-.696 0-1.309-.137-1.836-.406-.528-.271-.963-.635-1.306-1.098-.342-.462-.6-.992-.773-1.594-.174-.6-.261-1.225-.261-1.872 0-.623.087-1.228.261-1.81s.432-1.094.773-1.538c.343-.443.771-.802 1.287-1.071.517-.27 1.116-.404 1.8-.404.553 0 1.077.116 1.575.352.498.234.892.578 1.18 1.035h.035v-4.68h2.557v12.852h-2.431v-1.188l-.035-.002zm-.108-4.599c-.072-.354-.195-.666-.369-.937s-.398-.488-.675-.656-.624-.252-1.044-.252-.774.084-1.062.252-.519.39-.692.666c-.174.275-.3.59-.378.944s-.117.724-.117 1.106c0 .359.042.72.126 1.08.084.359.219.682.405.963.186.281.42.511.701.685.282.175.621.261 1.018.261.42 0 .771-.084 1.053-.252s.507-.394.675-.675c.168-.282.288-.604.36-.964s.108-.73.108-1.115c-.001-.383-.037-.751-.109-1.106zm6.929-3.518v1.729h.036c.12-.288.282-.555.486-.801s.438-.457.702-.631c.264-.174.546-.309.846-.404s.612-.145.936-.145c.167 0 .354.029.559.09v2.377l-.433-.063c-.168-.019-.331-.026-.485-.026-.468 0-.864.078-1.188.233s-.585.369-.783.64c-.197.271-.339.586-.423.944-.084.36-.126.75-.126 1.17v4.194h-2.556v-9.307h2.429zm4.302 2.636c.228-.605.552-1.123.972-1.549s.924-.756 1.512-.989c.588-.234 1.248-.351 1.98-.351.73 0 1.395.115 1.988.351.595.235 1.102.563 1.521.989s.744.942.972 1.549c.229.605.342 1.281.342 2.024 0 .744-.113 1.416-.342 2.017-.228.601-.552 1.113-.972 1.539s-.927.752-1.521.979c-.594.229-1.257.343-1.988.343-.732 0-1.394-.113-1.98-.343-.588-.228-1.092-.555-1.512-.979-.42-.426-.744-.938-.972-1.539-.229-.601-.343-1.271-.343-2.017s.115-1.417.343-2.024zm2.322 3.116c.072.354.195.672.369.953s.405.508.693.676.647.252 1.08.252c.432 0 .794-.084 1.089-.252.294-.168.527-.395.702-.676.174-.281.297-.601.368-.953.072-.354.108-.718.108-1.09 0-.371-.036-.738-.108-1.099-.071-.358-.194-.679-.368-.954-.175-.275-.408-.501-.702-.675-.294-.175-.657-.261-1.089-.261-.433 0-.792.086-1.08.261-.288.174-.521.399-.693.675-.174.275-.297.596-.369.954-.071.36-.107.728-.107 1.099-.001.372.035.734.107 1.09zm8.694-7.193v-2.104h2.556v2.104h-2.556zm2.556 1.441v9.307h-2.556v-9.307h2.556zm8.622 8.117c-.3.506-.692.867-1.179 1.09s-1.035.334-1.647.334c-.695 0-1.308-.137-1.836-.406-.527-.271-.963-.635-1.305-1.098-.342-.462-.6-.992-.774-1.594-.174-.6-.261-1.225-.261-1.872 0-.623.087-1.228.261-1.81.175-.582.433-1.094.774-1.538.342-.443.771-.802 1.287-1.071.516-.27 1.116-.404 1.8-.404.552 0 1.077.116 1.575.352.498.234.891.578 1.179 1.035h.036v-4.68h2.556v12.852h-2.43v-1.188l-.036-.002zm-.108-4.599c-.072-.354-.195-.666-.369-.937s-.399-.488-.675-.656c-.276-.168-.624-.252-1.045-.252-.42 0-.773.084-1.062.252s-.519.39-.693.666c-.174.275-.3.59-.378.944s-.117.724-.117 1.106c0 .359.042.72.126 1.08.085.359.22.682.405.963.187.281.42.511.702.685.282.175.621.261 1.017.261.421 0 .771-.084 1.054-.252s.507-.394.675-.675c.168-.282.288-.604.36-.964.071-.359.107-.73.107-1.115.001-.383-.035-.751-.107-1.106zm7.002-7.063v5.776h-1.927v-5.776h1.927zm4.653 10.537c.114.198.262.36.441.486s.387.22.621.279c.233.059.477.09.729.09.181 0 .369-.021.567-.063.198-.041.378-.106.54-.196s.297-.211.405-.36c.107-.149.161-.339.161-.567 0-.384-.255-.672-.765-.863s-1.221-.383-2.133-.576c-.372-.084-.735-.182-1.089-.297-.354-.113-.669-.264-.945-.449s-.498-.42-.666-.702c-.168-.281-.252-.627-.252-1.035 0-.601.117-1.092.351-1.476.234-.385.543-.688.928-.909.384-.222.815-.378 1.296-.468.479-.09.972-.135 1.476-.135s.993.047 1.467.144c.475.097.897.258 1.27.485.372.229.681.53.927.91.246.377.394.854.441 1.43h-2.431c-.035-.491-.222-.824-.558-.998s-.732-.262-1.188-.262l-.469.026c-.168.019-.32.058-.459.117-.138.062-.255.147-.351.261-.096.114-.145.268-.145.459 0 .229.084.414.252.559s.388.262.657.352c.271.09.579.171.927.243l1.062.233c.372.084.735.187 1.089.307.354.119.669.279.945.477.275.198.498.444.666.738s.252.657.252 1.089c0 .612-.123 1.125-.369 1.539s-.567.747-.963.999-.85.43-1.359.531-1.028.152-1.557.152c-.54 0-1.068-.055-1.584-.162-.517-.107-.976-.287-1.377-.539-.402-.252-.732-.586-.99-1s-.399-.934-.423-1.558h2.43c.002.274.059.512.173.709zm21.033-7.11c-.168-.271-.378-.508-.63-.711-.252-.205-.537-.363-.855-.479-.317-.113-.65-.171-.999-.171-.636 0-1.176.123-1.619.369-.444.245-.805.575-1.08.989-.276.414-.478.886-.604 1.414-.126.527-.188 1.073-.188 1.638 0 .54.062 1.065.188 1.575s.327.969.604 1.377c.275.408.636.734 1.08.979.443.246.983.369 1.619.369.864 0 1.539-.265 2.025-.792s.783-1.225.891-2.088h2.736c-.072.805-.258 1.529-.558 2.178s-.696 1.2-1.188 1.656-1.067.805-1.728 1.044-1.387.36-2.179.36c-.983 0-1.868-.172-2.654-.514-.786-.343-1.449-.812-1.989-1.412-.54-.602-.954-1.307-1.242-2.115-.288-.812-.432-1.684-.432-2.619 0-.96.144-1.852.432-2.674.288-.821.702-1.539 1.242-2.15s1.203-1.092 1.989-1.439c.786-.349 1.671-.521 2.654-.521.708 0 1.378.104 2.008.307.63.204 1.193.502 1.691.891.498.391.909.873 1.233 1.449s.528 1.235.612 1.979h-2.736c-.047-.322-.155-.619-.323-.889zm8.262 12.196c-.491.323-1.176.485-2.052.485-.264 0-.524-.009-.783-.026l-.782-.062v-2.106l.737.072c.252.024.504.03.756.019.335-.035.585-.168.747-.396s.243-.479.243-.756c0-.204-.036-.396-.107-.576l-3.259-8.729h2.719l2.105 6.373h.036l2.034-6.373h2.646l-3.888 10.459c-.277.751-.66 1.292-1.152 1.616zm5.795-9.217c.036-.6.187-1.098.45-1.494.265-.396.601-.713 1.008-.953.408-.24.867-.41 1.377-.514.511-.102 1.022-.152 1.539-.152.469 0 .942.033 1.423.1.479.066.918.195 1.313.387.396.191.72.459.972.801.252.344.378.797.378 1.359v4.842c0 .421.024.822.072 1.206.048.385.132.673.252.864h-2.592c-.048-.145-.087-.291-.117-.441-.029-.148-.051-.303-.062-.459-.408.421-.889.715-1.44.883s-1.116.252-1.691.252c-.444 0-.858-.055-1.242-.162s-.721-.275-1.008-.504c-.288-.229-.514-.517-.676-.863-.162-.348-.242-.762-.242-1.242 0-.527.093-.963.278-1.305.187-.342.426-.615.721-.819.294-.204.63-.356 1.008-.459s.759-.183 1.143-.243.762-.107 1.134-.145.702-.09.99-.162c.288-.071.517-.176.685-.314.168-.138.245-.339.233-.604 0-.275-.045-.494-.135-.656s-.21-.288-.36-.378c-.149-.091-.323-.149-.521-.181-.198-.029-.411-.045-.64-.045-.504 0-.899.107-1.188.323-.288.218-.456.576-.504 1.08l-2.558-.002zm5.905 1.891c-.107.097-.243.172-.405.226-.161.054-.336.099-.521.135l-.585.091-.612.09c-.191.037-.381.084-.566.145-.188.061-.349.143-.486.243-.138.102-.249.231-.333.387-.084.156-.126.354-.126.595 0 .229.042.42.126.575.084.156.198.279.342.369.145.09.312.153.504.188.192.037.391.055.594.055.505 0 .895-.084 1.171-.252.275-.168.479-.369.611-.604.132-.233.213-.471.243-.711.03-.239.045-.432.045-.575v-.957h-.002zm6.965-4.752v1.297h.055c.323-.541.743-.935 1.26-1.181.516-.245 1.044-.368 1.584-.368.684 0 1.245.094 1.683.278.438.187.783.444 1.035.774s.429.731.531 1.205c.102.475.153 1 .153 1.576v5.723h-2.557v-5.256c0-.768-.12-1.34-.359-1.719-.24-.378-.666-.566-1.278-.566-.696 0-1.2.207-1.512.621-.312.414-.469 1.095-.469 2.043v4.877h-2.556v-9.305h2.43v.001zm8.298 2.636c.229-.605.553-1.123.973-1.549s.924-.756 1.512-.989c.588-.234 1.248-.351 1.98-.351.73 0 1.395.115 1.988.351.595.235 1.102.563 1.521.989s.744.942.972 1.549c.229.605.342 1.281.342 2.024 0 .744-.113 1.416-.342 2.017-.228.601-.552 1.113-.972 1.539s-.927.752-1.521.979c-.594.229-1.257.343-1.988.343-.732 0-1.394-.113-1.98-.343-.588-.228-1.092-.555-1.512-.979-.42-.426-.744-.938-.973-1.539-.228-.601-.342-1.271-.342-2.017s.114-1.417.342-2.024zm2.323 3.116c.072.354.195.672.369.953s.405.508.693.676.647.252 1.08.252c.432 0 .794-.084 1.089-.252.294-.168.527-.395.702-.676.174-.281.297-.601.368-.953.072-.354.108-.718.108-1.09 0-.371-.036-.738-.108-1.099-.071-.358-.194-.679-.368-.954-.175-.275-.408-.501-.702-.675-.294-.175-.657-.261-1.089-.261-.433 0-.792.086-1.08.261-.288.174-.521.399-.693.675-.174.275-.297.596-.369.954-.071.36-.107.728-.107 1.099-.001.372.034.734.107 1.09zm17.414 4.237c-.102.479-.321.929-.657 1.343s-.821.764-1.458 1.053c-.636.287-1.487.432-2.556.432-.457 0-.921-.057-1.395-.171-.476-.114-.906-.291-1.297-.531-.39-.239-.714-.549-.972-.927s-.405-.831-.44-1.357h2.537c.12.479.354.812.702.998.349.187.75.278 1.206.278.721 0 1.245-.216 1.575-.647.33-.433.489-.979.478-1.639v-1.225h-.036c-.276.492-.669.854-1.18 1.09-.51.234-1.047.352-1.61.352-.696 0-1.296-.123-1.8-.369-.505-.246-.919-.582-1.242-1.009-.324-.426-.562-.924-.711-1.493-.15-.57-.226-1.173-.226-1.81 0-.601.087-1.179.261-1.735.175-.56.43-1.052.766-1.478.336-.427.753-.765 1.251-1.017s1.071-.379 1.719-.379c.612 0 1.149.114 1.611.342.462.229.849.613 1.161 1.151h.036v-1.241h2.43v8.713c0 .371-.051.796-.153 1.276zm-3.501-3.096c.276-.144.504-.336.685-.576.18-.239.314-.513.404-.817.09-.308.136-.627.136-.964 0-.385-.036-.747-.108-1.09-.072-.342-.192-.646-.36-.907-.168-.266-.39-.476-.666-.632-.275-.155-.624-.233-1.044-.233-.359 0-.669.072-.927.217-.258.144-.474.339-.648.585-.174.245-.3.528-.378.846s-.116.651-.116.999c0 .336.032.669.099.999s.18.628.342.892c.162.265.375.479.639.647.265.168.595.252.99.252.358-.002.676-.072.952-.218zm8.442.18c.384.372.936.56 1.656.56.516 0 .96-.129 1.331-.388.372-.259.601-.53.685-.819h2.25c-.36 1.117-.912 1.914-1.656 2.395s-1.645.721-2.7.721c-.731 0-1.392-.117-1.979-.352-.588-.232-1.086-.566-1.494-.999s-.723-.947-.945-1.548c-.222-.6-.333-1.26-.333-1.979 0-.697.114-1.346.343-1.945.228-.598.552-1.118.972-1.557.42-.438.921-.783 1.503-1.035s1.227-.377 1.935-.377c.792 0 1.482.151 2.07.459.587.306 1.071.717 1.449 1.231.378.517.65 1.104.818 1.765.169.659.229 1.351.181 2.069h-6.714c.034.827.244 1.429.628 1.799zm2.889-4.896c-.306-.336-.771-.504-1.395-.504-.408 0-.747.068-1.018.207-.27.138-.485.309-.647.513s-.276.42-.343.647c-.065.229-.104.433-.116.611h4.157c-.119-.646-.332-1.138-.638-1.474zm7.136-2.177v1.297h.055c.323-.541.744-.935 1.26-1.181.516-.245 1.044-.368 1.584-.368.684 0 1.245.094 1.683.278.438.187.783.444 1.035.774s.429.731.531 1.205c.102.475.153 1 .153 1.576v5.723h-2.557v-5.256c0-.768-.12-1.34-.359-1.719-.24-.378-.666-.566-1.278-.566-.696 0-1.2.207-1.512.621-.312.414-.469 1.095-.469 2.043v4.877h-2.556v-9.305h2.43v.001zm10.728 0v1.26h.036c.335-.479.74-.852 1.215-1.115.474-.264 1.017-.396 1.629-.396.588 0 1.125.114 1.611.342.485.229.854.631 1.106 1.207.276-.408.65-.769 1.125-1.08.475-.312 1.035-.469 1.684-.469.491 0 .947.061 1.367.18.42.121.78.312 1.08.576.301.265.534.609.702 1.035.167.426.252.938.252 1.539v6.229h-2.556v-5.274c0-.312-.012-.604-.036-.882-.024-.275-.09-.516-.198-.72-.107-.204-.267-.366-.477-.486-.21-.119-.495-.18-.855-.18-.359 0-.65.069-.873.207-.222.138-.396.317-.521.54-.126.222-.21.474-.252.756-.042.281-.063.566-.063.855v5.184h-2.556v-5.221c0-.275-.006-.549-.019-.818-.012-.27-.062-.52-.152-.747s-.24-.411-.45-.549-.519-.207-.927-.207c-.12 0-.279.026-.478.081-.197.054-.39.156-.576.306-.186.149-.345.366-.477.647-.132.283-.198.651-.198 1.106v5.4h-2.555v-9.306h2.412zm13.878 2.636c.228-.605.552-1.123.972-1.549s.924-.756 1.512-.989c.589-.234 1.248-.351 1.98-.351.731 0 1.395.115 1.989.351.594.235 1.101.563 1.521.989s.744.942.973 1.549c.228.605.342 1.281.342 2.024 0 .744-.114 1.416-.342 2.017-.229.601-.553 1.113-.973 1.539s-.927.752-1.521.979c-.594.229-1.257.343-1.989.343s-1.393-.113-1.98-.343c-.588-.228-1.092-.555-1.512-.979-.42-.426-.744-.938-.972-1.539-.229-.601-.342-1.271-.342-2.017s.114-1.417.342-2.024zm2.323 3.116c.071.354.194.672.368.953.175.281.405.508.693.676s.648.252 1.08.252.794-.084 1.089-.252c.294-.168.528-.395.702-.676s.297-.601.369-.953c.072-.354.107-.718.107-1.09 0-.371-.035-.738-.107-1.099-.072-.358-.195-.679-.369-.954s-.408-.501-.702-.675c-.294-.175-.657-.261-1.089-.261s-.792.086-1.08.261c-.288.174-.52.399-.693.675s-.297.596-.368.954c-.072.36-.108.728-.108 1.099 0 .372.035.734.108 1.09zm15.227 2.365c-.3.506-.693.867-1.179 1.09-.486.223-1.035.334-1.647.334-.695 0-1.308-.137-1.836-.406-.527-.271-.963-.635-1.305-1.098-.342-.462-.6-.992-.774-1.594-.174-.6-.261-1.225-.261-1.872 0-.623.087-1.228.261-1.81.175-.582.433-1.094.774-1.538.342-.443.771-.802 1.287-1.071.516-.27 1.116-.404 1.8-.404.552 0 1.077.116 1.575.352.498.234.891.578 1.179 1.035h.036v-4.68h2.556v12.852h-2.43v-1.188l-.036-.002zm-.108-4.599c-.072-.354-.195-.666-.369-.937-.175-.271-.399-.488-.676-.656-.275-.168-.623-.252-1.044-.252-.42 0-.773.084-1.062.252s-.52.39-.693.666c-.174.275-.3.59-.378.944s-.117.724-.117 1.106c0 .359.042.72.126 1.08.084.359.22.682.405.963.187.281.42.511.702.685.282.175.621.261 1.017.261.421 0 .771-.084 1.054-.252.281-.168.507-.394.675-.675.168-.282.288-.604.36-.964.071-.359.107-.73.107-1.115.001-.383-.035-.751-.107-1.106zm11.988-3.518v1.26h.036c.335-.479.741-.852 1.215-1.115.475-.264 1.018-.396 1.629-.396.588 0 1.125.114 1.611.342.486.229.855.631 1.107 1.207.275-.408.649-.769 1.125-1.08.474-.312 1.034-.469 1.683-.469.492 0 .948.061 1.368.18.42.121.78.312 1.08.576.3.265.534.609.702 1.035.167.426.252.938.252 1.539v6.229h-2.557v-5.274c0-.312-.012-.604-.036-.882-.023-.275-.09-.516-.197-.72-.108-.204-.268-.366-.478-.486-.21-.119-.495-.18-.854-.18-.36 0-.651.069-.873.207-.223.138-.396.317-.522.54-.126.222-.21.474-.252.756-.042.281-.062.566-.062.855v5.184h-2.557v-5.221c0-.275-.006-.549-.018-.818s-.063-.52-.153-.747-.24-.411-.45-.549-.519-.207-.927-.207c-.12 0-.279.026-.477.081-.198.054-.391.156-.576.306-.187.149-.345.366-.478.647-.132.283-.197.651-.197 1.106v5.4h-2.557v-9.306h2.413zm13.878 2.636c.229-.605.552-1.123.972-1.549s.925-.756 1.513-.989c.588-.234 1.248-.351 1.979-.351s1.396.115 1.989.351 1.101.563 1.521.989c.421.426.744.942.973 1.549.228.605.342 1.281.342 2.024 0 .744-.114 1.416-.342 2.017-.229.601-.553 1.113-.973 1.539s-.927.752-1.521.979c-.594.229-1.257.343-1.989.343-.731 0-1.393-.113-1.979-.343-.588-.228-1.093-.555-1.513-.979-.42-.426-.743-.938-.972-1.539-.228-.601-.342-1.271-.342-2.017s.114-1.417.342-2.024zm2.322 3.116c.071.354.194.672.369.953.174.281.404.508.692.676s.648.252 1.08.252c.433 0 .794-.084 1.089-.252.294-.168.528-.395.702-.676s.297-.601.369-.953c.072-.354.108-.718.108-1.09 0-.371-.036-.738-.108-1.099-.072-.358-.195-.679-.369-.954s-.408-.501-.702-.675c-.294-.175-.657-.261-1.089-.261s-.792.086-1.08.261c-.288.174-.52.399-.692.675-.175.275-.298.596-.369.954-.072.36-.108.728-.108 1.099 0 .372.036.734.108 1.09zm11.177-9.297v4.68h.036c.312-.479.735-.832 1.269-1.053.534-.224 1.09-.334 1.665-.334.469 0 .931.096 1.387.288.456.191.866.485 1.232.882s.663.902.892 1.521c.228.619.342 1.354.342 2.205 0 .853-.114 1.587-.342 2.205-.229.617-.525 1.125-.892 1.521s-.776.688-1.232.882c-.456.191-.918.288-1.387.288-.684 0-1.296-.108-1.836-.323-.54-.217-.947-.582-1.224-1.1h-.036v1.188h-2.43v-12.852h2.556v.002zm4.14 7.072c-.084-.359-.216-.678-.396-.954-.18-.274-.405-.493-.675-.655-.271-.162-.598-.244-.981-.244-.372 0-.696.082-.972.244-.276.161-.504.381-.685.655-.18.276-.312.595-.396.954s-.126.738-.126 1.135c0 .385.042.756.126 1.115s.216.68.396.954c.181.276.408.495.685.657.275.162.6.242.972.242.384 0 .711-.08.981-.242.27-.162.495-.381.675-.657.18-.274.312-.595.396-.954s.126-.73.126-1.115c0-.397-.042-.776-.126-1.135zm4.374-4.968v-2.104h2.557v2.104h-2.557zm2.557 1.441v9.307h-2.557v-9.307h2.557zm4.644-3.545v12.852h-2.556v-12.852h2.556zm4.751 10.618c.384.372.937.56 1.656.56.516 0 .96-.129 1.332-.388s.6-.53.684-.819h2.25c-.359 1.117-.912 1.914-1.655 2.395-.744.48-1.646.721-2.7.721-.732 0-1.393-.117-1.98-.352-.588-.232-1.086-.566-1.494-.999-.407-.433-.723-.947-.944-1.548-.223-.6-.333-1.26-.333-1.979 0-.697.113-1.346.342-1.945.228-.598.552-1.118.972-1.557.42-.438.921-.783 1.503-1.035s1.228-.377 1.936-.377c.792 0 1.481.151 2.069.459.588.306 1.071.717 1.449 1.231.378.517.651 1.104.819 1.765.168.659.228 1.351.18 2.069h-6.714c.034.827.244 1.429.628 1.799zm2.889-4.896c-.307-.336-.771-.504-1.396-.504-.408 0-.747.068-1.017.207-.271.138-.486.309-.648.513s-.275.42-.342.647c-.066.229-.105.433-.117.611h4.158c-.119-.646-.332-1.138-.638-1.474zm9.855-1.918c.288-.821.702-1.539 1.242-2.15s1.203-1.092 1.989-1.439c.784-.349 1.67-.521 2.653-.521.996 0 1.886.174 2.664.521.781.349 1.441.828 1.98 1.439s.953 1.329 1.242 2.15c.286.822.432 1.714.432 2.674 0 .938-.146 1.809-.432 2.619-.289.81-.703 1.515-1.242 2.115-.539.6-1.199 1.069-1.98 1.412-.778.342-1.668.514-2.664.514-.983 0-1.869-.172-2.653-.514-.786-.343-1.449-.812-1.989-1.412-.54-.602-.954-1.307-1.242-2.115-.288-.812-.432-1.684-.432-2.619 0-.96.144-1.849.432-2.674zm2.583 4.248c.127.511.326.97.604 1.377.274.408.635.735 1.079.98.443.246.984.369 1.619.369.638 0 1.177-.123 1.621-.369.443-.244.803-.572 1.08-.98.275-.407.478-.866.603-1.377.127-.51.188-1.035.188-1.574 0-.563-.062-1.109-.188-1.639-.125-.527-.326-.998-.603-1.412-.277-.414-.637-.744-1.08-.99-.444-.246-.983-.369-1.621-.369-.635 0-1.176.123-1.619.369-.444.246-.805.576-1.079.99-.277.414-.478.885-.604 1.412-.125.528-.188 1.074-.188 1.639-.002.539.063 1.067.188 1.574zm13.708 1.629c.155.301.362.543.621.729.258.187.561.324.908.414.349.091.708.136 1.08.136.252 0 .521-.021.811-.062s.559-.123.811-.243c.252-.119.462-.284.63-.495.168-.209.252-.477.252-.801 0-.348-.11-.63-.333-.846-.223-.217-.514-.396-.873-.541s-.769-.271-1.225-.377c-.456-.108-.918-.229-1.386-.36-.479-.119-.948-.267-1.404-.44-.455-.173-.863-.398-1.224-.676-.36-.275-.651-.619-.873-1.033-.223-.414-.333-.916-.333-1.504 0-.66.142-1.232.423-1.72.281-.485.65-.892 1.106-1.215.456-.324.973-.563 1.549-.72.575-.156 1.151-.234 1.729-.234.672 0 1.315.075 1.936.227.617.148 1.166.393 1.646.729.479.336.86.766 1.143 1.287s.424 1.154.424 1.898h-2.736c-.023-.385-.104-.701-.242-.953-.139-.252-.321-.451-.55-.596s-.488-.244-.782-.306c-.294-.06-.615-.091-.963-.091-.229 0-.456.024-.685.072-.229.049-.436.133-.621.252-.187.121-.34.271-.459.449-.12.182-.181.408-.181.686 0 .252.048.455.145.611.097.155.285.301.566.432.282.133.672.265 1.171.396.497.133 1.148.301 1.952.506.24.047.573.135.999.26.426.127.85.328 1.27.604s.783.646 1.089 1.107c.307.461.459 1.053.459 1.771 0 .59-.113 1.135-.342 1.639s-.566.938-1.018 1.306c-.449.366-1.008.651-1.674.854s-1.438.307-2.312.307c-.708 0-1.396-.088-2.062-.262s-1.255-.447-1.765-.818c-.511-.372-.915-.846-1.215-1.422-.301-.576-.444-1.26-.433-2.053h2.735c.001.43.079.798.236 1.096zm20.554 3.168v-1.295h-.055c-.324.539-.744.93-1.26 1.17-.517.24-1.043.359-1.584.359-.685 0-1.244-.091-1.683-.271-.438-.181-.782-.435-1.034-.765-.253-.33-.431-.732-.531-1.207-.104-.474-.154-.998-.154-1.574v-5.725h2.558v5.256c0 .769.118 1.342.358 1.72s.666.567 1.279.567c.694 0 1.199-.207 1.512-.621.313-.414.469-1.096.469-2.043v-4.879h2.556v9.307h-2.431v.001zm6.527-2.312c.113.198.26.36.441.486.18.126.387.22.618.279.234.06.479.09.73.09.18 0 .369-.021.566-.063.196-.041.379-.106.541-.196.159-.09.297-.211.403-.36.107-.149.162-.339.162-.567 0-.384-.256-.672-.766-.863-.511-.191-1.222-.383-2.133-.576-.371-.084-.734-.182-1.091-.297-.354-.113-.668-.264-.942-.449-.277-.186-.498-.42-.666-.702-.168-.281-.252-.627-.252-1.035 0-.601.117-1.092.35-1.476.234-.385.543-.688.928-.909.386-.222.816-.378 1.295-.468.48-.09.974-.135 1.478-.135s.994.047 1.467.144c.476.097.898.258 1.271.485.371.229.682.53.928.91.246.377.393.854.438 1.43h-2.43c-.035-.491-.221-.824-.557-.998s-.732-.262-1.189-.262l-.467.026c-.168.019-.322.058-.459.117-.139.062-.256.147-.352.261-.097.114-.146.268-.146.459 0 .229.084.414.252.559s.387.262.658.352c.27.09.578.171.926.243.348.071.703.149 1.062.233.371.084.733.187 1.09.307.354.119.668.279.942.477.277.198.498.444.666.738s.252.657.252 1.089c0 .612-.122 1.125-.366 1.539-.246.414-.568.747-.966.999-.395.252-.848.43-1.356.531-.512.102-1.029.152-1.557.152-.541 0-1.068-.055-1.587-.162-.516-.107-.975-.287-1.377-.539-.399-.252-.729-.586-.987-1-.261-.414-.4-.934-.424-1.558h2.43c.004.274.06.512.176.709zm10.25.081c.385.372.936.56 1.656.56.516 0 .961-.129 1.332-.388s.6-.53.684-.819h2.25c-.359 1.117-.912 1.914-1.656 2.395-.743.48-1.643.721-2.698.721-.732 0-1.394-.117-1.98-.352-.588-.232-1.086-.566-1.494-.999s-.723-.947-.942-1.548c-.224-.6-.334-1.26-.334-1.979 0-.697.112-1.346.342-1.945.229-.598.553-1.118.973-1.557.42-.438.92-.783 1.502-1.035s1.228-.377 1.937-.377c.793 0 1.481.151 2.069.459.588.306 1.07.717 1.449 1.231.377.517.65 1.104.818 1.765.168.659.229 1.351.18 2.069h-6.717c.035.827.246 1.429.629 1.799zm2.887-4.896c-.305-.336-.77-.504-1.395-.504-.408 0-.746.068-1.019.207-.27.138-.483.309-.646.513s-.277.42-.342.647c-.066.229-.105.433-.117.611h4.158c-.118-.646-.331-1.138-.639-1.474zm6.859 4.815c.115.198.262.36.441.486s.387.22.62.279c.234.059.478.09.729.09.18 0 .369-.021.568-.063.196-.041.377-.106.538-.196.162-.09.298-.211.404-.36.109-.149.162-.339.162-.567 0-.384-.254-.672-.764-.863-.513-.191-1.224-.383-2.134-.576-.372-.084-.735-.182-1.09-.297-.354-.113-.67-.264-.944-.449-.275-.186-.498-.42-.666-.702-.168-.281-.252-.627-.252-1.035 0-.601.116-1.092.352-1.476.235-.385.543-.688.926-.909.386-.222.816-.378 1.297-.468.481-.09.974-.135 1.478-.135s.992.047 1.467.144c.473.097.896.258 1.271.485.37.229.68.53.926.91.246.377.393.854.44 1.43h-2.43c-.037-.491-.223-.824-.559-.998s-.732-.262-1.188-.262l-.469.026c-.168.019-.32.058-.459.117-.137.062-.254.147-.351.261-.098.114-.145.268-.145.459 0 .229.084.414.252.559s.387.262.656.352c.269.09.58.171.928.243l1.062.233c.37.084.733.187 1.088.307.354.119.67.279.944.477.275.198.498.444.666.738s.252.657.252 1.089c0 .612-.123 1.125-.368 1.539-.246.414-.566.747-.964.999-.396.252-.85.43-1.358.531-.509.101-1.029.152-1.558.152-.538 0-1.067-.055-1.584-.162-.516-.107-.975-.287-1.377-.539-.401-.252-.731-.586-.989-1-.259-.414-.398-.934-.423-1.558h2.431c.004.274.06.512.174.709zm12.412-4.131c.035-.6.186-1.098.449-1.494s.6-.713 1.008-.953.867-.41 1.377-.514c.51-.102 1.022-.152 1.539-.152.469 0 .94.033 1.422.1.479.066.918.195 1.313.387.396.191.722.459.974.801.252.344.377.797.377 1.359v4.842c0 .421.022.822.072 1.206.047.385.133.673.252.864h-2.593c-.049-.145-.088-.291-.116-.441-.029-.148-.052-.303-.062-.459-.408.421-.889.715-1.441.883-.551.168-1.114.252-1.69.252-.443 0-.857-.055-1.242-.162-.383-.107-.719-.275-1.008-.504-.287-.229-.512-.517-.674-.863-.162-.348-.244-.762-.244-1.242 0-.527.094-.963.279-1.305.185-.342.426-.615.721-.819.293-.204.629-.356 1.008-.459.377-.103.758-.183 1.143-.243.386-.061.763-.107 1.136-.145.371-.035.701-.09.987-.162.289-.071.519-.176.687-.314.168-.138.246-.339.231-.604 0-.275-.045-.494-.135-.656s-.209-.288-.358-.378c-.15-.091-.324-.149-.521-.181-.199-.029-.412-.045-.639-.045-.504 0-.9.107-1.189.323-.287.218-.455.576-.504 1.08l-2.559-.002zm5.901 1.891c-.106.097-.241.172-.403.226s-.336.099-.521.135l-.586.091-.61.09c-.191.037-.382.084-.566.145-.188.061-.35.143-.486.243-.139.102-.25.231-.334.387-.084.156-.125.354-.125.595 0 .229.041.42.125.575.084.156.199.279.342.369.146.09.312.153.505.188.192.037.391.055.596.055.504 0 .893-.084 1.17-.252.275-.168.479-.369.611-.604.133-.233.213-.471.241-.711.031-.239.046-.432.046-.575v-.955h-.005zm13.987-3.079c-.408 0-.75.093-1.024.278-.275.187-.503.427-.677.72-.174.295-.297.619-.369.973-.069.354-.106.705-.106 1.053 0 .337.037.68.106 1.025.072.35.189.664.353.945.163.282.381.514.658.692.274.181.61.271 1.008.271.611 0 1.082-.17 1.412-.513s.537-.802.621-1.378h2.467c-.168 1.236-.648 2.18-1.441 2.826-.791.648-1.805.973-3.041.973-.696 0-1.336-.117-1.918-.352-.582-.233-1.076-.561-1.483-.98-.408-.419-.728-.921-.953-1.503-.229-.581-.345-1.222-.345-1.917 0-.721.105-1.39.316-2.008.209-.617.519-1.15.926-1.602.408-.451.906-.801 1.494-1.053s1.26-.379 2.017-.379c.553 0 1.084.071 1.594.217.51.144.967.362 1.369.656.399.295.729.659.979 1.098.251.439.396.957.433 1.558h-2.503c-.171-1.064-.802-1.6-1.893-1.6zm5.942.963c.227-.605.551-1.123.971-1.549s.924-.756 1.512-.989c.588-.234 1.248-.351 1.98-.351.731 0 1.395.115 1.988.351.596.233 1.102.563 1.521.989s.744.942.973 1.549c.229.605.343 1.281.343 2.024 0 .744-.113 1.416-.343 2.017-.229.601-.553 1.113-.973 1.539s-.926.752-1.521.979c-.595.229-1.257.343-1.988.343-.732 0-1.394-.113-1.98-.343-.588-.228-1.092-.555-1.512-.979-.42-.426-.744-.938-.971-1.539-.229-.601-.345-1.271-.345-2.017s.116-1.417.345-2.024zm2.319 3.116c.072.354.195.672.369.953s.406.508.693.676c.289.168.647.252 1.08.252.432 0 .795-.084 1.09-.252.293-.168.527-.395.701-.676s.297-.601.369-.953c.071-.354.106-.718.106-1.09 0-.371-.035-.738-.106-1.099-.072-.358-.195-.679-.369-.954s-.408-.501-.701-.675c-.295-.175-.658-.261-1.09-.261-.433 0-.791.086-1.08.261-.287.174-.521.399-.693.675-.174.275-.297.596-.369.954-.069.36-.106.728-.106 1.099 0 .372.037.734.106 1.09zm15.23 2.365c-.299.506-.693.867-1.178 1.09-.486.223-1.035.334-1.648.334-.695 0-1.307-.137-1.836-.406-.527-.271-.963-.635-1.305-1.098-.343-.462-.601-.992-.773-1.594-.174-.6-.262-1.225-.262-1.872 0-.623.088-1.228.262-1.81s.432-1.094.773-1.538c.342-.443.771-.802 1.287-1.071.516-.27 1.114-.404 1.801-.404.551 0 1.076.116 1.574.352.498.234.891.578 1.18 1.035h.035v-4.68h2.557v12.852h-2.43v-1.188l-.037-.002zm-.109-4.599c-.071-.354-.194-.666-.369-.937-.174-.271-.397-.488-.676-.656-.274-.168-.623-.252-1.043-.252s-.772.084-1.062.252c-.287.168-.521.39-.693.666-.173.275-.299.59-.377.944s-.117.724-.117 1.106c0 .359.041.72.125 1.08.084.359.219.682.406.963.186.281.42.511.701.685.28.175.621.261 1.018.261.42 0 .771-.084 1.053-.252.282-.168.507-.394.677-.675.168-.282.287-.604.358-.964.072-.359.107-.73.107-1.115.001-.383-.035-.751-.108-1.106zm7.236 3.555c.385.372.936.56 1.656.56.516 0 .961-.129 1.332-.388s.6-.53.684-.819h2.25c-.359 1.117-.912 1.914-1.656 2.395s-1.643.721-2.698.721c-.732 0-1.394-.117-1.98-.352-.588-.232-1.086-.566-1.494-.999s-.723-.947-.942-1.548c-.224-.6-.334-1.26-.334-1.979 0-.697.112-1.346.342-1.945.229-.598.553-1.118.973-1.557.42-.438.92-.783 1.502-1.035s1.228-.377 1.937-.377c.793 0 1.481.151 2.069.459.588.306 1.07.717 1.449 1.231.377.517.65 1.104.818 1.765.168.659.229 1.351.18 2.069h-6.713c.031.827.242 1.429.625 1.799zm2.888-4.896c-.305-.336-.77-.504-1.395-.504-.408 0-.746.068-1.019.207-.27.138-.483.309-.646.513s-.277.42-.342.647c-.066.229-.105.433-.117.611h4.158c-.119-.646-.332-1.138-.639-1.474zm14.824-2.177v1.711h-1.873v4.606c0 .433.072.722.217.864.146.143.433.216.863.216l.414-.019.379-.055v1.98c-.217.035-.457.06-.721.072-.265.012-.521.018-.773.018-.396 0-.771-.026-1.125-.081-.354-.054-.666-.159-.936-.313-.271-.156-.484-.379-.642-.666-.153-.289-.231-.666-.231-1.136v-5.488h-1.549v-1.709h1.549v-2.791h2.555v2.791h1.873zm3.78-3.545v4.842h.055c.324-.541.738-.935 1.242-1.181.504-.245.996-.368 1.475-.368.687 0 1.246.094 1.685.278.438.187.782.444 1.035.774.252.33.43.731.53 1.205.102.475.152 1 .152 1.576v5.723h-2.555v-5.256c0-.768-.121-1.34-.361-1.719-.24-.378-.666-.566-1.277-.566-.696 0-1.201.207-1.512.621-.312.414-.469 1.095-.469 2.043v4.877h-2.558v-12.852h2.558v.003zm8.01 6.406c.037-.6.186-1.098.451-1.494.264-.396.6-.713 1.008-.953.406-.24.865-.41 1.377-.514.51-.102 1.021-.152 1.539-.152.467 0 .941.033 1.422.1.479.066.918.195 1.312.387.396.191.721.459.973.801.252.344.379.797.379 1.359v4.842c0 .421.023.822.072 1.206.047.385.131.673.252.864h-2.594c-.048-.145-.086-.291-.115-.441-.031-.148-.053-.303-.064-.459-.408.421-.887.715-1.438.883s-1.115.252-1.691.252c-.445 0-.858-.055-1.242-.162-.385-.107-.721-.275-1.008-.504-.289-.229-.514-.517-.676-.863-.162-.348-.242-.762-.242-1.242 0-.527.092-.963.279-1.305.186-.342.426-.615.719-.819.295-.204.631-.356 1.008-.459.379-.103.761-.183 1.144-.243.385-.061.764-.107 1.135-.145s.701-.09.99-.162c.287-.071.516-.176.684-.314.168-.138.246-.339.234-.604 0-.275-.045-.494-.136-.656-.09-.162-.211-.288-.358-.378-.15-.091-.324-.149-.523-.181-.196-.029-.41-.045-.639-.045-.504 0-.9.107-1.188.323-.288.218-.457.576-.504 1.08l-2.56-.002zm5.904 1.891c-.107.097-.242.172-.404.226s-.336.099-.523.135l-.584.091-.612.09c-.191.037-.382.084-.566.145-.186.061-.348.143-.486.243-.137.102-.248.231-.332.387-.084.156-.127.354-.127.595 0 .229.043.42.127.575.084.156.197.279.343.369.145.09.312.153.504.188.191.037.391.055.594.055.504 0 .895-.084 1.17-.252s.48-.369.613-.604c.131-.233.213-.471.242-.711.028-.239.045-.432.045-.575v-.955h-.004zm9.648-4.752v1.711h-1.873v4.606c0 .433.072.722.218.864.145.143.432.216.862.216l.414-.019.379-.055v1.98c-.217.035-.457.06-.721.072-.264.012-.521.018-.773.018-.396 0-.771-.026-1.125-.081-.354-.054-.666-.159-.936-.313-.271-.156-.484-.379-.641-.666-.154-.289-.232-.666-.232-1.136v-5.488h-1.549v-1.709h1.549v-2.791h2.555v2.791h1.873zm8.71 0v1.26h.037c.336-.479.74-.852 1.215-1.115.474-.264 1.017-.396 1.63-.396.588 0 1.125.114 1.61.342.484.229.854.631 1.105 1.207.276-.408.651-.769 1.125-1.08.475-.312 1.034-.469 1.684-.469.492 0 .947.061 1.369.18.42.121.779.312 1.078.576.301.265.535.609.703 1.035s.252.938.252 1.539v6.229h-2.558v-5.274c0-.312-.012-.604-.034-.882-.025-.275-.091-.516-.199-.72-.107-.204-.267-.366-.478-.486-.209-.119-.493-.18-.854-.18-.359 0-.65.069-.873.207-.221.138-.396.317-.521.54-.125.222-.209.474-.253.756-.041.281-.062.566-.062.855v5.184h-2.557v-5.221c0-.275-.007-.549-.019-.818s-.062-.52-.151-.747c-.091-.228-.24-.411-.451-.549-.209-.138-.521-.207-.927-.207-.12 0-.278.026-.479.081-.197.054-.389.156-.574.306-.188.149-.346.366-.479.647-.131.283-.197.651-.197 1.106v5.4h-2.557v-9.306h2.415zm13.718 2.861c.034-.6.186-1.098.448-1.494.265-.396.601-.713 1.008-.953.408-.24.867-.41 1.378-.514.51-.102 1.022-.152 1.538-.152.47 0 .941.033 1.423.1.479.066.918.195 1.313.387.396.191.721.459.974.801.252.344.377.797.377 1.359v4.842c0 .421.022.822.071 1.206.047.385.134.673.252.864h-2.592c-.049-.145-.088-.291-.117-.441-.028-.148-.051-.303-.062-.459-.408.421-.889.715-1.441.883-.551.168-1.114.252-1.69.252-.443 0-.857-.055-1.242-.162-.383-.107-.719-.275-1.008-.504-.287-.229-.513-.517-.674-.863-.162-.348-.244-.762-.244-1.242 0-.527.094-.963.278-1.305.186-.342.427-.615.722-.819.293-.204.629-.356 1.008-.459.377-.103.758-.183 1.143-.243.386-.061.763-.107 1.136-.145.37-.035.7-.09.987-.162.289-.071.519-.176.687-.314.168-.138.246-.339.231-.604 0-.275-.045-.494-.135-.656s-.209-.288-.359-.378c-.149-.091-.323-.149-.521-.181-.199-.029-.412-.045-.639-.045-.505 0-.9.107-1.189.323-.287.218-.455.576-.504 1.08l-2.557-.002zm5.902 1.891c-.106.097-.242.172-.404.226-.161.054-.336.099-.521.135l-.586.091-.611.09c-.19.037-.381.084-.565.145-.188.061-.351.143-.486.243-.139.102-.25.231-.334.387-.084.156-.125.354-.125.595 0 .229.041.42.125.575.084.156.199.279.342.369.146.09.312.153.504.188.193.037.392.055.597.055.504 0 .893-.084 1.17-.252.274-.168.479-.369.61-.604.134-.233.213-.471.242-.711.031-.239.045-.432.045-.575v-.955h-.003zm7.327-8.297v6.894l3.223-3.349h3.023l-3.51 3.42 3.905 5.887h-3.096l-2.557-4.158-.99.954v3.204h-2.555v-12.852h2.557zm10.279 10.618c.383.372.936.56 1.655.56.517 0 .959-.129 1.332-.388.371-.259.601-.53.685-.819h2.25c-.361 1.117-.912 1.914-1.656 2.395s-1.645.721-2.699.721c-.731 0-1.393-.117-1.979-.352-.588-.232-1.086-.566-1.494-.999s-.723-.947-.945-1.548c-.223-.6-.332-1.26-.332-1.979 0-.697.113-1.346.343-1.945.227-.6.551-1.118.971-1.557.42-.438.922-.783 1.504-1.035s1.227-.377 1.936-.377c.791 0 1.48.151 2.068.459.588.306 1.072.717 1.449 1.231.379.517.649 1.104.819 1.765.169.659.228 1.351.181 2.069h-6.715c.032.827.241 1.429.627 1.799zm2.888-4.896c-.307-.336-.771-.504-1.396-.504-.407 0-.747.068-1.018.207-.27.138-.486.309-.648.513-.161.204-.274.42-.342.647-.065.229-.104.433-.117.611h4.158c-.117-.646-.331-1.138-.637-1.474zm6.858 4.815c.112.198.26.36.44.486s.388.22.619.279c.234.06.479.09.73.09.18 0 .368-.021.565-.063.197-.041.379-.106.541-.196.16-.09.297-.211.404-.36.106-.149.162-.339.162-.567 0-.384-.256-.672-.767-.863-.51-.191-1.221-.383-2.133-.576-.371-.084-.733-.182-1.09-.297-.354-.113-.668-.264-.943-.449-.276-.186-.498-.42-.666-.702-.168-.281-.252-.627-.252-1.035 0-.601.117-1.092.351-1.476.233-.385.543-.688.928-.909s.815-.378 1.295-.468.973-.135 1.477-.135.994.047 1.468.144c.475.097.897.258 1.27.485.371.229.682.53.928.91.246.377.394.854.439 1.43h-2.43c-.035-.491-.222-.824-.558-.998s-.731-.262-1.188-.262l-.468.026c-.168.019-.321.058-.459.117-.139.062-.256.147-.352.261-.096.114-.145.268-.145.459 0 .229.084.414.252.559s.387.262.657.352.578.171.927.243c.348.071.703.149 1.062.233.371.084.734.187 1.09.307.354.119.668.279.943.477.277.198.498.444.666.738s.252.657.252 1.089c0 .612-.123 1.125-.367 1.539-.246.414-.567.747-.965.999-.396.252-.848.43-1.357.531-.512.102-1.028.152-1.557.152-.541 0-1.068-.055-1.586-.162-.516-.107-.975-.287-1.377-.539-.4-.252-.73-.586-.988-1-.26-.414-.399-.934-.424-1.558h2.43c.003.274.061.512.176.709zm12.59-8.433v-2.104h2.557v2.104h-2.557zm2.556 1.441v9.307h-2.557v-9.307h2.557zm7.129 0v1.711h-1.873v4.606c0 .433.072.722.217.864.146.143.433.216.863.216l.414-.019.379-.055v1.98c-.217.035-.457.06-.721.072-.264.012-.521.018-.773.018-.396 0-.771-.026-1.125-.081-.354-.054-.666-.159-.936-.313-.271-.156-.484-.379-.642-.666-.153-.289-.231-.666-.231-1.136v-5.488h-1.549v-1.709h1.549v-2.791h2.555v2.791h1.873zm-527.204 27.992c.113.198.261.36.44.486s.387.22.621.279c.234.059.477.09.729.09.18 0 .368-.021.566-.063.198-.041.378-.106.54-.196s.297-.211.405-.36c.107-.149.162-.339.162-.567 0-.384-.255-.672-.766-.863-.51-.191-1.221-.383-2.133-.576-.372-.084-.734-.182-1.089-.297-.354-.113-.669-.264-.945-.449-.275-.186-.498-.42-.666-.702-.168-.281-.252-.627-.252-1.035 0-.601.117-1.092.352-1.476.233-.385.543-.688.927-.909s.816-.378 1.296-.468c.48-.09.972-.135 1.477-.135.504 0 .992.047 1.467.144.474.097.896.258 1.269.485.372.229.682.53.927.91.246.377.394.854.441 1.43h-2.43c-.036-.491-.223-.824-.559-.998s-.731-.262-1.188-.262l-.468.026c-.168.019-.321.058-.459.117-.139.062-.256.147-.352.261-.096.114-.144.268-.144.459 0 .229.084.414.252.559s.387.262.656.352c.271.09.579.171.928.243l1.062.233c.372.084.735.187 1.089.307.354.119.669.279.945.477.276.198.498.444.666.738s.252.657.252 1.089c0 .612-.123 1.125-.369 1.539s-.566.747-.963.999c-.396.252-.849.43-1.359.531-.51.102-1.028.152-1.557.152-.54 0-1.068-.055-1.584-.162s-.975-.287-1.377-.539-.732-.586-.99-1-.398-.934-.423-1.558h2.43c.003.274.059.512.174.709zm13.815 2.312v-1.295h-.055c-.324.539-.744.93-1.26 1.17-.517.24-1.045.359-1.584.359-.685 0-1.245-.091-1.684-.271-.438-.181-.783-.435-1.035-.765s-.429-.732-.53-1.207c-.103-.474-.153-.998-.153-1.574v-5.725h2.556v5.256c0 .769.12 1.342.36 1.72s.666.567 1.278.567c.695 0 1.199-.207 1.512-.621.312-.414.468-1.096.468-2.043v-4.879h2.556v9.307h-2.429v.001zm6.524-2.312c.113.198.261.36.44.486.181.126.388.22.621.279.234.059.478.09.729.09.18 0 .369-.021.566-.063.198-.041.378-.106.54-.196s.297-.211.405-.36.162-.339.162-.567c0-.384-.255-.672-.766-.863-.51-.191-1.221-.383-2.133-.576-.372-.084-.734-.182-1.089-.297-.354-.113-.669-.264-.945-.449-.275-.186-.497-.42-.666-.702-.168-.281-.252-.627-.252-1.035 0-.601.117-1.092.352-1.476.233-.385.543-.688.927-.909s.816-.378 1.296-.468c.48-.09.973-.135 1.477-.135s.992.047 1.467.144c.474.097.896.258 1.269.485.372.229.682.53.928.91.245.377.393.854.44 1.43h-2.43c-.036-.491-.223-.824-.559-.998s-.731-.262-1.188-.262l-.468.026c-.168.019-.321.058-.459.117-.139.062-.255.147-.352.261-.096.114-.144.268-.144.459 0 .229.084.414.252.559s.387.262.657.352c.27.09.579.171.927.243l1.062.233c.372.084.735.187 1.089.307.354.119.67.279.945.477.276.198.498.444.666.738s.252.657.252 1.089c0 .612-.123 1.125-.369 1.539s-.566.747-.963.999c-.396.252-.849.43-1.358.531-.511.102-1.029.152-1.558.152-.54 0-1.067-.055-1.584-.162-.516-.107-.975-.287-1.377-.539-.401-.252-.731-.586-.99-1-.258-.414-.398-.934-.423-1.558h2.431c.002.274.059.512.173.709zm11.961-5.319c-.408 0-.75.093-1.026.278-.276.187-.501.427-.675.72-.174.295-.297.619-.369.973s-.108.705-.108 1.053c0 .337.036.68.108 1.025.072.35.189.664.351.945.162.282.381.514.657.692.276.181.612.271 1.008.271.612 0 1.083-.17 1.413-.513s.537-.802.621-1.378h2.466c-.168 1.236-.647 2.18-1.439 2.826-.792.648-1.806.973-3.042.973-.696 0-1.335-.117-1.917-.352-.582-.233-1.077-.561-1.485-.98s-.726-.921-.954-1.503c-.228-.581-.342-1.222-.342-1.917 0-.721.105-1.39.315-2.008.21-.617.519-1.15.927-1.602.408-.45.906-.801 1.494-1.053s1.26-.379 2.016-.379c.552 0 1.083.071 1.593.217.511.144.967.362 1.368.656.402.295.729.659.981 1.098.252.439.396.957.432 1.558h-2.502c-.169-1.064-.799-1.6-1.891-1.6zm8.622 5.4c.384.372.936.56 1.655.56.517 0 .96-.129 1.332-.388s.601-.53.685-.819h2.25c-.36 1.117-.912 1.914-1.656 2.395s-1.645.721-2.7.721c-.731 0-1.392-.117-1.979-.352-.588-.232-1.086-.566-1.494-.999s-.723-.947-.945-1.548c-.222-.6-.333-1.26-.333-1.979 0-.697.114-1.346.342-1.945.229-.598.553-1.118.973-1.557.42-.438.921-.783 1.503-1.035s1.227-.377 1.935-.377c.792 0 1.482.151 2.07.459.587.306 1.071.717 1.449 1.231.378.517.65 1.104.818 1.765.168.659.229 1.351.181 2.069h-6.714c.033.827.243 1.429.628 1.799zm2.889-4.896c-.306-.336-.771-.504-1.395-.504-.408 0-.747.068-1.018.207-.27.138-.486.309-.647.513-.162.204-.276.42-.343.647-.065.229-.104.433-.116.611h4.157c-.12-.646-.333-1.138-.638-1.474zm7.136-2.177v1.188h.036c.312-.504.708-.87 1.188-1.099.479-.228 1.008-.342 1.584-.342.731 0 1.361.139 1.89.414s.966.643 1.314 1.098c.348.457.605.988.773 1.594s.252 1.238.252 1.898c0 .625-.084 1.225-.252 1.801s-.423 1.086-.765 1.529-.769.799-1.278 1.062-1.106.396-1.791.396c-.576 0-1.106-.117-1.593-.353-.486-.233-.885-.579-1.197-1.035h-.036v4.41h-2.556v-12.563h2.431v.002zm3.322 7.38c.282-.168.51-.389.684-.658.175-.27.298-.584.369-.944.072-.358.108-.726.108-1.099 0-.371-.039-.737-.117-1.098-.078-.359-.207-.682-.387-.963-.181-.281-.411-.511-.693-.685-.282-.175-.627-.261-1.035-.261-.42 0-.771.086-1.053.261-.282.174-.51.399-.684.675-.175.275-.298.595-.369.954-.072.36-.108.731-.108 1.116 0 .371.039.738.117 1.098s.204.676.378.945.405.488.693.656.636.252 1.044.252c.419.001.771-.082 1.053-.249zm10.359-7.38v1.711h-1.872v4.606c0 .433.071.722.216.864.144.144.432.216.864.216l.414-.019.378-.055v1.98c-.217.035-.456.06-.721.072-.264.012-.521.018-.773.018-.396 0-.771-.026-1.125-.081-.354-.054-.666-.159-.937-.313-.27-.156-.482-.379-.639-.666-.156-.289-.234-.666-.234-1.136v-5.488h-1.548v-1.709h1.548v-2.791h2.557v2.791h1.872zm1.295-1.441v-2.104h2.556v2.104h-2.556zm2.556 1.441v9.307h-2.556v-9.307h2.556zm4.572-3.545v4.68h.036c.312-.479.734-.832 1.269-1.053.534-.224 1.089-.334 1.665-.334.468 0 .93.096 1.386.288.456.191.867.485 1.233.882s.663.902.891 1.521c.229.619.342 1.354.342 2.205 0 .853-.113 1.587-.342 2.205-.228.617-.524 1.125-.891 1.521s-.777.688-1.233.882c-.456.191-.918.288-1.386.288-.684 0-1.296-.108-1.836-.323-.54-.217-.948-.582-1.224-1.1h-.036v1.188h-2.431v-12.852h2.557v.002zm4.14 7.072c-.084-.359-.216-.678-.396-.954-.181-.274-.405-.493-.676-.655-.27-.162-.597-.244-.98-.244-.372 0-.696.082-.972.244-.276.161-.505.381-.685.655-.18.276-.312.595-.396.954s-.126.738-.126 1.135c0 .385.042.756.126 1.115s.216.68.396.954c.18.276.408.495.685.657.275.162.6.242.972.242.384 0 .711-.08.98-.242.271-.162.495-.381.676-.657.18-.274.312-.595.396-.954s.126-.73.126-1.115c0-.397-.042-.776-.126-1.135zm6.93-7.072v12.852h-2.556v-12.852h2.556zm4.752 10.618c.385.372.937.56 1.656.56.517 0 .96-.129 1.332-.388s.601-.53.685-.819h2.25c-.36 1.117-.912 1.914-1.656 2.395s-1.646.721-2.7.721c-.731 0-1.392-.117-1.979-.352-.589-.232-1.086-.566-1.494-.999s-.724-.947-.945-1.548c-.222-.6-.333-1.26-.333-1.979 0-.697.114-1.346.342-1.945.229-.598.552-1.118.973-1.557.42-.438.921-.783 1.503-1.035s1.227-.377 1.935-.377c.792 0 1.482.151 2.07.459.587.306 1.07.717 1.449 1.231.378.517.65 1.104.818 1.765.168.659.229 1.351.181 2.069h-6.715c.034.827.243 1.429.628 1.799zm2.889-4.896c-.307-.336-.771-.504-1.396-.504-.407 0-.747.068-1.017.207-.271.138-.486.309-.648.513-.161.204-.275.42-.342.647-.065.229-.104.433-.117.611h4.158c-.12-.646-.332-1.138-.638-1.474zm14.823-2.177v1.711h-1.872v4.606c0 .433.071.722.216.864.144.144.432.216.864.216l.414-.019.378-.055v1.98c-.217.035-.456.06-.721.072-.264.012-.521.018-.773.018-.396 0-.771-.026-1.125-.081-.354-.054-.666-.159-.937-.313-.27-.156-.482-.379-.639-.666-.156-.289-.234-.666-.234-1.136v-5.488h-1.548v-1.709h1.548v-2.791h2.557v2.791h1.872zm1.277 2.636c.229-.605.552-1.123.973-1.549.42-.426.924-.756 1.512-.989.588-.234 1.248-.351 1.979-.351s1.396.115 1.989.351 1.102.563 1.521.989.743.942.972 1.549c.228.605.342 1.281.342 2.024 0 .744-.114 1.416-.342 2.017-.229.601-.552 1.113-.972 1.539s-.928.752-1.521.979c-.594.229-1.257.343-1.989.343-.731 0-1.393-.113-1.979-.343-.588-.228-1.092-.555-1.512-.979-.421-.426-.744-.938-.973-1.539-.228-.601-.342-1.271-.342-2.017s.114-1.417.342-2.024zm2.323 3.116c.072.354.195.672.369.953s.405.508.692.676c.288.168.648.252 1.08.252.433 0 .794-.084 1.09-.252.294-.168.527-.395.701-.676.175-.281.297-.601.369-.953.072-.354.108-.718.108-1.09 0-.371-.036-.738-.108-1.099-.072-.358-.194-.679-.369-.954-.174-.275-.407-.501-.701-.675-.295-.175-.657-.261-1.09-.261-.432 0-.792.086-1.08.261-.287.174-.52.399-.692.675-.174.275-.297.596-.369.954-.072.36-.108.728-.108 1.099 0 .372.035.734.108 1.09zm16.11-5.752v1.26h.035c.336-.479.741-.852 1.216-1.115.474-.264 1.017-.396 1.629-.396.588 0 1.125.114 1.61.342.486.229.855.631 1.107 1.207.276-.408.65-.769 1.125-1.08.474-.312 1.035-.469 1.683-.469.492 0 .948.061 1.368.18.42.121.78.312 1.08.576.3.265.534.609.702 1.035.167.426.252.938.252 1.539v6.229h-2.556v-5.274c0-.312-.013-.604-.036-.882-.024-.275-.09-.516-.198-.72s-.267-.366-.477-.486c-.21-.119-.495-.18-.855-.18s-.651.069-.873.207-.396.317-.521.54c-.126.222-.21.474-.252.756-.042.281-.063.566-.063.855v5.184h-2.556v-5.221c0-.275-.006-.549-.019-.818-.012-.27-.062-.52-.152-.747-.091-.228-.24-.411-.45-.549s-.52-.207-.927-.207c-.12 0-.279.026-.478.081-.198.054-.39.156-.576.306-.186.149-.345.366-.477.647-.132.283-.198.651-.198 1.106v5.4h-2.556v-9.306h2.413zm13.715 2.861c.036-.6.186-1.098.45-1.494.264-.396.6-.713 1.008-.953s.867-.41 1.377-.514c.51-.102 1.021-.152 1.539-.152.468 0 .941.033 1.422.1.479.066.918.195 1.313.387.396.191.721.459.973.801.252.344.378.797.378 1.359v4.842c0 .421.023.822.072 1.206.048.385.132.673.252.864h-2.593c-.048-.145-.087-.291-.116-.441-.03-.148-.052-.303-.063-.459-.408.421-.888.715-1.439.883-.553.168-1.116.252-1.692.252-.444 0-.858-.055-1.242-.162s-.72-.275-1.008-.504-.513-.517-.675-.863c-.162-.348-.243-.762-.243-1.242 0-.527.093-.963.279-1.305.186-.342.426-.615.72-.819s.63-.356 1.008-.459.759-.183 1.143-.243c.385-.061.763-.107 1.135-.145s.702-.09.989-.162c.288-.071.517-.176.685-.314.168-.138.246-.339.233-.604 0-.275-.045-.494-.135-.656s-.21-.288-.359-.378c-.15-.091-.324-.149-.522-.181-.198-.029-.411-.045-.639-.045-.504 0-.9.107-1.188.323-.288.218-.456.576-.504 1.08l-2.558-.002zm5.904 1.891c-.107.097-.242.172-.404.226s-.336.099-.522.135l-.585.091-.611.09c-.192.037-.382.084-.567.145-.188.061-.348.143-.486.243-.138.102-.249.231-.333.387-.084.156-.126.354-.126.595 0 .229.042.42.126.575.084.156.198.279.342.369.145.09.312.153.505.188.191.037.39.055.594.055.504 0 .894-.084 1.17-.252s.479-.369.612-.604c.132-.233.213-.471.242-.711.03-.239.045-.432.045-.575v-.957h-.002zm6.966-4.752v1.297h.054c.324-.541.744-.935 1.26-1.181.517-.245 1.044-.368 1.584-.368.685 0 1.245.094 1.684.278.438.187.782.444 1.034.774s.43.731.531 1.205c.103.475.153 1 .153 1.576v5.723h-2.556v-5.256c0-.768-.12-1.34-.36-1.719-.24-.378-.666-.566-1.278-.566-.695 0-1.2.207-1.512.621-.312.414-.468 1.095-.468 2.043v4.877h-2.557v-9.305h2.431v.001zm13.32-1.441v-2.104h2.557v2.104h-2.557zm2.556 1.441v9.307h-2.556v-9.307h2.556zm4.446 0v1.297h.055c.323-.541.744-.935 1.26-1.181.516-.245 1.044-.368 1.584-.368.684 0 1.245.094 1.683.278.438.187.783.444 1.035.774s.429.731.531 1.205c.102.475.153 1 .153 1.576v5.723h-2.557v-5.256c0-.768-.12-1.34-.359-1.719-.24-.378-.666-.566-1.278-.566-.696 0-1.2.207-1.512.621-.312.414-.469 1.095-.469 2.043v4.877h-2.556v-9.305h2.43v.001zm18.36 0v1.711h-1.872v4.606c0 .433.072.722.216.864.145.144.433.216.864.216l.414-.019.378-.055v1.98c-.216.035-.456.06-.72.072-.265.012-.522.018-.774.018-.396 0-.771-.026-1.125-.081-.354-.054-.666-.159-.936-.313-.271-.156-.483-.379-.64-.666-.155-.289-.233-.666-.233-1.136v-5.488h-1.548v-1.709h1.548v-2.791h2.556v2.791h1.872zm3.779-3.545v4.842h.054c.324-.541.738-.935 1.242-1.181.504-.245.996-.368 1.476-.368.685 0 1.245.094 1.684.278.438.187.782.444 1.034.774.253.33.43.731.531 1.205.103.475.153 1 .153 1.576v5.723h-2.556v-5.256c0-.768-.12-1.34-.36-1.719-.24-.378-.666-.566-1.278-.566-.695 0-1.2.207-1.512.621-.312.414-.468 1.095-.468 2.043v4.877h-2.557v-12.852h2.557v.003zm10.854 10.618c.384.372.937.56 1.656.56.516 0 .96-.129 1.332-.388s.6-.53.684-.819h2.25c-.359 1.117-.912 1.914-1.655 2.395-.744.48-1.646.721-2.7.721-.732 0-1.393-.117-1.98-.352-.588-.232-1.086-.566-1.494-.999-.407-.433-.723-.947-.944-1.548-.223-.6-.333-1.26-.333-1.979 0-.697.113-1.346.342-1.945.228-.598.552-1.118.972-1.557.42-.438.921-.783 1.503-1.035s1.228-.377 1.936-.377c.792 0 1.481.151 2.069.459.588.306 1.071.717 1.449 1.231.378.517.651 1.104.819 1.765.168.659.228 1.351.18 2.069h-6.714c.034.827.244 1.429.628 1.799zm2.889-4.896c-.307-.336-.771-.504-1.396-.504-.408 0-.747.068-1.017.207-.271.138-.486.309-.648.513s-.276.42-.342.647c-.066.229-.105.433-.117.611h4.158c-.119-.646-.332-1.138-.638-1.474zm12.195-2.177v1.26h.036c.335-.479.741-.852 1.215-1.115.475-.264 1.018-.396 1.629-.396.588 0 1.125.114 1.611.342.486.229.855.631 1.107 1.207.275-.408.649-.769 1.125-1.08.474-.312 1.034-.469 1.683-.469.492 0 .947.061 1.368.18.42.121.779.312 1.079.576.301.265.534.609.702 1.035.167.426.252.938.252 1.539v6.229h-2.556v-5.274c0-.312-.012-.604-.036-.882-.023-.275-.09-.516-.198-.72-.107-.204-.267-.366-.477-.486-.21-.119-.495-.18-.854-.18-.36 0-.651.069-.873.207-.223.138-.396.317-.522.54-.126.222-.21.474-.252.756-.042.281-.062.566-.062.855v5.184h-2.557v-5.221c0-.275-.006-.549-.018-.818s-.063-.52-.153-.747-.24-.411-.45-.549-.519-.207-.927-.207c-.12 0-.279.026-.477.081-.198.054-.391.156-.576.306-.187.149-.345.366-.478.647-.132.283-.197.651-.197 1.106v5.4h-2.557v-9.306h2.413zm13.896-1.441v-2.104h2.556v2.104h-2.556zm2.556 1.441v9.307h-2.556v-9.307h2.556zm8.622 8.117c-.3.506-.693.867-1.18 1.09-.485.223-1.034.334-1.646.334-.696 0-1.308-.137-1.836-.406-.528-.271-.963-.635-1.305-1.098-.343-.462-.601-.992-.774-1.594-.174-.6-.261-1.225-.261-1.872 0-.623.087-1.228.261-1.81s.432-1.094.774-1.538c.342-.443.771-.802 1.286-1.071.517-.27 1.116-.404 1.801-.404.552 0 1.077.116 1.574.352.498.234.892.578 1.18 1.035h.036v-4.68h2.556v12.852h-2.43v-1.188l-.036-.002zm-.108-4.599c-.072-.354-.194-.666-.369-.937-.174-.271-.398-.488-.675-.656-.275-.168-.624-.252-1.044-.252s-.773.084-1.062.252-.52.39-.693.666c-.174.275-.3.59-.378.944s-.117.724-.117 1.106c0 .359.042.72.126 1.08.084.359.219.682.405.963.186.281.42.511.702.685.281.175.621.261 1.017.261.42 0 .771-.084 1.053-.252.282-.168.508-.394.676-.675.168-.282.287-.604.359-.964s.108-.73.108-1.115c0-.383-.036-.751-.108-1.106zm11.106 4.599c-.3.506-.693.867-1.18 1.09-.485.223-1.034.334-1.646.334-.696 0-1.309-.137-1.836-.406-.528-.271-.963-.635-1.305-1.098-.343-.462-.601-.992-.774-1.594-.174-.6-.261-1.225-.261-1.872 0-.623.087-1.228.261-1.81s.432-1.094.774-1.538c.342-.443.771-.802 1.286-1.071.517-.27 1.116-.404 1.801-.404.552 0 1.076.116 1.574.352.498.234.892.578 1.18 1.035h.036v-4.68h2.556v12.852h-2.43v-1.188l-.036-.002zm-.108-4.599c-.072-.354-.195-.666-.369-.937s-.398-.488-.675-.656-.624-.252-1.044-.252-.774.084-1.062.252c-.288.168-.52.39-.693.666-.174.275-.3.59-.378.944s-.117.724-.117 1.106c0 .359.042.72.126 1.08.084.359.219.682.405.963.186.281.42.511.702.685.281.175.621.261 1.017.261.42 0 .771-.084 1.053-.252.282-.168.507-.394.675-.675.169-.282.288-.604.36-.964s.108-.73.108-1.115c0-.383-.036-.751-.108-1.106zm7.127-7.063v12.852h-2.556v-12.852h2.556zm4.752 10.618c.384.372.937.56 1.656.56.516 0 .96-.129 1.332-.388s.6-.53.684-.819h2.25c-.359 1.117-.912 1.914-1.655 2.395-.744.48-1.646.721-2.7.721-.732 0-1.393-.117-1.98-.352-.588-.232-1.086-.566-1.494-.999-.407-.433-.723-.947-.944-1.548-.223-.6-.333-1.26-.333-1.979 0-.697.113-1.346.342-1.945.228-.598.552-1.118.972-1.557.42-.438.921-.783 1.503-1.035s1.228-.377 1.936-.377c.792 0 1.481.151 2.069.459.588.306 1.071.717 1.449 1.231.378.517.651 1.104.819 1.765.168.659.228 1.351.18 2.069h-6.714c.034.827.244 1.429.628 1.799zm2.889-4.896c-.307-.336-.771-.504-1.396-.504-.408 0-.747.068-1.017.207-.271.138-.486.309-.648.513s-.275.42-.342.647c-.066.229-.105.433-.117.611h4.158c-.119-.646-.332-1.138-.638-1.474zm9.603.684c.036-.6.187-1.098.45-1.494s.6-.713 1.008-.953c.407-.24.866-.41 1.377-.514.51-.102 1.022-.152 1.539-.152.468 0 .941.033 1.422.1.479.066.918.195 1.313.387s.721.459.973.801c.252.344.378.797.378 1.359v4.842c0 .421.023.822.072 1.206.047.385.132.673.252.864h-2.593c-.049-.145-.087-.291-.116-.441-.03-.148-.052-.303-.063-.459-.407.421-.888.715-1.439.883s-1.115.252-1.691.252c-.443 0-.857-.055-1.242-.162-.384-.107-.72-.275-1.008-.504s-.513-.517-.675-.863c-.162-.348-.243-.762-.243-1.242 0-.527.093-.963.279-1.305.186-.342.426-.615.72-.819s.63-.356 1.008-.459.76-.183 1.144-.243c.385-.061.763-.107 1.135-.145.371-.035.701-.09.989-.162.288-.071.517-.176.685-.314.168-.138.246-.339.233-.604 0-.275-.045-.494-.135-.656-.091-.162-.211-.288-.359-.378-.15-.091-.324-.149-.522-.181-.197-.031-.411-.045-.639-.045-.504 0-.9.107-1.188.323-.288.218-.456.576-.505 1.08l-2.559-.002zm5.903 1.891c-.107.097-.242.172-.404.226s-.336.099-.522.135l-.585.091-.611.09c-.191.037-.381.084-.566.145-.187.061-.349.143-.486.243-.137.101-.248.231-.332.387-.085.156-.127.354-.127.595 0 .229.042.42.127.575.084.156.197.279.342.369s.312.153.504.188c.191.037.391.055.595.055.504 0 .895-.084 1.17-.252s.479-.369.612-.604c.132-.233.213-.471.242-.711.029-.239.045-.432.045-.575v-.955h-.004zm9.648-4.752v1.711h-1.872v4.606c0 .433.072.722.217.864.145.144.433.216.863.216l.414-.019.378-.055v1.98c-.216.035-.456.06-.72.072-.265.012-.522.018-.774.018-.396 0-.771-.026-1.125-.081-.354-.054-.666-.159-.936-.313-.271-.156-.483-.379-.64-.666-.155-.289-.233-.666-.233-1.136v-5.488h-1.548v-1.709h1.548v-2.791h2.556v2.791h1.872zm6.336 0v1.711h-1.872v4.606c0 .433.072.722.217.864.145.144.433.216.863.216l.414-.019.378-.055v1.98c-.216.035-.456.06-.72.072-.265.012-.521.018-.774.018-.396 0-.771-.026-1.125-.081-.354-.054-.665-.159-.936-.313-.271-.156-.483-.379-.64-.666-.155-.289-.233-.666-.233-1.136v-5.488h-1.548v-1.709h1.548v-2.791h2.556v2.791h1.872zm1.117 2.861c.036-.6.187-1.098.45-1.494s.6-.713 1.008-.953c.407-.24.866-.41 1.376-.514.51-.102 1.023-.152 1.539-.152.469 0 .941.033 1.422.1s.918.195 1.314.387c.396.191.721.459.973.801.252.344.377.797.377 1.359v4.842c0 .421.023.822.072 1.206.047.385.133.673.252.864h-2.592c-.049-.145-.088-.291-.117-.441-.029-.148-.051-.303-.062-.459-.407.421-.889.715-1.44.883-.551.168-1.115.252-1.691.252-.443 0-.857-.055-1.242-.162-.384-.107-.72-.275-1.008-.504s-.513-.517-.675-.863c-.162-.348-.243-.762-.243-1.242 0-.527.093-.963.279-1.305.186-.342.426-.615.72-.819s.63-.356 1.008-.459.76-.183 1.144-.243c.385-.061.762-.107 1.135-.145.371-.035.701-.09.988-.162.289-.071.518-.176.686-.314.168-.138.246-.339.232-.604 0-.275-.045-.494-.135-.656-.091-.162-.209-.288-.359-.378-.15-.091-.324-.149-.521-.181-.198-.029-.411-.045-.639-.045-.504 0-.9.107-1.188.323-.287.218-.456.576-.504 1.08l-2.559-.002zm5.903 1.891c-.107.097-.242.172-.404.226s-.336.099-.521.135l-.586.091-.611.09c-.191.037-.381.084-.566.145-.188.061-.35.143-.485.243-.139.102-.25.231-.333.387-.084.156-.126.354-.126.595 0 .229.042.42.126.575.084.156.197.279.341.369.145.09.312.153.504.188.193.037.391.055.596.055.504 0 .894-.084 1.17-.252.275-.168.479-.369.611-.604.133-.233.213-.471.242-.711.031-.239.045-.432.045-.575v-.955h-.003zm8.981-3.079c-.407 0-.75.093-1.024.278-.275.187-.502.427-.676.72-.175.295-.298.619-.369.973-.07.354-.107.705-.107 1.053 0 .337.037.68.107 1.025.071.35.188.664.352.945.163.282.381.514.658.692.275.181.611.271 1.008.271.611 0 1.082-.17 1.412-.513s.537-.802.621-1.378h2.467c-.168 1.236-.647 2.18-1.44 2.826-.791.648-1.806.973-3.041.973-.697 0-1.337-.117-1.918-.352-.582-.233-1.076-.561-1.484-.98-.408-.419-.728-.921-.953-1.503-.229-.581-.344-1.222-.344-1.917 0-.721.104-1.39.315-2.008.209-.617.519-1.15.927-1.602.407-.451.905-.801 1.493-1.053.589-.252 1.261-.379 2.017-.379.553 0 1.084.071 1.594.217.51.144.967.362 1.369.656.399.295.729.659.979 1.098.251.439.396.957.433 1.558h-2.502c-.17-1.064-.801-1.6-1.894-1.6zm8.677-5.218v6.894l3.223-3.349h3.023l-3.511 3.42 3.906 5.887h-3.096l-2.558-4.158-.989.954v3.204h-2.556v-12.852h2.558zm9.693 10.537c.113.198.26.36.441.486.18.126.387.22.619.279.233.06.479.09.729.09.18 0 .369-.021.566-.063.197-.041.379-.106.541-.196.16-.09.297-.211.403-.36.107-.149.162-.339.162-.567 0-.384-.256-.672-.766-.863s-1.221-.383-2.133-.576c-.371-.084-.734-.182-1.09-.297-.354-.113-.668-.264-.943-.449-.277-.186-.498-.42-.666-.702-.168-.281-.252-.627-.252-1.035 0-.601.117-1.092.35-1.476.234-.385.543-.688.929-.909.385-.222.815-.378 1.295-.468s.973-.135 1.477-.135.994.047 1.467.144c.476.097.898.258 1.271.485.371.229.682.53.928.91.246.377.394.854.439 1.43h-2.431c-.035-.491-.221-.824-.557-.998s-.732-.262-1.189-.262l-.467.026c-.168.019-.322.058-.459.117-.139.062-.256.147-.352.261-.097.114-.146.268-.146.459 0 .229.084.414.252.559s.388.262.658.352.578.171.926.243c.349.071.703.149 1.062.233.371.084.733.187 1.09.307.354.119.668.279.943.477.276.198.498.444.666.738s.252.657.252 1.089c0 .612-.123 1.125-.367 1.539-.246.414-.568.747-.965.999-.396.252-.849.43-1.357.531-.512.102-1.029.152-1.557.152-.541 0-1.068-.055-1.586-.162-.517-.107-.976-.287-1.377-.539-.4-.252-.73-.586-.988-1-.26-.414-.4-.934-.424-1.558h2.43c.004.274.06.512.176.709zm10.466-.459v2.771c0 .408-.075.783-.225 1.125-.15.343-.352.64-.604.892-.253.252-.55.459-.892.621s-.705.272-1.09.333v-1.296c.18-.036.352-.106.514-.216s.304-.237.422-.387c.121-.15.212-.318.271-.504.059-.188.084-.377.07-.567h-1.295v-2.772h2.829zm9.791.54c.386.372.937.56 1.656.56.517 0 .961-.129 1.332-.388s.601-.53.685-.819h2.25c-.359 1.117-.912 1.914-1.656 2.395s-1.644.721-2.699.721c-.732 0-1.393-.117-1.98-.352-.588-.232-1.086-.566-1.493-.999-.408-.433-.724-.947-.943-1.548-.223-.6-.334-1.26-.334-1.979 0-.697.113-1.346.342-1.945.229-.598.553-1.118.974-1.557.42-.438.92-.783 1.502-1.035s1.227-.377 1.936-.377c.793 0 1.482.151 2.07.459.588.306 1.069.717 1.449 1.231.377.517.649 1.104.817 1.765.168.659.229 1.351.18 2.069h-6.713c.032.827.243 1.429.625 1.799zm2.89-4.896c-.306-.336-.771-.504-1.396-.504-.407 0-.746.068-1.018.207-.271.138-.484.309-.646.513s-.276.42-.342.647c-.065.229-.104.433-.117.611h4.158c-.12-.646-.333-1.138-.639-1.474zm4.022-2.177h2.916l1.64 2.43 1.618-2.43h2.826l-3.061 4.355 3.438 4.949h-2.916l-1.944-2.934-1.943 2.934h-2.861l3.349-4.896-3.062-4.408zm12.782 0v1.188h.035c.312-.504.707-.87 1.188-1.099.481-.228 1.009-.342 1.584-.342.732 0 1.363.139 1.892.414.526.275.965.643 1.313 1.098.349.457.605.988.773 1.594s.252 1.238.252 1.898c0 .625-.084 1.225-.252 1.801s-.424 1.086-.766 1.529c-.343.443-.769.799-1.277 1.062s-1.107.396-1.791.396c-.576 0-1.107-.117-1.594-.353-.484-.233-.886-.579-1.195-1.035h-.037v4.41h-2.557v-12.563h2.432v.002zm3.321 7.38c.281-.168.51-.389.684-.658.174-.269.297-.584.369-.944.072-.358.107-.726.107-1.099 0-.371-.039-.737-.117-1.098-.078-.359-.207-.682-.387-.963-.181-.281-.41-.511-.693-.685-.281-.175-.627-.261-1.033-.261-.422 0-.771.086-1.055.261-.281.174-.51.399-.685.675-.174.275-.297.595-.368.954-.072.36-.107.731-.107 1.116 0 .371.039.738.117 1.098s.203.676.377.945c.174.269.406.488.692.656.289.168.638.252 1.046.252.42.001.77-.082 1.053-.249zm5.301-4.744c.229-.605.553-1.123.973-1.549s.924-.756 1.513-.989c.588-.234 1.248-.351 1.979-.351.73 0 1.396.115 1.988.351s1.102.563 1.521.989.744.942.972 1.549c.229.605.344 1.281.344 2.024 0 .744-.115 1.416-.344 2.017-.228.601-.552 1.113-.972 1.539s-.928.752-1.521.979c-.594.229-1.258.343-1.988.343-.731 0-1.393-.113-1.979-.343-.589-.228-1.093-.555-1.513-.979-.42-.426-.744-.938-.973-1.539-.229-.601-.342-1.271-.342-2.017s.112-1.417.342-2.024zm2.322 3.116c.071.354.194.672.369.953.174.281.403.508.692.676.287.168.646.252 1.08.252.432 0 .795-.084 1.088-.252.295-.168.527-.395.703-.676.174-.281.297-.601.369-.953.07-.354.106-.718.106-1.09 0-.371-.036-.738-.106-1.099-.072-.358-.195-.679-.369-.954-.176-.275-.408-.501-.703-.675-.293-.175-.656-.261-1.088-.261-.434 0-.793.086-1.08.261-.289.174-.52.399-.692.675-.175.275-.298.596-.369.954-.072.36-.107.728-.107 1.099 0 .372.035.734.107 1.09zm10.771 1.24c.115.198.263.36.441.486s.387.22.621.279c.233.059.477.09.729.09.181 0 .369-.021.568-.063.197-.041.377-.106.539-.196s.297-.211.403-.36c.109-.149.162-.339.162-.567 0-.384-.254-.672-.764-.863-.512-.191-1.223-.383-2.133-.576-.373-.084-.736-.182-1.09-.297-.354-.113-.67-.264-.945-.449s-.498-.42-.666-.702c-.168-.281-.252-.627-.252-1.035 0-.601.117-1.092.352-1.476.235-.385.543-.688.927-.909.385-.222.815-.378 1.297-.468.48-.09.973-.135 1.477-.135s.992.047 1.467.144c.474.097.896.258 1.271.485.371.229.68.53.926.91.246.377.393.854.441 1.43h-2.431c-.037-.491-.223-.824-.559-.998s-.732-.262-1.188-.262l-.469.026c-.168.019-.32.058-.459.117-.137.062-.254.147-.35.261-.099.114-.146.268-.146.459 0 .229.084.414.252.559s.388.262.656.352c.27.09.58.171.928.243l1.062.233c.371.084.733.187 1.088.307.354.119.67.279.945.477.274.198.498.444.666.738s.252.657.252 1.089c0 .612-.123 1.125-.369 1.539s-.566.747-.963.999-.851.43-1.359.531c-.509.101-1.029.152-1.557.152-.539 0-1.068-.055-1.584-.162-.517-.107-.976-.287-1.377-.539-.402-.252-.732-.586-.99-1s-.398-.934-.422-1.558h2.43c.003.274.06.512.173.709zm7.587-8.433v-2.104h2.556v2.104h-2.556zm2.556 1.441v9.307h-2.556v-9.307h2.556zm4.446 0v1.297h.056c.323-.541.744-.935 1.26-1.181.516-.245 1.043-.368 1.584-.368.684 0 1.244.094 1.684.278.438.187.781.444 1.033.774s.43.731.531 1.205c.101.475.154 1 .154 1.576v5.723h-2.558v-5.256c0-.768-.119-1.34-.358-1.719-.24-.378-.666-.566-1.279-.566-.695 0-1.199.207-1.512.621-.313.414-.468 1.095-.468 2.043v4.877h-2.557v-9.305h2.43v.001zm17.038 9.989c-.102.479-.321.929-.655 1.343-.339.414-.822.764-1.46 1.053-.637.287-1.487.432-2.557.432-.455 0-.92-.057-1.395-.171-.476-.114-.906-.291-1.295-.531-.392-.239-.716-.549-.974-.927s-.404-.831-.44-1.357h2.539c.118.479.354.812.7.998.349.187.75.278 1.205.278.722 0 1.246-.216 1.576-.647.33-.433.488-.979.477-1.639v-1.225h-.034c-.277.492-.67.854-1.181 1.09-.51.234-1.047.352-1.61.352-.695 0-1.295-.123-1.8-.369-.504-.246-.918-.582-1.241-1.009-.324-.426-.562-.924-.711-1.493-.15-.57-.228-1.173-.228-1.81 0-.601.088-1.179.262-1.735.175-.56.431-1.052.767-1.478.336-.427.752-.765 1.25-1.017s1.072-.379 1.719-.379c.613 0 1.15.114 1.611.342.463.229.85.613 1.162 1.151h.034v-1.241h2.431v8.713c.001.371-.05.796-.152 1.276zm-3.502-3.096c.277-.144.504-.336.687-.576.18-.239.313-.513.403-.817.091-.308.136-.627.136-.964 0-.385-.035-.747-.107-1.09-.072-.342-.193-.646-.361-.907-.168-.266-.389-.476-.666-.632-.274-.155-.623-.233-1.043-.233-.358 0-.67.072-.928.217-.258.144-.473.339-.646.585-.177.245-.302.528-.38.846-.077.317-.116.651-.116.999 0 .336.032.669.1.999s.18.628.342.892c.162.265.375.479.64.647.264.168.594.252.989.252.357-.002.675-.072.95-.218zm13.194-6.893v1.26h.037c.336-.479.74-.852 1.215-1.115.473-.264 1.016-.396 1.629-.396.588 0 1.125.114 1.611.342.483.229.854.631 1.104 1.207.277-.408.652-.769 1.125-1.08.476-.312 1.035-.469 1.685-.469.491 0 .946.061 1.369.18.42.121.778.312 1.077.576.302.265.535.609.703 1.035s.252.938.252 1.539v6.229h-2.557v-5.274c0-.312-.012-.604-.035-.882-.024-.275-.09-.516-.199-.72-.106-.204-.266-.366-.477-.486-.209-.119-.494-.18-.855-.18-.358 0-.649.069-.872.207-.222.138-.396.317-.521.54-.125.222-.209.474-.252.756-.041.281-.062.566-.062.855v5.184h-2.557v-5.221c0-.275-.006-.549-.018-.818-.013-.27-.062-.52-.152-.747s-.24-.411-.451-.549c-.209-.138-.52-.207-.926-.207-.121 0-.279.026-.479.081-.196.054-.389.156-.573.306-.188.149-.347.366-.479.647-.131.283-.197.651-.197 1.106v5.4h-2.557v-9.306h2.412zm13.879 2.636c.229-.605.553-1.123.973-1.549s.924-.756 1.513-.989c.588-.234 1.248-.351 1.979-.351.73 0 1.396.115 1.988.351s1.102.563 1.521.989.744.942.972 1.549c.229.605.344 1.281.344 2.024 0 .744-.115 1.416-.344 2.017-.228.601-.552 1.113-.972 1.539s-.928.752-1.521.979c-.594.229-1.258.343-1.988.343-.731 0-1.393-.113-1.979-.343-.589-.228-1.093-.555-1.513-.979-.42-.426-.744-.938-.973-1.539-.229-.601-.342-1.271-.342-2.017s.112-1.417.342-2.024zm2.322 3.116c.071.354.194.672.369.953.174.281.403.508.692.676.287.168.646.252 1.08.252.433 0 .795-.084 1.088-.252.295-.168.527-.395.703-.676.174-.281.297-.601.369-.953.07-.354.107-.718.107-1.09 0-.371-.037-.738-.107-1.099-.072-.358-.195-.679-.369-.954-.176-.275-.408-.501-.703-.675-.293-.175-.655-.261-1.088-.261-.434 0-.793.086-1.08.261-.289.174-.52.399-.692.675-.175.275-.298.596-.369.954-.072.36-.107.728-.107 1.099 0 .372.035.734.107 1.09zm11.051-5.752v1.729h.037c.119-.288.281-.555.483-.801.205-.246.439-.457.703-.631.265-.174.545-.309.847-.404.299-.096.61-.145.936-.145.168 0 .354.029.559.09v2.377l-.432-.063c-.168-.019-.33-.026-.486-.026-.469 0-.864.078-1.188.233-.324.155-.586.369-.783.64-.199.271-.34.586-.424.944-.084.36-.125.75-.125 1.17v4.194h-2.557v-9.307h2.43zm6.984 7.073c.385.372.936.56 1.655.56.517 0 .961-.129 1.332-.388s.601-.53.685-.819h2.25c-.359 1.117-.912 1.914-1.656 2.395s-1.643.721-2.699.721c-.731 0-1.393-.117-1.979-.352-.588-.232-1.086-.566-1.494-.999s-.724-.947-.943-1.548c-.223-.6-.334-1.26-.334-1.979 0-.697.113-1.346.342-1.945.229-.598.554-1.118.974-1.557.42-.438.92-.783 1.502-1.035s1.227-.377 1.936-.377c.793 0 1.482.151 2.07.459.588.306 1.07.717 1.449 1.231.377.517.649 1.104.817 1.765.168.659.229 1.351.181 2.069h-6.713c.03.827.241 1.429.625 1.799zm2.889-4.896c-.305-.336-.771-.504-1.396-.504-.407 0-.745.068-1.018.207-.271.138-.484.309-.646.513-.161.204-.276.42-.342.647-.065.229-.104.433-.117.611h4.158c-.121-.646-.333-1.138-.639-1.474zm14.824-2.177v1.711h-1.873v4.606c0 .433.071.722.217.864.145.143.432.216.863.216l.414-.019.379-.055v1.98c-.218.035-.457.06-.722.072-.264.012-.521.018-.772.018-.396 0-.771-.026-1.125-.081-.354-.054-.666-.159-.937-.313-.271-.156-.483-.379-.641-.666-.154-.289-.232-.666-.232-1.136v-5.488h-1.549v-1.709h1.549v-2.791h2.556v2.791h1.873zm3.778-3.545v4.842h.056c.323-.541.737-.935 1.241-1.181.505-.245.996-.368 1.476-.368.686 0 1.246.094 1.684.278.438.187.783.444 1.035.774s.43.731.531 1.205c.101.475.151 1 .151 1.576v5.723h-2.555v-5.256c0-.768-.121-1.34-.361-1.719-.239-.378-.666-.566-1.276-.566-.697 0-1.201.207-1.512.621-.312.414-.47 1.095-.47 2.043v4.877h-2.557v-12.852h2.557v.003zm8.011 6.406c.034-.6.186-1.098.448-1.494.265-.396.601-.713 1.009-.953.407-.24.866-.41 1.377-.514.51-.102 1.022-.152 1.539-.152.469 0 .94.033 1.422.1.479.066.918.195 1.313.387.396.191.722.459.974.801.252.344.377.797.377 1.359v4.842c0 .421.022.822.071 1.206.048.385.134.673.252.864h-2.592c-.049-.145-.088-.291-.117-.441-.028-.148-.051-.303-.062-.459-.408.421-.889.715-1.441.883-.551.168-1.114.252-1.69.252-.443 0-.857-.055-1.242-.162-.383-.107-.719-.275-1.008-.504-.287-.229-.513-.517-.674-.863-.162-.348-.244-.762-.244-1.242 0-.527.094-.963.278-1.305.186-.342.427-.615.722-.819.293-.204.629-.356 1.008-.459.377-.103.758-.183 1.143-.243.386-.061.763-.107 1.136-.145.371-.035.7-.09.987-.162.289-.071.519-.176.687-.314.168-.138.246-.339.231-.604 0-.275-.045-.494-.135-.656s-.209-.288-.359-.378c-.149-.091-.323-.149-.521-.181-.199-.029-.412-.045-.639-.045-.504 0-.9.107-1.189.323-.287.218-.455.576-.504 1.08l-2.557-.002zm5.902 1.891c-.106.097-.242.172-.403.226-.162.054-.337.099-.521.135l-.586.091-.611.09c-.19.037-.381.084-.565.145-.188.061-.351.143-.486.243-.139.102-.25.231-.334.387-.084.156-.125.354-.125.595 0 .229.041.42.125.575.084.156.199.279.342.369.146.09.312.153.504.188.193.037.392.055.597.055.504 0 .893-.084 1.17-.252.274-.168.479-.369.61-.604.134-.233.214-.471.242-.711.031-.239.045-.432.045-.575v-.955h-.004zm6.966-4.752v1.297h.056c.324-.541.744-.935 1.26-1.181.516-.245 1.043-.368 1.584-.368.684 0 1.244.094 1.684.278.438.187.781.444 1.033.774s.431.731.531 1.205c.101.475.154 1 .154 1.576v5.723h-2.558v-5.256c0-.768-.119-1.34-.358-1.719-.24-.378-.666-.566-1.279-.566-.695 0-1.199.207-1.512.621-.313.414-.467 1.095-.467 2.043v4.877h-2.558v-9.305h2.43v.001zm16.776 9.304v-8.172h-3.168v-1.926c.443.012.873-.021 1.287-.1s.787-.216 1.117-.414c.328-.197.606-.459.836-.782.229-.323.379-.727.451-1.206h2.032v12.6h-2.555zm6.256-9.44c.246-.834.578-1.503.998-2.007s.91-.863 1.467-1.08c.56-.216 1.15-.322 1.773-.322.637 0 1.231.106 1.791.322.559.217 1.051.576 1.477 1.08.427.504.763 1.173 1.009 2.007.245.835.368 1.863.368 3.088 0 1.261-.123 2.312-.368 3.158-.246.847-.582 1.521-1.009 2.024-.426.504-.918.865-1.477 1.08-.56.217-1.154.324-1.791.324-.623 0-1.215-.107-1.773-.324-.557-.215-1.047-.576-1.467-1.08s-.752-1.178-.998-2.024-.369-1.897-.369-3.158c-.001-1.225.122-2.253.369-3.088zm2.223 4.391c.022.511.1 1.002.225 1.477.127.475.326.88.604 1.215.275.337.673.505 1.188.505.527 0 .934-.168 1.215-.505.281-.335.486-.74.613-1.215.125-.475.199-.966.225-1.477.023-.51.035-.944.035-1.305l-.008-.783c-.008-.307-.031-.621-.072-.944-.043-.324-.104-.646-.18-.964-.08-.317-.195-.604-.353-.854-.156-.251-.354-.455-.594-.61-.24-.156-.535-.234-.883-.234s-.639.078-.873.234c-.234.155-.426.358-.576.61-.149.252-.268.537-.352.854-.084.318-.144.64-.181.964-.034.323-.057.639-.062.944l-.01.783c.002.361.016.798.039 1.305zm-542.385 16.745v1.26h.035c.335-.479.741-.852 1.216-1.115.474-.264 1.017-.396 1.629-.396.588 0 1.125.114 1.61.342.486.229.855.631 1.107 1.207.276-.408.649-.769 1.125-1.08.474-.312 1.035-.469 1.683-.469.492 0 .948.061 1.368.18.42.121.78.312 1.08.576.3.265.534.609.702 1.035.167.426.252.938.252 1.539v6.229h-2.556v-5.274c0-.312-.013-.604-.036-.882-.024-.275-.09-.516-.198-.72s-.267-.366-.477-.486c-.211-.119-.495-.18-.855-.18s-.651.069-.873.207-.396.317-.521.54c-.127.222-.211.474-.253.756-.042.281-.062.566-.062.855v5.184h-2.556v-5.221c0-.275-.007-.549-.019-.818s-.062-.52-.152-.747c-.091-.228-.24-.411-.45-.549s-.52-.207-.928-.207c-.119 0-.278.026-.477.081-.198.054-.39.156-.576.306-.186.149-.345.366-.477.647-.132.283-.198.651-.198 1.106v5.4h-2.556v-9.306h2.413zm13.895-1.441v-2.104h2.556v2.104h-2.556zm2.556 1.441v9.307h-2.556v-9.307h2.556zm4.644-3.545v12.852h-2.557v-12.852h2.557zm4.644 0v12.852h-2.556v-12.852h2.556zm2.088 2.104v-2.104h2.557v2.104h-2.557zm2.557 1.441v9.307h-2.557v-9.307h2.557zm2.069 2.636c.229-.605.553-1.123.973-1.549s.924-.756 1.512-.989c.588-.234 1.248-.351 1.98-.351.73 0 1.395.115 1.988.351.595.235 1.102.563 1.521.989s.744.942.972 1.549c.229.605.342 1.281.342 2.024 0 .744-.113 1.416-.342 2.017-.228.601-.552 1.113-.972 1.539s-.927.752-1.521.979c-.594.229-1.257.343-1.988.343-.732 0-1.394-.113-1.98-.343-.588-.228-1.092-.555-1.512-.979-.42-.426-.744-.938-.973-1.539-.228-.601-.342-1.271-.342-2.017s.114-1.417.342-2.024zm2.322 3.116c.072.354.195.672.369.953s.405.508.693.676.647.252 1.08.252c.432 0 .794-.084 1.089-.252.294-.168.527-.395.702-.676.174-.281.297-.601.368-.953.072-.354.108-.718.108-1.09 0-.371-.036-.738-.108-1.099-.071-.358-.194-.679-.368-.954-.175-.275-.408-.501-.702-.675-.294-.175-.657-.261-1.089-.261-.433 0-.792.086-1.08.261-.288.174-.521.399-.693.675-.174.275-.297.596-.369.954-.072.36-.107.728-.107 1.099-.001.372.035.734.107 1.09zm11.052-5.752v1.297h.055c.323-.541.744-.935 1.26-1.181.516-.245 1.044-.368 1.584-.368.684 0 1.245.094 1.683.278.438.187.783.444 1.035.774s.429.731.531 1.205c.102.475.153 1 .153 1.576v5.723h-2.557v-5.256c0-.768-.12-1.34-.359-1.719-.24-.378-.666-.566-1.278-.566-.696 0-1.2.207-1.512.621-.312.414-.469 1.095-.469 2.043v4.877h-2.556v-9.305h2.43v.001zm19.548 9.304v-1.295h-.055c-.324.539-.744.93-1.26 1.17s-1.044.359-1.584.359c-.684 0-1.245-.091-1.683-.271-.438-.181-.783-.435-1.035-.765s-.43-.732-.531-1.207c-.102-.474-.153-.998-.153-1.574v-5.725h2.557v5.256c0 .769.12 1.342.359 1.72.24.378.666.567 1.278.567.696 0 1.2-.207 1.512-.621.312-.414.469-1.096.469-2.043v-4.879h2.556v9.307h-2.43v.001zm6.525-2.312c.114.198.261.36.441.486s.387.22.621.279c.233.059.477.09.729.09.18 0 .369-.021.567-.063.197-.041.378-.106.54-.196s.297-.211.404-.36c.108-.149.162-.339.162-.567 0-.384-.255-.672-.765-.863s-1.221-.383-2.133-.576c-.372-.084-.735-.182-1.089-.297-.354-.113-.669-.264-.945-.449s-.498-.42-.666-.702c-.168-.281-.252-.627-.252-1.035 0-.601.117-1.092.351-1.476.234-.385.543-.688.928-.909.384-.222.815-.378 1.296-.468.479-.09.972-.135 1.476-.135s.993.047 1.467.144c.475.097.897.258 1.27.485.372.229.681.53.927.91.246.377.393.854.441 1.43h-2.431c-.036-.491-.222-.824-.558-.998s-.732-.262-1.188-.262l-.468.026c-.168.019-.321.058-.459.117-.138.062-.255.147-.351.261-.097.114-.145.268-.145.459 0 .229.084.414.252.559s.388.262.657.352c.271.09.579.171.927.243l1.062.233c.372.084.734.187 1.089.307.354.119.669.279.945.477.275.198.498.444.666.738s.252.657.252 1.089c0 .612-.123 1.125-.369 1.539s-.567.747-.963.999-.85.43-1.359.531-1.029.152-1.557.152c-.54 0-1.068-.055-1.584-.162-.517-.107-.976-.287-1.377-.539-.402-.252-.732-.586-.99-1s-.399-.934-.423-1.558h2.43c.001.274.057.512.172.709zm10.25.081c.384.372.937.56 1.656.56.516 0 .96-.129 1.332-.388s.6-.53.684-.819h2.25c-.359 1.117-.912 1.914-1.655 2.395-.744.48-1.646.721-2.7.721-.732 0-1.393-.117-1.98-.352-.588-.232-1.086-.566-1.494-.999-.407-.433-.723-.947-.944-1.548-.223-.6-.333-1.26-.333-1.979 0-.697.113-1.346.342-1.945.228-.598.552-1.118.972-1.557.42-.438.921-.783 1.503-1.035s1.228-.377 1.936-.377c.792 0 1.481.151 2.069.459.588.306 1.071.717 1.449 1.231.378.517.651 1.104.819 1.765.168.659.228 1.351.18 2.069h-6.714c.034.827.244 1.429.628 1.799zm2.889-4.896c-.306-.336-.771-.504-1.395-.504-.408 0-.747.068-1.017.207-.271.138-.486.309-.648.513s-.276.42-.342.647c-.066.229-.105.433-.117.611h4.158c-.12-.646-.333-1.138-.639-1.474zm7.137-2.177v1.729h.036c.119-.288.281-.555.485-.801s.438-.457.702-.631.546-.309.846-.404c.301-.096.612-.145.937-.145.167 0 .354.029.558.09v2.377l-.432-.063c-.168-.019-.331-.026-.486-.026-.468 0-.863.078-1.188.233s-.585.369-.783.64-.339.586-.423.944c-.084.36-.126.75-.126 1.17v4.194h-2.557v-9.307h2.431zm6.723 6.992c.114.198.261.36.441.486s.387.22.621.279c.233.059.477.09.729.09.18 0 .369-.021.567-.063.197-.041.378-.106.54-.196s.297-.211.404-.36c.108-.149.162-.339.162-.567 0-.384-.255-.672-.765-.863s-1.221-.383-2.133-.576c-.372-.084-.735-.182-1.089-.297-.354-.113-.669-.264-.945-.449s-.498-.42-.666-.702c-.168-.281-.252-.627-.252-1.035 0-.601.117-1.092.351-1.476.234-.385.543-.688.928-.909.384-.222.815-.378 1.296-.468.479-.09.972-.135 1.476-.135s.993.047 1.467.144c.475.097.897.258 1.27.485.372.229.681.53.927.91.246.377.393.854.441 1.43h-2.431c-.036-.491-.222-.824-.558-.998s-.732-.262-1.188-.262l-.468.026c-.168.019-.321.058-.459.117-.138.062-.255.147-.351.261-.097.114-.145.268-.145.459 0 .229.084.414.252.559s.388.262.657.352c.271.09.579.171.927.243l1.062.233c.372.084.734.187 1.089.307.354.119.669.279.945.477.275.198.498.444.666.738s.252.657.252 1.089c0 .612-.123 1.125-.369 1.539s-.567.747-.963.999-.85.43-1.359.531-1.029.152-1.557.152c-.54 0-1.068-.055-1.584-.162-.517-.107-.976-.287-1.377-.539-.402-.252-.732-.586-.99-1s-.399-.934-.423-1.558h2.43c.001.274.058.512.172.709zm10.448-.459v2.771h-2.826v-2.771h2.826z"/><path fill-rule="evenodd" clip-rule="evenodd" fill="#fff" d="M501.933 213h-14.865c-1.97 0-3.567 1.62-3.567 3.619v30.762c0 1.999 1.598 3.619 3.567 3.619h14.865c1.97 0 3.567-1.62 3.567-3.619v-30.762c0-1.999-1.597-3.619-3.567-3.619zm-7.433 35.993c-1.096 0-1.985-.895-1.985-1.997s.89-1.997 1.985-1.997c1.097 0 1.986.895 1.986 1.997s-.889 1.997-1.986 1.997zm8-4.993h-16v-28h16v28zm-35.567 29h-14.865c-1.97 0-3.567 1.62-3.567 3.619v30.762c0 1.999 1.598 3.619 3.567 3.619h14.865c1.97 0 3.567-1.62 3.567-3.619v-30.762c0-1.999-1.597-3.619-3.567-3.619zm-7.433 35.993c-1.096 0-1.985-.895-1.985-1.997s.89-1.996 1.985-1.996c1.097 0 1.986.894 1.986 1.996s-.889 1.997-1.986 1.997zm8-4.993h-16v-28h16v28zm22-156.619v-30.762c0-1.999-1.598-3.619-3.567-3.619h-14.865c-1.97 0-3.567 1.62-3.567 3.619v30.762c0 1.999 1.598 3.619 3.567 3.619h14.865c1.97 0 3.567-1.62 3.567-3.619zm-19-3.381v-28h16v28h-16zm8 4.993c-1.096 0-1.985-.895-1.985-1.997s.89-1.996 1.985-1.996c1.097 0 1.986.894 1.986 1.996s-.889 1.997-1.986 1.997zm60.433-60.993h-14.865c-1.97 0-3.567 1.62-3.567 3.619v30.762c0 1.999 1.598 3.619 3.567 3.619h14.865c1.97 0 3.567-1.62 3.567-3.619v-30.762c0-1.999-1.597-3.619-3.567-3.619zm-7.433 35.993c-1.096 0-1.985-.895-1.985-1.997s.89-1.996 1.985-1.996c1.097 0 1.986.894 1.986 1.996s-.889 1.997-1.986 1.997zm8-4.993h-16v-28h16v28zm-.567 138h-14.865c-1.97 0-3.567 1.62-3.567 3.619v30.762c0 1.999 1.598 3.619 3.567 3.619h14.865c1.97 0 3.567-1.62 3.567-3.619v-30.762c0-1.999-1.597-3.619-3.567-3.619zm-7.433 35.993c-1.096 0-1.985-.895-1.985-1.997s.89-1.996 1.985-1.996c1.097 0 1.986.894 1.986 1.996s-.889 1.997-1.986 1.997zm8-4.993h-16v-28h16v28z" opacity=".6"/></svg>