<?xml version="1.0" encoding="utf-8"?>
<!-- Generator: Adobe Illustrator 16.0.0, SVG Export Plug-In . SVG Version: 6.00 Build 0)  -->
<!DOCTYPE svg PUBLIC "-//W3C//DTD SVG 1.1//EN" "http://www.w3.org/Graphics/SVG/1.1/DTD/svg11.dtd">
<svg version="1.1" id="Layer_1" xmlns="http://www.w3.org/2000/svg" xmlns:xlink="http://www.w3.org/1999/xlink" x="0px" y="0px"
	 width="750px" height="510px" viewBox="0 0 750 510" enable-background="new 0 0 750 510" xml:space="preserve">
<g>
	<path fill="#FFFFFF" d="M536.281,162.258l0.001,0.047l0.02-0.375L536.281,162.258z M326.279,232.369l0.012,0.246l-0.009-0.316
		L326.279,232.369L326.279,232.369z M326.308,232.945l-0.001-0.009L326.308,232.945z M363.511,329.684l-5.06,0.008l-0.024,0.076
		h-5.357l-0.011-0.07l-9.729,0.015v0.058l-6.271-0.021l-0.008-0.027l-4.758,0.008v-2.947c-1.463,0.339-2.61,1.484-2.971,2.951
		l-2.031,0.004v2h2.051c0.455,1.722,1.997,2.996,3.846,2.996c1.85,0,3.392-1.275,3.847-2.996h21.406
		c0.445,1.721,1.993,2.996,3.853,2.996c1.857,0,3.405-1.275,3.852-2.996h2.146l0.089-2.058l-2.25,0.003
		c-0.446-1.634-1.89-2.844-3.641-2.931c0.317,0.385,0.654,0.771,1.027,1.158C363.451,328.646,363.495,329.438,363.511,329.684
		L363.511,329.684z M326.307,232.936l-0.016-0.321L326.307,232.936z M326.281,232.258l0.001,0.041l0.019-0.367L326.281,232.258
		L326.281,232.258z M536.291,162.595c0.096,2.812,1.357,3.463,1.357,10.014l0.002,0.014v-6.577
		C536.845,165.115,536.343,163.915,536.291,162.595L536.291,162.595z M371.436,288.367c0,0-1.371,1.174-1.768,1.084
		c-0.721-0.162,0.614-1.24,0.614-1.24s-0.985-2.48-6.761-2.48c-12.205,0-12.227,13.996-12.227,13.996h-14
		c-0.729-1.662-2.663-2.965-4.896-2.965l-0.161,0.024l-0.403-0.021c-2.92,0-5.31,2.273-5.534,5.166
		c0.108-0.854,0.669-0.959,1.411-0.681l-0.062,0.094v4.7c1.019,1.178,2.514,1.926,4.185,1.926c0.243,0,0.48-0.021,0.714-0.052
		l0.067,1.323c0,0-4.945,6.054-4.966,3.381v4.32l3.529-2.271c0,0,0.021-0.656,0-1.652c-0.022-1.018,1.113-0.945,1.113-0.291v14.047
		c0.289-0.066,0.586-0.109,0.895-0.109c1.87,0,3.428,1.302,3.863,3.052l6.279-0.008v-1.804c0,0-4.302-3.416-4.302-11.162
		c0-1.045,1.493-1.553,3.688-3.104c0,0,4.735,1.945,9.124,3.104c0,3.995,1.121,12.238,1.219,12.952l5.393-0.007
		c0.459-1.702,1.996-2.961,3.842-2.961l0.196,0.02c-3.923-4.729-3.89-9.059-3.89-10.625c1.901-2.283,3.69-3.221,3.698-6.396
		l-0.039-11.594c0-0.998,0.649-0.848,0.649,0c0,0.85,1.268,2.914,1.845,4.342c0.578,1.424,3.688,3.094,3.688,1.859
		c0-3.541,1.713-7.479,2.354-10.498c0.428-2.018,0.104-1.566,0.104-2.523l1.408-2.943L371.436,288.367L371.436,288.367z
		 M367.82,295.037c-0.34,0-0.614-0.277-0.614-0.621c0-0.342,0.273-0.619,0.614-0.619c0.337,0,0.613,0.277,0.613,0.619
		C368.434,294.76,368.159,295.037,367.82,295.037z M326.308,232.945c0.184,2.529,1.341,3.391,1.341,9.664l0.002,0.014v-6.577
		C326.916,235.197,326.428,234.127,326.308,232.945L326.308,232.945z M643.511,259.684l-5.061,0.006l-0.024,0.078h-5.354
		l-0.011-0.069l-9.729,0.013v0.061l-6.271-0.021l-0.01-0.027l-4.758,0.006v-2.946c-1.462,0.339-2.606,1.483-2.969,2.95l-2.032,0.002
		v2h2.052c0.454,1.724,1.996,2.998,3.847,2.998c1.85,0,3.391-1.274,3.846-2.998h21.405c0.444,1.723,1.995,2.998,3.854,2.998
		c1.857,0,3.406-1.275,3.854-2.998h2.146l0.089-2.055l-2.249,0.004c-0.444-1.636-1.891-2.845-3.643-2.932
		c0.317,0.385,0.655,0.771,1.027,1.159C643.451,258.646,643.494,259.436,643.511,259.684L643.511,259.684z M65.28,302.37
		l0.009,0.183l-0.007-0.234L65.28,302.37z M606.291,162.595l-0.009-0.29l-0.003,0.064L606.291,162.595L606.291,162.595z
		 M607.715,161.253l-0.062,0.096v4.697c1.019,1.178,2.514,1.926,4.185,1.926c0.243,0,0.48-0.021,0.715-0.051l0.066,1.322
		c0,0-4.944,6.054-4.966,3.38v4.326l3.527-2.273c0,0,0.021-0.658,0-1.654c-0.021-1.016,1.112-0.947,1.112-0.292v14.047
		c0.289-0.067,0.587-0.11,0.896-0.11c1.869,0,3.428,1.3,3.862,3.05l6.28-0.008v-1.801c0,0-4.302-3.416-4.302-11.163
		c0-1.045,1.493-1.552,3.688-3.102c0,0,4.735,1.946,9.124,3.102c0,3.993,1.119,12.222,1.22,12.951l5.394-0.007
		c0.46-1.701,1.997-2.959,3.842-2.959l0.195,0.02c-3.922-4.729-3.891-9.06-3.891-10.625c1.9-2.285,3.691-3.221,3.699-6.396
		l-0.039-11.592c0-0.997,0.649-0.848,0.649,0c0,0.848,1.267,2.915,1.844,4.341c0.578,1.426,3.688,3.096,3.688,1.86
		c0-3.541,1.712-7.479,2.354-10.497c0.428-2.019,0.104-1.569,0.104-2.526l1.407-2.945h-0.871c0,0-1.37,1.174-1.768,1.085
		c-0.721-0.162,0.614-1.24,0.614-1.24s-0.985-2.48-6.764-2.48c-12.203,0-12.226,13.995-12.226,13.995h-14
		c-0.729-1.661-2.663-2.964-4.896-2.964l-0.146,0.022l-0.417-0.021c-2.92,0-5.31,2.274-5.533,5.163
		C606.411,161.079,606.973,160.974,607.715,161.253L607.715,161.253z M647.82,153.796c0.337,0,0.611,0.279,0.611,0.62
		c0,0.343-0.272,0.62-0.611,0.62c-0.341,0-0.614-0.277-0.614-0.62C647.206,154.074,647.479,153.796,647.82,153.796z M65.289,302.553
		c0.085,2.848,1.36,3.473,1.36,10.059v-6.564C65.836,305.104,65.332,303.889,65.289,302.553z M573.511,189.681l-5.059,0.007
		l-0.024,0.079h-5.356l-0.012-0.072l-9.729,0.013v0.059l-6.271-0.021l-0.009-0.029l-4.758,0.006v-2.946
		c-1.461,0.339-2.607,1.485-2.969,2.95l-2.032,0.003v2h2.051c0.454,1.723,1.996,2.999,3.848,2.999c1.851,0,3.392-1.277,3.847-2.999
		h21.405c0.443,1.722,1.993,2.999,3.854,2.999c1.857,0,3.406-1.277,3.854-2.999h2.146l0.089-2.055l-2.25,0.003
		c-0.444-1.634-1.89-2.842-3.642-2.929c0.318,0.384,0.655,0.77,1.028,1.158C573.451,188.646,573.494,189.434,573.511,189.681
		L573.511,189.681z M651.436,218.369c0,0-1.371,1.174-1.768,1.085c-0.721-0.162,0.614-1.24,0.614-1.24s-0.985-2.48-6.764-2.48
		c-12.202,0-12.226,13.995-12.226,13.995h-14c-0.729-1.661-2.663-2.964-4.896-2.964l-0.146,0.022l-0.417-0.021
		c-2.92,0-5.309,2.274-5.533,5.163c0.109-0.85,0.671-0.956,1.413-0.676l-0.062,0.096v4.697c1.019,1.178,2.514,1.926,4.185,1.926
		c0.243,0,0.48-0.021,0.715-0.051l0.066,1.322c0,0-4.944,6.054-4.966,3.38v4.326l3.527-2.273c0,0,0.021-0.658,0-1.654
		c-0.021-1.016,1.112-0.947,1.112-0.292v14.045c0.289-0.066,0.587-0.109,0.896-0.109c1.869,0,3.429,1.301,3.862,3.052l6.28-0.009
		v-1.802c0,0-4.302-3.417-4.302-11.163c0-1.045,1.491-1.552,3.688-3.102c0,0,4.735,1.946,9.124,3.102
		c0,3.994,1.12,12.227,1.22,12.951l5.393-0.006c0.46-1.703,1.997-2.961,3.843-2.961l0.195,0.02
		c-3.922-4.729-3.891-9.059-3.891-10.624c1.9-2.285,3.691-3.221,3.699-6.396l-0.039-11.592c0-0.997,0.649-0.848,0.649,0
		c0,0.848,1.267,2.915,1.844,4.341c0.578,1.426,3.688,3.096,3.688,1.86c0-3.541,1.713-7.479,2.354-10.497
		c0.428-2.019,0.104-1.569,0.104-2.526l1.407-2.945H651.436L651.436,218.369z M647.82,225.036c-0.341,0-0.614-0.277-0.614-0.62
		c0-0.342,0.273-0.62,0.614-0.62c0.337,0,0.611,0.279,0.611,0.62C648.434,224.759,648.159,225.036,647.82,225.036z M606.291,162.595
		c0.096,2.812,1.356,3.463,1.356,10.014l0.003,0.014v-6.577C606.845,165.115,606.343,163.915,606.291,162.595L606.291,162.595z
		 M606.281,162.258l0.001,0.047l0.02-0.375L606.281,162.258z M643.511,189.681l-5.06,0.007l-0.024,0.079h-5.355l-0.012-0.072
		l-9.729,0.013v0.059l-6.271-0.021l-0.009-0.029l-4.758,0.006v-2.946c-1.461,0.339-2.607,1.485-2.969,2.95l-2.032,0.003v2h2.051
		c0.454,1.723,1.996,2.999,3.847,2.999c1.852,0,3.393-1.277,3.848-2.999h21.404c0.444,1.722,1.994,2.999,3.854,2.999
		c1.857,0,3.406-1.277,3.854-2.999h2.146l0.089-2.055l-2.25,0.003c-0.445-1.634-1.89-2.842-3.642-2.929
		c0.317,0.384,0.654,0.77,1.026,1.158C643.451,188.646,643.494,189.434,643.511,189.681L643.511,189.681z M606.291,232.595
		c0.096,2.812,1.356,3.463,1.356,10.014l0.003,0.014v-6.577C606.845,235.115,606.343,233.915,606.291,232.595L606.291,232.595z
		 M65.281,302.258l0.001,0.061l0.02-0.395L65.281,302.258L65.281,302.258z M326.279,302.37l0.012,0.247l-0.009-0.317L326.279,302.37
		L326.279,302.37z M326.308,302.947l-0.001-0.014L326.308,302.947z M326.307,302.936l-0.016-0.316L326.307,302.936z
		 M326.308,302.947c0.185,2.527,1.34,3.392,1.34,9.662l0.002,0.016v-6.578C326.917,305.198,326.428,304.129,326.308,302.947z
		 M326.281,302.258l0.001,0.042l0.019-0.368L326.281,302.258L326.281,302.258z M579.668,149.454c-0.721-0.162,0.614-1.24,0.614-1.24
		s-0.985-2.48-6.764-2.48c-12.203,0-12.226,13.995-12.226,13.995h-14c-0.729-1.661-2.663-2.964-4.896-2.964l-0.146,0.022
		l-0.417-0.021c-2.92,0-5.31,2.274-5.533,5.163c0.109-0.85,0.671-0.956,1.413-0.676l-0.063,0.096v4.697
		c1.02,1.178,2.515,1.926,4.186,1.926c0.243,0,0.479-0.021,0.715-0.051l0.066,1.322c0,0-4.944,6.054-4.967,3.38v4.326l3.528-2.273
		c0,0,0.021-0.658,0-1.654c-0.021-1.016,1.112-0.947,1.112-0.292v14.047c0.289-0.067,0.587-0.11,0.896-0.11
		c1.869,0,3.428,1.3,3.862,3.05l6.28-0.008v-1.801c0,0-4.302-3.416-4.302-11.163c0-1.045,1.492-1.552,3.688-3.102
		c0,0,4.735,1.946,9.124,3.102c0,3.993,1.119,12.222,1.22,12.951l5.395-0.007c0.459-1.701,1.996-2.959,3.841-2.959l0.195,0.02
		c-3.923-4.729-3.891-9.06-3.891-10.625c1.9-2.285,3.691-3.221,3.699-6.396l-0.039-11.592c0-0.997,0.649-0.848,0.649,0
		c0,0.848,1.268,2.915,1.844,4.341c0.578,1.426,3.688,3.096,3.688,1.86c0-3.541,1.712-7.479,2.354-10.497
		c0.428-2.019,0.104-1.569,0.104-2.526l1.407-2.945h-0.871C581.436,148.369,580.062,149.543,579.668,149.454L579.668,149.454z
		 M577.82,155.036c-0.341,0-0.614-0.277-0.614-0.62c0-0.342,0.273-0.62,0.614-0.62c0.337,0,0.611,0.279,0.611,0.62
		C578.434,154.759,578.159,155.036,577.82,155.036z M102.511,329.684l-5.06,0.008l-0.024,0.076h-5.359l-0.01-0.07l-9.728,0.015
		v0.058l-6.271-0.021l-0.008-0.027l-4.759,0.008v-2.947c-1.463,0.339-2.61,1.484-2.971,2.951l-2.03,0.004v2h2.05
		c0.455,1.722,1.997,2.996,3.847,2.996c1.849,0,3.391-1.275,3.846-2.996H97.44c0.447,1.721,1.995,2.996,3.853,2.996
		s3.407-1.275,3.854-2.996h2.144l0.089-2.058l-2.248,0.003c-0.446-1.635-1.891-2.844-3.643-2.931
		c0.318,0.385,0.655,0.771,1.028,1.158C102.45,328.646,102.495,329.438,102.511,329.684L102.511,329.684z M606.279,232.369
		l0.012,0.226l-0.009-0.29L606.279,232.369L606.279,232.369z M110.434,288.367c0,0-1.372,1.174-1.767,1.084
		c-0.722-0.162,0.614-1.24,0.614-1.24s-0.985-2.48-6.761-2.48c-12.206,0-12.226,13.996-12.226,13.996h-14
		c-0.729-1.662-2.663-2.965-4.896-2.965l-0.161,0.024l-0.402-0.021c-2.918,0-5.306,2.271-5.533,5.156
		c0.112-0.844,0.67-0.947,1.409-0.672l-0.062,0.096v4.697c1.019,1.18,2.514,1.928,4.186,1.928c0.243,0,0.48-0.021,0.715-0.052
		l0.067,1.323c0,0-4.968,6.084-4.968,3.365v4.336l3.53-2.271c0,0,0.021-0.656,0-1.652c-0.023-1.018,1.113-0.945,1.113-0.291v14.047
		c0.289-0.066,0.587-0.109,0.896-0.109c1.87,0,3.427,1.303,3.863,3.053l6.279-0.009v-1.804c0,0-4.303-3.416-4.303-11.162
		c0-1.045,1.494-1.553,3.688-3.104c0,0,4.736,1.945,9.124,3.104c0,3.995,1.121,12.238,1.219,12.952l5.393-0.007
		c0.459-1.702,1.996-2.961,3.842-2.961l0.196,0.02c-3.923-4.729-3.889-9.059-3.889-10.625c1.901-2.283,3.691-3.221,3.697-6.396
		l-0.039-11.594c0-0.998,0.649-0.848,0.649,0c0,0.85,1.267,2.914,1.844,4.342c0.578,1.424,3.688,3.095,3.688,1.859
		c0-3.541,1.711-7.479,2.354-10.498c0.429-2.018,0.104-1.566,0.104-2.523l1.408-2.943L110.434,288.367L110.434,288.367z
		 M106.82,295.037c-0.34,0-0.614-0.277-0.614-0.621c0-0.342,0.274-0.619,0.614-0.619c0.339,0,0.614,0.277,0.615,0.619
		C107.435,294.76,107.16,295.037,106.82,295.037z M606.281,232.258l0.001,0.047l0.02-0.375L606.281,232.258z M536.279,162.369
		l0.012,0.226l-0.009-0.29L536.279,162.369L536.279,162.369z M396.291,162.595c0.096,2.812,1.357,3.463,1.357,10.014l0.002,0.014
		v-6.575C396.846,165.116,396.343,163.915,396.291,162.595L396.291,162.595z M503.511,189.681l-5.059,0.007l-0.024,0.079h-5.356
		l-0.012-0.072l-9.729,0.013v0.059l-6.271-0.021l-0.009-0.029l-4.757,0.006v-2.946c-1.461,0.339-2.608,1.485-2.97,2.95l-2.032,0.003
		v2h2.051c0.454,1.723,1.996,2.999,3.847,2.999c1.852,0,3.393-1.277,3.848-2.999h21.404c0.444,1.722,1.993,2.999,3.854,2.999
		c1.856,0,3.406-1.277,3.854-2.999h2.146l0.089-2.055l-2.25,0.003c-0.446-1.634-1.89-2.842-3.642-2.929
		c0.317,0.384,0.653,0.77,1.026,1.158C503.451,188.646,503.494,189.434,503.511,189.681L503.511,189.681z M466.279,302.37
		l0.012,0.228l-0.009-0.291L466.279,302.37z M439.668,149.454c-0.721-0.162,0.614-1.24,0.614-1.24s-0.985-2.48-6.762-2.48
		c-12.205,0-12.228,13.995-12.228,13.995h-14c-0.729-1.661-2.663-2.964-4.896-2.964l-0.146,0.022l-0.417-0.021
		c-2.92,0-5.31,2.274-5.533,5.163c0.109-0.851,0.671-0.956,1.413-0.675l-0.062,0.095v4.699c1.02,1.177,2.514,1.924,4.185,1.924
		c0.243,0,0.479-0.021,0.715-0.051l0.066,1.322c0,0-4.943,6.054-4.966,3.38v4.326l3.527-2.273c0,0,0.021-0.658,0-1.654
		c-0.021-1.016,1.113-0.947,1.113-0.292v14.047c0.289-0.067,0.586-0.11,0.896-0.11c1.868,0,3.427,1.3,3.861,3.05l6.28-0.008v-1.801
		c0,0-4.303-3.416-4.303-11.163c0-1.045,1.494-1.552,3.688-3.102c0,0,4.735,1.946,9.124,3.102c0,3.993,1.119,12.222,1.22,12.951
		l5.395-0.007c0.459-1.701,1.996-2.959,3.841-2.959l0.195,0.02c-3.923-4.729-3.891-9.06-3.891-10.625
		c1.901-2.285,3.69-3.221,3.698-6.396l-0.039-11.592c0-0.997,0.649-0.848,0.649,0c0,0.848,1.268,2.915,1.845,4.341
		c0.578,1.426,3.688,3.096,3.688,1.86c0-3.541,1.712-7.479,2.354-10.497c0.428-2.019,0.104-1.569,0.104-2.526l1.406-2.945h-0.871
		C441.436,148.369,440.063,149.543,439.668,149.454z M437.82,155.036c-0.341,0-0.614-0.277-0.614-0.62
		c0-0.342,0.273-0.62,0.614-0.62c0.337,0,0.611,0.279,0.611,0.62C438.434,154.759,438.159,155.036,437.82,155.036z M396.281,162.258
		l0.001,0.047l0.02-0.375L396.281,162.258z M536.281,302.258l0.001,0.049l0.02-0.377L536.281,302.258z M433.511,189.681
		l-5.059,0.007l-0.024,0.079h-5.356l-0.012-0.072l-9.729,0.013v0.059l-6.271-0.021l-0.009-0.029l-4.757,0.006v-2.946
		c-1.461,0.339-2.608,1.485-2.97,2.95l-2.032,0.003v2h2.051c0.454,1.723,1.996,2.999,3.847,2.999c1.852,0,3.394-1.277,3.848-2.999
		h21.404c0.444,1.722,1.993,2.999,3.854,2.999c1.856,0,3.406-1.277,3.854-2.999h2.146l0.089-2.055l-2.25,0.003
		c-0.446-1.634-1.89-2.842-3.642-2.929c0.317,0.384,0.653,0.77,1.026,1.158C433.451,188.646,433.494,189.434,433.511,189.681
		L433.511,189.681z M509.668,149.454c-0.721-0.162,0.614-1.24,0.614-1.24s-0.985-2.48-6.762-2.48
		c-12.205,0-12.228,13.995-12.228,13.995h-14c-0.729-1.661-2.663-2.964-4.896-2.964l-0.146,0.022l-0.417-0.021
		c-2.92,0-5.31,2.274-5.533,5.163c0.109-0.85,0.671-0.956,1.413-0.676l-0.062,0.096v4.697c1.019,1.178,2.514,1.926,4.185,1.926
		c0.243,0,0.479-0.021,0.715-0.051l0.066,1.322c0,0-4.944,6.054-4.966,3.38v4.326l3.527-2.273c0,0,0.021-0.658,0-1.654
		c-0.021-1.016,1.113-0.947,1.113-0.292v14.047c0.289-0.067,0.586-0.11,0.896-0.11c1.868,0,3.427,1.3,3.861,3.05l6.28-0.008v-1.801
		c0,0-4.302-3.416-4.302-11.163c0-1.045,1.493-1.552,3.688-3.102c0,0,4.735,1.946,9.124,3.102c0,3.993,1.119,12.222,1.22,12.951
		l5.395-0.007c0.459-1.701,1.996-2.959,3.841-2.959l0.195,0.02c-3.922-4.729-3.891-9.06-3.891-10.625
		c1.901-2.285,3.69-3.221,3.699-6.396l-0.039-11.592c0-0.997,0.649-0.848,0.649,0c0,0.848,1.268,2.915,1.844,4.341
		c0.578,1.426,3.688,3.096,3.688,1.86c0-3.541,1.712-7.479,2.354-10.497c0.428-2.019,0.104-1.569,0.104-2.526l1.406-2.945h-0.871
		C511.436,148.369,510.063,149.543,509.668,149.454z M507.82,155.036c-0.341,0-0.614-0.277-0.614-0.62
		c0-0.342,0.273-0.62,0.614-0.62c0.337,0,0.611,0.279,0.611,0.62C508.434,154.759,508.159,155.036,507.82,155.036z M536.279,302.37
		l0.012,0.228l-0.009-0.291L536.279,302.37L536.279,302.37z M433.511,259.684l-5.06,0.006l-0.024,0.078h-5.355l-0.012-0.069
		l-9.729,0.013v0.061l-6.271-0.021l-0.009-0.027l-4.757,0.006v-2.946c-1.462,0.339-2.609,1.483-2.97,2.95l-2.032,0.002v2h2.052
		c0.454,1.724,1.996,2.998,3.846,2.998c1.852,0,3.393-1.274,3.847-2.998h21.406c0.444,1.723,1.992,2.998,3.854,2.998
		c1.857,0,3.406-1.275,3.854-2.998h2.146l0.089-2.055l-2.249,0.004c-0.446-1.636-1.891-2.845-3.643-2.932
		c0.316,0.385,0.654,0.771,1.026,1.159C433.451,258.646,433.494,259.436,433.511,259.684L433.511,259.684z M439.668,219.454
		c-0.721-0.162,0.614-1.24,0.614-1.24s-0.985-2.48-6.762-2.48c-12.204,0-12.228,13.995-12.228,13.995h-14
		c-0.729-1.661-2.663-2.964-4.896-2.964l-0.146,0.022l-0.417-0.021c-2.92,0-5.31,2.274-5.533,5.163
		c0.109-0.851,0.671-0.956,1.413-0.675l-0.062,0.095v4.699c1.019,1.177,2.513,1.924,4.184,1.924c0.243,0,0.479-0.021,0.715-0.051
		l0.066,1.322c0,0-4.943,6.054-4.965,3.38v4.326l3.526-2.273c0,0,0.021-0.658,0-1.654c-0.021-1.016,1.113-0.947,1.113-0.292v14.045
		c0.289-0.066,0.586-0.109,0.896-0.109c1.869,0,3.428,1.301,3.861,3.052l6.28-0.009v-1.802c0,0-4.302-3.417-4.302-11.163
		c0-1.045,1.493-1.552,3.688-3.102c0,0,4.735,1.946,9.124,3.102c0,3.994,1.12,12.227,1.22,12.951l5.394-0.006
		c0.459-1.703,1.996-2.961,3.842-2.961l0.195,0.02c-3.922-4.729-3.891-9.059-3.891-10.624c1.901-2.285,3.69-3.221,3.698-6.396
		l-0.039-11.592c0-0.997,0.649-0.848,0.649,0c0,0.848,1.268,2.915,1.845,4.341c0.578,1.426,3.688,3.096,3.688,1.86
		c0-3.541,1.712-7.479,2.354-10.497c0.428-2.019,0.104-1.569,0.104-2.526l1.406-2.945h-0.871
		C441.436,218.369,440.063,219.543,439.668,219.454L439.668,219.454z M437.82,225.036c-0.341,0-0.614-0.277-0.614-0.62
		c0-0.342,0.273-0.62,0.614-0.62c0.337,0,0.611,0.279,0.611,0.62C438.434,224.759,438.159,225.036,437.82,225.036z M579.668,219.454
		c-0.721-0.162,0.614-1.24,0.614-1.24s-0.985-2.48-6.764-2.48c-12.202,0-12.226,13.995-12.226,13.995h-14
		c-0.729-1.661-2.663-2.964-4.896-2.964l-0.146,0.022l-0.417-0.021c-2.92,0-5.309,2.274-5.533,5.163
		c0.109-0.85,0.671-0.956,1.413-0.676l-0.062,0.096v4.697c1.019,1.178,2.514,1.926,4.185,1.926c0.243,0,0.48-0.021,0.715-0.051
		l0.066,1.322c0,0-4.944,6.054-4.966,3.38v4.326l3.527-2.273c0,0,0.021-0.658,0-1.654c-0.021-1.016,1.112-0.947,1.112-0.292v14.045
		c0.289-0.066,0.587-0.109,0.896-0.109c1.869,0,3.429,1.301,3.862,3.052l6.28-0.009v-1.802c0,0-4.302-3.417-4.302-11.163
		c0-1.045,1.492-1.552,3.688-3.102c0,0,4.735,1.946,9.124,3.102c0,3.994,1.12,12.227,1.22,12.951l5.394-0.006
		c0.459-1.703,1.996-2.961,3.842-2.961l0.195,0.02c-3.922-4.729-3.891-9.059-3.891-10.624c1.9-2.285,3.691-3.221,3.699-6.396
		l-0.039-11.592c0-0.997,0.649-0.848,0.649,0c0,0.848,1.268,2.915,1.844,4.341c0.578,1.426,3.688,3.096,3.688,1.86
		c0-3.541,1.713-7.479,2.354-10.497c0.428-2.019,0.104-1.569,0.104-2.526l1.407-2.945h-0.871
		C581.436,218.369,580.062,219.543,579.668,219.454L579.668,219.454z M577.82,225.036c-0.341,0-0.614-0.277-0.614-0.62
		c0-0.342,0.273-0.62,0.614-0.62c0.337,0,0.611,0.279,0.611,0.62C578.434,224.759,578.159,225.036,577.82,225.036z M466.291,162.595
		c0.096,2.812,1.356,3.463,1.356,10.014l0.003,0.014v-6.577C466.845,165.115,466.343,163.915,466.291,162.595L466.291,162.595z
		 M511.436,288.367c0,0-1.37,1.174-1.768,1.084c-0.721-0.162,0.614-1.24,0.614-1.24s-0.985-2.48-6.762-2.48
		c-12.204,0-12.228,13.996-12.228,13.996h-14c-0.729-1.662-2.663-2.965-4.896-2.965l-0.16,0.024l-0.403-0.021
		c-2.92,0-5.31,2.271-5.533,5.162c0.109-0.85,0.67-0.953,1.411-0.677l-0.062,0.095v4.699c1.02,1.178,2.515,1.926,4.186,1.926
		c0.243,0,0.479-0.021,0.715-0.052l0.066,1.323c0,0-4.944,6.054-4.967,3.381v4.32l3.528-2.271c0,0,0.021-0.656,0-1.652
		c-0.021-1.018,1.113-0.945,1.113-0.291v14.047c0.289-0.066,0.586-0.109,0.896-0.109c1.868,0,3.429,1.303,3.861,3.053l6.28-0.009
		v-1.804c0,0-4.302-3.416-4.302-11.162c0-1.045,1.493-1.553,3.688-3.104c0,0,4.735,1.945,9.124,3.104
		c0,3.995,1.122,12.238,1.22,12.952l5.394-0.007c0.459-1.702,1.996-2.961,3.842-2.961l0.196,0.02
		c-3.924-4.729-3.892-9.059-3.892-10.625c1.901-2.283,3.69-3.221,3.699-6.396l-0.039-11.594c0-0.998,0.649-0.848,0.649,0
		c0,0.85,1.268,2.914,1.844,4.342c0.578,1.424,3.688,3.095,3.688,1.859c0-3.541,1.713-7.479,2.354-10.498
		c0.428-2.018,0.104-1.566,0.104-2.523l1.406-2.943L511.436,288.367L511.436,288.367z M507.82,295.037
		c-0.341,0-0.614-0.277-0.614-0.621c0-0.342,0.273-0.619,0.614-0.619c0.337,0,0.611,0.277,0.611,0.619
		C508.434,294.76,508.159,295.037,507.82,295.037z M503.511,329.684l-5.06,0.008l-0.023,0.076h-5.356l-0.012-0.069l-9.729,0.014
		v0.058l-6.271-0.021l-0.009-0.027l-4.757,0.008v-2.947c-1.462,0.339-2.609,1.484-2.971,2.951l-2.031,0.004v2h2.052
		c0.455,1.722,1.996,2.996,3.846,2.996c1.851,0,3.392-1.275,3.847-2.996h21.406c0.445,1.721,1.992,2.996,3.854,2.996
		c1.857,0,3.405-1.275,3.852-2.996h2.146l0.089-2.057l-2.249,0.002c-0.446-1.635-1.891-2.844-3.642-2.931
		c0.316,0.386,0.652,0.771,1.025,1.158C503.451,328.646,503.494,329.438,503.511,329.684L503.511,329.684z M466.279,232.369
		l0.012,0.226l-0.009-0.29L466.279,232.369z M466.291,232.595c0.096,2.812,1.356,3.463,1.356,10.014l0.003,0.014v-6.577
		C466.845,235.115,466.343,233.915,466.291,232.595z M466.281,232.258l0.001,0.047l0.02-0.375L466.281,232.258z M503.511,259.684
		l-5.06,0.006l-0.024,0.078h-5.355l-0.012-0.069l-9.729,0.013v0.061l-6.271-0.021l-0.009-0.027l-4.757,0.006v-2.946
		c-1.462,0.339-2.609,1.483-2.97,2.95l-2.032,0.002v2h2.052c0.454,1.724,1.996,2.998,3.846,2.998c1.851,0,3.392-1.274,3.847-2.998
		h21.406c0.444,1.723,1.992,2.998,3.854,2.998c1.857,0,3.406-1.275,3.854-2.998h2.146l0.089-2.055l-2.249,0.004
		c-0.446-1.636-1.891-2.845-3.643-2.932c0.316,0.385,0.655,0.771,1.026,1.159C503.451,258.646,503.494,259.436,503.511,259.684
		L503.511,259.684z M466.291,302.598c0.097,2.811,1.356,3.463,1.356,10.015l0.003,0.015v-6.578
		C466.845,305.116,466.343,303.916,466.291,302.598L466.291,302.598z M466.281,162.258l0.001,0.047l0.02-0.375L466.281,162.258z
		 M509.668,219.454c-0.721-0.162,0.614-1.24,0.614-1.24s-0.985-2.48-6.762-2.48c-12.204,0-12.228,13.995-12.228,13.995h-14
		c-0.729-1.661-2.663-2.964-4.896-2.964l-0.146,0.022l-0.417-0.021c-2.92,0-5.31,2.274-5.533,5.163
		c0.109-0.85,0.671-0.956,1.413-0.676l-0.062,0.096v4.697c1.019,1.178,2.514,1.926,4.185,1.926c0.243,0,0.479-0.021,0.715-0.051
		l0.066,1.322c0,0-4.944,6.054-4.966,3.38v4.326l3.527-2.273c0,0,0.021-0.658,0-1.654c-0.021-1.016,1.113-0.947,1.113-0.292v14.045
		c0.289-0.066,0.586-0.109,0.896-0.109c1.868,0,3.428,1.301,3.861,3.053l6.28-0.01v-1.802c0,0-4.302-3.417-4.302-11.163
		c0-1.045,1.493-1.552,3.688-3.102c0,0,4.735,1.946,9.124,3.102c0,3.994,1.12,12.227,1.22,12.951l5.394-0.006
		c0.459-1.703,1.996-2.961,3.842-2.961l0.195,0.02c-3.922-4.729-3.891-9.059-3.891-10.624c1.901-2.285,3.69-3.221,3.699-6.396
		l-0.039-11.592c0-0.997,0.649-0.848,0.649,0c0,0.848,1.268,2.915,1.844,4.341c0.578,1.426,3.688,3.096,3.688,1.86
		c0-3.541,1.713-7.479,2.354-10.497c0.428-2.019,0.104-1.569,0.104-2.526l1.406-2.945h-0.871
		C511.436,218.369,510.063,219.543,509.668,219.454L509.668,219.454z M507.82,225.036c-0.341,0-0.614-0.277-0.614-0.62
		c0-0.342,0.273-0.62,0.614-0.62c0.337,0,0.611,0.279,0.611,0.62C508.434,224.759,508.159,225.036,507.82,225.036z M466.279,162.369
		l0.012,0.226l-0.009-0.29L466.279,162.369z M466.281,302.258l0.001,0.049l0.02-0.377L466.281,302.258z M396.279,162.369
		l0.012,0.226l-0.009-0.29L396.279,162.369z M536.291,232.595c0.096,2.812,1.356,3.463,1.356,10.014l0.003,0.014v-6.577
		C536.845,235.115,536.343,233.915,536.291,232.595z M326.308,162.945c0.184,2.529,1.34,3.391,1.34,9.664l0.003,0.014v-6.577
		C326.916,165.197,326.428,164.127,326.308,162.945L326.308,162.945z M326.279,162.369l0.012,0.246l-0.009-0.316L326.279,162.369
		L326.279,162.369z M536.279,232.369l0.012,0.226l-0.009-0.29L536.279,232.369L536.279,232.369z M536.281,232.258l0.001,0.047
		l0.02-0.375L536.281,232.258z M363.511,189.681l-5.06,0.007l-0.024,0.079h-5.357l-0.011-0.072l-9.729,0.013v0.059l-6.271-0.021
		l-0.009-0.029l-4.757,0.006v-2.946c-1.462,0.339-2.609,1.485-2.97,2.95l-2.032,0.003v2h2.051c0.454,1.723,1.996,2.999,3.846,2.999
		c1.851,0,3.393-1.277,3.847-2.999h21.404c0.446,1.722,1.994,2.999,3.854,2.999c1.858,0,3.407-1.277,3.853-2.999h2.146l0.089-2.055
		l-2.25,0.003c-0.446-1.634-1.89-2.842-3.641-2.929c0.317,0.384,0.654,0.77,1.027,1.158
		C363.451,188.646,363.495,189.434,363.511,189.681L363.511,189.681z M326.281,162.258l0.001,0.041l0.019-0.367L326.281,162.258
		L326.281,162.258z M573.511,259.684l-5.06,0.006l-0.024,0.078h-5.355l-0.012-0.069l-9.729,0.013v0.061l-6.271-0.021l-0.009-0.027
		l-4.758,0.006v-2.946c-1.462,0.339-2.607,1.483-2.969,2.95l-2.032,0.002v2h2.052c0.454,1.724,1.996,2.998,3.847,2.998
		c1.85,0,3.391-1.274,3.846-2.998h21.406c0.444,1.723,1.993,2.998,3.854,2.998c1.857,0,3.406-1.275,3.854-2.998h2.146l0.089-2.055
		l-2.249,0.004c-0.444-1.636-1.891-2.845-3.643-2.932c0.316,0.385,0.655,0.771,1.028,1.159
		C573.451,258.646,573.494,259.436,573.511,259.684L573.511,259.684z M363.511,259.684l-5.06,0.006l-0.024,0.078h-5.357
		l-0.011-0.069l-9.729,0.013v0.061l-6.271-0.021l-0.009-0.027l-4.757,0.006v-2.946c-1.462,0.339-2.61,1.483-2.971,2.95l-2.031,0.002
		v2h2.051c0.455,1.724,1.997,2.998,3.846,2.998c1.85,0,3.392-1.274,3.847-2.998h21.405c0.446,1.723,1.994,2.998,3.854,2.998
		c1.857,0,3.406-1.275,3.852-2.998h2.146l0.089-2.055l-2.25,0.004c-0.446-1.636-1.89-2.845-3.642-2.932
		c0.318,0.385,0.654,0.771,1.027,1.159C363.451,258.646,363.495,259.436,363.511,259.684z M369.668,219.454
		c-0.721-0.162,0.614-1.24,0.614-1.24s-0.985-2.48-6.762-2.48c-12.204,0-12.226,13.995-12.226,13.995h-14
		c-0.729-1.661-2.663-2.964-4.896-2.964l-0.147,0.022l-0.417-0.021c-2.92,0-5.31,2.276-5.534,5.166
		c0.109-0.853,0.671-0.958,1.413-0.678l-0.063,0.096v4.697c1.019,1.178,2.514,1.926,4.185,1.926c0.243,0,0.48-0.021,0.714-0.051
		l0.067,1.322c0,0-4.945,6.054-4.966,3.38v4.326l3.529-2.273c0,0,0.021-0.658,0-1.654c-0.022-1.016,1.113-0.947,1.113-0.292v14.046
		c0.289-0.067,0.586-0.11,0.895-0.11c1.869,0,3.428,1.302,3.862,3.052l6.28-0.009v-1.802c0,0-4.302-3.417-4.302-11.163
		c0-1.045,1.493-1.552,3.688-3.102c0,0,4.735,1.946,9.124,3.102c0,3.994,1.119,12.226,1.219,12.952l5.393-0.008
		c0.459-1.701,1.997-2.961,3.842-2.961l0.196,0.021c-3.922-4.729-3.89-9.059-3.89-10.624c1.901-2.285,3.69-3.221,3.698-6.396
		l-0.039-11.592c0-0.997,0.649-0.848,0.649,0s1.268,2.915,1.845,4.341c0.578,1.426,3.688,3.096,3.688,1.86
		c0-3.541,1.713-7.479,2.354-10.497c0.428-2.019,0.104-1.569,0.104-2.526l1.408-2.945h-0.871
		C371.436,218.369,370.063,219.543,369.668,219.454L369.668,219.454z M367.82,225.036c-0.341,0-0.614-0.277-0.614-0.62
		c0-0.342,0.273-0.62,0.614-0.62c0.337,0,0.613,0.279,0.613,0.62C368.434,224.759,368.159,225.036,367.82,225.036z M326.307,162.936
		l-0.016-0.321L326.307,162.936z M326.308,162.945l-0.001-0.009L326.308,162.945z M396.291,302.598
		c0.097,2.811,1.358,3.463,1.358,10.015l0.002,0.015v-6.576C396.846,305.117,396.343,303.917,396.291,302.598L396.291,302.598z
		 M433.511,329.684l-5.06,0.008l-0.023,0.076h-5.356l-0.012-0.069l-9.729,0.014v0.058l-6.271-0.021l-0.008-0.027l-4.758,0.008
		v-2.947c-1.462,0.339-2.609,1.484-2.971,2.951l-2.031,0.004v2h2.052c0.455,1.722,1.996,2.996,3.847,2.996
		c1.85,0,3.391-1.275,3.846-2.996h21.406c0.445,1.721,1.992,2.996,3.854,2.996c1.857,0,3.405-1.275,3.853-2.996h2.146l0.089-2.057
		l-2.249,0.002c-0.446-1.635-1.891-2.844-3.642-2.931c0.316,0.386,0.652,0.771,1.025,1.158
		C433.451,328.646,433.494,329.438,433.511,329.684L433.511,329.684z M441.436,288.367c0,0-1.369,1.174-1.768,1.084
		c-0.721-0.162,0.614-1.24,0.614-1.24s-0.985-2.48-6.762-2.48c-12.204,0-12.228,13.996-12.228,13.996h-14
		c-0.729-1.662-2.663-2.965-4.896-2.965l-0.16,0.024l-0.403-0.021c-2.92,0-5.309,2.271-5.533,5.162
		c0.109-0.851,0.671-0.953,1.412-0.677l-0.062,0.095v4.701c1.019,1.178,2.513,1.924,4.184,1.924c0.243,0,0.479-0.021,0.715-0.052
		l0.066,1.323c0,0-4.943,6.054-4.965,3.381v4.321l3.526-2.272c0,0,0.021-0.656,0-1.652c-0.021-1.018,1.113-0.945,1.113-0.291v14.047
		c0.289-0.066,0.586-0.109,0.896-0.109c1.869,0,3.429,1.303,3.862,3.053l6.279-0.009v-1.804c0,0-4.302-3.416-4.302-11.162
		c0-1.045,1.493-1.553,3.688-3.104c0,0,4.735,1.945,9.124,3.104c0,3.995,1.122,12.238,1.22,12.952l5.394-0.007
		c0.459-1.702,1.996-2.961,3.842-2.961l0.196,0.02c-3.924-4.729-3.892-9.059-3.892-10.625c1.901-2.283,3.69-3.221,3.698-6.396
		l-0.039-11.594c0-0.998,0.649-0.848,0.649,0c0,0.85,1.268,2.914,1.845,4.342c0.578,1.424,3.688,3.096,3.688,1.859
		c0-3.541,1.713-7.479,2.354-10.498c0.428-2.018,0.104-1.566,0.104-2.523l1.406-2.943L441.436,288.367L441.436,288.367z
		 M437.82,295.037c-0.341,0-0.614-0.277-0.614-0.621c0-0.342,0.273-0.619,0.614-0.619c0.337,0,0.611,0.277,0.611,0.619
		C438.434,294.76,438.159,295.037,437.82,295.037z M396.279,232.369l0.012,0.226l-0.009-0.29L396.279,232.369z M396.291,232.595
		c0.096,2.812,1.357,3.463,1.357,10.014l0.003,0.014v-6.575C396.846,235.116,396.343,233.915,396.291,232.595L396.291,232.595z
		 M396.281,232.258l0.001,0.047l0.02-0.375L396.281,232.258z M396.279,302.37l0.012,0.228l-0.009-0.291L396.279,302.37z
		 M396.281,302.258l0.001,0.049l0.02-0.377L396.281,302.258z M369.668,149.454c-0.721-0.162,0.614-1.24,0.614-1.24
		s-0.985-2.48-6.762-2.48c-12.204,0-12.226,13.995-12.226,13.995h-14c-0.729-1.661-2.663-2.964-4.896-2.964l-0.146,0.022
		l-0.417-0.021c-2.92,0-5.31,2.276-5.534,5.166c0.109-0.853,0.671-0.958,1.413-0.678l-0.063,0.096v4.697
		c1.019,1.178,2.514,1.926,4.185,1.926c0.243,0,0.479-0.021,0.714-0.051l0.067,1.322c0,0-4.945,6.054-4.966,3.38v4.326l3.529-2.273
		c0,0,0.021-0.658,0-1.654c-0.022-1.016,1.113-0.947,1.113-0.292v14.047c0.289-0.067,0.586-0.11,0.895-0.11
		c1.869,0,3.427,1.3,3.862,3.05l6.28-0.008v-1.801c0,0-4.302-3.416-4.302-11.163c0-1.045,1.493-1.552,3.688-3.102
		c0,0,4.735,1.946,9.124,3.102c0,3.993,1.119,12.222,1.219,12.951l5.394-0.007c0.46-1.701,1.997-2.959,3.841-2.959l0.196,0.02
		c-3.924-4.729-3.89-9.06-3.89-10.625c1.901-2.285,3.69-3.221,3.698-6.396l-0.039-11.592c0-0.997,0.649-0.848,0.649,0
		s1.268,2.915,1.845,4.341c0.578,1.426,3.688,3.096,3.688,1.86c0-3.541,1.713-7.479,2.354-10.497
		c0.428-2.019,0.104-1.569,0.104-2.526l1.408-2.945h-0.871C371.436,148.369,370.063,149.543,369.668,149.454L369.668,149.454z
		 M367.82,155.036c-0.341,0-0.614-0.277-0.614-0.62c0-0.342,0.273-0.62,0.614-0.62c0.337,0,0.613,0.279,0.613,0.62
		C368.434,154.759,368.159,155.036,367.82,155.036z M573.511,329.684l-5.06,0.008l-0.023,0.076h-5.356l-0.012-0.069l-9.729,0.014
		v0.058l-6.271-0.021l-0.009-0.027l-4.758,0.008v-2.947c-1.462,0.34-2.609,1.484-2.97,2.951l-2.031,0.004v2h2.052
		c0.455,1.722,1.996,2.996,3.847,2.996c1.85,0,3.391-1.275,3.846-2.996h21.406c0.445,1.721,1.993,2.996,3.854,2.996
		c1.857,0,3.405-1.275,3.854-2.996h2.146l0.089-2.057l-2.249,0.002c-0.444-1.635-1.891-2.844-3.642-2.931
		c0.316,0.386,0.653,0.771,1.025,1.158C573.451,328.646,573.494,329.438,573.511,329.684L573.511,329.684z M581.436,288.367
		c0,0-1.371,1.174-1.768,1.084c-0.721-0.162,0.614-1.24,0.614-1.24s-0.985-2.48-6.764-2.48c-12.202,0-12.226,13.996-12.226,13.996
		h-14c-0.729-1.662-2.663-2.965-4.896-2.965l-0.16,0.024l-0.402-0.021c-2.92,0-5.309,2.271-5.533,5.162
		c0.109-0.85,0.67-0.953,1.411-0.677l-0.062,0.095v4.699c1.019,1.178,2.514,1.926,4.185,1.926c0.243,0,0.479-0.021,0.715-0.052
		l0.066,1.323c0,0-4.944,6.054-4.966,3.381v4.32l3.527-2.271c0,0,0.021-0.656,0-1.652c-0.021-1.018,1.112-0.945,1.112-0.291v14.047
		c0.289-0.066,0.587-0.109,0.896-0.109c1.869,0,3.43,1.303,3.862,3.053l6.28-0.009v-1.804c0,0-4.302-3.416-4.302-11.162
		c0-1.045,1.491-1.553,3.688-3.104c0,0,4.735,1.945,9.124,3.104c0,3.995,1.122,12.238,1.22,12.952l5.394-0.007
		c0.459-1.702,1.996-2.961,3.842-2.961l0.196,0.02c-3.923-4.729-3.892-9.059-3.892-10.625c1.9-2.283,3.691-3.221,3.699-6.396
		l-0.039-11.594c0-0.998,0.649-0.848,0.649,0c0,0.85,1.268,2.914,1.844,4.342c0.578,1.424,3.688,3.095,3.688,1.859
		c0-3.541,1.712-7.479,2.354-10.498c0.428-2.018,0.104-1.566,0.104-2.523l1.408-2.943L581.436,288.367L581.436,288.367z
		 M577.82,295.037c-0.341,0-0.614-0.277-0.614-0.621c0-0.342,0.273-0.619,0.614-0.619c0.337,0,0.611,0.277,0.611,0.619
		C578.434,294.76,578.159,295.037,577.82,295.037z M536.291,302.598c0.097,2.811,1.356,3.463,1.356,10.015l0.003,0.015v-6.578
		C536.845,305.116,536.343,303.916,536.291,302.598L536.291,302.598z"/>
	<path opacity="0.6" fill="#FFFFFF" enable-background="new    " d="M376.29,368.73h274.001l-1-3H376.29V368.73z M116.291,365.73
		h205v3h-205V365.73z"/>
	<path fill="#FFFFFF" d="M349.454,371.73V370.3h-3.81c0.078-0.207,0.296-0.436,0.65-0.686l1.271-0.839
		c0.698-0.479,1.187-0.896,1.459-1.254c0.34-0.448,0.51-0.981,0.51-1.603c0-0.771-0.257-1.396-0.771-1.873
		c-0.514-0.475-1.204-0.711-2.07-0.711c-0.953,0-1.688,0.261-2.203,0.779c-0.516,0.519-0.772,1.26-0.772,2.221h1.547v-0.069
		c0-1.017,0.438-1.521,1.317-1.521c0.388,0,0.691,0.104,0.914,0.322c0.224,0.219,0.334,0.512,0.334,0.877
		c0,0.479-0.198,0.896-0.598,1.256c-0.07,0.062-0.574,0.406-1.513,1.035c-0.754,0.51-1.289,1.008-1.604,1.494
		c-0.353,0.539-0.533,1.203-0.545,1.998h5.884V371.73L349.454,371.73z M353.491,371.959c2.022,0,3.035-1.432,3.035-4.295
		c0-2.883-1.013-4.324-3.035-4.324c-2.021,0-3.028,1.438-3.028,4.312C350.463,370.523,351.473,371.959,353.491,371.959z
		 M352.502,365.461c0.202-0.477,0.532-0.715,0.989-0.715c0.453,0,0.783,0.238,0.99,0.715c0.202,0.461,0.305,1.191,0.305,2.191
		c0,0.996-0.103,1.727-0.305,2.188c-0.207,0.48-0.537,0.725-0.99,0.725c-0.457,0-0.787-0.24-0.989-0.725
		c-0.199-0.461-0.3-1.188-0.3-2.188S352.303,365.922,352.502,365.461z M361.508,371.73v-8.395h-1.343
		c-0.059,0.539-0.258,0.92-0.598,1.146c-0.341,0.223-0.869,0.334-1.589,0.334h-0.129v1.178h2.004v5.736H361.508z M369.155,371.73
		v-1.812h0.974v-1.336h-0.974v-5.004h-2.073l-3.101,4.861v1.479h3.538v1.812H369.155z M365.275,368.625l2.279-3.596v3.596H365.275z
		 M349.454,371.73V370.3h-3.81c0.078-0.206,0.296-0.436,0.65-0.686l1.271-0.839c0.698-0.479,1.187-0.896,1.459-1.254
		c0.34-0.448,0.51-0.981,0.51-1.603c0-0.771-0.257-1.396-0.771-1.873c-0.514-0.475-1.204-0.711-2.07-0.711
		c-0.953,0-1.688,0.261-2.203,0.779c-0.516,0.519-0.772,1.26-0.772,2.221h1.547v-0.069c0-1.017,0.438-1.521,1.317-1.521
		c0.388,0,0.691,0.104,0.914,0.322c0.224,0.219,0.334,0.512,0.334,0.878c0,0.479-0.198,0.896-0.598,1.255
		c-0.07,0.062-0.574,0.406-1.513,1.036c-0.754,0.509-1.289,1.007-1.604,1.493c-0.353,0.539-0.533,1.203-0.545,1.998h5.884V371.73
		L349.454,371.73z M353.491,371.959c2.022,0,3.035-1.432,3.035-4.295c0-2.883-1.013-4.324-3.035-4.324
		c-2.021,0-3.028,1.438-3.028,4.312C350.463,370.523,351.473,371.959,353.491,371.959z M352.502,365.461
		c0.202-0.477,0.532-0.715,0.989-0.715c0.453,0,0.783,0.238,0.989,0.715c0.203,0.461,0.306,1.191,0.306,2.191
		c0,0.996-0.103,1.727-0.306,2.188c-0.206,0.48-0.536,0.725-0.989,0.725c-0.457,0-0.787-0.24-0.989-0.725
		c-0.199-0.461-0.3-1.188-0.3-2.188S352.303,365.922,352.502,365.461z M361.508,371.73v-8.395h-1.343
		c-0.059,0.539-0.258,0.92-0.598,1.146c-0.341,0.223-0.869,0.334-1.589,0.334h-0.129v1.178h2.004v5.736H361.508z M369.155,371.73
		v-1.812h0.974v-1.336h-0.974v-5.004h-2.073l-3.102,4.861v1.479h3.539v1.812H369.155z M365.275,368.625l2.279-3.596v3.596H365.275z
		 M88.455,371.73v-1.43h-3.81c0.078-0.207,0.295-0.437,0.65-0.687l1.271-0.839c0.699-0.479,1.187-0.896,1.459-1.254
		c0.341-0.448,0.511-0.981,0.511-1.603c0-0.771-0.258-1.396-0.771-1.873c-0.513-0.475-1.204-0.711-2.071-0.711
		c-0.952,0-1.688,0.261-2.202,0.779c-0.516,0.519-0.773,1.26-0.773,2.221h1.547v-0.069c0-1.017,0.439-1.521,1.318-1.521
		c0.387,0,0.69,0.104,0.914,0.322c0.223,0.219,0.334,0.512,0.334,0.878c0,0.479-0.199,0.896-0.599,1.255
		c-0.069,0.062-0.573,0.406-1.512,1.036c-0.754,0.509-1.289,1.007-1.604,1.493c-0.353,0.539-0.533,1.203-0.546,1.998h5.885
		L88.455,371.73L88.455,371.73z M92.492,371.959c2.022,0,3.034-1.432,3.034-4.295c0-2.883-1.012-4.324-3.034-4.324
		c-2.021,0-3.029,1.438-3.029,4.312C89.463,370.523,90.473,371.959,92.492,371.959z M91.502,365.461
		c0.203-0.477,0.533-0.715,0.99-0.715c0.452,0,0.782,0.238,0.989,0.715c0.203,0.461,0.306,1.191,0.306,2.191
		c0,0.996-0.103,1.727-0.306,2.188c-0.207,0.48-0.537,0.725-0.989,0.725c-0.457,0-0.787-0.24-0.99-0.725
		c-0.199-0.461-0.299-1.188-0.299-2.188S91.303,365.922,91.502,365.461z M100.508,371.73v-8.395h-1.342
		c-0.06,0.539-0.258,0.92-0.599,1.146c-0.34,0.223-0.868,0.334-1.588,0.334H96.85v1.178h2.004v5.736H100.508z M103.039,369.211
		c0,0.883,0.255,1.562,0.765,2.041c0.51,0.479,1.235,0.719,2.177,0.719c0.957,0,1.71-0.246,2.26-0.736
		c0.549-0.49,0.822-1.156,0.822-1.997c0-0.933-0.436-1.582-1.307-1.957c0.672-0.358,1.008-0.909,1.008-1.651
		c0-0.689-0.244-1.244-0.731-1.656c-0.488-0.41-1.156-0.613-2.005-0.613c-0.887,0-1.572,0.229-2.06,0.688
		c-0.488,0.461-0.739,1.119-0.759,1.979h1.582v-0.07c0-0.84,0.389-1.26,1.166-1.26c0.34,0,0.607,0.094,0.806,0.277
		c0.198,0.188,0.296,0.445,0.296,0.773c0,0.771-0.475,1.152-1.424,1.152h-0.182v1.146h0.252c1.062,0,1.594,0.42,1.594,1.26
		c0,0.855-0.439,1.283-1.318,1.283c-0.875,0-1.317-0.471-1.33-1.412h-1.61L103.039,369.211z M331.79,360.73
		c-3.59,0-6.5,2.908-6.5,6.5c0,3.068,2.136,5.641,5,6.315v6.396h3v-6.396c2.865-0.679,5-3.247,5-6.315
		C338.29,363.641,335.381,360.73,331.79,360.73z M331.79,369.73c-1.381,0-2.5-1.119-2.5-2.5c0-1.383,1.119-2.5,2.5-2.5
		c1.382,0,2.5,1.117,2.5,2.5C334.29,368.611,333.172,369.73,331.79,369.73z"/>
	<path opacity="0.6" fill="#FFFFFF" enable-background="new    " d="M69.791,360.73c-3.59,0-6.5,2.908-6.5,6.5
		c0,3.068,2.135,5.641,5,6.315v7.185h3v-7.185c2.864-0.679,5-3.247,5-6.315C76.291,363.641,73.381,360.73,69.791,360.73z
		 M69.791,369.73c-1.381,0-2.5-1.119-2.5-2.5c0-1.383,1.119-2.5,2.5-2.5s2.5,1.117,2.5,2.5
		C72.291,368.611,71.172,369.73,69.791,369.73z"/>
</g>
<path fill="#C62139" d="M64.007,478.948h586.667v3.666H64.007V478.948L64.007,478.948z"/>
<path fill="#FFFFFF" d="M62.234,419.857v-2.375h10.529v2.375h-3.852v10.477h-2.826v-10.477H62.234z M76.526,417.482v4.842h0.054
	c0.324-0.54,0.738-0.936,1.242-1.182c0.504-0.243,0.996-0.367,1.476-0.367c0.685,0,1.245,0.094,1.684,0.277
	c0.438,0.188,0.782,0.444,1.034,0.774s0.43,0.729,0.531,1.206c0.101,0.475,0.153,0.999,0.153,1.574v5.725h-2.556v-5.256
	c0-0.77-0.12-1.342-0.36-1.719c-0.24-0.381-0.666-0.567-1.278-0.567c-0.696,0-1.2,0.207-1.512,0.621s-0.468,1.095-0.468,2.043v4.878
	H73.97V417.48L76.526,417.482L76.526,417.482z M87.38,428.102c0.384,0.373,0.936,0.561,1.656,0.561c0.516,0,0.96-0.129,1.332-0.387
	c0.371-0.26,0.6-0.531,0.684-0.819h2.25c-0.36,1.116-0.912,1.914-1.656,2.394c-0.744,0.48-1.644,0.723-2.699,0.723
	c-0.732,0-1.393-0.117-1.98-0.354c-0.587-0.233-1.086-0.564-1.494-0.999c-0.408-0.432-0.723-0.946-0.944-1.548
	c-0.223-0.6-0.333-1.26-0.333-1.979c0-0.695,0.113-1.346,0.342-1.943c0.228-0.6,0.552-1.119,0.972-1.557
	c0.42-0.438,0.921-0.783,1.503-1.035s1.227-0.379,1.936-0.379c0.792,0,1.481,0.152,2.069,0.459s1.071,0.718,1.449,1.231
	c0.378,0.519,0.65,1.104,0.819,1.767c0.168,0.66,0.228,1.35,0.18,2.067H86.75C86.786,427.13,86.996,427.73,87.38,428.102
	L87.38,428.102z M90.269,423.206c-0.306-0.336-0.771-0.504-1.395-0.504c-0.408,0-0.747,0.069-1.018,0.207
	c-0.27,0.138-0.485,0.31-0.647,0.513c-0.162,0.204-0.276,0.42-0.342,0.648c-0.066,0.228-0.105,0.432-0.117,0.609h4.158
	C90.788,424.034,90.575,423.542,90.269,423.206z M99.872,423.891c0.036-0.601,0.186-1.099,0.45-1.492
	c0.264-0.396,0.6-0.717,1.008-0.955c0.407-0.239,0.866-0.41,1.377-0.514c0.51-0.103,1.022-0.152,1.539-0.152
	c0.468,0,0.941,0.031,1.422,0.1c0.479,0.066,0.918,0.195,1.313,0.387c0.396,0.192,0.721,0.459,0.973,0.803
	c0.252,0.342,0.378,0.795,0.378,1.357v4.842c0,0.421,0.023,0.822,0.072,1.207c0.047,0.385,0.132,0.674,0.252,0.863h-2.593
	c-0.048-0.145-0.087-0.291-0.116-0.439c-0.03-0.149-0.052-0.305-0.063-0.461c-0.408,0.422-0.888,0.717-1.44,0.885
	c-0.552,0.168-1.115,0.252-1.691,0.252c-0.444,0-0.858-0.057-1.242-0.162c-0.384-0.108-0.72-0.276-1.008-0.504
	c-0.288-0.229-0.513-0.518-0.675-0.864s-0.243-0.763-0.243-1.242c0-0.527,0.093-0.963,0.279-1.305
	c0.186-0.343,0.426-0.615,0.72-0.819c0.294-0.203,0.63-0.355,1.008-0.459c0.378-0.102,0.759-0.183,1.143-0.242
	c0.385-0.061,0.763-0.107,1.135-0.145c0.371-0.036,0.701-0.09,0.989-0.162s0.517-0.177,0.685-0.313
	c0.168-0.14,0.246-0.341,0.233-0.604c0-0.275-0.045-0.495-0.135-0.657c-0.09-0.162-0.21-0.288-0.359-0.378
	c-0.15-0.09-0.324-0.148-0.522-0.18c-0.198-0.03-0.411-0.045-0.639-0.045c-0.504,0-0.9,0.105-1.188,0.324
	c-0.288,0.215-0.456,0.573-0.504,1.078L99.872,423.891L99.872,423.891z M105.775,425.779c-0.107,0.097-0.242,0.172-0.404,0.226
	s-0.336,0.099-0.522,0.136l-0.585,0.092c-0.204,0.021-0.408,0.054-0.612,0.09c-0.191,0.035-0.381,0.084-0.566,0.144
	c-0.187,0.062-0.349,0.144-0.486,0.243c-0.137,0.101-0.249,0.23-0.333,0.387c-0.084,0.157-0.126,0.354-0.126,0.596
	c0,0.229,0.042,0.421,0.126,0.574c0.084,0.156,0.198,0.279,0.342,0.369c0.145,0.09,0.312,0.153,0.504,0.189
	c0.192,0.035,0.391,0.054,0.595,0.054c0.504,0,0.894-0.084,1.17-0.252c0.275-0.168,0.479-0.369,0.612-0.604
	c0.132-0.232,0.213-0.471,0.242-0.711c0.03-0.238,0.045-0.433,0.045-0.574v-0.956L105.775,425.779L105.775,425.779z
	 M112.795,421.027v1.261h0.036c0.336-0.479,0.74-0.854,1.215-1.116c0.474-0.264,1.017-0.396,1.629-0.396
	c0.588,0,1.125,0.113,1.611,0.343c0.485,0.228,0.854,0.63,1.106,1.206c0.276-0.408,0.651-0.77,1.125-1.08
	c0.475-0.312,1.035-0.469,1.684-0.469c0.491,0,0.947,0.061,1.368,0.181c0.42,0.12,0.779,0.312,1.079,0.576
	c0.3,0.264,0.534,0.606,0.702,1.034c0.168,0.427,0.252,0.938,0.252,1.538v6.229h-2.556v-5.273c0-0.312-0.012-0.604-0.036-0.883
	c-0.024-0.273-0.09-0.516-0.198-0.72c-0.107-0.204-0.267-0.366-0.477-0.485c-0.21-0.121-0.495-0.181-0.855-0.181
	c-0.359,0-0.65,0.069-0.873,0.207c-0.222,0.138-0.396,0.317-0.521,0.54s-0.21,0.475-0.252,0.756
	c-0.042,0.282-0.063,0.566-0.063,0.855v5.184h-2.556v-5.221c0-0.275-0.006-0.549-0.018-0.818c-0.013-0.27-0.063-0.52-0.153-0.747
	c-0.09-0.227-0.24-0.411-0.45-0.549c-0.21-0.138-0.52-0.207-0.927-0.207c-0.12,0-0.279,0.026-0.478,0.081
	c-0.197,0.054-0.39,0.156-0.575,0.307c-0.188,0.149-0.346,0.365-0.478,0.647c-0.132,0.282-0.198,0.649-0.198,1.104v5.4h-2.556
	v-9.307L112.795,421.027L112.795,421.027L112.795,421.027z M126.674,423.665c0.228-0.606,0.552-1.122,0.972-1.548
	s0.924-0.756,1.512-0.99c0.588-0.234,1.248-0.352,1.98-0.352c0.731,0,1.395,0.115,1.988,0.352c0.595,0.234,1.102,0.564,1.521,0.99
	s0.744,0.939,0.972,1.548c0.229,0.605,0.343,1.281,0.343,2.024c0,0.742-0.114,1.415-0.343,2.017
	c-0.228,0.601-0.552,1.113-0.972,1.539s-0.927,0.753-1.521,0.979c-0.594,0.229-1.257,0.344-1.988,0.344
	c-0.732,0-1.393-0.114-1.98-0.344c-0.588-0.229-1.092-0.556-1.512-0.979s-0.744-0.938-0.972-1.539
	c-0.229-0.602-0.343-1.272-0.343-2.017C126.331,424.946,126.445,424.271,126.674,423.665L126.674,423.665z M128.995,426.779
	c0.072,0.354,0.195,0.672,0.369,0.953c0.174,0.281,0.405,0.508,0.693,0.676s0.647,0.252,1.08,0.252c0.432,0,0.795-0.084,1.089-0.252
	s0.527-0.395,0.702-0.676c0.174-0.281,0.297-0.602,0.369-0.953c0.071-0.354,0.107-0.719,0.107-1.09s-0.036-0.737-0.107-1.1
	c-0.072-0.357-0.195-0.678-0.369-0.953c-0.175-0.274-0.408-0.502-0.702-0.676s-0.657-0.261-1.089-0.261
	c-0.433,0-0.792,0.087-1.08,0.261s-0.52,0.399-0.693,0.676c-0.174,0.275-0.297,0.596-0.369,0.953c-0.071,0.36-0.107,0.729-0.107,1.1
	C128.888,426.062,128.924,426.426,128.995,426.779z M143.917,430.334v-1.296h-0.055c-0.324,0.54-0.744,0.931-1.26,1.17
	c-0.516,0.24-1.044,0.36-1.584,0.36c-0.684,0-1.245-0.093-1.683-0.271s-0.783-0.435-1.035-0.765s-0.43-0.732-0.531-1.206
	c-0.103-0.476-0.153-0.999-0.153-1.575v-5.725h2.557v5.257c0,0.769,0.119,1.341,0.359,1.719c0.24,0.378,0.666,0.567,1.278,0.567
	c0.695,0,1.2-0.207,1.512-0.621s0.469-1.098,0.469-2.043v-4.879h2.556v9.307L143.917,430.334L143.917,430.334z M150.721,421.027
	v1.297h0.054c0.324-0.54,0.744-0.936,1.26-1.182c0.516-0.243,1.044-0.367,1.584-0.367c0.685,0,1.245,0.094,1.684,0.277
	c0.438,0.188,0.782,0.444,1.034,0.774s0.43,0.729,0.531,1.206c0.101,0.475,0.153,0.999,0.153,1.574v5.725h-2.556v-5.256
	c0-0.77-0.12-1.342-0.36-1.719c-0.24-0.381-0.666-0.567-1.278-0.567c-0.696,0-1.2,0.207-1.512,0.621s-0.468,1.095-0.468,2.043v4.878
	h-2.557v-9.307L150.721,421.027z M164.076,421.027v1.711h-1.872v4.605c0,0.434,0.072,0.723,0.216,0.864
	c0.145,0.145,0.433,0.216,0.864,0.216l0.414-0.018l0.378-0.057v1.98c-0.216,0.036-0.456,0.06-0.72,0.072
	c-0.265,0.012-0.522,0.018-0.774,0.018c-0.396,0-0.771-0.025-1.125-0.081c-0.354-0.054-0.666-0.159-0.936-0.313
	c-0.271-0.155-0.483-0.377-0.64-0.666c-0.155-0.287-0.233-0.666-0.233-1.135v-5.488H158.1v-1.711h1.548v-2.789h2.556v2.789
	L164.076,421.027L164.076,421.027z M170.358,423.665c0.228-0.606,0.552-1.122,0.972-1.548s0.924-0.756,1.512-0.99
	c0.588-0.234,1.248-0.352,1.98-0.352c0.731,0,1.395,0.115,1.988,0.352c0.595,0.234,1.102,0.564,1.521,0.99s0.744,0.939,0.972,1.548
	c0.229,0.605,0.343,1.281,0.343,2.024c0,0.742-0.114,1.415-0.343,2.017c-0.228,0.601-0.552,1.113-0.972,1.539
	s-0.927,0.753-1.521,0.979c-0.594,0.229-1.257,0.344-1.988,0.344c-0.732,0-1.393-0.114-1.98-0.344
	c-0.588-0.229-1.092-0.556-1.512-0.979s-0.744-0.938-0.972-1.539c-0.229-0.602-0.343-1.272-0.343-2.017
	C170.016,424.946,170.13,424.271,170.358,423.665z M172.68,426.779c0.072,0.354,0.195,0.672,0.369,0.953
	c0.174,0.281,0.405,0.508,0.693,0.676c0.288,0.168,0.647,0.252,1.08,0.252c0.432,0,0.795-0.084,1.089-0.252s0.527-0.395,0.702-0.676
	c0.174-0.281,0.297-0.602,0.369-0.953c0.071-0.354,0.107-0.719,0.107-1.09s-0.036-0.737-0.107-1.1
	c-0.072-0.357-0.195-0.678-0.369-0.953c-0.175-0.274-0.408-0.502-0.702-0.676s-0.657-0.261-1.089-0.261
	c-0.433,0-0.792,0.087-1.08,0.261c-0.288,0.174-0.52,0.399-0.693,0.676c-0.174,0.275-0.297,0.596-0.369,0.953
	c-0.071,0.36-0.107,0.729-0.107,1.1C172.572,426.062,172.608,426.426,172.68,426.779z M180.33,422.738v-1.711h1.53v-0.721
	c0-0.826,0.258-1.506,0.773-2.033c0.516-0.527,1.296-0.791,2.34-0.791c0.229,0,0.456,0.009,0.685,0.024l0.666,0.046v1.907
	c-0.3-0.036-0.612-0.054-0.937-0.054c-0.348,0-0.597,0.08-0.747,0.242c-0.149,0.16-0.225,0.436-0.225,0.818v0.559h1.764v1.711
	h-1.764v7.596h-2.556v-7.596L180.33,422.738L180.33,422.738z M194.856,417.482v4.68h0.036c0.312-0.48,0.734-0.831,1.269-1.053
	c0.534-0.225,1.089-0.334,1.665-0.334c0.468,0,0.93,0.097,1.386,0.289c0.456,0.189,0.867,0.483,1.233,0.881
	c0.365,0.396,0.663,0.902,0.891,1.521s0.342,1.354,0.342,2.205c0,0.854-0.114,1.588-0.342,2.205
	c-0.228,0.618-0.525,1.125-0.891,1.521c-0.366,0.396-0.777,0.689-1.233,0.883c-0.456,0.19-0.918,0.289-1.386,0.289
	c-0.684,0-1.296-0.108-1.836-0.324c-0.54-0.217-0.948-0.582-1.224-1.1h-0.036v1.188h-2.43v-12.854h2.556V417.482L194.856,417.482z
	 M198.996,424.557c-0.084-0.359-0.216-0.679-0.396-0.955c-0.181-0.273-0.405-0.492-0.676-0.654c-0.27-0.162-0.597-0.243-0.98-0.243
	c-0.372,0-0.696,0.081-0.973,0.243c-0.275,0.162-0.504,0.381-0.684,0.654c-0.18,0.276-0.312,0.596-0.396,0.955
	c-0.085,0.359-0.126,0.737-0.126,1.135c0,0.385,0.041,0.756,0.126,1.115c0.083,0.359,0.216,0.68,0.396,0.953
	c0.18,0.276,0.408,0.495,0.684,0.657c0.276,0.162,0.601,0.243,0.973,0.243c0.384,0,0.711-0.081,0.98-0.243
	c0.271-0.162,0.495-0.381,0.676-0.657c0.18-0.273,0.312-0.594,0.396-0.953s0.126-0.73,0.126-1.115
	C199.122,425.294,199.08,424.916,198.996,424.557z M203.19,423.891c0.036-0.601,0.186-1.099,0.45-1.492
	c0.264-0.396,0.6-0.717,1.008-0.955c0.407-0.239,0.866-0.41,1.377-0.514c0.51-0.103,1.022-0.152,1.539-0.152
	c0.468,0,0.941,0.031,1.422,0.1c0.479,0.066,0.918,0.195,1.313,0.387c0.396,0.192,0.721,0.459,0.973,0.803
	c0.252,0.342,0.378,0.795,0.378,1.357v4.842c0,0.422,0.023,0.822,0.072,1.207c0.047,0.385,0.132,0.674,0.252,0.863h-2.593
	c-0.048-0.145-0.087-0.291-0.116-0.439c-0.03-0.149-0.052-0.305-0.063-0.461c-0.408,0.422-0.888,0.717-1.44,0.885
	c-0.552,0.168-1.115,0.252-1.691,0.252c-0.444,0-0.858-0.057-1.242-0.162c-0.384-0.108-0.72-0.276-1.008-0.504
	c-0.288-0.229-0.513-0.518-0.675-0.864s-0.243-0.763-0.243-1.242c0-0.527,0.093-0.963,0.279-1.305
	c0.186-0.343,0.426-0.615,0.72-0.819c0.294-0.203,0.63-0.355,1.008-0.459c0.378-0.102,0.759-0.183,1.143-0.242
	c0.385-0.061,0.763-0.107,1.135-0.145c0.371-0.036,0.701-0.09,0.989-0.162c0.288-0.072,0.517-0.177,0.685-0.313
	c0.168-0.14,0.246-0.341,0.233-0.604c0-0.275-0.045-0.495-0.135-0.657s-0.21-0.288-0.359-0.378c-0.15-0.09-0.324-0.148-0.522-0.18
	c-0.198-0.03-0.411-0.045-0.639-0.045c-0.504,0-0.9,0.105-1.188,0.324c-0.288,0.215-0.456,0.573-0.504,1.078L203.19,423.891
	L203.19,423.891z M209.094,425.779c-0.107,0.097-0.242,0.172-0.404,0.226s-0.336,0.1-0.522,0.136l-0.585,0.092
	c-0.204,0.021-0.408,0.054-0.612,0.09c-0.191,0.035-0.381,0.084-0.566,0.144c-0.187,0.062-0.349,0.144-0.486,0.243
	c-0.137,0.102-0.249,0.23-0.333,0.387c-0.084,0.157-0.126,0.354-0.126,0.596c0,0.229,0.042,0.421,0.126,0.574
	c0.084,0.156,0.198,0.279,0.342,0.369c0.145,0.09,0.312,0.153,0.504,0.189c0.192,0.035,0.391,0.054,0.595,0.054
	c0.504,0,0.894-0.084,1.17-0.252c0.275-0.168,0.479-0.369,0.612-0.604c0.132-0.233,0.213-0.472,0.242-0.712
	c0.03-0.238,0.045-0.433,0.045-0.574v-0.956L209.094,425.779L209.094,425.779z M216.061,421.027v1.297h0.054
	c0.324-0.54,0.744-0.936,1.26-1.182c0.516-0.243,1.044-0.367,1.584-0.367c0.685,0,1.245,0.094,1.684,0.277
	c0.438,0.188,0.782,0.444,1.034,0.774c0.252,0.33,0.43,0.729,0.531,1.206c0.101,0.475,0.153,0.999,0.153,1.574v5.725h-2.556v-5.256
	c0-0.77-0.12-1.342-0.36-1.719c-0.24-0.381-0.666-0.567-1.278-0.567c-0.696,0-1.2,0.207-1.512,0.621s-0.468,1.095-0.468,2.043v4.878
	h-2.557v-9.307L216.061,421.027z M227.093,417.482v6.894l3.223-3.349h3.023l-3.51,3.42l3.906,5.887h-3.097l-2.556-4.158l-0.99,0.954
	v3.204h-2.556v-12.852H227.093L227.093,417.482z M234.707,419.588v-2.104h2.556v2.104H234.707z M237.263,421.027v9.307h-2.556
	v-9.307H237.263z M241.71,421.027v1.297h0.054c0.324-0.54,0.744-0.936,1.26-1.182c0.516-0.243,1.044-0.367,1.584-0.367
	c0.685,0,1.245,0.094,1.684,0.277c0.438,0.188,0.782,0.444,1.034,0.774s0.43,0.729,0.531,1.206c0.101,0.475,0.153,0.999,0.153,1.574
	v5.725h-2.556v-5.256c0-0.77-0.12-1.342-0.36-1.719c-0.24-0.381-0.666-0.567-1.278-0.567c-0.696,0-1.2,0.207-1.512,0.621
	s-0.468,1.095-0.468,2.043v4.878h-2.557v-9.307L241.71,421.027z M258.746,431.018c-0.102,0.48-0.321,0.93-0.656,1.344
	c-0.337,0.414-0.822,0.765-1.458,1.053c-0.637,0.288-1.488,0.432-2.557,0.432c-0.456,0-0.921-0.057-1.395-0.171
	c-0.475-0.114-0.906-0.291-1.296-0.531c-0.391-0.238-0.715-0.549-0.973-0.927c-0.258-0.378-0.404-0.831-0.44-1.356h2.538
	c0.119,0.479,0.354,0.812,0.702,0.999c0.348,0.186,0.749,0.276,1.205,0.276c0.721,0,1.245-0.216,1.575-0.646
	c0.33-0.435,0.489-0.979,0.478-1.641v-1.224h-0.036c-0.276,0.492-0.669,0.854-1.179,1.089c-0.511,0.234-1.048,0.354-1.611,0.354
	c-0.696,0-1.296-0.123-1.8-0.369c-0.504-0.246-0.918-0.582-1.242-1.008c-0.324-0.428-0.562-0.926-0.711-1.494
	c-0.15-0.57-0.226-1.174-0.226-1.812c0-0.6,0.087-1.179,0.262-1.735c0.174-0.56,0.429-1.051,0.765-1.478
	c0.336-0.426,0.753-0.765,1.251-1.017s1.071-0.379,1.719-0.379c0.612,0,1.149,0.113,1.611,0.343
	c0.462,0.228,0.849,0.612,1.161,1.149h0.036v-1.24h2.43v8.713C258.899,430.112,258.849,430.538,258.746,431.018L258.746,431.018z
	 M255.245,427.922c0.276-0.145,0.504-0.336,0.685-0.576c0.18-0.238,0.314-0.513,0.404-0.816c0.091-0.309,0.136-0.627,0.136-0.963
	c0-0.387-0.036-0.748-0.108-1.092c-0.072-0.342-0.192-0.645-0.36-0.906c-0.168-0.265-0.39-0.477-0.666-0.633
	c-0.275-0.153-0.624-0.231-1.044-0.231c-0.359,0-0.669,0.071-0.927,0.216c-0.258,0.146-0.474,0.34-0.647,0.585
	c-0.175,0.246-0.301,0.528-0.378,0.847c-0.078,0.317-0.117,0.65-0.117,0.998c0,0.336,0.032,0.67,0.099,1
	c0.067,0.33,0.18,0.627,0.342,0.893c0.162,0.264,0.375,0.479,0.64,0.646c0.264,0.169,0.594,0.253,0.989,0.253
	C254.651,428.139,254.97,428.066,255.245,427.922L255.245,427.922z M265.217,419.857v-2.375h10.529v2.375h-3.852v10.477h-2.826
	v-10.477H265.217z M277.728,421.027v1.729h0.036c0.119-0.288,0.281-0.555,0.485-0.801s0.438-0.456,0.702-0.63
	c0.264-0.174,0.546-0.312,0.846-0.405c0.3-0.095,0.612-0.145,0.937-0.145c0.168,0,0.354,0.029,0.558,0.091v2.376l-0.432-0.062
	c-0.168-0.019-0.33-0.025-0.486-0.025c-0.468,0-0.864,0.078-1.188,0.231c-0.324,0.156-0.585,0.369-0.783,0.642
	c-0.198,0.27-0.339,0.584-0.423,0.943s-0.126,0.75-0.126,1.17v4.193h-2.557v-9.307H277.728L277.728,421.027z M282.029,423.665
	c0.228-0.606,0.552-1.122,0.972-1.548s0.924-0.756,1.512-0.99c0.588-0.234,1.248-0.352,1.98-0.352c0.731,0,1.395,0.115,1.988,0.352
	c0.595,0.234,1.102,0.564,1.521,0.99s0.744,0.939,0.972,1.548c0.229,0.605,0.343,1.281,0.343,2.024c0,0.742-0.114,1.415-0.343,2.017
	c-0.228,0.601-0.552,1.113-0.972,1.539s-0.927,0.753-1.521,0.979c-0.594,0.229-1.257,0.344-1.988,0.344
	c-0.732,0-1.393-0.114-1.98-0.344c-0.588-0.229-1.092-0.556-1.512-0.979s-0.744-0.938-0.972-1.539
	c-0.229-0.602-0.343-1.272-0.343-2.017C281.687,424.946,281.801,424.271,282.029,423.665z M284.351,426.779
	c0.072,0.354,0.195,0.672,0.369,0.953c0.174,0.281,0.405,0.508,0.693,0.676s0.647,0.252,1.08,0.252c0.432,0,0.795-0.084,1.089-0.252
	s0.527-0.395,0.702-0.676c0.174-0.281,0.297-0.602,0.369-0.953c0.071-0.354,0.107-0.719,0.107-1.09s-0.036-0.737-0.107-1.1
	c-0.072-0.357-0.195-0.678-0.369-0.953c-0.175-0.274-0.408-0.502-0.702-0.676s-0.657-0.261-1.089-0.261
	c-0.433,0-0.792,0.087-1.08,0.261s-0.52,0.399-0.693,0.676c-0.174,0.275-0.297,0.596-0.369,0.953c-0.071,0.36-0.107,0.729-0.107,1.1
	C284.243,426.062,284.279,426.426,284.351,426.779z M292.217,431.486c0.264,0,0.495-0.054,0.693-0.153
	c0.198-0.103,0.297-0.327,0.297-0.675v-9.631h2.556v9.757c0,0.479-0.051,0.894-0.152,1.242c-0.103,0.348-0.276,0.639-0.522,0.873
	c-0.246,0.231-0.579,0.405-0.999,0.521s-0.954,0.171-1.602,0.171c-0.301,0-0.57-0.022-0.811-0.072v-2.104
	C291.81,431.462,291.989,431.486,292.217,431.486L292.217,431.486z M293.207,419.588v-2.104h2.556v2.104H293.207z M297.869,423.891
	c0.036-0.601,0.186-1.099,0.45-1.492c0.264-0.396,0.6-0.717,1.008-0.955c0.407-0.239,0.866-0.41,1.377-0.514
	c0.51-0.103,1.022-0.152,1.539-0.152c0.468,0,0.941,0.031,1.422,0.1c0.479,0.066,0.918,0.195,1.313,0.387
	c0.396,0.192,0.721,0.459,0.973,0.803c0.252,0.342,0.378,0.795,0.378,1.357v4.842c0,0.421,0.022,0.822,0.072,1.207
	c0.047,0.385,0.132,0.674,0.252,0.863h-2.593c-0.048-0.145-0.087-0.291-0.116-0.439c-0.03-0.149-0.052-0.305-0.063-0.461
	c-0.408,0.422-0.888,0.717-1.44,0.885c-0.552,0.168-1.115,0.252-1.691,0.252c-0.444,0-0.858-0.057-1.242-0.162
	c-0.384-0.108-0.72-0.276-1.008-0.504c-0.288-0.229-0.513-0.518-0.675-0.864c-0.162-0.348-0.243-0.763-0.243-1.242
	c0-0.527,0.093-0.963,0.279-1.305c0.186-0.343,0.426-0.615,0.72-0.819c0.294-0.203,0.63-0.355,1.008-0.459
	c0.378-0.102,0.759-0.183,1.143-0.242c0.385-0.061,0.763-0.107,1.135-0.145c0.371-0.036,0.701-0.09,0.989-0.162
	s0.517-0.177,0.685-0.313c0.168-0.14,0.246-0.341,0.233-0.604c0-0.275-0.045-0.495-0.135-0.657c-0.09-0.162-0.21-0.288-0.359-0.378
	c-0.15-0.09-0.324-0.148-0.522-0.18c-0.198-0.03-0.411-0.045-0.639-0.045c-0.504,0-0.9,0.105-1.188,0.324
	c-0.288,0.215-0.456,0.573-0.504,1.078L297.869,423.891L297.869,423.891z M303.772,425.779c-0.107,0.097-0.242,0.172-0.404,0.226
	c-0.162,0.054-0.336,0.099-0.522,0.136l-0.585,0.092c-0.204,0.021-0.408,0.054-0.612,0.09c-0.191,0.035-0.381,0.084-0.566,0.144
	c-0.187,0.062-0.349,0.144-0.486,0.243c-0.137,0.101-0.249,0.23-0.333,0.387c-0.084,0.157-0.126,0.354-0.126,0.596
	c0,0.229,0.042,0.421,0.126,0.574c0.084,0.156,0.198,0.279,0.342,0.369c0.145,0.09,0.312,0.153,0.504,0.189
	c0.192,0.035,0.391,0.054,0.595,0.054c0.504,0,0.894-0.084,1.17-0.252c0.275-0.168,0.479-0.369,0.612-0.604
	c0.132-0.232,0.213-0.471,0.242-0.711c0.03-0.238,0.045-0.433,0.045-0.574v-0.956L303.772,425.779L303.772,425.779z
	 M310.739,421.027v1.297h0.054c0.324-0.54,0.744-0.936,1.26-1.182c0.517-0.243,1.044-0.367,1.584-0.367
	c0.686,0,1.245,0.094,1.685,0.277c0.438,0.188,0.781,0.444,1.033,0.774s0.431,0.729,0.531,1.206
	c0.102,0.475,0.153,0.999,0.153,1.574v5.725h-2.556v-5.256c0-0.77-0.12-1.342-0.36-1.719c-0.24-0.381-0.666-0.567-1.278-0.567
	c-0.696,0-1.2,0.207-1.512,0.621c-0.312,0.414-0.468,1.095-0.468,2.043v4.878h-2.558v-9.307L310.739,421.027L310.739,421.027z
	 M321.134,428.021c0.114,0.196,0.261,0.358,0.441,0.484c0.18,0.126,0.387,0.22,0.62,0.279s0.478,0.09,0.729,0.09
	c0.18,0,0.369-0.021,0.567-0.063c0.196-0.04,0.378-0.105,0.54-0.195c0.161-0.09,0.297-0.21,0.403-0.36
	c0.108-0.147,0.162-0.339,0.162-0.565c0-0.385-0.255-0.674-0.765-0.863c-0.511-0.191-1.222-0.385-2.133-0.576
	c-0.372-0.084-0.735-0.184-1.09-0.297c-0.354-0.114-0.67-0.264-0.944-0.45c-0.276-0.187-0.498-0.42-0.666-0.702
	c-0.168-0.281-0.252-0.627-0.252-1.035c0-0.6,0.117-1.092,0.351-1.476c0.234-0.384,0.543-0.688,0.928-0.909
	c0.385-0.222,0.815-0.378,1.296-0.468c0.479-0.091,0.973-0.136,1.477-0.136s0.993,0.049,1.467,0.145
	c0.475,0.096,0.897,0.258,1.271,0.486c0.371,0.229,0.681,0.531,0.927,0.908c0.246,0.379,0.393,0.854,0.44,1.432h-2.431
	c-0.036-0.492-0.222-0.825-0.558-0.999s-0.732-0.261-1.188-0.261l-0.468,0.025c-0.168,0.02-0.321,0.059-0.459,0.116
	c-0.138,0.061-0.255,0.147-0.351,0.261c-0.098,0.115-0.146,0.27-0.146,0.459c0,0.229,0.084,0.414,0.252,0.561
	c0.168,0.144,0.387,0.261,0.657,0.351c0.27,0.091,0.579,0.171,0.927,0.243c0.349,0.072,0.702,0.15,1.062,0.234
	c0.371,0.084,0.733,0.186,1.089,0.306c0.354,0.12,0.669,0.278,0.944,0.479c0.275,0.195,0.497,0.441,0.666,0.735
	c0.168,0.294,0.252,0.657,0.252,1.089c0,0.612-0.123,1.125-0.368,1.539c-0.246,0.414-0.567,0.747-0.964,0.999
	s-0.85,0.431-1.358,0.531c-0.511,0.102-1.029,0.153-1.557,0.153c-0.54,0-1.068-0.057-1.585-0.162
	c-0.517-0.108-0.976-0.288-1.377-0.54c-0.401-0.253-0.731-0.585-0.989-0.999c-0.259-0.414-0.399-0.936-0.423-1.557h2.43
	C320.963,427.586,321.02,427.822,321.134,428.021L321.134,428.021z M332.68,422.738v-1.711h1.53v-0.721
	c0-0.826,0.258-1.506,0.772-2.033c0.517-0.527,1.297-0.791,2.341-0.791c0.229,0,0.456,0.009,0.685,0.024l0.666,0.046v1.907
	c-0.3-0.036-0.612-0.054-0.937-0.054c-0.349,0-0.598,0.08-0.747,0.242c-0.149,0.16-0.226,0.436-0.226,0.818v0.559h1.765v1.711
	h-1.765v7.596h-2.556v-7.596L332.68,422.738L332.68,422.738z M339.7,423.665c0.228-0.606,0.552-1.122,0.972-1.548
	s0.924-0.756,1.512-0.99s1.248-0.352,1.98-0.352c0.73,0,1.395,0.115,1.988,0.352c0.595,0.234,1.102,0.564,1.521,0.99
	s0.744,0.939,0.972,1.548c0.229,0.605,0.344,1.281,0.344,2.024c0,0.742-0.114,1.415-0.344,2.017
	c-0.228,0.601-0.552,1.113-0.972,1.539s-0.927,0.753-1.521,0.979c-0.595,0.229-1.258,0.344-1.988,0.344
	c-0.732,0-1.394-0.114-1.98-0.344c-0.588-0.229-1.092-0.556-1.512-0.979s-0.744-0.938-0.972-1.539
	c-0.229-0.602-0.344-1.272-0.344-2.017C339.356,424.946,339.472,424.271,339.7,423.665z M342.021,426.779
	c0.072,0.354,0.195,0.672,0.369,0.953s0.405,0.508,0.693,0.676s0.646,0.252,1.08,0.252c0.432,0,0.795-0.084,1.089-0.252
	s0.527-0.395,0.702-0.676c0.174-0.281,0.297-0.602,0.369-0.953c0.07-0.354,0.106-0.719,0.106-1.09s-0.036-0.737-0.106-1.1
	c-0.072-0.357-0.195-0.678-0.369-0.953c-0.175-0.274-0.408-0.502-0.702-0.676s-0.657-0.261-1.089-0.261
	c-0.434,0-0.792,0.087-1.08,0.261s-0.521,0.399-0.693,0.676c-0.174,0.275-0.297,0.596-0.369,0.953c-0.07,0.36-0.106,0.729-0.106,1.1
	C341.914,426.062,341.95,426.426,342.021,426.779z M353.074,421.027v1.729h0.036c0.118-0.288,0.28-0.555,0.484-0.801
	s0.438-0.456,0.702-0.63s0.546-0.312,0.846-0.405c0.301-0.095,0.612-0.145,0.938-0.145c0.168,0,0.354,0.029,0.558,0.091v2.376
	l-0.432-0.062c-0.168-0.019-0.33-0.025-0.486-0.025c-0.468,0-0.864,0.078-1.188,0.231c-0.324,0.156-0.585,0.369-0.783,0.642
	c-0.198,0.27-0.339,0.584-0.423,0.943s-0.126,0.75-0.126,1.17v4.193h-2.558v-9.307H353.074L353.074,421.027z M365.134,421.027v1.261
	h0.036c0.336-0.479,0.74-0.854,1.215-1.116c0.475-0.264,1.018-0.396,1.629-0.396c0.588,0,1.125,0.113,1.611,0.343
	c0.485,0.228,0.854,0.63,1.105,1.206c0.276-0.408,0.651-0.77,1.125-1.08c0.476-0.312,1.035-0.469,1.685-0.469
	c0.491,0,0.947,0.061,1.368,0.181c0.42,0.12,0.778,0.312,1.078,0.576c0.301,0.264,0.534,0.606,0.702,1.034
	c0.168,0.427,0.253,0.938,0.253,1.538v6.229h-2.558v-5.273c0-0.312-0.012-0.604-0.036-0.883c-0.023-0.273-0.09-0.516-0.197-0.72
	s-0.268-0.366-0.478-0.485c-0.21-0.121-0.495-0.181-0.854-0.181s-0.65,0.069-0.873,0.207s-0.396,0.317-0.521,0.54
	s-0.21,0.475-0.252,0.756c-0.042,0.282-0.062,0.566-0.062,0.855v5.184h-2.557v-5.221c0-0.275-0.006-0.549-0.018-0.818
	c-0.014-0.27-0.063-0.52-0.153-0.747c-0.09-0.227-0.24-0.411-0.45-0.549s-0.52-0.207-0.927-0.207c-0.12,0-0.279,0.026-0.478,0.081
	c-0.197,0.054-0.391,0.156-0.575,0.307c-0.188,0.149-0.347,0.365-0.479,0.647s-0.198,0.649-0.198,1.104v5.4h-2.556v-9.307
	L365.134,421.027L365.134,421.027L365.134,421.027z M379.012,423.665c0.229-0.606,0.553-1.122,0.974-1.548
	c0.42-0.426,0.924-0.756,1.512-0.99s1.248-0.352,1.979-0.352c0.73,0,1.396,0.115,1.987,0.352c0.595,0.234,1.103,0.564,1.521,0.99
	c0.42,0.426,0.743,0.939,0.973,1.548c0.229,0.605,0.343,1.281,0.343,2.024c0,0.742-0.114,1.415-0.343,2.017
	c-0.229,0.601-0.553,1.113-0.973,1.539c-0.421,0.426-0.927,0.753-1.521,0.979c-0.594,0.229-1.257,0.344-1.987,0.344
	c-0.731,0-1.394-0.114-1.979-0.344c-0.588-0.229-1.092-0.556-1.512-0.979c-0.421-0.424-0.744-0.938-0.974-1.539
	c-0.229-0.602-0.343-1.272-0.343-2.017C378.669,424.946,378.783,424.271,379.012,423.665z M381.333,426.779
	c0.071,0.354,0.194,0.672,0.369,0.953c0.174,0.281,0.404,0.508,0.691,0.676c0.289,0.168,0.647,0.252,1.08,0.252
	c0.434,0,0.795-0.084,1.09-0.252c0.293-0.168,0.526-0.395,0.701-0.676c0.174-0.281,0.297-0.602,0.369-0.953
	c0.071-0.354,0.107-0.719,0.107-1.09s-0.036-0.737-0.107-1.1c-0.072-0.357-0.195-0.678-0.369-0.953
	c-0.175-0.274-0.408-0.502-0.701-0.676c-0.295-0.174-0.657-0.261-1.09-0.261s-0.791,0.087-1.08,0.261
	c-0.287,0.174-0.52,0.399-0.691,0.676c-0.175,0.275-0.298,0.596-0.369,0.953c-0.071,0.36-0.106,0.729-0.106,1.1
	C381.227,426.062,381.262,426.426,381.333,426.779z M392.512,417.482v4.68h0.036c0.312-0.48,0.734-0.831,1.27-1.053
	c0.534-0.225,1.09-0.334,1.665-0.334c0.469,0,0.931,0.097,1.387,0.289c0.456,0.189,0.867,0.483,1.231,0.881
	c0.365,0.396,0.663,0.902,0.893,1.521c0.228,0.618,0.342,1.354,0.342,2.205c0,0.854-0.114,1.588-0.342,2.205
	c-0.229,0.618-0.525,1.125-0.893,1.521c-0.364,0.396-0.775,0.689-1.231,0.883c-0.456,0.19-0.918,0.289-1.387,0.289
	c-0.685,0-1.297-0.108-1.836-0.324c-0.541-0.217-0.947-0.582-1.225-1.1h-0.035v1.188h-2.432v-12.854h2.557V417.482L392.512,417.482z
	 M396.651,424.557c-0.085-0.359-0.218-0.679-0.396-0.955c-0.181-0.273-0.405-0.492-0.676-0.654
	c-0.271-0.162-0.597-0.243-0.979-0.243c-0.373,0-0.696,0.081-0.974,0.243c-0.274,0.162-0.504,0.381-0.685,0.654
	c-0.181,0.276-0.312,0.596-0.396,0.955c-0.085,0.359-0.126,0.737-0.126,1.135c0,0.385,0.041,0.756,0.126,1.115
	c0.083,0.359,0.216,0.68,0.396,0.953c0.181,0.276,0.407,0.495,0.685,0.657s0.601,0.243,0.974,0.243c0.383,0,0.711-0.081,0.979-0.243
	c0.271-0.162,0.495-0.381,0.676-0.657c0.18-0.273,0.312-0.594,0.396-0.953s0.126-0.73,0.126-1.115
	C396.777,425.294,396.735,424.916,396.651,424.557z M401.025,419.588v-2.104h2.556v2.104H401.025z M403.581,421.027v9.307h-2.556
	v-9.307H403.581z M408.225,417.482v12.852h-2.556v-12.852H408.225z M412.978,428.102c0.386,0.373,0.938,0.561,1.656,0.561
	c0.518,0,0.96-0.129,1.332-0.387c0.371-0.26,0.602-0.531,0.686-0.819h2.25c-0.36,1.116-0.912,1.914-1.656,2.394
	c-0.744,0.48-1.646,0.723-2.699,0.723c-0.732,0-1.393-0.117-1.979-0.354c-0.588-0.233-1.087-0.564-1.493-0.999
	c-0.408-0.432-0.725-0.946-0.944-1.548c-0.223-0.6-0.333-1.26-0.333-1.979c0-0.695,0.113-1.346,0.342-1.943
	c0.229-0.6,0.552-1.119,0.974-1.557c0.42-0.438,0.921-0.783,1.503-1.035s1.227-0.379,1.936-0.379c0.792,0,1.481,0.152,2.069,0.459
	s1.069,0.718,1.449,1.231c0.378,0.519,0.648,1.104,0.817,1.767c0.168,0.66,0.229,1.35,0.181,2.067h-6.715
	C412.384,427.13,412.594,427.73,412.978,428.102z M415.866,423.206c-0.308-0.336-0.771-0.504-1.396-0.504
	c-0.407,0-0.747,0.069-1.018,0.207c-0.271,0.138-0.485,0.31-0.647,0.513c-0.162,0.204-0.274,0.42-0.342,0.648
	c-0.065,0.228-0.104,0.432-0.117,0.609h4.158C416.386,424.034,416.173,423.542,415.866,423.206L415.866,423.206z M432.183,429.146
	c-0.3,0.504-0.691,0.865-1.179,1.088c-0.486,0.223-1.035,0.334-1.646,0.334c-0.695,0-1.309-0.138-1.836-0.405
	c-0.527-0.271-0.964-0.636-1.306-1.099c-0.343-0.461-0.601-0.992-0.772-1.594c-0.176-0.601-0.263-1.225-0.263-1.873
	c0-0.623,0.087-1.227,0.263-1.809c0.174-0.582,0.432-1.095,0.772-1.539c0.342-0.443,0.771-0.801,1.287-1.07
	c0.516-0.271,1.115-0.404,1.8-0.404c0.553,0,1.077,0.115,1.575,0.352c0.497,0.234,0.891,0.579,1.179,1.035h0.036v-4.68h2.558v12.852
	h-2.432v-1.188H432.183L432.183,429.146z M432.074,424.547c-0.071-0.354-0.195-0.666-0.369-0.936
	c-0.174-0.271-0.398-0.489-0.675-0.657c-0.277-0.168-0.624-0.252-1.044-0.252c-0.421,0-0.773,0.084-1.062,0.252
	s-0.52,0.39-0.692,0.666c-0.174,0.274-0.301,0.591-0.378,0.944s-0.116,0.724-0.116,1.105c0,0.36,0.042,0.721,0.126,1.08
	s0.219,0.682,0.403,0.963c0.188,0.282,0.421,0.51,0.702,0.686c0.281,0.175,0.621,0.262,1.019,0.262c0.42,0,0.771-0.084,1.053-0.252
	s0.507-0.395,0.676-0.676c0.168-0.281,0.288-0.604,0.359-0.965c0.071-0.357,0.106-0.729,0.106-1.113
	C432.183,425.27,432.146,424.9,432.074,424.547L432.074,424.547z M439.311,428.102c0.386,0.373,0.938,0.561,1.656,0.561
	c0.518,0,0.96-0.129,1.332-0.387c0.371-0.26,0.602-0.531,0.686-0.819h2.25c-0.36,1.116-0.912,1.914-1.656,2.394
	c-0.744,0.48-1.646,0.723-2.699,0.723c-0.731,0-1.393-0.117-1.979-0.354c-0.588-0.233-1.087-0.564-1.493-0.999
	c-0.408-0.432-0.725-0.946-0.944-1.548c-0.223-0.6-0.333-1.26-0.333-1.979c0-0.695,0.113-1.346,0.342-1.943
	c0.229-0.6,0.553-1.119,0.974-1.557c0.42-0.438,0.921-0.783,1.503-1.035s1.227-0.379,1.936-0.379c0.792,0,1.481,0.152,2.069,0.459
	s1.069,0.718,1.448,1.231c0.379,0.519,0.649,1.104,0.818,1.767c0.168,0.66,0.229,1.35,0.18,2.067h-6.714
	C438.717,427.13,438.927,427.73,439.311,428.102z M442.199,423.206c-0.308-0.336-0.771-0.504-1.396-0.504
	c-0.407,0-0.747,0.069-1.018,0.207c-0.271,0.138-0.485,0.31-0.647,0.513c-0.162,0.204-0.274,0.42-0.342,0.648
	c-0.065,0.228-0.104,0.432-0.117,0.609h4.158C442.719,424.034,442.506,423.542,442.199,423.206L442.199,423.206z M449.211,430.334
	l-3.188-9.307h2.684l1.962,6.354h0.035l1.963-6.354h2.537l-3.149,9.307H449.211L449.211,430.334z M456.338,419.588v-2.104h2.556
	v2.104H456.338z M458.894,421.027v9.307h-2.556v-9.307H458.894z M465.355,422.702c-0.407,0-0.75,0.093-1.025,0.278
	c-0.275,0.187-0.501,0.427-0.675,0.721c-0.175,0.294-0.298,0.618-0.369,0.972c-0.071,0.354-0.107,0.705-0.107,1.054
	c0,0.336,0.036,0.68,0.107,1.025c0.071,0.348,0.188,0.663,0.352,0.945c0.162,0.279,0.381,0.513,0.657,0.691
	c0.275,0.182,0.611,0.271,1.008,0.271c0.611,0,1.083-0.172,1.413-0.516c0.329-0.342,0.536-0.801,0.621-1.377h2.466
	c-0.168,1.236-0.646,2.18-1.438,2.826c-0.792,0.648-1.808,0.975-3.042,0.975c-0.696,0-1.335-0.117-1.917-0.354
	s-1.077-0.561-1.484-0.979c-0.408-0.421-0.727-0.924-0.954-1.505c-0.229-0.581-0.343-1.222-0.343-1.915
	c0-0.723,0.104-1.391,0.314-2.01c0.21-0.615,0.52-1.149,0.928-1.602c0.407-0.452,0.905-0.801,1.494-1.053
	c0.588-0.252,1.26-0.38,2.016-0.38c0.553,0,1.083,0.071,1.594,0.218c0.51,0.144,0.966,0.361,1.368,0.654
	c0.401,0.297,0.729,0.66,0.98,1.101c0.251,0.438,0.396,0.957,0.432,1.558h-2.502C467.078,423.236,466.448,422.702,465.355,422.702
	L465.355,422.702z M473.979,428.102c0.386,0.373,0.938,0.561,1.656,0.561c0.518,0,0.96-0.129,1.332-0.387
	c0.371-0.26,0.602-0.531,0.686-0.819h2.25c-0.36,1.116-0.912,1.914-1.656,2.394c-0.744,0.48-1.646,0.723-2.699,0.723
	c-0.731,0-1.393-0.117-1.979-0.354c-0.589-0.233-1.087-0.564-1.494-0.999c-0.408-0.432-0.725-0.946-0.944-1.548
	c-0.223-0.6-0.333-1.26-0.333-1.979c0-0.695,0.113-1.346,0.342-1.943c0.229-0.6,0.553-1.119,0.974-1.557
	c0.42-0.438,0.921-0.783,1.503-1.035s1.227-0.379,1.936-0.379c0.792,0,1.481,0.152,2.069,0.459s1.069,0.718,1.449,1.231
	c0.378,0.519,0.648,1.104,0.817,1.767c0.168,0.659,0.229,1.35,0.182,2.067h-6.716C473.385,427.13,473.595,427.729,473.979,428.102z
	 M476.867,423.206c-0.308-0.336-0.771-0.504-1.396-0.504c-0.407,0-0.747,0.068-1.018,0.207c-0.271,0.138-0.485,0.31-0.647,0.513
	c-0.162,0.204-0.274,0.42-0.342,0.648c-0.065,0.228-0.104,0.432-0.117,0.609h4.158C477.387,424.034,477.174,423.542,476.867,423.206
	L476.867,423.206z M483.725,428.021c0.114,0.196,0.263,0.358,0.441,0.484s0.387,0.22,0.62,0.279c0.232,0.059,0.478,0.09,0.729,0.09
	c0.182,0,0.369-0.021,0.567-0.063c0.197-0.04,0.378-0.105,0.54-0.195c0.161-0.09,0.297-0.21,0.403-0.36
	c0.107-0.147,0.161-0.339,0.161-0.565c0-0.385-0.255-0.674-0.765-0.863c-0.511-0.191-1.222-0.385-2.133-0.576
	c-0.372-0.084-0.735-0.184-1.09-0.297c-0.354-0.114-0.669-0.264-0.944-0.45c-0.275-0.186-0.498-0.42-0.666-0.702
	c-0.168-0.281-0.252-0.627-0.252-1.035c0-0.6,0.117-1.092,0.352-1.476c0.233-0.384,0.543-0.688,0.928-0.909
	c0.385-0.222,0.814-0.378,1.296-0.468c0.479-0.091,0.973-0.136,1.477-0.136s0.993,0.049,1.468,0.145s0.896,0.258,1.271,0.486
	c0.371,0.229,0.681,0.531,0.927,0.908c0.246,0.379,0.395,0.854,0.44,1.432h-2.432c-0.035-0.492-0.222-0.825-0.558-0.999
	s-0.731-0.261-1.188-0.261l-0.469,0.025c-0.168,0.02-0.32,0.059-0.459,0.116c-0.138,0.061-0.255,0.147-0.351,0.261
	c-0.098,0.115-0.146,0.27-0.146,0.459c0,0.229,0.084,0.414,0.253,0.561c0.168,0.144,0.388,0.261,0.656,0.351
	c0.271,0.091,0.579,0.171,0.928,0.243s0.701,0.15,1.062,0.234c0.371,0.084,0.733,0.186,1.089,0.306
	c0.354,0.12,0.669,0.278,0.944,0.479c0.274,0.195,0.498,0.441,0.666,0.735s0.252,0.657,0.252,1.089c0,0.612-0.123,1.125-0.368,1.539
	c-0.246,0.414-0.567,0.747-0.964,0.999c-0.397,0.252-0.85,0.431-1.358,0.531c-0.511,0.102-1.028,0.153-1.557,0.153
	c-0.54,0-1.068-0.057-1.585-0.162c-0.518-0.108-0.977-0.288-1.377-0.54c-0.401-0.253-0.731-0.585-0.989-0.999
	c-0.259-0.414-0.398-0.936-0.423-1.557h2.43C483.554,427.586,483.609,427.822,483.725,428.021L483.725,428.021z"/>
<g>
	<path fill="#FFFFFF" d="M505.178,431.18c-0.103,0.486-0.325,0.938-0.665,1.357c-0.339,0.42-0.832,0.775-1.476,1.067
		c-0.646,0.291-1.508,0.437-2.59,0.437c-0.461,0-0.933-0.058-1.412-0.173c-0.48-0.116-0.918-0.295-1.313-0.537
		c-0.396-0.244-0.723-0.557-0.983-0.939c-0.262-0.383-0.411-0.842-0.446-1.376h2.569c0.122,0.484,0.359,0.823,0.711,1.012
		c0.353,0.188,0.76,0.282,1.222,0.282c0.729,0,1.261-0.219,1.596-0.655c0.333-0.438,0.494-0.992,0.483-1.659v-1.24h-0.038
		c-0.279,0.498-0.677,0.866-1.192,1.103c-0.518,0.237-1.062,0.355-1.632,0.355c-0.706,0-1.312-0.124-1.823-0.374
		c-0.511-0.248-0.931-0.589-1.259-1.021c-0.328-0.431-0.568-0.936-0.719-1.513c-0.153-0.577-0.229-1.188-0.229-1.832
		c0-0.608,0.088-1.195,0.264-1.76c0.177-0.564,0.435-1.062,0.775-1.494c0.34-0.433,0.763-0.775,1.267-1.03
		c0.505-0.256,1.085-0.383,1.74-0.383c0.621,0,1.165,0.116,1.633,0.347s0.858,0.618,1.175,1.166h0.038v-1.258h2.461v8.823
		C505.334,430.262,505.281,430.692,505.178,431.18z M501.633,428.044c0.279-0.146,0.511-0.341,0.692-0.584
		c0.183-0.242,0.318-0.519,0.41-0.829s0.138-0.635,0.138-0.976c0-0.388-0.038-0.756-0.109-1.104
		c-0.073-0.346-0.195-0.652-0.365-0.92s-0.396-0.48-0.675-0.638c-0.28-0.157-0.632-0.237-1.059-0.237
		c-0.364,0-0.677,0.073-0.938,0.219c-0.262,0.146-0.479,0.345-0.655,0.593c-0.177,0.249-0.306,0.534-0.384,0.857
		c-0.079,0.321-0.118,0.659-0.118,1.012c0,0.34,0.033,0.678,0.1,1.012s0.183,0.635,0.347,0.901s0.38,0.486,0.647,0.656
		c0.268,0.171,0.602,0.256,1.001,0.256C501.031,428.263,501.353,428.189,501.633,428.044z"/>
	<path fill="#FFFFFF" d="M509.692,421.062v1.75h0.038c0.12-0.292,0.285-0.562,0.491-0.811c0.207-0.249,0.444-0.462,0.712-0.639
		c0.268-0.176,0.553-0.312,0.857-0.41c0.303-0.097,0.618-0.146,0.946-0.146c0.17,0,0.358,0.029,0.565,0.092v2.406
		c-0.121-0.025-0.267-0.046-0.437-0.064c-0.17-0.018-0.335-0.027-0.492-0.027c-0.475,0-0.876,0.079-1.204,0.237
		c-0.327,0.158-0.592,0.373-0.793,0.646c-0.2,0.273-0.344,0.593-0.429,0.957c-0.085,0.365-0.127,0.761-0.127,1.185v4.248h-2.588
		v-9.425H509.692z"/>
	<path fill="#FFFFFF" d="M517.026,428.227c0.39,0.376,0.949,0.564,1.679,0.564c0.521,0,0.971-0.13,1.348-0.392
		s0.608-0.537,0.694-0.829h2.277c-0.364,1.13-0.924,1.938-1.677,2.425c-0.754,0.485-1.665,0.729-2.734,0.729
		c-0.742,0-1.41-0.119-2.005-0.354c-0.596-0.238-1.101-0.575-1.514-1.012c-0.413-0.439-0.731-0.961-0.957-1.569
		c-0.225-0.607-0.337-1.276-0.337-2.005c0-0.704,0.115-1.361,0.346-1.97c0.231-0.606,0.559-1.132,0.983-1.576
		c0.427-0.443,0.934-0.793,1.523-1.048c0.59-0.256,1.243-0.383,1.96-0.383c0.803,0,1.501,0.155,2.096,0.465
		c0.596,0.309,1.085,0.726,1.467,1.248c0.384,0.523,0.66,1.119,0.831,1.787c0.17,0.669,0.23,1.366,0.183,2.096h-6.8
		C516.426,427.241,516.638,427.851,517.026,428.227z M519.953,423.268c-0.311-0.341-0.782-0.511-1.413-0.511
		c-0.414,0-0.756,0.07-1.029,0.21s-0.492,0.312-0.656,0.52s-0.28,0.425-0.347,0.656c-0.067,0.231-0.106,0.437-0.118,0.62h4.21
		C520.479,424.106,520.263,423.608,519.953,423.268z"/>
	<path fill="#FFFFFF" d="M532.389,430.486l-1.677-6.324h-0.035l-1.604,6.324h-2.682l-2.989-9.425h2.735l1.731,6.398h0.037
		l1.567-6.398h2.516l1.604,6.38h0.036l1.731-6.38h2.662l-2.972,9.425H532.389z"/>
	<path fill="#FFFFFF" d="M547.392,430.486v-8.275h-3.208v-1.951c0.449,0.013,0.885-0.021,1.303-0.1c0.42-0.08,0.797-0.22,1.131-0.42
		c0.333-0.202,0.616-0.466,0.848-0.793c0.23-0.329,0.383-0.735,0.456-1.222h2.06v12.761H547.392z"/>
	<path fill="#FFFFFF" d="M552.024,427.533v-2.37l5.542-7.438h2.314v7.674h1.695v2.134h-1.695v2.953h-2.461v-2.953H552.024z
		 M557.365,420.971l-3.299,4.429h3.354v-4.429H557.365z"/>
	<path fill="#FFFFFF" d="M561.638,421.062h2.954l1.659,2.461l1.64-2.461h2.863l-3.101,4.412l3.482,5.013h-2.953l-1.969-2.972
		l-1.969,2.972h-2.898l3.39-4.958L561.638,421.062z"/>
	<path fill="#FFFFFF" d="M575.073,427.68v2.807h-2.862v-2.807H575.073z"/>
</g>
</svg>
