<svg xmlns="http://www.w3.org/2000/svg" width="750" height="510" viewBox="0 0 750 510"><path fill="#fff" d="M104.576 167.778l1.147 3.282-5.012 1.662 3.143 4.177-2.803 2.089-3.144-4.391-2.973 4.391-2.846-2.089 3.143-4.177-4.927-1.662 1.147-3.282 4.799 1.875v-5.328h3.398v5.328l4.928-1.875zm20.039 0l1.147 3.282-5.012 1.662 3.143 4.177-2.803 2.089-3.143-4.391-2.973 4.391-2.846-2.089 3.143-4.177-4.927-1.662 1.146-3.282 4.8 1.875v-5.328h3.397v5.328l4.928-1.875zm20.039 0l1.147 3.282-5.012 1.662 3.143 4.177-2.803 2.089-3.143-4.391-2.973 4.391-2.846-2.089 3.143-4.177-4.927-1.662 1.147-3.282 4.8 1.875v-5.328h3.397v5.328l4.927-1.875zm20.039 0l1.146 3.282-5.012 1.662 3.144 4.177-2.804 2.089-3.143-4.391-2.974 4.391-2.846-2.089 3.144-4.177-4.928-1.662 1.147-3.282 4.799 1.875v-5.328h3.398v5.328l4.929-1.875zm20.039 0l1.146 3.282-5.012 1.662 3.144 4.177-2.804 2.089-3.143-4.391-2.974 4.391-2.846-2.089 3.144-4.177-4.928-1.662 1.147-3.282 4.799 1.875v-5.328h3.398v5.328l4.929-1.875zm20.039 0l1.146 3.282-5.012 1.662 3.143 4.177-2.803 2.089-3.144-4.391-2.973 4.391-2.846-2.089 3.143-4.177-4.927-1.662 1.146-3.282 4.8 1.875v-5.328h3.398v5.328l4.929-1.875z"/><path fill-rule="evenodd" clip-rule="evenodd" fill="#fff" d="M225.143 144.542h-154.316c-3.779 0-6.842 3.064-6.842 6.844v39.062c0 3.779 3.221 7.094 7 7.094h62c8.281.002 14.993 6.717 14.993 15 0 .337-.028.668-.05 1h.107c-.022-.332-.05-.663-.05-1 0-8.284 6.714-15 14.996-15h63.004c3.778 0 6-3.314 6-7.094v-39.062c0-3.779-3.064-6.844-6.842-6.844zm-2.158 42c0 1.104-.896 2-2 2h-146c-1.104 0-2-.896-2-2v-31c0-1.104.896-2 2-2h146c1.104 0 2 .896 2 2v31z"/><path fill="#fff" d="M59.323 82.411v-3.432h15.21v3.432h-5.564v15.132h-4.082v-15.132h-5.564zm20.404-3.432v6.994h.078c.468-.78 1.066-1.348 1.794-1.703s1.438-.533 2.132-.533c.988 0 1.798.135 2.431.403.632.269 1.131.641 1.495 1.118.364.477.619 1.058.767 1.742.147.685.221 1.443.221 2.275v8.268h-3.692v-7.592c0-1.109-.174-1.937-.52-2.483-.347-.546-.962-.819-1.846-.819-1.005 0-1.733.299-2.184.897-.451.598-.676 1.582-.676 2.951v7.046h-3.692v-18.564h3.692zm19.658 8.268c-.442-.485-1.114-.728-2.015-.728-.589 0-1.079.1-1.469.299-.39.2-.702.447-.936.741-.234.295-.399.607-.494.936s-.152.624-.169.884h6.006c-.173-.937-.481-1.647-.923-2.132zm-4.172 7.071c.554.538 1.352.806 2.392.806.745 0 1.386-.186 1.924-.559.537-.373.866-.767.988-1.183h3.25c-.52 1.612-1.317 2.765-2.392 3.458-1.075.694-2.375 1.04-3.9 1.04-1.057 0-2.011-.169-2.86-.507-.85-.338-1.569-.819-2.158-1.443s-1.044-1.369-1.365-2.236c-.321-.866-.481-1.82-.481-2.86 0-1.005.165-1.941.494-2.808.329-.866.797-1.616 1.404-2.249.606-.632 1.33-1.131 2.171-1.495.84-.364 1.772-.546 2.795-.546 1.144 0 2.141.221 2.99.663.849.442 1.547 1.036 2.093 1.781.546.746.94 1.595 1.183 2.548.243.954.329 1.95.26 2.99h-9.698c.052 1.197.354 2.063.91 2.6zm29.249 3.224l-2.392-9.022h-.052l-2.288 9.022h-3.822l-4.264-13.442h3.9l2.47 9.126h.052l2.236-9.126h3.588l2.288 9.1h.052l2.47-9.1h3.796l-4.238 13.442h-3.796zm12.306-5.134c.104.511.282.971.533 1.378.251.407.585.732 1.001.975.416.243.936.364 1.56.364s1.148-.121 1.573-.364c.425-.242.763-.567 1.014-.975.251-.407.429-.867.533-1.378s.156-1.036.156-1.573c0-.537-.052-1.066-.156-1.586s-.282-.979-.533-1.378c-.251-.398-.589-.724-1.014-.975-.425-.251-.949-.377-1.573-.377s-1.144.126-1.56.377c-.416.251-.75.577-1.001.975-.251.399-.429.858-.533 1.378s-.156 1.049-.156 1.586c0 .537.052 1.061.156 1.573zm-3.354-4.498c.329-.875.797-1.621 1.404-2.236.607-.615 1.335-1.092 2.184-1.43s1.803-.507 2.86-.507 2.015.169 2.873.507c.858.338 1.59.815 2.197 1.43.606.616 1.074 1.361 1.404 2.236.329.875.494 1.851.494 2.925 0 1.075-.165 2.045-.494 2.912-.33.867-.798 1.608-1.404 2.223-.607.616-1.339 1.088-2.197 1.417-.858.329-1.816.494-2.873.494-1.058 0-2.011-.165-2.86-.494s-1.577-.801-2.184-1.417c-.607-.615-1.075-1.356-1.404-2.223-.33-.867-.494-1.837-.494-2.912s.164-2.05.494-2.925zm19.037-3.809v2.496h.052c.173-.416.407-.802.702-1.157.294-.355.632-.659 1.014-.91.381-.251.788-.446 1.222-.585.434-.138.884-.208 1.353-.208.242 0 .511.043.806.13v3.432c-.174-.034-.382-.065-.624-.091-.243-.026-.477-.039-.702-.039-.676 0-1.248.113-1.716.338-.468.226-.845.533-1.131.923-.286.39-.49.845-.611 1.365s-.182 1.083-.182 1.69v6.058h-3.692v-13.442h3.509zm9.791 10.101c.164.286.377.52.637.702.26.182.56.317.897.403.338.087.688.13 1.053.13.26 0 .533-.03.819-.091.285-.061.546-.156.779-.286.234-.13.43-.303.585-.52.156-.217.234-.49.234-.819 0-.555-.368-.971-1.105-1.248-.736-.277-1.764-.555-3.081-.832-.537-.121-1.062-.264-1.572-.429-.512-.165-.967-.381-1.365-.65s-.72-.606-.962-1.014c-.243-.407-.364-.905-.364-1.495 0-.866.169-1.577.507-2.132.338-.555.784-.992 1.339-1.313.555-.32 1.179-.546 1.872-.676.693-.13 1.404-.195 2.133-.195.728 0 1.434.07 2.118.208.685.139 1.296.373 1.833.702.537.33.984.767 1.34 1.313.354.546.567 1.235.637 2.067h-3.51c-.053-.71-.321-1.191-.807-1.443-.485-.251-1.058-.377-1.716-.377-.208 0-.434.013-.676.039-.243.026-.464.083-.663.169-.199.087-.368.212-.507.377s-.208.386-.208.663c0 .33.121.598.364.806.242.208.559.377.948.507.391.13.836.247 1.339.351s1.015.217 1.534.338c.537.122 1.062.269 1.573.442.511.173.966.403 1.365.689.398.286.719.642.962 1.066.242.425.364.949.364 1.573 0 .884-.179 1.625-.533 2.223-.355.598-.819 1.079-1.392 1.443-.571.364-1.226.62-1.963.767-.736.147-1.486.221-2.249.221-.779 0-1.543-.078-2.288-.234s-1.408-.416-1.988-.78c-.581-.364-1.058-.845-1.431-1.443-.373-.598-.576-1.347-.61-2.249h3.51c.001.398.083.741.248 1.027zm18.12-10.101v2.47h-2.704v6.656c0 .624.104 1.04.312 1.248s.624.312 1.248.312c.208 0 .407-.009.599-.026.19-.017.372-.043.546-.078v2.86c-.312.052-.659.086-1.04.104-.382.017-.754.026-1.118.026-.572 0-1.114-.039-1.625-.117-.512-.078-.962-.229-1.352-.455-.391-.225-.698-.546-.924-.962-.225-.416-.338-.962-.338-1.638v-7.93h-2.235v-2.47h2.235v-4.03h3.692v4.03h2.704zm10.685 15.665c-.503-.962-.932-1.937-1.287-2.925-.355-.988-.629-2.002-.819-3.042s-.285-2.132-.285-3.276c0-2.045.342-4.108 1.026-6.188s1.703-4.013 3.056-5.798h1.689c-1.248 1.976-2.132 3.935-2.652 5.876-.52 1.941-.779 3.978-.779 6.11 0 2.184.264 4.255.793 6.214.528 1.958 1.408 3.935 2.639 5.928h-1.689c-.625-.971-1.189-1.937-1.692-2.899zm14.151-1.937c-.572 0-1.027-.161-1.365-.481-.338-.321-.507-.845-.507-1.573-.606.728-1.312 1.252-2.119 1.573-.806.32-1.677.481-2.612.481-.607 0-1.18-.065-1.717-.195-.537-.13-1.01-.346-1.417-.65-.407-.303-.728-.693-.962-1.17-.233-.477-.351-1.053-.351-1.729 0-.763.13-1.387.39-1.872.261-.485.603-.879 1.027-1.183.425-.303.91-.533 1.456-.689.546-.156 1.104-.286 1.677-.39.606-.121 1.183-.212 1.729-.273.546-.06 1.026-.147 1.442-.26.416-.112.745-.277.988-.494.242-.216.364-.533.364-.949 0-.485-.092-.875-.273-1.17-.182-.294-.416-.52-.702-.676-.286-.156-.606-.26-.962-.312-.355-.052-.706-.078-1.053-.078-.937 0-1.716.178-2.34.533-.624.355-.962 1.027-1.015 2.015h-2.21c.035-.832.208-1.534.521-2.106.312-.572.728-1.036 1.248-1.391s1.118-.611 1.794-.767 1.387-.234 2.132-.234c.606 0 1.209.043 1.807.13.599.087 1.14.265 1.625.533s.875.646 1.171 1.131c.294.485.441 1.118.441 1.898v6.916c0 .52.03.901.091 1.144s.265.364.611.364c.19 0 .416-.043.676-.13v1.716c-.38.224-.909.338-1.585.338zm-3.093-6.773c-.451.095-.923.173-1.417.234-.494.061-.992.13-1.495.208s-.953.204-1.353.377c-.398.173-.724.42-.975.741s-.377.758-.377 1.312c0 .364.073.672.221.923.147.251.338.455.572.611.234.156.511.269.832.338.32.07.646.104.975.104.729 0 1.353-.099 1.872-.299.521-.199.945-.451 1.274-.754s.572-.632.728-.988c.156-.355.234-.689.234-1.001v-2.262c-.277.209-.641.36-1.091.456zm8.504-6.955v2.132h.052c.919-1.629 2.375-2.444 4.368-2.444.884 0 1.621.122 2.21.364.59.243 1.066.581 1.431 1.014.363.434.619.949.767 1.547.147.598.221 1.261.221 1.989v8.84h-2.21v-9.1c0-.832-.242-1.49-.728-1.976-.485-.485-1.153-.728-2.002-.728-.676 0-1.262.104-1.755.312-.494.208-.906.503-1.235.884s-.576.828-.741 1.339c-.165.512-.247 1.071-.247 1.677v7.592h-2.21v-13.442h2.079zm13.839 8.67c.165.598.416 1.131.754 1.599.338.468.771.841 1.3 1.118.529.277 1.148.416 1.859.416.745 0 1.378-.147 1.898-.442.52-.294.944-.68 1.273-1.157s.567-1.018.715-1.625.222-1.222.222-1.846c0-.658-.078-1.295-.234-1.911-.156-.615-.403-1.157-.741-1.625-.338-.468-.775-.845-1.312-1.131-.538-.286-1.188-.429-1.95-.429-.745 0-1.378.147-1.898.442-.52.295-.936.685-1.248 1.17-.312.485-.537 1.04-.676 1.664s-.208 1.265-.208 1.924c-.001.624.081 1.235.246 1.833zm7.944 4.771v-1.82h-.052c-.364.746-.937 1.283-1.717 1.612-.779.329-1.638.494-2.573.494-1.04 0-1.946-.191-2.718-.572-.771-.381-1.412-.893-1.924-1.534s-.896-1.387-1.157-2.236c-.26-.849-.39-1.75-.39-2.704s.126-1.854.377-2.704c.251-.849.633-1.59 1.145-2.223.511-.632 1.152-1.135 1.924-1.508.771-.373 1.668-.559 2.69-.559.347 0 .72.035 1.118.104s.797.187 1.196.351c.398.165.775.381 1.131.65.355.269.654.603.897 1.001h.052v-6.916h2.21v18.564h-2.209zm14.403-13.441v1.976h.052c1.005-1.525 2.453-2.288 4.343-2.288.832 0 1.586.173 2.262.52s1.152.936 1.43 1.768c.451-.728 1.044-1.291 1.781-1.69.736-.398 1.547-.598 2.431-.598.677 0 1.287.074 1.833.221.546.147 1.015.377 1.404.689.39.312.693.715.91 1.209.217.494.325 1.088.325 1.781v9.854h-2.21v-8.814c0-.416-.035-.806-.104-1.17-.069-.364-.199-.68-.39-.949-.191-.269-.455-.481-.793-.637-.338-.156-.776-.234-1.313-.234-1.092 0-1.95.312-2.574.936s-.936 1.456-.936 2.496v8.372h-2.21v-8.814c0-.433-.039-.832-.117-1.196-.078-.364-.213-.68-.403-.949-.19-.269-.446-.477-.767-.624-.321-.147-.732-.221-1.235-.221-.642 0-1.191.13-1.65.39-.46.26-.832.572-1.118.936s-.494.741-.624 1.131-.195.715-.195.975v8.372h-2.21v-13.442h2.078zm21.653 8.904c.217.633.516 1.162.897 1.586.381.425.827.75 1.339.975.512.226 1.053.338 1.625.338s1.113-.112 1.625-.338c.512-.225.958-.55 1.339-.975.382-.424.681-.953.897-1.586.217-.632.325-1.356.325-2.171 0-.814-.108-1.538-.325-2.171s-.516-1.166-.897-1.599c-.381-.433-.827-.762-1.339-.988-.512-.225-1.053-.338-1.625-.338s-1.113.113-1.625.338c-.512.226-.958.555-1.339.988-.382.434-.681.966-.897 1.599s-.324 1.356-.324 2.171c-.001.815.107 1.539.324 2.171zm-2.249-4.94c.276-.858.692-1.603 1.248-2.236.554-.633 1.238-1.131 2.054-1.495.814-.364 1.75-.546 2.808-.546 1.074 0 2.016.182 2.821.546.806.364 1.486.862 2.041 1.495s.971 1.378 1.248 2.236.416 1.781.416 2.769c0 .988-.139 1.907-.416 2.756-.277.85-.693 1.591-1.248 2.223-.555.633-1.235 1.127-2.041 1.482s-1.747.533-2.821.533c-1.058 0-1.993-.178-2.808-.533-.815-.355-1.5-.849-2.054-1.482-.556-.632-.972-1.374-1.248-2.223-.278-.849-.416-1.768-.416-2.756 0-.987.138-1.911.416-2.769zm16.554 6.475c.208.338.48.607.818.806.339.199.72.342 1.145.429.425.087.862.13 1.312.13.347 0 .711-.026 1.093-.078.381-.052.731-.147 1.053-.286.32-.139.585-.342.793-.611s.312-.611.312-1.027c0-.572-.217-1.005-.649-1.3-.434-.294-.976-.533-1.625-.715-.65-.182-1.356-.347-2.119-.494-.763-.147-1.469-.355-2.119-.624-.65-.269-1.191-.646-1.625-1.131s-.65-1.161-.65-2.028c0-.676.152-1.256.455-1.742.304-.485.693-.88 1.17-1.183s1.015-.529 1.612-.676c.598-.147 1.191-.221 1.781-.221.763 0 1.465.065 2.105.195.642.13 1.209.355 1.703.676s.889.754 1.184 1.3c.294.546.468 1.227.52 2.041h-2.21c-.035-.433-.147-.793-.338-1.079-.191-.286-.434-.516-.729-.689-.294-.173-.619-.299-.975-.377s-.715-.117-1.079-.117c-.329 0-.663.026-1.001.078-.338.052-.646.143-.923.273s-.503.304-.676.52c-.174.217-.26.499-.26.845 0 .381.134.698.402.949.269.251.611.459 1.027.624.416.165.884.304 1.404.416.52.113 1.04.23 1.56.351.555.122 1.096.269 1.625.442.528.174.997.403 1.404.689.407.286.736.646.987 1.079.252.434.378.971.378 1.612 0 .814-.17 1.491-.508 2.028-.338.538-.779.971-1.326 1.3-.546.33-1.161.559-1.846.689-.685.13-1.365.195-2.041.195-.745 0-1.456-.078-2.132-.234-.676-.156-1.274-.411-1.794-.767s-.936-.823-1.248-1.404c-.312-.58-.485-1.287-.52-2.119h2.21c.019.485.132.897.34 1.235zm16.643-10.439v1.95h-2.679v8.346c0 .26.022.468.065.624s.126.277.247.364c.121.087.29.143.507.169.217.026.498.039.845.039h1.015v1.95h-1.69c-.572 0-1.062-.039-1.469-.117-.407-.078-.737-.221-.988-.429s-.438-.502-.559-.884c-.121-.381-.183-.884-.183-1.508v-8.555h-2.288v-1.95h2.288v-4.03h2.21v4.03h2.679zm17.185 2.339c-.555-.468-1.3-.702-2.236-.702-.797 0-1.465.147-2.002.442-.537.295-.966.685-1.287 1.17-.32.485-.55 1.044-.688 1.677-.139.633-.208 1.287-.208 1.963 0 .624.073 1.23.221 1.82s.377 1.114.689 1.573c.312.46.719.828 1.222 1.105.502.277 1.101.416 1.794.416 1.092 0 1.945-.286 2.561-.858.615-.572.992-1.378 1.132-2.418h2.262c-.243 1.664-.862 2.947-1.859 3.848s-2.353 1.352-4.068 1.352c-1.023 0-1.929-.165-2.718-.494-.788-.329-1.447-.797-1.976-1.404-.529-.607-.928-1.33-1.196-2.171-.269-.84-.402-1.763-.402-2.769s.13-1.946.39-2.821c.26-.875.654-1.638 1.183-2.288.529-.65 1.191-1.161 1.989-1.534.797-.373 1.725-.559 2.782-.559.763 0 1.478.091 2.145.273s1.257.464 1.769.845c.511.381.932.862 1.261 1.443s.537 1.27.624 2.067h-2.288c-.178-.849-.541-1.507-1.096-1.976zm7.506 6.565c.217.633.516 1.162.896 1.586.382.425.828.75 1.34.975.511.226 1.053.338 1.625.338.571 0 1.113-.112 1.625-.338.511-.225.957-.55 1.339-.975.381-.424.68-.953.896-1.586.217-.632.325-1.356.325-2.171 0-.814-.108-1.538-.325-2.171s-.516-1.166-.896-1.599c-.382-.433-.828-.762-1.339-.988-.512-.225-1.054-.338-1.625-.338-.572 0-1.114.113-1.625.338-.512.226-.958.555-1.34.988-.381.434-.68.966-.896 1.599s-.325 1.356-.325 2.171c0 .815.108 1.539.325 2.171zm-2.249-4.94c.277-.858.693-1.603 1.248-2.236s1.239-1.131 2.054-1.495c.814-.364 1.751-.546 2.809-.546 1.074 0 2.015.182 2.82.546.807.364 1.486.862 2.041 1.495s.971 1.378 1.248 2.236.416 1.781.416 2.769c0 .988-.139 1.907-.416 2.756-.277.85-.693 1.591-1.248 2.223-.555.633-1.234 1.127-2.041 1.482-.806.355-1.746.533-2.82.533-1.058 0-1.994-.178-2.809-.533s-1.499-.849-2.054-1.482c-.555-.632-.971-1.374-1.248-2.223-.277-.849-.416-1.768-.416-2.756 0-.987.139-1.911.416-2.769zm16.934-3.964v1.976h.052c1.005-1.525 2.452-2.288 4.342-2.288.832 0 1.586.173 2.263.52.676.347 1.152.936 1.43 1.768.45-.728 1.044-1.291 1.781-1.69.736-.398 1.547-.598 2.431-.598.676 0 1.287.074 1.833.221.546.147 1.014.377 1.404.689.39.312.692.715.91 1.209.216.494.324 1.088.324 1.781v9.854h-2.21v-8.814c0-.416-.034-.806-.104-1.17-.069-.364-.2-.68-.391-.949-.19-.269-.454-.481-.793-.637-.338-.156-.775-.234-1.312-.234-1.092 0-1.95.312-2.574.936s-.936 1.456-.936 2.496v8.372h-2.21v-8.814c0-.433-.039-.832-.117-1.196-.078-.364-.213-.68-.403-.949-.19-.269-.446-.477-.767-.624-.321-.147-.732-.221-1.235-.221-.642 0-1.192.13-1.651.39-.459.26-.832.572-1.117.936-.286.364-.494.741-.624 1.131s-.195.715-.195.975v8.372h-2.21v-13.442h2.079zm21.751 0v1.976h.053c1.005-1.525 2.452-2.288 4.342-2.288.832 0 1.586.173 2.262.52s1.152.936 1.43 1.768c.451-.728 1.045-1.291 1.781-1.69.737-.398 1.547-.598 2.431-.598.677 0 1.287.074 1.834.221.546.147 1.014.377 1.403.689.391.312.693.715.91 1.209.217.494.325 1.088.325 1.781v9.854h-2.21v-8.814c0-.416-.035-.806-.104-1.17-.069-.364-.199-.68-.39-.949-.19-.269-.455-.481-.793-.637-.338-.156-.776-.234-1.313-.234-1.092 0-1.949.312-2.573.936s-.937 1.456-.937 2.496v8.372h-2.21v-8.814c0-.433-.039-.832-.117-1.196-.077-.364-.212-.68-.402-.949-.191-.269-.447-.477-.768-.624-.32-.147-.732-.221-1.234-.221-.642 0-1.192.13-1.651.39-.459.26-.832.572-1.118.936s-.494.741-.624 1.131-.195.715-.195.975v8.372h-2.209v-13.442h2.077zm21.653 8.904c.217.633.516 1.162.896 1.586.381.425.828.75 1.339.975.512.226 1.054.338 1.625.338.572 0 1.114-.112 1.625-.338.512-.225.958-.55 1.339-.975.382-.424.681-.953.897-1.586.217-.632.325-1.356.325-2.171 0-.814-.108-1.538-.325-2.171s-.516-1.166-.897-1.599c-.381-.433-.827-.762-1.339-.988-.511-.225-1.053-.338-1.625-.338-.571 0-1.113.113-1.625.338-.511.226-.958.555-1.339.988-.381.434-.68.966-.896 1.599s-.325 1.356-.325 2.171c0 .815.108 1.539.325 2.171zm-2.249-4.94c.276-.858.692-1.603 1.248-2.236.555-.633 1.239-1.131 2.054-1.495.814-.364 1.751-.546 2.808-.546 1.075 0 2.016.182 2.821.546.807.364 1.486.862 2.041 1.495s.971 1.378 1.248 2.236.416 1.781.416 2.769c0 .988-.139 1.907-.416 2.756-.277.85-.693 1.591-1.248 2.223-.555.633-1.234 1.127-2.041 1.482-.806.355-1.746.533-2.821.533-1.057 0-1.993-.178-2.808-.533s-1.499-.849-2.054-1.482c-.556-.632-.972-1.374-1.248-2.223-.277-.849-.416-1.768-.416-2.756 0-.987.139-1.911.416-2.769zm16.934-3.964v2.132h.052c.919-1.629 2.375-2.444 4.368-2.444.884 0 1.62.122 2.21.364.589.243 1.066.581 1.43 1.014.364.434.62.949.768 1.547.146.598.221 1.261.221 1.989v8.84h-2.21v-9.1c0-.832-.243-1.49-.729-1.976-.485-.485-1.152-.728-2.002-.728-.676 0-1.261.104-1.755.312s-.906.503-1.234.884c-.33.381-.577.828-.741 1.339-.165.512-.247 1.071-.247 1.677v7.592h-2.21v-13.442h2.079zm12.053 12.7c.52-1.95.779-3.982.779-6.097 0-2.184-.264-4.26-.793-6.227-.528-1.967-1.399-3.948-2.612-5.941h1.664c.624.971 1.187 1.937 1.689 2.899s.932 1.941 1.287 2.938c.354.997.628 2.015.819 3.055.19 1.04.285 2.132.285 3.276 0 2.045-.342 4.104-1.026 6.175-.685 2.071-1.703 4-3.055 5.785h-1.664c1.232-1.958 2.107-3.913 2.627-5.863zm20.76-2.041c.407-.242.737-.559.988-.949s.43-.845.533-1.365.156-1.048.156-1.586c0-.537-.057-1.066-.169-1.586-.113-.52-.3-.983-.56-1.391-.26-.407-.594-.736-1.001-.988-.407-.251-.905-.377-1.495-.377-.606 0-1.113.126-1.521.377-.407.251-.737.577-.988.975-.251.399-.429.858-.533 1.378-.104.52-.155 1.058-.155 1.612 0 .538.056 1.066.169 1.586.112.52.294.975.546 1.365.251.39.585.707 1.001.949.416.243.919.364 1.508.364.607.001 1.114-.121 1.521-.364zm-4.797-10.659v1.716h.053c.45-.728 1.022-1.256 1.716-1.586.693-.329 1.456-.494 2.288-.494 1.057 0 1.967.2 2.729.598.763.399 1.396.928 1.898 1.586.503.659.875 1.426 1.118 2.301.242.875.363 1.79.363 2.743 0 .901-.121 1.768-.363 2.6-.243.832-.611 1.569-1.105 2.21-.494.642-1.109 1.153-1.846 1.534-.737.381-1.6.572-2.587.572-.832 0-1.6-.169-2.302-.507-.701-.338-1.278-.836-1.729-1.495h-.052v6.37h-3.692v-18.148h3.511zm12.621 1.976c.381-.572.866-1.031 1.455-1.378.59-.347 1.253-.594 1.989-.741.737-.147 1.478-.221 2.224-.221.676 0 1.36.048 2.054.143.692.096 1.326.282 1.897.559.572.277 1.04.663 1.404 1.157.364.494.546 1.148.546 1.963v6.994c0 .607.035 1.188.104 1.742.068.555.19.971.363 1.248h-3.744c-.068-.208-.125-.42-.168-.637-.044-.217-.074-.438-.092-.663-.589.607-1.282 1.031-2.08 1.274-.797.242-1.611.364-2.443.364-.642 0-1.239-.078-1.794-.234-.556-.156-1.04-.398-1.456-.728-.416-.329-.741-.745-.976-1.248-.233-.502-.351-1.101-.351-1.794 0-.763.134-1.391.403-1.885s.614-.888 1.04-1.183c.424-.294.909-.516 1.455-.663.547-.147 1.097-.264 1.651-.351.555-.086 1.101-.156 1.638-.208.537-.052 1.015-.13 1.431-.234s.745-.255.987-.455c.243-.199.355-.489.338-.871 0-.398-.064-.715-.194-.949-.13-.234-.304-.416-.521-.546-.217-.13-.468-.217-.754-.26-.285-.043-.594-.065-.923-.065-.728 0-1.3.156-1.716.468s-.659.832-.729 1.56h-3.691c.055-.867.271-1.587.653-2.158zm7.293 5.213c-.234.078-.486.143-.755.195-.269.052-.55.096-.845.13s-.589.078-.884.13c-.277.052-.551.121-.819.208s-.503.204-.702.351c-.199.148-.359.334-.48.559-.121.226-.183.512-.183.858 0 .329.062.607.183.832.121.226.286.403.494.533s.45.221.728.273c.277.052.563.078.858.078.728 0 1.291-.121 1.689-.364.399-.243.693-.533.885-.871.19-.338.308-.68.351-1.027.043-.346.064-.624.064-.832v-1.378c-.155.139-.35.246-.584.325zm9.994 2.912c.164.286.377.52.637.702.26.182.559.317.896.403.338.087.689.13 1.054.13.26 0 .532-.03.818-.091s.546-.156.78-.286.429-.303.585-.52.234-.49.234-.819c0-.555-.369-.971-1.105-1.248-.737-.277-1.764-.555-3.081-.832-.537-.121-1.062-.264-1.572-.429-.512-.165-.967-.381-1.365-.65-.399-.269-.72-.606-.962-1.014-.243-.407-.364-.905-.364-1.495 0-.866.169-1.577.507-2.132.338-.555.784-.992 1.339-1.313.555-.32 1.179-.546 1.872-.676.693-.13 1.404-.195 2.132-.195.729 0 1.435.07 2.119.208.685.139 1.296.373 1.833.702.537.33.983.767 1.339 1.313s.567 1.235.638 2.067h-3.511c-.052-.71-.32-1.191-.806-1.443-.485-.251-1.058-.377-1.716-.377-.208 0-.434.013-.676.039-.243.026-.465.083-.663.169-.2.087-.369.212-.507.377-.14.165-.209.386-.209.663 0 .33.121.598.364.806s.56.377.949.507.836.247 1.339.351 1.014.217 1.534.338c.537.122 1.062.269 1.573.442.511.173.966.403 1.365.689.398.286.719.642.962 1.066.242.425.363.949.363 1.573 0 .884-.178 1.625-.532 2.223-.355.598-.819 1.079-1.392 1.443-.572.364-1.227.62-1.963.767-.737.147-1.486.221-2.249.221-.78 0-1.543-.078-2.288-.234s-1.408-.416-1.989-.78c-.58-.364-1.057-.845-1.43-1.443-.373-.598-.576-1.347-.611-2.249h3.511c.001.398.083.741.248 1.027zm13.842 0c.164.286.377.52.637.702.26.182.559.317.897.403.338.087.688.13 1.053.13.26 0 .533-.03.819-.091.285-.061.546-.156.779-.286.234-.13.43-.303.585-.52.156-.217.234-.49.234-.819 0-.555-.368-.971-1.105-1.248-.736-.277-1.764-.555-3.081-.832-.537-.121-1.062-.264-1.572-.429-.512-.165-.967-.381-1.365-.65s-.72-.606-.962-1.014c-.243-.407-.364-.905-.364-1.495 0-.866.169-1.577.507-2.132.338-.555.784-.992 1.339-1.313.555-.32 1.179-.546 1.872-.676.693-.13 1.404-.195 2.133-.195.728 0 1.434.07 2.118.208.685.139 1.296.373 1.834.702.536.33.983.767 1.338 1.313.355.546.568 1.235.638 2.067h-3.51c-.053-.71-.321-1.191-.807-1.443-.485-.251-1.058-.377-1.716-.377-.208 0-.434.013-.676.039-.243.026-.464.083-.663.169-.199.087-.368.212-.507.377s-.208.386-.208.663c0 .33.121.598.364.806.242.208.559.377.948.507.391.13.836.247 1.339.351s1.015.217 1.534.338c.537.122 1.062.269 1.573.442.511.173.966.403 1.365.689.398.286.719.642.962 1.066.242.425.364.949.364 1.573 0 .884-.179 1.625-.533 2.223-.355.598-.819 1.079-1.392 1.443-.571.364-1.226.62-1.963.767-.736.147-1.486.221-2.249.221-.779 0-1.543-.078-2.288-.234s-1.408-.416-1.988-.78c-.581-.364-1.058-.845-1.431-1.443-.373-.598-.576-1.347-.61-2.249h3.51c.001.398.083.741.248 1.027zm21.946 3.34l-2.393-9.022h-.052l-2.288 9.022h-3.821l-4.265-13.442h3.9l2.47 9.126h.052l2.236-9.126h3.588l2.288 9.1h.052l2.47-9.1h3.797l-4.238 13.442h-3.796zm12.306-5.134c.104.511.281.971.533 1.378.251.407.585.732 1.001.975.416.243.936.364 1.56.364s1.148-.121 1.573-.364c.425-.242.763-.567 1.014-.975s.429-.867.533-1.378.156-1.036.156-1.573c0-.537-.052-1.066-.156-1.586s-.282-.979-.533-1.378c-.251-.398-.589-.724-1.014-.975-.425-.251-.949-.377-1.573-.377s-1.144.126-1.56.377c-.416.251-.75.577-1.001.975-.252.399-.43.858-.533 1.378-.104.52-.156 1.049-.156 1.586 0 .537.052 1.061.156 1.573zm-3.354-4.498c.329-.875.798-1.621 1.404-2.236.606-.615 1.335-1.092 2.185-1.43.849-.338 1.802-.507 2.859-.507s2.016.169 2.873.507c.858.338 1.59.815 2.197 1.43.606.616 1.074 1.361 1.404 2.236.328.875.493 1.851.493 2.925 0 1.075-.165 2.045-.493 2.912-.33.867-.798 1.608-1.404 2.223-.607.616-1.339 1.088-2.197 1.417-.857.329-1.816.494-2.873.494-1.058 0-2.011-.165-2.859-.494-.85-.329-1.578-.801-2.185-1.417-.606-.615-1.075-1.356-1.404-2.223s-.493-1.837-.493-2.912c-.001-1.075.164-2.05.493-2.925zm19.037-3.809v2.496h.052c.174-.416.407-.802.702-1.157s.633-.659 1.015-.91c.381-.251.788-.446 1.222-.585.433-.138.884-.208 1.352-.208.243 0 .512.043.807.13v3.432c-.174-.034-.382-.065-.624-.091-.243-.026-.477-.039-.702-.039-.676 0-1.248.113-1.716.338-.469.226-.846.533-1.131.923-.286.39-.49.845-.611 1.365s-.182 1.083-.182 1.69v6.058h-3.692v-13.442h3.508zm15.938 5.083c-.104-.511-.282-.962-.533-1.352-.252-.39-.576-.706-.976-.949-.398-.242-.901-.364-1.508-.364s-1.118.122-1.534.364c-.416.243-.75.563-1.001.962-.251.399-.433.854-.546 1.365-.112.512-.169 1.044-.169 1.599 0 .52.061 1.04.183 1.56.121.52.315.984.584 1.391.27.408.607.737 1.015.988.407.251.896.377 1.469.377.606 0 1.114-.121 1.521-.364.407-.242.731-.567.975-.975s.416-.871.521-1.391c.104-.52.155-1.057.155-1.612s-.052-1.088-.156-1.599zm.156 6.643c-.433.728-1.001 1.252-1.703 1.573-.702.321-1.495.481-2.379.481-1.005 0-1.89-.195-2.651-.585-.764-.39-1.392-.918-1.886-1.586-.493-.667-.866-1.434-1.117-2.301-.252-.867-.378-1.768-.378-2.704 0-.901.126-1.772.378-2.613.251-.84.624-1.581 1.117-2.223.494-.641 1.114-1.157 1.859-1.547.745-.39 1.612-.585 2.601-.585.797 0 1.555.169 2.274.507.719.338 1.287.836 1.703 1.495h.052v-6.76h3.692v18.564h-3.511v-1.716h-.051zm9.302-1.625c.165.286.377.52.637.702.261.182.56.317.897.403.338.087.689.13 1.053.13.26 0 .533-.03.819-.091s.546-.156.78-.286c.233-.13.429-.303.585-.52.155-.217.233-.49.233-.819 0-.555-.368-.971-1.104-1.248-.737-.277-1.765-.555-3.081-.832-.538-.121-1.062-.264-1.573-.429-.512-.165-.967-.381-1.365-.65s-.72-.606-.962-1.014c-.242-.407-.363-.905-.363-1.495 0-.866.168-1.577.507-2.132.338-.555.784-.992 1.339-1.313.555-.32 1.178-.546 1.872-.676.692-.13 1.403-.195 2.132-.195.728 0 1.434.07 2.119.208.685.139 1.295.373 1.833.702.537.33.983.767 1.339 1.313s.567 1.235.637 2.067h-3.51c-.052-.71-.321-1.191-.807-1.443-.485-.251-1.057-.377-1.716-.377-.208 0-.433.013-.676.039-.243.026-.464.083-.663.169-.199.087-.368.212-.507.377s-.208.386-.208.663c0 .33.121.598.364.806.242.208.559.377.949.507.39.13.836.247 1.339.351.502.104 1.014.217 1.533.338.537.122 1.062.269 1.573.442.512.173.967.403 1.365.689s.719.642.962 1.066c.242.425.364.949.364 1.573 0 .884-.178 1.625-.533 2.223-.355.598-.819 1.079-1.391 1.443-.572.364-1.227.62-1.963.767-.737.147-1.487.221-2.249.221-.78 0-1.543-.078-2.288-.234-.746-.156-1.409-.416-1.989-.78-.581-.364-1.058-.845-1.43-1.443-.373-.598-.577-1.347-.611-2.249h3.51c.001.398.083.741.248 1.027zm25.688-6.955c-.441-.485-1.113-.728-2.015-.728-.59 0-1.079.1-1.469.299-.391.2-.702.447-.937.741-.233.295-.398.607-.494.936-.095.329-.151.624-.169.884h6.006c-.172-.937-.48-1.647-.922-2.132zm-4.173 7.071c.555.538 1.353.806 2.393.806.744 0 1.386-.186 1.924-.559.537-.373.866-.767.988-1.183h3.25c-.521 1.612-1.318 2.765-2.393 3.458-1.075.694-2.375 1.04-3.9 1.04-1.057 0-2.011-.169-2.859-.507-.85-.338-1.569-.819-2.158-1.443-.59-.624-1.045-1.369-1.365-2.236-.32-.866-.48-1.82-.48-2.86 0-1.005.164-1.941.494-2.808.328-.866.797-1.616 1.403-2.249.606-.632 1.33-1.131 2.171-1.495.841-.364 1.772-.546 2.795-.546 1.145 0 2.141.221 2.99.663s1.547 1.036 2.094 1.781c.546.746.939 1.595 1.183 2.548.242.954.329 1.95.26 2.99h-9.698c.05 1.197.353 2.063.908 2.6zm13.647 3.224l-4.603-13.442h3.875l2.833 9.178h.053l2.834-9.178h3.666l-4.55 13.442h-4.108zm17.68-10.295c-.442-.485-1.114-.728-2.015-.728-.59 0-1.079.1-1.47.299-.39.2-.702.447-.936.741-.234.295-.399.607-.494.936-.096.329-.151.624-.169.884h6.006c-.173-.937-.48-1.647-.922-2.132zm-4.173 7.071c.555.538 1.352.806 2.392.806.745 0 1.387-.186 1.924-.559.537-.373.867-.767.988-1.183h3.25c-.52 1.612-1.317 2.765-2.392 3.458-1.075.694-2.375 1.04-3.9 1.04-1.058 0-2.011-.169-2.86-.507-.849-.338-1.568-.819-2.157-1.443-.59-.624-1.045-1.369-1.365-2.236-.321-.866-.481-1.82-.481-2.86 0-1.005.165-1.941.494-2.808.329-.866.797-1.616 1.404-2.249.606-.632 1.33-1.131 2.171-1.495.841-.364 1.772-.546 2.795-.546 1.145 0 2.141.221 2.99.663.849.442 1.547 1.036 2.093 1.781.546.746.94 1.595 1.183 2.548.243.954.33 1.95.261 2.99h-9.698c.05 1.197.354 2.063.908 2.6zm14.302-10.217v2.496h.053c.173-.416.406-.802.701-1.157.295-.355.633-.659 1.015-.91.381-.251.788-.446 1.222-.585.433-.138.884-.208 1.353-.208.242 0 .511.043.806.13v3.432c-.174-.034-.382-.065-.624-.091-.243-.026-.477-.039-.702-.039-.676 0-1.248.113-1.716.338-.468.226-.845.533-1.131.923-.286.39-.49.845-.611 1.365s-.182 1.083-.182 1.69v6.058h-3.692v-13.442h3.508zm6.599 4.237v-4.004h4.082v4.004h-4.082zm4.082 5.201v4.004h-4.082v-4.004h4.082zm-469.196 181.932c-9.469 0-17.17 7.717-17.17 17.201 0 9.482 7.703 17.201 17.17 17.201 9.473 0 17.174-7.719 17.174-17.201 0-9.484-7.703-17.201-17.174-17.201zm0 24.371c-3.953 0-7.155-3.209-7.155-7.168 0-3.961 3.202-7.168 7.155-7.168 3.951 0 7.155 3.207 7.155 7.168.001 3.959-3.204 7.168-7.155 7.168zm124.245-120.485v-11.058h-4.299v-2.605c.603.016 1.185-.028 1.746-.135.562-.104 1.066-.292 1.515-.56.447-.269.826-.621 1.136-1.06s.513-.982.61-1.632h2.76v17.049h-3.468zm7.699-13.213c.261-.836.651-1.566 1.173-2.192.521-.625 1.176-1.111 1.966-1.461.79-.349 1.697-.523 2.724-.523.781 0 1.526.121 2.234.365.709.243 1.331.593 1.869 1.047.537.455.965 1.016 1.282 1.681.317.666.476 1.413.476 2.241 0 .86-.138 1.6-.415 2.216-.277.617-.644 1.166-1.099 1.645-.456.479-.974.913-1.551 1.303-.579.39-1.16.775-1.747 1.157-.586.382-1.156.791-1.709 1.229-.555.438-1.043.95-1.466 1.535h8.084v2.971h-12.554c0-.99.143-1.851.428-2.581.284-.731.671-1.385 1.16-1.961.488-.576 1.062-1.108 1.722-1.596s1.355-.981 2.088-1.485c.375-.26.773-.523 1.197-.792.423-.268.81-.563 1.16-.889.35-.324.643-.69.879-1.096.236-.406.354-.869.354-1.389 0-.828-.24-1.474-.721-1.937s-1.096-.694-1.844-.694c-.505 0-.933.118-1.282.354-.351.235-.632.544-.843.926-.212.382-.362.804-.452 1.267s-.134.922-.134 1.376h-3.322c-.031-.976.082-1.881.343-2.717zm19.4 3.057c.424-.032.818-.125 1.185-.28.366-.154.668-.377.904-.67.235-.292.354-.682.354-1.169 0-.73-.244-1.291-.732-1.681s-1.05-.584-1.686-.584c-.879 0-1.543.288-1.99.864-.448.576-.664 1.303-.647 2.18h-3.297c.032-.877.191-1.676.476-2.398.285-.723.685-1.344 1.197-1.863s1.127-.922 1.844-1.206 1.515-.426 2.394-.426c.685 0 1.368.102 2.052.304.684.203 1.299.508 1.844.914.546.406.989.9 1.331 1.485.343.585.514 1.259.514 2.021 0 .828-.2 1.559-.599 2.192-.399.633-.998 1.063-1.795 1.291v.049c.944.211 1.685.666 2.223 1.363.537.698.806 1.535.806 2.509 0 .894-.175 1.689-.525 2.387-.35.698-.818 1.283-1.404 1.754-.586.472-1.262.828-2.027 1.071-.766.244-1.562.366-2.394.366-.961 0-1.836-.139-2.625-.414-.79-.276-1.462-.678-2.016-1.206-.554-.527-.981-1.173-1.282-1.937-.302-.763-.443-1.64-.428-2.63h3.298c.016.454.089.889.22 1.303.13.414.317.771.562 1.071.244.301.55.54.916.719s.802.268 1.307.268c.782 0 1.441-.239 1.979-.718s.806-1.133.806-1.961c0-.649-.126-1.145-.378-1.485-.253-.342-.574-.589-.965-.743s-.818-.244-1.282-.268c-.465-.024-.908-.037-1.331-.037v-2.436c.369.034.767.034 1.191.001zm14.857-2.558l-4.421 5.919h4.494v-5.919h-.073zm-7.156 8.769v-3.166l7.425-9.938h3.103v10.254h2.271v2.85h-2.271v3.945h-3.298v-3.945h-7.23zm18.826-10.254l-.684 3.873.049.048c.472-.471.977-.808 1.515-1.011.537-.202 1.147-.305 1.831-.305.847 0 1.596.155 2.247.463.651.309 1.201.723 1.649 1.242.447.521.789 1.133 1.025 1.84.236.706.354 1.457.354 2.252 0 .877-.171 1.693-.513 2.448-.343.755-.803 1.409-1.381 1.961s-1.249.979-2.015 1.278c-.766.301-1.579.442-2.442.427-.83 0-1.624-.11-2.382-.329-.757-.22-1.429-.556-2.015-1.011-.586-.454-1.055-1.019-1.404-1.692-.351-.674-.533-1.458-.55-2.351h3.469c.081.779.374 1.4.879 1.863.505.462 1.148.693 1.93.693.456 0 .867-.093 1.233-.279s.676-.431.928-.731c.253-.3.448-.648.587-1.047.138-.397.207-.808.207-1.23 0-.438-.065-.852-.195-1.241-.131-.39-.326-.731-.586-1.023-.261-.292-.57-.52-.929-.682-.357-.162-.773-.244-1.245-.244-.619 0-1.124.11-1.515.329s-.757.564-1.099 1.035h-3.127l1.686-9.426h9.55v2.85h-7.057zm14.589 5.614c-.351.17-.64.401-.867.694-.228.292-.399.629-.513 1.011-.114.382-.171.783-.171 1.205 0 .39.061.775.183 1.157.123.382.302.723.538 1.022.235.301.524.54.867.719.342.179.732.268 1.172.268.423 0 .794-.089 1.111-.268s.59-.414.818-.706c.228-.292.398-.625.513-.999.114-.373.171-.755.171-1.145 0-.405-.053-.8-.158-1.182-.106-.381-.265-.722-.477-1.022s-.484-.544-.818-.73-.721-.28-1.16-.28c-.456 0-.859.085-1.209.256zm2.919-5.565c-.407-.422-.912-.634-1.515-.634-.619 0-1.136.183-1.551.548-.415.366-.745.812-.989 1.34s-.424 1.093-.537 1.693c-.114.601-.18 1.137-.195 1.607l.049.049c.472-.683 1.025-1.17 1.66-1.462.636-.292 1.368-.438 2.199-.438.732 0 1.448.158 2.148.475.7.317 1.295.743 1.783 1.279.456.52.79 1.112 1.002 1.778.211.666.317 1.339.317 2.021 0 .877-.143 1.692-.428 2.447s-.692 1.413-1.221 1.974c-.529.56-1.161.998-1.894 1.314s-1.547.476-2.442.476c-1.286 0-2.353-.256-3.199-.768s-1.523-1.182-2.027-2.01c-.505-.828-.854-1.766-1.051-2.812-.195-1.048-.293-2.115-.293-3.203 0-1.056.122-2.11.366-3.166.245-1.056.636-2.01 1.173-2.862s1.229-1.547 2.076-2.082c.847-.536 1.881-.804 3.102-.804.733 0 1.417.105 2.052.316s1.197.516 1.686.913c.488.398.887.889 1.196 1.474s.513 1.259.611 2.021h-3.298c-.113-.567-.374-1.063-.78-1.484zm-68.573 51.336c.439 0 .863-.032 1.271-.098.406-.064.765-.19 1.074-.377.309-.187.558-.451.745-.792.187-.341.28-.787.28-1.34 0-.552-.094-.998-.28-1.339-.188-.341-.437-.605-.745-.792-.31-.187-.668-.312-1.074-.378-.407-.064-.831-.097-1.271-.097h-2.979v5.212h2.979zm1.05-8.183c1.091 0 2.02.158 2.785.475.765.317 1.388.735 1.868 1.255.479.52.83 1.112 1.05 1.777.221.666.33 1.356.33 2.07 0 .699-.109 1.385-.33 2.059-.22.674-.57 1.271-1.05 1.79-.48.52-1.104.938-1.868 1.255-.766.316-1.694.475-2.785.475h-4.029v6.235h-3.835v-17.391h7.864zm8.319 6.649c.357-.536.813-.966 1.367-1.291.554-.324 1.177-.556 1.869-.694.691-.138 1.388-.207 2.088-.207.635 0 1.278.045 1.93.134.651.09 1.245.265 1.783.524.537.26.977.621 1.318 1.083.342.463.514 1.076.514 1.839v6.553c0 .568.032 1.112.098 1.632.064.52.179.909.342 1.169h-3.518c-.065-.195-.118-.394-.158-.597-.041-.203-.069-.41-.086-.621-.554.568-1.205.966-1.954 1.193-.749.227-1.514.341-2.296.341-.603 0-1.164-.073-1.686-.219-.521-.146-.977-.374-1.367-.683s-.696-.698-.916-1.169-.33-1.031-.33-1.681c0-.714.126-1.303.379-1.766.252-.463.578-.832.978-1.108.398-.276.854-.483 1.367-.621s1.029-.247 1.551-.329c.521-.081 1.034-.146 1.539-.194.504-.049.952-.122 1.344-.22.391-.097.699-.239.928-.426.228-.187.334-.459.317-.816 0-.373-.062-.67-.184-.889s-.284-.39-.488-.512c-.203-.121-.439-.202-.708-.243-.269-.04-.558-.061-.867-.061-.684 0-1.222.146-1.612.438-.391.293-.618.78-.684 1.462h-3.468c.049-.811.252-1.485.61-2.021zm6.851 4.883c-.22.073-.456.135-.708.184-.253.048-.517.089-.794.121-.277.033-.554.073-.83.122-.261.049-.518.113-.77.194-.253.082-.473.191-.659.329-.188.139-.339.313-.452.523-.114.212-.171.479-.171.804 0 .309.057.569.171.78.113.211.269.377.464.499.195.121.423.207.684.256s.529.073.807.073c.684 0 1.213-.114 1.587-.342.375-.227.651-.499.831-.815.179-.316.289-.637.329-.962.041-.325.062-.585.062-.779v-1.291c-.148.13-.332.232-.551.304zm9.701 2.729c.155.268.354.487.599.657.244.171.525.297.843.378s.647.122.989.122c.244 0 .501-.028.77-.086.269-.057.513-.146.732-.268s.403-.284.55-.487.22-.459.22-.768c0-.52-.347-.909-1.038-1.169-.692-.26-1.657-.52-2.895-.779-.505-.113-.997-.247-1.478-.401s-.908-.357-1.282-.609c-.375-.252-.676-.568-.904-.95-.228-.381-.342-.848-.342-1.4 0-.812.159-1.478.477-1.997s.736-.93 1.258-1.229c.521-.301 1.107-.512 1.759-.634s1.318-.183 2.003-.183c.684 0 1.347.065 1.99.195s1.217.349 1.722.657.924.719 1.258 1.23c.334.511.533 1.156.599 1.936h-3.297c-.049-.665-.302-1.116-.758-1.352s-.993-.353-1.611-.353c-.195 0-.407.012-.636.036-.228.024-.436.077-.622.158-.188.081-.347.199-.477.354-.131.154-.195.361-.195.621 0 .309.113.56.342.755.228.194.525.353.892.475s.785.231 1.258.329c.472.098.952.203 1.441.316.504.114.997.252 1.478.414.479.163.907.378 1.282.646.374.268.675.601.903.999.229.397.342.889.342 1.474 0 .828-.167 1.521-.5 2.082-.334.561-.77 1.011-1.307 1.352-.538.341-1.152.581-1.845.719s-1.396.207-2.112.207c-.732 0-1.449-.073-2.149-.219-.7-.146-1.323-.39-1.868-.731-.546-.341-.994-.791-1.344-1.352-.351-.561-.542-1.263-.574-2.106h3.298c-.003.372.075.692.229.961zm13.316 0c.154.268.354.487.598.657.245.171.525.297.843.378s.647.122.989.122c.244 0 .501-.028.77-.086.269-.057.513-.146.732-.268.221-.122.403-.284.55-.487s.22-.459.22-.768c0-.52-.346-.909-1.038-1.169s-1.657-.52-2.894-.779c-.505-.113-.998-.247-1.479-.401s-.907-.357-1.282-.609c-.374-.252-.676-.568-.903-.95-.229-.381-.342-.848-.342-1.4 0-.812.158-1.478.477-1.997.317-.52.736-.93 1.258-1.229.521-.301 1.106-.512 1.758-.634s1.319-.183 2.003-.183c.685 0 1.348.065 1.991.195s1.217.349 1.722.657c.504.309.924.719 1.258 1.23.333.511.533 1.156.599 1.936h-3.298c-.049-.665-.302-1.116-.757-1.352-.456-.235-.993-.353-1.612-.353-.195 0-.407.012-.635.036-.229.024-.436.077-.623.158s-.346.199-.477.354c-.13.154-.195.361-.195.621 0 .309.114.56.343.755.228.194.524.353.891.475s.786.231 1.258.329c.473.098.953.203 1.441.316.505.114.997.252 1.478.414.48.163.907.378 1.282.646s.676.601.904.999c.228.397.342.889.342 1.474 0 .828-.167 1.521-.501 2.082s-.77 1.011-1.307 1.352-1.152.581-1.844.719c-.692.138-1.396.207-2.113.207-.732 0-1.449-.073-2.149-.219-.7-.146-1.322-.39-1.868-.731-.546-.341-.993-.791-1.343-1.352-.351-.561-.542-1.263-.574-2.106h3.297c-.002.372.075.692.23.961zm20.934 3.129l-2.247-8.452h-.049l-2.149 8.452h-3.59l-4.006-12.593h3.663l2.32 8.55h.049l2.101-8.55h3.371l2.149 8.525h.049l2.32-8.525h3.565l-3.98 12.593h-3.566zm11.885-4.81c.098.479.265.909.501 1.291.235.382.55.686.94.913s.879.341 1.465.341c.587 0 1.079-.113 1.479-.341.398-.228.716-.531.952-.913.235-.382.403-.812.501-1.291.098-.479.146-.97.146-1.474 0-.503-.049-.999-.146-1.485-.098-.487-.266-.918-.501-1.291-.236-.374-.554-.678-.952-.914-.399-.234-.892-.353-1.479-.353-.586 0-1.074.118-1.465.353-.391.236-.705.54-.94.914-.236.373-.403.804-.501 1.291-.098.486-.146.982-.146 1.485-.001.504.048.995.146 1.474zm-3.151-4.214c.309-.819.748-1.518 1.318-2.095.57-.576 1.254-1.022 2.052-1.339.798-.317 1.693-.476 2.687-.476s1.894.158 2.699.476c.806.316 1.494.763 2.063 1.339.57.577 1.01 1.275 1.319 2.095.31.82.464 1.733.464 2.74s-.154 1.916-.464 2.728c-.31.812-.749 1.507-1.319 2.083-.569.576-1.258 1.019-2.063 1.327s-1.706.463-2.699.463-1.889-.154-2.687-.463-1.481-.751-2.052-1.327-1.01-1.271-1.318-2.083c-.31-.812-.465-1.721-.465-2.728s.156-1.92.465-2.74zm18.198-3.568v2.339h.049c.163-.39.383-.751.659-1.084.277-.333.595-.617.953-.853.357-.235.74-.418 1.147-.548s.831-.195 1.271-.195c.228 0 .479.041.757.122v3.215c-.163-.032-.358-.061-.586-.085-.229-.024-.448-.037-.659-.037-.636 0-1.173.106-1.612.317s-.794.499-1.062.864-.46.792-.574 1.278c-.114.487-.171 1.016-.171 1.584v5.675h-3.469v-12.593h3.297zm15.283 4.761c-.098-.479-.265-.901-.501-1.267s-.541-.661-.916-.889c-.374-.228-.847-.341-1.416-.341-.57 0-1.051.113-1.441.341s-.704.528-.94.901c-.236.374-.407.8-.513 1.278-.106.479-.159.979-.159 1.498 0 .487.058.975.171 1.461.114.487.297.922.55 1.304.252.382.57.69.953.926.382.235.842.353 1.38.353.569 0 1.046-.113 1.429-.341.382-.228.688-.531.916-.913.228-.382.391-.816.488-1.304.098-.486.146-.99.146-1.51s-.05-1.017-.147-1.497zm.146 6.224c-.407.682-.94 1.173-1.6 1.474-.66.3-1.404.45-2.235.45-.944 0-1.774-.183-2.491-.548s-1.307-.86-1.771-1.486c-.464-.625-.814-1.343-1.051-2.155-.235-.812-.354-1.656-.354-2.533 0-.844.118-1.66.354-2.447.236-.788.587-1.481 1.051-2.083.464-.601 1.046-1.084 1.746-1.449s1.515-.548 2.442-.548c.749 0 1.462.158 2.138.476.675.316 1.209.783 1.6 1.4h.049v-6.333h3.468v17.391h-3.297v-1.607h-.049zm-99.224 41.718l-1.8 1.898 1.652 1.486c-.197.088-.403.146-.616.176-.214.029-.526.043-.938.043-.872 0-1.611-.166-2.22-.498s-1.102-.773-1.479-1.324c-.379-.551-.653-1.17-.826-1.859-.173-.688-.259-1.396-.259-2.127 0-.762.086-1.498.259-2.211s.447-1.35.826-1.908c.378-.559.871-1.004 1.479-1.338.608-.332 1.348-.498 2.22-.498.871 0 1.611.168 2.22.5.607.332 1.101.779 1.479 1.34.378.561.653 1.197.826 1.912s.259 1.453.259 2.215c0 .926-.099 1.715-.296 2.363-.197.65-.46 1.193-.789 1.633l-1.997-1.803zm5.055 8.037l1.801-1.852-2.195-1.973c.74-.828 1.308-1.785 1.702-2.873s.592-2.266.592-3.533c0-1.299-.197-2.504-.592-3.615-.395-1.113-.962-2.084-1.702-2.912-.739-.828-1.644-1.477-2.712-1.948-1.069-.471-2.286-.706-3.65-.706-1.349 0-2.561.235-3.638.706s-1.985 1.12-2.725 1.948c-.74.828-1.308 1.799-1.702 2.912-.395 1.111-.592 2.316-.592 3.615 0 1.268.197 2.449.592 3.545s.962 2.051 1.702 2.861c.739.812 1.647 1.449 2.725 1.912s2.289.695 3.638.695c1.677 0 3.099-.334 4.267-1l2.489 2.218zm15.125-1.607l-2.269-8.451h-.049l-2.171 8.451h-3.625l-4.045-12.592h3.699l2.343 8.549h.05l2.121-8.549h3.403l2.17 8.523h.05l2.343-8.523h3.601l-4.021 12.592h-3.6zm16.423-9.645c-.42-.455-1.057-.682-1.912-.682-.559 0-1.023.092-1.393.279-.37.188-.666.418-.889.693-.222.277-.378.568-.468.877-.091.309-.145.586-.161.828h5.697c-.163-.875-.455-1.539-.874-1.995zm-3.959 6.625c.526.502 1.283.754 2.27.754.706 0 1.314-.174 1.824-.523s.822-.719.938-1.107h3.083c-.493 1.51-1.25 2.59-2.27 3.238-1.02.65-2.252.975-3.699.975-1.003 0-1.907-.158-2.712-.475-.807-.316-1.488-.768-2.048-1.352-.559-.584-.99-1.283-1.294-2.096-.305-.811-.457-1.705-.457-2.678 0-.941.156-1.818.469-2.631s.756-1.514 1.332-2.107c.575-.592 1.262-1.059 2.06-1.4.797-.342 1.681-.512 2.65-.512 1.085 0 2.03.207 2.837.621.805.414 1.467.971 1.984 1.668.519.699.893 1.494 1.123 2.389.229.893.312 1.826.246 2.801h-9.199c.05 1.119.337 1.932.863 2.435zm13.767-9.572v2.338h.049c.164-.391.386-.752.666-1.084.279-.332.6-.617.962-.852.361-.236.748-.418 1.159-.549.41-.129.838-.195 1.282-.195.229 0 .484.041.765.123v3.215c-.165-.033-.362-.062-.592-.086-.23-.023-.453-.037-.666-.037-.642 0-1.184.105-1.628.316-.443.213-.802.5-1.072.865-.271.365-.465.791-.58 1.279-.115.486-.173 1.014-.173 1.582v5.676h-3.502v-12.592h3.33zm13.99 0v2.312h-2.565v6.236c0 .584.099.975.296 1.168.197.195.593.293 1.185.293.197 0 .386-.008.566-.023.181-.018.354-.041.519-.074v2.68c-.296.049-.625.08-.986.098-.362.016-.716.023-1.061.023-.543 0-1.057-.035-1.542-.109-.484-.072-.912-.215-1.282-.426s-.662-.512-.875-.9c-.214-.391-.321-.902-.321-1.535v-7.43h-2.121v-2.312h2.121v-3.775h3.502v3.775h2.564zm7.097 16.342c-.674.439-1.611.658-2.811.658-.362 0-.72-.012-1.073-.037-.354-.023-.711-.053-1.073-.084v-2.85l1.012.098c.345.031.69.039 1.035.023.461-.049.802-.227 1.023-.535.223-.309.333-.65.333-1.023 0-.275-.049-.535-.147-.779l-4.464-11.812h3.724l2.886 8.621h.049l2.787-8.621h3.625l-5.326 14.15c-.38 1.023-.906 1.754-1.58 2.191zm-70.806 34.447c.439 0 .863-.031 1.271-.096.406-.066.765-.191 1.074-.379.309-.186.558-.449.745-.791.187-.342.28-.787.28-1.34 0-.551-.094-.998-.28-1.34-.188-.34-.437-.604-.745-.791-.31-.188-.668-.312-1.074-.377-.407-.064-.831-.098-1.271-.098h-2.979v5.211h2.979zm1.05-8.183c1.091 0 2.02.158 2.785.477.765.316 1.388.734 1.868 1.254.479.52.83 1.111 1.05 1.777.221.666.33 1.355.33 2.07 0 .699-.109 1.385-.33 2.059-.22.674-.57 1.27-1.05 1.789-.48.521-1.104.939-1.868 1.256-.766.316-1.694.475-2.785.475h-4.029v6.234h-3.835v-17.391h7.864zm15.427 7.746c-.415-.455-1.047-.682-1.894-.682-.553 0-1.013.094-1.379.279-.367.188-.66.418-.88.695-.22.275-.375.568-.464.877-.09.309-.143.584-.159.828h5.643c-.163-.876-.452-1.542-.867-1.997zm-3.92 6.625c.521.504 1.27.756 2.247.756.699 0 1.302-.176 1.807-.525.505-.348.814-.717.929-1.107h3.053c-.488 1.51-1.237 2.59-2.247 3.24-1.01.648-2.23.973-3.663.973-.994 0-1.89-.158-2.688-.475s-1.474-.768-2.026-1.352c-.554-.584-.981-1.283-1.283-2.094-.301-.812-.451-1.705-.451-2.68 0-.941.154-1.818.464-2.631s.749-1.514 1.319-2.107c.569-.592 1.249-1.059 2.039-1.4.789-.34 1.665-.51 2.626-.51 1.074 0 2.011.205 2.809.621.798.412 1.453.969 1.966 1.668.513.697.883 1.494 1.111 2.387s.31 1.826.244 2.801h-9.11c.047 1.12.332 1.931.854 2.435zm10.799-7.721c.358-.537.814-.967 1.368-1.291.553-.324 1.176-.557 1.868-.695.692-.137 1.388-.205 2.088-.205.636 0 1.278.043 1.93.133s1.246.264 1.783.523.977.621 1.319 1.084c.342.463.513 1.076.513 1.84v6.551c0 .568.032 1.113.098 1.633.064.52.179.908.342 1.168h-3.517c-.065-.193-.119-.393-.159-.596-.041-.203-.069-.41-.086-.621-.554.568-1.205.965-1.953 1.193-.75.227-1.515.34-2.296.34-.603 0-1.165-.072-1.686-.219-.521-.146-.978-.373-1.368-.682s-.696-.697-.916-1.17c-.22-.471-.329-1.029-.329-1.68 0-.715.126-1.303.378-1.766.253-.463.578-.832.978-1.109.398-.275.854-.482 1.367-.621.514-.137 1.03-.246 1.552-.328.521-.08 1.033-.146 1.538-.195s.953-.121 1.344-.219.7-.238.928-.426c.229-.188.334-.459.317-.816 0-.373-.061-.67-.183-.889s-.285-.391-.488-.512c-.204-.121-.44-.203-.709-.244-.269-.039-.558-.061-.867-.061-.684 0-1.221.146-1.611.439-.392.291-.619.779-.685 1.461h-3.468c.049-.811.252-1.485.61-2.02zm6.852 4.883c-.22.074-.456.135-.709.184-.252.049-.517.088-.794.121-.276.033-.554.072-.83.121-.261.049-.517.115-.77.195-.252.082-.472.191-.659.33-.188.137-.338.312-.452.523s-.171.479-.171.803c0 .309.057.568.171.779s.269.377.464.5c.196.121.424.207.685.256.26.049.528.072.806.072.684 0 1.213-.113 1.588-.34.374-.229.65-.5.83-.816s.289-.637.33-.963c.04-.324.061-.584.061-.779v-1.291c-.148.131-.33.233-.55.305zm10.16-6.734v1.754h.073c.439-.73 1.009-1.262 1.71-1.596.699-.332 1.416-.498 2.148-.498.929 0 1.689.125 2.284.377.594.252 1.062.6 1.404 1.047s.582.99.721 1.633c.138.641.208 1.352.208 2.131v7.744h-3.469v-7.111c0-1.039-.163-1.814-.488-2.326-.326-.512-.904-.768-1.734-.768-.944 0-1.628.281-2.052.84-.424.561-.635 1.482-.635 2.766v6.6h-3.469v-12.592h3.299zm19.84 12.591v-1.754h-.073c-.44.732-1.011 1.26-1.71 1.584-.7.324-1.417.486-2.149.486-.929 0-1.689-.121-2.284-.365-.594-.242-1.062-.588-1.404-1.035-.342-.445-.582-.99-.721-1.631-.138-.641-.207-1.352-.207-2.131v-7.746h3.468v7.111c0 1.041.163 1.816.489 2.326.325.512.903.768 1.733.768.944 0 1.628-.279 2.052-.84s.635-1.482.635-2.764v-6.602h3.469v12.592h-3.298zm13.047-12.591v2.314h-2.54v6.234c0 .586.098.975.293 1.17s.586.291 1.172.291c.196 0 .383-.008.562-.023.179-.016.35-.041.513-.072v2.678c-.293.049-.619.082-.977.098s-.709.025-1.051.025c-.537 0-1.047-.037-1.526-.109-.48-.074-.904-.217-1.271-.428s-.655-.512-.867-.9c-.211-.391-.317-.9-.317-1.535v-7.428h-2.101v-2.314h2.101v-3.775h3.469v3.775h2.54zm-75.698 39.906v19.078h-4.207v-19.078h4.207zm7.261 0v19.078h-3.806v-19.078h3.806zm6.557 13.801c.107.525.29.998.55 1.416.259.42.603.754 1.031 1.004.43.248.965.373 1.608.373.643 0 1.183-.125 1.621-.373.438-.25.786-.584 1.045-1.004.259-.418.442-.891.55-1.416.106-.525.16-1.064.16-1.615 0-.553-.054-1.096-.16-1.631-.107-.535-.291-1.006-.55-1.416s-.607-.744-1.045-1.002c-.438-.258-.979-.389-1.621-.389-.644 0-1.179.131-1.608.389-.429.258-.772.592-1.031 1.002-.26.41-.442.881-.55 1.416-.106.535-.16 1.078-.16 1.631 0 .55.054 1.089.16 1.615zm-3.456-4.623c.339-.898.821-1.664 1.446-2.297.626-.633 1.376-1.123 2.251-1.471s1.858-.521 2.948-.521c1.089 0 2.076.174 2.961.521.884.348 1.639.838 2.265 1.471.625.633 1.107 1.398 1.446 2.297.34.9.51 1.902.51 3.008 0 1.104-.17 2.102-.51 2.992-.339.891-.821 1.652-1.446 2.285-.626.633-1.381 1.117-2.265 1.455-.885.34-1.872.508-2.961.508-1.09 0-2.073-.168-2.948-.508-.875-.338-1.625-.822-2.251-1.455-.625-.633-1.107-1.395-1.446-2.285-.34-.891-.51-1.889-.51-2.992 0-1.106.17-2.108.51-3.008zm19.293 9.9l-4.742-13.814h3.992l2.921 9.434h.054l2.921-9.434h3.778l-4.689 13.814h-4.235zm18.559-10.582c-.455-.498-1.147-.748-2.077-.748-.607 0-1.111.104-1.514.309s-.724.459-.965.762-.411.623-.509.961c-.099.34-.156.643-.175.908h6.19c-.177-.962-.493-1.692-.95-2.192zm-4.3 7.269c.571.553 1.394.828 2.466.828.768 0 1.429-.191 1.982-.574s.894-.789 1.019-1.217h3.35c-.536 1.658-1.358 2.842-2.466 3.555s-2.447 1.068-4.02 1.068c-1.09 0-2.072-.174-2.947-.52-.876-.348-1.617-.842-2.225-1.484-.607-.641-1.076-1.406-1.406-2.297-.331-.891-.496-1.871-.496-2.939 0-1.033.17-1.996.509-2.887.34-.891.822-1.66 1.447-2.312.625-.648 1.371-1.162 2.237-1.535.867-.375 1.827-.562 2.881-.562 1.18 0 2.206.229 3.082.682.875.455 1.595 1.064 2.157 1.832.562.766.969 1.639 1.219 2.617.25.98.34 2.004.269 3.074h-9.996c.053 1.228.365 2.119.938 2.671zm16.174 7.428c-.733.482-1.752.723-3.056.723-.393 0-.781-.014-1.165-.041-.385-.025-.773-.057-1.166-.094v-3.125l1.099.105c.375.037.751.045 1.126.027.5-.053.87-.25 1.111-.588s.362-.713.362-1.123c0-.303-.054-.588-.161-.854l-4.85-12.961h4.046l3.136 9.459h.053l3.028-9.459h3.939l-5.788 15.525c-.41 1.125-.981 1.926-1.714 2.406zm11.995-9.392c.106.525.29.998.549 1.416.259.42.604.754 1.032 1.004.429.248.965.373 1.607.373.644 0 1.184-.125 1.621-.373.438-.25.786-.584 1.045-1.004.259-.418.442-.891.55-1.416s.161-1.064.161-1.615c0-.553-.054-1.096-.161-1.631s-.291-1.006-.55-1.416-.607-.744-1.045-1.002-.978-.389-1.621-.389-1.179.131-1.607.389-.773.592-1.032 1.002-.442.881-.549 1.416c-.107.535-.161 1.078-.161 1.631-.001.55.053 1.089.161 1.615zm-3.457-4.623c.339-.898.821-1.664 1.447-2.297.625-.633 1.375-1.123 2.251-1.471.875-.348 1.857-.521 2.947-.521s2.077.174 2.961.521c.885.348 1.639.838 2.265 1.471.625.633 1.107 1.398 1.447 2.297.339.9.509 1.902.509 3.008 0 1.104-.17 2.102-.509 2.992-.34.891-.822 1.652-1.447 2.285-.626.633-1.38 1.117-2.265 1.455-.884.34-1.871.508-2.961.508s-2.072-.168-2.947-.508c-.876-.338-1.626-.822-2.251-1.455-.626-.633-1.108-1.395-1.447-2.285-.34-.891-.509-1.889-.509-2.992 0-1.106.169-2.108.509-3.008zm25.67 9.9v-1.924h-.08c-.482.803-1.107 1.381-1.876 1.738-.768.355-1.554.533-2.357.533-1.019 0-1.854-.133-2.506-.4s-1.166-.645-1.541-1.135-.639-1.088-.79-1.791c-.152-.703-.229-1.482-.229-2.338v-8.498h3.806v7.803c0 1.141.178 1.99.536 2.553.356.561.991.842 1.902.842 1.036 0 1.786-.309 2.251-.922.464-.615.696-1.627.696-3.033v-7.242h3.806v13.814h-3.618zm106-197.324c.361-.536.821-.966 1.381-1.291.559-.324 1.188-.556 1.887-.694.698-.138 1.401-.207 2.108-.207.641 0 1.29.045 1.948.134.657.09 1.258.265 1.8.524.543.26.986.621 1.332 1.083.346.463.518 1.076.518 1.839v6.553c0 .568.033 1.112.099 1.632s.181.909.346 1.169h-3.552c-.065-.195-.119-.394-.16-.597s-.07-.41-.086-.621c-.56.568-1.217.966-1.973 1.193-.757.228-1.529.341-2.318.341-.608 0-1.176-.073-1.702-.219-.526-.146-.986-.374-1.381-.683-.395-.308-.703-.698-.925-1.169s-.333-1.031-.333-1.681c0-.714.127-1.303.383-1.766.254-.463.583-.832.986-1.108.402-.275.863-.482 1.381-.621.518-.138 1.04-.247 1.565-.329.526-.081 1.045-.146 1.555-.194.509-.049.961-.122 1.355-.22.395-.097.707-.239.938-.426s.337-.459.32-.816c0-.373-.062-.669-.185-.889-.123-.219-.288-.39-.493-.512-.206-.121-.444-.202-.715-.243-.271-.04-.563-.061-.876-.061-.69 0-1.233.146-1.628.438-.395.293-.625.78-.69 1.462h-3.502c.05-.811.255-1.485.617-2.021zm6.917 4.884c-.222.072-.46.134-.715.182-.255.049-.522.09-.802.122-.279.033-.56.073-.839.122-.263.049-.521.113-.776.194-.255.082-.478.191-.666.329-.189.139-.341.313-.456.523-.115.212-.173.479-.173.805 0 .309.058.568.173.779s.271.377.469.499.427.207.69.256c.263.049.534.073.813.073.69 0 1.225-.114 1.604-.342.378-.227.657-.499.838-.815s.292-.638.333-.962c.041-.325.062-.585.062-.779v-1.291c-.147.13-.332.232-.555.305zm15.986-1.961c-.115-.487-.296-.917-.542-1.291-.247-.373-.556-.67-.925-.889-.37-.22-.818-.329-1.345-.329-.51 0-.953.109-1.331.329-.379.219-.69.516-.938.889-.247.374-.428.804-.543 1.291-.114.487-.172.998-.172 1.534 0 .52.058 1.023.172 1.51.115.487.296.918.543 1.291.247.374.559.67.938.89.378.219.821.328 1.331.328.526 0 .975-.109 1.345-.328.369-.22.678-.516.925-.89.246-.373.427-.804.542-1.291.115-.486.173-.99.173-1.51 0-.536-.058-1.047-.173-1.534zm-5.672-9.572v6.333h.049c.428-.649 1.007-1.125 1.739-1.425.731-.301 1.492-.451 2.281-.451.641 0 1.273.13 1.898.39s1.188.658 1.689 1.193c.502.536.908 1.223 1.221 2.059s.469 1.831.469 2.983c0 1.153-.156 2.147-.469 2.983-.312.837-.719 1.522-1.221 2.059s-1.064.934-1.689 1.193-1.258.39-1.898.39c-.938 0-1.775-.146-2.516-.438s-1.299-.787-1.677-1.485h-.05v1.607h-3.329v-17.391h3.503zm17.539 7.063c-.56 0-1.027.126-1.405.377-.379.252-.688.577-.926.975-.238.398-.406.837-.505 1.315s-.148.954-.148 1.425c0 .455.05.917.148 1.388.099.472.259.897.48 1.279.223.382.522.694.9.938s.839.365 1.381.365c.839 0 1.483-.231 1.937-.693.451-.463.735-1.084.851-1.863h3.379c-.23 1.672-.888 2.946-1.974 3.823-1.085.877-2.475 1.315-4.168 1.315-.953 0-1.829-.158-2.626-.475-.798-.317-1.476-.759-2.034-1.328-.56-.568-.995-1.246-1.308-2.033s-.469-1.652-.469-2.594c0-.975.144-1.88.432-2.716s.711-1.56 1.271-2.168c.559-.608 1.241-1.084 2.047-1.425.805-.341 1.727-.512 2.762-.512.756 0 1.483.098 2.183.292.698.195 1.323.491 1.874.89.551.397.999.893 1.345 1.485.345.593.542 1.295.592 2.107h-3.428c-.232-1.444-1.095-2.167-2.591-2.167zm11.938 10.327v-11.058h-4.341v-2.606c.608.017 1.196-.028 1.764-.134s1.076-.293 1.529-.561c.452-.268.834-.621 1.146-1.06.312-.438.518-.982.616-1.632h2.787v17.05h-3.501zm7.624-13.213c.263-.836.657-1.566 1.184-2.191s1.188-1.112 1.985-1.462c.797-.349 1.714-.523 2.75-.523.789 0 1.541.122 2.256.365.716.244 1.345.593 1.887 1.048.543.454.975 1.015 1.295 1.681s.481 1.412.481 2.24c0 .861-.141 1.6-.42 2.217s-.649 1.165-1.109 1.644c-.461.479-.982.913-1.566 1.304-.584.39-1.172.775-1.764 1.156-.592.382-1.167.792-1.726 1.23-.56.438-1.053.949-1.479 1.534h8.162v2.972h-12.676c0-.99.144-1.852.432-2.582.287-.73.679-1.384 1.172-1.961.493-.576 1.072-1.107 1.738-1.595s1.369-.982 2.108-1.486c.378-.259.781-.523 1.209-.791.427-.269.817-.564 1.171-.89.354-.324.649-.689.888-1.096.238-.405.357-.868.357-1.389 0-.828-.242-1.473-.728-1.936-.484-.463-1.105-.694-1.861-.694-.51 0-.941.118-1.295.353-.354.236-.638.545-.851.926-.214.382-.366.804-.456 1.267-.091.463-.136.922-.136 1.376h-3.354c-.033-.975.082-1.881.346-2.717zm19.474 3.056c.428-.032.826-.125 1.196-.279s.674-.378.913-.67c.238-.293.357-.683.357-1.169 0-.731-.247-1.291-.74-1.681s-1.061-.585-1.701-.585c-.889 0-1.559.288-2.01.865-.453.576-.671 1.303-.654 2.18h-3.329c.033-.877.193-1.677.481-2.399.287-.723.69-1.344 1.208-1.863s1.139-.921 1.862-1.206c.723-.283 1.528-.426 2.416-.426.691 0 1.382.102 2.072.305s1.311.508 1.861.913c.551.406.999.901 1.345 1.485.345.585.518 1.259.518 2.022 0 .827-.201 1.559-.604 2.191-.402.634-1.007 1.063-1.812 1.291v.049c.953.211 1.702.666 2.244 1.364.543.698.814 1.534.814 2.509 0 .893-.178 1.688-.53 2.387-.354.698-.826 1.282-1.418 1.753-.593.472-1.274.828-2.048 1.072-.772.243-1.578.365-2.416.365-.971 0-1.854-.139-2.651-.414-.798-.276-1.476-.678-2.034-1.206-.56-.527-.991-1.173-1.295-1.936-.305-.764-.448-1.641-.432-2.631h3.329c.017.455.09.889.222 1.303s.321.771.567 1.072c.247.301.555.54.925.718.37.18.81.269 1.319.269.789 0 1.455-.239 1.998-.719.542-.479.813-1.133.813-1.961 0-.649-.127-1.145-.382-1.485-.256-.341-.58-.588-.975-.743-.395-.154-.826-.243-1.295-.268-.468-.024-.916-.036-1.344-.036v-2.437c.38.034.782.034 1.21.001zm-70.441 56.55v-11.058h-4.34v-2.606c.607.017 1.196-.028 1.763-.134.567-.105 1.077-.292 1.529-.561.452-.268.834-.621 1.146-1.059.312-.438.519-.982.617-1.632h2.786v17.049h-3.501zm11.503 0v-11.058h-4.341v-2.606c.608.017 1.196-.028 1.764-.134.566-.105 1.076-.292 1.528-.561.452-.268.835-.621 1.147-1.059.312-.438.518-.982.616-1.632h2.787v17.049h-3.501zm11.502 0v-11.058h-4.341v-2.606c.608.017 1.196-.028 1.764-.134s1.076-.292 1.529-.561c.451-.268.834-.621 1.146-1.059.312-.438.518-.982.616-1.632h2.787v17.049h-3.501zm11.502 0v-11.058h-4.341v-2.606c.608.017 1.196-.028 1.764-.134s1.076-.292 1.529-.561c.452-.268.834-.621 1.146-1.059.312-.438.518-.982.616-1.632h2.787v17.049h-3.501zm11.502 0v-11.058h-4.34v-2.606c.607.017 1.195-.028 1.763-.134s1.077-.292 1.529-.561c.452-.268.834-.621 1.146-1.059.312-.438.518-.982.617-1.632h2.786v17.049h-3.501zm11.502 0v-11.058h-4.341v-2.606c.608.017 1.196-.028 1.763-.134.567-.105 1.077-.292 1.529-.561.452-.268.834-.621 1.146-1.059.312-.438.519-.982.617-1.632h2.787v17.049h-3.501zm-56.084 30.379l4.078 11.959h.049l3.859-11.959h5.397v17.389h-3.59v-12.324h-.049l-4.274 12.324h-2.955l-4.274-12.201h-.049v12.201h-3.591v-17.389h5.399zm19.568 12.58c.098.479.265.908.501 1.289.235.383.549.688.94.914.391.229.879.342 1.465.342.587 0 1.079-.113 1.478-.342.399-.227.717-.531.953-.914.235-.381.403-.811.501-1.289.098-.48.146-.971.146-1.475s-.049-.998-.146-1.486c-.098-.486-.266-.916-.501-1.291-.236-.373-.554-.678-.953-.912-.398-.236-.891-.354-1.478-.354-.586 0-1.074.117-1.465.354-.392.234-.705.539-.94.912-.236.375-.403.805-.501 1.291-.098.488-.146.982-.146 1.486s.048.995.146 1.475zm-3.151-4.214c.309-.82.748-1.518 1.318-2.094s1.254-1.023 2.052-1.34 1.693-.475 2.687-.475 1.894.158 2.699.475 1.493.764 2.063 1.34 1.01 1.273 1.319 2.094.464 1.734.464 2.74c0 1.008-.154 1.916-.464 2.729s-.749 1.506-1.319 2.082-1.258 1.02-2.063 1.328c-.806.307-1.706.463-2.699.463s-1.889-.156-2.687-.463c-.798-.309-1.481-.752-2.052-1.328s-1.01-1.27-1.318-2.082c-.31-.812-.464-1.721-.464-2.729.001-1.006.155-1.92.464-2.74zm18.157-3.569v1.754h.073c.44-.73 1.01-1.262 1.71-1.596.7-.332 1.417-.498 2.149-.498.928 0 1.689.125 2.283.377.595.252 1.062.602 1.405 1.047.342.447.582.99.72 1.633.139.641.208 1.352.208 2.131v7.744h-3.468v-7.111c0-1.039-.163-1.814-.489-2.326-.325-.512-.903-.768-1.733-.768-.945 0-1.629.281-2.052.842-.424.559-.636 1.48-.636 2.764v6.6h-3.468v-12.592h3.298zm14.933-4.797v9.328l4.372-4.531h4.103l-4.763 4.629 5.301 7.963h-4.201l-3.469-5.625-1.343 1.291v4.334h-3.469v-17.389h3.469zm17.326 7.744c-.415-.453-1.047-.682-1.893-.682-.554 0-1.014.094-1.38.279-.367.188-.66.42-.88.695s-.375.568-.464.877c-.09.309-.143.584-.159.828h5.643c-.162-.875-.451-1.541-.867-1.997zm-3.919 6.625c.521.504 1.27.756 2.247.756.699 0 1.302-.176 1.807-.523.505-.35.814-.719.929-1.109h3.053c-.488 1.51-1.237 2.59-2.247 3.24-1.01.648-2.23.975-3.663.975-.994 0-1.89-.158-2.688-.477-.798-.316-1.474-.766-2.026-1.352-.555-.584-.981-1.281-1.283-2.094-.301-.812-.451-1.705-.451-2.68 0-.941.154-1.818.464-2.631.31-.811.749-1.514 1.319-2.105.569-.594 1.249-1.061 2.039-1.402.789-.34 1.664-.51 2.626-.51 1.074 0 2.011.207 2.809.621s1.453.971 1.966 1.668.883 1.494 1.111 2.387.31 1.826.244 2.801h-9.11c.047 1.121.332 1.932.854 2.435zm14.71 6.772c-.668.438-1.596.658-2.784.658-.358 0-.712-.014-1.062-.037-.351-.025-.704-.053-1.062-.086v-2.85l1.002.098c.342.033.684.041 1.025.025.456-.049.794-.229 1.014-.537s.33-.648.33-1.023c0-.275-.049-.535-.146-.779l-4.421-11.812h3.688l2.857 8.623h.049l2.761-8.623h3.59l-5.275 14.152c-.378 1.021-.899 1.752-1.566 2.191zm-77.624-21.141l4.078 11.959h.049l3.859-11.959h5.397v17.389h-3.59v-12.324h-.049l-4.274 12.324h-2.955l-4.274-12.201h-.049v12.201h-3.591v-17.389h5.399zm19.568 12.58c.098.479.265.908.501 1.289.235.383.549.688.94.914.391.229.879.342 1.465.342.587 0 1.079-.113 1.478-.342.399-.227.717-.531.953-.914.235-.381.403-.811.501-1.289.098-.48.146-.971.146-1.475s-.049-.998-.146-1.486c-.098-.486-.266-.916-.501-1.291-.236-.373-.554-.678-.953-.912-.398-.236-.891-.354-1.478-.354-.586 0-1.074.117-1.465.354-.392.234-.705.539-.94.912-.236.375-.403.805-.501 1.291-.098.488-.146.982-.146 1.486s.048.995.146 1.475zm-3.151-4.214c.309-.82.748-1.518 1.318-2.094s1.254-1.023 2.052-1.34 1.693-.475 2.687-.475 1.894.158 2.699.475 1.493.764 2.063 1.34 1.01 1.273 1.319 2.094.464 1.734.464 2.74c0 1.008-.154 1.916-.464 2.729s-.749 1.506-1.319 2.082-1.258 1.02-2.063 1.328c-.806.307-1.706.463-2.699.463s-1.889-.156-2.687-.463c-.798-.309-1.481-.752-2.052-1.328s-1.01-1.27-1.318-2.082c-.31-.812-.464-1.721-.464-2.729.001-1.006.155-1.92.464-2.74zm18.157-3.569v1.754h.073c.44-.73 1.01-1.262 1.71-1.596.7-.332 1.417-.498 2.149-.498.928 0 1.689.125 2.283.377.595.252 1.062.602 1.405 1.047.342.447.582.99.72 1.633.139.641.208 1.352.208 2.131v7.744h-3.468v-7.111c0-1.039-.163-1.814-.489-2.326-.325-.512-.903-.768-1.733-.768-.945 0-1.629.281-2.052.842-.424.559-.636 1.48-.636 2.764v6.6h-3.468v-12.592h3.298zm14.933-4.797v9.328l4.372-4.531h4.103l-4.763 4.629 5.301 7.963h-4.201l-3.469-5.625-1.343 1.291v4.334h-3.469v-17.389h3.469zm17.326 7.744c-.415-.453-1.047-.682-1.893-.682-.554 0-1.014.094-1.38.279-.367.188-.66.42-.88.695s-.375.568-.464.877c-.09.309-.143.584-.159.828h5.643c-.162-.875-.451-1.541-.867-1.997zm-3.919 6.625c.521.504 1.27.756 2.247.756.699 0 1.302-.176 1.807-.523.505-.35.814-.719.929-1.109h3.053c-.488 1.51-1.237 2.59-2.247 3.24-1.01.648-2.23.975-3.663.975-.994 0-1.89-.158-2.688-.477-.798-.316-1.474-.766-2.026-1.352-.555-.584-.981-1.281-1.283-2.094-.301-.812-.451-1.705-.451-2.68 0-.941.154-1.818.464-2.631.31-.811.749-1.514 1.319-2.105.569-.594 1.249-1.061 2.039-1.402.789-.34 1.664-.51 2.626-.51 1.074 0 2.011.207 2.809.621s1.453.971 1.966 1.668.883 1.494 1.111 2.387.31 1.826.244 2.801h-9.11c.047 1.121.332 1.932.854 2.435zm14.71 6.772c-.668.438-1.596.658-2.784.658-.358 0-.712-.014-1.062-.037-.351-.025-.704-.053-1.062-.086v-2.85l1.002.098c.342.033.684.041 1.025.025.456-.049.794-.229 1.014-.537s.33-.648.33-1.023c0-.275-.049-.535-.146-.779l-4.421-11.812h3.688l2.857 8.623h.049l2.761-8.623h3.59l-5.275 14.152c-.378 1.021-.899 1.752-1.566 2.191zm-83.223 28.467v-3.215h14.288v3.215h-5.228v14.176h-3.834v-14.176h-5.226zm24.768 14.176l-2.247-8.453h-.049l-2.149 8.453h-3.591l-4.006-12.594h3.664l2.32 8.551h.049l2.101-8.551h3.37l2.149 8.525h.049l2.32-8.525h3.566l-3.981 12.594h-3.565zm9.183-14.541v-2.85h3.469v2.85h-3.469zm3.469 1.947v12.594h-3.469v-12.594h3.469zm6.326-4.797v17.391h-3.469v-17.391h3.469zm2.857 2.85v-2.85h3.468v2.85h-3.468zm3.468 1.947v12.594h-3.468v-12.594h3.468zm9.941 9.33c.375-.195.685-.455.929-.779.244-.326.428-.695.55-1.109s.183-.848.183-1.303c0-.52-.049-1.012-.146-1.475-.098-.461-.261-.871-.488-1.229-.229-.357-.529-.643-.903-.854-.375-.211-.848-.316-1.417-.316-.488 0-.908.098-1.258.293-.351.195-.644.459-.88.791-.235.334-.406.715-.513 1.145-.105.432-.158.881-.158 1.352 0 .455.044.906.134 1.352.09.447.244.85.465 1.207.22.357.508.648.866.877.358.227.807.34 1.344.34.486-.001.918-.099 1.292-.292zm4.751 4.187c-.139.65-.436 1.256-.892 1.816-.456.559-1.115 1.035-1.979 1.424-.863.391-2.019.584-3.468.584-.619 0-1.25-.076-1.894-.23-.643-.154-1.229-.395-1.758-.719-.529-.324-.969-.742-1.319-1.254s-.55-1.125-.599-1.84h3.444c.162.65.479 1.1.952 1.352s1.018.379 1.637.379c.977 0 1.689-.293 2.137-.877.448-.586.664-1.324.647-2.217v-1.656h-.049c-.374.666-.907 1.156-1.6 1.473s-1.421.477-2.187.477c-.944 0-1.758-.168-2.441-.5-.685-.332-1.246-.787-1.686-1.363s-.762-1.252-.965-2.021c-.204-.771-.306-1.588-.306-2.449 0-.811.118-1.596.354-2.35.235-.756.582-1.422 1.038-1.998s1.021-1.035 1.697-1.375c.676-.342 1.453-.512 2.333-.512.83 0 1.559.154 2.186.463s1.151.828 1.575 1.559h.049v-1.682h3.298v11.789c.004.503-.067 1.079-.204 1.727zm6.513-18.314v6.551h.073c.439-.73 1.002-1.262 1.686-1.596.684-.332 1.352-.498 2.003-.498.928 0 1.689.125 2.284.377.594.252 1.062.602 1.404 1.047.342.447.582.992.72 1.633.139.641.208 1.352.208 2.131v7.746h-3.469v-7.113c0-1.039-.162-1.814-.488-2.326s-.903-.766-1.734-.766c-.944 0-1.628.279-2.051.84-.424.561-.636 1.48-.636 2.764v6.602h-3.468v-17.392h3.468zm17.964 4.797v2.314h-2.54v6.236c0 .584.098.973.293 1.168s.587.293 1.173.293c.195 0 .382-.008.562-.025.179-.016.35-.039.513-.072v2.68c-.293.049-.619.08-.977.096-.358.018-.709.025-1.051.025-.537 0-1.046-.037-1.526-.109-.48-.074-.903-.215-1.27-.426s-.656-.512-.867-.902c-.212-.389-.317-.9-.317-1.533v-7.43h-2.101v-2.314h2.101v-3.775h3.468v3.775h2.539z"/><path opacity=".6" fill-rule="evenodd" clip-rule="evenodd" fill="#fff" d="M268.985 195.542v-1h177v1h-177zm0 47v-1h177v1h-177zm0 47.001v-1h177v1h-177zm0 47v-1h177v1h-177zm203-141.001v-1h209v1h-209zm0 47v-1h209v1h-209zm0 47.001v-1h209v1h-209zm0 47v-1h209v1h-209z"/><path fill-rule="evenodd" clip-rule="evenodd" fill="#C62239" d="M63.985 439.543h587v-3h-587v3z"/><path fill="#fff" d="M475.564 363.326c.212.406.493.734.843.986.351.252.762.438 1.233.561.473.121.961.182 1.466.182.342 0 .708-.027 1.1-.084.391-.057.757-.168 1.099-.33s.627-.385.854-.67c.229-.283.342-.645.342-1.084 0-.471-.15-.852-.451-1.145-.302-.291-.696-.535-1.185-.73-.489-.195-1.042-.365-1.661-.512s-1.246-.309-1.881-.486c-.651-.162-1.286-.361-1.905-.598-.618-.234-1.172-.539-1.66-.912-.489-.373-.884-.842-1.185-1.4-.302-.561-.452-1.238-.452-2.035 0-.893.191-1.668.574-2.326.382-.656.883-1.205 1.502-1.643.618-.439 1.318-.764 2.101-.975.781-.211 1.562-.316 2.345-.316.911 0 1.786.102 2.625.305s1.584.531 2.235.986c.651.453 1.168 1.035 1.551 1.74.383.707.574 1.564.574 2.57h-3.713c-.032-.52-.143-.949-.329-1.291-.188-.342-.437-.609-.745-.805-.31-.193-.664-.332-1.062-.414-.399-.08-.835-.121-1.307-.121-.31 0-.619.033-.929.098s-.59.18-.843.342c-.252.162-.46.365-.622.607-.163.244-.245.553-.245.926 0 .342.065.617.196.828.13.211.386.406.769.584.383.18.912.357 1.588.537.676.178 1.559.406 2.65.682.325.064.777.184 1.355.354s1.151.441 1.722.816c.57.373 1.062.873 1.478 1.498.416.625.623 1.424.623 2.398 0 .795-.154 1.535-.464 2.217s-.77 1.27-1.38 1.766c-.611.494-1.368.881-2.271 1.156-.904.275-1.95.414-3.139.414-.961 0-1.893-.117-2.797-.354-.903-.234-1.701-.604-2.394-1.107s-1.241-1.145-1.648-1.924-.603-1.705-.586-2.777h3.712c-.001.584.105 1.08.317 1.486zm16.284-13.103v6.551h.073c.439-.73 1.001-1.262 1.685-1.596.685-.332 1.352-.498 2.003-.498.929 0 1.689.125 2.284.377.594.252 1.062.602 1.404 1.047.342.447.582.992.721 1.633.138.641.207 1.352.207 2.131v7.746h-3.468v-7.114c0-1.039-.163-1.814-.488-2.326-.326-.512-.904-.768-1.734-.768-.944 0-1.629.281-2.052.842-.424.561-.635 1.48-.635 2.764v6.602h-3.469v-17.391h3.469zm11.576 6.648c.358-.535.814-.965 1.368-1.291.554-.324 1.176-.555 1.868-.693s1.389-.207 2.089-.207c.635 0 1.278.045 1.93.133.65.09 1.245.266 1.782.523.538.262.978.621 1.319 1.084s.513 1.076.513 1.84v6.551c0 .57.032 1.113.098 1.633s.18.91.342 1.17h-3.517c-.065-.195-.118-.395-.159-.598s-.069-.41-.085-.621c-.554.568-1.205.967-1.954 1.193s-1.515.342-2.296.342c-.603 0-1.165-.074-1.686-.221-.521-.145-.977-.373-1.368-.682-.391-.309-.695-.697-.915-1.168s-.33-1.031-.33-1.682c0-.713.126-1.303.379-1.766.252-.463.577-.832.977-1.107.398-.277.854-.482 1.368-.621.513-.139 1.029-.248 1.551-.33.521-.08 1.033-.145 1.539-.193.504-.049.952-.123 1.343-.221.391-.096.7-.238.929-.426.228-.186.333-.459.317-.816 0-.373-.062-.67-.184-.889s-.285-.389-.488-.512c-.204-.121-.439-.201-.708-.242-.27-.041-.559-.062-.867-.062-.685 0-1.222.146-1.612.439s-.619.779-.684 1.461h-3.469c.049-.81.252-1.486.61-2.021zm6.852 4.883c-.22.074-.456.135-.709.184-.252.049-.517.09-.793.121-.277.033-.554.074-.831.123-.261.049-.517.113-.769.193-.253.082-.473.191-.66.33s-.338.312-.451.523c-.114.211-.172.479-.172.803 0 .309.058.57.172.779.113.213.269.379.464.5s.423.207.684.256.529.072.806.072c.685 0 1.213-.113 1.588-.34s.651-.5.83-.816c.18-.316.289-.637.33-.961.041-.326.062-.586.062-.781v-1.289c-.148.129-.332.231-.551.303zm15.521-1.973c-.098-.479-.265-.9-.501-1.266s-.541-.662-.916-.889c-.374-.229-.847-.342-1.416-.342-.57 0-1.051.113-1.441.342-.391.227-.704.527-.94.9s-.407.801-.513 1.279c-.106.479-.159.979-.159 1.498 0 .486.057.975.171 1.461s.297.922.55 1.303c.252.383.57.691.953.926.382.236.842.354 1.38.354.569 0 1.046-.113 1.429-.342.382-.227.688-.531.916-.912.228-.383.391-.816.488-1.305.098-.486.146-.99.146-1.51s-.049-1.016-.147-1.497zm.147 6.225c-.407.682-.94 1.172-1.6 1.473-.66.301-1.404.451-2.235.451-.944 0-1.774-.184-2.491-.549s-1.307-.859-1.771-1.486c-.464-.625-.814-1.342-1.05-2.154-.236-.812-.354-1.656-.354-2.533 0-.844.118-1.66.354-2.447.235-.789.586-1.482 1.05-2.084.464-.6 1.046-1.084 1.746-1.449s1.515-.547 2.442-.547c.749 0 1.462.158 2.138.475.675.316 1.209.783 1.6 1.4h.049v-6.332h3.468v17.391h-3.297v-1.607h-.049zm9.205-3.203c.098.479.265.908.501 1.291.235.381.55.686.94.912.391.229.879.342 1.466.342.586 0 1.078-.113 1.478-.342.398-.227.716-.531.952-.912.236-.383.403-.812.501-1.291s.146-.971.146-1.475c0-.502-.049-.998-.146-1.484-.098-.488-.265-.918-.501-1.291-.236-.375-.554-.678-.952-.914-.399-.234-.892-.354-1.478-.354-.587 0-1.075.119-1.466.354-.391.236-.705.539-.94.914-.236.373-.403.803-.501 1.291-.098.486-.146.982-.146 1.484-.001.504.048.996.146 1.475zm-3.151-4.215c.309-.818.749-1.518 1.318-2.094.57-.576 1.254-1.023 2.052-1.34s1.693-.475 2.688-.475c.992 0 1.893.158 2.698.475.807.316 1.494.764 2.064 1.34.569.576 1.009 1.275 1.318 2.094.31.82.464 1.734.464 2.74 0 1.008-.154 1.916-.464 2.729s-.749 1.506-1.318 2.082c-.57.576-1.258 1.02-2.064 1.328-.806.309-1.706.463-2.698.463-.994 0-1.89-.154-2.688-.463s-1.481-.752-2.052-1.328c-.569-.576-1.01-1.27-1.318-2.082-.31-.812-.464-1.721-.464-2.729 0-1.006.155-1.92.464-2.74zm25.321 9.025l-2.247-8.453h-.049l-2.149 8.453h-3.59l-4.006-12.594h3.664l2.32 8.549h.049l2.101-8.549h3.37l2.149 8.525h.049l2.32-8.525h3.565l-3.98 12.594h-3.566z"/><path fill-rule="evenodd" clip-rule="evenodd" fill="#fff" d="M218.534 219.56h-143.102c-6.296 0-11.448 5.16-11.448 11.471v123.288c0 6.309 5.152 11.471 11.448 11.471h7.63c1.965 3.312 5.758 5.736 9.542 5.736h8.586c3.781 0 7.83-2.67 9.794-5.982h75c1.966 3.312 5.874 5.982 9.656 5.982h8.587c3.778 0 7.575-2.424 9.54-5.736h4.767c6.299 0 11.451-5.162 11.451-11.471v-123.288c-.001-6.311-5.152-11.471-11.451-11.471zm-137.549 68.628v-10.772c.319.083.654.127 1 .127h7c.351 0 .691-.047 1.016-.132v.13l-.016.002v32.142c-.321-.083-.652-.142-1-.142h-7c-.324 0-.661.043-1 .115v-21.47zm132 48.355c0 6.307-5.322 12.043-11.621 12.043h-108.76c-6.299 0-11.62-6.736-11.62-13.043v-7h9v7c0 1.555.448 5 2 5h109c1.552 0 3-2.445 3-4v-86c0-1.555-.448-5-2-5h-109c-1.552 0-3 2.447-3 4v9.142c-.321-.083-.652-.142-1-.142h-7c-.348 0-.679.059-1 .142v-9.142c0-6.309 5.701-13 12-13h109c6.297 0 11 7.691 11 14v86zm-90.015-43.996c0-14.334 11.441-25.992 25.507-25.992 14.067 0 25.511 11.658 25.511 25.992-.002 14.334-11.443 25.994-25.511 25.994-14.066 0-25.507-11.66-25.507-25.994zm62.015 27.416c0-2.441 2.015-4.42 4.5-4.42s4.5 1.979 4.5 4.42c0 1.634-.911 3.043-2.25 3.809v3.561c0 1.221-1.008 2.211-2.25 2.211s-2.25-.99-2.25-2.211v-3.561c-1.34-.766-2.25-2.175-2.25-3.809z"/></svg>