<svg xmlns="http://www.w3.org/2000/svg" width="750" height="510" viewBox="0 0 750 510"><path fill="#C62139" d="M62.006 384.418h586.667v3.666h-586.667v-3.666z"/><path fill="#fff" d="M229.646 81.235h-161c-4.397 0-8.01 3.833-8.01 8.229v170.013c0 4.397 3.612 7.76 8.01 7.76h161.001c4.398 0 8-3.604 8-8v-170c-.001-4.398-3.602-8.002-8.001-8.002zm-44.988 15.38c0-2.96 2.111-5.379 4.988-5.379h32c2.875 0 4.992 2.419 4.992 5.379v3.229c0 2.961-2.354 5.382-5.229 5.382h-31.523c-2.875 0-5.229-2.421-5.229-5.382l.001-3.229zm-113.027-.385c0-2.748 2.25-4.998 5.001-4.998h99.017c2.752 0 5.002 2.25 5.002 4.998v3c0 2.75-2.25 4.999-5.002 4.999h-99.017c-2.75 0-5.001-2.249-5.001-4.999v-3zm49.015 161.006h-49v-29h38.51c2.911 3.873 6.43 7.186 10.49 9.842v19.158zm-13.746-34h-35.254v-31h29v5c0 9.911 2.209 18.712 6.254 26zm1.746-25v-58c0-3.99 3.073-7.097 7.061-7.097 1.835 0 5.373 1.87 8.793 3.68 6.335 3.349 14.215 7.515 23.391 7.537l.414.022.408-.022c9.499-.021 18.241-4.578 24.632-7.907 2.828-1.475 6.348-3.31 7.559-3.31 3.986 0 6.744 3.105 6.744 7.097v58c0 24.638-15.016 40.442-39.005 40.442l-.373-.005-.303.005c-23.991.001-39.321-15.804-39.321-40.442zm118 59h-101v-16.356c6.411 3.064 13.855 4.731 22.119 4.731l.272-.003.4.003c16.271 0 29.414-6.433 37.664-17.376h40.543v29h.002v.001zm0-34h-37.279c4.059-7.288 6.279-16.09 6.279-26v-5h31v31zm-31-36v-47c0-8.348-6.643-14.992-14.998-14.992-3.15 0-6.709 1.85-11.213 4.19-5.982 3.11-13.428 6.981-20.997 6.981l-.335.011-.339-.011c-7.227 0-13.865-3.501-19.722-6.592-4.661-2.458-8.688-4.581-12.486-4.581-8.356 0-14.911 6.646-14.911 14.992v47h-29l-.077-71.957 155.029.004.049 71.953-31 .002zm-29.498-1.014c7.441 0 13.494-6.055 13.494-13.495s-6.053-13.496-13.494-13.496-13.496 6.056-13.496 13.496 6.055 13.495 13.496 13.495zm0-21.985c4.684 0 8.494 3.814 8.494 8.506 0 4.688-3.811 8.505-8.494 8.505-4.686 0-8.496-3.815-8.496-8.505 0-4.691 3.811-8.506 8.496-8.506zm-35.001 21.985c7.451 0 13.514-6.053 13.514-13.494 0-7.44-6.062-13.496-13.514-13.496-7.45 0-13.511 6.056-13.511 13.496.001 7.441 6.061 13.494 13.511 13.494zm0-21.984c4.693 0 8.513 3.814 8.513 8.506 0 4.688-3.819 8.504-8.513 8.504-4.691 0-8.511-3.814-8.511-8.504.001-4.691 3.819-8.506 8.511-8.506zm17.157 60.487c10.452 0 18.376-2.415 23.556-7.925 6.574-6.994 5.811-15.196 5.787-15.563v-5l-3.863 2.801c-.105.099-10.721 9.882-25.479 9.882-14.86 0-26.976-9.884-27.094-9.982l-3.564-2.699v5c0 .239.048 23.486 30.657 23.486zm0-10.832c10.437 0 18.876-4.168 23.882-7.429-.664 2.19-1.854 4.724-3.994 6.979-4.205 4.436-10.896 6.307-19.888 6.307-16.835 0-22.852-7.648-25.002-13.355 5.399 3.25 14.471 7.498 25.002 7.498zM65 321v-8.172h-3.168v-1.926c.443.012.873-.021 1.287-.1s.786-.216 1.116-.414c.329-.197.608-.459.837-.783.228-.323.378-.726.45-1.205h2.033v12.6h-2.555zm9.612 0v-8.172h-3.168v-1.926c.443.012.873-.021 1.287-.1s.786-.216 1.116-.414c.329-.197.608-.459.837-.783.228-.323.378-.726.45-1.205h2.033v12.6h-2.555zm10.098-7.506c.312-.023.603-.093.873-.207.27-.114.491-.279.666-.495.174-.216.261-.504.261-.864 0-.539-.18-.953-.54-1.242-.36-.287-.774-.432-1.242-.432-.647 0-1.137.213-1.467.639-.33.427-.489.963-.478 1.611h-2.43c.024-.648.141-1.238.352-1.773.209-.533.504-.992.882-1.377.378-.383.83-.681 1.358-.891.528-.209 1.116-.314 1.765-.314.504 0 1.008.074 1.512.225s.957.375 1.359.675c.401.3.729.666.98 1.099.252.432.378.93.378 1.494 0 .611-.146 1.151-.44 1.619-.295.469-.735.786-1.323.954v.036c.695.156 1.242.492 1.638 1.008.396.516.594 1.135.594 1.854 0 .66-.129 1.249-.387 1.765-.258.517-.603.948-1.035 1.296-.432.348-.93.612-1.494.792-.563.18-1.151.271-1.764.271-.708 0-1.353-.103-1.935-.307-.583-.203-1.077-.5-1.485-.891s-.723-.867-.945-1.432c-.222-.563-.327-1.211-.314-1.943h2.43c.012.336.065.656.162.963.096.307.234.57.414.792s.405.399.675.531c.271.132.591.198.963.198.576 0 1.062-.178 1.458-.531.396-.354.594-.838.594-1.449 0-.48-.093-.846-.278-1.098-.187-.252-.423-.436-.711-.549-.288-.114-.604-.181-.945-.199-.342-.018-.669-.026-.981-.026v-1.8c.274.022.567.022.88-.002zm8.55 4.735v2.771c0 .408-.075.783-.225 1.125-.15.342-.352.639-.604.891s-.549.459-.891.621-.705.273-1.089.333v-1.296c.18-.036.351-.107.513-.216s.303-.237.423-.387c.12-.15.21-.318.271-.504.06-.187.084-.376.071-.567h-1.296v-2.771h2.827zm4.482-7.723l-.504 2.862.036.036c.348-.348.72-.598 1.116-.747.396-.149.846-.226 1.35-.226.624 0 1.176.115 1.656.342.479.229.885.535 1.215.918.33.385.582.838.756 1.359.174.522.261 1.078.261 1.665 0 .647-.126 1.251-.378 1.81-.252.558-.591 1.041-1.017 1.449s-.921.723-1.485.944c-.563.222-1.164.327-1.8.315-.612 0-1.197-.081-1.755-.243s-1.053-.411-1.485-.747c-.432-.336-.776-.753-1.035-1.251-.258-.498-.393-1.077-.404-1.737h2.556c.06.576.276 1.035.648 1.377.371.342.846.514 1.422.514.336 0 .639-.069.909-.207.27-.139.497-.318.684-.541.186-.221.33-.479.432-.773.103-.294.153-.597.153-.909 0-.323-.048-.63-.144-.918-.097-.288-.24-.54-.433-.756-.191-.216-.42-.384-.684-.504-.265-.12-.57-.181-.918-.181-.456 0-.828.082-1.116.244s-.558.416-.81.765h-2.305l1.242-6.966h7.038v2.105h-5.201zm6.561 1.053c.246-.834.579-1.502.999-2.007.42-.504.909-.864 1.467-1.079.559-.217 1.149-.324 1.773-.324.636 0 1.232.107 1.791.324.558.215 1.05.575 1.476 1.079.426.505.762 1.173 1.008 2.007s.369 1.863.369 3.088c0 1.26-.123 2.312-.369 3.158s-.582 1.521-1.008 2.025-.918.863-1.476 1.08c-.559.216-1.155.324-1.791.324-.624 0-1.215-.108-1.773-.324-.558-.217-1.047-.576-1.467-1.08s-.753-1.18-.999-2.025-.369-1.898-.369-3.158c0-1.225.123-2.254.369-3.088zm2.222 4.392c.024.51.1 1.002.226 1.476.126.475.326.88.603 1.216s.672.504 1.188.504c.527 0 .933-.168 1.215-.504.281-.336.485-.741.612-1.216.126-.474.2-.966.225-1.476.023-.51.036-.945.036-1.305l-.009-.783c-.007-.307-.03-.621-.072-.945s-.103-.645-.18-.963c-.079-.318-.195-.604-.352-.855s-.354-.455-.594-.611c-.24-.156-.534-.234-.882-.234-.349 0-.64.078-.873.234-.234.156-.427.359-.576.611-.15.252-.268.537-.352.855s-.144.639-.18.963-.057.639-.062.945l-.01.783c.001.36.014.795.037 1.305zm7.39-4.392c.246-.834.579-1.502.999-2.007.42-.504.909-.864 1.467-1.079.559-.217 1.149-.324 1.773-.324.636 0 1.232.107 1.791.324.558.215 1.05.575 1.476 1.079.426.505.762 1.173 1.008 2.007s.369 1.863.369 3.088c0 1.26-.123 2.312-.369 3.158s-.582 1.521-1.008 2.025-.918.863-1.476 1.08c-.559.216-1.155.324-1.791.324-.624 0-1.215-.108-1.773-.324-.558-.217-1.047-.576-1.467-1.08s-.753-1.18-.999-2.025-.369-1.898-.369-3.158c0-1.225.123-2.254.369-3.088zm2.223 4.392c.024.51.1 1.002.226 1.476.126.475.326.88.603 1.216s.672.504 1.188.504c.527 0 .933-.168 1.215-.504.281-.336.485-.741.612-1.216.126-.474.2-.966.225-1.476.023-.51.036-.945.036-1.305l-.009-.783c-.007-.307-.03-.621-.072-.945s-.103-.645-.18-.963c-.079-.318-.195-.604-.352-.855s-.354-.455-.594-.611c-.24-.156-.534-.234-.882-.234-.349 0-.64.078-.873.234-.234.156-.427.359-.576.611-.15.252-.268.537-.352.855s-.144.639-.18.963-.057.639-.062.945l-.01.783c.001.36.013.795.037 1.305zm14.652-4.258v1.188h.036c.312-.504.707-.87 1.188-1.098.479-.228 1.008-.343 1.584-.343.731 0 1.362.139 1.89.414.528.277.966.643 1.314 1.099.348.456.605.987.774 1.593.167.606.252 1.239.252 1.898 0 .625-.085 1.225-.252 1.801-.169.576-.424 1.086-.766 1.529-.342.445-.768.799-1.278 1.062-.51.264-1.106.396-1.791.396-.575 0-1.106-.117-1.593-.352-.485-.234-.885-.578-1.196-1.035h-.036v4.41h-2.557v-12.564h2.431zm3.32 7.381c.282-.168.51-.387.685-.657.174-.271.297-.585.369-.944.071-.361.107-.727.107-1.099s-.039-.737-.117-1.099c-.078-.359-.207-.68-.387-.963-.18-.281-.411-.51-.693-.684-.281-.174-.627-.261-1.034-.261-.421 0-.771.087-1.054.261-.281.174-.51.399-.684.676-.174.275-.297.594-.369.953-.072.36-.107.732-.107 1.116 0 .372.038.737.116 1.099.078.359.204.674.378.944s.405.489.693.657.636.252 1.044.252c.421.001.771-.083 1.053-.251zm7.409-10.926v4.842h.054c.324-.54.738-.934 1.242-1.18.504-.245.996-.369 1.476-.369.685 0 1.245.094 1.684.279.438.187.782.444 1.034.774s.43.731.531 1.206.153.999.153 1.574v5.726h-2.556v-5.256c0-.768-.12-1.342-.36-1.719-.24-.379-.666-.567-1.278-.567-.696 0-1.2.207-1.512.621-.312.414-.468 1.095-.468 2.043v4.878h-2.557v-12.852h2.557zm7.793 2.106v-2.105h2.556v2.105h-2.556zm2.555 1.439v9.307h-2.556v-9.307h2.556zm3.772 6.995c.114.197.261.359.441.485s.387.22.62.279c.234.06.478.09.729.09.18 0 .369-.021.567-.063.197-.041.378-.107.54-.197.161-.09.297-.21.404-.36.108-.149.162-.339.162-.567 0-.383-.255-.672-.765-.863-.511-.191-1.222-.385-2.133-.576-.372-.084-.735-.184-1.09-.297-.354-.114-.669-.264-.944-.45-.276-.187-.498-.42-.666-.702-.168-.281-.252-.627-.252-1.035 0-.6.117-1.092.351-1.476.234-.384.543-.687.927-.909.385-.222.816-.378 1.296-.468.48-.091.973-.136 1.477-.136s.993.049 1.467.145.897.258 1.27.486c.371.229.681.531.927.908.246.379.393.855.44 1.432h-2.43c-.036-.492-.222-.825-.558-.999s-.732-.261-1.188-.261c-.144 0-.3.009-.468.027-.168.018-.321.057-.459.116s-.255.147-.351.261c-.097.115-.145.268-.145.459 0 .229.084.414.252.559.168.144.387.261.657.351.27.091.579.171.927.243l1.062.234c.371.084.734.186 1.089.306.354.12.669.278.944.478.276.197.498.443.666.737s.252.657.252 1.089c0 .612-.123 1.125-.368 1.539-.246.414-.567.747-.964.999-.396.252-.849.429-1.358.531-.511.102-1.029.153-1.557.153-.54 0-1.068-.055-1.585-.162-.516-.108-.975-.288-1.377-.54-.401-.253-.731-.585-.989-.999-.259-.414-.399-.934-.423-1.557h2.43c.002.274.058.51.173.71zm9.674-10.54v4.842h.054c.324-.54.738-.934 1.242-1.18.504-.245.996-.369 1.476-.369.685 0 1.245.094 1.684.279.438.187.782.444 1.034.774s.43.731.531 1.206.153.999.153 1.574v5.726h-2.556v-5.256c0-.768-.12-1.342-.36-1.719-.24-.379-.666-.567-1.278-.567-.696 0-1.2.207-1.512.621-.312.414-.468 1.095-.468 2.043v4.878h-2.557v-12.852h2.557zm7.794 2.106v-2.105h2.556v2.105h-2.556zm2.556 1.439v9.307h-2.556v-9.307h2.556zm4.05 0v1.297h.054c.324-.54.744-.934 1.26-1.18.516-.245 1.044-.369 1.584-.369.685 0 1.245.094 1.684.279.438.187.782.444 1.034.774s.43.731.531 1.206.153.999.153 1.574v5.726h-2.556v-5.256c0-.768-.12-1.342-.36-1.719-.24-.379-.666-.567-1.278-.567-.696 0-1.2.207-1.512.621-.312.414-.468 1.095-.468 2.043v4.878h-2.557v-9.307h2.431zm16.641 9.991c-.102.48-.321.928-.656 1.342-.337.414-.822.765-1.458 1.053-.637.288-1.488.432-2.557.432-.456 0-.921-.057-1.395-.171-.475-.114-.906-.291-1.296-.531-.391-.24-.715-.549-.973-.927s-.404-.831-.44-1.358h2.538c.119.479.354.812.702.999.348.186.749.278 1.205.278.721 0 1.245-.216 1.575-.647.33-.433.489-.979.478-1.639v-1.224h-.036c-.276.492-.669.854-1.179 1.089-.511.234-1.048.352-1.611.352-.696 0-1.296-.123-1.8-.369s-.918-.582-1.242-1.008-.562-.924-.711-1.494c-.15-.57-.226-1.174-.226-1.81 0-.6.087-1.179.262-1.737.174-.558.429-1.049.765-1.476.336-.426.753-.765 1.251-1.017s1.071-.379 1.719-.379c.612 0 1.149.115 1.611.343s.849.612 1.161 1.151h.036v-1.242h2.43v8.713c0 .371-.051.797-.153 1.277zm-3.501-3.096c.276-.145.504-.336.685-.576.18-.24.314-.513.404-.818.091-.307.136-.627.136-.963 0-.385-.036-.748-.108-1.09s-.192-.645-.36-.908-.39-.475-.666-.631c-.275-.155-.624-.233-1.044-.233-.359 0-.669.071-.927.216s-.474.34-.647.585c-.175.246-.301.528-.378.847-.078.317-.117.65-.117.998 0 .336.032.67.099 1s.18.627.342.891.375.48.64.647c.264.169.594.253.989.253.358-.001.676-.074.952-.218zm17.928 2.412l-1.656-6.246h-.036l-1.584 6.246h-2.646l-2.951-9.307h2.699l1.71 6.318h.036l1.548-6.318h2.484l1.584 6.301h.036l1.71-6.301h2.628l-2.934 9.307h-2.628zm6.318-10.746v-2.105h2.556v2.105h-2.556zm2.555 1.439v9.307h-2.556v-9.307h2.556zm4.248-3.545v12.852h-2.556v-12.852h2.556zm8.227 11.664c-.3.504-.693.867-1.179 1.088-.486.223-1.035.334-1.647.334-.696 0-1.308-.136-1.836-.405-.528-.271-.963-.636-1.305-1.099-.343-.461-.601-.992-.774-1.592-.174-.601-.261-1.225-.261-1.873 0-.623.087-1.227.261-1.809s.432-1.095.774-1.539c.342-.443.771-.801 1.287-1.07.516-.271 1.115-.406 1.8-.406.552 0 1.077.117 1.575.352.497.234.891.579 1.179 1.035h.036v-4.68h2.556v12.852h-2.43v-1.188h-.036zm-.108-4.599c-.071-.354-.195-.666-.369-.936-.174-.271-.398-.489-.675-.657s-.624-.252-1.044-.252-.773.084-1.062.252-.52.39-.693.666-.3.591-.378.944c-.078.354-.117.724-.117 1.107 0 .36.042.721.126 1.08s.219.682.405.963c.186.282.42.51.702.684.281.175.621.262 1.017.262.42 0 .771-.084 1.053-.252.282-.168.507-.393.676-.676.168-.281.288-.603.359-.963.072-.359.108-.731.108-1.115s-.036-.754-.108-1.107zm8.549-1.845c-.408 0-.75.093-1.026.278-.275.187-.501.427-.675.721s-.297.618-.369.972c-.071.354-.107.705-.107 1.054 0 .336.036.678.107 1.025.072.348.189.663.352.945.162.281.381.513.657.693.275.18.611.27 1.008.27.611 0 1.083-.172 1.413-.514.329-.342.536-.801.621-1.377h2.466c-.168 1.236-.648 2.178-1.44 2.826s-1.806.973-3.042.973c-.696 0-1.335-.117-1.917-.352s-1.077-.561-1.484-.98c-.408-.42-.727-.922-.954-1.504-.229-.582-.343-1.221-.343-1.916 0-.721.105-1.389.315-2.008.21-.617.519-1.151.927-1.602s.906-.801 1.494-1.053 1.26-.379 2.016-.379c.553 0 1.083.072 1.594.217.51.144.966.363 1.368.656.401.295.729.66.98 1.099s.396.957.432 1.558h-2.502c-.169-1.068-.799-1.602-1.891-1.602zm5.382 1.189c.036-.601.186-1.099.45-1.494.264-.396.6-.715 1.008-.955.407-.239.866-.41 1.377-.512.51-.103 1.022-.154 1.539-.154.468 0 .941.033 1.422.1.479.066.918.195 1.313.387.396.192.721.459.973.801s.378.795.378 1.359v4.842c0 .42.023.822.072 1.207.047.383.132.672.252.863h-2.593c-.048-.145-.087-.291-.116-.441-.03-.149-.052-.303-.063-.459-.408.42-.888.715-1.44.883-.552.168-1.115.252-1.691.252-.444 0-.858-.055-1.242-.162-.384-.108-.72-.276-1.008-.504-.288-.229-.513-.516-.675-.864s-.243-.763-.243-1.242c0-.528.093-.963.279-1.305.186-.343.426-.615.72-.819.294-.203.63-.357 1.008-.459s.759-.183 1.143-.242c.385-.061.763-.109 1.135-.145.371-.036.701-.09.989-.162s.517-.177.685-.314c.168-.139.246-.34.233-.604 0-.275-.045-.495-.135-.657s-.21-.288-.359-.378c-.15-.09-.324-.15-.522-.18s-.411-.045-.639-.045c-.504 0-.9.107-1.188.324-.288.215-.456.575-.504 1.08h-2.558zm5.903 1.888c-.107.097-.242.172-.404.226s-.336.099-.522.136l-.585.09c-.204.023-.408.054-.612.09-.191.035-.381.084-.566.144-.187.061-.349.142-.486.243s-.249.23-.333.387-.126.354-.126.594c0 .229.042.421.126.576.084.156.198.279.342.369.145.09.312.153.504.189.192.035.391.054.595.054.504 0 .894-.084 1.17-.252.275-.168.479-.369.612-.603.132-.234.213-.471.242-.711.03-.24.045-.433.045-.576v-.956zm6.571-4.752v1.729h.036c.119-.288.281-.555.485-.801s.438-.456.702-.63.546-.31.846-.405.612-.145.937-.145c.168 0 .354.031.558.091v2.376l-.432-.062c-.168-.019-.33-.027-.486-.027-.468 0-.864.078-1.188.233-.324.156-.585.369-.783.64-.198.27-.339.584-.423.945-.084.359-.126.75-.126 1.17v4.193h-2.557v-9.307h2.431zm10.458 8.119c-.3.504-.693.867-1.179 1.088-.486.223-1.035.334-1.647.334-.696 0-1.308-.136-1.836-.405-.528-.271-.963-.636-1.305-1.099-.343-.461-.601-.992-.774-1.592-.174-.601-.261-1.225-.261-1.873 0-.623.087-1.227.261-1.809s.432-1.095.774-1.539c.342-.443.771-.801 1.287-1.07.516-.271 1.115-.406 1.8-.406.552 0 1.077.117 1.575.352.497.234.891.579 1.179 1.035h.036v-4.68h2.556v12.852h-2.43v-1.188h-.036zm-.109-4.599c-.071-.354-.195-.666-.369-.936-.174-.271-.398-.489-.675-.657s-.624-.252-1.044-.252-.773.084-1.062.252-.52.39-.693.666-.3.591-.378.944c-.078.354-.117.724-.117 1.107 0 .36.042.721.126 1.08s.219.682.405.963c.186.282.42.51.702.684.281.175.621.262 1.017.262.42 0 .771-.084 1.053-.252.282-.168.507-.393.676-.676.168-.281.288-.603.359-.963.072-.359.108-.731.108-1.115.001-.384-.035-.754-.108-1.107zm6.256 3.475c.114.197.261.359.441.485s.387.22.62.279c.234.06.478.09.729.09.18 0 .369-.021.567-.063.197-.041.378-.107.54-.197.161-.09.297-.21.404-.36.108-.149.162-.339.162-.567 0-.383-.255-.672-.765-.863-.511-.191-1.222-.385-2.133-.576-.372-.084-.735-.184-1.09-.297-.354-.114-.669-.264-.944-.45-.276-.187-.498-.42-.666-.702-.168-.281-.252-.627-.252-1.035 0-.6.117-1.092.351-1.476.234-.384.543-.687.927-.909.385-.222.816-.378 1.296-.468.48-.091.973-.136 1.477-.136s.993.049 1.467.145.897.258 1.27.486c.371.229.681.531.927.908.246.379.393.855.44 1.432h-2.43c-.036-.492-.222-.825-.558-.999s-.732-.261-1.188-.261c-.144 0-.3.009-.468.027-.168.018-.321.057-.459.116s-.255.147-.351.261c-.097.115-.145.268-.145.459 0 .229.084.414.252.559.168.144.387.261.657.351.27.091.579.171.927.243l1.062.234c.371.084.734.186 1.089.306.354.12.669.278.944.478.276.197.498.443.666.737s.252.657.252 1.089c0 .612-.123 1.125-.368 1.539-.246.414-.567.747-.964.999-.396.252-.849.429-1.358.531-.511.102-1.029.153-1.557.153-.54 0-1.068-.055-1.585-.162-.516-.108-.975-.288-1.377-.54-.401-.253-.731-.585-.989-.999-.259-.414-.399-.934-.423-1.557h2.43c.002.274.059.51.173.71zm14.714-6.877c-.312 1.375-.468 2.77-.468 4.186 0 1.439.152 2.85.459 4.23.306 1.379.801 2.724 1.484 4.031h-2.124c-.756-1.236-1.341-2.538-1.755-3.906-.414-1.367-.621-2.76-.621-4.176 0-.672.052-1.377.153-2.115.102-.737.252-1.473.45-2.205.198-.731.443-1.439.738-2.123.294-.685.639-1.314 1.034-1.891h2.143c-.683 1.272-1.181 2.596-1.493 3.969zm.973 1.593v-1.711h1.53v-.719c0-.828.258-1.506.773-2.035.516-.527 1.296-.791 2.34-.791.229 0 .456.009.685.026l.666.046v1.907c-.3-.036-.612-.054-.937-.054-.348 0-.597.08-.747.242-.149.162-.225.436-.225.82v.557h1.764v1.711h-1.764v7.597h-2.556v-7.596h-1.529zm6.462 1.153c.036-.601.186-1.099.45-1.494.264-.396.6-.715 1.008-.955.407-.239.866-.41 1.377-.512.51-.103 1.022-.154 1.539-.154.468 0 .941.033 1.422.1.479.066.918.195 1.313.387.396.192.721.459.973.801s.378.795.378 1.359v4.842c0 .42.023.822.072 1.207.047.383.132.672.252.863h-2.593c-.048-.145-.087-.291-.116-.441-.03-.149-.052-.303-.063-.459-.408.42-.888.715-1.44.883-.552.168-1.115.252-1.691.252-.444 0-.858-.055-1.242-.162-.384-.108-.72-.276-1.008-.504-.288-.229-.513-.516-.675-.864s-.243-.763-.243-1.242c0-.528.093-.963.279-1.305.186-.343.426-.615.72-.819.294-.203.63-.357 1.008-.459s.759-.183 1.143-.242c.385-.061.763-.109 1.135-.145.371-.036.701-.09.989-.162s.517-.177.685-.314c.168-.139.246-.34.233-.604 0-.275-.045-.495-.135-.657s-.21-.288-.359-.378c-.15-.09-.324-.15-.522-.18s-.411-.045-.639-.045c-.504 0-.9.107-1.188.324-.288.215-.456.575-.504 1.08h-2.558zm5.903 1.888c-.107.097-.242.172-.404.226s-.336.099-.522.136l-.585.09c-.204.023-.408.054-.612.09-.191.035-.381.084-.566.144-.187.061-.349.142-.486.243s-.249.23-.333.387-.126.354-.126.594c0 .229.042.421.126.576.084.156.198.279.342.369.145.09.312.153.504.189.192.035.391.054.595.054.504 0 .894-.084 1.17-.252.275-.168.479-.369.612-.603.132-.234.213-.471.242-.711.03-.24.045-.433.045-.576v-.956zm6.93-8.297v6.894l3.223-3.349h3.023l-3.51 3.42 3.906 5.887h-3.097l-2.556-4.158-.99.954v3.204h-2.556v-12.852h2.557zm9.882 10.62c.384.373.936.559 1.656.559.516 0 .96-.129 1.332-.387.371-.258.6-.531.684-.819h2.25c-.36 1.116-.912 1.914-1.656 2.394-.744.48-1.644.721-2.699.721-.732 0-1.393-.117-1.98-.352s-1.086-.566-1.494-.999c-.408-.432-.723-.948-.944-1.548-.223-.6-.333-1.26-.333-1.98 0-.695.113-1.344.342-1.943.228-.6.552-1.119.972-1.557.42-.438.921-.783 1.503-1.035s1.227-.379 1.936-.379c.792 0 1.481.154 2.069.459.588.307 1.071.718 1.449 1.233.378.517.65 1.104.819 1.765.168.66.228 1.35.18 2.069h-6.714c.034.827.244 1.427.628 1.799zm2.888-4.896c-.306-.336-.771-.504-1.395-.504-.408 0-.747.069-1.018.207-.27.138-.485.31-.647.513-.162.204-.276.42-.342.648-.066.228-.105.432-.117.611h4.158c-.119-.647-.332-1.139-.639-1.475zm11.35-2.179v1.188h.036c.312-.504.707-.87 1.188-1.098.479-.228 1.008-.343 1.584-.343.731 0 1.362.139 1.89.414.528.277.966.643 1.314 1.099.348.456.605.987.774 1.593.167.606.252 1.239.252 1.898 0 .625-.085 1.225-.252 1.801-.169.576-.424 1.086-.766 1.529-.342.445-.768.799-1.278 1.062-.51.264-1.106.396-1.791.396-.575 0-1.106-.117-1.593-.352-.485-.234-.885-.578-1.196-1.035h-.036v4.41h-2.557v-12.564h2.431zm3.32 7.381c.282-.168.51-.387.685-.657.174-.271.297-.585.369-.944.071-.361.107-.727.107-1.099s-.039-.737-.117-1.099c-.078-.359-.207-.68-.387-.963-.18-.281-.411-.51-.693-.684-.281-.174-.627-.261-1.034-.261-.421 0-.771.087-1.054.261-.281.174-.51.399-.684.676-.174.275-.297.594-.369.953-.072.36-.107.732-.107 1.116 0 .372.038.737.116 1.099.078.359.204.674.378.944s.405.489.693.657.636.252 1.044.252c.42.001.771-.083 1.053-.251zm4.744-4.517c.036-.601.186-1.099.45-1.494.264-.396.6-.715 1.008-.955.407-.239.866-.41 1.377-.512.51-.103 1.022-.154 1.539-.154.468 0 .941.033 1.422.1.479.066.918.195 1.313.387.396.192.721.459.973.801s.378.795.378 1.359v4.842c0 .42.023.822.072 1.207.047.383.132.672.252.863h-2.593c-.048-.145-.087-.291-.116-.441-.03-.149-.052-.303-.063-.459-.408.42-.888.715-1.44.883-.552.168-1.115.252-1.691.252-.444 0-.858-.055-1.242-.162-.384-.108-.72-.276-1.008-.504-.288-.229-.513-.516-.675-.864s-.243-.763-.243-1.242c0-.528.093-.963.279-1.305.186-.343.426-.615.72-.819.294-.203.63-.357 1.008-.459s.759-.183 1.143-.242c.385-.061.763-.109 1.135-.145.371-.036.701-.09.989-.162s.517-.177.685-.314c.168-.139.246-.34.233-.604 0-.275-.045-.495-.135-.657s-.21-.288-.359-.378c-.15-.09-.324-.15-.522-.18s-.411-.045-.639-.045c-.504 0-.9.107-1.188.324-.288.215-.456.575-.504 1.08h-2.558zm5.904 1.888c-.107.097-.242.172-.404.226s-.336.099-.522.136l-.585.09c-.204.023-.408.054-.612.09-.191.035-.381.084-.566.144-.187.061-.349.142-.486.243s-.249.23-.333.387-.126.354-.126.594c0 .229.042.421.126.576.084.156.198.279.342.369.145.09.312.153.504.189.192.035.391.054.595.054.504 0 .894-.084 1.17-.252.275-.168.479-.369.612-.603.132-.234.213-.471.242-.711.03-.24.045-.433.045-.576v-.956zm12.932 5.239c-.102.48-.321.928-.656 1.342-.337.414-.822.765-1.458 1.053-.637.288-1.488.432-2.557.432-.456 0-.921-.057-1.395-.171-.475-.114-.906-.291-1.296-.531-.391-.24-.715-.549-.973-.927s-.404-.831-.44-1.358h2.538c.119.479.354.812.702.999.348.186.749.278 1.205.278.721 0 1.245-.216 1.575-.647.33-.433.489-.979.478-1.639v-1.224h-.036c-.276.492-.669.854-1.179 1.089-.511.234-1.048.352-1.611.352-.696 0-1.296-.123-1.8-.369s-.918-.582-1.242-1.008-.562-.924-.711-1.494c-.15-.57-.226-1.174-.226-1.81 0-.6.087-1.179.262-1.737.174-.558.429-1.049.765-1.476.336-.426.753-.765 1.251-1.017s1.071-.379 1.719-.379c.612 0 1.149.115 1.611.343s.849.612 1.161 1.151h.036v-1.242h2.43v8.713c.001.371-.05.797-.153 1.277zm-3.501-3.096c.276-.145.504-.336.685-.576.18-.24.314-.513.404-.818.091-.307.136-.627.136-.963 0-.385-.036-.748-.108-1.09s-.192-.645-.36-.908-.39-.475-.666-.631c-.275-.155-.624-.233-1.044-.233-.359 0-.669.071-.927.216s-.474.34-.647.585c-.175.246-.301.528-.378.847-.078.317-.117.65-.117.998 0 .336.032.67.099 1s.18.627.342.891.375.48.64.647c.264.169.594.253.989.253.358-.001.677-.074.952-.218zm8.046.18c.384.373.936.559 1.656.559.516 0 .96-.129 1.332-.387.371-.258.6-.531.684-.819h2.25c-.36 1.116-.912 1.914-1.656 2.394-.744.48-1.644.721-2.699.721-.732 0-1.393-.117-1.98-.352s-1.086-.566-1.494-.999c-.408-.432-.723-.948-.944-1.548-.223-.6-.333-1.26-.333-1.98 0-.695.113-1.344.342-1.943.228-.6.552-1.119.972-1.557.42-.438.921-.783 1.503-1.035s1.227-.379 1.936-.379c.792 0 1.481.154 2.069.459.588.307 1.071.718 1.449 1.233.378.517.65 1.104.819 1.765.168.66.228 1.35.18 2.069h-6.714c.034.827.244 1.427.628 1.799zm2.889-4.896c-.306-.336-.771-.504-1.395-.504-.408 0-.747.069-1.018.207-.27.138-.485.31-.647.513-.162.204-.276.42-.342.648-.066.228-.105.432-.117.611h4.158c-.12-.647-.333-1.139-.639-1.475zm6.462 4.816c.114.197.261.359.441.485s.387.22.62.279c.234.06.478.09.729.09.18 0 .369-.021.567-.063.197-.041.378-.107.54-.197.161-.09.297-.21.404-.36.108-.149.162-.339.162-.567 0-.383-.255-.672-.765-.863-.511-.191-1.222-.385-2.133-.576-.372-.084-.735-.184-1.09-.297-.354-.114-.669-.264-.944-.45-.276-.187-.498-.42-.666-.702-.168-.281-.252-.627-.252-1.035 0-.6.117-1.092.351-1.476.234-.384.543-.687.927-.909.385-.222.816-.378 1.296-.468.48-.091.973-.136 1.477-.136s.993.049 1.467.145.897.258 1.27.486c.371.229.681.531.927.908.246.379.393.855.44 1.432h-2.43c-.036-.492-.222-.825-.558-.999s-.732-.261-1.188-.261c-.144 0-.3.009-.468.027-.168.018-.321.057-.459.116s-.255.147-.351.261c-.097.115-.145.268-.145.459 0 .229.084.414.252.559.168.144.387.261.657.351.27.091.579.171.927.243l1.062.234c.371.084.734.186 1.089.306.354.12.669.278.944.478.276.197.498.443.666.737s.252.657.252 1.089c0 .612-.123 1.125-.368 1.539-.246.414-.567.747-.964.999-.396.252-.849.429-1.358.531-.511.102-1.029.153-1.557.153-.54 0-1.068-.055-1.585-.162-.516-.108-.975-.288-1.377-.54-.401-.253-.731-.585-.989-.999-.259-.414-.399-.934-.423-1.557h2.43c.002.274.058.51.173.71zm7.507 1.619c.317-1.361.477-2.75.477-4.166 0-1.44-.156-2.856-.468-4.248-.312-1.393-.799-2.742-1.458-4.051h2.105c.757 1.236 1.342 2.545 1.756 3.924.413 1.381.62 2.778.62 4.194 0 .673-.048 1.377-.144 2.115-.097.737-.243 1.47-.441 2.196-.197.726-.447 1.431-.747 2.114-.3.685-.647 1.308-1.044 1.872h-2.124c.66-1.271 1.149-2.588 1.468-3.95zm11.887-1.539c.384.373.936.559 1.656.559.516 0 .96-.129 1.332-.387.371-.258.6-.531.684-.819h2.25c-.36 1.116-.912 1.914-1.656 2.394-.744.48-1.644.721-2.699.721-.732 0-1.393-.117-1.98-.352s-1.086-.566-1.494-.999c-.408-.432-.723-.948-.944-1.548-.223-.6-.333-1.26-.333-1.98 0-.695.113-1.344.342-1.943.228-.6.552-1.119.972-1.557.42-.438.921-.783 1.503-1.035s1.227-.379 1.936-.379c.792 0 1.481.154 2.069.459.588.307 1.071.718 1.449 1.233.378.517.65 1.104.819 1.765.168.66.228 1.35.18 2.069h-6.714c.034.827.244 1.427.628 1.799zm2.889-4.896c-.306-.336-.771-.504-1.395-.504-.408 0-.747.069-1.018.207-.27.138-.485.31-.647.513-.162.204-.276.42-.342.648-.066.228-.105.432-.117.611h4.158c-.12-.647-.332-1.139-.639-1.475zm6.796-2.179v1.261h.036c.336-.479.74-.853 1.215-1.116.474-.264 1.017-.396 1.629-.396.588 0 1.125.115 1.611.343.485.228.854.63 1.106 1.206.276-.408.651-.768 1.125-1.08.475-.312 1.035-.469 1.684-.469.491 0 .947.061 1.368.181.42.12.779.312 1.079.576.3.264.534.608.702 1.034.168.427.252.939.252 1.539v6.228h-2.556v-5.273c0-.312-.012-.606-.036-.883-.024-.275-.09-.516-.198-.72-.107-.204-.267-.366-.477-.485-.21-.121-.495-.181-.855-.181-.359 0-.65.069-.873.207-.222.138-.396.317-.521.54s-.21.475-.252.756c-.042.282-.063.566-.063.855v5.184h-2.556v-5.221c0-.275-.006-.549-.018-.818-.013-.27-.063-.52-.153-.747s-.24-.411-.45-.549-.52-.207-.927-.207c-.12 0-.279.026-.478.081-.197.054-.39.156-.575.307-.187.149-.346.365-.478.647s-.198.651-.198 1.106v5.4h-2.556v-9.307h2.413zm16.163 7.075c.384.373.936.559 1.656.559.516 0 .96-.129 1.332-.387.371-.258.6-.531.684-.819h2.25c-.36 1.116-.912 1.914-1.656 2.394-.744.48-1.644.721-2.699.721-.732 0-1.393-.117-1.98-.352s-1.086-.566-1.494-.999c-.408-.432-.723-.948-.944-1.548-.223-.6-.333-1.26-.333-1.98 0-.695.113-1.344.342-1.943.228-.6.552-1.119.972-1.557.42-.438.921-.783 1.503-1.035s1.227-.379 1.936-.379c.792 0 1.481.154 2.069.459.588.307 1.071.718 1.449 1.233.378.517.65 1.104.819 1.765.168.66.228 1.35.18 2.069h-6.714c.034.827.244 1.427.628 1.799zm2.889-4.896c-.306-.336-.771-.504-1.395-.504-.408 0-.747.069-1.018.207-.27.138-.485.31-.647.513-.162.204-.276.42-.342.648-.066.228-.105.432-.117.611h4.158c-.12-.647-.333-1.139-.639-1.475zm6.742-2.179v1.729h.036c.119-.288.281-.555.485-.801s.438-.456.702-.63.546-.31.846-.405.612-.145.937-.145c.168 0 .354.031.558.091v2.376l-.432-.062c-.168-.019-.33-.027-.486-.027-.468 0-.864.078-1.188.233-.324.156-.585.369-.783.64-.198.27-.339.584-.423.945-.084.359-.126.75-.126 1.17v4.193h-2.557v-9.307h2.431zm12.464 9.991c-.102.48-.321.928-.656 1.342-.337.414-.822.765-1.458 1.053-.637.288-1.488.432-2.557.432-.456 0-.921-.057-1.395-.171-.475-.114-.906-.291-1.296-.531-.391-.24-.715-.549-.973-.927s-.404-.831-.44-1.358h2.538c.119.479.354.812.702.999.348.186.749.278 1.205.278.721 0 1.245-.216 1.575-.647.33-.433.489-.979.478-1.639v-1.224h-.036c-.276.492-.669.854-1.179 1.089-.511.234-1.048.352-1.611.352-.696 0-1.296-.123-1.8-.369s-.918-.582-1.242-1.008-.562-.924-.711-1.494c-.15-.57-.226-1.174-.226-1.81 0-.6.087-1.179.262-1.737.174-.558.429-1.049.765-1.476.336-.426.753-.765 1.251-1.017s1.071-.379 1.719-.379c.612 0 1.149.115 1.611.343s.849.612 1.161 1.151h.036v-1.242h2.43v8.713c0 .371-.051.797-.153 1.277zm-3.501-3.096c.276-.145.504-.336.685-.576.18-.24.314-.513.404-.818.091-.307.136-.627.136-.963 0-.385-.036-.748-.108-1.09s-.192-.645-.36-.908-.39-.475-.666-.631c-.275-.155-.624-.233-1.044-.233-.359 0-.669.071-.927.216s-.474.34-.647.585c-.175.246-.301.528-.378.847-.078.317-.117.65-.117.998 0 .336.032.67.099 1s.18.627.342.891.375.48.64.647c.264.169.594.253.989.253.358-.001.676-.074.952-.218zm8.046.18c.384.373.936.559 1.656.559.516 0 .96-.129 1.332-.387.371-.258.6-.531.684-.819h2.25c-.36 1.116-.912 1.914-1.656 2.394-.744.48-1.644.721-2.699.721-.732 0-1.393-.117-1.98-.352s-1.086-.566-1.494-.999c-.408-.432-.723-.948-.944-1.548-.223-.6-.333-1.26-.333-1.98 0-.695.113-1.344.342-1.943.228-.6.552-1.119.972-1.557.42-.438.921-.783 1.503-1.035s1.227-.379 1.936-.379c.792 0 1.481.154 2.069.459.588.307 1.071.718 1.449 1.233.378.517.65 1.104.819 1.765.168.66.228 1.35.18 2.069h-6.714c.034.827.244 1.427.628 1.799zm2.888-4.896c-.306-.336-.771-.504-1.395-.504-.408 0-.747.069-1.018.207-.27.138-.485.31-.647.513-.162.204-.276.42-.342.648-.066.228-.105.432-.117.611h4.158c-.119-.647-.332-1.139-.639-1.475zm11.655 4.896c.384.373.936.559 1.656.559.516 0 .96-.129 1.332-.387.371-.258.6-.531.684-.819h2.25c-.36 1.116-.912 1.914-1.656 2.394-.744.48-1.644.721-2.699.721-.732 0-1.393-.117-1.98-.352s-1.086-.566-1.494-.999c-.408-.432-.723-.948-.944-1.548-.223-.6-.333-1.26-.333-1.98 0-.695.113-1.344.342-1.943.228-.6.552-1.119.972-1.557.42-.438.921-.783 1.503-1.035s1.227-.379 1.936-.379c.792 0 1.481.154 2.069.459.588.307 1.071.718 1.449 1.233.378.517.65 1.104.819 1.765.168.66.228 1.35.18 2.069h-6.714c.035.827.245 1.427.628 1.799zm2.889-4.896c-.306-.336-.771-.504-1.395-.504-.408 0-.747.069-1.018.207-.27.138-.485.31-.647.513-.162.204-.276.42-.342.648-.066.228-.105.432-.117.611h4.158c-.119-.647-.332-1.139-.639-1.475zm4.203.685c.036-.601.186-1.099.45-1.494.264-.396.6-.715 1.008-.955.407-.239.866-.41 1.377-.512.51-.103 1.022-.154 1.539-.154.468 0 .941.033 1.422.1.479.066.918.195 1.313.387.396.192.721.459.973.801s.378.795.378 1.359v4.842c0 .42.023.822.072 1.207.047.383.132.672.252.863h-2.593c-.048-.145-.087-.291-.116-.441-.03-.149-.052-.303-.063-.459-.408.42-.888.715-1.44.883-.552.168-1.115.252-1.691.252-.444 0-.858-.055-1.242-.162-.384-.108-.72-.276-1.008-.504-.288-.229-.513-.516-.675-.864s-.243-.763-.243-1.242c0-.528.093-.963.279-1.305.186-.343.426-.615.72-.819.294-.203.63-.357 1.008-.459s.759-.183 1.143-.242c.385-.061.763-.109 1.135-.145.371-.036.701-.09.989-.162s.517-.177.685-.314c.168-.139.246-.34.233-.604 0-.275-.045-.495-.135-.657s-.21-.288-.359-.378c-.15-.09-.324-.15-.522-.18s-.411-.045-.639-.045c-.504 0-.9.107-1.188.324-.288.215-.456.575-.504 1.08h-2.558zm5.904 1.888c-.107.097-.242.172-.404.226s-.336.099-.522.136l-.585.09c-.204.023-.408.054-.612.09-.191.035-.381.084-.566.144-.187.061-.349.142-.486.243s-.249.23-.333.387-.126.354-.126.594c0 .229.042.421.126.576.084.156.198.279.342.369.145.09.312.153.504.189.192.035.391.054.595.054.504 0 .894-.084 1.17-.252.275-.168.479-.369.612-.603.132-.234.213-.471.242-.711.03-.24.045-.433.045-.576v-.956zm8.587-3.077c-.408 0-.75.093-1.026.278-.275.187-.501.427-.675.721s-.297.618-.369.972c-.071.354-.107.705-.107 1.054 0 .336.036.678.107 1.025.072.348.189.663.352.945.162.281.381.513.657.693.275.18.611.27 1.008.27.611 0 1.083-.172 1.413-.514.329-.342.536-.801.621-1.377h2.466c-.168 1.236-.648 2.178-1.44 2.826s-1.806.973-3.042.973c-.696 0-1.335-.117-1.917-.352s-1.077-.561-1.484-.98c-.408-.42-.727-.922-.954-1.504-.229-.582-.343-1.221-.343-1.916 0-.721.105-1.389.315-2.008.21-.617.519-1.151.927-1.602s.906-.801 1.494-1.053 1.26-.379 2.016-.379c.553 0 1.083.072 1.594.217.51.144.966.363 1.368.656.401.295.729.66.98 1.099s.396.957.432 1.558h-2.502c-.17-1.068-.8-1.602-1.891-1.602zm8.045-5.22v4.842h.054c.324-.54.738-.934 1.242-1.18.504-.245.996-.369 1.476-.369.685 0 1.245.094 1.684.279.438.187.782.444 1.034.774s.43.731.531 1.206.153.999.153 1.574v5.726h-2.556v-5.256c0-.768-.12-1.342-.36-1.719-.24-.379-.666-.567-1.278-.567-.696 0-1.2.207-1.512.621-.312.414-.468 1.095-.468 2.043v4.878h-2.557v-12.852h2.557zm14.814 3.545v1.261h.036c.336-.479.74-.853 1.215-1.116.474-.264 1.017-.396 1.629-.396.588 0 1.125.115 1.611.343.485.228.854.63 1.106 1.206.276-.408.651-.768 1.125-1.08.475-.312 1.035-.469 1.684-.469.491 0 .947.061 1.368.181.42.12.779.312 1.079.576.3.264.534.608.702 1.034.168.427.252.939.252 1.539v6.228h-2.556v-5.273c0-.312-.012-.606-.036-.883-.024-.275-.09-.516-.198-.72-.107-.204-.267-.366-.477-.485-.21-.121-.495-.181-.855-.181-.359 0-.65.069-.873.207-.222.138-.396.317-.521.54s-.21.475-.252.756c-.042.282-.063.566-.063.855v5.184h-2.556v-5.221c0-.275-.006-.549-.018-.818-.013-.27-.063-.52-.153-.747s-.24-.411-.45-.549-.52-.207-.927-.207c-.12 0-.279.026-.478.081-.197.054-.39.156-.575.307-.187.149-.346.365-.478.647s-.198.651-.198 1.106v5.4h-2.556v-9.307h2.413zm13.482 2.638c.228-.606.552-1.122.972-1.548s.924-.756 1.512-.99 1.248-.352 1.98-.352c.731 0 1.395.117 1.988.352.595.234 1.102.564 1.521.99s.744.941.972 1.548c.229.606.343 1.281.343 2.024 0 .744-.114 1.416-.343 2.017-.228.601-.552 1.113-.972 1.539s-.927.753-1.521.981c-.594.228-1.257.342-1.988.342-.732 0-1.393-.114-1.98-.342-.588-.229-1.092-.556-1.512-.981s-.744-.938-.972-1.539c-.229-.601-.343-1.272-.343-2.017.001-.743.115-1.417.343-2.024zm2.322 3.114c.072.354.195.672.369.953.174.283.405.508.693.676s.647.252 1.08.252c.432 0 .795-.084 1.089-.252s.527-.393.702-.676c.174-.281.297-.6.369-.953.071-.354.107-.717.107-1.09 0-.371-.036-.737-.107-1.098-.072-.359-.195-.678-.369-.953-.175-.276-.408-.502-.702-.676s-.657-.261-1.089-.261c-.433 0-.792.087-1.08.261s-.52.399-.693.676c-.174.275-.297.594-.369.953-.071.36-.107.727-.107 1.098-.001.374.035.737.107 1.09zm10.656-5.752v1.297h.054c.324-.54.744-.934 1.26-1.18.516-.245 1.044-.369 1.584-.369.685 0 1.245.094 1.684.279.438.187.782.444 1.034.774s.43.731.531 1.206.153.999.153 1.574v5.726h-2.556v-5.256c0-.768-.12-1.342-.36-1.719-.24-.379-.666-.567-1.278-.567-.696 0-1.2.207-1.512.621-.312.414-.468 1.095-.468 2.043v4.878h-2.557v-9.307h2.431zm12.959 0v1.711h-1.872v4.607c0 .432.072.721.216.864.145.144.433.216.864.216l.414-.018.378-.055v1.982c-.216.036-.456.06-.72.072-.265.012-.522.018-.774.018-.396 0-.771-.026-1.125-.081-.354-.054-.666-.159-.936-.315-.271-.155-.483-.377-.64-.666-.155-.287-.233-.666-.233-1.133v-5.49h-1.548v-1.711h1.548v-2.789h2.556v2.789h1.872zm3.385-3.545v4.842h.054c.324-.54.738-.934 1.242-1.18.504-.245.996-.369 1.476-.369.685 0 1.245.094 1.684.279.438.187.782.444 1.034.774s.43.731.531 1.206.153.999.153 1.574v5.726h-2.556v-5.256c0-.768-.12-1.342-.36-1.719-.24-.379-.666-.567-1.278-.567-.696 0-1.2.207-1.512.621-.312.414-.468 1.095-.468 2.043v4.878h-2.557v-12.852h2.557zm10.655 10.081v2.771h-2.826v-2.771h2.826zM306.724 174v-49.138h-19.049v-11.581c2.668.073 5.249-.125 7.739-.595 2.489-.469 4.725-1.299 6.71-2.49 1.984-1.19 3.662-2.76 5.033-4.708 1.37-1.948 2.273-4.365 2.706-7.251h12.23v75.763h-15.369zm49.354 0v-49.138h-19.049v-11.581c2.668.073 5.249-.125 7.739-.595 2.489-.469 4.725-1.299 6.71-2.49 1.984-1.19 3.662-2.76 5.033-4.708 1.37-1.948 2.273-4.365 2.706-7.251h12.23v75.763h-15.369zm60.935-45.133c1.875-.144 3.626-.558 5.249-1.245 1.624-.685 2.958-1.678 4.005-2.977 1.045-1.299 1.569-3.03 1.569-5.195 0-3.247-1.082-5.736-3.247-7.468-2.165-1.732-4.654-2.598-7.468-2.598-3.896 0-6.838 1.282-8.821 3.842-1.985 2.562-2.94 5.791-2.868 9.687h-14.612c.144-3.896.848-7.449 2.11-10.661 1.262-3.21 3.03-5.97 5.304-8.28 2.272-2.309 4.995-4.094 8.172-5.357 3.174-1.262 6.71-1.894 10.606-1.894 3.03 0 6.061.451 9.092 1.353 3.03.903 5.753 2.256 8.171 4.059 2.417 1.804 4.384 4.004 5.899 6.602 1.515 2.598 2.272 5.593 2.272 8.983 0 3.68-.885 6.927-2.651 9.741-1.77 2.814-4.421 4.727-7.955 5.736v.216c4.184.939 7.468 2.959 9.849 6.061 2.381 3.104 3.572 6.819 3.572 11.148 0 3.969-.776 7.505-2.327 10.607-1.553 3.104-3.626 5.701-6.224 7.793-2.598 2.093-5.593 3.68-8.983 4.762-3.393 1.082-6.927 1.624-10.606 1.624-4.259 0-8.137-.614-11.635-1.84-3.501-1.226-6.478-3.012-8.93-5.357-2.454-2.344-4.348-5.212-5.683-8.604-1.336-3.391-1.967-7.287-1.894-11.689h14.611c.071 2.021.396 3.951.974 5.791.577 1.84 1.407 3.428 2.49 4.762 1.082 1.336 2.435 2.399 4.059 3.193 1.623.795 3.553 1.19 5.79 1.19 3.464 0 6.386-1.063 8.767-3.193 2.382-2.127 3.572-5.033 3.572-8.713 0-2.885-.56-5.087-1.678-6.602-1.12-1.515-2.544-2.614-4.275-3.301-1.731-.685-3.626-1.083-5.683-1.191-2.056-.108-4.022-.162-5.898-.162v-10.823c1.66.146 3.428.146 5.305 0zm50.545 28.465v16.668c0 2.452-.451 4.708-1.353 6.765-.903 2.056-2.111 3.842-3.626 5.357-1.516 1.515-3.302 2.76-5.357 3.734-2.057.974-4.24 1.641-6.549 2.002v-7.793c1.083-.216 2.111-.649 3.085-1.299.975-.649 1.821-1.425 2.544-2.327.72-.903 1.261-1.913 1.623-3.031.36-1.12.504-2.256.433-3.409h-7.792v-16.668h16.992zm26.949-46.432l-3.03 17.209.217.216c2.092-2.092 4.329-3.588 6.71-4.491 2.381-.901 5.087-1.353 8.117-1.353 3.751 0 7.071.687 9.958 2.056 2.885 1.372 5.32 3.211 7.306 5.52 1.983 2.31 3.499 5.033 4.546 8.171 1.045 3.139 1.569 6.477 1.569 10.012 0 3.896-.758 7.522-2.273 10.877-1.515 3.355-3.555 6.26-6.115 8.712-2.562 2.454-5.538 4.348-8.929 5.683-3.393 1.334-7 1.965-10.823 1.894-3.68 0-7.197-.487-10.553-1.461s-6.332-2.471-8.93-4.492c-2.598-2.019-4.672-4.527-6.223-7.522-1.553-2.993-2.364-6.476-2.436-10.444h15.369c.36 3.463 1.659 6.223 3.896 8.28 2.235 2.056 5.087 3.084 8.55 3.084 2.02 0 3.843-.415 5.466-1.245 1.624-.829 2.993-1.911 4.113-3.247 1.117-1.334 1.983-2.885 2.598-4.654.612-1.768.92-3.589.92-5.466 0-1.948-.289-3.788-.866-5.52-.578-1.731-1.444-3.247-2.598-4.545-1.155-1.299-2.526-2.309-4.112-3.031-1.588-.72-3.429-1.083-5.521-1.083-2.743 0-4.979.487-6.71 1.461s-3.355 2.508-4.871 4.6h-13.854l7.468-41.886h42.319v12.665h-31.278zm39.667 6.332c1.479-5.014 3.48-9.037 6.008-12.068 2.524-3.03 5.465-5.195 8.82-6.494 3.355-1.299 6.908-1.948 10.661-1.948 3.823 0 7.414.649 10.77 1.948 3.354 1.298 6.312 3.463 8.875 6.494 2.56 3.031 4.581 7.054 6.061 12.068 1.479 5.016 2.219 11.202 2.219 18.562 0 7.576-.74 13.908-2.219 18.995-1.479 5.087-3.501 9.146-6.061 12.176-2.562 3.031-5.521 5.195-8.875 6.494-3.355 1.299-6.946 1.948-10.77 1.948-3.753 0-7.306-.649-10.661-1.948s-6.296-3.463-8.82-6.494c-2.527-3.03-4.529-7.089-6.008-12.176s-2.219-11.418-2.219-18.995c0-7.36.739-13.546 2.219-18.562zm13.367 26.409c.144 3.068.596 6.026 1.353 8.875.758 2.852 1.966 5.287 3.626 7.306 1.659 2.021 4.04 3.03 7.144 3.03 3.174 0 5.609-1.01 7.306-3.03 1.694-2.02 2.922-4.455 3.68-7.306.758-2.849 1.208-5.807 1.354-8.875.144-3.066.216-5.682.216-7.847 0-1.299-.019-2.868-.054-4.708-.037-1.84-.182-3.734-.434-5.682-.253-1.948-.613-3.878-1.082-5.791-.47-1.911-1.174-3.626-2.11-5.141-.938-1.515-2.129-2.741-3.571-3.68-1.444-.937-3.212-1.407-5.304-1.407-2.094 0-3.843.47-5.249 1.407-1.407.938-2.562 2.165-3.464 3.68-.903 1.515-1.606 3.23-2.11 5.141-.506 1.913-.866 3.842-1.082 5.791-.217 1.948-.344 3.842-.379 5.682-.037 1.84-.055 3.409-.055 4.708-.002 2.164.07 4.781.215 7.847zm44.646-26.409c1.479-5.014 3.48-9.037 6.008-12.068 2.524-3.03 5.465-5.195 8.82-6.494 3.355-1.299 6.908-1.948 10.661-1.948 3.823 0 7.414.649 10.77 1.948 3.354 1.298 6.312 3.463 8.875 6.494 2.56 3.031 4.581 7.054 6.061 12.068 1.479 5.016 2.219 11.202 2.219 18.562 0 7.576-.74 13.908-2.219 18.995-1.479 5.087-3.501 9.146-6.061 12.176-2.562 3.031-5.521 5.195-8.875 6.494-3.355 1.299-6.946 1.948-10.77 1.948-3.753 0-7.306-.649-10.661-1.948s-6.296-3.463-8.82-6.494c-2.527-3.03-4.529-7.089-6.008-12.176s-2.219-11.418-2.219-18.995c0-7.36.739-13.546 2.219-18.562zm13.367 26.409c.144 3.068.596 6.026 1.353 8.875.758 2.852 1.966 5.287 3.626 7.306 1.659 2.021 4.04 3.03 7.144 3.03 3.174 0 5.609-1.01 7.306-3.03 1.694-2.02 2.922-4.455 3.68-7.306.758-2.849 1.208-5.807 1.354-8.875.144-3.066.216-5.682.216-7.847 0-1.299-.019-2.868-.054-4.708-.037-1.84-.182-3.734-.434-5.682-.253-1.948-.613-3.878-1.082-5.791-.47-1.911-1.174-3.626-2.11-5.141-.938-1.515-2.129-2.741-3.571-3.68-1.444-.937-3.212-1.407-5.304-1.407-2.094 0-3.843.47-5.249 1.407-1.407.938-2.562 2.165-3.464 3.68-.903 1.515-1.606 3.23-2.11 5.141-.506 1.913-.866 3.842-1.082 5.791-.217 1.948-.344 3.842-.379 5.682-.037 1.84-.055 3.409-.055 4.708-.002 2.164.069 4.781.215 7.847zM300.589 230.069c1.372 1.33 3.346 1.995 5.919 1.995 1.844 0 3.431-.46 4.761-1.383 1.329-.922 2.145-1.898 2.445-2.928h8.043c-1.287 3.989-3.261 6.842-5.92 8.558-2.66 1.716-5.877 2.574-9.651 2.574-2.617 0-4.977-.418-7.078-1.255-2.103-.836-3.883-2.026-5.341-3.571-1.458-1.544-2.584-3.388-3.378-5.534-.794-2.145-1.19-4.504-1.19-7.078 0-2.487.407-4.804 1.223-6.949.814-2.144 1.973-3.999 3.475-5.565 1.501-1.565 3.292-2.799 5.373-3.7 2.08-.901 4.386-1.351 6.917-1.351 2.831 0 5.297.547 7.399 1.641 2.101 1.094 3.829 2.563 5.18 4.407 1.351 1.845 2.327 3.947 2.928 6.306.6 2.36.814 4.826.644 7.399h-24c.127 2.96.877 5.105 2.251 6.434zm10.327-17.501c-1.094-1.2-2.757-1.802-4.987-1.802-1.459 0-2.67.248-3.635.74-.965.494-1.737 1.105-2.316 1.833-.579.73-.987 1.502-1.223 2.316-.236.815-.376 1.544-.418 2.188h14.863c-.429-2.315-1.19-4.073-2.284-5.275zm14.508 2.445c.129-2.145.665-3.925 1.609-5.341.943-1.416 2.144-2.551 3.603-3.41 1.458-.857 3.099-1.469 4.922-1.833 1.823-.364 3.656-.547 5.501-.547 1.673 0 3.367.118 5.083.354 1.715.236 3.281.698 4.697 1.383 1.416.687 2.574 1.641 3.475 2.863.901 1.223 1.351 2.842 1.351 4.858v17.309c0 1.502.085 2.938.258 4.311.171 1.373.471 2.403.9 3.088h-9.265c-.172-.515-.312-1.04-.418-1.576-.107-.536-.183-1.083-.225-1.641-1.459 1.502-3.175 2.553-5.147 3.153-1.974.6-3.989.901-6.048.901-1.587 0-3.067-.193-4.439-.579-1.374-.386-2.574-.986-3.604-1.802-1.029-.814-1.833-1.844-2.413-3.088-.579-1.244-.869-2.724-.869-4.439 0-1.887.332-3.442.997-4.665.665-1.223 1.522-2.198 2.574-2.928 1.051-.729 2.252-1.276 3.604-1.641 1.351-.364 2.712-.653 4.085-.869 1.373-.214 2.724-.386 4.054-.515 1.329-.129 2.509-.322 3.539-.579 1.029-.257 1.844-.632 2.445-1.126.601-.493.879-1.211.836-2.156 0-.986-.161-1.769-.482-2.348s-.751-1.03-1.287-1.352c-.537-.322-1.158-.536-1.866-.643-.708-.107-1.47-.161-2.284-.161-1.802 0-3.217.386-4.247 1.158s-1.631 2.059-1.802 3.861h-9.137zm21.105 6.756c-.386.344-.869.611-1.448.804s-1.201.354-1.866.482c-.666.129-1.362.236-2.091.322-.73.086-1.458.193-2.188.322-.687.129-1.362.301-2.027.515-.666.215-1.245.505-1.737.869-.494.365-.891.827-1.19 1.384-.3.558-.45 1.266-.45 2.123 0 .815.15 1.502.45 2.059.3.558.708.997 1.223 1.319s1.115.547 1.802.676c.686.128 1.393.193 2.123.193 1.802 0 3.195-.299 4.183-.901.986-.6 1.715-1.319 2.188-2.155.472-.836.761-1.683.869-2.542.106-.858.161-1.544.161-2.059v-3.411zm30.176-11.003c-1.458 0-2.681.333-3.667.998-.987.666-1.792 1.523-2.413 2.574-.623 1.052-1.062 2.21-1.319 3.475-.257 1.266-.386 2.521-.386 3.764 0 1.201.129 2.424.386 3.667.257 1.245.676 2.371 1.255 3.378.579 1.008 1.361 1.834 2.349 2.477.986.644 2.188.965 3.603.965 2.188 0 3.871-.611 5.052-1.834 1.179-1.222 1.919-2.863 2.22-4.922h8.814c-.601 4.418-2.316 7.785-5.147 10.102s-6.456 3.475-10.874 3.475c-2.488 0-4.772-.418-6.852-1.255-2.081-.836-3.851-2.004-5.309-3.506-1.458-1.501-2.596-3.292-3.41-5.373-.815-2.081-1.223-4.365-1.223-6.853 0-2.574.375-4.964 1.126-7.174.75-2.209 1.854-4.118 3.313-5.727 1.458-1.609 3.238-2.863 5.34-3.764 2.102-.901 4.504-1.351 7.207-1.351 1.973 0 3.871.257 5.694.772s3.452 1.298 4.891 2.349c1.437 1.051 2.605 2.359 3.506 3.925.901 1.566 1.416 3.421 1.545 5.565h-8.944c-.602-3.818-2.854-5.727-6.757-5.727zm28.246-18.659v17.308h.193c1.158-1.93 2.638-3.334 4.439-4.214 1.802-.879 3.56-1.319 5.276-1.319 2.444 0 4.449.333 6.016.997 1.565.666 2.799 1.587 3.7 2.767.9 1.181 1.533 2.617 1.897 4.311.364 1.695.547 3.571.547 5.63v20.461h-9.137v-18.788c0-2.745-.429-4.794-1.286-6.145-.859-1.351-2.381-2.027-4.568-2.027-2.488 0-4.29.74-5.405 2.22-1.116 1.479-1.673 3.915-1.673 7.303v17.437h-9.137v-45.941h9.138zm51.924 12.675v4.504h.129c1.2-1.715 2.648-3.045 4.344-3.989 1.693-.943 3.635-1.416 5.822-1.416 2.102 0 4.021.408 5.759 1.222 1.737.815 3.057 2.252 3.957 4.311.986-1.458 2.327-2.745 4.021-3.86 1.694-1.115 3.7-1.673 6.017-1.673 1.758 0 3.388.215 4.89.643 1.501.429 2.788 1.116 3.861 2.059 1.071.944 1.908 2.178 2.509 3.7.601 1.523.901 3.357.901 5.501v22.263h-9.137v-18.853c0-1.115-.044-2.166-.129-3.153-.087-.986-.322-1.844-.708-2.574-.386-.729-.955-1.308-1.705-1.737-.751-.428-1.77-.644-3.057-.644-1.286 0-2.327.248-3.12.74-.794.494-1.416 1.137-1.866 1.93-.45.794-.751 1.695-.9 2.703-.151 1.008-.226 2.026-.226 3.056v18.531h-9.137v-18.66c0-.986-.022-1.962-.064-2.927-.043-.965-.225-1.855-.547-2.67-.321-.814-.858-1.469-1.608-1.962-.751-.493-1.856-.74-3.313-.74-.43 0-.998.097-1.705.29-.708.193-1.395.558-2.06 1.094-.665.537-1.233 1.309-1.705 2.316-.473 1.009-.708 2.328-.708 3.958v19.303h-9.137v-33.266h8.622zm47.679 9.426c.813-2.166 1.972-4.01 3.475-5.533 1.501-1.522 3.302-2.703 5.404-3.539 2.102-.836 4.461-1.254 7.078-1.254 2.615 0 4.986.418 7.109 1.254 2.124.836 3.936 2.017 5.438 3.539 1.501 1.523 2.659 3.368 3.475 5.533.814 2.167 1.223 4.58 1.223 7.239 0 2.66-.408 5.062-1.223 7.207-.815 2.146-1.974 3.979-3.475 5.501-1.502 1.523-3.313 2.692-5.438 3.506-2.123.814-4.494 1.223-7.109 1.223-2.617 0-4.977-.408-7.078-1.223-2.103-.814-3.903-1.983-5.404-3.506-1.503-1.522-2.661-3.356-3.475-5.501-.815-2.145-1.223-4.546-1.223-7.207 0-2.659.407-5.072 1.223-7.239zm8.3 11.132c.258 1.266.697 2.403 1.319 3.411.621 1.008 1.447 1.812 2.477 2.413 1.03.601 2.316.901 3.861.901 1.544 0 2.841-.3 3.893-.901 1.051-.6 1.887-1.404 2.509-2.413.622-1.008 1.062-2.145 1.319-3.411.258-1.265.386-2.562.386-3.893 0-1.329-.128-2.638-.386-3.925-.257-1.287-.697-2.423-1.319-3.41-.622-.986-1.458-1.791-2.509-2.413-1.052-.621-2.349-.933-3.893-.933-1.545 0-2.831.312-3.861.933-1.029.623-1.855 1.427-2.477 2.413-.622.987-1.062 2.123-1.319 3.41-.257 1.287-.386 2.596-.386 3.925 0 1.33.129 2.628.386 3.893zm37.576-20.558v4.633h.192c1.158-1.93 2.659-3.334 4.505-4.214 1.844-.879 3.731-1.319 5.662-1.319 2.444 0 4.449.333 6.016.997 1.565.666 2.799 1.587 3.7 2.767.9 1.181 1.533 2.617 1.897 4.311.364 1.695.547 3.571.547 5.63v20.461h-9.137v-18.788c0-2.745-.429-4.794-1.286-6.145-.859-1.351-2.381-2.027-4.568-2.027-2.488 0-4.29.74-5.405 2.22-1.116 1.479-1.673 3.915-1.673 7.303v17.437h-9.137v-33.266h8.687zm45.811 0v6.113h-6.691v16.472c0 1.544.257 2.574.771 3.089.515.515 1.545.772 3.089.772.515 0 1.007-.021 1.479-.064.472-.042.922-.106 1.352-.193v7.078c-.772.129-1.631.214-2.574.257-.943.042-1.865.064-2.767.064-1.415 0-2.757-.097-4.021-.29-1.266-.193-2.38-.568-3.346-1.126-.965-.557-1.727-1.351-2.284-2.381-.558-1.029-.836-2.381-.836-4.054v-19.625h-5.534v-6.113h5.534v-9.973h9.137v9.973h6.691zm11.581-12.675v17.308h.193c1.158-1.93 2.638-3.334 4.439-4.214 1.802-.879 3.56-1.319 5.276-1.319 2.444 0 4.449.333 6.016.997 1.565.666 2.799 1.587 3.7 2.767.9 1.181 1.533 2.617 1.897 4.311.364 1.695.547 3.571.547 5.63v20.461h-9.137v-18.788c0-2.745-.429-4.794-1.286-6.145-.859-1.351-2.381-2.027-4.568-2.027-2.488 0-4.29.74-5.405 2.22-1.116 1.479-1.673 3.915-1.673 7.303v17.437h-9.137v-45.941h9.138zm37.64 36.032v9.909h-10.102v-9.909h10.102zm-2.831-3.861h-4.568l-2.444-19.818v-12.354h9.522v12.354l-2.51 19.818z"/></svg>