<svg xmlns="http://www.w3.org/2000/svg" width="750" height="510" viewBox="0 0 750 510"><path fill="#C62139" d="M60.006 402.5h586.668v3.666h-586.668z"/><path fill="#fff" d="M263.802 238.676h23.914v-45.019h46.121v-18.783h-46.121v-26.004h53.186v-20.123h-77.1v109.929zm181.365-12.625c-.258-2.464-.439-4.874-.539-7.235-.102-2.359-.205-4.412-.307-6.158-.207-2.771-.592-5.543-1.152-8.314-.562-2.771-1.459-5.312-2.688-7.621s-2.816-4.311-4.762-6.004c-1.945-1.692-4.402-2.949-7.371-3.771v-.309c6.145-2.464 10.57-6.056 13.283-10.776s4.07-10.315 4.07-16.782c0-4.207-.744-8.133-2.227-11.777-1.484-3.643-3.637-6.852-6.451-9.623-2.816-2.771-6.195-4.951-10.137-6.543-3.941-1.591-8.371-2.387-13.283-2.387h-58.73v109.929h24.113v-42.955h23.714c6.039 0 10.391 1.335 13.055 4.003 2.66 2.67 4.4 6.877 5.221 12.625.615 4.414 1.076 9.033 1.383 13.856.309 4.825 1.127 8.981 2.459 12.471h24.111c-1.129-1.54-1.973-3.411-2.533-5.62-.565-2.21-.975-4.545-1.229-7.009zm-27.723-51.269c-2.766 2.464-6.91 3.694-12.439 3.694h-26.018v-30.945h26.018c5.529 0 9.676 1.208 12.439 3.618 2.764 2.413 4.146 6.288 4.146 11.624.001 5.543-1.382 9.546-4.146 12.009zm72.03 16.628h53.139v-18.783h-53.139v-23.556h57.9v-20.323h-81.613v109.929h82.842v-20.923h-59.129v-26.344zm99.519 26.343v-26.343h53.141v-18.783h-53.141v-23.556h57.9v-20.323h-82.013v109.929h83.242v-20.923l-59.129-.001zm-401.51-31.246c-1.715-10.009-7.666-44.092-13.566-67.703-6.354-25.43-18.17-37.791-36.109-37.791-17.938 0-29.752 12.361-36.108 37.795-5.901 23.607-11.859 57.688-13.562 67.705-9.256 4.33-22.892 15.626-22.892 35.123 0 10.521 3.039 18.25 9.034 22.975 8.134 6.754 18.658 5.867 23.905 3.722 7.398-1.775 12.835 2.086 19.139 6.553 5.696 4.027 12.152 8.604 20.482 8.604 8.335 0 14.787-4.576 20.478-8.604 6.309-4.467 11.75-8.328 19.145-6.553 6.299 2.373 16.354 3.117 23.904-3.722 5.996-4.725 9.036-12.452 9.036-22.975.007-19.497-13.634-30.796-22.886-35.129zm7.41 49.928c-1.465 1.158-3.18 1.829-4.943 2.199-.982-1.362-5.455-4.668-15.494-4.668-14.717 0-19.373 15.152-36.647 15.152-16.551 0-22.801-15.152-36.646-15.152-10.042 0-14.513 3.311-15.49 4.668-1.762-.365-3.483-1.045-4.949-2.199-3.366-2.653-5.071-7.631-5.071-14.801 0-19.607 18.074-26.226 18.824-26.489 1.808-.626 3.133-2.188 3.44-4.07.068-.425 7.024-42.353 13.872-69.74 6.702-26.814 18.061-29.914 26.018-29.914 7.958 0 19.316 3.1 26.017 29.914 6.844 27.389 13.805 69.315 13.873 69.74.305 1.867 1.629 3.43 3.42 4.059.77.276 18.844 6.895 18.844 26.502.004 7.168-1.699 12.145-5.068 14.799zm-72.489-81.633c-2.817-.483-5.519 1.43-5.997 4.256-.114.668-2.967 25.967-8.054 43.272-.812 2.757.764 5.648 3.523 6.456.49.149.98.217 1.469.217 2.25 0 4.321-1.469 4.989-3.74 5.26-17.885 7.865-41.711 8.33-44.461.482-2.836-1.428-5.52-4.26-6zm-8.482 113.865l-.179-.048c-2.396-.646-4.861.773-5.507 3.168l-4.573 17.001c-.646 2.395.743 4.837 3.172 5.509 2.399.644 4.863-.775 5.507-3.168l4.576-17.004c.631-2.338-.71-4.745-2.996-5.458zm-16.667-4.74c-.62-.299-1.284-.438-1.931-.438-1.674 0-3.288.938-4.057 2.551-1.555 3.252-6.586 12.438-11.122 15.857-1.979 1.493-2.379 4.312-.882 6.29 1.491 1.984 4.308 2.381 6.291.886 7.101-5.351 13.156-17.762 13.82-19.158 1.071-2.242.123-4.921-2.119-5.988zm74.072 7.86c-.646-2.395-3.111-3.812-5.504-3.168l-.18.048c-2.285.714-3.621 3.12-2.992 5.458l4.576 17.004c.643 2.393 3.105 3.812 5.506 3.168 2.43-.672 3.814-3.114 3.168-5.509l-4.574-17.001zm28.093 10.109c-4.535-3.419-9.568-12.605-11.121-15.857-.77-1.611-2.383-2.551-4.059-2.551-.646 0-1.311.141-1.934.438-2.238 1.066-3.186 3.746-2.115 5.986.662 1.396 6.721 13.809 13.818 19.158 1.982 1.495 4.799 1.1 6.291-.886 1.497-1.976 1.099-4.794-.88-6.288zm-134.7 45.752l3.006 8.838h.036l2.844-8.838h3.978v12.852h-2.646v-9.108h-.036l-3.15 9.108h-2.178l-3.15-9.018h-.036v9.018h-2.646v-12.852h3.978zm11.97 6.408c.036-.6.186-1.098.45-1.494.264-.396.6-.713 1.008-.953.408-.24.867-.411 1.377-.514.51-.102 1.022-.152 1.539-.152.468 0 .942.033 1.422.099.479.066.918.195 1.314.387s.72.459.972.801c.252.343.378.796.378 1.359v4.842c0 .421.024.822.072 1.206.048.385.132.673.252.864h-2.592c-.048-.144-.087-.291-.117-.441-.03-.149-.051-.303-.063-.459-.408.421-.888.715-1.44.883-.552.168-1.116.252-1.692.252-.444 0-.858-.055-1.242-.162-.384-.108-.72-.276-1.008-.504-.288-.229-.513-.517-.675-.864-.162-.348-.243-.762-.243-1.242 0-.527.093-.963.279-1.305s.426-.615.72-.819c.294-.204.63-.356 1.008-.459.378-.102.759-.183 1.143-.243s.762-.107 1.134-.144.702-.09.99-.162.516-.177.684-.315c.168-.138.246-.339.234-.603 0-.276-.045-.495-.135-.657-.09-.162-.21-.288-.36-.378s-.324-.149-.522-.18c-.198-.03-.411-.045-.639-.045-.504 0-.9.107-1.188.323-.288.217-.456.576-.504 1.08h-2.556zm5.904 1.89c-.108.096-.243.171-.405.225-.162.054-.336.099-.522.135l-.585.091c-.204.023-.408.054-.612.09-.192.036-.381.084-.567.144-.187.061-.348.142-.486.243-.138.102-.249.231-.333.387-.084.156-.126.354-.126.594 0 .229.042.421.126.576.084.156.198.279.342.369s.312.153.504.189.39.054.594.054c.504 0 .894-.084 1.17-.252.276-.168.479-.369.612-.604.132-.233.213-.471.243-.711.03-.239.045-.432.045-.575v-.955zm6.966-4.752v1.296h.054c.324-.54.744-.934 1.26-1.18.516-.245 1.044-.368 1.584-.368.684 0 1.245.093 1.683.278.438.187.783.444 1.035.774s.429.732.531 1.206.153.999.153 1.575v5.724h-2.556v-5.256c0-.768-.12-1.341-.36-1.719-.24-.378-.666-.567-1.278-.567-.696 0-1.2.207-1.512.621-.312.414-.468 1.095-.468 2.043v4.878h-2.556v-9.306h2.43zm11.682 12.078c-.492.323-1.176.485-2.052.485-.264 0-.525-.009-.783-.026l-.783-.063v-2.106l.738.072c.252.024.504.03.756.019.335-.036.585-.169.747-.396.162-.228.243-.479.243-.756 0-.204-.036-.396-.108-.576l-3.258-8.729h2.718l2.106 6.372h.036l2.034-6.372h2.646l-3.888 10.458c-.277.754-.661 1.294-1.152 1.618zm13.338-12.078v1.188h.036c.312-.504.708-.87 1.188-1.098s1.008-.342 1.584-.342c.732 0 1.362.138 1.89.414.528.275.966.642 1.314 1.098.348.456.606.987.774 1.593.168.606.252 1.239.252 1.899 0 .624-.084 1.224-.252 1.8s-.423 1.086-.765 1.53c-.342.443-.768.798-1.278 1.062s-1.107.396-1.791.396c-.576 0-1.107-.117-1.593-.352-.486-.233-.885-.579-1.197-1.035h-.036v4.41h-2.556v-12.563h2.43zm3.321 7.38c.282-.168.51-.388.684-.657.174-.27.297-.585.369-.945.072-.359.108-.726.108-1.098s-.039-.738-.117-1.098c-.078-.36-.207-.682-.387-.963-.18-.282-.411-.511-.693-.685-.282-.174-.627-.261-1.035-.261-.42 0-.771.087-1.053.261-.282.174-.51.399-.684.675-.174.276-.297.595-.369.954-.072.36-.108.732-.108 1.116 0 .372.039.738.117 1.098.078.36.204.676.378.945.174.27.405.489.693.657s.636.252 1.044.252c.42.001.771-.083 1.053-.251zm5.138-4.518c.036-.6.186-1.098.45-1.494.264-.396.6-.713 1.008-.953.408-.24.867-.411 1.377-.514.51-.102 1.022-.152 1.539-.152.468 0 .942.033 1.422.099.479.066.918.195 1.314.387s.72.459.972.801c.252.343.378.796.378 1.359v4.842c0 .421.024.822.072 1.206.048.385.132.673.252.864h-2.592c-.048-.144-.087-.291-.117-.441-.03-.149-.051-.303-.063-.459-.408.421-.888.715-1.44.883-.552.168-1.116.252-1.692.252-.444 0-.858-.055-1.242-.162-.384-.108-.72-.276-1.008-.504-.288-.229-.513-.517-.675-.864-.162-.348-.243-.762-.243-1.242 0-.527.093-.963.279-1.305s.426-.615.72-.819c.294-.204.63-.356 1.008-.459.378-.102.759-.183 1.143-.243s.762-.107 1.134-.144.702-.09.99-.162.516-.177.684-.315c.168-.138.246-.339.234-.603 0-.276-.045-.495-.135-.657-.09-.162-.21-.288-.36-.378s-.324-.149-.522-.18c-.198-.03-.411-.045-.639-.045-.504 0-.9.107-1.188.323-.288.217-.456.576-.504 1.08h-2.556zm5.904 1.89c-.108.096-.243.171-.405.225-.162.054-.336.099-.522.135l-.585.091c-.204.023-.408.054-.612.09-.192.036-.381.084-.567.144-.187.061-.348.142-.486.243-.138.102-.249.231-.333.387-.084.156-.126.354-.126.594 0 .229.042.421.126.576.084.156.198.279.342.369s.312.153.504.189.39.054.594.054c.504 0 .894-.084 1.17-.252.276-.168.479-.369.612-.604.132-.233.213-.471.243-.711.03-.239.045-.432.045-.575v-.955zm8.982-3.078c-.408 0-.75.093-1.026.279-.276.186-.501.426-.675.72s-.297.618-.369.972c-.072.354-.108.705-.108 1.053 0 .337.036.679.108 1.026.072.349.189.663.351.945.162.282.38.513.657.692.276.181.612.271 1.008.271.612 0 1.083-.171 1.413-.513.33-.343.537-.802.621-1.378h2.466c-.168 1.236-.648 2.179-1.44 2.826-.792.648-1.806.973-3.042.973-.696 0-1.335-.117-1.917-.352-.582-.233-1.077-.561-1.485-.98-.408-.42-.726-.921-.954-1.503s-.342-1.222-.342-1.917c0-.721.105-1.39.315-2.008.21-.617.519-1.151.927-1.602.408-.45.906-.801 1.494-1.053s1.26-.378 2.016-.378c.552 0 1.083.071 1.593.216.51.144.966.363 1.368.657.402.294.729.659.981 1.098s.396.957.432 1.557h-2.502c-.168-1.067-.798-1.601-1.89-1.601zm8.676-5.22v6.894l3.222-3.348h3.024l-3.51 3.42 3.906 5.886h-3.096l-2.556-4.158-.99.954v3.204h-2.556v-12.852h2.556zm10.278 10.62c.384.372.936.559 1.656.559.516 0 .96-.129 1.332-.387.372-.259.6-.531.684-.819h2.25c-.36 1.116-.912 1.914-1.656 2.394-.744.48-1.645.721-2.7.721-.732 0-1.392-.117-1.98-.352-.588-.233-1.086-.566-1.494-.999-.408-.432-.723-.947-.945-1.548-.222-.6-.333-1.26-.333-1.979 0-.696.114-1.345.342-1.944s.552-1.119.972-1.557c.42-.438.921-.783 1.503-1.035s1.227-.378 1.935-.378c.792 0 1.482.152 2.07.459.587.306 1.071.717 1.449 1.232.378.517.651 1.104.819 1.765.168.659.228 1.35.18 2.069h-6.714c.036.827.246 1.427.63 1.799zm2.889-4.896c-.306-.336-.771-.504-1.395-.504-.408 0-.747.069-1.017.207s-.486.309-.648.513-.276.42-.342.648c-.066.228-.105.432-.117.611h4.158c-.12-.647-.333-1.139-.639-1.475zm9.818-2.178v1.71h-1.872v4.607c0 .433.072.721.216.864.144.144.432.216.864.216l.414-.018.378-.055v1.98c-.216.036-.456.06-.72.072-.264.012-.522.018-.774.018-.396 0-.771-.026-1.125-.081-.354-.054-.666-.159-.936-.314-.27-.156-.483-.378-.639-.666-.156-.288-.234-.666-.234-1.135v-5.489h-1.548v-1.71h1.548v-2.79h2.556v2.79h1.872zm8.379 6.993c.114.198.261.36.441.486s.387.22.621.279.477.09.729.09c.18 0 .369-.021.567-.063.198-.041.378-.107.54-.197s.297-.21.405-.36c.108-.149.162-.339.162-.567 0-.384-.255-.672-.765-.863-.51-.192-1.221-.384-2.133-.576-.372-.084-.735-.183-1.089-.297-.354-.114-.669-.264-.945-.45-.276-.186-.498-.42-.666-.702-.168-.281-.252-.627-.252-1.035 0-.6.117-1.092.351-1.476.234-.384.543-.687.927-.909.384-.222.816-.378 1.296-.468s.972-.135 1.476-.135.993.048 1.467.144c.474.097.897.258 1.269.486.372.228.681.53.927.909.246.378.393.854.441 1.431h-2.43c-.036-.492-.222-.825-.558-.999s-.732-.261-1.188-.261l-.468.026c-.168.019-.321.058-.459.117-.138.061-.255.147-.351.261-.096.114-.144.268-.144.459 0 .229.084.414.252.559.168.144.387.261.657.351s.579.171.927.243l1.062.234c.372.084.735.186 1.089.306s.669.279.945.477c.276.198.498.444.666.738.168.294.252.657.252 1.089 0 .612-.123 1.125-.369 1.539s-.567.747-.963.999-.849.43-1.359.531c-.51.102-1.029.153-1.557.153-.54 0-1.068-.055-1.584-.162-.516-.108-.975-.288-1.377-.54-.402-.252-.732-.585-.99-.999-.258-.414-.399-.934-.423-1.558h2.43c0 .275.057.512.171.71zm9.945-6.993v1.296h.054c.324-.54.744-.934 1.26-1.18.516-.245 1.044-.368 1.584-.368.684 0 1.245.093 1.683.278.438.187.783.444 1.035.774s.429.732.531 1.206.153.999.153 1.575v5.724h-2.556v-5.256c0-.768-.12-1.341-.36-1.719-.24-.378-.666-.567-1.278-.567-.696 0-1.2.207-1.512.621-.312.414-.468 1.095-.468 2.043v4.878h-2.556v-9.306h2.43zm8.316-1.44v-2.105h2.556v2.105h-2.556zm2.556 1.44v9.306h-2.556v-9.306h2.556zm1.044 1.71v-1.71h1.53v-.721c0-.827.258-1.506.774-2.033.516-.528 1.296-.792 2.34-.792.228 0 .456.009.684.026l.666.045v1.908c-.3-.036-.612-.054-.936-.054-.348 0-.597.081-.747.243-.15.161-.225.435-.225.818v.559h1.764v1.71h-1.764v7.596h-2.556v-7.596h-1.53zm5.67 0v-1.71h1.53v-.721c0-.827.258-1.506.774-2.033.516-.528 1.296-.792 2.34-.792.228 0 .456.009.684.026l.666.045v1.908c-.3-.036-.612-.054-.936-.054-.348 0-.597.081-.747.243-.15.161-.225.435-.225.818v.559h1.764v1.71h-1.764v7.596h-2.556v-7.596h-1.53zm7.038-3.15v-2.105h2.556v2.105h-2.556zm2.556 1.44v9.306h-2.556v-9.306h2.556zm4.446 0v1.296h.054c.324-.54.744-.934 1.26-1.18.516-.245 1.044-.368 1.584-.368.684 0 1.245.093 1.683.278.438.187.783.444 1.035.774s.429.732.531 1.206.153.999.153 1.575v5.724h-2.556v-5.256c0-.768-.12-1.341-.36-1.719-.24-.378-.666-.567-1.278-.567-.696 0-1.2.207-1.512.621-.312.414-.468 1.095-.468 2.043v4.878h-2.556v-9.306h2.43zm17.037 9.99c-.102.48-.321.928-.657 1.342s-.822.765-1.458 1.053-1.488.432-2.556.432c-.457 0-.921-.057-1.395-.171-.475-.114-.906-.291-1.296-.531s-.714-.549-.972-.927-.405-.831-.441-1.358h2.538c.12.479.354.812.702.999.348.186.75.278 1.206.278.72 0 1.245-.216 1.575-.647.33-.433.489-.979.477-1.639v-1.224h-.036c-.276.492-.669.854-1.179 1.089-.51.234-1.047.352-1.611.352-.696 0-1.296-.123-1.8-.369s-.918-.582-1.242-1.009c-.324-.426-.561-.924-.711-1.493-.15-.57-.225-1.173-.225-1.81 0-.6.087-1.179.261-1.736.174-.559.429-1.051.765-1.477s.753-.765 1.251-1.017 1.071-.378 1.719-.378c.612 0 1.149.114 1.611.342s.849.612 1.161 1.151h.036v-1.241h2.43v8.712c0 .371-.052.797-.153 1.277zm-3.501-3.096c.276-.144.504-.336.684-.576.18-.239.315-.513.405-.818.09-.307.135-.627.135-.963 0-.385-.036-.747-.108-1.09-.072-.342-.192-.645-.36-.908-.168-.265-.39-.475-.666-.631-.276-.155-.624-.233-1.044-.233-.36 0-.669.072-.927.216-.258.144-.474.339-.648.585s-.3.528-.378.846c-.078.318-.117.651-.117.999 0 .336.033.669.099.999s.18.628.342.892c.162.264.375.479.639.647s.594.252.99.252c.36-.001.677-.073.954-.217zm13.139-6.894v1.188h.036c.312-.504.708-.87 1.188-1.098s1.008-.342 1.584-.342c.732 0 1.362.138 1.89.414.528.275.966.642 1.314 1.098.348.456.606.987.774 1.593.168.606.252 1.239.252 1.899 0 .624-.084 1.224-.252 1.8s-.423 1.086-.765 1.53c-.342.443-.768.798-1.278 1.062s-1.107.396-1.791.396c-.576 0-1.107-.117-1.593-.352-.486-.233-.885-.579-1.197-1.035h-.036v4.41h-2.556v-12.563h2.43zm3.322 7.38c.282-.168.51-.388.684-.657.174-.27.297-.585.369-.945.072-.359.108-.726.108-1.098s-.039-.738-.117-1.098c-.078-.36-.207-.682-.387-.963-.18-.282-.411-.511-.693-.685-.282-.174-.627-.261-1.035-.261-.42 0-.771.087-1.053.261-.282.174-.51.399-.684.675-.174.276-.297.595-.369.954-.072.36-.108.732-.108 1.116 0 .372.039.738.117 1.098.078.36.204.676.378.945.174.27.405.489.693.657s.636.252 1.044.252c.419.001.77-.083 1.053-.251zm7.676-7.38v1.728h.036c.12-.288.282-.555.486-.801s.438-.456.702-.63c.264-.174.546-.309.846-.405.3-.096.612-.144.936-.144.167 0 .354.029.558.09v2.376l-.432-.063c-.168-.018-.331-.026-.486-.026-.468 0-.864.078-1.188.233-.324.156-.585.369-.783.64-.198.27-.339.585-.423.944-.084.36-.126.75-.126 1.17v4.194h-2.556v-9.306h2.43zm4.302 2.637c.228-.605.552-1.122.972-1.548.42-.426.924-.756 1.512-.99s1.248-.351 1.98-.351c.731 0 1.395.116 1.989.351s1.101.564 1.521.99c.42.426.744.942.972 1.548.228.606.342 1.281.342 2.025s-.114 1.416-.342 2.016c-.228.601-.552 1.113-.972 1.539-.42.426-.927.753-1.521.98-.594.229-1.257.343-1.989.343-.732 0-1.393-.114-1.98-.343-.588-.228-1.092-.555-1.512-.98-.42-.426-.744-.938-.972-1.539-.228-.6-.342-1.271-.342-2.016s.114-1.418.342-2.025zm2.322 3.114c.072.354.195.672.369.954.174.281.405.507.693.675s.648.252 1.08.252c.432 0 .794-.084 1.089-.252.294-.168.528-.394.702-.675.174-.282.297-.601.369-.954.072-.354.108-.717.108-1.089s-.036-.738-.108-1.099c-.072-.359-.195-.678-.369-.954-.174-.275-.408-.501-.702-.675-.294-.174-.657-.261-1.089-.261-.432 0-.792.087-1.08.261s-.52.399-.693.675c-.174.276-.297.595-.369.954-.072.36-.108.727-.108 1.099s.036.735.108 1.089zm17.415 4.239c-.102.48-.321.928-.657 1.342s-.822.765-1.458 1.053-1.488.432-2.556.432c-.457 0-.921-.057-1.395-.171-.475-.114-.906-.291-1.296-.531s-.714-.549-.972-.927-.405-.831-.441-1.358h2.538c.12.479.354.812.702.999.348.186.75.278 1.206.278.72 0 1.245-.216 1.575-.647.33-.433.489-.979.477-1.639v-1.224h-.036c-.276.492-.669.854-1.179 1.089-.51.234-1.047.352-1.611.352-.696 0-1.296-.123-1.8-.369s-.918-.582-1.242-1.009c-.324-.426-.561-.924-.711-1.493-.15-.57-.225-1.173-.225-1.81 0-.6.087-1.179.261-1.736.174-.559.429-1.051.765-1.477s.753-.765 1.251-1.017 1.071-.378 1.719-.378c.612 0 1.149.114 1.611.342s.849.612 1.161 1.151h.036v-1.241h2.43v8.712c0 .371-.051.797-.153 1.277zm-3.501-3.096c.276-.144.504-.336.684-.576.18-.239.315-.513.405-.818.09-.307.135-.627.135-.963 0-.385-.036-.747-.108-1.09-.072-.342-.192-.645-.36-.908-.168-.265-.39-.475-.666-.631-.276-.155-.624-.233-1.044-.233-.36 0-.669.072-.927.216-.258.144-.474.339-.648.585s-.3.528-.378.846c-.078.318-.117.651-.117.999 0 .336.033.669.099.999s.18.628.342.892c.162.264.375.479.639.647s.594.252.99.252c.36-.001.678-.073.954-.217zm8.136-6.894v1.728h.036c.12-.288.282-.555.486-.801s.438-.456.702-.63c.264-.174.546-.309.846-.405.3-.096.612-.144.936-.144.167 0 .354.029.558.09v2.376l-.432-.063c-.168-.018-.331-.026-.486-.026-.468 0-.864.078-1.188.233-.324.156-.585.369-.783.64-.198.27-.339.585-.423.944-.084.36-.126.75-.126 1.17v4.194h-2.556v-9.306h2.43zm4.464 2.862c.036-.6.186-1.098.45-1.494.264-.396.6-.713 1.008-.953.408-.24.867-.411 1.377-.514.51-.102 1.022-.152 1.539-.152.468 0 .942.033 1.422.099.479.066.918.195 1.314.387s.72.459.972.801c.252.343.378.796.378 1.359v4.842c0 .421.024.822.072 1.206.048.385.132.673.252.864h-2.592c-.048-.144-.087-.291-.117-.441-.03-.149-.051-.303-.063-.459-.408.421-.888.715-1.44.883-.552.168-1.116.252-1.692.252-.444 0-.858-.055-1.242-.162-.384-.108-.72-.276-1.008-.504-.288-.229-.513-.517-.675-.864-.162-.348-.243-.762-.243-1.242 0-.527.093-.963.279-1.305s.426-.615.72-.819c.294-.204.63-.356 1.008-.459.378-.102.759-.183 1.143-.243s.762-.107 1.134-.144.702-.09.99-.162.516-.177.684-.315c.168-.138.246-.339.234-.603 0-.276-.045-.495-.135-.657-.09-.162-.21-.288-.36-.378s-.324-.149-.522-.18c-.198-.03-.411-.045-.639-.045-.504 0-.9.107-1.188.323-.288.217-.456.576-.504 1.08h-2.556zm5.904 1.89c-.108.096-.243.171-.405.225-.162.054-.336.099-.522.135l-.585.091c-.204.023-.408.054-.612.09-.192.036-.381.084-.567.144-.187.061-.348.142-.486.243-.138.102-.249.231-.333.387-.084.156-.126.354-.126.594 0 .229.042.421.126.576.084.156.198.279.342.369s.312.153.504.189.39.054.594.054c.504 0 .894-.084 1.17-.252.276-.168.479-.369.612-.604.132-.233.213-.471.243-.711.03-.239.045-.432.045-.575v-.955zm7.02-4.752v1.26h.036c.335-.479.741-.852 1.215-1.116.474-.264 1.017-.396 1.629-.396.588 0 1.125.114 1.611.342.486.228.855.63 1.107 1.206.276-.408.65-.768 1.125-1.08.474-.312 1.035-.468 1.683-.468.492 0 .948.06 1.368.18.42.12.78.312 1.08.576.3.264.534.609.702 1.035.167.426.252.938.252 1.539v6.228h-2.556v-5.274c0-.312-.012-.605-.036-.882-.024-.275-.09-.516-.198-.72s-.267-.366-.477-.486c-.21-.119-.495-.18-.855-.18s-.651.069-.873.207c-.222.138-.396.318-.522.54s-.21.474-.252.756c-.042.282-.063.567-.063.855v5.184h-2.556v-5.22c0-.276-.006-.549-.018-.819-.012-.27-.063-.519-.153-.747-.09-.228-.24-.411-.45-.549s-.519-.207-.927-.207c-.12 0-.279.027-.477.081-.198.054-.39.156-.576.306-.186.15-.345.366-.477.648s-.198.651-.198 1.106v5.4h-2.556v-9.306h2.412zm15.975 6.993c.114.198.261.36.441.486s.387.22.621.279.477.09.729.09c.18 0 .369-.021.567-.063.198-.041.378-.107.54-.197s.297-.21.405-.36c.108-.149.162-.339.162-.567 0-.384-.255-.672-.765-.863-.51-.192-1.221-.384-2.133-.576-.372-.084-.735-.183-1.089-.297-.354-.114-.669-.264-.945-.45-.276-.186-.498-.42-.666-.702-.168-.281-.252-.627-.252-1.035 0-.6.117-1.092.351-1.476.234-.384.543-.687.927-.909.384-.222.816-.378 1.296-.468s.972-.135 1.476-.135.993.048 1.467.144c.474.097.897.258 1.269.486.372.228.681.53.927.909.246.378.393.854.441 1.431h-2.43c-.036-.492-.222-.825-.558-.999s-.732-.261-1.188-.261l-.468.026c-.168.019-.321.058-.459.117-.138.061-.255.147-.351.261-.096.114-.144.268-.144.459 0 .229.084.414.252.559.168.144.387.261.657.351s.579.171.927.243l1.062.234c.372.084.735.186 1.089.306s.669.279.945.477c.276.198.498.444.666.738.168.294.252.657.252 1.089 0 .612-.123 1.125-.369 1.539s-.567.747-.963.999-.849.43-1.359.531c-.51.102-1.029.153-1.557.153-.54 0-1.068-.055-1.584-.162-.516-.108-.975-.288-1.377-.54-.402-.252-.732-.585-.99-.999-.258-.414-.399-.934-.423-1.558h2.43c0 .275.056.512.171.71zm12.41-4.131c.036-.6.186-1.098.45-1.494.264-.396.6-.713 1.008-.953.408-.24.867-.411 1.377-.514.51-.102 1.022-.152 1.539-.152.468 0 .942.033 1.422.099.479.066.918.195 1.314.387s.72.459.972.801c.252.343.378.796.378 1.359v4.842c0 .421.024.822.072 1.206.048.385.132.673.252.864h-2.592c-.048-.144-.087-.291-.117-.441-.03-.149-.051-.303-.063-.459-.408.421-.888.715-1.44.883-.552.168-1.116.252-1.692.252-.444 0-.858-.055-1.242-.162-.384-.108-.72-.276-1.008-.504-.288-.229-.513-.517-.675-.864-.162-.348-.243-.762-.243-1.242 0-.527.093-.963.279-1.305s.426-.615.72-.819c.294-.204.63-.356 1.008-.459.378-.102.759-.183 1.143-.243s.762-.107 1.134-.144.702-.09.99-.162.516-.177.684-.315c.168-.138.246-.339.234-.603 0-.276-.045-.495-.135-.657-.09-.162-.21-.288-.36-.378s-.324-.149-.522-.18c-.198-.03-.411-.045-.639-.045-.504 0-.9.107-1.188.323-.288.217-.456.576-.504 1.08h-2.556zm5.905 1.89c-.108.096-.243.171-.405.225-.162.054-.336.099-.522.135l-.585.091c-.204.023-.408.054-.612.09-.192.036-.381.084-.567.144-.187.061-.348.142-.486.243-.138.102-.249.231-.333.387-.084.156-.126.354-.126.594 0 .229.042.421.126.576.084.156.198.279.342.369s.312.153.504.189.39.054.594.054c.504 0 .894-.084 1.17-.252.276-.168.479-.369.612-.604.132-.233.213-.471.243-.711.03-.239.045-.432.045-.575v-.955zm6.965-4.752v1.728h.036c.12-.288.282-.555.486-.801s.438-.456.702-.63c.264-.174.546-.309.846-.405.3-.096.612-.144.936-.144.167 0 .354.029.558.09v2.376l-.432-.063c-.168-.018-.331-.026-.486-.026-.468 0-.864.078-1.188.233-.324.156-.585.369-.783.64-.198.27-.339.585-.423.944-.084.36-.126.75-.126 1.17v4.194h-2.556v-9.306h2.43zm6.984 7.074c.384.372.936.559 1.656.559.516 0 .96-.129 1.332-.387.372-.259.6-.531.684-.819h2.25c-.36 1.116-.912 1.914-1.656 2.394-.744.48-1.645.721-2.7.721-.732 0-1.392-.117-1.98-.352-.588-.233-1.086-.566-1.494-.999-.408-.432-.723-.947-.945-1.548-.222-.6-.333-1.26-.333-1.979 0-.696.114-1.345.342-1.944s.552-1.119.972-1.557c.42-.438.921-.783 1.503-1.035s1.227-.378 1.935-.378c.792 0 1.482.152 2.07.459.587.306 1.071.717 1.449 1.232.378.517.651 1.104.819 1.765.168.659.228 1.35.18 2.069h-6.714c.036.827.246 1.427.63 1.799zm2.889-4.896c-.306-.336-.771-.504-1.395-.504-.408 0-.747.069-1.017.207s-.486.309-.648.513-.276.42-.342.648c-.066.228-.105.432-.117.611h4.158c-.12-.647-.333-1.139-.639-1.475zm8.739-.468v-1.71h1.53v-.721c0-.827.258-1.506.774-2.033.516-.528 1.296-.792 2.34-.792.228 0 .456.009.684.026l.666.045v1.908c-.3-.036-.612-.054-.936-.054-.348 0-.597.081-.747.243-.15.161-.225.435-.225.818v.559h1.764v1.71h-1.764v7.596h-2.556v-7.596h-1.53zm9.396-1.71v1.728h.036c.12-.288.282-.555.486-.801s.438-.456.702-.63c.264-.174.546-.309.846-.405.3-.096.612-.144.936-.144.167 0 .354.029.558.09v2.376l-.432-.063c-.168-.018-.331-.026-.486-.026-.468 0-.864.078-1.188.233-.324.156-.585.369-.783.64-.198.27-.339.585-.423.944-.084.36-.126.75-.126 1.17v4.194h-2.556v-9.306h2.43zm6.984 7.074c.385.372.936.559 1.656.559.516 0 .961-.129 1.332-.387.371-.259.6-.531.684-.819h2.25c-.359 1.116-.912 1.914-1.656 2.394-.744.48-1.643.721-2.699.721-.732 0-1.393-.117-1.98-.352-.588-.233-1.086-.566-1.494-.999-.407-.432-.723-.947-.944-1.548-.222-.6-.333-1.26-.333-1.979 0-.696.113-1.345.342-1.944s.553-1.119.973-1.557c.42-.438.92-.783 1.502-1.035s1.227-.378 1.936-.378c.793 0 1.482.152 2.07.459.588.306 1.07.717 1.449 1.232.377.517.65 1.104.818 1.765.168.659.229 1.35.18 2.069h-6.713c.033.827.244 1.427.627 1.799zm2.888-4.896c-.305-.336-.77-.504-1.395-.504-.408 0-.746.069-1.018.207-.27.138-.484.309-.646.513s-.277.42-.342.648c-.066.228-.105.432-.117.611h4.158c-.12-.647-.333-1.139-.64-1.475zm7.444 4.896c.384.372.936.559 1.656.559.516 0 .96-.129 1.332-.387.371-.259.6-.531.684-.819h2.25c-.36 1.116-.912 1.914-1.656 2.394-.744.48-1.644.721-2.699.721-.732 0-1.393-.117-1.98-.352-.588-.233-1.086-.566-1.494-.999-.408-.432-.723-.947-.944-1.548-.223-.6-.333-1.26-.333-1.979 0-.696.113-1.345.342-1.944.228-.6.552-1.119.972-1.557.42-.438.921-.783 1.503-1.035s1.227-.378 1.936-.378c.792 0 1.481.152 2.069.459.588.306 1.071.717 1.449 1.232.378.517.65 1.104.819 1.765.168.659.228 1.35.18 2.069h-6.714c.034.827.244 1.427.628 1.799zm2.888-4.896c-.306-.336-.771-.504-1.395-.504-.408 0-.747.069-1.018.207-.27.138-.485.309-.647.513s-.276.42-.342.648c-.066.228-.105.432-.117.611h4.158c-.119-.647-.332-1.139-.639-1.475zm14.824-2.178v1.71h-1.872v4.607c0 .433.072.721.216.864.145.144.433.216.864.216l.414-.018.378-.055v1.98c-.216.036-.456.06-.72.072-.265.012-.522.018-.774.018-.396 0-.771-.026-1.125-.081-.354-.054-.666-.159-.936-.314-.271-.156-.483-.378-.64-.666-.155-.288-.233-.666-.233-1.135v-5.489h-1.548v-1.71h1.548v-2.79h2.556v2.79h1.872zm1.278 2.637c.228-.605.552-1.122.972-1.548s.924-.756 1.512-.99 1.248-.351 1.98-.351c.731 0 1.395.116 1.988.351.595.234 1.102.564 1.521.99s.744.942.972 1.548c.229.606.343 1.281.343 2.025s-.114 1.416-.343 2.016c-.228.601-.552 1.113-.972 1.539s-.927.753-1.521.98c-.594.229-1.257.343-1.988.343-.732 0-1.393-.114-1.98-.343-.588-.228-1.092-.555-1.512-.98s-.744-.938-.972-1.539c-.229-.6-.343-1.271-.343-2.016s.114-1.418.343-2.025zm2.321 3.114c.072.354.195.672.369.954.174.281.405.507.693.675s.647.252 1.08.252c.432 0 .795-.084 1.089-.252s.527-.394.702-.675c.174-.282.297-.601.369-.954.071-.354.107-.717.107-1.089s-.036-.738-.107-1.099c-.072-.359-.195-.678-.369-.954-.175-.275-.408-.501-.702-.675s-.657-.261-1.089-.261c-.433 0-.792.087-1.08.261s-.52.399-.693.675c-.174.276-.297.595-.369.954-.071.36-.107.727-.107 1.099s.036.735.107 1.089zm20.233 2.367c-.3.505-.693.867-1.179 1.09-.486.222-1.035.333-1.647.333-.696 0-1.308-.136-1.836-.405-.528-.271-.963-.636-1.305-1.098-.343-.462-.601-.993-.774-1.594-.174-.6-.261-1.224-.261-1.872 0-.623.087-1.227.261-1.809s.432-1.095.774-1.539c.342-.443.771-.801 1.287-1.071.516-.27 1.115-.404 1.8-.404.552 0 1.077.116 1.575.351.497.234.891.579 1.179 1.035h.036v-4.68h2.556v12.851h-2.43v-1.188h-.036zm-.109-4.599c-.071-.354-.195-.666-.369-.936-.174-.271-.398-.489-.675-.657s-.624-.252-1.044-.252-.773.084-1.062.252-.52.39-.693.666-.3.591-.378.945c-.078.354-.117.723-.117 1.106 0 .36.042.72.126 1.08s.219.682.405.963c.186.282.42.511.702.685.281.174.621.261 1.017.261.42 0 .771-.084 1.053-.252.282-.168.507-.394.676-.675.168-.282.288-.604.359-.964.072-.359.108-.731.108-1.115s-.036-.753-.108-1.107zm4.555-.882c.228-.605.552-1.122.972-1.548s.924-.756 1.512-.99 1.248-.351 1.98-.351c.731 0 1.395.116 1.988.351.595.234 1.102.564 1.521.99s.744.942.972 1.548c.229.606.343 1.281.343 2.025s-.114 1.416-.343 2.016c-.228.601-.552 1.113-.972 1.539s-.927.753-1.521.98c-.594.229-1.257.343-1.988.343-.732 0-1.393-.114-1.98-.343-.588-.228-1.092-.555-1.512-.98s-.744-.938-.972-1.539c-.229-.6-.343-1.271-.343-2.016s.114-1.418.343-2.025zm2.321 3.114c.072.354.195.672.369.954.174.281.405.507.693.675s.647.252 1.08.252c.432 0 .795-.084 1.089-.252s.527-.394.702-.675c.174-.282.297-.601.369-.954.071-.354.107-.717.107-1.089s-.036-.738-.107-1.099c-.072-.359-.195-.678-.369-.954-.175-.275-.408-.501-.702-.675s-.657-.261-1.089-.261c-.433 0-.792.087-1.08.261s-.52.399-.693.675c-.174.276-.297.595-.369.954-.071.36-.107.727-.107 1.099s.036.735.107 1.089zm16.632 3.555l-1.656-6.246h-.036l-1.584 6.246h-2.646l-2.951-9.306h2.699l1.71 6.317h.036l1.548-6.317h2.484l1.584 6.3h.036l1.71-6.3h2.628l-2.934 9.306h-2.628zm9.072-9.306v1.296h.054c.324-.54.744-.934 1.26-1.18.516-.245 1.044-.368 1.584-.368.685 0 1.245.093 1.684.278.438.187.782.444 1.034.774s.43.732.531 1.206.153.999.153 1.575v5.724h-2.556v-5.256c0-.768-.12-1.341-.36-1.719s-.666-.567-1.278-.567c-.696 0-1.2.207-1.512.621-.312.414-.468 1.095-.468 2.043v4.878h-2.557v-9.306h2.431zm10.871-3.546v12.852h-2.556v-12.852h2.556zm2.071 6.183c.228-.605.552-1.122.972-1.548s.924-.756 1.512-.99 1.248-.351 1.98-.351c.731 0 1.395.116 1.988.351.595.234 1.102.564 1.521.99s.744.942.972 1.548c.229.606.343 1.281.343 2.025s-.114 1.416-.343 2.016c-.228.601-.552 1.113-.972 1.539s-.927.753-1.521.98c-.594.229-1.257.343-1.988.343-.732 0-1.393-.114-1.98-.343-.588-.228-1.092-.555-1.512-.98s-.744-.938-.972-1.539c-.229-.6-.343-1.271-.343-2.016s.114-1.418.343-2.025zm2.321 3.114c.072.354.195.672.369.954.174.281.405.507.693.675s.647.252 1.08.252c.432 0 .795-.084 1.089-.252s.527-.394.702-.675c.174-.282.297-.601.369-.954.071-.354.107-.717.107-1.089s-.036-.738-.107-1.099c-.072-.359-.195-.678-.369-.954-.175-.275-.408-.501-.702-.675s-.657-.261-1.089-.261c-.433 0-.792.087-1.08.261s-.52.399-.693.675c-.174.276-.297.595-.369.954-.071.36-.107.727-.107 1.099s.036.735.107 1.089zm8.515-2.889c.036-.6.186-1.098.45-1.494.264-.396.6-.713 1.008-.953.407-.24.866-.411 1.377-.514.51-.102 1.022-.152 1.539-.152.468 0 .941.033 1.422.099.479.066.918.195 1.313.387.396.192.721.459.973.801.252.343.378.796.378 1.359v4.842c0 .421.023.822.072 1.206.047.385.132.673.252.864h-2.593c-.048-.144-.087-.291-.116-.441-.03-.149-.052-.303-.063-.459-.408.421-.888.715-1.44.883-.552.168-1.115.252-1.691.252-.444 0-.858-.055-1.242-.162-.384-.108-.72-.276-1.008-.504-.288-.229-.513-.517-.675-.864s-.243-.762-.243-1.242c0-.527.093-.963.279-1.305.186-.342.426-.615.72-.819s.63-.356 1.008-.459c.378-.102.759-.183 1.143-.243.385-.06.763-.107 1.135-.144.371-.036.701-.09.989-.162s.517-.177.685-.315c.168-.138.246-.339.233-.603 0-.276-.045-.495-.135-.657s-.21-.288-.359-.378c-.15-.09-.324-.149-.522-.18s-.411-.045-.639-.045c-.504 0-.9.107-1.188.323-.288.217-.456.576-.504 1.08h-2.558zm5.903 1.89c-.107.096-.242.171-.404.225s-.336.099-.522.135c-.186.036-.381.066-.585.091-.204.023-.408.054-.612.09-.191.036-.381.084-.566.144-.187.061-.349.142-.486.243s-.249.231-.333.387c-.084.156-.126.354-.126.594 0 .229.042.421.126.576.084.156.198.279.342.369.145.09.312.153.504.189.192.036.391.054.595.054.504 0 .894-.084 1.17-.252.275-.168.479-.369.612-.604.132-.233.213-.471.242-.711.03-.239.045-.432.045-.575v-.955zm11.142 3.366c-.3.505-.693.867-1.179 1.09-.486.222-1.035.333-1.647.333-.696 0-1.308-.136-1.836-.405-.528-.271-.963-.636-1.305-1.098-.343-.462-.601-.993-.774-1.594-.174-.6-.261-1.224-.261-1.872 0-.623.087-1.227.261-1.809s.432-1.095.774-1.539c.342-.443.771-.801 1.287-1.071.516-.27 1.115-.404 1.8-.404.552 0 1.077.116 1.575.351.497.234.891.579 1.179 1.035h.036v-4.68h2.556v12.851h-2.43v-1.188h-.036zm-.108-4.599c-.071-.354-.195-.666-.369-.936-.174-.271-.398-.489-.675-.657s-.624-.252-1.044-.252-.773.084-1.062.252-.52.39-.693.666-.3.591-.378.945c-.078.354-.117.723-.117 1.106 0 .36.042.72.126 1.08s.219.682.405.963c.186.282.42.511.702.685.281.174.621.261 1.017.261.42 0 .771-.084 1.053-.252.282-.168.507-.394.676-.675.168-.282.288-.604.359-.964.072-.359.108-.731.108-1.115s-.036-.753-.108-1.107zm7.452 3.015v2.772c0 .408-.075.783-.225 1.125-.15.342-.352.639-.604.891s-.549.459-.891.621-.705.273-1.089.333v-1.296c.18-.036.351-.107.513-.216s.303-.237.423-.387c.12-.15.21-.318.271-.504.06-.187.084-.376.071-.567h-1.296v-2.772h2.827zm9.207.459c.114.198.261.36.441.486s.387.22.62.279c.234.06.478.09.729.09.18 0 .369-.021.567-.063.197-.041.378-.107.54-.197.161-.09.297-.21.404-.36.108-.149.162-.339.162-.567 0-.384-.255-.672-.765-.863-.511-.192-1.222-.384-2.133-.576-.372-.084-.735-.183-1.09-.297-.354-.114-.669-.264-.944-.45-.276-.186-.498-.42-.666-.702-.168-.281-.252-.627-.252-1.035 0-.6.117-1.092.351-1.476.234-.384.543-.687.927-.909.385-.222.816-.378 1.296-.468.48-.09.973-.135 1.477-.135s.993.048 1.467.144c.474.097.897.258 1.27.486.371.228.681.53.927.909.246.378.393.854.44 1.431h-2.43c-.036-.492-.222-.825-.558-.999s-.732-.261-1.188-.261l-.468.026c-.168.019-.321.058-.459.117-.138.061-.255.147-.351.261-.097.114-.145.268-.145.459 0 .229.084.414.252.559.168.144.387.261.657.351.27.09.579.171.927.243l1.062.234c.371.084.734.186 1.089.306.354.12.669.279.944.477.276.198.498.444.666.738s.252.657.252 1.089c0 .612-.123 1.125-.368 1.539-.246.414-.567.747-.964.999-.396.252-.849.43-1.358.531-.511.102-1.029.153-1.557.153-.54 0-1.068-.055-1.585-.162-.516-.108-.975-.288-1.377-.54-.401-.252-.731-.585-.989-.999-.259-.414-.399-.934-.423-1.558h2.43c.002.275.059.512.173.71zm7.57-4.356c.228-.605.552-1.122.972-1.548s.924-.756 1.512-.99 1.248-.351 1.98-.351c.731 0 1.395.116 1.988.351.595.234 1.102.564 1.521.99s.744.942.972 1.548c.229.606.343 1.281.343 2.025s-.114 1.416-.343 2.016c-.228.601-.552 1.113-.972 1.539s-.927.753-1.521.98c-.594.229-1.257.343-1.988.343-.732 0-1.393-.114-1.98-.343-.588-.228-1.092-.555-1.512-.98s-.744-.938-.972-1.539c-.229-.6-.343-1.271-.343-2.016s.114-1.418.343-2.025zm2.321 3.114c.072.354.195.672.369.954.174.281.405.507.693.675s.647.252 1.08.252c.432 0 .795-.084 1.089-.252s.527-.394.702-.675c.174-.282.297-.601.369-.954.071-.354.107-.717.107-1.089s-.036-.738-.107-1.099c-.072-.359-.195-.678-.369-.954-.175-.275-.408-.501-.702-.675s-.657-.261-1.089-.261c-.433 0-.792.087-1.08.261s-.52.399-.693.675c-.174.276-.297.595-.369.954-.071.36-.107.727-.107 1.099s.036.735.107 1.089zm18.737-5.751v1.71h-1.872v4.607c0 .433.072.721.216.864.145.144.433.216.864.216l.414-.018.378-.055v1.98c-.216.036-.456.06-.72.072-.265.012-.522.018-.774.018-.396 0-.771-.026-1.125-.081-.354-.054-.666-.159-.936-.314-.271-.156-.483-.378-.64-.666-.155-.288-.233-.666-.233-1.135v-5.489h-1.548v-1.71h1.548v-2.79h2.556v2.79h1.872zm3.78-3.546v4.842h.054c.324-.54.738-.934 1.242-1.18.504-.245.996-.368 1.476-.368.685 0 1.245.093 1.684.278.438.187.782.444 1.034.774s.43.732.531 1.206.153.999.153 1.575v5.724h-2.556v-5.256c0-.768-.12-1.341-.36-1.719s-.666-.567-1.278-.567c-.696 0-1.2.207-1.512.621-.312.414-.468 1.095-.468 2.043v4.878h-2.557v-12.852h2.557zm10.854 10.62c.384.372.936.559 1.656.559.516 0 .96-.129 1.332-.387.371-.259.6-.531.684-.819h2.25c-.36 1.116-.912 1.914-1.656 2.394-.744.48-1.644.721-2.699.721-.732 0-1.393-.117-1.98-.352-.588-.233-1.086-.566-1.494-.999-.408-.432-.723-.947-.944-1.548-.223-.6-.333-1.26-.333-1.979 0-.696.113-1.345.342-1.944.228-.6.552-1.119.972-1.557.42-.438.921-.783 1.503-1.035s1.227-.378 1.936-.378c.792 0 1.481.152 2.069.459.588.306 1.071.717 1.449 1.232.378.517.65 1.104.819 1.765.168.659.228 1.35.18 2.069h-6.714c.034.827.244 1.427.628 1.799zm2.889-4.896c-.306-.336-.771-.504-1.395-.504-.408 0-.747.069-1.018.207-.27.138-.485.309-.647.513s-.276.42-.342.648c-.066.228-.105.432-.117.611h4.158c-.12-.647-.333-1.139-.639-1.475zm7.137-2.178v1.728h.036c.119-.288.281-.555.485-.801s.438-.456.702-.63.546-.309.846-.405c.3-.096.612-.144.937-.144.168 0 .354.029.558.09v2.376l-.432-.063c-.168-.018-.33-.026-.486-.026-.468 0-.864.078-1.188.233-.324.156-.585.369-.783.64-.198.27-.339.585-.423.944-.084.36-.126.75-.126 1.17v4.194h-2.557v-9.306h2.431zm6.984 7.074c.384.372.936.559 1.656.559.516 0 .96-.129 1.332-.387.371-.259.6-.531.684-.819h2.25c-.36 1.116-.912 1.914-1.656 2.394-.744.48-1.644.721-2.699.721-.732 0-1.393-.117-1.98-.352-.588-.233-1.086-.566-1.494-.999-.408-.432-.723-.947-.944-1.548-.223-.6-.333-1.26-.333-1.979 0-.696.113-1.345.342-1.944.228-.6.552-1.119.972-1.557.42-.438.921-.783 1.503-1.035s1.227-.378 1.936-.378c.792 0 1.481.152 2.069.459.588.306 1.071.717 1.449 1.232.378.517.65 1.104.819 1.765.168.659.228 1.35.18 2.069h-6.714c.034.827.244 1.427.628 1.799zm2.888-4.896c-.306-.336-.771-.504-1.395-.504-.408 0-.747.069-1.018.207-.27.138-.485.309-.647.513s-.276.42-.342.648c-.066.228-.105.432-.117.611h4.158c-.119-.647-.332-1.139-.639-1.475zm9.784-3.618v-2.105h2.556v2.105h-2.556zm2.555 1.44v9.306h-2.556v-9.306h2.556zm4.168 6.993c.114.198.261.36.441.486s.387.22.62.279c.234.06.478.09.729.09.18 0 .369-.021.567-.063.197-.041.378-.107.54-.197.161-.09.297-.21.404-.36.108-.149.162-.339.162-.567 0-.384-.255-.672-.765-.863-.511-.192-1.222-.384-2.133-.576-.372-.084-.735-.183-1.09-.297-.354-.114-.669-.264-.944-.45-.276-.186-.498-.42-.666-.702-.168-.281-.252-.627-.252-1.035 0-.6.117-1.092.351-1.476.234-.384.543-.687.927-.909.385-.222.816-.378 1.296-.468.48-.09.973-.135 1.477-.135s.993.048 1.467.144c.474.097.897.258 1.27.486.371.228.681.53.927.909.246.378.393.854.44 1.431h-2.43c-.036-.492-.222-.825-.558-.999s-.732-.261-1.188-.261l-.468.026c-.168.019-.321.058-.459.117-.138.061-.255.147-.351.261-.097.114-.145.268-.145.459 0 .229.084.414.252.559.168.144.387.261.657.351.27.09.579.171.927.243l1.062.234c.371.084.734.186 1.089.306.354.12.669.279.944.477.276.198.498.444.666.738s.252.657.252 1.089c0 .612-.123 1.125-.368 1.539-.246.414-.567.747-.964.999-.396.252-.849.43-1.358.531-.511.102-1.029.153-1.557.153-.54 0-1.068-.055-1.585-.162-.516-.108-.975-.288-1.377-.54-.401-.252-.731-.585-.989-.999-.259-.414-.399-.934-.423-1.558h2.43c.002.275.059.512.173.71zm9.945-6.993v1.296h.054c.324-.54.744-.934 1.26-1.18.516-.245 1.044-.368 1.584-.368.685 0 1.245.093 1.684.278.438.187.782.444 1.034.774s.43.732.531 1.206.153.999.153 1.575v5.724h-2.556v-5.256c0-.768-.12-1.341-.36-1.719s-.666-.567-1.278-.567c-.696 0-1.2.207-1.512.621-.312.414-.468 1.095-.468 2.043v4.878h-2.557v-9.306h2.431zm11.051-3.546v2.754c.012.396-.045.768-.171 1.115-.126.349-.304.654-.531.918-.229.265-.501.483-.819.657-.318.175-.663.285-1.035.333v-1.188c.456-.156.769-.388.937-.693s.252-.681.252-1.125h-1.188v-2.771h2.555zm6.985 3.546v1.71h-1.872v4.607c0 .433.072.721.216.864.145.144.433.216.864.216l.414-.018.378-.055v1.98c-.216.036-.456.06-.72.072-.265.012-.522.018-.774.018-.396 0-.771-.026-1.125-.081-.354-.054-.666-.159-.936-.314-.271-.156-.483-.378-.64-.666-.155-.288-.233-.666-.233-1.135v-5.489h-1.548v-1.71h1.548v-2.79h2.556v2.79h1.872zm-565.931 21v1.26h.036c.335-.479.741-.852 1.215-1.116.474-.264 1.017-.396 1.629-.396.588 0 1.125.114 1.611.342.486.228.855.63 1.107 1.206.276-.408.65-.768 1.125-1.08.474-.312 1.035-.468 1.683-.468.492 0 .948.06 1.368.18.42.12.78.312 1.08.576.3.264.534.609.702 1.035.167.426.252.938.252 1.539v6.228h-2.556v-5.274c0-.312-.012-.605-.036-.882-.024-.275-.09-.516-.198-.72s-.267-.366-.477-.486c-.21-.119-.495-.18-.855-.18s-.651.069-.873.207c-.222.138-.396.318-.522.54s-.21.474-.252.756c-.042.282-.063.567-.063.855v5.184h-2.556v-5.22c0-.276-.006-.549-.018-.819-.012-.27-.063-.519-.153-.747-.09-.228-.24-.411-.45-.549s-.519-.207-.927-.207c-.12 0-.279.027-.477.081-.198.054-.39.156-.576.306-.186.15-.345.366-.477.648s-.198.652-.198 1.107v5.4h-2.556v-9.306h2.412zm20.124 9.306v-1.296h-.054c-.324.54-.744.93-1.26 1.17-.516.24-1.044.36-1.584.36-.684 0-1.245-.091-1.683-.271s-.783-.435-1.035-.765c-.252-.33-.429-.732-.531-1.206s-.153-.999-.153-1.575v-5.724h2.556v5.256c0 .768.12 1.341.36 1.719.24.378.666.567 1.278.567.696 0 1.2-.207 1.512-.621.312-.414.468-1.095.468-2.043v-4.878h2.556v9.306h-2.43zm8.819-7.632c-.408 0-.75.093-1.026.279-.276.186-.501.426-.675.72s-.297.618-.369.972c-.072.354-.108.705-.108 1.053 0 .337.036.679.108 1.026.072.349.189.663.351.945.162.282.38.513.657.692.276.181.612.271 1.008.271.612 0 1.083-.171 1.413-.513.33-.343.537-.802.621-1.378h2.466c-.168 1.236-.648 2.179-1.44 2.826-.792.648-1.806.973-3.042.973-.696 0-1.335-.117-1.917-.352-.582-.233-1.077-.561-1.485-.98-.408-.42-.726-.921-.954-1.503s-.342-1.222-.342-1.917c0-.721.105-1.39.315-2.008.21-.617.519-1.151.927-1.602.408-.45.906-.801 1.494-1.053s1.26-.378 2.016-.378c.552 0 1.083.071 1.593.216.51.144.966.363 1.368.657.402.294.729.659.981 1.098s.396.957.432 1.557h-2.501c-.169-1.067-.799-1.601-1.891-1.601zm8.442-5.22v4.842h.054c.324-.54.738-.934 1.242-1.18.504-.245.996-.368 1.476-.368.684 0 1.245.093 1.683.278.438.187.783.444 1.035.774s.429.732.531 1.206.153.999.153 1.575v5.724h-2.556v-5.256c0-.768-.12-1.341-.36-1.719-.24-.378-.666-.567-1.278-.567-.696 0-1.2.207-1.512.621-.312.414-.468 1.095-.468 2.043v4.878h-2.556v-12.852h2.556zm15.273 10.539c.114.198.261.36.441.486s.387.22.621.279.477.09.729.09c.18 0 .369-.021.567-.063.198-.041.378-.107.54-.197s.297-.21.405-.36c.108-.149.162-.339.162-.567 0-.384-.255-.672-.765-.863-.51-.192-1.221-.384-2.133-.576-.372-.084-.735-.183-1.089-.297-.354-.114-.669-.264-.945-.45-.276-.186-.498-.42-.666-.702-.168-.281-.252-.627-.252-1.035 0-.6.117-1.092.351-1.476.234-.384.543-.687.927-.909.384-.222.816-.378 1.296-.468s.972-.135 1.476-.135.993.048 1.467.144c.474.097.897.258 1.269.486.372.228.681.53.927.909.246.378.393.854.441 1.431h-2.43c-.036-.492-.222-.825-.558-.999s-.732-.261-1.188-.261l-.468.026c-.168.019-.321.058-.459.117-.138.061-.255.147-.351.261-.096.114-.144.268-.144.459 0 .229.084.414.252.559.168.144.387.261.657.351s.579.171.927.243l1.062.234c.372.084.735.186 1.089.306s.669.279.945.477c.276.198.498.444.666.738.168.294.252.657.252 1.089 0 .612-.123 1.125-.369 1.539s-.567.747-.963.999-.849.43-1.359.531c-.51.102-1.029.153-1.557.153-.54 0-1.068-.055-1.584-.162-.516-.108-.975-.288-1.377-.54-.402-.252-.732-.585-.99-.999-.258-.414-.399-.934-.423-1.558h2.43c0 .275.057.512.171.71zm12.627-6.993v1.71h-1.872v4.607c0 .433.072.721.216.864.144.144.432.216.864.216l.414-.018.378-.055v1.98c-.216.036-.456.06-.72.072-.264.012-.522.018-.774.018-.396 0-.771-.026-1.125-.081-.354-.054-.666-.159-.936-.314-.27-.156-.483-.378-.639-.666-.156-.288-.234-.666-.234-1.135v-5.489h-1.548v-1.71h1.548v-2.79h2.556v2.79h1.872zm1.278 2.637c.228-.605.552-1.122.972-1.548.42-.426.924-.756 1.512-.99s1.248-.351 1.98-.351c.731 0 1.395.116 1.989.351s1.101.564 1.521.99c.42.426.744.942.972 1.548.228.606.342 1.281.342 2.025s-.114 1.416-.342 2.016c-.228.601-.552 1.113-.972 1.539-.42.426-.927.753-1.521.98-.594.229-1.257.343-1.989.343-.732 0-1.393-.114-1.98-.343-.588-.228-1.092-.555-1.512-.98-.42-.426-.744-.938-.972-1.539-.228-.6-.342-1.271-.342-2.016s.114-1.418.342-2.025zm2.322 3.114c.072.354.195.672.369.954.174.281.405.507.693.675s.648.252 1.08.252c.432 0 .794-.084 1.089-.252.294-.168.528-.394.702-.675.174-.282.297-.601.369-.954.072-.354.108-.717.108-1.089s-.036-.738-.108-1.099c-.072-.359-.195-.678-.369-.954-.174-.275-.408-.501-.702-.675-.294-.174-.657-.261-1.089-.261-.432 0-.792.087-1.08.261s-.52.399-.693.675c-.174.276-.297.595-.369.954-.072.36-.108.727-.108 1.099s.036.735.108 1.089zm11.052-5.751v1.188h.036c.312-.504.708-.87 1.188-1.098s1.008-.342 1.584-.342c.732 0 1.362.138 1.89.414.528.275.966.642 1.314 1.098.348.456.606.987.774 1.593.168.606.252 1.239.252 1.899 0 .624-.084 1.224-.252 1.8s-.423 1.086-.765 1.53c-.342.443-.768.798-1.278 1.062s-1.107.396-1.791.396c-.576 0-1.107-.117-1.593-.352-.486-.233-.885-.579-1.197-1.035h-.036v4.41h-2.556v-12.563h2.43zm3.321 7.38c.282-.168.51-.388.684-.657.174-.27.297-.585.369-.945.072-.359.108-.726.108-1.098s-.039-.738-.117-1.098c-.078-.36-.207-.682-.387-.963-.18-.282-.411-.511-.693-.685-.282-.174-.627-.261-1.035-.261-.42 0-.771.087-1.053.261-.282.174-.51.399-.684.675-.174.276-.297.595-.369.954-.072.36-.108.732-.108 1.116 0 .372.039.738.117 1.098.078.36.204.676.378.945.174.27.405.489.693.657s.636.252 1.044.252c.42.001.771-.083 1.053-.251zm7.676-7.38v1.188h.036c.312-.504.708-.87 1.188-1.098s1.008-.342 1.584-.342c.732 0 1.362.138 1.89.414.528.275.966.642 1.314 1.098.348.456.606.987.774 1.593.168.606.252 1.239.252 1.899 0 .624-.084 1.224-.252 1.8s-.423 1.086-.765 1.53c-.342.443-.768.798-1.278 1.062s-1.107.396-1.791.396c-.576 0-1.107-.117-1.593-.352-.486-.233-.885-.579-1.197-1.035h-.036v4.41h-2.556v-12.563h2.43zm3.321 7.38c.282-.168.51-.388.684-.657.174-.27.297-.585.369-.945.072-.359.108-.726.108-1.098s-.039-.738-.117-1.098c-.078-.36-.207-.682-.387-.963-.18-.282-.411-.511-.693-.685-.282-.174-.627-.261-1.035-.261-.42 0-.771.087-1.053.261-.282.174-.51.399-.684.675-.174.276-.297.595-.369.954-.072.36-.108.732-.108 1.116 0 .372.039.738.117 1.098.078.36.204.676.378.945.174.27.405.489.693.657s.636.252 1.044.252c.42.001.771-.083 1.053-.251zm5.319-8.82v-2.105h2.556v2.105h-2.556zm2.556 1.44v9.306h-2.556v-9.306h2.556zm4.446 0v1.296h.054c.324-.54.744-.934 1.26-1.18.516-.245 1.044-.368 1.584-.368.684 0 1.245.093 1.683.278.438.187.783.444 1.035.774s.429.732.531 1.206.153.999.153 1.575v5.724h-2.556v-5.256c0-.768-.12-1.341-.36-1.719-.24-.378-.666-.567-1.278-.567-.696 0-1.2.207-1.512.621-.312.414-.468 1.095-.468 2.043v4.878h-2.556v-9.306h2.43zm17.037 9.99c-.102.48-.321.928-.657 1.342s-.822.765-1.458 1.053-1.488.432-2.556.432c-.457 0-.921-.057-1.395-.171-.475-.114-.906-.291-1.296-.531s-.714-.549-.972-.927-.405-.831-.441-1.358h2.538c.12.479.354.812.702.999.348.186.75.278 1.206.278.72 0 1.245-.216 1.575-.647.33-.433.489-.979.477-1.639v-1.224h-.036c-.276.492-.669.854-1.179 1.089-.51.234-1.047.352-1.611.352-.696 0-1.296-.123-1.8-.369s-.918-.582-1.242-1.009c-.324-.426-.561-.924-.711-1.493-.15-.57-.225-1.173-.225-1.81 0-.6.087-1.179.261-1.736.174-.559.429-1.051.765-1.477s.753-.765 1.251-1.017 1.071-.378 1.719-.378c.612 0 1.149.114 1.611.342s.849.612 1.161 1.151h.036v-1.241h2.43v8.712c0 .371-.051.797-.153 1.277zm-3.501-3.096c.276-.144.504-.336.684-.576.18-.239.315-.513.405-.818.09-.307.135-.627.135-.963 0-.385-.036-.747-.108-1.09-.072-.342-.192-.645-.36-.908-.168-.265-.39-.475-.666-.631-.276-.155-.624-.233-1.044-.233-.36 0-.669.072-.927.216-.258.144-.474.339-.648.585s-.3.528-.378.846c-.078.318-.117.651-.117.999 0 .336.033.669.099.999s.18.628.342.892c.162.264.375.479.639.647s.594.252.99.252c.36-.001.678-.073.954-.217zm13.194-6.894v1.26h.036c.335-.479.741-.852 1.215-1.116.474-.264 1.017-.396 1.629-.396.588 0 1.125.114 1.611.342.486.228.855.63 1.107 1.206.276-.408.65-.768 1.125-1.08.474-.312 1.035-.468 1.683-.468.492 0 .948.06 1.368.18.42.12.78.312 1.08.576.3.264.534.609.702 1.035.167.426.252.938.252 1.539v6.228h-2.556v-5.274c0-.312-.012-.605-.036-.882-.024-.275-.09-.516-.198-.72s-.267-.366-.477-.486c-.21-.119-.495-.18-.855-.18s-.651.069-.873.207c-.222.138-.396.318-.522.54s-.21.474-.252.756c-.042.282-.063.567-.063.855v5.184h-2.556v-5.22c0-.276-.006-.549-.018-.819-.012-.27-.063-.519-.153-.747-.09-.228-.24-.411-.45-.549s-.519-.207-.927-.207c-.12 0-.279.027-.477.081-.198.054-.39.156-.576.306-.186.15-.345.366-.477.648s-.198.651-.198 1.106v5.4h-2.556v-9.306h2.412zm13.716 2.862c.036-.6.186-1.098.45-1.494.264-.396.6-.713 1.008-.953.408-.24.867-.411 1.377-.514.51-.102 1.022-.152 1.539-.152.468 0 .942.033 1.422.099.479.066.918.195 1.314.387s.72.459.972.801c.252.343.378.796.378 1.359v4.842c0 .421.024.822.072 1.206.048.385.132.673.252.864h-2.592c-.048-.144-.087-.291-.117-.441-.03-.149-.051-.303-.063-.459-.408.421-.888.715-1.44.883-.552.168-1.116.252-1.692.252-.444 0-.858-.055-1.242-.162-.384-.108-.72-.276-1.008-.504-.288-.229-.513-.517-.675-.864-.162-.348-.243-.762-.243-1.242 0-.527.093-.963.279-1.305s.426-.615.72-.819c.294-.204.63-.356 1.008-.459.378-.102.759-.183 1.143-.243s.762-.107 1.134-.144.702-.09.99-.162.516-.177.684-.315c.168-.138.246-.339.234-.603 0-.276-.045-.495-.135-.657-.09-.162-.21-.288-.36-.378s-.324-.149-.522-.18c-.198-.03-.411-.045-.639-.045-.504 0-.9.107-1.188.323-.288.217-.456.576-.504 1.08h-2.556zm5.904 1.89c-.108.096-.243.171-.405.225-.162.054-.336.099-.522.135l-.585.091c-.204.023-.408.054-.612.09-.192.036-.381.084-.567.144-.187.061-.348.142-.486.243-.138.102-.249.231-.333.387-.084.156-.126.354-.126.594 0 .229.042.421.126.576.084.156.198.279.342.369s.312.153.504.189.39.054.594.054c.504 0 .894-.084 1.17-.252.276-.168.479-.369.612-.604.132-.233.213-.471.243-.711.03-.239.045-.432.045-.575v-.955zm7.163-8.298v12.852h-2.556v-12.852h2.556zm2.088 2.106v-2.105h2.556v2.105h-2.556zm2.556 1.44v9.306h-2.556v-9.306h2.556zm6.462 1.674c-.408 0-.75.093-1.026.279-.276.186-.501.426-.675.72s-.297.618-.369.972c-.072.354-.108.705-.108 1.053 0 .337.036.679.108 1.026.072.349.189.663.351.945.162.282.38.513.657.692.276.181.612.271 1.008.271.612 0 1.083-.171 1.413-.513.33-.343.537-.802.621-1.378h2.466c-.168 1.236-.648 2.179-1.44 2.826-.792.648-1.806.973-3.042.973-.696 0-1.335-.117-1.917-.352-.582-.233-1.077-.561-1.485-.98-.408-.42-.726-.921-.954-1.503s-.342-1.222-.342-1.917c0-.721.105-1.39.315-2.008.21-.617.519-1.151.927-1.602.408-.45.906-.801 1.494-1.053s1.26-.378 2.016-.378c.552 0 1.083.071 1.593.216.51.144.966.363 1.368.657.402.294.729.659.981 1.098s.396.957.432 1.557h-2.502c-.168-1.067-.798-1.601-1.89-1.601zm5.958-3.114v-2.105h2.556v2.105h-2.556zm2.557 1.44v9.306h-2.556v-9.306h2.556zm2.069 2.637c.228-.605.552-1.122.972-1.548.42-.426.924-.756 1.512-.99s1.248-.351 1.98-.351c.731 0 1.395.116 1.989.351s1.101.564 1.521.99c.42.426.744.942.972 1.548.228.606.342 1.281.342 2.025s-.114 1.416-.342 2.016c-.228.601-.552 1.113-.972 1.539-.42.426-.927.753-1.521.98-.594.229-1.257.343-1.989.343-.732 0-1.393-.114-1.98-.343-.588-.228-1.092-.555-1.512-.98-.42-.426-.744-.938-.972-1.539-.228-.6-.342-1.271-.342-2.016s.114-1.418.342-2.025zm2.322 3.114c.072.354.195.672.369.954.174.281.405.507.693.675s.648.252 1.08.252c.432 0 .794-.084 1.089-.252.294-.168.528-.394.702-.675.174-.282.297-.601.369-.954.072-.354.108-.717.108-1.089s-.036-.738-.108-1.099c-.072-.359-.195-.678-.369-.954-.174-.275-.408-.501-.702-.675-.294-.174-.657-.261-1.089-.261-.432 0-.792.087-1.08.261s-.52.399-.693.675c-.174.276-.297.595-.369.954-.072.36-.108.727-.108 1.099s.036.735.108 1.089zm14.922 3.555v-1.296h-.054c-.324.54-.744.93-1.26 1.17-.516.24-1.044.36-1.584.36-.684 0-1.245-.091-1.683-.271s-.783-.435-1.035-.765c-.252-.33-.429-.732-.531-1.206s-.153-.999-.153-1.575v-5.724h2.556v5.256c0 .768.12 1.341.36 1.719.24.378.666.567 1.278.567.696 0 1.2-.207 1.512-.621.312-.414.468-1.095.468-2.043v-4.878h2.556v9.306h-2.43zm6.525-2.313c.114.198.261.36.441.486s.387.22.621.279.477.09.729.09c.18 0 .369-.021.567-.063.198-.041.378-.107.54-.197s.297-.21.405-.36c.108-.149.162-.339.162-.567 0-.384-.255-.672-.765-.863-.51-.192-1.221-.384-2.133-.576-.372-.084-.735-.183-1.089-.297-.354-.114-.669-.264-.945-.45-.276-.186-.498-.42-.666-.702-.168-.281-.252-.627-.252-1.035 0-.6.117-1.092.351-1.476.234-.384.543-.687.927-.909.384-.222.816-.378 1.296-.468s.972-.135 1.476-.135.993.048 1.467.144c.474.097.897.258 1.269.486.372.228.681.53.927.909.246.378.393.854.441 1.431h-2.43c-.036-.492-.222-.825-.558-.999s-.732-.261-1.188-.261l-.468.026c-.168.019-.321.058-.459.117-.138.061-.255.147-.351.261-.096.114-.144.268-.144.459 0 .229.084.414.252.559.168.144.387.261.657.351s.579.171.927.243l1.062.234c.372.084.735.186 1.089.306s.669.279.945.477c.276.198.498.444.666.738.168.294.252.657.252 1.089 0 .612-.123 1.125-.369 1.539s-.567.747-.963.999-.849.43-1.359.531c-.51.102-1.029.153-1.557.153-.54 0-1.068-.055-1.584-.162-.516-.108-.975-.288-1.377-.54-.402-.252-.732-.585-.99-.999-.258-.414-.399-.934-.423-1.558h2.43c0 .275.057.512.171.71zm18.819 2.313v-1.296h-.054c-.324.54-.744.93-1.26 1.17-.516.24-1.044.36-1.584.36-.684 0-1.245-.091-1.683-.271s-.783-.435-1.035-.765c-.252-.33-.429-.732-.531-1.206s-.153-.999-.153-1.575v-5.724h2.556v5.256c0 .768.12 1.341.36 1.719.24.378.666.567 1.278.567.696 0 1.2-.207 1.512-.621.312-.414.468-1.095.468-2.043v-4.878h2.556v9.306h-2.43zm6.524-2.313c.114.198.261.36.441.486s.387.22.621.279.477.09.729.09c.18 0 .369-.021.567-.063.198-.041.378-.107.54-.197s.297-.21.405-.36c.108-.149.162-.339.162-.567 0-.384-.255-.672-.765-.863-.51-.192-1.221-.384-2.133-.576-.372-.084-.735-.183-1.089-.297-.354-.114-.669-.264-.945-.45-.276-.186-.498-.42-.666-.702-.168-.281-.252-.627-.252-1.035 0-.6.117-1.092.351-1.476.234-.384.543-.687.927-.909.384-.222.816-.378 1.296-.468s.972-.135 1.476-.135.993.048 1.467.144c.474.097.897.258 1.269.486.372.228.681.53.927.909.246.378.393.854.441 1.431h-2.43c-.036-.492-.222-.825-.558-.999s-.732-.261-1.188-.261l-.468.026c-.168.019-.321.058-.459.117-.138.061-.255.147-.351.261-.096.114-.144.268-.144.459 0 .229.084.414.252.559.168.144.387.261.657.351s.579.171.927.243l1.062.234c.372.084.735.186 1.089.306s.669.279.945.477c.276.198.498.444.666.738.168.294.252.657.252 1.089 0 .612-.123 1.125-.369 1.539s-.567.747-.963.999-.849.43-1.359.531c-.51.102-1.029.153-1.557.153-.54 0-1.068-.055-1.584-.162-.516-.108-.975-.288-1.377-.54-.402-.252-.732-.585-.99-.999-.258-.414-.399-.934-.423-1.558h2.43c0 .275.057.512.171.71zm10.251.081c.384.372.936.559 1.656.559.516 0 .96-.129 1.332-.387.372-.259.6-.531.684-.819h2.25c-.36 1.116-.912 1.914-1.656 2.394-.744.48-1.645.721-2.7.721-.732 0-1.392-.117-1.98-.352-.588-.233-1.086-.566-1.494-.999-.408-.432-.723-.947-.945-1.548-.222-.6-.333-1.26-.333-1.979 0-.696.114-1.345.342-1.944s.552-1.119.972-1.557c.42-.438.921-.783 1.503-1.035s1.227-.378 1.935-.378c.792 0 1.482.152 2.07.459.587.306 1.071.717 1.449 1.232.378.517.651 1.104.819 1.765.168.659.228 1.35.18 2.069h-6.714c.036.827.246 1.427.63 1.799zm2.889-4.896c-.306-.336-.771-.504-1.395-.504-.408 0-.747.069-1.017.207s-.486.309-.648.513-.276.42-.342.648c-.066.228-.105.432-.117.611h4.158c-.12-.647-.333-1.139-.639-1.475zm7.137-2.178v1.728h.036c.12-.288.282-.555.486-.801s.438-.456.702-.63c.264-.174.546-.309.846-.405.3-.096.612-.144.936-.144.167 0 .354.029.558.09v2.376l-.432-.063c-.168-.018-.331-.026-.486-.026-.468 0-.864.078-1.188.233-.324.156-.585.369-.783.64-.198.27-.339.585-.423.944-.084.36-.126.75-.126 1.17v4.194h-2.556v-9.306h2.43zm6.723 6.993c.114.198.261.36.441.486s.387.22.621.279.477.09.729.09c.18 0 .369-.021.567-.063.198-.041.378-.107.54-.197s.297-.21.405-.36c.108-.149.162-.339.162-.567 0-.384-.255-.672-.765-.863-.51-.192-1.221-.384-2.133-.576-.372-.084-.735-.183-1.089-.297-.354-.114-.669-.264-.945-.45-.276-.186-.498-.42-.666-.702-.168-.281-.252-.627-.252-1.035 0-.6.117-1.092.351-1.476.234-.384.543-.687.927-.909.384-.222.816-.378 1.296-.468s.972-.135 1.476-.135.993.048 1.467.144c.474.097.897.258 1.269.486.372.228.681.53.927.909.246.378.393.854.441 1.431h-2.43c-.036-.492-.222-.825-.558-.999s-.732-.261-1.188-.261l-.468.026c-.168.019-.321.058-.459.117-.138.061-.255.147-.351.261-.096.114-.144.268-.144.459 0 .229.084.414.252.559.168.144.387.261.657.351s.579.171.927.243l1.062.234c.372.084.735.186 1.089.306s.669.279.945.477c.276.198.498.444.666.738.168.294.252.657.252 1.089 0 .612-.123 1.125-.369 1.539s-.567.747-.963.999-.849.43-1.359.531c-.51.102-1.029.153-1.557.153-.54 0-1.068-.055-1.584-.162-.516-.108-.975-.288-1.377-.54-.402-.252-.732-.585-.99-.999-.258-.414-.399-.934-.423-1.558h2.43c0 .275.056.512.171.71zm11.547-5.283v-1.71h1.53v-.721c0-.827.258-1.506.774-2.033.516-.528 1.296-.792 2.34-.792.228 0 .456.009.684.026l.666.045v1.908c-.3-.036-.612-.054-.936-.054-.348 0-.597.081-.747.243-.15.161-.225.435-.225.818v.559h1.764v1.71h-1.764v7.596h-2.556v-7.596h-1.53zm9.395-1.71v1.728h.036c.12-.288.282-.555.486-.801s.438-.456.702-.63c.264-.174.546-.309.846-.405.3-.096.612-.144.936-.144.167 0 .354.029.558.09v2.376l-.432-.063c-.168-.018-.331-.026-.486-.026-.468 0-.864.078-1.188.233-.324.156-.585.369-.783.64-.198.27-.339.585-.423.944-.084.36-.126.75-.126 1.17v4.194h-2.556v-9.306h2.43zm4.302 2.637c.228-.605.552-1.122.972-1.548.42-.426.924-.756 1.512-.99s1.248-.351 1.98-.351c.731 0 1.395.116 1.989.351s1.101.564 1.521.99c.42.426.744.942.972 1.548.228.606.342 1.281.342 2.025s-.114 1.416-.342 2.016c-.228.601-.552 1.113-.972 1.539-.42.426-.927.753-1.521.98-.594.229-1.257.343-1.989.343-.732 0-1.393-.114-1.98-.343-.588-.228-1.092-.555-1.512-.98-.42-.426-.744-.938-.972-1.539-.228-.6-.342-1.271-.342-2.016s.114-1.418.342-2.025zm2.323 3.114c.072.354.195.672.369.954.174.281.405.507.693.675s.648.252 1.08.252c.432 0 .794-.084 1.089-.252.294-.168.528-.394.702-.675.174-.282.297-.601.369-.954.072-.354.108-.717.108-1.089s-.036-.738-.108-1.099c-.072-.359-.195-.678-.369-.954-.174-.275-.408-.501-.702-.675-.294-.174-.657-.261-1.089-.261-.432 0-.792.087-1.08.261s-.52.399-.693.675c-.174.276-.297.595-.369.954-.072.36-.108.727-.108 1.099s.035.735.108 1.089zm11.106-5.751v1.26h.036c.335-.479.741-.852 1.215-1.116.474-.264 1.017-.396 1.629-.396.588 0 1.125.114 1.611.342.486.228.855.63 1.107 1.206.276-.408.65-.768 1.125-1.08.474-.312 1.035-.468 1.683-.468.492 0 .948.06 1.368.18.42.12.78.312 1.08.576.3.264.534.609.702 1.035.167.426.252.938.252 1.539v6.228h-2.556v-5.274c0-.312-.012-.605-.036-.882-.024-.275-.09-.516-.198-.72s-.267-.366-.477-.486c-.21-.119-.495-.18-.855-.18s-.651.069-.873.207c-.222.138-.396.318-.522.54s-.21.474-.252.756c-.042.282-.063.567-.063.855v5.184h-2.556v-5.22c0-.276-.006-.549-.018-.819-.012-.27-.063-.519-.153-.747-.09-.228-.24-.411-.45-.549s-.519-.207-.927-.207c-.12 0-.279.027-.477.081-.198.054-.39.156-.576.306-.186.15-.345.366-.477.648s-.198.651-.198 1.106v5.4h-2.556v-9.306h2.412zm23.939 0v1.71h-1.872v4.607c0 .433.072.721.216.864.145.144.433.216.864.216l.414-.018.378-.055v1.98c-.216.036-.456.06-.72.072-.265.012-.522.018-.774.018-.396 0-.771-.026-1.125-.081-.354-.054-.666-.159-.936-.314-.271-.156-.483-.378-.639-.666-.156-.288-.234-.666-.234-1.135v-5.489h-1.549v-1.71h1.549v-2.79h2.556v2.79h1.872zm3.654 0v1.728h.036c.119-.288.281-.555.485-.801s.438-.456.702-.63.546-.309.846-.405c.3-.096.612-.144.937-.144.168 0 .354.029.558.09v2.376l-.432-.063c-.168-.018-.33-.026-.486-.026-.468 0-.864.078-1.188.233-.324.156-.585.369-.783.64-.198.27-.339.585-.423.944-.084.36-.126.75-.126 1.17v4.194h-2.557v-9.306h2.431zm8.01 12.078c-.492.323-1.177.485-2.052.485-.265 0-.525-.009-.783-.026l-.783-.063v-2.106l.738.072s.504.03.756.019c.336-.036.585-.169.747-.396s.243-.479.243-.756c0-.204-.036-.396-.108-.576l-3.258-8.729h2.718l2.106 6.372h.035l2.034-6.372h2.646l-3.889 10.458c-.274.754-.658 1.294-1.15 1.618zm5.976-13.518v-2.105h2.556v2.105h-2.556zm2.555 1.44v9.306h-2.556v-9.306h2.556zm4.447 0v1.296h.054c.324-.54.744-.934 1.26-1.18.516-.245 1.044-.368 1.584-.368.685 0 1.245.093 1.684.278.438.187.782.444 1.034.774s.43.732.531 1.206.153.999.153 1.575v5.724h-2.556v-5.256c0-.768-.12-1.341-.36-1.719s-.666-.567-1.278-.567c-.696 0-1.2.207-1.512.621-.312.414-.468 1.095-.468 2.043v4.878h-2.557v-9.306h2.431zm17.036 9.99c-.102.48-.321.928-.656 1.342-.337.414-.822.765-1.458 1.053-.637.288-1.488.432-2.557.432-.456 0-.921-.057-1.395-.171-.475-.114-.906-.291-1.296-.531-.391-.24-.715-.549-.973-.927s-.404-.831-.44-1.358h2.538c.119.479.354.812.702.999.348.186.749.278 1.205.278.721 0 1.245-.216 1.575-.647.33-.433.489-.979.478-1.639v-1.224h-.036c-.276.492-.669.854-1.179 1.089-.511.234-1.048.352-1.611.352-.696 0-1.296-.123-1.8-.369s-.918-.582-1.242-1.009c-.324-.426-.562-.924-.711-1.493-.15-.57-.226-1.173-.226-1.81 0-.6.087-1.179.262-1.736.174-.559.429-1.051.765-1.477s.753-.765 1.251-1.017 1.071-.378 1.719-.378c.612 0 1.149.114 1.611.342s.849.612 1.161 1.151h.036v-1.241h2.43v8.712c0 .371-.051.797-.153 1.277zm-3.501-3.096c.276-.144.504-.336.685-.576.18-.239.314-.513.404-.818.091-.307.136-.627.136-.963 0-.385-.036-.747-.108-1.09-.072-.342-.192-.645-.36-.908-.168-.265-.39-.475-.666-.631-.275-.155-.624-.233-1.044-.233-.359 0-.669.072-.927.216s-.474.339-.647.585c-.175.246-.301.528-.378.846-.078.318-.117.651-.117.999 0 .336.032.669.099.999s.18.628.342.892.375.479.64.647c.264.168.594.252.989.252.358-.001.676-.073.952-.217zm10.782-8.334v-2.105h2.556v2.105h-2.556zm2.556 1.44v9.306h-2.556v-9.306h2.556zm7.129 0v1.71h-1.872v4.607c0 .433.072.721.216.864.145.144.433.216.864.216l.414-.018.378-.055v1.98c-.216.036-.456.06-.72.072-.265.012-.522.018-.774.018-.396 0-.771-.026-1.125-.081-.354-.054-.666-.159-.936-.314-.271-.156-.483-.378-.64-.666-.155-.288-.233-.666-.233-1.135v-5.489h-1.548v-1.71h1.548v-2.79h2.556v2.79h1.872zm6.282 2.637c.228-.605.552-1.122.972-1.548s.924-.756 1.512-.99 1.248-.351 1.98-.351c.731 0 1.395.116 1.988.351.595.234 1.102.564 1.521.99s.744.942.972 1.548c.229.606.343 1.281.343 2.025s-.114 1.416-.343 2.016c-.228.601-.552 1.113-.972 1.539s-.927.753-1.521.98c-.594.229-1.257.343-1.988.343-.732 0-1.393-.114-1.98-.343-.588-.228-1.092-.555-1.512-.98s-.744-.938-.972-1.539c-.229-.6-.343-1.271-.343-2.016s.114-1.418.343-2.025zm2.321 3.114c.072.354.195.672.369.954.174.281.405.507.693.675s.647.252 1.08.252c.432 0 .795-.084 1.089-.252s.527-.394.702-.675c.174-.282.297-.601.369-.954.071-.354.107-.717.107-1.089s-.036-.738-.107-1.099c-.072-.359-.195-.678-.369-.954-.175-.275-.408-.501-.702-.675s-.657-.261-1.089-.261c-.433 0-.792.087-1.08.261s-.52.399-.693.675c-.174.276-.297.595-.369.954-.071.36-.107.727-.107 1.099s.036.735.107 1.089zm14.922 3.555v-1.296h-.055c-.324.54-.744.93-1.26 1.17s-1.044.36-1.584.36c-.684 0-1.245-.091-1.683-.271-.438-.18-.783-.435-1.035-.765s-.43-.732-.531-1.206c-.103-.474-.153-.999-.153-1.575v-5.724h2.557v5.256c0 .768.119 1.341.359 1.719s.666.567 1.278.567c.695 0 1.2-.207 1.512-.621.312-.414.469-1.095.469-2.043v-4.878h2.556v9.306h-2.43zm9.485-9.306v1.71h-1.872v4.607c0 .433.072.721.216.864.145.144.433.216.864.216l.414-.018.378-.055v1.98c-.216.036-.456.06-.72.072-.265.012-.522.018-.774.018-.396 0-.771-.026-1.125-.081-.354-.054-.666-.159-.936-.314-.271-.156-.483-.378-.64-.666-.155-.288-.233-.666-.233-1.135v-5.489h-1.548v-1.71h1.548v-2.79h2.556v2.79h1.872zm4.158 6.534v2.772h-2.826v-2.772h2.826z"/></svg>