<?xml version="1.0" encoding="utf-8"?>
<!-- Generator: Adobe Illustrator 16.0.0, SVG Export Plug-In . SVG Version: 6.00 Build 0)  -->
<!DOCTYPE svg PUBLIC "-//W3C//DTD SVG 1.1//EN" "http://www.w3.org/Graphics/SVG/1.1/DTD/svg11.dtd">
<svg version="1.1" id="Layer_1" xmlns="http://www.w3.org/2000/svg" xmlns:xlink="http://www.w3.org/1999/xlink" x="0px" y="0px"
	 width="750px" height="510px" viewBox="0 0 750 510" enable-background="new 0 0 750 510" xml:space="preserve">
<path fill="#C62139" d="M64.339,479.834h586.669v3.666H64.339V479.834z"/>
<path fill="#FFFFFF" d="M193.91,209.295l-22.473,16.123l-22.379-16.115c-1.741,0.102-3.169,1.316-3.501,2.92
	c-0.048,0.232-0.074,0.471-0.074,0.717v29.684c0,2.02,1.67,3.658,3.729,3.658h2.271v-27.748l19.953,14.369l20.059-14.391v27.77h2.26
	c2.061,0,3.729-1.639,3.729-3.658v-29.686C197.485,210.971,195.896,209.377,193.91,209.295L193.91,209.295z M151.648,245.76
	l-0.104,0.422c0,0,6.646-4.385,9.109-6.008c2.464-1.621,10.052-6.957,10.052-6.957s-7.121,4.381-10.366,6.643
	C157.095,242.12,151.648,245.76,151.648,245.76z M76.239,176.387c0,0,13.641-8.988,18.7-12.312
	c5.06-3.326,20.635-14.26,20.635-14.26s-14.617,8.977-21.279,13.609c-6.662,4.637-17.84,12.102-17.84,12.102L76.239,176.387z
	 M117.078,133.825L71.106,100.77c-3.821,0.229-6.897,3.096-7.271,6.729c-0.023,0.244-0.039,0.492-0.039,0.744v60.846
	c0,4.143,3.429,7.498,7.657,7.498h4.662v-56.875l40.962,29.453l41.177-29.498v56.92h4.64c4.229,0,7.656-3.355,7.656-7.498v-60.846
	c0-4.029-3.248-7.307-7.318-7.482L117.078,133.825L117.078,133.825z M163.231,284.762l-46.153,33.062L71.106,284.77
	c-3.821,0.23-6.897,3.097-7.271,6.729c-0.023,0.244-0.039,0.494-0.039,0.744v60.846c0,4.144,3.429,7.498,7.657,7.498h4.662v-56.875
	l40.962,29.453l41.177-29.498v56.92h4.64c4.229,0,7.656-3.354,7.656-7.498v-60.846C170.551,288.215,167.304,284.936,163.231,284.762
	L163.231,284.762z M76.453,359.523l-0.215,0.863c0,0,13.641-8.988,18.7-12.314c5.06-3.324,20.635-14.26,20.635-14.26
	s-14.617,8.977-21.279,13.61C87.632,352.061,76.453,359.523,76.453,359.523z M644.232,78.762l-46.154,33.062L552.106,78.77
	c-3.82,0.229-6.897,3.096-7.271,6.729c-0.022,0.244-0.038,0.492-0.038,0.744v60.846c0,4.143,3.429,7.498,7.656,7.498h4.662V97.709
	l40.962,29.455l41.177-29.498v56.92h4.64c4.229,0,7.656-3.355,7.656-7.498V86.243C651.552,82.215,648.304,78.936,644.232,78.762z
	 M575.294,141.424c-6.661,4.637-17.841,12.102-17.841,12.102l-0.215,0.861c0,0,13.642-8.988,18.699-12.312
	c5.061-3.326,20.636-14.26,20.636-14.26S581.955,136.79,575.294,141.424z M557.453,329.523l-0.215,0.863
	c0,0,13.642-8.988,18.699-12.314c5.061-3.324,20.636-14.26,20.636-14.26s-14.618,8.977-21.279,13.61L557.453,329.523z
	 M644.232,254.762l-46.154,33.062l-45.972-33.054c-3.82,0.23-6.897,3.095-7.271,6.728c-0.022,0.244-0.038,0.494-0.038,0.744v60.846
	c0,4.143,3.429,7.498,7.656,7.498h4.662v-56.875l40.962,29.453l41.177-29.498v56.92h4.64c4.229,0,7.656-3.355,7.656-7.498v-60.846
	C651.552,258.215,648.304,254.936,644.232,254.762z M454.648,360.76l-0.104,0.422c0,0,6.646-4.385,9.109-6.008
	c2.464-1.621,10.052-6.957,10.052-6.957s-7.121,4.381-10.366,6.643C460.094,357.119,454.648,360.76,454.648,360.76z M496.91,324.295
	l-22.473,16.123l-22.381-16.115c-1.739,0.102-3.168,1.316-3.5,2.92c-0.047,0.232-0.073,0.471-0.073,0.717v29.685
	c0,2.021,1.67,3.658,3.729,3.658h2.271v-27.748l19.952,14.368l20.06-14.391v27.771h2.26c2.062,0,3.729-1.64,3.729-3.658v-29.687
	C500.485,325.971,498.896,324.377,496.91,324.295z M451.984,226.506c7.177,5.438,14.525,3.186,10.172-10.178
	c-1.5-4.605-10.841-28.162-16.611-37.613c0,0-5.728-53.887-6.04-54.9c-0.429-1.688-3.044-10.186-13.172-14.588
	c-12.511-5.438-32.395-10.758-50.751-10.758c-4.696-6.293-28.989-7.492-34.592-0.041c-32.296-0.002-54.783,10.715-54.917,10.799
	c-6.333,3.871-9.938,12.271-9.938,16.951c0,0.861-5.271,52.531-5.271,52.531c-6.839,10.936-15.509,32.82-17.073,37.615
	c-4.355,13.365,2.995,15.617,10.172,10.18c0,0-0.016,5.014-0.016,7.572c-0.035,51.994,42.062,94.166,94.021,94.208h0.006
	c51.961-0.041,94.059-37.125,94.022-89.117C451.999,236.608,451.984,226.506,451.984,226.506L451.984,226.506z M378.239,277.395
	h-40.533c-4.211,0-7.628-3.424-7.628-7.637c0-4.215,3.417-7.631,7.628-7.631h40.533c4.212,0,7.63,3.418,7.63,7.633
	C385.869,273.977,382.451,277.395,378.239,277.395z M420.188,283.479c-3.147,1.154-9.294-3.596-13.979-11.174
	c-5.433-8.791-12.506-25.445-25.428-25.445h-45.619c-12.973-0.002-19.996,16.65-25.43,25.443
	c-4.686,7.578-10.83,12.328-13.978,11.172c0,0-21.543-1.494-21.543-62.25c2.036-0.852,4.325-1.738,6.834-2.637
	c0.542,4.795,2.878,21.723,9.436,28.283c7.673,7.678,43.716-7.582,50.916-14.785c7.197-7.203,7.731-14.789,17.131-14.789
	l0.038-0.002l0.038,0.002c9.396,0,11.562,9.221,17.13,14.789c5.566,5.568,42.396,23.311,50.913,14.787
	c7.045-7.049,8.979-22.656,9.439-27.85c2.041,0.75,3.933,1.488,5.64,2.203C441.729,278.482,420.188,283.479,420.188,283.479
	L420.188,283.479z M358.606,195.26c-43.503-0.002-89.561,15.979-89.561,15.979c2.702-14.188,12.793-20.482,12.793-20.482
	s19.253-14.188,77.401-14.186c58.147,0,76.513,14.18,76.513,14.18s11.146,12.105,11.146,20.49
	C446.898,211.241,402.109,195.26,358.606,195.26z M188.982,122.284c-0.828,0-1.5,0.672-1.5,1.5s0.672,1.5,1.5,1.5s1.5-0.672,1.5-1.5
	S189.811,122.284,188.982,122.284z M197.982,126.284c-0.828,0-1.5,0.672-1.5,1.5s0.672,1.5,1.5,1.5s1.5-0.672,1.5-1.5
	S198.811,126.284,197.982,126.284z M206.982,131.284c-0.828,0-1.5,0.672-1.5,1.5s0.672,1.5,1.5,1.5s1.5-0.672,1.5-1.5
	S207.811,131.284,206.982,131.284z M216.982,135.284c-0.828,0-1.5,0.672-1.5,1.5s0.672,1.5,1.5,1.5s1.5-0.672,1.5-1.5
	S217.811,135.284,216.982,135.284z M225.982,139.284c-0.828,0-1.5,0.672-1.5,1.5s0.672,1.5,1.5,1.5s1.5-0.672,1.5-1.5
	S226.811,139.284,225.982,139.284z M234.982,143.284c-0.828,0-1.5,0.672-1.5,1.5s0.672,1.5,1.5,1.5s1.5-0.672,1.5-1.5
	S235.811,143.284,234.982,143.284z M243.982,147.284c-0.828,0-1.5,0.672-1.5,1.5s0.672,1.5,1.5,1.5s1.5-0.672,1.5-1.5
	S244.811,147.284,243.982,147.284z M254.482,153.784c0-0.828-0.672-1.5-1.5-1.5s-1.5,0.672-1.5,1.5c0,0.828,0.672,1.5,1.5,1.5
	S254.482,154.612,254.482,153.784z M191.982,310.283c-0.828,0-1.5,0.672-1.5,1.5s0.672,1.5,1.5,1.5s1.5-0.672,1.5-1.5
	S192.811,310.283,191.982,310.283z M200.982,306.283c-0.828,0-1.5,0.672-1.5,1.5s0.672,1.5,1.5,1.5s1.5-0.672,1.5-1.5
	S201.811,306.283,200.982,306.283z M209.982,301.283c-0.828,0-1.5,0.672-1.5,1.5s0.672,1.5,1.5,1.5s1.5-0.672,1.5-1.5
	S210.811,301.283,209.982,301.283z M219.982,297.283c-0.828,0-1.5,0.672-1.5,1.5s0.672,1.5,1.5,1.5s1.5-0.672,1.5-1.5
	S220.811,297.283,219.982,297.283z M228.982,293.283c-0.828,0-1.5,0.672-1.5,1.5s0.672,1.5,1.5,1.5s1.5-0.672,1.5-1.5
	S229.811,293.283,228.982,293.283z M237.982,289.283c-0.828,0-1.5,0.672-1.5,1.5s0.672,1.5,1.5,1.5s1.5-0.672,1.5-1.5
	S238.811,289.283,237.982,289.283z M246.982,285.283c-0.828,0-1.5,0.672-1.5,1.5s0.672,1.5,1.5,1.5s1.5-0.672,1.5-1.5
	S247.811,285.283,246.982,285.283z M255.982,280.283c-0.828,0-1.5,0.672-1.5,1.5s0.672,1.5,1.5,1.5s1.5-0.672,1.5-1.5
	S256.811,280.283,255.982,280.283z M528.982,298.283c-0.828,0-1.5,0.672-1.5,1.5s0.672,1.5,1.5,1.5s1.5-0.672,1.5-1.5
	S529.811,298.283,528.982,298.283z M519.982,294.283c-0.828,0-1.5,0.672-1.5,1.5s0.672,1.5,1.5,1.5s1.5-0.672,1.5-1.5
	S520.811,294.283,519.982,294.283z M510.982,289.283c-0.828,0-1.5,0.672-1.5,1.5s0.672,1.5,1.5,1.5s1.5-0.672,1.5-1.5
	S511.812,289.283,510.982,289.283z M500.982,285.283c-0.828,0-1.5,0.672-1.5,1.5s0.672,1.5,1.5,1.5s1.5-0.672,1.5-1.5
	S501.812,285.283,500.982,285.283z M491.982,284.283c0.828,0,1.5-0.672,1.5-1.5s-0.672-1.5-1.5-1.5s-1.5,0.672-1.5,1.5
	S491.154,284.283,491.982,284.283z M482.982,280.283c0.828,0,1.5-0.672,1.5-1.5s-0.672-1.5-1.5-1.5s-1.5,0.672-1.5,1.5
	S482.154,280.283,482.982,280.283z M473.982,276.283c0.828,0,1.5-0.672,1.5-1.5s-0.672-1.5-1.5-1.5s-1.5,0.672-1.5,1.5
	S473.154,276.283,473.982,276.283z M464.982,271.283c0.828,0,1.5-0.672,1.5-1.5s-0.672-1.5-1.5-1.5s-1.5,0.672-1.5,1.5
	S464.154,271.283,464.982,271.283z M460.982,154.284c0.828,0,1.5-0.672,1.5-1.5c0-0.828-0.672-1.5-1.5-1.5s-1.5,0.672-1.5,1.5
	C459.482,153.612,460.154,154.284,460.982,154.284z M469.982,150.284c0.828,0,1.5-0.672,1.5-1.5c0-0.828-0.672-1.5-1.5-1.5
	s-1.5,0.672-1.5,1.5C468.482,149.612,469.154,150.284,469.982,150.284z M478.982,145.284c0.828,0,1.5-0.672,1.5-1.5
	c0-0.828-0.672-1.5-1.5-1.5s-1.5,0.672-1.5,1.5C477.482,144.612,478.154,145.284,478.982,145.284z M488.982,141.284
	c0.828,0,1.5-0.672,1.5-1.5c0-0.828-0.672-1.5-1.5-1.5s-1.5,0.672-1.5,1.5C487.482,140.612,488.154,141.284,488.982,141.284z
	 M497.982,137.284c0.828,0,1.5-0.672,1.5-1.5c0-0.828-0.672-1.5-1.5-1.5s-1.5,0.672-1.5,1.5
	C496.482,136.612,497.154,137.284,497.982,137.284z M506.982,130.284c-0.828,0-1.5,0.672-1.5,1.5c0,0.828,0.672,1.5,1.5,1.5
	s1.5-0.672,1.5-1.5C508.482,130.956,507.812,130.284,506.982,130.284z M515.982,126.284c-0.828,0-1.5,0.672-1.5,1.5
	c0,0.828,0.672,1.5,1.5,1.5s1.5-0.672,1.5-1.5C517.482,126.956,516.811,126.284,515.982,126.284z M524.982,121.284
	c-0.828,0-1.5,0.672-1.5,1.5c0,0.828,0.672,1.5,1.5,1.5s1.5-0.672,1.5-1.5C526.482,121.956,525.811,121.284,524.982,121.284z
	 M67.377,408.497v12.852h-2.826v-12.852H67.377z M72.095,412.043v1.296h0.054c0.324-0.54,0.744-0.934,1.26-1.18
	c0.516-0.245,1.044-0.368,1.584-0.368c0.684,0,1.245,0.093,1.683,0.278c0.438,0.187,0.783,0.443,1.035,0.773
	s0.429,0.732,0.531,1.206c0.102,0.475,0.153,0.999,0.153,1.575v5.724h-2.556v-5.256c0-0.768-0.12-1.341-0.36-1.719
	c-0.24-0.378-0.666-0.567-1.278-0.567c-0.696,0-1.2,0.207-1.512,0.621s-0.468,1.096-0.468,2.043v4.878h-2.556v-9.306L72.095,412.043
	L72.095,412.043z M85.289,411.584c0.192-0.618,0.48-1.158,0.864-1.62c0.384-0.462,0.867-0.822,1.449-1.08s1.251-0.387,2.007-0.387
	c0.576,0,1.125,0.09,1.647,0.27c0.522,0.181,0.981,0.438,1.377,0.774s0.711,0.75,0.945,1.241c0.234,0.492,0.351,1.044,0.351,1.656
	c0,0.637-0.102,1.183-0.306,1.638c-0.204,0.457-0.474,0.861-0.81,1.216s-0.717,0.675-1.143,0.963
	c-0.426,0.288-0.855,0.573-1.287,0.854c-0.432,0.281-0.853,0.585-1.26,0.908c-0.408,0.324-0.768,0.702-1.08,1.135H94v2.195h-9.252
	c0-0.73,0.105-1.367,0.315-1.907s0.495-1.022,0.855-1.449c0.36-0.426,0.783-0.818,1.269-1.179s0.999-0.727,1.539-1.099
	c0.276-0.191,0.57-0.388,0.882-0.585c0.312-0.198,0.597-0.417,0.855-0.657c0.258-0.239,0.474-0.51,0.648-0.81
	c0.174-0.3,0.261-0.643,0.261-1.026c0-0.611-0.177-1.089-0.531-1.431c-0.354-0.343-0.808-0.514-1.359-0.514
	c-0.372,0-0.687,0.088-0.945,0.262s-0.465,0.401-0.621,0.684c-0.156,0.283-0.267,0.595-0.333,0.937
	c-0.066,0.343-0.099,0.682-0.099,1.018h-2.448C85.012,412.871,85.097,412.202,85.289,411.584L85.289,411.584z M95.448,411.907
	c0.246-0.834,0.579-1.503,0.999-2.007c0.42-0.504,0.909-0.863,1.467-1.08c0.558-0.216,1.149-0.323,1.773-0.323
	c0.636,0,1.233,0.107,1.791,0.323c0.558,0.217,1.05,0.576,1.476,1.08c0.426,0.504,0.762,1.173,1.008,2.007
	c0.246,0.835,0.369,1.862,0.369,3.088c0,1.26-0.123,2.312-0.369,3.158s-0.583,1.521-1.008,2.024s-0.918,0.864-1.476,1.08
	s-1.155,0.324-1.791,0.324c-0.624,0-1.215-0.108-1.773-0.324s-1.047-0.576-1.467-1.08c-0.42-0.504-0.753-1.179-0.999-2.024
	c-0.246-0.847-0.369-1.898-0.369-3.158C95.079,413.771,95.202,412.742,95.448,411.907z M97.671,416.3
	c0.024,0.51,0.099,1.002,0.225,1.477s0.327,0.88,0.603,1.215c0.276,0.337,0.672,0.505,1.188,0.505c0.528,0,0.933-0.168,1.215-0.505
	c0.282-0.335,0.486-0.74,0.612-1.215s0.201-0.967,0.225-1.477c0.024-0.51,0.036-0.944,0.036-1.305l-0.009-0.783
	c-0.006-0.307-0.03-0.621-0.072-0.945c-0.042-0.323-0.102-0.645-0.18-0.963c-0.078-0.317-0.195-0.604-0.351-0.854
	c-0.156-0.252-0.354-0.455-0.594-0.611c-0.24-0.156-0.534-0.234-0.882-0.234s-0.639,0.078-0.873,0.234s-0.426,0.359-0.576,0.611
	c-0.15,0.252-0.267,0.537-0.351,0.854c-0.084,0.318-0.144,0.64-0.18,0.963c-0.036,0.324-0.057,0.64-0.063,0.945l-0.009,0.783
	C97.635,415.354,97.646,415.79,97.671,416.3L97.671,416.3z M108.968,421.349v-8.172H105.8v-1.926c0.444,0.012,0.873-0.021,1.287-0.1
	s0.786-0.217,1.116-0.414s0.609-0.459,0.837-0.782c0.228-0.324,0.378-0.727,0.45-1.206h2.034v12.6H108.968L108.968,421.349z
	 M117.48,421.349v-8.172h-3.168v-1.926c0.444,0.012,0.873-0.021,1.287-0.1s0.786-0.217,1.116-0.414
	c0.33-0.197,0.609-0.459,0.837-0.782c0.228-0.324,0.378-0.727,0.45-1.206h2.034v12.6H117.48z M136.076,412.043v1.71h-1.872v4.607
	c0,0.433,0.072,0.721,0.216,0.863c0.144,0.145,0.432,0.217,0.864,0.217l0.414-0.019l0.378-0.055v1.979
	c-0.216,0.036-0.456,0.061-0.72,0.072c-0.264,0.012-0.522,0.019-0.774,0.019c-0.396,0-0.771-0.026-1.125-0.081
	s-0.666-0.159-0.936-0.314c-0.27-0.156-0.483-0.378-0.639-0.666c-0.156-0.288-0.234-0.666-0.234-1.135v-5.489H130.1v-1.71h1.548
	v-2.79h2.556v2.79L136.076,412.043L136.076,412.043z M140.05,408.497v4.842h0.054c0.324-0.54,0.738-0.934,1.242-1.18
	c0.504-0.245,0.996-0.368,1.476-0.368c0.684,0,1.245,0.093,1.683,0.278c0.438,0.187,0.783,0.443,1.035,0.773
	s0.429,0.732,0.531,1.206c0.102,0.475,0.153,0.999,0.153,1.575v5.724h-2.556v-5.256c0-0.768-0.12-1.341-0.36-1.719
	c-0.24-0.378-0.666-0.567-1.278-0.567c-0.696,0-1.2,0.207-1.512,0.621s-0.468,1.096-0.468,2.043v4.878h-2.556v-12.852
	L140.05,408.497L140.05,408.497z M148.229,414.68c0.228-0.604,0.552-1.122,0.972-1.548s0.924-0.756,1.512-0.99
	c0.588-0.233,1.248-0.351,1.98-0.351c0.731,0,1.395,0.116,1.989,0.351c0.594,0.235,1.101,0.564,1.521,0.99s0.744,0.942,0.972,1.548
	c0.228,0.606,0.342,1.281,0.342,2.025s-0.114,1.416-0.342,2.016c-0.228,0.602-0.552,1.113-0.972,1.539s-0.927,0.753-1.521,0.98
	c-0.594,0.229-1.257,0.343-1.989,0.343s-1.393-0.114-1.98-0.343c-0.588-0.229-1.092-0.555-1.512-0.98s-0.744-0.938-0.972-1.539
	c-0.228-0.6-0.342-1.271-0.342-2.016S148.001,415.286,148.229,414.68z M150.551,417.794c0.072,0.354,0.195,0.672,0.369,0.954
	c0.174,0.281,0.405,0.507,0.693,0.675c0.288,0.168,0.648,0.252,1.08,0.252c0.432,0,0.794-0.084,1.089-0.252
	c0.294-0.168,0.528-0.394,0.702-0.675c0.174-0.282,0.297-0.601,0.369-0.954c0.072-0.354,0.108-0.717,0.108-1.089
	s-0.036-0.738-0.108-1.099c-0.072-0.359-0.195-0.679-0.369-0.954c-0.174-0.275-0.408-0.501-0.702-0.675
	c-0.294-0.175-0.657-0.262-1.089-0.262c-0.432,0-0.792,0.087-1.08,0.262c-0.288,0.174-0.52,0.398-0.693,0.675
	c-0.174,0.275-0.297,0.595-0.369,0.954c-0.072,0.359-0.108,0.727-0.108,1.099S150.479,417.439,150.551,417.794z M165.473,421.349
	v-1.296h-0.054c-0.324,0.54-0.744,0.931-1.26,1.17c-0.516,0.24-1.044,0.36-1.584,0.36c-0.684,0-1.245-0.091-1.683-0.271
	c-0.438-0.181-0.783-0.436-1.035-0.766s-0.429-0.731-0.531-1.206c-0.102-0.474-0.153-0.999-0.153-1.575v-5.724h2.556v5.256
	c0,0.769,0.12,1.341,0.36,1.719c0.24,0.379,0.666,0.567,1.278,0.567c0.696,0,1.2-0.207,1.512-0.621s0.468-1.095,0.468-2.043v-4.878
	h2.556v9.306L165.473,421.349L165.473,421.349z M172.117,419.035c0.114,0.198,0.261,0.36,0.441,0.486s0.387,0.22,0.621,0.278
	c0.234,0.06,0.477,0.09,0.729,0.09c0.18,0,0.369-0.021,0.567-0.062c0.198-0.041,0.378-0.107,0.54-0.197s0.297-0.21,0.405-0.359
	s0.162-0.34,0.162-0.567c0-0.384-0.255-0.672-0.765-0.863c-0.51-0.191-1.221-0.384-2.133-0.576
	c-0.372-0.084-0.735-0.183-1.089-0.297c-0.354-0.113-0.669-0.264-0.945-0.449c-0.276-0.187-0.498-0.421-0.666-0.702
	s-0.252-0.627-0.252-1.035c0-0.601,0.117-1.092,0.351-1.477c0.234-0.384,0.543-0.687,0.927-0.908
	c0.384-0.223,0.816-0.378,1.296-0.469c0.48-0.09,0.972-0.135,1.476-0.135c0.504,0,0.993,0.048,1.467,0.145s0.897,0.258,1.269,0.485
	c0.372,0.229,0.681,0.53,0.927,0.909c0.246,0.378,0.393,0.854,0.441,1.431h-2.43c-0.036-0.491-0.222-0.824-0.558-0.999
	c-0.336-0.174-0.732-0.261-1.188-0.261l-0.468,0.026c-0.168,0.019-0.321,0.058-0.459,0.117c-0.138,0.061-0.255,0.146-0.351,0.261
	c-0.096,0.114-0.144,0.268-0.144,0.459c0,0.229,0.084,0.414,0.252,0.559s0.387,0.262,0.657,0.352c0.27,0.09,0.579,0.171,0.927,0.243
	l1.062,0.233c0.372,0.084,0.735,0.187,1.089,0.307c0.354,0.119,0.669,0.278,0.945,0.477c0.276,0.198,0.498,0.444,0.666,0.738
	s0.252,0.656,0.252,1.089c0,0.612-0.123,1.125-0.369,1.539s-0.567,0.747-0.963,0.999s-0.849,0.43-1.359,0.53
	c-0.51,0.103-1.029,0.153-1.557,0.153c-0.54,0-1.068-0.055-1.584-0.162s-0.975-0.288-1.377-0.54
	c-0.402-0.252-0.732-0.585-0.99-0.999c-0.258-0.414-0.399-0.934-0.423-1.558h2.43C171.946,418.602,172.002,418.838,172.117,419.035
	L172.117,419.035z M179.636,414.904c0.036-0.601,0.186-1.099,0.45-1.494c0.264-0.396,0.6-0.713,1.008-0.953
	c0.408-0.24,0.867-0.411,1.377-0.514c0.51-0.103,1.022-0.152,1.539-0.152c0.468,0,0.942,0.033,1.422,0.099
	c0.479,0.066,0.918,0.195,1.314,0.388c0.396,0.191,0.72,0.459,0.972,0.801c0.252,0.343,0.378,0.796,0.378,1.359v4.842
	c0,0.421,0.024,0.821,0.072,1.206s0.132,0.673,0.252,0.863h-2.592c-0.048-0.144-0.087-0.291-0.117-0.44
	c-0.03-0.149-0.051-0.303-0.063-0.459c-0.408,0.421-0.888,0.715-1.44,0.883c-0.552,0.168-1.116,0.252-1.692,0.252
	c-0.444,0-0.858-0.055-1.242-0.162c-0.384-0.107-0.72-0.275-1.008-0.504s-0.513-0.517-0.675-0.864
	c-0.162-0.348-0.243-0.762-0.243-1.241c0-0.527,0.093-0.964,0.279-1.306s0.426-0.615,0.72-0.818c0.294-0.204,0.63-0.356,1.008-0.459
	s0.759-0.184,1.143-0.243c0.384-0.061,0.762-0.107,1.134-0.145c0.372-0.037,0.702-0.09,0.99-0.162
	c0.288-0.071,0.516-0.177,0.684-0.314c0.168-0.139,0.246-0.339,0.234-0.604c0-0.275-0.045-0.495-0.135-0.656
	c-0.09-0.162-0.21-0.288-0.36-0.379c-0.15-0.09-0.324-0.148-0.522-0.18c-0.198-0.03-0.411-0.045-0.639-0.045
	c-0.504,0-0.9,0.107-1.188,0.323c-0.288,0.217-0.456,0.576-0.504,1.08L179.636,414.904L179.636,414.904z M185.541,416.795
	c-0.108,0.096-0.243,0.171-0.405,0.226c-0.162,0.054-0.336,0.099-0.522,0.135l-0.585,0.091c-0.204,0.023-0.408,0.054-0.612,0.09
	c-0.192,0.036-0.381,0.084-0.567,0.145c-0.187,0.061-0.348,0.142-0.486,0.242c-0.138,0.103-0.249,0.231-0.333,0.388
	c-0.084,0.155-0.126,0.354-0.126,0.594c0,0.229,0.042,0.421,0.126,0.576c0.084,0.156,0.198,0.278,0.342,0.369
	c0.144,0.09,0.312,0.152,0.504,0.188s0.39,0.054,0.594,0.054c0.504,0,0.894-0.084,1.17-0.252s0.479-0.368,0.612-0.604
	c0.132-0.233,0.213-0.471,0.243-0.711c0.03-0.239,0.045-0.433,0.045-0.575V416.795L185.541,416.795z M192.614,412.043v1.296h0.054
	c0.324-0.54,0.744-0.934,1.26-1.18c0.516-0.245,1.044-0.368,1.584-0.368c0.684,0,1.245,0.093,1.683,0.278
	c0.438,0.187,0.783,0.443,1.035,0.773s0.429,0.732,0.531,1.206c0.102,0.475,0.153,0.999,0.153,1.575v5.724h-2.556v-5.256
	c0-0.768-0.12-1.341-0.36-1.719s-0.666-0.567-1.278-0.567c-0.696,0-1.2,0.207-1.512,0.621s-0.468,1.096-0.468,2.043v4.878h-2.556
	v-9.306L192.614,412.043L192.614,412.043z M207.556,420.16c-0.3,0.505-0.693,0.867-1.179,1.09c-0.486,0.222-1.035,0.333-1.647,0.333
	c-0.696,0-1.308-0.136-1.836-0.405c-0.528-0.271-0.963-0.636-1.305-1.098c-0.342-0.462-0.6-0.993-0.774-1.594
	c-0.174-0.601-0.261-1.225-0.261-1.872c0-0.623,0.087-1.228,0.261-1.81c0.174-0.582,0.432-1.095,0.774-1.539
	c0.342-0.442,0.771-0.801,1.287-1.07c0.516-0.271,1.116-0.404,1.8-0.404c0.552,0,1.077,0.116,1.575,0.351
	c0.498,0.235,0.891,0.579,1.179,1.035h0.036v-4.68h2.556v12.852h-2.43v-1.188L207.556,420.16L207.556,420.16z M207.448,415.562
	c-0.072-0.354-0.195-0.666-0.369-0.937s-0.399-0.489-0.675-0.657c-0.276-0.168-0.624-0.252-1.044-0.252
	c-0.42,0-0.774,0.084-1.062,0.252c-0.288,0.168-0.519,0.391-0.693,0.666c-0.174,0.276-0.3,0.591-0.378,0.945
	c-0.078,0.354-0.117,0.723-0.117,1.105c0,0.36,0.042,0.721,0.126,1.08c0.084,0.36,0.219,0.683,0.405,0.963
	c0.186,0.282,0.42,0.512,0.702,0.686c0.282,0.174,0.621,0.261,1.017,0.261c0.42,0,0.771-0.084,1.053-0.252
	c0.282-0.168,0.507-0.394,0.675-0.675c0.168-0.282,0.288-0.604,0.36-0.964c0.072-0.359,0.108-0.731,0.108-1.115
	S207.52,415.916,207.448,415.562L207.448,415.562z M214.218,419.035c0.114,0.198,0.261,0.359,0.441,0.486
	c0.18,0.126,0.387,0.22,0.621,0.278c0.234,0.06,0.477,0.09,0.729,0.09c0.18,0,0.369-0.021,0.567-0.062
	c0.198-0.041,0.378-0.107,0.54-0.197c0.162-0.09,0.297-0.21,0.405-0.359s0.162-0.34,0.162-0.567c0-0.384-0.255-0.672-0.765-0.863
	c-0.51-0.191-1.221-0.384-2.133-0.576c-0.372-0.084-0.735-0.183-1.089-0.297c-0.354-0.113-0.669-0.264-0.945-0.45
	c-0.276-0.186-0.498-0.42-0.666-0.701s-0.252-0.627-0.252-1.035c0-0.601,0.117-1.092,0.351-1.477
	c0.234-0.384,0.543-0.687,0.927-0.908c0.384-0.223,0.816-0.379,1.296-0.469s0.972-0.135,1.476-0.135
	c0.504,0,0.993,0.048,1.467,0.145s0.897,0.258,1.269,0.485c0.372,0.229,0.681,0.53,0.927,0.909c0.246,0.378,0.393,0.854,0.441,1.431
	h-2.43c-0.036-0.491-0.222-0.824-0.558-0.999c-0.336-0.174-0.732-0.261-1.188-0.261l-0.468,0.026
	c-0.168,0.019-0.321,0.058-0.459,0.117c-0.138,0.061-0.255,0.146-0.351,0.261c-0.096,0.114-0.144,0.268-0.144,0.459
	c0,0.229,0.084,0.414,0.252,0.559s0.387,0.262,0.657,0.352s0.579,0.171,0.927,0.243l1.062,0.233
	c0.372,0.084,0.735,0.187,1.089,0.307c0.354,0.119,0.669,0.278,0.945,0.477c0.276,0.198,0.498,0.444,0.666,0.738
	c0.168,0.294,0.252,0.656,0.252,1.089c0,0.611-0.123,1.125-0.369,1.539s-0.567,0.747-0.963,0.999s-0.849,0.43-1.359,0.53
	c-0.51,0.103-1.029,0.153-1.557,0.153c-0.54,0-1.068-0.055-1.584-0.162c-0.516-0.107-0.975-0.288-1.377-0.54
	c-0.402-0.252-0.732-0.585-0.99-0.999s-0.399-0.934-0.423-1.558h2.43C214.047,418.602,214.104,418.838,214.218,419.035
	L214.218,419.035z M226.79,414.68c0.228-0.604,0.552-1.122,0.972-1.548s0.924-0.756,1.512-0.99c0.588-0.233,1.248-0.351,1.98-0.351
	c0.731,0,1.395,0.116,1.989,0.351c0.594,0.235,1.101,0.564,1.521,0.99s0.744,0.942,0.972,1.548c0.228,0.606,0.342,1.281,0.342,2.025
	s-0.114,1.416-0.342,2.016c-0.228,0.602-0.552,1.113-0.972,1.539s-0.927,0.753-1.521,0.98c-0.594,0.229-1.257,0.343-1.989,0.343
	s-1.393-0.114-1.98-0.343c-0.588-0.229-1.092-0.556-1.512-0.98c-0.42-0.426-0.744-0.938-0.972-1.539
	c-0.228-0.6-0.342-1.271-0.342-2.016S226.562,415.286,226.79,414.68z M229.112,417.794c0.072,0.354,0.195,0.672,0.369,0.954
	c0.174,0.281,0.405,0.507,0.693,0.675c0.288,0.168,0.648,0.252,1.08,0.252c0.432,0,0.794-0.084,1.089-0.252
	c0.294-0.168,0.528-0.394,0.702-0.675c0.174-0.282,0.297-0.601,0.369-0.954s0.108-0.717,0.108-1.089s-0.036-0.738-0.108-1.099
	c-0.072-0.359-0.195-0.679-0.369-0.954c-0.174-0.275-0.408-0.501-0.702-0.676c-0.294-0.174-0.657-0.261-1.089-0.261
	c-0.432,0-0.792,0.087-1.08,0.261c-0.288,0.175-0.52,0.399-0.693,0.676c-0.174,0.275-0.297,0.595-0.369,0.954
	c-0.072,0.359-0.108,0.727-0.108,1.099S229.04,417.439,229.112,417.794z M236.739,413.753v-1.71h1.53v-0.721
	c0-0.827,0.258-1.506,0.774-2.033c0.516-0.528,1.296-0.792,2.34-0.792c0.228,0,0.456,0.009,0.684,0.026l0.666,0.045v1.908
	c-0.3-0.036-0.612-0.055-0.936-0.055c-0.348,0-0.597,0.081-0.747,0.243c-0.15,0.161-0.225,0.435-0.225,0.818v0.559h1.764v1.71
	h-1.764v7.596h-2.556v-7.596L236.739,413.753L236.739,413.753z M251.139,412.043v1.188h0.036c0.312-0.505,0.708-0.87,1.188-1.099
	c0.48-0.228,1.008-0.342,1.584-0.342c0.732,0,1.362,0.138,1.89,0.414c0.528,0.275,0.966,0.642,1.314,1.098
	c0.348,0.456,0.606,0.987,0.774,1.594c0.168,0.605,0.252,1.238,0.252,1.898c0,0.624-0.084,1.224-0.252,1.8
	c-0.168,0.576-0.423,1.086-0.765,1.53c-0.342,0.443-0.768,0.798-1.278,1.062c-0.51,0.264-1.107,0.396-1.791,0.396
	c-0.576,0-1.107-0.117-1.593-0.352c-0.486-0.233-0.885-0.579-1.197-1.035h-0.036v4.41h-2.556v-12.563H251.139L251.139,412.043z
	 M254.46,419.423c0.282-0.168,0.51-0.388,0.684-0.657s0.297-0.585,0.369-0.944c0.072-0.359,0.108-0.727,0.108-1.099
	c0-0.371-0.039-0.737-0.117-1.098c-0.078-0.36-0.207-0.682-0.387-0.963c-0.18-0.282-0.411-0.511-0.693-0.686
	c-0.282-0.174-0.627-0.261-1.035-0.261c-0.42,0-0.771,0.087-1.053,0.261c-0.282,0.175-0.51,0.399-0.684,0.676
	c-0.174,0.275-0.297,0.595-0.369,0.954c-0.072,0.359-0.108,0.731-0.108,1.115c0,0.372,0.039,0.738,0.117,1.099
	c0.078,0.359,0.204,0.676,0.378,0.944c0.174,0.271,0.405,0.489,0.693,0.657c0.288,0.168,0.636,0.252,1.044,0.252
	C253.827,419.675,254.178,419.591,254.46,419.423L254.46,419.423z M262.565,419.116c0.384,0.372,0.936,0.559,1.656,0.559
	c0.516,0,0.96-0.129,1.332-0.387c0.372-0.259,0.6-0.531,0.684-0.819h2.25c-0.36,1.116-0.912,1.914-1.656,2.395
	c-0.744,0.479-1.645,0.721-2.7,0.721c-0.732,0-1.392-0.117-1.98-0.352c-0.588-0.233-1.086-0.566-1.494-0.999
	c-0.408-0.433-0.723-0.947-0.945-1.548c-0.222-0.601-0.333-1.261-0.333-1.979c0-0.696,0.114-1.345,0.342-1.944
	c0.228-0.599,0.552-1.118,0.972-1.557c0.42-0.438,0.921-0.783,1.503-1.035c0.582-0.252,1.227-0.378,1.935-0.378
	c0.792,0,1.482,0.152,2.07,0.459c0.587,0.306,1.071,0.717,1.449,1.232c0.378,0.517,0.651,1.104,0.819,1.765
	c0.168,0.659,0.228,1.35,0.18,2.069h-6.714C261.971,418.146,262.181,418.745,262.565,419.116L262.565,419.116z M265.454,414.221
	c-0.306-0.336-0.771-0.504-1.395-0.504c-0.408,0-0.747,0.069-1.017,0.207c-0.27,0.139-0.486,0.31-0.648,0.514
	c-0.162,0.203-0.276,0.42-0.342,0.647c-0.066,0.229-0.105,0.433-0.117,0.611h4.158C265.973,415.049,265.76,414.557,265.454,414.221
	L265.454,414.221z M270.263,414.68c0.228-0.604,0.552-1.122,0.972-1.548c0.42-0.426,0.924-0.756,1.512-0.989
	c0.588-0.234,1.248-0.352,1.98-0.352c0.731,0,1.395,0.116,1.989,0.352c0.594,0.234,1.101,0.563,1.521,0.989
	c0.42,0.426,0.744,0.942,0.972,1.548c0.228,0.606,0.342,1.281,0.342,2.025s-0.114,1.416-0.342,2.016
	c-0.228,0.602-0.552,1.113-0.972,1.539c-0.42,0.427-0.927,0.753-1.521,0.98c-0.594,0.229-1.257,0.343-1.989,0.343
	s-1.393-0.114-1.98-0.343c-0.588-0.229-1.092-0.555-1.512-0.98c-0.42-0.426-0.744-0.938-0.972-1.539
	c-0.228-0.6-0.342-1.271-0.342-2.016S270.035,415.286,270.263,414.68z M272.585,417.794c0.072,0.354,0.195,0.672,0.369,0.954
	c0.174,0.281,0.405,0.507,0.693,0.675s0.648,0.252,1.08,0.252s0.794-0.084,1.089-0.252c0.294-0.168,0.528-0.394,0.702-0.675
	c0.174-0.282,0.297-0.601,0.369-0.954c0.072-0.354,0.108-0.717,0.108-1.089s-0.036-0.738-0.108-1.099
	c-0.072-0.359-0.195-0.679-0.369-0.954c-0.174-0.275-0.408-0.501-0.702-0.675c-0.294-0.175-0.657-0.262-1.089-0.262
	s-0.792,0.087-1.08,0.262c-0.288,0.174-0.52,0.398-0.693,0.675c-0.174,0.275-0.297,0.595-0.369,0.954
	c-0.072,0.359-0.108,0.727-0.108,1.099S272.513,417.439,272.585,417.794z M283.666,412.043v1.188h0.036
	c0.312-0.504,0.708-0.87,1.188-1.099c0.48-0.228,1.008-0.342,1.584-0.342c0.732,0,1.362,0.138,1.89,0.414
	c0.528,0.275,0.966,0.642,1.314,1.098c0.348,0.456,0.606,0.987,0.774,1.594c0.168,0.605,0.252,1.238,0.252,1.898
	c0,0.624-0.084,1.225-0.252,1.8c-0.168,0.576-0.423,1.086-0.765,1.53c-0.342,0.443-0.768,0.798-1.278,1.062
	c-0.51,0.264-1.107,0.396-1.791,0.396c-0.576,0-1.107-0.117-1.593-0.352c-0.486-0.233-0.885-0.579-1.197-1.035h-0.036v4.41h-2.556
	v-12.563H283.666L283.666,412.043z M286.987,419.423c0.282-0.168,0.51-0.388,0.684-0.657c0.174-0.27,0.297-0.585,0.369-0.944
	s0.108-0.727,0.108-1.099c0-0.371-0.039-0.737-0.117-1.098c-0.078-0.36-0.207-0.682-0.387-0.963
	c-0.18-0.282-0.411-0.511-0.693-0.685c-0.282-0.175-0.627-0.262-1.035-0.262c-0.42,0-0.771,0.087-1.053,0.262
	c-0.282,0.174-0.51,0.398-0.684,0.675c-0.174,0.275-0.297,0.595-0.369,0.954s-0.108,0.731-0.108,1.115
	c0,0.372,0.039,0.738,0.117,1.099c0.078,0.359,0.204,0.676,0.378,0.944c0.174,0.271,0.405,0.489,0.693,0.657
	s0.636,0.252,1.044,0.252C286.354,419.675,286.705,419.591,286.987,419.423z M294.947,408.497v12.852h-2.556v-12.852H294.947z
	 M299.792,419.116c0.384,0.372,0.936,0.559,1.656,0.559c0.516,0,0.96-0.129,1.332-0.387c0.372-0.259,0.6-0.531,0.684-0.819h2.25
	c-0.36,1.116-0.912,1.914-1.656,2.395c-0.744,0.479-1.645,0.721-2.7,0.721c-0.732,0-1.392-0.117-1.98-0.352
	c-0.588-0.233-1.086-0.566-1.494-0.999c-0.408-0.433-0.723-0.947-0.945-1.548s-0.333-1.261-0.333-1.979
	c0-0.696,0.114-1.345,0.342-1.944c0.228-0.599,0.552-1.118,0.972-1.557c0.42-0.438,0.921-0.783,1.503-1.035s1.227-0.378,1.935-0.378
	c0.792,0,1.482,0.152,2.07,0.459c0.587,0.306,1.071,0.717,1.449,1.232c0.378,0.517,0.651,1.104,0.819,1.765
	c0.168,0.659,0.228,1.35,0.18,2.069h-6.714C299.198,418.146,299.408,418.745,299.792,419.116L299.792,419.116z M302.681,414.221
	c-0.306-0.336-0.771-0.504-1.395-0.504c-0.408,0-0.747,0.069-1.017,0.207c-0.27,0.139-0.486,0.31-0.648,0.514
	c-0.162,0.203-0.276,0.42-0.342,0.647c-0.066,0.229-0.105,0.433-0.117,0.611h4.158C303.2,415.049,302.987,414.557,302.681,414.221
	L302.681,414.221z M320.402,421.349l-1.656-6.245h-0.036l-1.584,6.245h-2.646l-2.952-9.306h2.7l1.71,6.317h0.035l1.549-6.317h2.483
	l1.584,6.3h0.036l1.71-6.3h2.628l-2.934,9.306H320.402L320.402,421.349z M329.583,419.116c0.384,0.372,0.937,0.559,1.656,0.559
	c0.516,0,0.96-0.129,1.332-0.387c0.372-0.259,0.6-0.531,0.684-0.819h2.25c-0.359,1.116-0.912,1.914-1.656,2.395
	c-0.743,0.479-1.645,0.721-2.699,0.721c-0.732,0-1.393-0.117-1.98-0.352c-0.588-0.233-1.086-0.566-1.494-0.999
	s-0.723-0.947-0.944-1.548c-0.223-0.601-0.333-1.261-0.333-1.979c0-0.696,0.113-1.345,0.342-1.944
	c0.228-0.599,0.552-1.118,0.972-1.557c0.42-0.438,0.921-0.783,1.503-1.035s1.228-0.378,1.936-0.378c0.792,0,1.481,0.152,2.069,0.459
	c0.587,0.306,1.071,0.717,1.449,1.232c0.378,0.517,0.651,1.104,0.819,1.765c0.168,0.659,0.228,1.35,0.18,2.069h-6.714
	C328.989,418.146,329.199,418.745,329.583,419.116L329.583,419.116z M332.473,414.221c-0.306-0.336-0.771-0.504-1.395-0.504
	c-0.408,0-0.747,0.069-1.017,0.207c-0.271,0.139-0.486,0.31-0.648,0.514c-0.162,0.203-0.276,0.42-0.342,0.647
	c-0.066,0.229-0.105,0.433-0.117,0.611h4.158C332.991,415.049,332.778,414.557,332.473,414.221L332.473,414.221z M339.708,412.043
	v1.729h0.036c0.12-0.288,0.282-0.556,0.486-0.802c0.203-0.246,0.438-0.456,0.701-0.63c0.265-0.174,0.547-0.309,0.847-0.404
	c0.3-0.097,0.611-0.145,0.936-0.145c0.167,0,0.354,0.029,0.559,0.09v2.376l-0.433-0.062c-0.168-0.019-0.331-0.026-0.485-0.026
	c-0.469,0-0.864,0.078-1.188,0.233s-0.585,0.369-0.783,0.64c-0.197,0.271-0.339,0.585-0.423,0.944s-0.126,0.75-0.126,1.17v4.194
	h-2.556v-9.307H339.708L339.708,412.043z M347.184,419.116c0.385,0.372,0.937,0.559,1.656,0.559c0.517,0,0.96-0.129,1.332-0.387
	c0.372-0.259,0.601-0.531,0.685-0.819h2.25c-0.36,1.116-0.912,1.914-1.656,2.395c-0.744,0.479-1.646,0.721-2.7,0.721
	c-0.732,0-1.392-0.117-1.979-0.352c-0.589-0.233-1.087-0.566-1.494-0.999c-0.408-0.433-0.724-0.947-0.945-1.548
	s-0.333-1.261-0.333-1.979c0-0.696,0.114-1.345,0.342-1.944c0.229-0.599,0.552-1.118,0.973-1.557
	c0.42-0.438,0.921-0.783,1.503-1.035s1.227-0.378,1.935-0.378c0.792,0,1.482,0.152,2.07,0.459c0.587,0.306,1.07,0.717,1.449,1.232
	c0.378,0.517,0.65,1.104,0.818,1.765c0.168,0.659,0.229,1.35,0.18,2.069h-6.714C346.589,418.146,346.799,418.745,347.184,419.116
	L347.184,419.116z M350.073,414.221c-0.306-0.336-0.771-0.504-1.396-0.504c-0.407,0-0.747,0.069-1.017,0.207
	c-0.271,0.139-0.486,0.31-0.648,0.514c-0.161,0.203-0.275,0.42-0.342,0.647c-0.065,0.229-0.104,0.433-0.117,0.611h4.158
	C350.591,415.049,350.378,414.557,350.073,414.221L350.073,414.221z M361.936,419.035c0.113,0.198,0.261,0.36,0.44,0.486
	s0.387,0.22,0.621,0.278c0.234,0.06,0.477,0.09,0.729,0.09c0.18,0,0.368-0.021,0.566-0.062c0.198-0.041,0.378-0.107,0.54-0.197
	s0.297-0.21,0.405-0.359c0.107-0.149,0.162-0.34,0.162-0.567c0-0.384-0.255-0.672-0.766-0.863c-0.51-0.191-1.221-0.384-2.133-0.576
	c-0.372-0.084-0.734-0.183-1.089-0.297c-0.354-0.113-0.669-0.264-0.945-0.449c-0.275-0.187-0.498-0.421-0.666-0.702
	s-0.252-0.627-0.252-1.035c0-0.601,0.117-1.092,0.352-1.477c0.233-0.384,0.543-0.687,0.927-0.908
	c0.384-0.223,0.816-0.378,1.296-0.469c0.48-0.09,0.972-0.135,1.476-0.135c0.505,0,0.993,0.048,1.468,0.145
	c0.474,0.097,0.896,0.258,1.269,0.485c0.372,0.229,0.682,0.53,0.927,0.909c0.246,0.378,0.394,0.854,0.441,1.431h-2.43
	c-0.036-0.491-0.223-0.824-0.559-0.999c-0.336-0.174-0.731-0.261-1.188-0.261l-0.468,0.026c-0.168,0.019-0.321,0.058-0.459,0.117
	c-0.139,0.061-0.256,0.146-0.352,0.261s-0.144,0.268-0.144,0.459c0,0.229,0.084,0.414,0.252,0.559s0.387,0.262,0.657,0.352
	c0.27,0.09,0.578,0.171,0.927,0.243l1.062,0.233c0.372,0.084,0.735,0.187,1.089,0.307c0.354,0.119,0.669,0.278,0.945,0.477
	s0.498,0.444,0.666,0.738s0.252,0.656,0.252,1.089c0,0.612-0.123,1.125-0.369,1.539s-0.566,0.747-0.963,0.999
	c-0.396,0.252-0.849,0.43-1.358,0.531c-0.511,0.102-1.029,0.152-1.558,0.152c-0.54,0-1.067-0.055-1.584-0.162
	c-0.516-0.107-0.975-0.288-1.377-0.54s-0.732-0.585-0.99-0.999s-0.398-0.934-0.423-1.558h2.43
	C361.764,418.602,361.82,418.838,361.936,419.035L361.936,419.035z M371.998,412.043v1.188h0.036
	c0.312-0.504,0.708-0.87,1.188-1.099c0.48-0.228,1.009-0.342,1.584-0.342c0.732,0,1.362,0.138,1.891,0.414
	c0.528,0.275,0.966,0.642,1.312,1.098c0.348,0.456,0.606,0.987,0.774,1.594c0.168,0.605,0.252,1.238,0.252,1.898
	c0,0.624-0.084,1.225-0.252,1.8c-0.168,0.576-0.423,1.086-0.766,1.53c-0.342,0.443-0.769,0.798-1.277,1.062
	c-0.51,0.264-1.107,0.396-1.791,0.396c-0.576,0-1.107-0.117-1.593-0.352c-0.486-0.233-0.886-0.579-1.197-1.035h-0.036v4.41h-2.556
	v-12.563H371.998L371.998,412.043z M375.319,419.423c0.282-0.168,0.51-0.388,0.684-0.657s0.297-0.585,0.369-0.944
	s0.108-0.727,0.108-1.099c0-0.371-0.039-0.737-0.117-1.098s-0.207-0.682-0.387-0.963c-0.181-0.282-0.411-0.511-0.693-0.685
	c-0.282-0.175-0.627-0.262-1.035-0.262c-0.42,0-0.771,0.087-1.053,0.262c-0.282,0.174-0.51,0.398-0.685,0.675
	c-0.174,0.275-0.297,0.595-0.368,0.954c-0.072,0.359-0.108,0.731-0.108,1.115c0,0.372,0.039,0.738,0.117,1.099
	c0.078,0.359,0.204,0.676,0.378,0.944c0.174,0.271,0.404,0.489,0.692,0.657s0.637,0.252,1.044,0.252
	C374.687,419.675,375.037,419.591,375.319,419.423z M380.723,410.604v-2.105h2.558v2.105H380.723z M383.279,412.043v9.306h-2.558
	v-9.306H383.279z M388.125,419.116c0.383,0.372,0.937,0.559,1.656,0.559c0.516,0,0.959-0.129,1.332-0.387
	c0.371-0.259,0.6-0.531,0.684-0.819h2.25c-0.36,1.116-0.912,1.914-1.656,2.395c-0.743,0.479-1.645,0.721-2.698,0.721
	c-0.732,0-1.394-0.117-1.98-0.352c-0.588-0.233-1.086-0.566-1.494-0.999c-0.407-0.433-0.724-0.947-0.944-1.548
	c-0.224-0.601-0.334-1.261-0.334-1.979c0-0.696,0.113-1.345,0.342-1.944s0.553-1.118,0.973-1.557
	c0.42-0.438,0.922-0.783,1.504-1.035s1.228-0.378,1.937-0.378c0.791,0,1.479,0.152,2.067,0.459c0.588,0.306,1.072,0.717,1.449,1.232
	c0.379,0.517,0.65,1.104,0.82,1.765c0.168,0.659,0.227,1.35,0.18,2.069h-6.715C387.531,418.146,387.74,418.745,388.125,419.116
	L388.125,419.116z M391.014,414.221c-0.307-0.336-0.771-0.504-1.395-0.504c-0.408,0-0.748,0.069-1.018,0.207
	c-0.271,0.139-0.486,0.31-0.648,0.514c-0.162,0.203-0.275,0.42-0.342,0.647c-0.066,0.229-0.105,0.433-0.117,0.611h4.158
	C391.533,415.049,391.32,414.557,391.014,414.221L391.014,414.221z M402.43,420.16c-0.299,0.505-0.692,0.867-1.178,1.09
	c-0.486,0.222-1.035,0.333-1.647,0.333c-0.695,0-1.308-0.136-1.836-0.405c-0.527-0.271-0.964-0.636-1.306-1.098
	s-0.6-0.993-0.772-1.594c-0.175-0.601-0.263-1.225-0.263-1.872c0-0.623,0.088-1.228,0.263-1.81c0.174-0.582,0.432-1.095,0.772-1.539
	c0.342-0.442,0.771-0.801,1.287-1.07c0.516-0.271,1.115-0.404,1.801-0.404c0.552,0,1.076,0.116,1.574,0.352
	c0.498,0.234,0.891,0.578,1.18,1.034h0.035v-4.68h2.558v12.853h-2.431v-1.188L402.43,420.16L402.43,420.16z M402.322,415.562
	c-0.072-0.354-0.195-0.666-0.369-0.937s-0.398-0.489-0.676-0.657c-0.275-0.168-0.623-0.252-1.043-0.252s-0.773,0.084-1.062,0.252
	c-0.287,0.168-0.52,0.391-0.692,0.666c-0.174,0.276-0.3,0.592-0.377,0.945c-0.078,0.354-0.117,0.723-0.117,1.106
	c0,0.359,0.041,0.72,0.125,1.079c0.084,0.36,0.219,0.683,0.405,0.964s0.421,0.511,0.701,0.685c0.281,0.174,0.621,0.261,1.019,0.261
	c0.42,0,0.771-0.084,1.053-0.252s0.506-0.394,0.676-0.675c0.168-0.282,0.287-0.604,0.359-0.964c0.072-0.359,0.106-0.731,0.106-1.115
	S402.396,415.916,402.322,415.562L402.322,415.562z M411.881,414.68c0.228-0.604,0.551-1.121,0.972-1.548
	c0.42-0.426,0.924-0.756,1.512-0.989c0.588-0.234,1.248-0.352,1.979-0.352c0.732,0,1.396,0.116,1.988,0.352
	c0.596,0.233,1.103,0.563,1.521,0.989c0.419,0.427,0.743,0.942,0.973,1.548c0.229,0.606,0.342,1.281,0.342,2.025
	s-0.113,1.416-0.342,2.016c-0.229,0.602-0.553,1.113-0.973,1.539c-0.42,0.427-0.927,0.753-1.521,0.98
	c-0.594,0.229-1.256,0.343-1.988,0.343c-0.731,0-1.393-0.114-1.979-0.343c-0.588-0.229-1.092-0.555-1.512-0.98
	c-0.421-0.425-0.744-0.938-0.972-1.539c-0.229-0.6-0.344-1.271-0.344-2.016S411.652,415.286,411.881,414.68z M414.201,417.794
	c0.072,0.354,0.195,0.672,0.369,0.954c0.174,0.281,0.406,0.507,0.692,0.675c0.289,0.168,0.648,0.252,1.08,0.252
	c0.433,0,0.795-0.084,1.09-0.252c0.294-0.168,0.527-0.394,0.701-0.675c0.174-0.282,0.297-0.601,0.369-0.954s0.107-0.717,0.107-1.089
	s-0.035-0.738-0.107-1.099c-0.072-0.359-0.195-0.679-0.369-0.954s-0.407-0.501-0.701-0.675c-0.295-0.175-0.657-0.262-1.09-0.262
	c-0.432,0-0.791,0.087-1.08,0.262c-0.286,0.174-0.52,0.398-0.692,0.675c-0.174,0.275-0.297,0.595-0.369,0.954
	c-0.07,0.359-0.107,0.727-0.107,1.099S414.131,417.439,414.201,417.794z M425.283,412.043v1.296h0.053
	c0.324-0.54,0.744-0.934,1.26-1.18c0.517-0.245,1.046-0.368,1.584-0.368c0.687,0,1.246,0.093,1.685,0.278
	c0.438,0.187,0.783,0.443,1.035,0.773s0.43,0.732,0.53,1.206c0.102,0.475,0.152,0.999,0.152,1.575v5.724h-2.555v-5.256
	c0-0.768-0.121-1.341-0.361-1.719s-0.666-0.567-1.277-0.567c-0.696,0-1.2,0.207-1.512,0.621s-0.469,1.096-0.469,2.043v4.878h-2.557
	v-9.306L425.283,412.043L425.283,412.043z M446.541,421.35l-1.656-6.246h-0.037l-1.584,6.246h-2.646l-2.951-9.307h2.699l1.711,6.317
	h0.035l1.549-6.317h2.484l1.584,6.3h0.034l1.712-6.3h2.627l-2.935,9.307H446.541L446.541,421.35z M455.853,408.497v4.842h0.055
	c0.324-0.54,0.738-0.934,1.242-1.18c0.504-0.245,0.996-0.368,1.475-0.368c0.687,0,1.246,0.093,1.685,0.278
	c0.438,0.187,0.782,0.443,1.034,0.773s0.431,0.732,0.531,1.206c0.102,0.475,0.152,0.999,0.152,1.575v5.724h-2.556v-5.256
	c0-0.768-0.12-1.341-0.36-1.719s-0.666-0.566-1.277-0.566c-0.697,0-1.201,0.206-1.512,0.62c-0.312,0.414-0.469,1.096-0.469,2.043
	v4.878h-2.558v-12.852L455.853,408.497L455.853,408.497z M466.793,419.116c0.385,0.372,0.937,0.559,1.656,0.559
	c0.516,0,0.961-0.129,1.332-0.387c0.371-0.259,0.6-0.531,0.684-0.819h2.25c-0.358,1.116-0.912,1.914-1.655,2.395
	c-0.744,0.479-1.644,0.721-2.699,0.721c-0.732,0-1.394-0.117-1.98-0.352c-0.588-0.233-1.086-0.566-1.494-0.999
	c-0.407-0.433-0.723-0.947-0.942-1.548c-0.224-0.601-0.334-1.261-0.334-1.979c0-0.696,0.112-1.345,0.342-1.944
	c0.229-0.599,0.553-1.118,0.973-1.557c0.42-0.438,0.92-0.783,1.502-1.035s1.228-0.378,1.937-0.378c0.793,0,1.481,0.152,2.069,0.459
	c0.589,0.307,1.07,0.717,1.449,1.232c0.377,0.517,0.65,1.104,0.818,1.765c0.168,0.659,0.229,1.351,0.18,2.069h-6.713
	C466.199,418.146,466.41,418.745,466.793,419.116L466.793,419.116z M469.682,414.221c-0.305-0.336-0.77-0.504-1.395-0.504
	c-0.408,0-0.746,0.069-1.018,0.207c-0.271,0.139-0.484,0.31-0.646,0.514s-0.277,0.42-0.342,0.647
	c-0.066,0.229-0.105,0.433-0.117,0.611h4.158C470.201,415.049,469.988,414.557,469.682,414.221L469.682,414.221z M476.92,412.043
	v1.296h0.053c0.324-0.54,0.744-0.934,1.261-1.18c0.516-0.245,1.045-0.368,1.584-0.368c0.686,0,1.246,0.093,1.684,0.278
	c0.438,0.187,0.783,0.443,1.035,0.773s0.43,0.732,0.531,1.206c0.101,0.475,0.151,0.999,0.151,1.575v5.724h-2.555v-5.256
	c0-0.768-0.121-1.341-0.361-1.719c-0.239-0.378-0.666-0.567-1.276-0.567c-0.697,0-1.201,0.207-1.512,0.621
	c-0.312,0.414-0.47,1.096-0.47,2.043v4.878h-2.557v-9.306L476.92,412.043L476.92,412.043z M496.467,421.35v-1.297h-0.055
	c-0.324,0.54-0.744,0.931-1.26,1.17c-0.517,0.24-1.043,0.36-1.584,0.36c-0.685,0-1.244-0.091-1.683-0.271
	c-0.438-0.181-0.782-0.436-1.034-0.766c-0.253-0.33-0.431-0.731-0.531-1.206c-0.104-0.474-0.154-0.999-0.154-1.575v-5.724h2.557
	v5.256c0,0.769,0.119,1.341,0.359,1.72c0.24,0.378,0.666,0.566,1.279,0.566c0.694,0,1.199-0.207,1.512-0.621
	c0.313-0.414,0.469-1.095,0.469-2.043v-4.878h2.556v9.306h-2.431V421.35z M503.109,419.035c0.115,0.198,0.262,0.36,0.44,0.486
	c0.18,0.126,0.388,0.22,0.621,0.278c0.234,0.06,0.478,0.09,0.729,0.09c0.18,0,0.369-0.021,0.567-0.062
	c0.197-0.041,0.377-0.107,0.539-0.197s0.297-0.21,0.404-0.359c0.109-0.149,0.162-0.339,0.162-0.567c0-0.384-0.254-0.672-0.764-0.863
	c-0.513-0.191-1.224-0.384-2.134-0.576c-0.373-0.084-0.735-0.183-1.09-0.297c-0.354-0.113-0.67-0.264-0.945-0.449
	c-0.274-0.187-0.497-0.421-0.665-0.702c-0.169-0.281-0.253-0.627-0.253-1.035c0-0.601,0.117-1.092,0.353-1.477
	c0.235-0.384,0.543-0.687,0.926-0.908c0.385-0.223,0.816-0.378,1.297-0.469c0.481-0.09,0.974-0.135,1.478-0.135
	s0.992,0.048,1.467,0.145c0.473,0.097,0.896,0.258,1.27,0.485c0.371,0.229,0.681,0.53,0.927,0.909
	c0.245,0.378,0.393,0.854,0.44,1.431h-2.43c-0.037-0.491-0.223-0.824-0.56-0.999c-0.336-0.174-0.731-0.261-1.188-0.261l-0.469,0.026
	c-0.168,0.019-0.32,0.058-0.459,0.117c-0.138,0.061-0.254,0.146-0.351,0.261c-0.098,0.114-0.145,0.268-0.145,0.459
	c0,0.229,0.084,0.414,0.252,0.559s0.387,0.262,0.656,0.352c0.269,0.09,0.58,0.171,0.928,0.243l1.062,0.233
	c0.371,0.084,0.734,0.187,1.089,0.307c0.354,0.119,0.67,0.278,0.944,0.477c0.275,0.198,0.498,0.444,0.666,0.738
	s0.252,0.657,0.252,1.089c0,0.612-0.123,1.125-0.369,1.539c-0.245,0.414-0.565,0.747-0.963,0.999
	c-0.396,0.252-0.85,0.43-1.358,0.531c-0.51,0.101-1.029,0.152-1.558,0.152c-0.539,0-1.067-0.055-1.584-0.162
	c-0.516-0.107-0.975-0.288-1.377-0.54c-0.401-0.252-0.731-0.585-0.99-0.999c-0.258-0.414-0.397-0.934-0.422-1.558h2.431
	C502.939,418.602,502.996,418.838,503.109,419.035L503.109,419.035z M510.799,410.604v-2.105h2.558v2.105H510.799z M513.355,412.043
	v9.307h-2.558v-9.307H513.355z M517.881,412.043v1.296h0.053c0.324-0.54,0.744-0.934,1.261-1.18
	c0.516-0.245,1.045-0.368,1.584-0.368c0.686,0,1.246,0.093,1.684,0.278c0.438,0.187,0.783,0.443,1.035,0.773s0.43,0.732,0.531,1.206
	c0.101,0.475,0.151,0.999,0.151,1.575v5.724h-2.555v-5.256c0-0.768-0.121-1.341-0.361-1.719c-0.239-0.378-0.666-0.567-1.276-0.567
	c-0.697,0-1.201,0.207-1.513,0.621s-0.469,1.096-0.469,2.043v4.878h-2.557v-9.306L517.881,412.043L517.881,412.043z
	 M534.955,422.032c-0.102,0.479-0.322,0.928-0.656,1.342c-0.338,0.414-0.822,0.765-1.459,1.053s-1.487,0.433-2.557,0.433
	c-0.455,0-0.92-0.058-1.396-0.171c-0.475-0.114-0.905-0.291-1.295-0.531c-0.391-0.24-0.715-0.549-0.973-0.927
	s-0.404-0.831-0.441-1.358h2.539c0.119,0.479,0.354,0.812,0.701,0.999c0.349,0.187,0.75,0.278,1.205,0.278
	c0.721,0,1.246-0.216,1.576-0.647c0.33-0.433,0.488-0.979,0.477-1.639v-1.225h-0.034c-0.277,0.492-0.671,0.854-1.181,1.09
	c-0.51,0.234-1.047,0.352-1.61,0.352c-0.695,0-1.296-0.123-1.8-0.369s-0.918-0.582-1.241-1.009
	c-0.324-0.426-0.562-0.924-0.712-1.493c-0.149-0.57-0.227-1.173-0.227-1.81c0-0.601,0.088-1.18,0.262-1.736
	c0.175-0.559,0.431-1.051,0.767-1.477c0.336-0.427,0.752-0.766,1.25-1.018s1.071-0.378,1.719-0.378c0.613,0,1.15,0.114,1.611,0.342
	c0.463,0.229,0.85,0.612,1.162,1.151h0.034v-1.241h2.431v8.712C535.107,421.127,535.057,421.553,534.955,422.032L534.955,422.032z
	 M531.453,418.938c0.277-0.145,0.504-0.336,0.686-0.576c0.181-0.239,0.314-0.514,0.404-0.818c0.09-0.307,0.135-0.627,0.135-0.963
	c0-0.385-0.035-0.747-0.106-1.09c-0.072-0.342-0.193-0.646-0.361-0.908c-0.168-0.265-0.389-0.475-0.666-0.631
	c-0.275-0.155-0.623-0.233-1.043-0.233c-0.359,0-0.67,0.072-0.928,0.217c-0.258,0.144-0.474,0.339-0.646,0.585
	c-0.176,0.246-0.301,0.527-0.379,0.846s-0.117,0.651-0.117,0.999c0,0.336,0.033,0.669,0.101,0.999
	c0.066,0.33,0.18,0.628,0.342,0.892c0.162,0.265,0.375,0.479,0.639,0.647s0.594,0.252,0.99,0.252
	C530.859,419.152,531.178,419.081,531.453,418.938L531.453,418.938z M547.275,412.043v1.71h-1.871v4.607
	c0,0.433,0.072,0.721,0.215,0.864c0.145,0.144,0.434,0.216,0.865,0.216l0.414-0.019l0.377-0.055v1.979
	c-0.215,0.036-0.455,0.061-0.719,0.072c-0.267,0.012-0.523,0.019-0.775,0.019c-0.396,0-0.771-0.026-1.125-0.081
	c-0.354-0.055-0.666-0.159-0.937-0.314c-0.27-0.156-0.481-0.378-0.639-0.666s-0.233-0.666-0.233-1.135v-5.489H541.3v-1.71h1.548
	v-2.79h2.557v2.79L547.275,412.043L547.275,412.043z M551.25,408.497v4.842h0.055c0.324-0.54,0.738-0.934,1.242-1.18
	c0.504-0.245,0.996-0.368,1.476-0.368c0.686,0,1.245,0.093,1.684,0.278c0.438,0.187,0.783,0.443,1.035,0.773s0.43,0.732,0.531,1.206
	c0.101,0.475,0.151,0.999,0.151,1.575v5.724h-2.555v-5.256c0-0.768-0.121-1.341-0.361-1.719s-0.666-0.566-1.276-0.566
	c-0.697,0-1.201,0.206-1.513,0.62s-0.469,1.096-0.469,2.043v4.878h-2.557v-12.852L551.25,408.497L551.25,408.497z M562.191,419.116
	c0.385,0.372,0.936,0.559,1.655,0.559c0.517,0,0.961-0.129,1.332-0.387c0.371-0.259,0.601-0.531,0.685-0.819h2.25
	c-0.359,1.116-0.912,1.914-1.656,2.395c-0.744,0.479-1.643,0.721-2.699,0.721c-0.731,0-1.393-0.117-1.979-0.352
	c-0.588-0.233-1.086-0.566-1.494-0.999s-0.724-0.947-0.943-1.548c-0.223-0.601-0.334-1.261-0.334-1.979
	c0-0.696,0.113-1.345,0.342-1.944c0.229-0.599,0.554-1.118,0.974-1.557c0.42-0.438,0.92-0.783,1.502-1.035s1.227-0.378,1.936-0.378
	c0.793,0,1.482,0.152,2.07,0.459s1.07,0.717,1.449,1.232c0.377,0.517,0.649,1.104,0.817,1.765c0.168,0.659,0.229,1.351,0.181,2.069
	h-6.713C561.598,418.146,561.809,418.745,562.191,419.116L562.191,419.116z M565.08,414.221c-0.305-0.336-0.771-0.504-1.396-0.504
	c-0.407,0-0.745,0.069-1.018,0.207c-0.271,0.139-0.484,0.31-0.646,0.514c-0.162,0.204-0.277,0.42-0.343,0.647
	c-0.065,0.229-0.104,0.433-0.116,0.611h4.157C565.6,415.049,565.387,414.557,565.08,414.221z M569.912,410.604v-2.105h2.555v2.105
	H569.912z M572.467,412.043v9.307h-2.555v-9.307H572.467z M576.994,412.043v1.729h0.035c0.119-0.288,0.28-0.556,0.485-0.802
	c0.203-0.245,0.438-0.456,0.701-0.63s0.547-0.309,0.846-0.404c0.302-0.097,0.613-0.145,0.938-0.145c0.168,0,0.354,0.029,0.557,0.09
	v2.376l-0.432-0.062c-0.168-0.019-0.33-0.026-0.486-0.026c-0.467,0-0.862,0.078-1.188,0.233c-0.324,0.155-0.584,0.369-0.783,0.64
	c-0.197,0.271-0.338,0.585-0.422,0.944s-0.127,0.75-0.127,1.17v4.194h-2.558v-9.307H576.994L576.994,412.043z M594.453,421.25
	c-0.611,0.258-1.23,0.387-1.854,0.387c-0.983,0-1.869-0.171-2.655-0.513c-0.785-0.343-1.447-0.812-1.988-1.413
	c-0.539-0.601-0.953-1.306-1.242-2.115c-0.287-0.811-0.432-1.683-0.432-2.618c0-0.96,0.145-1.852,0.432-2.674
	c0.289-0.821,0.703-1.538,1.242-2.15c0.541-0.611,1.203-1.092,1.988-1.439c0.786-0.349,1.672-0.521,2.655-0.521
	c0.66,0,1.3,0.1,1.916,0.297c0.619,0.198,1.177,0.489,1.675,0.873c0.497,0.385,0.909,0.857,1.233,1.422
	c0.324,0.563,0.521,1.213,0.594,1.944h-2.7c-0.168-0.721-0.492-1.261-0.972-1.62s-1.062-0.54-1.746-0.54
	c-0.637,0-1.176,0.123-1.62,0.369c-0.443,0.246-0.804,0.575-1.08,0.989c-0.275,0.414-0.478,0.886-0.603,1.413
	c-0.127,0.528-0.188,1.074-0.188,1.639c0,0.54,0.062,1.064,0.188,1.574c0.125,0.511,0.326,0.97,0.603,1.377
	c0.276,0.408,0.637,0.735,1.08,0.98c0.444,0.246,0.983,0.369,1.62,0.369c0.937,0,1.658-0.236,2.168-0.711
	c0.511-0.475,0.808-1.161,0.892-2.062h-2.844V414.4h5.399v6.947h-1.799l-0.289-1.458
	C595.623,420.539,595.064,420.992,594.453,421.25L594.453,421.25z M600.344,414.68c0.229-0.604,0.553-1.121,0.974-1.548
	c0.42-0.426,0.924-0.756,1.512-0.989c0.588-0.234,1.248-0.352,1.979-0.352c0.73,0,1.396,0.116,1.988,0.352
	c0.593,0.234,1.102,0.563,1.521,0.989c0.419,0.427,0.743,0.942,0.971,1.548c0.229,0.606,0.344,1.281,0.344,2.025
	s-0.115,1.416-0.344,2.016c-0.228,0.602-0.551,1.113-0.971,1.539c-0.42,0.427-0.929,0.753-1.521,0.98
	c-0.594,0.229-1.258,0.343-1.988,0.343c-0.731,0-1.393-0.114-1.979-0.343c-0.588-0.229-1.092-0.555-1.512-0.98
	c-0.421-0.425-0.744-0.938-0.974-1.539c-0.229-0.6-0.342-1.271-0.342-2.016S600.115,415.286,600.344,414.68z M602.666,417.794
	c0.072,0.354,0.195,0.672,0.369,0.954c0.174,0.281,0.404,0.507,0.692,0.675c0.287,0.168,0.646,0.252,1.08,0.252
	c0.433,0,0.795-0.084,1.089-0.252c0.295-0.168,0.526-0.394,0.702-0.675c0.175-0.282,0.298-0.601,0.369-0.954
	c0.07-0.354,0.107-0.717,0.107-1.089s-0.037-0.738-0.107-1.099c-0.071-0.359-0.194-0.679-0.369-0.954
	c-0.176-0.275-0.407-0.501-0.702-0.675c-0.294-0.175-0.656-0.262-1.089-0.262c-0.434,0-0.793,0.087-1.08,0.262
	c-0.288,0.174-0.52,0.398-0.692,0.675c-0.174,0.275-0.297,0.595-0.369,0.954s-0.107,0.727-0.107,1.099
	S602.594,417.439,602.666,417.794z M611.311,414.68c0.228-0.604,0.552-1.121,0.972-1.548c0.42-0.426,0.924-0.756,1.512-0.989
	c0.588-0.234,1.248-0.352,1.98-0.352c0.731,0,1.395,0.116,1.987,0.352c0.597,0.233,1.103,0.563,1.521,0.989
	c0.419,0.427,0.744,0.942,0.973,1.548c0.229,0.606,0.342,1.281,0.342,2.025s-0.112,1.416-0.342,2.016
	c-0.229,0.602-0.553,1.113-0.973,1.539c-0.42,0.427-0.926,0.753-1.521,0.98c-0.594,0.229-1.256,0.343-1.987,0.343
	c-0.732,0-1.394-0.114-1.98-0.343c-0.588-0.229-1.092-0.555-1.512-0.98c-0.42-0.425-0.744-0.938-0.972-1.539
	c-0.229-0.6-0.344-1.271-0.344-2.016S611.082,415.286,611.311,414.68z M613.631,417.794c0.072,0.354,0.195,0.672,0.369,0.954
	c0.174,0.281,0.406,0.507,0.693,0.675c0.289,0.168,0.647,0.252,1.08,0.252c0.432,0,0.795-0.084,1.09-0.252
	c0.293-0.168,0.526-0.394,0.701-0.675c0.174-0.282,0.297-0.601,0.368-0.954c0.072-0.354,0.107-0.717,0.107-1.089
	s-0.035-0.738-0.107-1.099c-0.071-0.359-0.194-0.679-0.368-0.954c-0.175-0.275-0.408-0.501-0.701-0.675
	c-0.295-0.175-0.658-0.262-1.09-0.262c-0.433,0-0.791,0.087-1.08,0.262c-0.287,0.174-0.521,0.398-0.693,0.675
	c-0.174,0.275-0.297,0.595-0.369,0.954c-0.07,0.359-0.106,0.727-0.106,1.099S613.561,417.439,613.631,417.794z M631.014,422.032
	c-0.102,0.479-0.319,0.928-0.655,1.342c-0.337,0.414-0.822,0.765-1.457,1.053c-0.638,0.288-1.488,0.433-2.558,0.433
	c-0.457,0-0.922-0.058-1.395-0.171c-0.476-0.114-0.906-0.291-1.297-0.531c-0.392-0.24-0.716-0.549-0.974-0.927
	s-0.403-0.831-0.438-1.358h2.537c0.118,0.479,0.354,0.812,0.702,0.999s0.748,0.278,1.205,0.278c0.722,0,1.244-0.216,1.574-0.647
	c0.33-0.433,0.49-0.979,0.479-1.639v-1.225h-0.037c-0.275,0.492-0.668,0.854-1.178,1.09c-0.513,0.233-1.05,0.352-1.611,0.352
	c-0.697,0-1.297-0.123-1.801-0.369c-0.505-0.246-0.918-0.582-1.242-1.009c-0.324-0.426-0.562-0.924-0.711-1.493
	c-0.15-0.57-0.226-1.173-0.226-1.81c0-0.601,0.086-1.18,0.263-1.736c0.174-0.559,0.428-1.051,0.764-1.477
	c0.336-0.427,0.754-0.766,1.252-1.018s1.07-0.378,1.719-0.378c0.611,0,1.148,0.114,1.611,0.342c0.461,0.229,0.848,0.612,1.16,1.151
	h0.037v-1.241h2.43v8.712C631.168,421.127,631.117,421.553,631.014,422.032L631.014,422.032z M627.514,418.938
	c0.275-0.145,0.504-0.336,0.685-0.576c0.18-0.239,0.313-0.514,0.403-0.818c0.093-0.307,0.138-0.627,0.138-0.963
	c0-0.385-0.037-0.747-0.109-1.09c-0.072-0.342-0.19-0.646-0.358-0.908c-0.169-0.265-0.392-0.475-0.666-0.631
	c-0.275-0.155-0.625-0.233-1.046-0.233c-0.358,0-0.668,0.072-0.926,0.217c-0.258,0.144-0.475,0.339-0.647,0.585
	c-0.174,0.246-0.302,0.527-0.377,0.846c-0.078,0.318-0.117,0.651-0.117,0.999c0,0.336,0.031,0.669,0.098,0.999
	c0.067,0.33,0.18,0.628,0.342,0.892c0.162,0.265,0.375,0.479,0.642,0.647c0.264,0.168,0.594,0.252,0.987,0.252
	C626.92,419.152,627.238,419.081,627.514,418.938L627.514,418.938z M635.867,408.497v12.853h-2.558v-12.853H635.867z
	 M640.713,419.116c0.383,0.372,0.937,0.559,1.656,0.559c0.516,0,0.959-0.129,1.332-0.387c0.371-0.259,0.6-0.531,0.684-0.819h2.25
	c-0.36,1.116-0.912,1.914-1.656,2.395c-0.743,0.479-1.645,0.721-2.698,0.721c-0.732,0-1.394-0.117-1.98-0.352
	c-0.588-0.233-1.086-0.566-1.494-0.999c-0.407-0.433-0.723-0.947-0.944-1.548c-0.224-0.601-0.332-1.261-0.332-1.979
	c0-0.696,0.112-1.345,0.342-1.944c0.227-0.6,0.551-1.118,0.971-1.557c0.42-0.438,0.922-0.783,1.504-1.035s1.228-0.378,1.937-0.378
	c0.791,0,1.479,0.152,2.067,0.459c0.589,0.307,1.072,0.717,1.449,1.232c0.379,0.517,0.65,1.104,0.82,1.765
	c0.168,0.659,0.227,1.351,0.18,2.069h-6.715C640.119,418.146,640.328,418.745,640.713,419.116L640.713,419.116z M643.602,414.221
	c-0.307-0.336-0.771-0.504-1.395-0.504c-0.408,0-0.748,0.069-1.018,0.207c-0.271,0.139-0.486,0.31-0.648,0.514
	s-0.275,0.42-0.342,0.647c-0.066,0.229-0.105,0.433-0.117,0.611h4.158C644.121,415.049,643.908,414.557,643.602,414.221z
	 M66.765,433.043v1.26h0.036c0.335-0.479,0.741-0.852,1.215-1.115c0.474-0.265,1.017-0.396,1.629-0.396
	c0.588,0,1.125,0.114,1.611,0.342c0.486,0.229,0.855,0.63,1.107,1.206c0.276-0.407,0.65-0.768,1.125-1.08
	c0.474-0.312,1.035-0.468,1.683-0.468c0.492,0,0.948,0.061,1.368,0.18c0.42,0.12,0.78,0.312,1.08,0.576
	c0.3,0.265,0.534,0.609,0.702,1.035c0.167,0.426,0.252,0.938,0.252,1.539v6.229h-2.556v-5.274c0-0.312-0.012-0.605-0.036-0.882
	c-0.024-0.275-0.09-0.517-0.198-0.72c-0.108-0.204-0.267-0.366-0.477-0.486c-0.21-0.119-0.495-0.18-0.855-0.18
	c-0.36,0-0.651,0.068-0.873,0.207c-0.222,0.138-0.396,0.317-0.522,0.54c-0.126,0.222-0.21,0.474-0.252,0.756
	c-0.042,0.281-0.063,0.566-0.063,0.854v5.185h-2.556v-5.221c0-0.275-0.006-0.549-0.018-0.818c-0.012-0.271-0.063-0.52-0.153-0.747
	c-0.09-0.229-0.24-0.411-0.45-0.549c-0.21-0.139-0.519-0.207-0.927-0.207c-0.12,0-0.279,0.026-0.477,0.081
	c-0.198,0.054-0.39,0.155-0.576,0.306c-0.186,0.149-0.345,0.366-0.477,0.647c-0.132,0.282-0.198,0.651-0.198,1.106v5.4h-2.556
	v-9.307L66.765,433.043L66.765,433.043z M80.537,435.904c0.036-0.601,0.186-1.099,0.45-1.494c0.264-0.396,0.6-0.713,1.008-0.953
	c0.408-0.24,0.867-0.411,1.377-0.514c0.51-0.103,1.022-0.152,1.539-0.152c0.468,0,0.942,0.033,1.422,0.099
	c0.479,0.066,0.918,0.195,1.314,0.388c0.396,0.191,0.72,0.459,0.972,0.801c0.252,0.343,0.378,0.796,0.378,1.359v4.842
	c0,0.421,0.024,0.822,0.072,1.206c0.048,0.385,0.132,0.673,0.252,0.864h-2.592c-0.048-0.145-0.087-0.291-0.117-0.441
	c-0.03-0.149-0.051-0.303-0.063-0.459c-0.408,0.421-0.888,0.715-1.44,0.883c-0.552,0.168-1.116,0.252-1.692,0.252
	c-0.444,0-0.858-0.055-1.242-0.162c-0.384-0.107-0.72-0.275-1.008-0.504s-0.513-0.517-0.675-0.864
	c-0.162-0.348-0.243-0.762-0.243-1.241c0-0.527,0.093-0.964,0.279-1.306s0.426-0.614,0.72-0.818s0.63-0.356,1.008-0.459
	s0.759-0.184,1.143-0.243c0.384-0.061,0.762-0.107,1.134-0.145c0.372-0.037,0.702-0.09,0.99-0.162
	c0.288-0.071,0.516-0.177,0.684-0.314s0.246-0.339,0.234-0.604c0-0.275-0.045-0.494-0.135-0.656c-0.09-0.162-0.21-0.288-0.36-0.378
	c-0.15-0.091-0.324-0.149-0.522-0.181c-0.198-0.029-0.411-0.045-0.639-0.045c-0.504,0-0.9,0.107-1.188,0.323
	c-0.288,0.217-0.456,0.576-0.504,1.08L80.537,435.904L80.537,435.904z M86.441,437.795c-0.108,0.096-0.243,0.171-0.405,0.226
	c-0.162,0.054-0.336,0.099-0.522,0.135l-0.585,0.091c-0.204,0.023-0.408,0.054-0.612,0.09c-0.192,0.036-0.381,0.084-0.567,0.145
	c-0.187,0.061-0.348,0.142-0.486,0.242c-0.138,0.103-0.249,0.231-0.333,0.388s-0.126,0.354-0.126,0.594
	c0,0.229,0.042,0.421,0.126,0.576c0.084,0.156,0.198,0.279,0.342,0.369s0.312,0.152,0.504,0.188c0.192,0.036,0.39,0.055,0.594,0.055
	c0.504,0,0.894-0.085,1.17-0.253s0.479-0.368,0.612-0.604c0.132-0.233,0.213-0.471,0.243-0.711c0.03-0.239,0.045-0.433,0.045-0.575
	V437.795L86.441,437.795z M91.111,431.604v-2.105h2.556v2.105H91.111z M93.667,433.043v9.307h-2.556v-9.307H93.667z M98.353,429.497
	v12.853h-2.556v-12.853H98.353z M105.265,435.904c0.036-0.601,0.186-1.098,0.45-1.494c0.264-0.396,0.6-0.713,1.008-0.953
	c0.408-0.24,0.867-0.411,1.377-0.514c0.51-0.103,1.022-0.152,1.539-0.152c0.468,0,0.942,0.033,1.422,0.1
	c0.479,0.065,0.918,0.194,1.314,0.387c0.396,0.191,0.72,0.459,0.972,0.801c0.252,0.343,0.378,0.796,0.378,1.359v4.842
	c0,0.421,0.024,0.822,0.072,1.206c0.048,0.385,0.132,0.673,0.252,0.864h-2.592c-0.048-0.145-0.087-0.291-0.117-0.441
	c-0.03-0.149-0.051-0.303-0.063-0.459c-0.408,0.421-0.888,0.715-1.44,0.883c-0.552,0.168-1.116,0.252-1.692,0.252
	c-0.444,0-0.858-0.055-1.242-0.162c-0.384-0.107-0.72-0.275-1.008-0.504s-0.513-0.517-0.675-0.864
	c-0.162-0.348-0.243-0.762-0.243-1.241c0-0.527,0.093-0.963,0.279-1.306c0.186-0.342,0.426-0.614,0.72-0.818s0.63-0.356,1.008-0.459
	s0.759-0.184,1.143-0.243c0.384-0.061,0.762-0.107,1.134-0.145c0.372-0.037,0.702-0.09,0.99-0.162
	c0.288-0.071,0.516-0.177,0.684-0.314s0.246-0.339,0.234-0.604c0-0.275-0.045-0.494-0.135-0.656c-0.09-0.162-0.21-0.288-0.36-0.378
	c-0.15-0.091-0.324-0.149-0.522-0.181c-0.198-0.029-0.411-0.045-0.639-0.045c-0.504,0-0.9,0.107-1.188,0.323
	c-0.288,0.217-0.456,0.576-0.504,1.08L105.265,435.904L105.265,435.904z M111.169,437.795c-0.108,0.097-0.243,0.171-0.405,0.226
	c-0.162,0.054-0.336,0.099-0.522,0.135l-0.585,0.091c-0.204,0.023-0.408,0.054-0.612,0.09c-0.192,0.036-0.381,0.084-0.567,0.145
	c-0.187,0.061-0.348,0.142-0.486,0.243c-0.138,0.102-0.249,0.23-0.333,0.387s-0.126,0.354-0.126,0.594
	c0,0.229,0.042,0.421,0.126,0.576c0.084,0.156,0.198,0.279,0.342,0.369s0.312,0.152,0.504,0.188c0.192,0.036,0.39,0.055,0.594,0.055
	c0.504,0,0.894-0.084,1.17-0.253c0.276-0.168,0.479-0.368,0.612-0.604c0.132-0.233,0.213-0.471,0.243-0.711
	c0.03-0.239,0.045-0.432,0.045-0.575V437.795L111.169,437.795z M120.118,434.717c-0.408,0-0.75,0.094-1.026,0.279
	c-0.276,0.186-0.501,0.426-0.675,0.72s-0.297,0.618-0.369,0.973c-0.072,0.354-0.108,0.705-0.108,1.053
	c0,0.337,0.036,0.679,0.108,1.026c0.072,0.349,0.189,0.662,0.351,0.944s0.38,0.514,0.657,0.692c0.276,0.181,0.612,0.271,1.008,0.271
	c0.612,0,1.083-0.171,1.413-0.513c0.33-0.343,0.537-0.802,0.621-1.378h2.466c-0.168,1.236-0.648,2.179-1.44,2.826
	s-1.806,0.973-3.042,0.973c-0.696,0-1.335-0.117-1.917-0.352c-0.582-0.233-1.077-0.562-1.485-0.98
	c-0.408-0.42-0.726-0.921-0.954-1.503s-0.342-1.222-0.342-1.917c0-0.721,0.105-1.39,0.315-2.008c0.21-0.617,0.519-1.151,0.927-1.603
	c0.408-0.449,0.906-0.801,1.494-1.053s1.26-0.378,2.016-0.378c0.552,0,1.083,0.071,1.593,0.216c0.51,0.145,0.966,0.363,1.368,0.657
	c0.402,0.294,0.729,0.659,0.981,1.098c0.252,0.439,0.396,0.957,0.432,1.558h-2.502C121.84,435.251,121.21,434.717,120.118,434.717z
	 M130.517,434.717c-0.408,0-0.75,0.094-1.026,0.279c-0.276,0.186-0.501,0.426-0.675,0.72c-0.174,0.294-0.297,0.618-0.369,0.973
	c-0.072,0.354-0.108,0.705-0.108,1.053c0,0.337,0.036,0.679,0.108,1.026c0.072,0.349,0.189,0.662,0.351,0.944
	c0.162,0.282,0.38,0.514,0.657,0.692c0.276,0.181,0.612,0.271,1.008,0.271c0.612,0,1.083-0.171,1.413-0.513
	c0.33-0.343,0.537-0.802,0.621-1.378h2.466c-0.168,1.236-0.648,2.179-1.44,2.826s-1.806,0.973-3.042,0.973
	c-0.696,0-1.335-0.117-1.917-0.352c-0.582-0.233-1.077-0.562-1.485-0.98c-0.408-0.42-0.726-0.921-0.954-1.503
	s-0.342-1.222-0.342-1.917c0-0.721,0.105-1.39,0.315-2.008c0.21-0.617,0.519-1.151,0.927-1.603c0.408-0.449,0.906-0.801,1.494-1.053
	s1.26-0.378,2.016-0.378c0.552,0,1.083,0.071,1.593,0.216c0.51,0.145,0.966,0.363,1.368,0.657c0.402,0.294,0.729,0.659,0.981,1.098
	c0.252,0.439,0.396,0.957,0.432,1.558h-2.502C132.238,435.251,131.608,434.717,130.517,434.717L130.517,434.717z M136.514,435.68
	c0.228-0.604,0.552-1.121,0.972-1.548c0.42-0.426,0.924-0.756,1.512-0.989c0.588-0.234,1.248-0.352,1.98-0.352
	c0.731,0,1.395,0.116,1.989,0.352c0.594,0.234,1.101,0.563,1.521,0.989c0.42,0.427,0.744,0.942,0.972,1.548
	c0.228,0.606,0.342,1.281,0.342,2.025s-0.114,1.416-0.342,2.016c-0.228,0.602-0.552,1.113-0.972,1.539
	c-0.42,0.427-0.927,0.753-1.521,0.98c-0.594,0.229-1.257,0.343-1.989,0.343s-1.393-0.114-1.98-0.343
	c-0.588-0.229-1.092-0.555-1.512-0.98c-0.42-0.426-0.744-0.938-0.972-1.539c-0.228-0.6-0.342-1.271-0.342-2.016
	S136.286,436.286,136.514,435.68z M138.836,438.794c0.072,0.354,0.195,0.672,0.369,0.954c0.174,0.281,0.405,0.507,0.693,0.675
	s0.648,0.252,1.08,0.252s0.794-0.084,1.089-0.252c0.294-0.168,0.528-0.394,0.702-0.675c0.174-0.282,0.297-0.601,0.369-0.954
	c0.072-0.354,0.108-0.717,0.108-1.089s-0.036-0.738-0.108-1.099c-0.072-0.359-0.195-0.679-0.369-0.954s-0.408-0.501-0.702-0.675
	c-0.294-0.175-0.657-0.262-1.089-0.262s-0.792,0.087-1.08,0.262c-0.288,0.174-0.52,0.398-0.693,0.675
	c-0.174,0.275-0.297,0.595-0.369,0.954c-0.072,0.359-0.108,0.727-0.108,1.099S138.764,438.439,138.836,438.794z M153.758,442.35
	v-1.297h-0.054c-0.324,0.54-0.744,0.931-1.26,1.171c-0.516,0.239-1.044,0.359-1.584,0.359c-0.684,0-1.245-0.091-1.683-0.271
	c-0.438-0.181-0.783-0.436-1.035-0.766s-0.429-0.731-0.531-1.206c-0.102-0.474-0.153-0.999-0.153-1.574v-5.725h2.556v5.256
	c0,0.769,0.12,1.341,0.36,1.72c0.24,0.378,0.666,0.566,1.278,0.566c0.696,0,1.2-0.207,1.512-0.621s0.468-1.095,0.468-2.043v-4.878
	h2.556v9.306h-2.43V442.35z M160.686,433.043v1.296h0.054c0.324-0.54,0.744-0.934,1.26-1.18c0.516-0.245,1.044-0.368,1.584-0.368
	c0.684,0,1.245,0.093,1.683,0.278c0.438,0.187,0.783,0.443,1.035,0.773c0.252,0.33,0.429,0.732,0.531,1.206
	c0.102,0.475,0.153,0.999,0.153,1.575v5.724h-2.556v-5.256c0-0.768-0.12-1.341-0.36-1.719c-0.24-0.378-0.666-0.566-1.278-0.566
	c-0.696,0-1.2,0.206-1.512,0.62s-0.468,1.096-0.468,2.043v4.878h-2.556v-9.306L160.686,433.043L160.686,433.043z M174.072,433.043
	v1.71H172.2v4.607c0,0.433,0.072,0.721,0.216,0.864s0.432,0.216,0.864,0.216l0.414-0.019l0.378-0.055v1.98
	c-0.216,0.035-0.456,0.06-0.72,0.071c-0.264,0.013-0.522,0.019-0.774,0.019c-0.396,0-0.771-0.026-1.125-0.081
	s-0.666-0.159-0.936-0.314c-0.27-0.156-0.483-0.378-0.639-0.666c-0.156-0.288-0.234-0.666-0.234-1.135v-5.489h-1.548v-1.71h1.548
	v-2.79h2.556v2.79L174.072,433.043L174.072,433.043z M177.668,440.035c0.114,0.198,0.261,0.36,0.441,0.486
	c0.18,0.126,0.387,0.22,0.621,0.278c0.234,0.06,0.477,0.091,0.729,0.091c0.18,0,0.369-0.021,0.567-0.063
	c0.198-0.041,0.378-0.107,0.54-0.197s0.297-0.21,0.405-0.359c0.108-0.149,0.162-0.339,0.162-0.567c0-0.384-0.255-0.672-0.765-0.863
	c-0.51-0.191-1.221-0.384-2.133-0.575c-0.372-0.085-0.735-0.184-1.089-0.298c-0.354-0.113-0.669-0.264-0.945-0.449
	c-0.276-0.187-0.498-0.42-0.666-0.702c-0.168-0.281-0.252-0.627-0.252-1.035c0-0.601,0.117-1.092,0.351-1.477
	c0.234-0.384,0.543-0.687,0.927-0.908c0.384-0.223,0.816-0.378,1.296-0.469c0.48-0.09,0.972-0.135,1.476-0.135
	s0.993,0.048,1.467,0.145c0.474,0.097,0.897,0.258,1.269,0.485c0.372,0.229,0.681,0.53,0.927,0.909
	c0.246,0.378,0.393,0.854,0.441,1.431h-2.43c-0.036-0.491-0.222-0.824-0.558-0.998c-0.336-0.175-0.732-0.262-1.188-0.262
	l-0.468,0.026c-0.168,0.019-0.321,0.058-0.459,0.117c-0.138,0.061-0.255,0.146-0.351,0.261c-0.096,0.114-0.144,0.268-0.144,0.459
	c0,0.229,0.084,0.414,0.252,0.559s0.387,0.262,0.657,0.352s0.579,0.171,0.927,0.243l1.062,0.233
	c0.372,0.084,0.735,0.187,1.089,0.307c0.354,0.119,0.669,0.278,0.945,0.477s0.498,0.444,0.666,0.738s0.252,0.657,0.252,1.089
	c0,0.612-0.123,1.125-0.369,1.539c-0.246,0.414-0.567,0.747-0.963,0.999s-0.849,0.43-1.359,0.531
	c-0.51,0.102-1.029,0.152-1.557,0.152c-0.54,0-1.068-0.055-1.584-0.162s-0.975-0.288-1.377-0.54s-0.732-0.585-0.99-0.999
	c-0.258-0.414-0.399-0.934-0.423-1.558h2.43C177.498,439.602,177.554,439.838,177.668,440.035L177.668,440.035z M195.299,433.043
	v1.71h-1.872v4.607c0,0.433,0.072,0.721,0.216,0.864s0.432,0.216,0.864,0.216l0.414-0.019l0.378-0.055v1.98
	c-0.216,0.035-0.456,0.06-0.72,0.071c-0.264,0.013-0.522,0.019-0.774,0.019c-0.396,0-0.771-0.026-1.125-0.081
	s-0.666-0.159-0.936-0.314c-0.27-0.156-0.483-0.378-0.639-0.666c-0.156-0.288-0.234-0.666-0.234-1.135v-5.489h-1.548v-1.71h1.548
	v-2.79h2.556v2.79L195.299,433.043L195.299,433.043z M199.273,429.497v4.842h0.054c0.324-0.54,0.738-0.934,1.242-1.18
	c0.504-0.245,0.996-0.368,1.476-0.368c0.684,0,1.245,0.093,1.683,0.278c0.438,0.187,0.783,0.444,1.035,0.773
	c0.252,0.33,0.429,0.732,0.531,1.206c0.102,0.475,0.153,0.999,0.153,1.575v5.725h-2.556v-5.257c0-0.768-0.12-1.341-0.36-1.719
	c-0.24-0.378-0.666-0.566-1.278-0.566c-0.696,0-1.2,0.207-1.512,0.62c-0.312,0.414-0.468,1.096-0.468,2.043v4.879h-2.556v-12.853
	L199.273,429.497L199.273,429.497z M209.931,433.043v1.729h0.036c0.12-0.288,0.282-0.556,0.486-0.802
	c0.204-0.245,0.438-0.456,0.702-0.63c0.264-0.174,0.546-0.309,0.846-0.404c0.3-0.097,0.612-0.145,0.936-0.145
	c0.167,0,0.354,0.029,0.558,0.09v2.376l-0.432-0.062c-0.168-0.019-0.331-0.026-0.486-0.026c-0.468,0-0.864,0.078-1.188,0.233
	c-0.324,0.156-0.585,0.369-0.783,0.64c-0.198,0.271-0.339,0.585-0.423,0.944s-0.126,0.75-0.126,1.17v4.194h-2.556v-9.307H209.931
	L209.931,433.043z M214.661,435.68c0.228-0.604,0.552-1.121,0.972-1.548c0.42-0.426,0.924-0.756,1.512-0.989
	c0.588-0.234,1.248-0.352,1.98-0.352c0.731,0,1.395,0.116,1.989,0.352c0.594,0.234,1.101,0.563,1.521,0.989
	c0.42,0.427,0.744,0.942,0.972,1.548c0.228,0.606,0.342,1.281,0.342,2.025s-0.114,1.416-0.342,2.016
	c-0.228,0.602-0.552,1.113-0.972,1.539c-0.42,0.427-0.927,0.753-1.521,0.98c-0.594,0.229-1.257,0.343-1.989,0.343
	s-1.393-0.114-1.98-0.343c-0.588-0.229-1.092-0.555-1.512-0.98c-0.42-0.426-0.744-0.938-0.972-1.539
	c-0.228-0.6-0.342-1.271-0.342-2.016S214.433,436.286,214.661,435.68z M216.983,438.794c0.072,0.354,0.195,0.672,0.369,0.954
	c0.174,0.281,0.405,0.507,0.693,0.675s0.648,0.252,1.08,0.252s0.794-0.084,1.089-0.252c0.294-0.168,0.528-0.394,0.702-0.675
	c0.174-0.282,0.297-0.601,0.369-0.954c0.072-0.354,0.108-0.717,0.108-1.089s-0.036-0.738-0.108-1.099
	c-0.072-0.359-0.195-0.679-0.369-0.954s-0.408-0.501-0.702-0.675c-0.294-0.175-0.657-0.262-1.089-0.262s-0.792,0.087-1.08,0.262
	c-0.288,0.174-0.52,0.398-0.693,0.675c-0.174,0.275-0.297,0.595-0.369,0.954c-0.072,0.359-0.108,0.727-0.108,1.099
	S216.911,438.439,216.983,438.794z M231.905,442.35v-1.297h-0.054c-0.324,0.54-0.744,0.931-1.26,1.171
	c-0.516,0.239-1.044,0.359-1.584,0.359c-0.684,0-1.245-0.091-1.683-0.271c-0.438-0.181-0.783-0.436-1.035-0.766
	s-0.429-0.731-0.531-1.206c-0.102-0.474-0.153-0.999-0.153-1.574v-5.725h2.556v5.256c0,0.769,0.12,1.341,0.36,1.72
	c0.24,0.378,0.666,0.566,1.278,0.566c0.696,0,1.2-0.207,1.512-0.621s0.468-1.095,0.468-2.043v-4.878h2.556v9.306h-2.43V442.35z
	 M245.139,443.032c-0.102,0.479-0.321,0.928-0.657,1.342s-0.822,0.766-1.458,1.053c-0.636,0.288-1.488,0.433-2.556,0.433
	c-0.457,0-0.921-0.058-1.395-0.171c-0.475-0.114-0.906-0.291-1.296-0.531c-0.39-0.24-0.714-0.549-0.972-0.927
	c-0.258-0.378-0.405-0.831-0.441-1.358h2.538c0.12,0.479,0.354,0.812,0.702,0.999s0.75,0.278,1.206,0.278
	c0.72,0,1.245-0.216,1.575-0.647c0.33-0.433,0.489-0.979,0.477-1.639v-1.224h-0.036c-0.276,0.491-0.669,0.854-1.179,1.089
	c-0.51,0.233-1.047,0.352-1.611,0.352c-0.696,0-1.296-0.123-1.8-0.369c-0.504-0.246-0.918-0.582-1.242-1.009
	c-0.324-0.426-0.561-0.924-0.711-1.493c-0.15-0.57-0.225-1.173-0.225-1.81c0-0.601,0.087-1.18,0.261-1.736
	c0.174-0.559,0.429-1.051,0.765-1.477c0.336-0.427,0.753-0.766,1.251-1.018s1.071-0.378,1.719-0.378
	c0.612,0,1.149,0.114,1.611,0.342c0.462,0.229,0.849,0.612,1.161,1.151h0.036v-1.241h2.43v8.712
	C245.292,442.127,245.24,442.553,245.139,443.032L245.139,443.032z M241.638,439.938c0.276-0.145,0.504-0.336,0.684-0.576
	c0.18-0.239,0.315-0.513,0.405-0.818c0.09-0.307,0.135-0.627,0.135-0.963c0-0.385-0.036-0.747-0.108-1.09
	c-0.072-0.342-0.192-0.646-0.36-0.908c-0.168-0.265-0.39-0.475-0.666-0.631c-0.276-0.155-0.624-0.233-1.044-0.233
	c-0.36,0-0.669,0.072-0.927,0.217c-0.258,0.144-0.474,0.339-0.648,0.585c-0.174,0.246-0.3,0.527-0.378,0.846
	s-0.117,0.651-0.117,0.999c0,0.336,0.033,0.669,0.099,0.999s0.18,0.628,0.342,0.892c0.162,0.265,0.375,0.479,0.639,0.647
	c0.264,0.168,0.594,0.252,0.99,0.252C241.043,440.152,241.361,440.081,241.638,439.938L241.638,439.938z M249.96,429.497v4.842
	h0.054c0.324-0.54,0.738-0.934,1.242-1.18c0.504-0.245,0.996-0.368,1.476-0.368c0.684,0,1.245,0.093,1.683,0.278
	c0.438,0.187,0.783,0.444,1.035,0.773c0.252,0.33,0.429,0.732,0.531,1.206c0.102,0.475,0.153,0.999,0.153,1.575v5.725h-2.556v-5.257
	c0-0.768-0.12-1.341-0.36-1.719c-0.24-0.378-0.666-0.566-1.278-0.566c-0.696,0-1.2,0.207-1.512,0.62
	c-0.312,0.414-0.468,1.096-0.468,2.043v4.879h-2.556v-12.853L249.96,429.497L249.96,429.497z M262.974,435.904
	c0.036-0.601,0.186-1.098,0.45-1.494c0.264-0.396,0.6-0.713,1.008-0.953c0.408-0.24,0.867-0.411,1.377-0.514
	c0.51-0.103,1.022-0.152,1.539-0.152c0.468,0,0.942,0.033,1.422,0.1c0.479,0.065,0.918,0.194,1.314,0.387
	c0.396,0.191,0.72,0.459,0.972,0.801c0.252,0.343,0.378,0.796,0.378,1.359v4.842c0,0.421,0.024,0.822,0.072,1.206
	c0.048,0.385,0.132,0.673,0.252,0.864h-2.592c-0.048-0.145-0.087-0.291-0.117-0.441c-0.03-0.149-0.051-0.303-0.063-0.459
	c-0.408,0.421-0.888,0.715-1.44,0.883c-0.552,0.168-1.116,0.252-1.692,0.252c-0.444,0-0.858-0.055-1.242-0.162
	c-0.384-0.107-0.72-0.275-1.008-0.504s-0.513-0.517-0.675-0.864c-0.162-0.348-0.243-0.762-0.243-1.241
	c0-0.527,0.093-0.963,0.279-1.306c0.186-0.342,0.426-0.614,0.72-0.818s0.63-0.356,1.008-0.459s0.759-0.184,1.143-0.243
	c0.384-0.061,0.762-0.107,1.134-0.145c0.372-0.037,0.702-0.09,0.99-0.162c0.288-0.071,0.516-0.177,0.684-0.314
	s0.246-0.339,0.234-0.604c0-0.275-0.045-0.494-0.135-0.656c-0.09-0.162-0.21-0.288-0.36-0.378c-0.15-0.091-0.324-0.149-0.522-0.181
	c-0.198-0.029-0.411-0.045-0.639-0.045c-0.504,0-0.9,0.107-1.188,0.323c-0.288,0.217-0.456,0.576-0.504,1.08L262.974,435.904
	L262.974,435.904z M268.878,437.795c-0.108,0.097-0.243,0.171-0.405,0.226c-0.162,0.054-0.336,0.099-0.522,0.135l-0.585,0.091
	c-0.204,0.023-0.408,0.054-0.612,0.09c-0.192,0.036-0.381,0.084-0.567,0.145c-0.187,0.061-0.348,0.142-0.486,0.243
	c-0.138,0.102-0.249,0.23-0.333,0.387s-0.126,0.354-0.126,0.594c0,0.229,0.042,0.421,0.126,0.576
	c0.084,0.156,0.198,0.279,0.342,0.369s0.312,0.152,0.504,0.188c0.192,0.036,0.39,0.055,0.594,0.055c0.504,0,0.894-0.084,1.17-0.252
	c0.276-0.169,0.479-0.369,0.612-0.604c0.132-0.233,0.213-0.471,0.243-0.711c0.03-0.239,0.045-0.432,0.045-0.575V437.795
	L268.878,437.795z M280.902,433.043v1.26h0.036c0.335-0.479,0.741-0.852,1.215-1.115c0.474-0.265,1.017-0.396,1.629-0.396
	c0.588,0,1.125,0.114,1.611,0.342c0.486,0.229,0.855,0.631,1.107,1.206c0.276-0.407,0.65-0.768,1.125-1.08
	c0.474-0.312,1.035-0.468,1.683-0.468c0.492,0,0.948,0.061,1.368,0.18c0.42,0.12,0.78,0.312,1.08,0.576
	c0.3,0.265,0.534,0.609,0.702,1.035c0.167,0.426,0.252,0.938,0.252,1.539v6.229h-2.556v-5.274c0-0.312-0.012-0.605-0.036-0.882
	c-0.024-0.275-0.09-0.517-0.198-0.72c-0.108-0.204-0.267-0.366-0.477-0.486c-0.21-0.119-0.495-0.18-0.855-0.18
	c-0.36,0-0.651,0.068-0.873,0.207c-0.222,0.138-0.396,0.317-0.522,0.54c-0.126,0.222-0.21,0.474-0.252,0.756
	c-0.042,0.281-0.063,0.566-0.063,0.854v5.185h-2.556v-5.221c0-0.275-0.006-0.549-0.018-0.818c-0.012-0.271-0.063-0.52-0.153-0.747
	c-0.09-0.229-0.24-0.411-0.45-0.549c-0.21-0.139-0.519-0.207-0.927-0.207c-0.12,0-0.279,0.026-0.477,0.081
	c-0.198,0.054-0.39,0.155-0.576,0.306c-0.186,0.149-0.345,0.366-0.477,0.647c-0.132,0.282-0.198,0.651-0.198,1.106v5.4h-2.556
	v-9.307L280.902,433.043L280.902,433.043z M294.673,435.904c0.036-0.601,0.186-1.098,0.45-1.494s0.6-0.713,1.008-0.953
	c0.408-0.24,0.867-0.411,1.377-0.514c0.51-0.103,1.022-0.152,1.539-0.152c0.468,0,0.942,0.033,1.422,0.1
	c0.479,0.065,0.918,0.194,1.314,0.387c0.396,0.191,0.72,0.459,0.972,0.801c0.252,0.343,0.378,0.796,0.378,1.359v4.842
	c0,0.421,0.024,0.822,0.072,1.206c0.048,0.385,0.132,0.673,0.252,0.864h-2.592c-0.048-0.145-0.087-0.291-0.117-0.441
	c-0.03-0.149-0.051-0.303-0.063-0.459c-0.408,0.421-0.888,0.715-1.44,0.883c-0.552,0.168-1.116,0.252-1.692,0.252
	c-0.444,0-0.858-0.055-1.242-0.162c-0.384-0.107-0.72-0.275-1.008-0.504c-0.288-0.229-0.513-0.517-0.675-0.864
	s-0.243-0.762-0.243-1.241c0-0.527,0.093-0.963,0.279-1.306c0.186-0.342,0.426-0.614,0.72-0.818s0.63-0.356,1.008-0.459
	s0.759-0.184,1.143-0.243c0.384-0.061,0.762-0.107,1.134-0.145s0.702-0.09,0.99-0.162c0.288-0.071,0.516-0.177,0.684-0.314
	s0.246-0.339,0.234-0.604c0-0.275-0.045-0.494-0.135-0.656s-0.21-0.288-0.36-0.378c-0.15-0.091-0.324-0.149-0.522-0.181
	c-0.198-0.029-0.411-0.045-0.639-0.045c-0.504,0-0.9,0.107-1.188,0.323c-0.288,0.217-0.456,0.576-0.504,1.08L294.673,435.904
	L294.673,435.904z M300.578,437.795c-0.108,0.097-0.243,0.171-0.405,0.226c-0.162,0.054-0.336,0.099-0.522,0.135l-0.585,0.091
	c-0.204,0.023-0.408,0.054-0.612,0.09c-0.192,0.036-0.381,0.084-0.567,0.145c-0.187,0.061-0.348,0.142-0.486,0.243
	c-0.138,0.102-0.249,0.23-0.333,0.387s-0.126,0.354-0.126,0.594c0,0.229,0.042,0.421,0.126,0.576
	c0.084,0.156,0.198,0.279,0.342,0.369s0.312,0.152,0.504,0.188s0.39,0.055,0.594,0.055c0.504,0,0.894-0.084,1.17-0.253
	c0.276-0.168,0.479-0.368,0.612-0.604c0.132-0.233,0.213-0.471,0.243-0.711c0.03-0.239,0.045-0.432,0.045-0.575V437.795
	L300.578,437.795z M307.651,433.043v1.296h0.054c0.324-0.54,0.744-0.934,1.26-1.18c0.516-0.245,1.044-0.368,1.584-0.368
	c0.685,0,1.245,0.093,1.684,0.278c0.438,0.187,0.782,0.443,1.034,0.773s0.43,0.732,0.531,1.206c0.103,0.475,0.153,0.999,0.153,1.575
	v5.724h-2.557v-5.256c0-0.768-0.119-1.341-0.359-1.719s-0.666-0.567-1.278-0.567c-0.696,0-1.2,0.207-1.512,0.621
	c-0.312,0.414-0.468,1.096-0.468,2.043v4.878h-2.556v-9.306L307.651,433.043L307.651,433.043z M320.971,431.604v-2.105h2.557v2.105
	H320.971z M323.527,433.043v9.307h-2.557v-9.307H323.527z M328.052,433.043v1.296h0.054c0.324-0.54,0.744-0.934,1.261-1.18
	c0.516-0.245,1.044-0.368,1.584-0.368c0.684,0,1.245,0.093,1.683,0.278c0.438,0.187,0.783,0.443,1.035,0.773
	s0.429,0.732,0.531,1.206c0.102,0.475,0.152,0.999,0.152,1.575v5.724h-2.556v-5.256c0-0.768-0.12-1.341-0.36-1.719
	c-0.239-0.378-0.665-0.567-1.277-0.567c-0.696,0-1.2,0.207-1.512,0.621c-0.312,0.414-0.469,1.096-0.469,2.043v4.878h-2.556v-9.306
	L328.052,433.043L328.052,433.043z M346.412,433.043v1.71h-1.872v4.607c0,0.433,0.072,0.721,0.216,0.864
	c0.145,0.144,0.432,0.216,0.864,0.216l0.414-0.019l0.378-0.055v1.979c-0.216,0.036-0.456,0.061-0.72,0.072
	c-0.265,0.012-0.522,0.019-0.774,0.019c-0.396,0-0.771-0.026-1.125-0.081c-0.354-0.055-0.666-0.159-0.936-0.314
	c-0.271-0.156-0.483-0.378-0.64-0.666s-0.233-0.666-0.233-1.135v-5.489h-1.549v-1.71h1.549v-2.79h2.556v2.79L346.412,433.043
	L346.412,433.043z M350.386,429.497v4.842h0.055c0.323-0.54,0.737-0.934,1.241-1.18c0.504-0.245,0.996-0.368,1.477-0.368
	c0.684,0,1.245,0.093,1.683,0.278c0.438,0.187,0.783,0.443,1.035,0.773s0.429,0.732,0.531,1.206
	c0.102,0.475,0.152,0.999,0.152,1.575v5.724h-2.556v-5.256c0-0.768-0.12-1.341-0.359-1.719c-0.24-0.378-0.666-0.566-1.278-0.566
	c-0.696,0-1.2,0.206-1.512,0.62c-0.312,0.414-0.469,1.096-0.469,2.043v4.878h-2.556v-12.852L350.386,429.497L350.386,429.497z
	 M361.329,440.116c0.384,0.372,0.936,0.559,1.656,0.559c0.516,0,0.96-0.129,1.332-0.387c0.372-0.259,0.6-0.531,0.684-0.819h2.25
	c-0.36,1.116-0.912,1.914-1.656,2.395c-0.744,0.479-1.645,0.721-2.7,0.721c-0.731,0-1.392-0.117-1.979-0.352
	c-0.588-0.233-1.086-0.566-1.494-0.999s-0.723-0.947-0.945-1.548c-0.222-0.601-0.333-1.261-0.333-1.979
	c0-0.696,0.114-1.345,0.343-1.944c0.228-0.599,0.552-1.118,0.972-1.557c0.42-0.438,0.921-0.783,1.503-1.035s1.227-0.378,1.935-0.378
	c0.792,0,1.482,0.152,2.07,0.459c0.587,0.307,1.071,0.717,1.449,1.232c0.378,0.517,0.65,1.104,0.819,1.765
	c0.168,0.659,0.228,1.351,0.18,2.069h-6.714C360.734,439.146,360.944,439.745,361.329,440.116L361.329,440.116z M364.218,435.221
	c-0.306-0.336-0.771-0.504-1.395-0.504c-0.408,0-0.747,0.069-1.018,0.207c-0.27,0.139-0.485,0.31-0.647,0.514
	s-0.276,0.42-0.342,0.647c-0.066,0.229-0.105,0.433-0.117,0.611h4.158C364.736,436.049,364.523,435.557,364.218,435.221
	L364.218,435.221z M376.412,433.043v1.26h0.036c0.335-0.479,0.741-0.852,1.215-1.115c0.474-0.265,1.017-0.396,1.629-0.396
	c0.588,0,1.125,0.114,1.61,0.342c0.485,0.229,0.854,0.63,1.106,1.206c0.276-0.407,0.65-0.768,1.125-1.08
	c0.476-0.312,1.035-0.468,1.685-0.468c0.491,0,0.946,0.061,1.368,0.18c0.421,0.12,0.779,0.312,1.078,0.576
	c0.302,0.265,0.535,0.609,0.703,1.035s0.252,0.938,0.252,1.539v6.229h-2.557v-5.274c0-0.312-0.012-0.605-0.035-0.882
	c-0.025-0.275-0.09-0.517-0.199-0.72c-0.106-0.204-0.266-0.366-0.477-0.486c-0.209-0.119-0.494-0.18-0.855-0.18
	c-0.358,0-0.649,0.068-0.873,0.207c-0.222,0.138-0.396,0.317-0.521,0.54c-0.125,0.222-0.21,0.474-0.252,0.756
	c-0.043,0.281-0.062,0.566-0.062,0.854v5.185h-2.557v-5.221c0-0.275-0.006-0.549-0.019-0.818c-0.013-0.271-0.062-0.52-0.152-0.747
	c-0.09-0.229-0.24-0.411-0.45-0.549c-0.21-0.139-0.52-0.207-0.927-0.207c-0.12,0-0.279,0.026-0.479,0.081
	c-0.196,0.054-0.39,0.155-0.576,0.306c-0.186,0.149-0.345,0.366-0.477,0.647c-0.132,0.282-0.197,0.651-0.197,1.106v5.4H374v-9.307
	L376.412,433.043L376.412,433.043z M390.352,431.604v-2.105h2.556v2.105H390.352z M392.906,433.043v9.307h-2.556v-9.307H392.906z
	 M401.621,441.16c-0.301,0.505-0.693,0.867-1.18,1.09c-0.486,0.222-1.035,0.333-1.646,0.333c-0.697,0-1.309-0.136-1.836-0.405
	c-0.529-0.271-0.963-0.636-1.305-1.098c-0.345-0.462-0.603-0.993-0.775-1.594c-0.174-0.601-0.26-1.225-0.26-1.872
	c0-0.623,0.086-1.228,0.26-1.81s0.432-1.095,0.775-1.538c0.342-0.443,0.77-0.802,1.287-1.071c0.516-0.271,1.114-0.404,1.799-0.404
	c0.553,0,1.078,0.116,1.576,0.352c0.495,0.233,0.891,0.578,1.178,1.034h0.037v-4.68h2.555v12.853h-2.43v-1.188L401.621,441.16
	L401.621,441.16z M401.512,436.562c-0.069-0.354-0.194-0.666-0.369-0.937c-0.174-0.271-0.397-0.489-0.674-0.657
	s-0.625-0.252-1.045-0.252s-0.772,0.084-1.061,0.252c-0.289,0.168-0.521,0.391-0.693,0.666c-0.173,0.276-0.301,0.592-0.379,0.945
	c-0.078,0.354-0.117,0.723-0.117,1.106c0,0.359,0.043,0.72,0.127,1.079c0.084,0.36,0.219,0.683,0.404,0.964s0.42,0.511,0.703,0.685
	c0.281,0.174,0.621,0.261,1.016,0.261c0.42,0,0.771-0.084,1.053-0.252c0.283-0.168,0.509-0.394,0.677-0.675
	c0.168-0.282,0.289-0.604,0.358-0.964c0.072-0.359,0.109-0.731,0.109-1.115S401.584,436.916,401.512,436.562L401.512,436.562z
	 M412.74,441.16c-0.301,0.505-0.693,0.867-1.181,1.09c-0.485,0.222-1.034,0.333-1.646,0.333c-0.697,0-1.309-0.136-1.836-0.405
	c-0.529-0.271-0.963-0.636-1.305-1.098c-0.345-0.462-0.603-0.993-0.775-1.594c-0.174-0.601-0.26-1.225-0.26-1.872
	c0-0.623,0.086-1.228,0.26-1.81s0.432-1.095,0.775-1.538c0.342-0.443,0.77-0.802,1.286-1.071c0.517-0.271,1.115-0.404,1.8-0.404
	c0.553,0,1.077,0.116,1.575,0.352c0.496,0.233,0.892,0.578,1.179,1.034h0.037v-4.68h2.555v12.853h-2.43v-1.188L412.74,441.16
	L412.74,441.16z M412.631,436.562c-0.07-0.354-0.195-0.666-0.369-0.937s-0.397-0.489-0.674-0.657
	c-0.277-0.168-0.625-0.252-1.045-0.252s-0.773,0.084-1.061,0.252c-0.289,0.168-0.521,0.391-0.693,0.666
	c-0.173,0.276-0.301,0.592-0.379,0.945c-0.078,0.354-0.117,0.723-0.117,1.106c0,0.359,0.043,0.72,0.127,1.079
	c0.084,0.36,0.219,0.683,0.404,0.964s0.42,0.511,0.703,0.685c0.28,0.174,0.621,0.261,1.016,0.261c0.42,0,0.771-0.084,1.053-0.252
	c0.283-0.168,0.508-0.394,0.676-0.675c0.168-0.282,0.289-0.604,0.359-0.964c0.072-0.359,0.109-0.731,0.109-1.115
	S412.703,436.916,412.631,436.562L412.631,436.562z M419.848,429.497v12.853h-2.557v-12.853H419.848z M424.693,440.116
	c0.383,0.372,0.936,0.559,1.655,0.559c0.517,0,0.959-0.129,1.332-0.387c0.371-0.259,0.601-0.531,0.685-0.819h2.25
	c-0.361,1.116-0.912,1.914-1.656,2.395c-0.744,0.479-1.645,0.721-2.699,0.721c-0.731,0-1.393-0.117-1.979-0.352
	c-0.588-0.233-1.086-0.566-1.494-0.999s-0.724-0.947-0.945-1.548c-0.223-0.601-0.332-1.261-0.332-1.979
	c0-0.696,0.113-1.345,0.342-1.944c0.228-0.6,0.552-1.118,0.972-1.557c0.42-0.438,0.922-0.783,1.504-1.035s1.227-0.378,1.936-0.378
	c0.791,0,1.48,0.152,2.068,0.459s1.072,0.717,1.449,1.232c0.379,0.517,0.649,1.104,0.819,1.765c0.168,0.659,0.228,1.351,0.181,2.069
	h-6.715C424.1,439.146,424.309,439.745,424.693,440.116L424.693,440.116z M427.582,435.221c-0.307-0.336-0.771-0.504-1.396-0.504
	c-0.407,0-0.747,0.069-1.018,0.207c-0.27,0.139-0.486,0.31-0.648,0.514c-0.161,0.204-0.274,0.42-0.342,0.647
	c-0.065,0.229-0.104,0.433-0.117,0.611h4.158C428.102,436.049,427.889,435.557,427.582,435.221L427.582,435.221z M437.186,435.904
	c0.035-0.601,0.187-1.098,0.449-1.494c0.265-0.396,0.601-0.713,1.008-0.953c0.408-0.24,0.867-0.411,1.377-0.514
	c0.511-0.103,1.023-0.152,1.539-0.152c0.47,0,0.941,0.033,1.423,0.1c0.479,0.065,0.918,0.194,1.313,0.387
	c0.396,0.191,0.721,0.459,0.973,0.801c0.252,0.343,0.377,0.796,0.377,1.359v4.842c0,0.421,0.023,0.822,0.072,1.206
	c0.047,0.385,0.133,0.673,0.252,0.864h-2.592c-0.049-0.145-0.088-0.291-0.117-0.441c-0.028-0.149-0.051-0.303-0.062-0.459
	c-0.408,0.421-0.89,0.715-1.441,0.883c-0.551,0.168-1.115,0.252-1.69,0.252c-0.443,0-0.857-0.055-1.242-0.162
	c-0.383-0.107-0.72-0.275-1.008-0.504c-0.287-0.229-0.513-0.517-0.675-0.864c-0.162-0.347-0.243-0.762-0.243-1.241
	c0-0.527,0.094-0.963,0.278-1.306c0.186-0.342,0.426-0.614,0.722-0.818c0.293-0.204,0.629-0.356,1.008-0.459
	c0.377-0.103,0.758-0.184,1.143-0.243c0.385-0.061,0.762-0.107,1.135-0.145c0.371-0.036,0.701-0.09,0.988-0.162
	c0.289-0.071,0.519-0.177,0.687-0.314s0.245-0.339,0.231-0.604c0-0.275-0.045-0.494-0.135-0.656s-0.209-0.288-0.359-0.378
	c-0.149-0.091-0.324-0.149-0.521-0.181c-0.199-0.029-0.412-0.045-0.64-0.045c-0.504,0-0.899,0.107-1.188,0.323
	c-0.287,0.217-0.455,0.576-0.504,1.08L437.186,435.904L437.186,435.904z M443.088,437.795c-0.106,0.097-0.242,0.171-0.404,0.226
	c-0.161,0.054-0.336,0.099-0.521,0.135l-0.586,0.091c-0.203,0.023-0.408,0.054-0.611,0.09c-0.19,0.036-0.381,0.084-0.565,0.145
	c-0.188,0.061-0.351,0.142-0.486,0.243c-0.139,0.102-0.25,0.23-0.334,0.387s-0.125,0.354-0.125,0.594
	c0,0.229,0.041,0.421,0.125,0.576c0.084,0.156,0.199,0.279,0.342,0.369c0.146,0.09,0.312,0.152,0.504,0.188
	c0.193,0.036,0.392,0.055,0.597,0.055c0.504,0,0.893-0.084,1.17-0.253c0.274-0.168,0.479-0.368,0.61-0.604
	c0.133-0.233,0.213-0.471,0.242-0.711c0.031-0.239,0.045-0.432,0.045-0.575v-0.955H443.088z M452.82,433.043v1.71h-1.871v4.607
	c0,0.433,0.071,0.721,0.215,0.864c0.145,0.144,0.434,0.216,0.865,0.216l0.414-0.019l0.377-0.055v1.979
	c-0.215,0.036-0.455,0.061-0.72,0.072c-0.266,0.012-0.522,0.019-0.774,0.019c-0.396,0-0.771-0.026-1.125-0.081
	c-0.354-0.055-0.666-0.159-0.937-0.314c-0.27-0.156-0.481-0.378-0.639-0.666s-0.234-0.666-0.234-1.135v-5.489h-1.547v-1.71h1.547
	v-2.79h2.558v2.79L452.82,433.043L452.82,433.043z M459.643,433.043v1.71h-1.871v4.607c0,0.433,0.072,0.721,0.216,0.864
	c0.145,0.144,0.434,0.216,0.864,0.216l0.414-0.019l0.377-0.055v1.979c-0.215,0.036-0.455,0.061-0.719,0.072
	c-0.266,0.012-0.522,0.019-0.774,0.019c-0.396,0-0.771-0.026-1.125-0.081c-0.354-0.055-0.666-0.159-0.937-0.314
	c-0.27-0.156-0.481-0.378-0.639-0.666s-0.234-0.666-0.234-1.135v-5.489h-1.547v-1.71h1.547v-2.79h2.557v2.79L459.643,433.043
	L459.643,433.043z M460.998,435.904c0.037-0.601,0.186-1.099,0.451-1.494c0.264-0.396,0.6-0.713,1.008-0.953
	c0.406-0.24,0.865-0.411,1.377-0.514c0.51-0.103,1.021-0.152,1.539-0.152c0.467,0,0.941,0.033,1.422,0.099
	c0.479,0.066,0.918,0.195,1.312,0.388c0.396,0.191,0.721,0.459,0.973,0.801c0.252,0.343,0.379,0.796,0.379,1.359v4.842
	c0,0.421,0.023,0.822,0.072,1.206c0.047,0.385,0.131,0.673,0.252,0.864h-2.594c-0.048-0.145-0.087-0.291-0.115-0.441
	c-0.031-0.149-0.053-0.303-0.064-0.459c-0.408,0.421-0.887,0.715-1.438,0.883c-0.553,0.168-1.115,0.252-1.691,0.252
	c-0.445,0-0.858-0.055-1.242-0.162c-0.385-0.107-0.721-0.275-1.008-0.504c-0.289-0.229-0.514-0.517-0.676-0.864
	c-0.162-0.347-0.242-0.762-0.242-1.241c0-0.527,0.092-0.964,0.279-1.306c0.186-0.342,0.426-0.614,0.719-0.818
	c0.295-0.204,0.631-0.356,1.008-0.459c0.379-0.103,0.76-0.184,1.144-0.243c0.385-0.061,0.764-0.107,1.135-0.145
	s0.701-0.09,0.99-0.162c0.287-0.071,0.516-0.177,0.684-0.314s0.246-0.339,0.234-0.604c0-0.275-0.045-0.494-0.136-0.656
	c-0.09-0.162-0.211-0.288-0.358-0.378c-0.15-0.091-0.324-0.149-0.523-0.181c-0.196-0.029-0.41-0.045-0.639-0.045
	c-0.504,0-0.9,0.107-1.188,0.323c-0.289,0.217-0.457,0.576-0.504,1.08L460.998,435.904L460.998,435.904z M466.902,437.795
	c-0.107,0.096-0.242,0.171-0.404,0.226c-0.162,0.054-0.336,0.099-0.523,0.135c-0.186,0.036-0.381,0.065-0.584,0.091
	c-0.205,0.023-0.407,0.054-0.612,0.09c-0.191,0.036-0.382,0.084-0.566,0.145c-0.186,0.061-0.348,0.142-0.486,0.242
	c-0.137,0.103-0.248,0.231-0.332,0.388s-0.127,0.354-0.127,0.594c0,0.229,0.043,0.421,0.127,0.576
	c0.084,0.156,0.197,0.279,0.343,0.369c0.145,0.09,0.312,0.152,0.504,0.188c0.191,0.036,0.391,0.055,0.594,0.055
	c0.504,0,0.895-0.085,1.17-0.253s0.48-0.368,0.613-0.604c0.131-0.233,0.213-0.471,0.242-0.711c0.028-0.239,0.045-0.433,0.045-0.575
	v-0.955H466.902z M475.852,434.717c-0.407,0-0.75,0.094-1.024,0.279c-0.275,0.186-0.502,0.426-0.676,0.72
	c-0.175,0.294-0.298,0.618-0.369,0.973c-0.07,0.354-0.107,0.704-0.107,1.053c0,0.337,0.037,0.679,0.107,1.026
	c0.071,0.349,0.188,0.662,0.352,0.944s0.381,0.513,0.658,0.692c0.275,0.181,0.611,0.271,1.008,0.271
	c0.611,0,1.082-0.171,1.412-0.513c0.33-0.343,0.537-0.802,0.621-1.378h2.467c-0.168,1.236-0.647,2.179-1.44,2.826
	c-0.791,0.647-1.806,0.973-3.041,0.973c-0.697,0-1.336-0.117-1.918-0.352c-0.582-0.233-1.076-0.562-1.484-0.98
	s-0.727-0.921-0.953-1.503c-0.229-0.582-0.344-1.222-0.344-1.917c0-0.721,0.104-1.39,0.315-2.008
	c0.209-0.617,0.519-1.151,0.927-1.603c0.407-0.45,0.905-0.801,1.494-1.053c0.588-0.252,1.26-0.378,2.016-0.378
	c0.553,0,1.084,0.071,1.594,0.216s0.967,0.363,1.369,0.657c0.4,0.294,0.729,0.659,0.98,1.098c0.251,0.439,0.396,0.957,0.432,1.558
	h-2.502C477.574,435.251,476.943,434.717,475.852,434.717L475.852,434.717z M484.527,429.497v6.894l3.223-3.348h3.023l-3.511,3.42
	l3.906,5.887h-3.098l-2.556-4.158l-0.989,0.954v3.204h-2.558v-12.853H484.527L484.527,429.497z M495.256,439.576v2.771h-2.826
	v-2.771H495.256z"/>
<path opacity="0.3" fill="#FFFFFF" enable-background="new    " d="M71.454,100.755h91.439c4.229,0,7.656,3.355,7.656,7.498v60.846
	c0,4.141-3.429,7.498-7.656,7.498H71.454c-4.229,0-7.657-3.357-7.657-7.498v-60.846C63.796,104.111,67.225,100.755,71.454,100.755z
	 M552.453,254.753h91.438c4.229,0,7.656,3.358,7.656,7.5v60.845c0,4.141-3.428,7.498-7.656,7.498h-91.438
	c-4.229,0-7.656-3.357-7.656-7.498v-60.845C544.797,258.111,548.225,254.753,552.453,254.753z M552.453,78.755h91.438
	c4.229,0,7.656,3.355,7.656,7.498v60.846c0,4.141-3.428,7.498-7.656,7.498h-91.438c-4.229,0-7.656-3.357-7.656-7.498V86.253
	C544.797,82.111,548.225,78.755,552.453,78.755z M71.454,284.754h91.439c4.229,0,7.656,3.357,7.656,7.5V353.1
	c0,4.141-3.429,7.498-7.656,7.498H71.454c-4.229,0-7.657-3.357-7.657-7.498v-60.846C63.796,288.111,67.225,284.754,71.454,284.754z
	 M149.212,209.289h44.543c2.061,0,3.729,1.639,3.729,3.658v29.684c0,2.021-1.67,3.658-3.729,3.658h-44.543
	c-2.06,0-3.729-1.639-3.729-3.658v-29.684C145.483,210.927,147.153,209.289,149.212,209.289z M452.213,324.288h44.543
	c2.062,0,3.729,1.639,3.729,3.657v29.685c0,2.021-1.67,3.658-3.729,3.658h-44.543c-2.061,0-3.729-1.638-3.729-3.658v-29.685
	C448.482,325.927,450.152,324.288,452.213,324.288z"/>
<g>
	<path fill="#FFFFFF" d="M125.606,418.686v2.843c0,0.418-0.077,0.803-0.23,1.153c-0.154,0.351-0.36,0.655-0.618,0.914
		c-0.259,0.258-0.563,0.471-0.914,0.637c-0.351,0.166-0.724,0.279-1.117,0.342v-1.329c0.185-0.037,0.36-0.111,0.526-0.222
		c0.166-0.111,0.311-0.243,0.434-0.396c0.123-0.154,0.215-0.326,0.277-0.517c0.062-0.191,0.086-0.385,0.074-0.582h-1.329v-2.843
		H125.606z"/>
</g>
</svg>
