<svg xmlns="http://www.w3.org/2000/svg" width="750" height="530.73" viewBox="0 0 750 530.73"><path fill-rule="evenodd" clip-rule="evenodd" fill="#fff" d="M196.599 431.426v9.305h2.557v-4.193c0-.42.042-.811.126-1.17s.225-.676.423-.945.459-.482.783-.639c.323-.156.72-.234 1.188-.234.156 0 .318.01.486.027l.432.062v-2.375c-.204-.061-.39-.09-.558-.09-.324 0-.637.047-.937.143-.3.098-.582.232-.846.406s-.498.383-.702.629-.366.514-.485.801h-.036v-1.727h-2.431zm-.773 46.49c-.275-.197-.591-.357-.944-.477-.354-.121-.718-.223-1.089-.307-.36-.084-.715-.162-1.062-.234-.349-.072-.657-.152-.927-.242-.271-.09-.489-.207-.657-.352s-.252-.33-.252-.559c0-.191.048-.344.144-.459.097-.113.213-.199.352-.26.138-.061.291-.1.459-.117l.468-.027c.456 0 .852.088 1.188.262.335.174.521.506.558.998h2.43c-.048-.576-.195-1.053-.44-1.43-.246-.379-.556-.682-.928-.91s-.795-.389-1.269-.486c-.475-.096-.963-.143-1.467-.143s-.996.045-1.477.135c-.479.09-.912.246-1.296.467-.384.223-.692.525-.927.91-.234.383-.351.875-.351 1.475 0 .408.083.754.252 1.035.168.283.39.518.666.703.275.186.591.336.944.449.354.115.717.213 1.089.297.912.193 1.623.385 2.134.576.51.191.765.48.765.863 0 .229-.054.418-.162.568s-.243.27-.405.359-.342.156-.54.197c-.197.043-.387.064-.566.064-.252 0-.495-.031-.729-.09-.233-.061-.44-.154-.621-.279-.18-.127-.326-.289-.44-.486s-.171-.436-.171-.711h-2.431c.024.625.165 1.143.424 1.557.258.414.587.748.989 1s.861.432 1.377.539c.517.107 1.044.162 1.584.162.528 0 1.047-.051 1.558-.152.51-.102.963-.279 1.358-.531.396-.252.717-.586.963-1s.369-.926.369-1.539c0-.432-.084-.795-.252-1.088-.17-.294-.392-.54-.668-.737zm0-28.281h-2.556v2.791h-1.549v1.709h1.549v5.49c0 .469.077.846.233 1.135.156.287.369.51.639.666.271.156.582.26.937.314.354.055.729.08 1.125.08.252 0 .51-.006.774-.018.264-.012.504-.035.72-.072v-1.98l-.378.055-.414.018c-.433 0-.72-.072-.864-.215-.144-.145-.216-.432-.216-.865v-4.607h1.872v-1.709h-1.872v-2.792zm270.92-217.437c0-1.027.104-1.98.309-2.861.205-.88.551-1.65 1.037-2.311.484-.66 1.123-1.182 1.916-1.562.793-.382 1.762-.572 2.908-.572.381 0 .777.021 1.189.065s.764.096 1.059.154v-5.811c-.5-.146-.955-.22-1.367-.22-.793 0-1.557.117-2.291.352s-1.426.565-2.07.991c-.646.426-1.221.939-1.719 1.54-.5.602-.896 1.255-1.189 1.959h-.09v-4.226h-5.947v22.757h6.256v-10.255zm-260.624 238.437h-2.556v2.791h-1.548v1.709h1.548v5.49c0 .469.078.846.233 1.135.156.287.369.51.64.666.27.156.582.26.936.314s.729.08 1.125.08c.252 0 .51-.006.774-.018.264-.012.504-.035.72-.072v-1.98l-.378.055-.414.018c-.432 0-.72-.072-.864-.215-.144-.145-.216-.432-.216-.865v-4.607h1.872v-1.709h-1.872v-2.792zm-7.812 12.095h2.556v-9.305h-2.556v9.305zm0-10.746h2.556v-2.105h-2.556v2.105zm5.148-17.795c.612 0 1.038.189 1.278.566.239.379.359.951.359 1.719v5.256h2.557v-5.723c0-.576-.052-1.102-.153-1.576-.103-.473-.279-.875-.531-1.205s-.597-.588-1.035-.775c-.438-.186-.999-.277-1.683-.277-.48 0-.972.123-1.477.367-.504.246-.918.641-1.241 1.18h-.055v-4.842h-2.556v12.852h2.556v-4.877c0-.949.156-1.629.469-2.043.312-.415.815-.622 1.512-.622zm-24.777-20.091c.174-.293.398-.533.675-.719.275-.188.618-.279 1.025-.279 1.092 0 1.723.533 1.891 1.602h2.502c-.036-.6-.18-1.119-.433-1.557-.252-.439-.578-.805-.98-1.098-.402-.295-.858-.514-1.368-.658s-1.041-.215-1.593-.215c-.756 0-1.429.125-2.016.377-.589.252-1.087.604-1.494 1.053-.408.451-.718.984-.928 1.602-.21.619-.314 1.287-.314 2.008 0 .695.113 1.336.342 1.918.228.582.546 1.082.954 1.502.407.42.902.748 1.485.98.581.234 1.221.352 1.917.352 1.235 0 2.25-.324 3.042-.973.792-.646 1.271-1.59 1.439-2.826h-2.466c-.084.576-.291 1.035-.621 1.379-.33.342-.801.512-1.413.512-.396 0-.732-.09-1.008-.27-.276-.18-.495-.41-.657-.693-.162-.281-.278-.596-.351-.945-.072-.348-.108-.689-.108-1.025 0-.348.036-.699.108-1.053s.196-.679.37-.974zm3.843 24.627h-.036l-1.584-6.299h-2.484l-1.548 6.316h-.036l-1.71-6.316h-2.7l2.952 9.305h2.646l1.584-6.246h.036l1.656 6.246h2.628l2.934-9.305h-2.628l-1.71 6.299zm-.647 17.904c-.168-.66-.441-1.248-.819-1.764s-.861-.928-1.449-1.232c-.588-.307-1.277-.459-2.069-.459-.709 0-1.354.125-1.936.377s-1.083.598-1.503 1.035-.744.957-.972 1.557c-.229.6-.342 1.248-.342 1.945 0 .719.11 1.379.333 1.979.222.602.536 1.117.944 1.549s.906.766 1.494.998c.588.234 1.248.352 1.98.352 1.056 0 1.955-.24 2.699-.721.744-.479 1.297-1.277 1.656-2.393h-2.25c-.084.287-.312.561-.684.818-.372.258-.816.387-1.332.387-.721 0-1.272-.186-1.656-.559-.384-.371-.594-.971-.63-1.799h6.714c.049-.72-.01-1.41-.178-2.07zm-6.534.449c.012-.18.051-.383.117-.611.065-.229.18-.443.342-.648.162-.203.378-.375.647-.512.271-.139.609-.207 1.018-.207.624 0 1.089.168 1.395.504.307.336.52.828.64 1.475h-4.159zm15.227-24.652h-2.557v9.305h2.557v-9.305zm278.411-192.867c-1.25.25-2.373.668-3.371 1.256-1 .586-1.822 1.363-2.469 2.332s-1.014 2.188-1.102 3.654h6.258c.117-1.232.529-2.113 1.234-2.643.705-.527 1.674-.791 2.908-.791.557 0 1.078.037 1.564.109.484.074.91.221 1.277.441.367.219.66.527.881.924s.33.932.33 1.605c.029.646-.162 1.139-.572 1.475-.412.338-.969.596-1.674.771s-1.514.309-2.424.396c-.912.088-1.836.205-2.777.352-.939.146-1.871.346-2.797.594-.926.25-1.748.625-2.469 1.123-.719.5-1.307 1.166-1.762 2.002s-.684 1.9-.684 3.191c0 1.174.199 2.188.596 3.037.396.852.947 1.557 1.652 2.113.705.559 1.527.969 2.467 1.232s1.953.396 3.041.396c1.41 0 2.791-.205 4.143-.617 1.35-.41 2.525-1.129 3.525-2.156.027.383.08.756.154 1.123.072.367.168.727.285 1.078h6.346c-.293-.469-.5-1.174-.617-2.113s-.176-1.922-.176-2.949v-11.84c0-1.379-.309-2.488-.926-3.324s-1.41-1.488-2.379-1.959c-.969-.469-2.043-.783-3.217-.945-1.176-.162-2.336-.242-3.48-.242-1.261.002-2.517.127-3.765.375zm7.511 14.197c0 .352-.037.82-.109 1.408-.074.586-.271 1.166-.596 1.738-.322.572-.822 1.064-1.498 1.475s-1.631.615-2.863.615c-.5 0-.984-.043-1.455-.131s-.881-.242-1.232-.463c-.354-.221-.633-.52-.838-.902-.207-.381-.309-.85-.309-1.408 0-.586.102-1.07.309-1.453.205-.381.477-.695.814-.945s.734-.447 1.189-.594.918-.266 1.389-.354c.5-.088.998-.16 1.498-.221.5-.057.977-.131 1.432-.219s.883-.199 1.279-.33c.396-.133.727-.314.99-.551v2.335zm-288.479 177.228h2.557v-2.105h-2.557v2.105zm-26.748-228.643c0 7.188 5.914 13.035 13.183 13.035s13.182-5.848 13.182-13.035-5.913-13.034-13.182-13.034-13.183 5.848-13.183 13.034zm21.481.016c0 4.529-3.723 8.215-8.298 8.215s-8.298-3.686-8.298-8.215 3.723-8.215 8.298-8.215 8.298 3.686 8.298 8.215zm7.986 218.356c.552-.168 1.031-.461 1.439-.883.012.156.033.311.063.459.029.15.068.299.116.441h2.593c-.12-.191-.204-.479-.252-.863-.049-.385-.072-.785-.072-1.207v-4.842c0-.562-.126-1.016-.378-1.359-.252-.342-.576-.607-.972-.801-.396-.191-.835-.32-1.314-.387-.479-.064-.954-.098-1.422-.098-.517 0-1.029.051-1.539.152s-.969.273-1.377.514-.744.557-1.008.953c-.265.396-.414.895-.45 1.494h2.556c.048-.504.217-.863.504-1.08.288-.217.685-.324 1.188-.324.228 0 .441.016.639.045.198.031.372.09.522.18.149.09.27.217.36.379.09.162.135.381.135.656.012.264-.066.465-.234.604s-.396.242-.684.314c-.288.072-.618.127-.99.162-.372.037-.75.084-1.134.145-.385.061-.766.141-1.144.242-.378.104-.714.256-1.008.459-.294.205-.534.479-.72.82-.187.342-.279.777-.279 1.305 0 .48.081.895.243 1.242s.387.635.675.863.624.396 1.008.504.798.162 1.242.162c.578.001 1.141-.083 1.694-.251zm-2.178-2.053c-.085-.154-.127-.348-.127-.576 0-.238.042-.438.127-.594.083-.154.194-.285.332-.387.139-.102.3-.182.486-.242.186-.061.375-.107.567-.145l.611-.09.585-.09c.187-.037.36-.082.522-.135.162-.055.297-.129.405-.225v.953c0 .145-.016.336-.045.576-.03.24-.111.477-.243.711-.133.234-.336.436-.612.604s-.666.252-1.17.252c-.204 0-.402-.018-.594-.055-.192-.035-.36-.1-.504-.189-.142-.089-.257-.212-.34-.368zm199.06-197.263c.705.559 1.527.969 2.467 1.232.939.265 1.953.396 3.041.396 1.41 0 2.791-.206 4.143-.616 1.35-.41 2.525-1.129 3.525-2.157.027.382.08.756.154 1.123.072.367.168.727.285 1.078h6.346c-.295-.469-.5-1.173-.617-2.112s-.176-1.922-.176-2.949v-11.841c0-1.379-.309-2.487-.926-3.323-.617-.837-1.41-1.489-2.379-1.959-.971-.469-2.043-.785-3.217-.946-1.176-.161-2.336-.242-3.482-.242-1.262 0-2.518.125-3.768.374-1.248.25-2.371.668-3.369 1.255-1 .587-1.822 1.364-2.469 2.332-.646.969-1.014 2.187-1.102 3.654h6.258c.117-1.232.529-2.113 1.234-2.642.703-.528 1.674-.792 2.908-.792.557 0 1.078.037 1.562.11.486.073.912.22 1.279.439.367.221.66.528.881.925s.33.932.33 1.606c.029.646-.162 1.138-.572 1.475-.412.338-.969.595-1.674.771s-1.514.308-2.424.396c-.912.088-1.836.205-2.777.352-.939.147-1.871.346-2.797.594-.926.25-1.748.624-2.469 1.123-.719.499-1.307 1.166-1.762 2.003-.455.836-.684 1.9-.684 3.191 0 1.174.199 2.187.596 3.037.399.852.949 1.556 1.655 2.113zm4.318-6.866c.205-.381.477-.697.814-.946s.734-.447 1.189-.595c.455-.146.918-.264 1.389-.352.5-.089.998-.161 1.498-.221.5-.059.977-.132 1.432-.22s.881-.198 1.279-.33c.396-.132.727-.315.99-.551v2.333c0 .353-.037.822-.109 1.409-.074.587-.271 1.166-.596 1.738-.322.572-.822 1.064-1.498 1.475-.676.411-1.631.616-2.863.616-.5 0-.984-.044-1.455-.132s-.881-.242-1.234-.462c-.352-.221-.631-.521-.836-.902-.207-.382-.309-.852-.309-1.409 0-.585.102-1.069.309-1.451zm50.699.088l2.424-2.333 6.256 10.168h7.58l-9.562-14.394 8.594-8.363h-7.404l-7.887 8.188v-16.859h-6.258v31.429h6.258v-7.836zm-209.024 214.26c-1.044 0-1.824.264-2.34.793-.517.527-.774 1.205-.774 2.033v.721h-1.529v1.709h1.529v7.596h2.557v-7.596h1.764v-1.709h-1.764v-.559c0-.385.074-.658.225-.818.15-.162.398-.244.747-.244.324 0 .636.018.936.055v-1.908l-.666-.045c-.229-.018-.457-.028-.685-.028zm164.462-188.77c-1.426.617-2.652 1.461-3.68 2.531-1.029 1.072-1.822 2.34-2.379 3.807-.559 1.469-.838 3.053-.838 4.754 0 1.762.271 3.375.816 4.842.543 1.469 1.314 2.73 2.312 3.787s2.217 1.869 3.658 2.441c1.438.572 3.055.859 4.846.859 2.586 0 4.789-.586 6.609-1.762 1.822-1.172 3.174-3.125 4.055-5.854h-5.508c-.205.705-.764 1.373-1.674 2.002-.912.633-1.998.947-3.262.947-1.762 0-3.113-.455-4.053-1.365-.941-.908-1.455-2.377-1.543-4.4h16.436c.117-1.762-.029-3.449-.439-5.062-.412-1.613-1.08-3.053-2.006-4.314s-2.107-2.266-3.547-3.014c-1.439-.75-3.129-1.123-5.068-1.123-1.731.001-3.312.309-4.735.924zm9.539 8.627h-10.178c.029-.439.125-.938.287-1.496.16-.557.439-1.086.836-1.584.396-.5.926-.918 1.586-1.256.662-.336 1.492-.506 2.49-.506 1.527 0 2.666.412 3.416 1.232.748.823 1.27 2.026 1.563 3.61zm-177.205 165.02c.24.379.36.951.36 1.719v5.256h2.556v-5.723c0-.576-.051-1.102-.152-1.576-.103-.473-.279-.875-.531-1.205s-.598-.588-1.035-.775c-.438-.186-.999-.277-1.683-.277-.54 0-1.068.123-1.584.367-.517.246-.937.641-1.261 1.18h-.054v-1.295h-2.43v9.305h2.556v-4.877c0-.949.156-1.629.468-2.043.312-.414.816-.621 1.513-.621.611-.002 1.037.188 1.277.565zm10.899 8.127c-.331.432-.855.648-1.575.648-.456 0-.858-.094-1.206-.279-.349-.186-.582-.52-.702-.998h-2.538c.036.527.183.98.441 1.357.258.379.582.688.972.928s.821.416 1.296.531c.474.113.938.17 1.395.17 1.068 0 1.92-.143 2.557-.432.636-.287 1.122-.639 1.458-1.053s.555-.861.657-1.342c.102-.479.152-.904.152-1.277v-8.711h-2.43v1.24h-.036c-.312-.539-.699-.924-1.161-1.15-.462-.229-.999-.342-1.61-.342-.648 0-1.222.125-1.72.377s-.915.592-1.251 1.018-.591.918-.765 1.477c-.174.557-.261 1.137-.261 1.736 0 .637.074 1.238.225 1.809s.387 1.068.711 1.494.738.762 1.242 1.008 1.104.369 1.8.369c.564 0 1.101-.117 1.611-.352.51-.234.902-.596 1.179-1.088h.036v1.223c.012.66-.147 1.207-.477 1.639zm.342-4.959c-.09.307-.226.58-.405.818-.18.24-.408.434-.684.576-.276.145-.595.217-.954.217-.396 0-.727-.084-.99-.252s-.477-.385-.639-.648-.276-.561-.343-.891c-.065-.33-.099-.664-.099-1 0-.348.039-.68.117-.998s.204-.6.378-.846.39-.441.647-.586c.259-.143.567-.215.928-.215.42 0 .768.078 1.044.232.275.156.497.367.666.631.168.264.288.566.359.908.072.344.108.705.108 1.09.002.337-.043.657-.133.964zm2.637 22.736v-4.842c0-.562-.126-1.016-.378-1.359-.252-.342-.576-.607-.972-.801-.396-.191-.834-.32-1.314-.387-.479-.064-.954-.098-1.422-.098-.516 0-1.029.051-1.539.152s-.969.273-1.377.514-.744.557-1.008.953c-.265.396-.414.895-.45 1.494h2.556c.048-.504.217-.863.504-1.08.288-.217.685-.324 1.188-.324.228 0 .441.016.639.045.198.031.372.09.522.18.149.09.27.217.36.379.09.162.135.381.135.656.012.264-.066.465-.234.604s-.396.242-.684.314-.618.127-.99.162c-.372.037-.75.084-1.134.145-.385.061-.766.141-1.144.242-.378.104-.714.256-1.008.459-.294.205-.534.479-.72.82-.187.342-.279.777-.279 1.305 0 .48.081.895.243 1.242s.387.635.675.863.624.396 1.008.504c.385.107.798.162 1.242.162.576 0 1.14-.084 1.692-.252.552-.168 1.032-.461 1.439-.883.012.156.033.311.063.459.029.15.068.299.117.441h2.592c-.12-.191-.204-.479-.252-.863s-.07-.784-.07-1.206zm-2.556-1.529c0 .145-.016.336-.045.576-.03.24-.111.477-.243.711-.133.234-.336.436-.612.604s-.666.252-1.17.252c-.204 0-.402-.018-.594-.055-.192-.035-.36-.1-.504-.189-.145-.09-.259-.213-.342-.369-.085-.154-.126-.348-.126-.576 0-.238.041-.438.126-.594.083-.154.194-.285.333-.387.138-.102.299-.182.485-.242s.375-.107.567-.145l.611-.09.586-.09c.186-.037.359-.082.521-.135.162-.055.297-.129.405-.225v.954zm-19.152-30.252h-2.556v2.105h2.556v-2.105zm194.474-197.354c0-2.317.383-3.983 1.146-4.996s1.998-1.519 3.701-1.519c1.498 0 2.541.462 3.129 1.387.588.924.881 2.326.881 4.203v12.854h6.258v-13.997c0-1.409-.125-2.692-.375-3.852s-.684-2.142-1.301-2.949c-.615-.807-1.461-1.438-2.533-1.894-1.072-.454-2.445-.682-4.119-.682-1.322 0-2.615.301-3.879.902s-2.291 1.562-3.084 2.883h-.133v-3.169h-5.947v22.757h6.256v-11.928zm-183.385 112.053h-158.561l-.085-222.551 158.593.004.003 13.137h12.052v-34.259c0-8.935-7.293-16.178-16.29-16.178h-150.089c-8.997 0-16.29 7.243-16.29 16.178v269.644c0 8.936 7.293 16.178 16.29 16.178h150.088c8.997 0 16.29-7.242 16.29-16.178v-38.334h-12.005l.004 12.359zm-99.032-242.049h42.836c1.314 0 2.38 1.062 2.38 2.373s-1.065 2.373-2.38 2.373h-42.836c-1.314 0-2.38-1.062-2.38-2.373s1.066-2.373 2.38-2.373zm20.373 275.221c-7.179 0-12.998-5.82-12.998-13s5.819-13 12.998-13c7.178 0 12.996 5.82 12.996 13s-5.819 13-12.996 13zm22.657-195.223c-5.845 3.005-13.117 6.744-20.51 6.744l-.328.01-.33-.01c-7.059 0-13.543-3.382-19.265-6.367-4.553-2.374-8.485-4.426-12.196-4.426-8.163 0-14.565 6.42-14.565 14.481v55.055c0 27.921 18.353 46.726 46.025 46.726l.266-.002.393.002c25.773 0 43.529-16.317 45.846-41.116v-63.411c-1.28-6.725-7.175-11.736-14.385-11.736-3.078.001-6.553 1.788-10.951 4.05zm17.787 10.432v56.021c0 23.796-14.667 39.062-38.099 39.062l-.364-.004-.296.004c-23.433 0-38.407-15.266-38.407-39.062v-56.021c0-3.854 3.002-6.854 6.896-6.854 1.793 0 5.248 1.807 8.589 3.553 6.188 3.235 13.886 7.259 22.848 7.281l.405.022.397-.022c9.278-.021 17.819-4.423 24.06-7.639 2.763-1.424 6.2-3.195 7.384-3.195 3.894.001 6.587 3 6.587 6.854zm261.778 79.824c-.678-.484-1.447-.873-2.314-1.166s-1.756-.543-2.666-.748c-.881-.205-1.748-.396-2.6-.572s-1.607-.375-2.27-.594c-.66-.221-1.197-.506-1.607-.859-.412-.352-.617-.807-.617-1.363 0-.471.117-.844.352-1.123.236-.279.521-.49.859-.639.338-.146.713-.242 1.125-.285.41-.045.793-.066 1.145-.066 1.117 0 2.086.213 2.908.639s1.279 1.24 1.367 2.441h5.947c-.117-1.408-.477-2.574-1.078-3.498-.604-.926-1.359-1.666-2.27-2.223-.912-.559-1.947-.953-3.107-1.189-1.16-.234-2.357-.352-3.59-.352-1.234 0-2.439.109-3.613.33-1.176.221-2.234.602-3.174 1.145s-1.697 1.283-2.27 2.223-.859 2.143-.859 3.609c0 .998.205 1.842.617 2.531s.955 1.262 1.631 1.717 1.447.822 2.312 1.1c.867.279 1.756.521 2.666.727 2.232.471 3.973.939 5.223 1.408 1.248.471 1.873 1.174 1.873 2.113 0 .559-.133 1.02-.396 1.387-.266.367-.596.66-.992.881-.396.219-.838.381-1.322.484-.484.102-.947.152-1.389.152-.615 0-1.211-.072-1.783-.219-.574-.146-1.08-.375-1.521-.684-.439-.307-.801-.703-1.078-1.188-.281-.484-.42-1.062-.42-1.738h-5.949c.059 1.525.404 2.795 1.037 3.807.631 1.014 1.438 1.826 2.424 2.443.982.615 2.107 1.057 3.371 1.32 1.262.264 2.555.396 3.877.396 1.291 0 2.562-.125 3.811-.375 1.25-.248 2.357-.682 3.328-1.299.969-.615 1.754-1.43 2.357-2.441.602-1.014.902-2.268.902-3.764 0-1.057-.205-1.943-.617-2.664-.411-.718-.956-1.319-1.63-1.804zm-271.546-25.735l-3.774 2.705c-.103.096-10.471 9.545-24.887 9.545-14.516 0-26.349-9.547-26.465-9.642l-3.481-2.608v4.83c.002.233.049 22.688 29.946 22.688 10.208 0 17.949-2.334 23.009-7.654 6.422-6.756 5.674-14.678 5.652-15.034v-4.83zm-9.235 16.622c-4.108 4.283-10.645 6.092-19.426 6.092-16.444 0-22.322-7.389-24.422-12.901 5.275 3.139 14.137 7.243 24.422 7.243 10.194 0 18.437-4.025 23.326-7.175-.647 2.116-1.811 4.561-3.9 6.741zm249.461-2.484c-1.234 0-2.439.109-3.613.33-1.176.221-2.234.602-3.174 1.145s-1.695 1.283-2.27 2.223c-.572.939-.859 2.143-.859 3.609 0 .998.205 1.842.617 2.531s.955 1.262 1.631 1.717 1.447.822 2.312 1.1c.867.279 1.756.521 2.666.727 2.232.471 3.973.939 5.223 1.408 1.248.471 1.873 1.174 1.873 2.113 0 .559-.133 1.02-.396 1.387-.266.367-.596.66-.992.881-.396.219-.838.381-1.322.484-.484.102-.947.152-1.387.152-.617 0-1.213-.072-1.785-.219-.574-.146-1.08-.375-1.521-.684-.439-.307-.801-.703-1.078-1.188-.281-.484-.42-1.062-.42-1.738h-5.947c.059 1.525.402 2.795 1.035 3.807.631 1.014 1.438 1.826 2.424 2.443.982.615 2.107 1.057 3.371 1.32 1.262.264 2.555.396 3.877.396 1.293 0 2.562-.125 3.811-.375 1.25-.248 2.357-.682 3.328-1.299.969-.615 1.754-1.43 2.357-2.441.602-1.014.902-2.268.902-3.764 0-1.057-.205-1.943-.617-2.664-.41-.719-.953-1.32-1.629-1.805s-1.447-.873-2.314-1.166-1.756-.543-2.666-.748c-.881-.205-1.748-.396-2.6-.572s-1.607-.375-2.27-.594c-.66-.221-1.197-.506-1.607-.859-.412-.352-.617-.807-.617-1.363 0-.471.117-.844.352-1.123.236-.279.521-.49.859-.639.338-.146.713-.242 1.125-.285.41-.045.793-.066 1.145-.066 1.117 0 2.086.213 2.908.639s1.279 1.24 1.367 2.441h5.947c-.117-1.408-.477-2.574-1.078-3.498-.604-.926-1.359-1.666-2.27-2.223-.912-.559-1.947-.953-3.107-1.189-1.162-.234-2.359-.351-3.591-.351zm-216.31 174.453v-2.069l3.204 8.585c.072.18.107.373.107.576 0 .277-.081.529-.242.756-.162.229-.411.361-.747.396-.252.012-.504.006-.756-.018l-.738-.072v2.105l.783.064c.258.018.519.025.782.025.876 0 1.561-.162 2.053-.484.491-.324.876-.865 1.151-1.621l3.889-10.457h-2.646l-2.034 6.371h-.036l-2.105-6.371h-2.664v-.162c-.204-.061-.39-.09-.558-.09-.324 0-.637.047-.937.143-.3.098-.582.232-.846.406s-.498.383-.702.629-.366.514-.486.801h-.035v-1.727h-2.431v9.305h2.557v-4.193c0-.42.041-.811.126-1.17.083-.359.225-.676.423-.945.197-.27.459-.482.783-.639.323-.156.72-.234 1.188-.234.156 0 .317.01.486.027l.431.063zm8.263 42.99c-.169-.66-.441-1.248-.819-1.764s-.861-.928-1.449-1.232c-.588-.307-1.278-.459-2.07-.459-.708 0-1.353.125-1.935.377s-1.083.598-1.503 1.035-.744.957-.972 1.557c-.229.6-.343 1.248-.343 1.945 0 .719.111 1.379.333 1.979.223.602.537 1.117.945 1.549s.906.766 1.494.998c.588.234 1.248.352 1.979.352 1.057 0 1.956-.24 2.7-.721.744-.479 1.296-1.277 1.656-2.393h-2.25c-.084.287-.312.561-.684.818-.372.258-.816.387-1.332.387-.721 0-1.272-.186-1.656-.559-.385-.371-.594-.971-.63-1.799h6.714c.05-.72-.011-1.41-.178-2.07zm-6.534.449c.012-.18.051-.383.117-.611.065-.229.18-.443.342-.648.162-.203.378-.375.647-.512.271-.139.609-.207 1.018-.207.624 0 1.089.168 1.395.504.307.336.52.828.64 1.475h-4.159zm-71.064-241.702c7.278 0 13.198-5.847 13.198-13.034s-5.92-13.035-13.198-13.035c-7.277 0-13.197 5.849-13.197 13.035 0 7.188 5.921 13.034 13.197 13.034zm0-21.233c4.585 0 8.314 3.686 8.314 8.215s-3.729 8.214-8.314 8.214c-4.583 0-8.313-3.685-8.313-8.214s3.73-8.215 8.313-8.215zm79.757 226.587h2.556v-9.305h-2.556v9.305zm2.934 18.93v-4.842c0-.562-.125-1.016-.378-1.359-.252-.342-.575-.607-.972-.801-.396-.191-.834-.32-1.313-.387-.48-.064-.954-.098-1.423-.098-.516 0-1.028.051-1.539.152-.51.102-.969.273-1.377.514-.407.24-.744.557-1.008.953s-.414.895-.449 1.494h2.556c.048-.504.216-.863.504-1.08s.684-.324 1.188-.324c.229 0 .441.016.64.045.197.031.371.09.521.18s.271.217.36.379.135.381.135.656c.012.264-.065.465-.233.604-.169.139-.396.242-.685.314s-.618.127-.99.162c-.372.037-.75.084-1.134.145s-.765.141-1.143.242c-.378.104-.715.256-1.008.459-.295.205-.534.479-.721.82-.186.342-.278.777-.278 1.305 0 .48.081.895.242 1.242.162.348.388.635.676.863s.623.396 1.008.504c.384.107.798.162 1.242.162.575 0 1.14-.084 1.691-.252s1.032-.461 1.44-.883c.012.156.032.311.062.459.03.15.069.299.117.441h2.592c-.12-.191-.204-.479-.252-.863s-.071-.784-.071-1.206zm-2.556-1.529c0 .145-.015.336-.045.576s-.111.477-.243.711-.336.436-.611.604c-.276.168-.666.252-1.17.252-.205 0-.402-.018-.595-.055-.192-.035-.359-.1-.504-.189-.144-.09-.258-.213-.342-.369-.084-.154-.126-.348-.126-.576 0-.238.042-.438.126-.594.084-.154.194-.285.333-.387.138-.102.3-.182.486-.242.186-.061.375-.107.566-.145l.612-.09.585-.09c.186-.037.36-.082.521-.135.162-.055.298-.129.405-.225v.954zm146.05-218.583h.088c.676 1.263 1.674 2.157 2.996 2.686s2.82.792 4.495.792c1.146 0 2.277-.235 3.392-.704 1.117-.469 2.123-1.188 3.02-2.157.895-.968 1.623-2.208 2.182-3.719.557-1.512.836-3.309.836-5.393 0-2.083-.279-3.881-.836-5.393-.559-1.511-1.287-2.751-2.182-3.719-.896-.969-1.902-1.688-3.02-2.157-1.115-.469-2.247-.704-3.392-.704-1.41 0-2.77.271-4.076.814-1.308.543-2.343 1.401-3.106 2.575h-.088v-11.445h-6.258v31.429h5.949v-2.905zm.397-11.224c.205-.88.528-1.657.97-2.333.44-.674.998-1.21 1.674-1.606.676-.396 1.469-.594 2.38-.594.939 0 1.74.198 2.401.594.661.396 1.212.933 1.652 1.606.441.676.764 1.453.971 2.333.205.881.309 1.805.309 2.773 0 .939-.104 1.849-.309 2.729-.207.88-.529 1.658-.971 2.333-.44.675-.991 1.21-1.652 1.606-.661.396-1.462.594-2.401.594-.911 0-1.704-.198-2.38-.594-.676-.396-1.233-.932-1.674-1.606-.441-.675-.765-1.453-.97-2.333-.206-.881-.309-1.79-.309-2.729 0-.969.102-1.892.309-2.773zm-270.23 203.102v9.305h2.556v-4.877c0-.949.156-1.629.468-2.043s.816-.621 1.512-.621c.612 0 1.038.189 1.278.566.24.379.36.951.36 1.719v5.256h2.556v-5.723c0-.576-.051-1.102-.153-1.576-.102-.473-.279-.875-.531-1.205s-.597-.588-1.035-.775c-.438-.186-.999-.277-1.683-.277-.54 0-1.068.123-1.584.367-.516.246-.936.641-1.26 1.18h-.054v-1.295h-2.43zm2.753 29.441c-.048-.385-.072-.785-.072-1.207v-4.842c0-.562-.126-1.016-.378-1.359-.252-.342-.576-.607-.972-.801-.396-.191-.834-.32-1.314-.387-.48-.064-.954-.098-1.422-.098-.516 0-1.029.051-1.539.152-.511.102-.97.273-1.377.514s-.744.557-1.008.953c-.264.396-.414.895-.45 1.494h2.556c.048-.504.216-.863.504-1.08s.684-.324 1.188-.324c.228 0 .441.016.639.045.198.031.372.09.522.18.15.09.27.217.36.379.09.162.135.381.135.656.012.264-.066.465-.234.604-.168.139-.396.242-.684.314-.288.072-.618.127-.99.162-.372.037-.75.084-1.134.145-.384.061-.765.141-1.143.242-.378.104-.714.256-1.008.459-.294.205-.534.479-.72.82s-.279.777-.279 1.305c0 .48.081.895.243 1.242s.387.635.675.863c.288.229.624.396 1.008.504.384.107.798.162 1.242.162.576 0 1.14-.084 1.692-.252.552-.168 1.032-.461 1.44-.883.012.156.033.311.063.459.03.15.069.299.117.441h2.592c-.12-.19-.204-.477-.252-.862zm-2.627-2.736c0 .145-.015.336-.045.576-.03.24-.111.477-.243.711-.132.234-.336.436-.612.604-.276.168-.666.252-1.17.252-.204 0-.402-.018-.594-.055-.192-.035-.36-.1-.504-.189s-.258-.213-.342-.369c-.084-.154-.126-.348-.126-.576 0-.238.042-.438.126-.594.084-.154.195-.285.333-.387.138-.102.3-.182.486-.242.186-.061.375-.107.567-.145l.612-.09.585-.09c.186-.037.36-.082.522-.135.162-.055.297-.129.405-.225v.954zm9.269 15.295h-3.024l-3.222 3.348v-6.895h-2.556v12.852h2.556v-3.203l.99-.955 2.556 4.158h3.096l-3.906-5.885 3.51-3.42zm-11.412-45.547h-2.555v2.105h2.556v-2.105zm-2.555 12.851h2.556v-9.305h-2.556v9.305zm13.733 11.586c-.3.098-.582.232-.846.406-.264.174-.499.383-.702.629-.204.246-.366.514-.486.801h-.036v-1.727h-2.43v9.305h2.556v-4.193c0-.42.042-.811.126-1.17.083-.359.225-.676.423-.945.198-.27.459-.482.783-.639.324-.156.72-.234 1.188-.234.156 0 .318.01.486.027l.432.062v-2.375c-.204-.061-.39-.09-.558-.09-.324.001-.636.048-.936.143zm1.782 20.334h1.188c0 .445-.084.82-.252 1.125-.168.307-.48.537-.936.693v1.188c.372-.047.717-.158 1.035-.332s.591-.393.819-.658c.228-.264.405-.568.531-.918.126-.348.183-.719.171-1.115v-2.754h-2.556v2.771zm10.674 5.266c-.276-.197-.591-.357-.945-.477-.354-.121-.717-.223-1.089-.307-.36-.084-.714-.162-1.062-.234s-.657-.152-.927-.242-.489-.207-.657-.352-.252-.33-.252-.559c0-.191.048-.344.144-.459.096-.113.213-.199.351-.26.138-.061.291-.1.459-.117l.468-.027c.456 0 .852.088 1.188.262s.522.506.558.998h2.43c-.048-.576-.195-1.053-.441-1.43-.246-.379-.555-.682-.927-.91s-.795-.389-1.269-.486c-.474-.096-.963-.143-1.467-.143s-.996.045-1.476.135-.912.246-1.296.467c-.384.223-.693.525-.927.91-.234.383-.351.875-.351 1.475 0 .408.084.754.252 1.035.168.283.39.518.666.703.276.186.591.336.945.449.354.115.717.213 1.089.297.912.193 1.623.385 2.133.576.51.191.765.48.765.863 0 .229-.054.418-.162.568-.108.15-.243.27-.405.359s-.342.156-.54.197c-.198.043-.387.064-.567.064-.252 0-.495-.031-.729-.09-.234-.061-.441-.154-.621-.279-.18-.127-.327-.289-.441-.486-.114-.197-.171-.436-.171-.711h-2.43c.024.625.165 1.143.423 1.557.258.414.588.748.99 1s.861.432 1.377.539 1.044.162 1.584.162c.528 0 1.047-.051 1.557-.152.51-.102.963-.279 1.359-.531s.717-.586.963-1 .369-.926.369-1.539c0-.432-.084-.795-.252-1.088-.168-.294-.39-.54-.666-.737zm-9.27-18.291c0 .469.078.846.234 1.135.156.287.369.51.639.666s.582.26.936.314c.354.055.729.08 1.125.08.252 0 .51-.006.774-.018.264-.012.504-.035.72-.072v-1.98l-.378.055-.414.018c-.432 0-.72-.072-.864-.215-.144-.145-.216-.432-.216-.865v-4.607h1.872v-1.709h-1.872v-2.791h-2.556v2.791h-1.548v1.709h1.548v5.489zm4.365-17.742c-.33.432-.854.648-1.575.648-.456 0-.858-.094-1.206-.279s-.582-.52-.702-.998h-2.538c.036.527.183.98.441 1.357.258.379.582.688.972.928s.822.416 1.296.531c.474.113.938.17 1.395.17 1.068 0 1.92-.143 2.556-.432.636-.287 1.122-.639 1.458-1.053s.555-.861.657-1.342c.102-.479.153-.904.153-1.277v-8.711h-2.43v1.24h-.036c-.312-.539-.699-.924-1.161-1.15-.462-.229-.999-.342-1.611-.342-.648 0-1.221.125-1.719.377s-.915.592-1.251 1.018-.591.918-.765 1.477c-.174.557-.261 1.137-.261 1.736 0 .637.075 1.238.225 1.809.15.57.387 1.068.711 1.494.324.426.738.762 1.242 1.008s1.104.369 1.8.369c.564 0 1.101-.117 1.611-.352.51-.234.903-.596 1.179-1.088h.036v1.223c.012.66-.147 1.207-.477 1.639zm.342-4.959c-.09.307-.225.58-.405.818-.18.24-.408.434-.684.576-.276.145-.594.217-.954.217-.396 0-.726-.084-.99-.252s-.477-.385-.639-.648c-.162-.264-.276-.561-.342-.891s-.099-.664-.099-1c0-.348.039-.68.117-.998s.204-.6.378-.846.39-.441.648-.586c.258-.143.567-.215.927-.215.42 0 .768.078 1.044.232.276.156.498.367.666.631.168.264.288.566.36.908.072.344.108.705.108 1.09 0 .337-.045.657-.135.964zm156.102-198.476c1.322 1.468 2.944 2.619 4.869 3.456 1.924.836 4.091 1.254 6.499 1.254 2.438 0 4.612-.418 6.521-1.254 1.91-.837 3.525-1.988 4.848-3.456 1.322-1.467 2.335-3.19 3.04-5.172.705-1.98 1.058-4.115 1.058-6.404 0-2.348-.353-4.526-1.058-6.537-.705-2.009-1.718-3.763-3.04-5.26-1.322-1.496-2.938-2.67-4.848-3.521-1.909-.851-4.083-1.276-6.521-1.276-2.408 0-4.575.426-6.499 1.276-1.925.852-3.547 2.025-4.869 3.521-1.322 1.497-2.336 3.251-3.04 5.26-.705 2.011-1.058 4.189-1.058 6.537 0 2.289.353 4.424 1.058 6.404.704 1.981 1.718 3.705 3.04 5.172zm3.284-15.582c.308-1.291.8-2.442 1.476-3.455s1.557-1.819 2.645-2.421c1.086-.602 2.408-.902 3.965-.902s2.879.301 3.966.902 1.968 1.408 2.645 2.421c.675 1.013 1.167 2.164 1.476 3.455.309 1.292.463 2.627.463 4.006 0 1.32-.154 2.604-.463 3.852s-.801 2.37-1.476 3.367c-.677.998-1.558 1.798-2.645 2.398-1.087.603-2.409.903-3.966.903s-2.879-.301-3.965-.903c-1.088-.601-1.969-1.4-2.645-2.398-.676-.997-1.168-2.12-1.476-3.367-.309-1.247-.463-2.531-.463-3.852 0-1.379.154-2.714.463-4.006zm-5.002 54.542c0 1.145.191 2.068.573 2.773.381.705.903 1.248 1.564 1.629.66.381 1.424.639 2.291.77.866.133 1.784.199 2.754.199.617 0 1.248-.016 1.895-.045s1.234-.088 1.763-.176v-4.842c-.294.059-.603.104-.925.131-.324.031-.661.045-1.014.045-1.058 0-1.763-.176-2.115-.527-.353-.354-.528-1.057-.528-2.113v-11.27h4.582v-4.182h-4.582v-6.822h-6.258v6.822h-3.789v4.182h3.789v13.426zm-200.31 160.461h4.806l.972 2.861h2.934l-4.806-12.852h-2.898l-4.86 12.852h2.844l1.008-2.861zm2.412-6.822h.036l1.62 4.717h-3.33l1.674-4.717zm2.961 43.297c-.366-.396-.777-.691-1.233-.883s-.918-.287-1.386-.287c-.576 0-1.131.109-1.665.332-.534.223-.957.574-1.269 1.053h-.036v-4.68h-2.556v12.852h2.43v-1.188h.036c.276.516.684.883 1.224 1.098.54.217 1.152.324 1.836.324.468 0 .93-.096 1.386-.287.456-.193.867-.486 1.233-.883.366-.396.663-.902.891-1.521.228-.617.342-1.352.342-2.205 0-.852-.114-1.586-.342-2.205-.228-.618-.525-1.126-.891-1.52zm-1.449 4.859c-.084.359-.216.678-.396.953-.18.277-.405.496-.675.658s-.597.242-.981.242c-.372 0-.696-.08-.972-.242-.276-.162-.504-.381-.684-.658-.18-.275-.312-.594-.396-.953s-.126-.732-.126-1.115c0-.396.042-.775.126-1.135s.216-.678.396-.955c.18-.275.408-.494.684-.656.276-.162.6-.242.972-.242.384 0 .711.08.981.242s.495.381.675.656c.18.277.312.596.396.955s.126.738.126 1.135c0 .383-.042.756-.126 1.115zm-5.733-17.939c.402.252.861.432 1.377.539.516.107 1.044.162 1.584.162.528 0 1.047-.051 1.557-.152.51-.102.963-.279 1.359-.531s.717-.586.963-1c.246-.414.369-.926.369-1.539 0-.432-.084-.795-.252-1.088-.168-.295-.39-.541-.666-.738-.276-.197-.591-.357-.945-.477-.354-.121-.717-.223-1.089-.307-.36-.084-.714-.162-1.062-.234s-.657-.152-.927-.242-.489-.207-.657-.352-.252-.33-.252-.559c0-.191.048-.344.144-.459.096-.113.213-.199.351-.26.138-.061.291-.1.459-.117.168-.018.324-.027.468-.027.456 0 .852.088 1.188.262s.522.506.558.998h2.43c-.048-.576-.195-1.053-.441-1.43-.246-.379-.556-.682-.927-.91-.372-.229-.795-.389-1.269-.486-.474-.096-.963-.143-1.467-.143s-.996.045-1.476.135-.912.246-1.296.467c-.384.223-.693.525-.927.91-.234.383-.351.875-.351 1.475 0 .408.084.754.252 1.035.167.283.39.518.666.703.275.186.591.336.945.449.354.115.717.213 1.089.297.912.193 1.623.385 2.133.576.51.191.765.48.765.863 0 .229-.054.418-.162.568-.108.15-.243.27-.405.359s-.342.156-.54.197c-.198.043-.387.064-.567.064-.252 0-.495-.031-.729-.09-.234-.061-.441-.154-.621-.279-.18-.127-.327-.289-.441-.486-.114-.197-.171-.436-.171-.711h-2.43c.024.625.165 1.143.423 1.557s.588.749.99 1.001zm578.069-323.533h-410.883c-6.569 0-12.119 5.062-12.119 11.615v154.384h-.002v4c0 9.941-8.059 18-18 18h29v-.006l.122.006h411.882c6.568 0 11.996-5.129 11.996-11.682v-164.702c0-6.553-5.427-11.615-11.996-11.615zm-41.004 18h31v27h-31v-27zm-325 0h320v27h-320v-27zm-40 0h35v27h-35v-27zm397 151.999h-397v-119h397v119zm-547.645 131.282c-.162.09-.342.156-.54.197-.198.043-.387.064-.567.064-.252 0-.495-.031-.729-.09-.234-.061-.441-.154-.621-.279-.18-.127-.327-.289-.441-.486-.114-.197-.171-.436-.171-.711h-2.43c.024.623.165 1.143.423 1.557s.588.748.99 1 .861.432 1.377.539c.516.107 1.044.162 1.584.162.528 0 1.047-.051 1.557-.152.51-.102.963-.279 1.359-.531s.717-.586.963-1 .369-.926.369-1.539c0-.432-.084-.795-.252-1.088-.168-.295-.39-.541-.666-.738-.276-.197-.591-.357-.945-.477-.354-.121-.717-.223-1.089-.307-.36-.084-.714-.162-1.062-.234s-.657-.152-.927-.242-.489-.207-.657-.352-.252-.33-.252-.559c0-.191.048-.344.144-.459.096-.113.213-.199.351-.26.138-.061.291-.1.459-.117.168-.018.324-.027.468-.027.456 0 .852.088 1.188.262s.522.506.558.998h2.43c-.048-.576-.195-1.053-.441-1.43-.246-.379-.555-.682-.927-.91s-.795-.389-1.269-.486c-.474-.096-.963-.143-1.467-.143s-.996.045-1.476.135-.912.246-1.296.467c-.384.223-.693.525-.927.91-.234.383-.351.875-.351 1.475 0 .408.084.754.252 1.035.167.283.39.518.666.703.275.186.591.336.945.449.354.115.717.213 1.089.297.912.193 1.623.385 2.133.576.51.191.765.48.765.863 0 .229-.054.418-.162.568-.108.151-.243.27-.405.36zm6.993 35.215c-.252-.33-.597-.588-1.035-.775-.438-.186-.999-.277-1.683-.277-.54 0-1.068.123-1.584.367-.516.246-.936.641-1.26 1.18h-.054v-1.295h-2.43v9.305h2.556v-4.877c0-.949.156-1.629.468-2.043s.816-.621 1.512-.621c.612 0 1.038.189 1.278.566.24.379.36.951.36 1.719v5.256h2.556v-5.723c0-.576-.051-1.102-.153-1.576-.103-.474-.28-.876-.531-1.206zm-7.974-17.77v5.273h2.556v-6.227c0-.602-.084-1.113-.252-1.539s-.402-.771-.702-1.035-.66-.457-1.08-.576c-.42-.121-.876-.18-1.368-.18-.648 0-1.209.154-1.683.467s-.849.672-1.125 1.08c-.252-.576-.621-.979-1.107-1.205-.486-.229-1.023-.342-1.611-.342-.612 0-1.155.131-1.629.395-.475.266-.879.637-1.215 1.117h-.036v-1.26h-2.412v9.305h2.556v-5.4c0-.455.066-.824.198-1.105.132-.283.291-.498.477-.648.186-.15.378-.252.576-.307.198-.053.357-.08.477-.08.408 0 .717.068.927.207.209.137.36.32.45.549.09.229.141.477.153.746.012.271.018.543.018.82v5.219h2.556v-5.184c0-.287.021-.572.063-.855.042-.281.126-.533.252-.756.126-.221.3-.402.522-.539.222-.139.513-.207.873-.207s.645.061.855.18.369.281.477.486c.108.203.174.443.198.719.024.277.036.57.036.882zm-2.052 24.203v-4.842c0-.562-.126-1.016-.378-1.359-.252-.342-.576-.607-.972-.801-.396-.191-.834-.32-1.314-.387-.48-.064-.954-.098-1.422-.098-.516 0-1.029.051-1.539.152s-.969.273-1.377.514c-.408.24-.744.557-1.008.953-.264.396-.414.895-.45 1.494h2.556c.048-.504.216-.863.504-1.08s.684-.324 1.188-.324c.228 0 .441.016.639.045.198.031.372.09.522.18.15.09.27.217.36.379s.135.381.135.656c.012.264-.066.465-.234.604s-.396.242-.684.314c-.288.072-.618.127-.99.162-.372.037-.75.084-1.134.145-.384.061-.765.141-1.143.242-.378.104-.714.256-1.008.459-.294.205-.534.479-.72.82-.187.342-.279.777-.279 1.305 0 .48.081.895.243 1.242s.387.635.675.863c.288.229.624.396 1.008.504.384.107.798.162 1.242.162.576 0 1.14-.084 1.692-.252.552-.168 1.032-.461 1.44-.883.012.156.033.311.063.459.03.15.069.299.117.441h2.592c-.12-.191-.204-.479-.252-.863-.048-.384-.072-.784-.072-1.206zm-2.557-1.529c0 .145-.015.336-.045.576s-.111.477-.243.711c-.132.234-.336.436-.612.604s-.666.252-1.17.252c-.204 0-.402-.018-.594-.055-.192-.035-.36-.1-.504-.189-.144-.09-.258-.213-.342-.369-.084-.154-.126-.348-.126-.576 0-.238.042-.438.126-.594.084-.154.195-.283.333-.387.138-.102.3-.182.486-.242s.375-.107.567-.145l.612-.09.585-.09c.186-.037.36-.082.522-.135.162-.055.297-.129.405-.225v.954zm46.404-22.277c0-.949.156-1.629.468-2.043s.816-.621 1.512-.621c.612 0 1.038.189 1.278.566.24.379.36.951.36 1.719v5.256h2.556v-5.723c0-.576-.051-1.102-.153-1.576-.102-.473-.279-.875-.531-1.205s-.597-.588-1.035-.775c-.438-.186-.999-.277-1.683-.277-.48 0-.972.123-1.476.367-.504.246-.918.641-1.242 1.18h-.054v-4.842h-2.556v12.852h2.556v-4.878zm32.93 17.49c-.366-.396-.777-.691-1.232-.883-.456-.191-.918-.287-1.387-.287-.575 0-1.131.109-1.665.332-.533.223-.957.574-1.269 1.053h-.036v-4.68h-2.556v12.852h2.43v-1.188h.036c.276.516.684.883 1.224 1.098.54.217 1.152.324 1.836.324.469 0 .931-.096 1.387-.287.455-.193.866-.486 1.232-.883s.663-.902.892-1.521c.228-.617.342-1.352.342-2.205 0-.852-.114-1.586-.342-2.205-.228-.618-.525-1.126-.892-1.52zm-1.449 4.859c-.084.359-.216.678-.396.953-.18.277-.405.496-.675.658-.271.162-.598.242-.981.242-.372 0-.696-.08-.972-.242-.276-.162-.504-.381-.684-.658-.181-.275-.312-.594-.396-.953s-.126-.732-.126-1.115c0-.396.042-.775.126-1.135s.216-.678.396-.955c.18-.275.407-.494.684-.656.275-.162.6-.242.972-.242.384 0 .711.08.981.242.27.162.495.381.675.656.18.277.312.596.396.955s.127.738.127 1.135c0 .383-.043.756-.127 1.115zm4.374 3.527h2.557v-9.305h-2.557v9.305zm-7.2-42l1.944-2.934 1.944 2.934h2.916l-3.438-4.949 3.061-4.355h-2.826l-1.62 2.43-1.638-2.43h-2.916l3.06 4.408-3.348 4.896h2.861zm-6.839 33.784c-.421-.426-.928-.756-1.521-.99s-1.257-.35-1.989-.35c-.731 0-1.392.115-1.979.35s-1.092.564-1.512.99-.744.943-.972 1.549c-.228.605-.342 1.281-.342 2.025s.114 1.416.342 2.016c.228.6.552 1.113.972 1.539s.924.752 1.512.98 1.248.342 1.979.342c.732 0 1.396-.113 1.989-.342s1.101-.555 1.521-.98c.42-.426.743-.939.972-1.539.228-.6.342-1.271.342-2.016s-.114-1.42-.342-2.025c-.229-.606-.552-1.124-.972-1.549zm-1.35 4.662c-.072.354-.195.672-.369.955-.174.281-.407.506-.701.674-.295.168-.657.252-1.09.252-.432 0-.792-.084-1.079-.252-.288-.168-.52-.393-.693-.674-.174-.283-.297-.602-.369-.955-.072-.354-.108-.717-.108-1.088 0-.373.036-.738.108-1.1.072-.359.195-.678.369-.953s.405-.502.693-.676c.287-.174.647-.26 1.079-.26.433 0 .795.086 1.09.26.294.174.527.4.701.676s.297.594.369.953c.072.361.108.727.108 1.1 0 .371-.036.734-.108 1.088zm178.552-239.451c.999 1.056 2.218 1.87 3.658 2.442 1.438.572 3.055.858 4.847.858 2.585 0 4.788-.587 6.609-1.761 1.821-1.173 3.173-3.125 4.055-5.854h-5.509c-.205.704-.764 1.372-1.674 2.003-.911.632-1.998.946-3.261.946-1.763 0-3.114-.454-4.055-1.364-.94-.909-1.454-2.377-1.542-4.401h16.437c.117-1.761-.03-3.448-.441-5.062-.411-1.613-1.079-3.052-2.005-4.313-.925-1.262-2.107-2.267-3.547-3.016-1.439-.748-3.129-1.122-5.067-1.122-1.733 0-3.312.308-4.737.924s-2.651 1.461-3.679 2.531c-1.029 1.071-1.822 2.341-2.38 3.808-.559 1.468-.837 3.053-.837 4.754 0 1.761.271 3.375.814 4.842.545 1.467 1.315 2.728 2.314 3.785zm3.415-12.59c.161-.557.441-1.085.838-1.584s.925-.917 1.586-1.255c.661-.337 1.491-.506 2.49-.506 1.526 0 2.665.411 3.414 1.232s1.271 2.024 1.564 3.609h-10.179c.031-.439.126-.937.287-1.496zm-177.143 229.34v5.256h2.556v-5.723c0-.576-.052-1.102-.153-1.576-.102-.473-.278-.875-.531-1.205-.252-.33-.597-.588-1.034-.775-.438-.186-.999-.277-1.684-.277-.54 0-1.068.123-1.584.367-.516.246-.936.641-1.26 1.18h-.054v-1.295h-2.431v9.305h2.557v-4.877c0-.949.155-1.629.468-2.043.312-.414.815-.621 1.512-.621.612 0 1.038.189 1.278.566.24.378.36.95.36 1.718zm16.254-15.745v-1.98l-.379.055-.414.018c-.432 0-.72-.072-.863-.215-.145-.145-.216-.432-.216-.865v-4.607h1.872v-1.709h-1.872v-2.791h-2.557v2.791h-1.548v1.709h1.548v5.49c0 .469.078.846.234 1.135.155.287.369.51.639.666.271.154.582.26.937.314.354.055.729.08 1.125.08.252 0 .51-.006.773-.018s.504-.035.721-.073zm-3.115 14.899c-.169-.66-.441-1.248-.819-1.764s-.861-.928-1.449-1.232c-.588-.307-1.277-.459-2.069-.459-.709 0-1.354.125-1.936.377s-1.083.598-1.503 1.035-.744.957-.972 1.557c-.229.6-.342 1.248-.342 1.945 0 .719.11 1.379.333 1.979.222.602.536 1.117.944 1.549s.906.766 1.494.998c.588.234 1.248.352 1.98.352 1.056 0 1.955-.24 2.699-.721.744-.479 1.297-1.277 1.656-2.393h-2.25c-.084.287-.312.561-.684.818s-.816.387-1.332.387c-.72 0-1.272-.186-1.656-.559-.384-.371-.594-.971-.63-1.799h6.714c.05-.72-.01-1.41-.178-2.07zm-6.534.449c.012-.18.051-.383.117-.611.065-.229.18-.443.342-.648.162-.203.378-.375.648-.512.27-.139.608-.207 1.017-.207.624 0 1.089.168 1.395.504.307.336.52.828.64 1.475h-4.159zm3.96 15.906h2.557v-2.105h-2.557v2.105zm195.74-202.63c0-1.115.161-2.018.484-2.707s.712-1.217 1.168-1.584c.455-.367.925-.617 1.41-.75.484-.131.873-.197 1.167-.197.999 0 1.756.17 2.27.506.514.338.882.785 1.102 1.344.221.557.345 1.166.375 1.826.028.66.044 1.328.044 2.002v12.766h6.257v-12.678c0-.703.052-1.4.154-2.09s.309-1.307.617-1.85.734-.982 1.277-1.32c.545-.336 1.258-.506 2.139-.506s1.578.146 2.092.439c.514.295.904.691 1.168 1.189.266.498.426 1.086.484 1.76.059.676.09 1.395.09 2.158v12.896h6.256v-15.23c0-1.467-.205-2.721-.617-3.764-.41-1.041-.984-1.885-1.719-2.531-.734-.645-1.615-1.113-2.643-1.408-1.029-.293-2.145-.439-3.35-.439-1.586 0-2.959.381-4.119 1.145-1.162.764-2.08 1.643-2.754 2.641-.617-1.408-1.521-2.391-2.71-2.949-1.19-.557-2.505-.836-3.944-.836-1.498 0-2.827.322-3.987.969-1.161.645-2.152 1.555-2.975 2.729h-.088v-3.082h-5.905v22.758h6.258v-13.207zm-220.777 204.576c-.3-.264-.66-.457-1.08-.576-.42-.121-.876-.18-1.368-.18-.648 0-1.209.154-1.683.467-.475.312-.85.672-1.125 1.08-.252-.576-.621-.979-1.107-1.205-.486-.229-1.023-.342-1.611-.342-.612 0-1.155.131-1.629.395-.474.266-.879.637-1.215 1.117h-.036v-1.26h-2.412v9.305h2.556v-5.4c0-.455.065-.824.198-1.105.132-.283.291-.498.477-.648s.378-.252.576-.307c.198-.053.357-.08.477-.08.408 0 .717.068.927.207.21.137.36.32.45.549.09.229.141.477.153.746.012.271.018.543.018.82v5.219h2.556v-5.184c0-.287.021-.572.063-.855.042-.281.126-.533.252-.756.126-.221.3-.402.522-.539.222-.139.513-.207.873-.207s.645.061.855.18c.209.119.369.281.477.486.108.203.174.443.198.719.024.277.036.57.036.883v5.273h2.556v-6.227c0-.602-.084-1.113-.252-1.539-.168-.427-.402-.773-.702-1.036zm152.332-214.744c-1.733 0-3.312.309-4.736.924-1.426.617-2.651 1.461-3.68 2.531-1.028 1.072-1.822 2.34-2.38 3.807-.559 1.469-.837 3.053-.837 4.754 0 1.762.271 3.375.815 4.842.543 1.469 1.314 2.73 2.313 3.787.998 1.057 2.218 1.869 3.657 2.441 1.438.572 3.055.859 4.847.859 2.585 0 4.788-.586 6.61-1.762 1.82-1.172 3.172-3.125 4.054-5.854h-5.509c-.205.705-.764 1.373-1.674 2.002-.911.633-1.998.947-3.261.947-1.763 0-3.114-.455-4.054-1.365-.941-.908-1.454-2.377-1.543-4.4h16.437c.117-1.762-.029-3.449-.44-5.062-.412-1.613-1.08-3.053-2.006-4.314-.925-1.262-2.107-2.266-3.547-3.014-1.438-.75-3.126-1.123-5.066-1.123zm-5.376 9.55c.029-.439.125-.938.287-1.496.161-.557.44-1.086.837-1.584.396-.5.925-.918 1.586-1.256.661-.336 1.491-.506 2.49-.506 1.526 0 2.666.412 3.415 1.232.749.822 1.27 2.025 1.564 3.609h-10.179zm-156.01 171.508c.744-.479 1.296-1.277 1.656-2.393h-2.25c-.084.287-.312.561-.684.818-.372.258-.816.387-1.332.387-.72 0-1.272-.186-1.656-.559-.384-.371-.594-.971-.63-1.799h6.714c.048-.721-.012-1.41-.18-2.07-.168-.66-.441-1.248-.819-1.764-.378-.516-.861-.928-1.449-1.232-.588-.307-1.278-.459-2.07-.459-.708 0-1.354.125-1.935.377-.583.252-1.083.598-1.503 1.035s-.744.957-.972 1.557c-.228.6-.342 1.248-.342 1.945 0 .719.11 1.379.333 1.979.222.602.537 1.117.945 1.549.408.432.906.766 1.494.998.588.234 1.248.352 1.98.352 1.056 0 1.956-.24 2.7-.721zm-4.779-5.777c.065-.229.18-.443.342-.648.162-.203.378-.375.648-.512.27-.139.609-.207 1.017-.207.624 0 1.089.168 1.395.504s.519.828.639 1.475h-4.158c.012-.181.051-.384.117-.612zm-4.239-6.588h-2.556v12.852h2.556v-12.852zm47.754 54.851h2.556v-12.852h-2.556v12.852zm-15.426-48.101c-.169-.66-.441-1.248-.819-1.764s-.861-.928-1.449-1.232c-.588-.307-1.277-.459-2.07-.459-.708 0-1.353.125-1.935.377s-1.083.598-1.503 1.035-.744.957-.972 1.557-.342 1.248-.342 1.945c0 .719.111 1.379.333 1.979.222.602.537 1.117.945 1.549s.906.766 1.494.998c.588.234 1.248.352 1.979.352 1.057 0 1.956-.24 2.7-.721.744-.479 1.296-1.277 1.656-2.393h-2.25c-.084.287-.312.561-.684.818-.372.258-.816.387-1.332.387-.721 0-1.272-.186-1.656-.559-.384-.371-.594-.971-.63-1.799h6.714c.049-.72-.011-1.41-.179-2.07zm-6.534.449c.012-.18.051-.383.117-.611.065-.229.18-.443.342-.648.162-.203.378-.375.647-.512.271-.139.609-.207 1.018-.207.624 0 1.089.168 1.395.504.307.336.52.828.64 1.475h-4.159zm-7.758-6.443v2.791h-1.548v1.709h1.548v5.49c0 .469.078.846.234 1.135.156.287.369.51.639.666.27.154.582.26.936.314s.729.08 1.125.08c.252 0 .51-.006.774-.018.264-.012.504-.035.72-.072v-1.98l-.378.055-.414.018c-.432 0-.72-.072-.864-.215-.144-.145-.216-.432-.216-.865v-4.607h1.872v-1.709h-1.872v-2.791h-2.556zm167.219-198.11c0-2.317.381-3.983 1.146-4.996.764-1.013 1.997-1.519 3.701-1.519 1.498 0 2.541.462 3.129 1.387.587.924.881 2.326.881 4.203v12.854h6.258v-13.997c0-1.409-.126-2.692-.375-3.852-.25-1.159-.683-2.142-1.3-2.949-.617-.807-1.462-1.438-2.533-1.894-1.073-.454-2.446-.682-4.12-.682-1.322 0-2.615.301-3.878.902-1.264.602-2.291 1.562-3.085 2.883h-.132v-3.169h-5.949v22.757h6.258v-11.928zm-183.113 223.161c-.348-.457-.786-.822-1.314-1.098-.528-.277-1.158-.414-1.89-.414-.576 0-1.104.113-1.584.342-.48.227-.876.594-1.188 1.098h-.036v-1.188h-2.43v12.562h2.556v-4.41h.036c.312.457.711.803 1.197 1.035.486.234 1.017.352 1.593.352.684 0 1.281-.133 1.791-.396.51-.264.936-.617 1.278-1.061.342-.445.597-.955.765-1.531s.252-1.176.252-1.799c0-.66-.084-1.293-.252-1.9-.168-.606-.426-1.137-.774-1.592zm-1.638 4.517c-.072.359-.195.676-.369.945-.174.27-.402.488-.684.656-.282.168-.633.252-1.053.252-.408 0-.756-.084-1.044-.252s-.519-.387-.693-.656c-.174-.27-.3-.586-.378-.945-.078-.359-.117-.727-.117-1.098 0-.385.036-.756.108-1.117.072-.359.195-.678.369-.953.174-.275.402-.502.684-.676.282-.174.633-.26 1.053-.26.408 0 .753.086 1.035.26.282.174.513.402.693.686.18.281.309.602.387.963.078.359.117.725.117 1.098 0 .371-.036.738-.108 1.097zm22.895 2.44c.42-.426.744-.939.973-1.539.228-.6.342-1.271.342-2.016s-.114-1.42-.342-2.025c-.229-.605-.553-1.123-.973-1.549s-.927-.756-1.521-.99c-.594-.234-1.257-.35-1.989-.35s-1.392.115-1.98.35c-.588.234-1.092.564-1.512.99s-.744.943-.972 1.549c-.228.605-.342 1.281-.342 2.025s.114 1.416.342 2.016c.228.6.552 1.113.972 1.539s.924.752 1.512.98c.588.229 1.248.342 1.98.342s1.395-.113 1.989-.342c.595-.228 1.101-.555 1.521-.98zm-2.421-.838c-.294.168-.657.252-1.089.252s-.792-.084-1.08-.252-.519-.393-.693-.674c-.174-.283-.297-.602-.369-.955-.072-.354-.108-.717-.108-1.088 0-.373.036-.738.108-1.1.072-.359.195-.678.369-.953.174-.275.405-.502.693-.676s.648-.26 1.08-.26.795.086 1.089.26.528.4.702.676c.174.275.297.594.369.953.072.361.108.727.108 1.1 0 .371-.036.734-.108 1.088-.072.354-.195.672-.369.955-.174.281-.408.506-.702.674zm348.719-4.176c-.168-.66-.441-1.248-.82-1.764-.377-.516-.861-.928-1.447-1.232-.59-.307-1.279-.459-2.07-.459-.709 0-1.354.125-1.936.377s-1.084.598-1.504 1.035-.744.957-.971 1.557c-.229.6-.342 1.248-.342 1.945 0 .719.109 1.379.332 1.979.223.602.537 1.117.945 1.549s.906.766 1.494.998c.588.234 1.248.352 1.98.352 1.055 0 1.955-.24 2.699-.721.744-.479 1.297-1.277 1.656-2.393h-2.25c-.084.287-.312.561-.684.818-.373.258-.816.387-1.332.387-.721 0-1.273-.186-1.656-.559-.385-.371-.594-.971-.631-1.799h6.715c.048-.72-.01-1.41-.178-2.07zm-6.535.449c.012-.18.051-.383.117-.611s.18-.443.342-.648c.162-.203.379-.375.648-.512.27-.139.609-.207 1.018-.207.623 0 1.088.168 1.395.504s.52.828.639 1.475h-4.159zm-8.118-24.652v9.305h2.557v-4.877c0-.949.154-1.629.467-2.043s.816-.621 1.512-.621c.613 0 1.039.189 1.279.566.24.379.359.951.359 1.719v5.256h2.557v-5.723c0-.576-.053-1.102-.154-1.576-.102-.473-.277-.875-.531-1.205-.252-.33-.596-.588-1.033-.775-.439-.186-1-.277-1.684-.277-.541 0-1.068.123-1.584.367-.516.246-.936.641-1.26 1.18h-.055v-1.295h-2.43zm15.75 9.304h2.555v-9.305h-2.555v9.305zm105.641 12.784c-.42-.426-.928-.756-1.521-.99s-1.258-.35-1.988-.35c-.732 0-1.393.115-1.98.35s-1.092.564-1.512.99-.744.943-.973 1.549-.342 1.281-.342 2.025.113 1.416.342 2.016.553 1.113.973 1.539.924.752 1.512.98 1.248.342 1.98.342c.73 0 1.395-.113 1.988-.342s1.102-.555 1.521-.98.744-.939.971-1.539c.229-.6.344-1.271.344-2.016s-.115-1.42-.344-2.025c-.227-.606-.551-1.124-.971-1.549zm-1.35 4.662c-.072.354-.195.672-.369.955-.174.281-.408.506-.703.674-.293.168-.656.252-1.088.252s-.793-.084-1.08-.252c-.289-.168-.52-.393-.693-.674-.174-.283-.297-.602-.369-.955s-.107-.717-.107-1.088c0-.373.035-.738.107-1.1.072-.359.195-.678.369-.953s.404-.502.693-.676c.287-.174.648-.26 1.08-.26s.795.086 1.088.26c.295.174.529.4.703.676s.297.594.369.953c.07.361.107.727.107 1.1.001.371-.036.734-.107 1.088zm-119.591.603h-.035l-1.963-6.354h-2.682l3.188 9.305h2.844l3.148-9.305h-2.537l-1.963 6.354zm-2.358-18.912c-.047-.385-.072-.785-.072-1.207v-4.842c0-.562-.125-1.016-.377-1.359-.252-.342-.576-.607-.973-.801-.396-.191-.834-.32-1.314-.387-.48-.064-.953-.098-1.422-.098-.516 0-1.029.051-1.539.152s-.969.273-1.377.514-.744.557-1.008.953-.414.895-.449 1.494h2.555c.049-.504.217-.863.504-1.08.289-.217.686-.324 1.189-.324.227 0 .441.016.639.045.197.031.371.09.521.18s.27.217.359.379c.092.162.137.381.137.656.012.264-.066.465-.234.604s-.396.242-.684.314c-.289.072-.619.127-.99.162-.373.037-.75.084-1.135.145s-.766.141-1.143.242c-.379.104-.715.256-1.008.459-.295.205-.535.479-.721.82s-.279.777-.279 1.305c0 .48.082.895.244 1.242s.387.635.674.863c.289.229.625.396 1.008.504.385.107.799.162 1.242.162.576 0 1.141-.084 1.693-.252.551-.168 1.031-.461 1.439-.883.012.156.033.311.062.459.029.15.068.299.117.441h2.592c-.117-.19-.201-.477-.25-.862zm-2.627-2.736c0 .145-.016.336-.045.576-.031.24-.111.477-.244.711s-.336.436-.611.604c-.277.168-.666.252-1.17.252-.205 0-.402-.018-.594-.055-.193-.035-.361-.1-.504-.189-.145-.09-.26-.213-.344-.369-.084-.154-.125-.348-.125-.576 0-.238.041-.438.125-.594.084-.154.195-.285.334-.387s.299-.182.486-.242c.186-.061.375-.107.566-.145l.611-.09c.205-.023.4-.055.586-.09.186-.037.359-.082.521-.135.162-.055.297-.129.406-.225v.954zm-.504 18.498c-.168-.66-.441-1.248-.82-1.764-.377-.516-.861-.928-1.449-1.232-.588-.307-1.277-.459-2.068-.459-.709 0-1.354.125-1.936.377s-1.084.598-1.504 1.035-.744.957-.971 1.557c-.229.6-.342 1.248-.342 1.945 0 .719.109 1.379.332 1.979.223.602.537 1.117.945 1.549s.906.766 1.494.998c.588.234 1.248.352 1.98.352 1.055 0 1.955-.24 2.699-.721.744-.479 1.295-1.277 1.656-2.393h-2.25c-.084.287-.312.561-.684.818-.373.258-.816.387-1.332.387-.721 0-1.273-.186-1.656-.559-.385-.371-.594-.971-.631-1.799h6.715c.049-.72-.01-1.41-.178-2.07zm-6.535.449c.012-.18.051-.383.117-.611s.18-.443.342-.648c.162-.203.379-.375.648-.512.27-.139.609-.207 1.018-.207.623 0 1.088.168 1.395.504s.52.828.639 1.475h-4.159zm43.721 2.719h-.035l-2.105-6.371h-2.719l3.258 8.729c.072.18.109.373.109.576 0 .277-.082.529-.244.756-.162.229-.41.361-.746.396-.252.012-.504.006-.756-.018l-.738-.072v2.105l.783.064c.258.018.518.025.783.025.875 0 1.559-.162 2.051-.484.492-.324.877-.865 1.152-1.621l3.889-10.457h-2.646l-2.036 6.372zm-13.842-30.918h-2.555v2.105h2.555v-2.105zm10.746 12.851v-5.723c0-.576-.051-1.102-.152-1.576-.102-.473-.279-.875-.531-1.205s-.598-.588-1.035-.775c-.438-.186-.998-.277-1.682-.277-.541 0-1.068.123-1.584.367-.518.246-.938.641-1.262 1.18h-.053v-1.295h-2.43v9.305h2.555v-4.877c0-.949.156-1.629.469-2.043s.816-.621 1.512-.621c.611 0 1.037.189 1.277.566.24.379.361.951.361 1.719v5.256h2.555zm5.283-10.681c.15-.162.398-.244.748-.244.322 0 .635.018.936.055v-1.908l-.666-.045c-.229-.018-.457-.027-.684-.027-1.045 0-1.824.264-2.34.793-.518.527-.775 1.205-.775 2.033v.721h-1.529v1.709h1.529v7.596h2.557v-7.596h1.764v-1.709h-1.764v-.559c0-.386.074-.659.224-.819zm-13.49 22.267c-.301.098-.582.232-.846.406s-.498.383-.703.629c-.203.246-.365.514-.484.801h-.037v-1.727h-2.43v9.305h2.557v-4.193c0-.42.041-.811.125-1.17s.225-.676.424-.945c.197-.27.459-.482.783-.639.322-.156.719-.234 1.188-.234.156 0 .318.01.486.027l.432.062v-2.375c-.205-.061-.391-.09-.559-.09-.325.001-.637.048-.936.143zm-58.156.911c-.252-.33-.598-.588-1.035-.775-.439-.186-1-.277-1.684-.277-.48 0-.973.123-1.477.367-.504.246-.918.641-1.242 1.18h-.053v-4.842h-2.557v12.852h2.557v-4.877c0-.949.156-1.629.467-2.043.312-.414.816-.621 1.514-.621.611 0 1.037.189 1.277.566.24.379.359.951.359 1.719v5.256h2.557v-5.723c0-.576-.051-1.102-.152-1.576-.103-.474-.279-.876-.531-1.206zm-114.108-193.426h-6.918l-3.966 5.943-4.01-5.943h-7.139l7.491 10.785-8.196 11.973h7.007l4.759-7.176 4.759 7.176h7.139l-8.417-12.105 7.491-10.653zm104.08 171.625v9.305h2.557v-4.877c0-.949.156-1.629.467-2.043.312-.414.816-.621 1.514-.621.611 0 1.037.189 1.277.566.24.379.359.951.359 1.719v5.256h2.557v-5.723c0-.576-.051-1.102-.152-1.576-.104-.473-.279-.875-.531-1.205s-.598-.588-1.035-.775c-.439-.186-1-.277-1.684-.277-.539 0-1.068.123-1.584.367-.516.246-.936.641-1.26 1.18h-.055v-1.295h-2.43zm-92.914-178.447h-6.258v6.822h-3.789v4.182h3.789v13.426c0 1.145.191 2.068.573 2.773.381.705.903 1.248 1.564 1.629s1.424.639 2.291.77c.866.133 1.784.199 2.754.199.617 0 1.248-.016 1.896-.045.646-.029 1.233-.088 1.762-.176v-4.842c-.294.059-.603.104-.925.131-.324.031-.661.045-1.014.045-1.058 0-1.763-.176-2.115-.527-.353-.354-.528-1.057-.528-2.113v-11.27h4.582v-4.182h-4.582v-6.822zm-80.71-93.248c-4.968 0-8.995 4.253-8.995 9.5s4.027 9.5 8.995 9.5 8.995-4.253 8.995-9.5-4.027-9.5-8.995-9.5zm171.933 274.898c-.168-.66-.441-1.248-.818-1.764-.379-.516-.861-.928-1.449-1.232-.588-.307-1.279-.459-2.07-.459-.709 0-1.354.125-1.936.377s-1.082.598-1.502 1.035-.744.957-.973 1.557-.342 1.248-.342 1.945c0 .719.111 1.379.332 1.979.223.602.537 1.117.945 1.549s.906.766 1.494.998c.588.234 1.248.352 1.98.352 1.057 0 1.955-.24 2.699-.721.744-.479 1.297-1.277 1.656-2.393h-2.25c-.084.287-.312.561-.684.818-.373.258-.816.387-1.332.387-.721 0-1.271-.186-1.656-.559-.385-.371-.594-.971-.629-1.799h6.713c.051-.72-.01-1.41-.178-2.07zm-6.533.449c.012-.18.051-.383.117-.611.064-.229.18-.443.342-.648.162-.203.377-.375.646-.512.271-.139.609-.207 1.018-.207.623 0 1.09.168 1.395.504.307.336.52.828.639 1.475h-4.157zm37.646-.98c.174-.293.398-.533.674-.719.275-.188.619-.279 1.025-.279 1.094 0 1.723.533 1.891 1.602h2.502c-.035-.6-.18-1.119-.432-1.557-.252-.439-.578-.805-.98-1.098-.402-.295-.859-.514-1.369-.658s-1.041-.215-1.592-.215c-.756 0-1.43.125-2.016.377-.59.252-1.088.604-1.494 1.053-.408.451-.719.984-.928 1.602-.211.619-.314 1.287-.314 2.008 0 .695.113 1.336.342 1.918.227.582.545 1.082.953 1.502s.902.748 1.486.98c.58.234 1.221.352 1.916.352 1.236 0 2.25-.324 3.043-.973.791-.646 1.271-1.59 1.439-2.826h-2.467c-.084.576-.291 1.035-.621 1.379-.33.342-.801.512-1.412.512-.396 0-.732-.09-1.008-.27-.277-.18-.496-.41-.658-.693-.162-.281-.277-.596-.35-.945-.072-.348-.109-.689-.109-1.025 0-.348.037-.699.109-1.053s.195-.679.37-.974zm-14.625 10.142c1.066 0 1.92-.143 2.555-.432.637-.287 1.123-.639 1.459-1.053s.555-.861.656-1.342c.102-.479.154-.904.154-1.277v-8.711h-2.432v1.24h-.035c-.312-.539-.699-.924-1.16-1.15-.463-.229-1-.342-1.611-.342-.648 0-1.223.125-1.719.377-.498.252-.916.592-1.252 1.018s-.592.918-.766 1.477c-.174.557-.26 1.137-.26 1.736 0 .637.074 1.238.225 1.809s.387 1.068.711 1.494.738.762 1.242 1.008 1.104.369 1.799.369c.564 0 1.102-.117 1.611-.352s.904-.596 1.18-1.088h.035v1.223c.012.66-.146 1.207-.477 1.639s-.855.648-1.574.648c-.457 0-.859-.094-1.207-.279s-.582-.52-.701-.998h-2.539c.037.527.184.98.441 1.357.258.379.582.688.973.928.389.24.822.416 1.295.531.475.114.94.17 1.397.17zm2.258-7.316c-.09.307-.225.58-.404.818-.18.24-.408.434-.684.576-.277.145-.594.217-.955.217-.396 0-.727-.084-.99-.252s-.477-.385-.639-.648-.275-.561-.342-.891-.1-.664-.1-1c0-.348.039-.68.117-.998s.205-.6.379-.846.389-.441.648-.586c.258-.143.566-.215.926-.215.42 0 .768.078 1.045.232.275.156.498.367.666.631s.287.566.359.908c.072.344.107.705.107 1.09.002.337-.043.657-.133.964zm13.979 16.303c-.252-.33-.598-.588-1.035-.775-.439-.186-1-.277-1.684-.277-.541 0-1.068.123-1.584.367-.516.246-.936.641-1.26 1.18h-.055v-1.295h-2.43v9.305h2.557v-4.877c0-.949.154-1.629.467-2.043s.816-.621 1.512-.621c.613 0 1.039.189 1.279.566.24.379.359.951.359 1.719v5.256h2.557v-5.723c0-.576-.051-1.102-.154-1.576-.102-.474-.277-.876-.529-1.206zm-204.352-.801h-3.023l-3.223 3.348v-6.895h-2.556v12.852h2.556v-3.203l.99-.955 2.557 4.158h3.096l-3.906-5.885 3.509-3.42zm272.389-11.461c1.236 0 2.25-.324 3.043-.973.791-.646 1.271-1.59 1.439-2.826h-2.467c-.084.576-.291 1.035-.621 1.379-.33.342-.801.512-1.412.512-.396 0-.732-.09-1.008-.27s-.496-.41-.656-.693c-.162-.281-.279-.596-.352-.945-.072-.348-.107-.689-.107-1.025 0-.348.035-.699.107-1.053s.195-.678.369-.973c.174-.293.398-.533.674-.719.277-.188.619-.279 1.027-.279 1.092 0 1.721.533 1.889 1.602h2.502c-.035-.6-.18-1.119-.432-1.557-.252-.439-.578-.805-.98-1.098-.402-.295-.857-.514-1.367-.658-.512-.145-1.043-.215-1.594-.215-.756 0-1.428.125-2.016.377s-1.086.604-1.494 1.053c-.408.451-.717.984-.928 1.602-.209.619-.314 1.287-.314 2.008 0 .695.113 1.336.342 1.918s.545 1.082.953 1.502.904.748 1.486.98c.583.234 1.221.351 1.917.351zm34.633-8.451c-.422-.426-.928-.756-1.521-.99s-1.258-.35-1.988-.35c-.732 0-1.393.115-1.98.35s-1.092.564-1.512.99c-.422.426-.744.943-.973 1.549s-.342 1.281-.342 2.025.113 1.416.342 2.016.551 1.113.973 1.539c.42.426.924.752 1.512.98s1.248.342 1.98.342c.73 0 1.395-.113 1.988-.342s1.1-.555 1.521-.98c.42-.426.744-.939.971-1.539.229-.6.342-1.271.342-2.016s-.113-1.42-.342-2.025c-.227-.606-.551-1.124-.971-1.549zm-1.352 4.662c-.07.354-.195.672-.367.955-.176.281-.408.506-.703.674s-.656.252-1.088.252c-.434 0-.793-.084-1.08-.252-.289-.168-.52-.393-.693-.674-.174-.283-.297-.602-.369-.955s-.107-.717-.107-1.088c0-.373.035-.738.107-1.1.072-.359.195-.678.369-.953s.404-.502.693-.676c.287-.174.646-.26 1.08-.26.432 0 .793.086 1.088.26s.527.4.703.676c.172.275.297.594.367.953.072.361.109.727.109 1.1 0 .371-.037.734-.109 1.088zm3.098 13.808h2.555v-2.105h-2.555v2.105zm0 10.746h2.555v-9.305h-2.555v9.305zm-2.485-4.814c-.277-.197-.592-.357-.945-.477-.354-.121-.717-.223-1.09-.307-.359-.084-.713-.162-1.061-.234-.35-.072-.658-.152-.928-.242s-.488-.207-.656-.352-.252-.33-.252-.559c0-.191.047-.344.143-.459.098-.113.213-.199.352-.26s.291-.1.459-.117l.469-.027c.455 0 .852.088 1.188.262s.521.506.559.998h2.43c-.049-.576-.195-1.053-.441-1.43-.246-.379-.555-.682-.928-.91-.371-.229-.795-.389-1.268-.486-.475-.096-.963-.143-1.467-.143s-.996.045-1.477.135-.912.246-1.297.467c-.383.223-.691.525-.926.91-.234.383-.352.875-.352 1.475 0 .408.084.754.252 1.035.168.283.391.518.666.703s.592.336.945.449c.354.115.717.213 1.088.297.912.193 1.623.385 2.135.576.51.191.764.48.764.863 0 .229-.053.418-.162.568-.107.15-.242.27-.404.359s-.342.156-.541.197c-.197.043-.387.064-.566.064-.252 0-.494-.031-.729-.09-.234-.061-.441-.154-.621-.279-.18-.127-.326-.289-.441-.486-.113-.197-.17-.436-.17-.711h-2.432c.025.625.166 1.143.424 1.557s.588.748.99 1 .861.432 1.377.539 1.043.162 1.584.162c.527 0 1.047-.051 1.557-.152s.963-.279 1.359-.531.717-.586.963-1 .369-.926.369-1.539c0-.432-.084-.795-.252-1.088-.169-.294-.391-.54-.667-.737zm-12.834-19.119h-.037l-2.105-6.371h-2.719l3.26 8.729c.07.18.107.373.107.576 0 .277-.082.529-.244.756-.162.229-.41.361-.746.396-.252.012-.504.006-.756-.018l-.738-.072v2.105l.783.064c.258.018.52.025.783.025.875 0 1.559-.162 2.051-.484.492-.324.877-.865 1.152-1.621l3.889-10.457h-2.646l-2.034 6.372zm57.743 19.506c0 .949-.154 1.629-.467 2.043s-.816.621-1.512.621c-.613 0-1.039-.189-1.279-.566-.24-.379-.359-.951-.359-1.719v-5.256h-2.557v5.723c0 .576.051 1.102.154 1.576.102.473.279.875.531 1.205s.596.586 1.035.766c.438.18.998.27 1.682.27.541 0 1.068-.119 1.584-.359s.936-.631 1.26-1.17h.055v1.295h2.43v-9.305h-2.557v4.876zm-22.715 1.494h-.035l-2.107-6.371h-2.717l3.258 8.729c.072.18.107.373.107.576 0 .277-.08.529-.242.756-.162.229-.412.361-.748.396-.252.012-.504.006-.756-.018l-.738-.072v2.105l.783.064c.258.018.52.025.783.025.875 0 1.561-.162 2.053-.484.492-.324.875-.865 1.152-1.621l3.887-10.457h-2.646l-2.034 6.372zm-3.924-25.014c.324-.156.719-.234 1.188-.234.156 0 .318.01.486.027l.432.062v-2.375c-.203-.061-.391-.09-.559-.09-.324 0-.635.047-.936.143-.299.098-.582.232-.846.406s-.498.383-.701.629c-.205.246-.367.514-.486.801h-.037v-1.727h-2.43v9.305h2.557v-4.193c0-.42.041-.811.125-1.17s.227-.676.424-.945.459-.483.783-.639zm-8.389 2.52c0 .949-.156 1.629-.467 2.043-.312.414-.816.621-1.514.621-.611 0-1.037-.189-1.277-.566-.24-.379-.359-.951-.359-1.719v-5.256h-2.557v5.723c0 .576.051 1.102.154 1.576.102.473.277.875.529 1.205s.598.586 1.035.766c.439.18 1 .27 1.684.27.541 0 1.068-.119 1.584-.359s.936-.631 1.26-1.17h.055v1.295h2.43v-9.305h-2.557v4.876zm.414 13.332h-2.555v2.791h-1.549v1.709h1.549v5.49c0 .469.078.846.232 1.135.156.287.369.51.641.666.27.156.582.26.936.314s.729.08 1.125.08c.252 0 .51-.006.773-.018s.504-.035.721-.072v-1.98l-.379.055-.414.018c-.432 0-.719-.072-.863-.215-.145-.145-.217-.432-.217-.865v-4.607h1.873v-1.709h-1.873v-2.792zm-27.754 9.144h-.037l-1.961-6.354h-2.684l3.188 9.305h2.844l3.15-9.305h-2.539l-1.961 6.354zm-22.447-5.265c-.42-.426-.926-.756-1.52-.99-.596-.234-1.258-.35-1.99-.35s-1.393.115-1.98.35-1.092.564-1.512.99-.744.943-.971 1.549c-.229.605-.342 1.281-.342 2.025s.113 1.416.342 2.016c.227.6.551 1.113.971 1.539s.924.752 1.512.98 1.248.342 1.98.342 1.395-.113 1.99-.342c.594-.229 1.1-.555 1.52-.98s.744-.939.973-1.539.342-1.271.342-2.016-.113-1.42-.342-2.025-.553-1.124-.973-1.549zm-1.35 4.662c-.072.354-.195.672-.369.955-.174.281-.408.506-.701.674-.295.168-.658.252-1.09.252s-.791-.084-1.08-.252c-.287-.168-.52-.393-.693-.674-.174-.283-.297-.602-.367-.955-.072-.354-.109-.717-.109-1.088 0-.373.037-.738.109-1.1.07-.359.193-.678.367-.953s.406-.502.693-.676c.289-.174.648-.26 1.08-.26s.795.086 1.09.26c.293.174.527.4.701.676s.297.594.369.953c.072.361.107.727.107 1.1.001.371-.034.734-.107 1.088zm29.43-7.192h2.557v-2.105h-2.557v2.105zm-124.576 7.741h-.035l-1.584-6.299h-2.484l-1.549 6.316h-.035l-1.711-6.316h-2.699l2.951 9.305h2.646l1.584-6.246h.037l1.654 6.246h2.629l2.934-9.305h-2.627l-1.711 6.299zm90.088-18.112c.588.234 1.248.352 1.98.352 1.057 0 1.955-.24 2.699-.721.744-.479 1.297-1.277 1.656-2.393h-2.25c-.084.287-.312.561-.684.818s-.816.387-1.332.387c-.719 0-1.271-.186-1.656-.559-.383-.371-.594-.971-.629-1.799h6.713c.049-.721-.012-1.41-.18-2.07s-.441-1.248-.818-1.764c-.379-.516-.861-.928-1.449-1.232-.588-.307-1.277-.459-2.07-.459-.709 0-1.354.125-1.936.377s-1.082.598-1.502 1.035-.744.957-.973 1.557-.342 1.248-.342 1.945c0 .719.111 1.379.334 1.979.221.602.535 1.117.943 1.549s.908.766 1.496.998zm-.098-6.146c.064-.229.18-.443.342-.648.162-.203.377-.375.648-.512.27-.139.607-.207 1.016-.207.625 0 1.09.168 1.395.504.307.336.52.828.641 1.475h-4.158c.011-.181.05-.384.116-.612zm100.321 17.849c-.299.098-.582.232-.846.406s-.498.383-.701.629c-.205.246-.367.514-.486.801h-.037v-1.727h-2.43v9.305h2.557v-4.193c0-.42.041-.811.127-1.17.082-.359.225-.676.422-.945.199-.27.459-.482.783-.639s.721-.234 1.188-.234c.156 0 .318.01.486.027l.432.062v-2.375c-.203-.061-.389-.09-.557-.09-.325.001-.638.048-.938.143zm8.664-291.277l-5.657 5.657-5.657-5.657-3.535 3.535 5.657 5.657-5.657 5.657 3.535 3.535 5.657-5.657 5.657 5.657 3.535-3.535-5.657-5.657 5.657-5.657-3.535-3.535zm-74.399 300.691h2.557v-9.305h-2.557v9.305zm-18.935-4.427c0 .949-.156 1.629-.469 2.043-.311.414-.814.621-1.512.621-.611 0-1.037-.189-1.277-.566-.24-.379-.359-.951-.359-1.719v-5.256h-2.557v5.723c0 .576.051 1.102.152 1.576.102.473.279.875.531 1.205s.598.586 1.035.766 1 .27 1.684.27c.539 0 1.068-.119 1.584-.359s.936-.631 1.26-1.17h.055v1.295h2.43v-9.305h-2.557v4.876zm6.029-28.668h-2.557v2.791h-1.547v1.709h1.547v5.49c0 .469.078.846.234 1.135.156.287.369.51.639.666.271.154.582.26.938.314.354.055.729.08 1.125.08.252 0 .51-.006.773-.018s.504-.035.721-.072v-1.98l-.379.055-.414.018c-.432 0-.721-.072-.863-.215-.145-.145-.217-.432-.217-.865v-4.607h1.873v-1.709h-1.873v-2.792zm-86.938 26.994c-.168-.66-.441-1.248-.82-1.764-.377-.516-.859-.928-1.447-1.232-.59-.307-1.279-.459-2.07-.459-.709 0-1.354.125-1.936.377s-1.084.598-1.504 1.035-.744.957-.971 1.557c-.229.6-.342 1.248-.342 1.945 0 .719.109 1.379.332 1.979.223.602.537 1.117.945 1.549s.906.766 1.494.998c.588.234 1.248.352 1.98.352 1.055 0 1.955-.24 2.699-.721.744-.479 1.297-1.277 1.656-2.393h-2.25c-.084.287-.312.561-.684.818-.373.258-.816.387-1.332.387-.721 0-1.273-.186-1.656-.559-.385-.371-.594-.971-.631-1.799h6.715c.049-.72-.01-1.41-.178-2.07zm-6.535.449c.012-.18.051-.383.117-.611s.18-.443.342-.648c.162-.203.379-.375.648-.512.27-.139.609-.207 1.018-.207.623 0 1.088.168 1.395.504s.52.828.639 1.475h-4.159zm-141.261-24.762c-.3.098-.582.232-.846.406-.265.174-.498.383-.702.629s-.366.514-.486.801h-.036v-1.727h-2.43v9.305h2.556v-4.193c0-.42.042-.811.126-1.17s.226-.676.424-.945c.197-.27.459-.482.782-.639.324-.156.721-.234 1.188-.234.155 0 .317.01.485.027l.433.062v-2.375c-.204-.061-.391-.09-.558-.09-.324.001-.636.048-.936.143zm-6.516-3.437h-2.557v2.105h2.557v-2.105zm4.176 25.787h-.036c-.312-.539-.699-.924-1.161-1.15-.462-.229-.999-.342-1.61-.342-.648 0-1.222.125-1.72.377s-.915.592-1.251 1.018-.591.918-.765 1.477c-.174.557-.261 1.137-.261 1.736 0 .637.074 1.238.225 1.809s.387 1.068.711 1.494.738.762 1.242 1.008 1.104.369 1.8.369c.564 0 1.101-.117 1.611-.352.51-.234.902-.596 1.179-1.088h.036v1.223c.012.66-.147 1.207-.477 1.639-.331.432-.855.648-1.575.648-.456 0-.858-.094-1.206-.279-.349-.186-.582-.52-.702-.998h-2.538c.036.527.183.98.441 1.357.258.379.582.688.972.928s.822.416 1.296.531c.474.113.938.17 1.396.17 1.067 0 1.92-.143 2.556-.432.636-.287 1.122-.639 1.458-1.053s.555-.861.657-1.342c.102-.479.152-.904.152-1.277v-8.711h-2.43v1.24zm-.135 4.258c-.09.307-.226.58-.405.818-.18.24-.408.434-.684.576-.276.145-.595.217-.954.217-.396 0-.727-.084-.99-.252s-.477-.385-.639-.648-.276-.561-.343-.891c-.065-.33-.099-.664-.099-1 0-.348.039-.68.117-.998s.204-.6.378-.846.39-.441.648-.586c.258-.143.566-.215.927-.215.42 0 .768.078 1.044.232.275.156.498.367.666.631s.288.566.359.908c.072.344.108.705.108 1.09.002.337-.043.657-.133.964zm13.257-2.295c-.168-.66-.441-1.248-.819-1.764s-.861-.928-1.449-1.232c-.588-.307-1.277-.459-2.069-.459-.708 0-1.354.125-1.936.377s-1.083.598-1.503 1.035-.744.957-.972 1.557c-.229.6-.342 1.248-.342 1.945 0 .719.11 1.379.333 1.979.222.602.536 1.117.944 1.549s.906.766 1.494.998c.588.234 1.248.352 1.98.352 1.056 0 1.955-.24 2.7-.721.743-.479 1.296-1.277 1.655-2.393h-2.25c-.084.287-.312.561-.684.818s-.816.387-1.332.387c-.72 0-1.272-.186-1.656-.559-.384-.371-.594-.971-.63-1.799h6.714c.05-.72-.01-1.41-.178-2.07zm-6.534.449c.012-.18.051-.383.117-.611.065-.229.18-.443.342-.648.162-.203.378-.375.648-.512.27-.139.608-.207 1.017-.207.624 0 1.089.168 1.395.504.307.336.52.828.64 1.475h-4.159zm-13.32-15.348h2.557v-9.305h-2.557v9.305zm17.748-4.427c0 .949-.156 1.629-.468 2.043-.312.414-.816.621-1.512.621-.612 0-1.038-.189-1.278-.566-.24-.379-.36-.951-.36-1.719v-5.256h-2.556v5.723c0 .576.051 1.102.153 1.576.102.473.278.875.53 1.205s.597.586 1.035.766.999.27 1.684.27c.54 0 1.067-.119 1.584-.359.516-.24.936-.631 1.26-1.17h.054v1.295h2.43v-9.305h-2.556v4.876zm23.183 16.924c-.252-.33-.597-.588-1.034-.775-.438-.186-1-.277-1.684-.277-.48 0-.972.123-1.476.367-.504.246-.918.641-1.242 1.18h-.054v-4.842h-2.557v12.852h2.557v-4.877c0-.949.155-1.629.468-2.043.312-.414.815-.621 1.512-.621.612 0 1.038.189 1.278.566.239.379.359.951.359 1.719v5.256h2.557v-5.723c0-.576-.052-1.102-.153-1.576s-.279-.876-.531-1.206zm-11.141-3.592h-2.556v2.791h-1.548v1.709h1.548v5.49c0 .469.078.846.233 1.135.156.287.369.51.64.666.27.156.582.26.936.314.354.055.729.08 1.125.08.252 0 .51-.006.774-.018.264-.012.504-.035.72-.072v-1.98l-.378.055-.414.018c-.432 0-.72-.072-.864-.215-.144-.145-.216-.432-.216-.865v-4.607h1.872v-1.709h-1.872v-2.792zm-2.062-8.823c.511-.102.964-.279 1.359-.531s.717-.586.963-1 .369-.926.369-1.539c0-.432-.084-.795-.252-1.088-.168-.295-.391-.541-.666-.738-.276-.197-.591-.357-.945-.477-.354-.121-.717-.223-1.089-.307-.36-.084-.714-.162-1.062-.234-.349-.072-.657-.152-.928-.242-.27-.09-.488-.207-.656-.352-.169-.145-.252-.33-.252-.559 0-.191.048-.344.144-.459.096-.113.213-.199.351-.26.139-.061.291-.1.459-.117l.469-.027c.456 0 .852.088 1.188.262s.522.506.559.998h2.43c-.048-.576-.195-1.053-.441-1.43-.246-.379-.555-.682-.927-.91s-.795-.389-1.269-.486c-.475-.096-.964-.143-1.468-.143s-.996.045-1.476.135c-.48.09-.912.246-1.296.467-.385.223-.693.525-.927.91-.234.383-.352.875-.352 1.475 0 .408.084.754.252 1.035.168.283.39.518.666.703s.591.336.945.449c.354.115.717.213 1.089.297.912.193 1.623.385 2.133.576s.766.48.766.863c0 .229-.055.418-.162.568-.108.15-.243.27-.405.359s-.342.156-.54.197c-.198.043-.387.064-.567.064-.252 0-.494-.031-.729-.09-.234-.061-.441-.154-.621-.279-.18-.127-.327-.289-.441-.486-.113-.197-.171-.436-.171-.711h-2.43c.024.623.165 1.143.423 1.557s.588.748.99 1c.401.252.86.432 1.377.539.516.107 1.044.162 1.584.162.528.002 1.046-.049 1.556-.151zm187.736-201.176h.088c.764 1.116 1.74 1.959 2.93 2.531 1.191.572 2.49.858 3.9.858 1.674 0 3.135-.323 4.385-.969 1.248-.645 2.291-1.511 3.129-2.597.836-1.085 1.461-2.333 1.873-3.741.41-1.409.615-2.876.615-4.402 0-1.613-.205-3.161-.615-4.644-.412-1.481-1.043-2.78-1.896-3.896-.852-1.115-1.924-2.01-3.215-2.685-1.295-.675-2.836-1.013-4.627-1.013-1.41 0-2.703.279-3.879.836-1.176.558-2.145 1.453-2.908 2.686h-.088v-2.905h-5.949v30.724h6.258v-10.783zm.045-11.223c.176-.881.477-1.658.902-2.333s.984-1.226 1.674-1.651c.691-.425 1.551-.638 2.578-.638.998 0 1.844.213 2.533.638.691.426 1.256.983 1.697 1.673.441.69.756 1.475.947 2.355.191.88.287 1.775.287 2.685 0 .91-.088 1.805-.266 2.686-.176.88-.477 1.65-.902 2.311s-.984 1.196-1.674 1.606c-.691.411-1.551.616-2.578.616-1 0-1.852-.205-2.557-.616-.705-.41-1.271-.946-1.695-1.606-.428-.66-.734-1.431-.926-2.311-.191-.881-.287-1.775-.287-2.686.001-.939.089-1.85.267-2.729zm-243.318 227.216c-.169-.66-.441-1.248-.819-1.764s-.861-.928-1.449-1.232c-.588-.307-1.278-.459-2.07-.459-.708 0-1.353.125-1.935.377s-1.083.598-1.503 1.035-.744.957-.972 1.557c-.229.6-.343 1.248-.343 1.945 0 .719.111 1.379.333 1.979.223.602.537 1.117.945 1.549s.906.766 1.494.998c.588.234 1.248.352 1.979.352 1.057 0 1.956-.24 2.7-.721.744-.479 1.296-1.277 1.656-2.393h-2.25c-.084.287-.312.561-.684.818-.372.258-.816.387-1.332.387-.721 0-1.272-.186-1.656-.559-.385-.371-.594-.971-.63-1.799h6.714c.05-.72-.011-1.41-.178-2.07zm-6.534.449c.012-.18.051-.383.117-.611.065-.229.18-.443.342-.648.162-.203.378-.375.647-.512.271-.139.609-.207 1.018-.207.624 0 1.089.168 1.395.504.307.336.52.828.64 1.475h-4.159zm6.947-23.851c-.252-.33-.597-.588-1.034-.775-.438-.186-.999-.277-1.684-.277-.479 0-.972.123-1.476.367-.504.246-.918.641-1.242 1.18h-.054v-4.842h-2.556v12.852h2.557v-4.877c0-.949.155-1.629.468-2.043.312-.414.815-.621 1.512-.621.612 0 1.038.189 1.278.566.24.379.36.951.36 1.719v5.256h2.556v-5.723c0-.576-.052-1.102-.153-1.576-.102-.474-.279-.876-.532-1.206zm21.762 5.552h-.035l-1.963-6.354h-2.682l3.186 9.305h2.845l3.149-9.305h-2.538l-1.962 6.354zm-35.459-9.144v2.791h-1.548v1.709h1.548v5.49c0 .469.078.846.234 1.135.155.287.368.51.639.666.27.154.582.26.936.314.354.055.729.08 1.125.08.252 0 .51-.006.774-.018.264-.012.504-.035.72-.072v-1.98l-.378.055-.414.018c-.432 0-.72-.072-.864-.215-.144-.145-.216-.432-.216-.865v-4.607h1.872v-1.709h-1.872v-2.791h-2.556zm226.643-188.14c.615.808 1.461 1.431 2.533 1.871s2.445.66 4.119.66c1.322 0 2.615-.294 3.879-.88 1.262-.587 2.291-1.541 3.084-2.861h.133v3.169h5.947v-22.757h-6.256v11.929c0 2.318-.383 3.983-1.146 4.996-.764 1.012-1.998 1.519-3.701 1.519-1.498 0-2.541-.462-3.129-1.387s-.881-2.325-.881-4.204v-12.853h-6.258v13.997c0 1.409.125 2.693.375 3.852.25 1.16.684 2.142 1.301 2.949zm-145.887 193.603c.174-.293.398-.533.675-.719.275-.188.618-.279 1.025-.279 1.092 0 1.722.533 1.891 1.602h2.502c-.036-.6-.181-1.119-.433-1.557-.252-.439-.579-.805-.98-1.098-.402-.295-.858-.514-1.368-.658s-1.041-.215-1.593-.215c-.756 0-1.429.125-2.017.377s-1.086.604-1.493 1.053c-.408.451-.718.984-.928 1.602-.21.619-.314 1.287-.314 2.008 0 .695.113 1.336.342 1.918.228.582.546 1.082.954 1.502.407.42.902.748 1.485.98.581.234 1.221.352 1.917.352 1.235 0 2.25-.324 3.042-.973.792-.646 1.271-1.59 1.439-2.826h-2.466c-.084.576-.291 1.035-.621 1.379-.33.342-.801.512-1.413.512-.396 0-.732-.09-1.008-.27-.276-.18-.495-.41-.657-.693-.162-.281-.279-.596-.351-.945-.072-.348-.108-.689-.108-1.025 0-.348.036-.699.108-1.053.072-.355.195-.679.37-.974zm-41.427 25.562v-4.842c0-.562-.126-1.016-.378-1.359-.252-.342-.576-.607-.972-.801-.396-.191-.834-.32-1.314-.387-.479-.064-.954-.098-1.422-.098-.516 0-1.028.051-1.539.152-.51.102-.969.273-1.377.514s-.744.557-1.008.953-.414.895-.45 1.494h2.557c.048-.504.216-.863.504-1.08s.684-.324 1.188-.324c.229 0 .441.016.64.045.197.031.371.09.521.18s.271.217.36.379.135.381.135.656c.012.264-.066.465-.234.604s-.396.242-.684.314-.618.127-.99.162c-.372.037-.75.084-1.134.145s-.765.141-1.143.242c-.378.104-.715.256-1.009.459-.294.205-.534.479-.72.82-.187.342-.279.777-.279 1.305 0 .48.081.895.243 1.242s.387.635.675.863.624.396 1.009.504c.384.107.798.162 1.241.162.576 0 1.141-.084 1.692-.252s1.032-.461 1.44-.883c.012.156.032.311.062.459.03.15.069.299.117.441h2.592c-.12-.191-.204-.479-.252-.863s-.071-.784-.071-1.206zm-2.556-1.529c0 .145-.016.336-.045.576-.03.24-.111.477-.243.711s-.336.436-.612.604c-.275.168-.666.252-1.17.252-.204 0-.402-.018-.594-.055-.192-.035-.36-.1-.504-.189-.145-.09-.258-.213-.342-.369-.084-.154-.126-.348-.126-.576 0-.238.042-.438.126-.594.084-.154.194-.285.333-.387.138-.102.3-.182.485-.242.187-.061.375-.107.567-.145l.612-.09c.203-.023.398-.055.585-.09.186-.037.359-.082.521-.135.162-.055.297-.129.405-.225v.954zm-8.351-4.445c-.349-.457-.786-.822-1.314-1.098-.528-.277-1.158-.414-1.89-.414-.576 0-1.104.113-1.584.342-.48.227-.876.594-1.188 1.098h-.036v-1.188h-2.43v12.562h2.556v-4.41h.036c.312.457.711.803 1.197 1.035.486.234 1.017.352 1.593.352.685 0 1.281-.133 1.791-.396s.937-.617 1.278-1.061c.342-.445.597-.955.765-1.531s.252-1.176.252-1.799c0-.66-.084-1.293-.252-1.9-.169-.606-.426-1.137-.774-1.592zm-1.639 4.517c-.071.359-.195.676-.369.945s-.401.488-.684.656-.633.252-1.053.252c-.408 0-.756-.084-1.044-.252s-.52-.387-.693-.656-.3-.586-.378-.945-.117-.727-.117-1.098c0-.385.036-.756.108-1.117.072-.359.194-.678.369-.953.174-.275.401-.502.684-.676s.633-.26 1.053-.26c.408 0 .753.086 1.035.26s.514.402.693.686c.18.281.309.602.387.963.078.359.117.725.117 1.098.001.371-.036.738-.108 1.097zm-3.456-17.959c.744-.479 1.296-1.277 1.656-2.393h-2.25c-.084.287-.312.561-.684.818-.372.258-.816.387-1.332.387-.72 0-1.272-.186-1.656-.559-.384-.371-.594-.971-.63-1.799h6.714c.048-.721-.012-1.41-.18-2.07-.169-.66-.441-1.248-.819-1.764s-.861-.928-1.449-1.232c-.588-.307-1.277-.459-2.069-.459-.709 0-1.354.125-1.936.377s-1.083.598-1.503 1.035-.744.957-.972 1.557c-.229.6-.342 1.248-.342 1.945 0 .719.11 1.379.333 1.979.222.602.536 1.117.944 1.549s.906.766 1.494.998c.588.234 1.248.352 1.98.352 1.058 0 1.957-.24 2.701-.721zm-4.778-5.777c.065-.229.18-.443.342-.648.162-.203.378-.375.648-.512.27-.139.608-.207 1.017-.207.624 0 1.089.168 1.395.504.307.336.52.828.64 1.475h-4.158c.01-.181.049-.384.116-.612zm220.787-174.358c-1.221.617-2.24 1.445-3.062 2.486-.822 1.043-1.447 2.246-1.873 3.609-.426 1.365-.639 2.781-.639 4.248 0 1.557.184 3.031.551 4.424.367 1.395.947 2.613 1.74 3.654s1.807 1.863 3.041 2.465c1.232.602 2.701.902 4.406.902 1.381 0 2.695-.287 3.943-.859s2.211-1.459 2.887-2.662h.088v2.992c.029 1.615-.359 2.949-1.168 4.006s-2.094 1.586-3.855 1.586c-1.117 0-2.102-.229-2.953-.684s-1.424-1.27-1.719-2.443h-6.213c.088 1.291.447 2.4 1.08 3.324.631.924 1.424 1.68 2.379 2.268.955.586 2.012 1.02 3.174 1.299 1.16.277 2.297.418 3.414.418 2.615 0 4.701-.354 6.258-1.057 1.557-.705 2.746-1.562 3.568-2.576.822-1.012 1.359-2.105 1.609-3.279s.375-2.215.375-3.125v-21.305h-5.949v3.037h-.088c-.766-1.32-1.713-2.258-2.842-2.816-1.133-.557-2.447-.836-3.945-.836-1.586.001-2.988.309-4.207.924zm8.307 4.358c.674.383 1.217.896 1.629 1.541.412.646.705 1.387.881 2.223.178.836.266 1.725.266 2.664 0 .82-.109 1.605-.33 2.354s-.551 1.416-.992 2.004-.998 1.057-1.674 1.408-1.455.527-2.336.527c-.969 0-1.777-.205-2.424-.615s-1.168-.939-1.564-1.584c-.396-.646-.676-1.373-.836-2.18-.162-.807-.244-1.621-.244-2.443 0-.85.096-1.664.287-2.443.191-.777.5-1.467.926-2.068s.955-1.078 1.586-1.43c.631-.354 1.389-.529 2.27-.529 1.026-.001 1.877.19 2.555.571zm80.549-26.041c.793 1.042 1.807 1.863 3.039 2.465 1.234.602 2.703.902 4.406.902 1.381 0 2.695-.286 3.945-.858 1.248-.572 2.209-1.459 2.885-2.663h.09v2.993c.027 1.613-.361 2.949-1.168 4.006-.809 1.057-2.094 1.585-3.855 1.585-1.117 0-2.102-.229-2.953-.683-.852-.455-1.426-1.27-1.719-2.443h-6.213c.088 1.291.447 2.399 1.08 3.323.631.925 1.424 1.68 2.379 2.268.955.586 2.012 1.019 3.172 1.298 1.16.278 2.299.418 3.416.418 2.613 0 4.699-.352 6.258-1.056 1.557-.705 2.746-1.562 3.568-2.575s1.359-2.106 1.609-3.279c.248-1.174.373-2.216.373-3.125v-21.305h-5.947v3.037h-.09c-.764-1.32-1.711-2.26-2.842-2.817-1.131-.557-2.445-.836-3.943-.836-1.586 0-2.99.308-4.209.924s-2.24 1.446-3.062 2.487c-.822 1.042-1.447 2.245-1.871 3.609-.428 1.364-.639 2.781-.639 4.248 0 1.556.182 3.03.551 4.424.365 1.394.947 2.612 1.74 3.653zm4.252-10.608c.189-.777.498-1.467.926-2.068.424-.602.953-1.079 1.586-1.431.631-.353 1.387-.528 2.27-.528 1.027 0 1.879.191 2.555.572.676.382 1.219.896 1.631 1.54.41.646.705 1.387.881 2.224.176.836.266 1.724.266 2.663 0 .821-.111 1.606-.332 2.354-.219.748-.551 1.416-.99 2.003-.441.587-1 1.057-1.676 1.408-.676.353-1.453.528-2.334.528-.971 0-1.777-.205-2.424-.616-.646-.41-1.168-.938-1.564-1.585-.396-.645-.676-1.371-.838-2.179-.162-.807-.242-1.621-.242-2.442-.002-.851.093-1.665.285-2.443zm-207.635 204.741h-.035c-.289-.455-.682-.801-1.18-1.035-.498-.234-1.023-.35-1.575-.35-.684 0-1.284.135-1.8.404-.517.27-.945.627-1.287 1.07-.342.445-.601.957-.774 1.539s-.261 1.186-.261 1.809c0 .648.087 1.273.261 1.873s.433 1.131.774 1.594c.342.461.777.826 1.306 1.098.527.27 1.14.404 1.836.404.611 0 1.16-.111 1.647-.332.486-.223.879-.586 1.178-1.09h.037v1.188h2.43v-12.852h-2.557v4.68zm-.018 4.607c-.072.361-.191.682-.359.965-.168.281-.393.506-.676.674-.282.168-.632.252-1.052.252-.396 0-.735-.086-1.018-.26s-.516-.402-.702-.686c-.186-.281-.32-.602-.404-.963-.084-.359-.126-.719-.126-1.08 0-.383.038-.752.116-1.105.078-.355.204-.67.379-.945.174-.277.404-.498.692-.666s.642-.252 1.062-.252c.42 0 .768.084 1.044.252.275.168.5.387.674.656s.297.582.369.936c.072.355.107.725.107 1.107.002.385-.033.756-.106 1.115zm154.78-173.844c-.926-1.262-2.107-2.266-3.547-3.014-1.439-.75-3.129-1.123-5.068-1.123-1.732 0-3.312.309-4.736.924-1.426.617-2.65 1.461-3.68 2.531-1.027 1.072-1.822 2.34-2.379 3.807-.559 1.469-.838 3.053-.838 4.754 0 1.762.271 3.375.816 4.842.543 1.469 1.314 2.73 2.312 3.787s2.219 1.869 3.658 2.441c1.438.572 3.055.859 4.846.859 2.586 0 4.789-.586 6.611-1.762 1.82-1.172 3.172-3.125 4.053-5.854h-5.508c-.205.705-.764 1.373-1.674 2.002-.912.633-1.998.947-3.262.947-1.762 0-3.113-.455-4.053-1.365-.941-.908-1.455-2.377-1.543-4.4h16.436c.117-1.762-.029-3.449-.439-5.062-.411-1.613-1.079-3.052-2.005-4.314zm-13.99 5.414c.029-.439.125-.938.287-1.496.16-.557.439-1.086.836-1.584.396-.5.926-.918 1.586-1.256.662-.336 1.492-.506 2.49-.506 1.527 0 2.666.412 3.416 1.232.748.822 1.27 2.025 1.564 3.609h-10.179zm-128.622 186.893c-.168-.66-.441-1.248-.818-1.764-.379-.516-.861-.928-1.449-1.232-.588-.307-1.277-.459-2.07-.459-.707 0-1.354.125-1.936.377s-1.082.598-1.502 1.035-.744.957-.973 1.557-.342 1.248-.342 1.945c0 .719.111 1.379.334 1.979.221.602.537 1.117.943 1.549.408.432.906.766 1.494.998.588.234 1.248.352 1.98.352 1.057 0 1.957-.24 2.701-.721.742-.479 1.295-1.277 1.654-2.393h-2.25c-.084.287-.311.561-.684.818-.371.258-.816.387-1.332.387-.719 0-1.271-.186-1.656-.559-.383-.371-.594-.971-.629-1.799h6.713c.051-.72-.01-1.41-.178-2.07zm-6.533.449c.012-.18.051-.383.117-.611.064-.229.18-.443.342-.648.162-.203.377-.375.648-.512.27-.139.607-.207 1.016-.207.625 0 1.09.168 1.396.504.305.336.518.828.639 1.475h-4.158zm-4.662-2.392c-.348-.457-.787-.822-1.314-1.098-.527-.277-1.158-.414-1.889-.414-.576 0-1.104.113-1.584.342-.48.227-.877.594-1.188 1.098h-.036v-1.188h-2.43v12.562h2.556v-4.41h.036c.312.457.711.803 1.197 1.035.485.234 1.017.352 1.593.352.684 0 1.281-.133 1.791-.396s.936-.617 1.279-1.061c.342-.445.596-.955.764-1.531s.252-1.176.252-1.799c0-.66-.084-1.293-.252-1.9-.169-.606-.427-1.137-.775-1.592zm-1.639 4.517c-.072.359-.195.676-.369.945s-.402.488-.683.656c-.282.168-.634.252-1.054.252-.407 0-.756-.084-1.043-.252-.289-.168-.52-.387-.693-.656s-.301-.586-.378-.945c-.078-.359-.117-.727-.117-1.098 0-.385.036-.756.108-1.117.071-.359.194-.678.368-.953s.402-.502.685-.676c.281-.174.633-.26 1.053-.26.408 0 .753.086 1.035.26.281.174.513.402.694.686.18.281.309.602.387.963.078.359.117.725.117 1.098 0 .371-.037.738-.11 1.097zm39.663-18.695c.342-.445.598-.955.766-1.531s.252-1.176.252-1.799c0-.66-.084-1.293-.252-1.9-.168-.605-.426-1.137-.773-1.592-.35-.457-.787-.822-1.314-1.098-.529-.277-1.158-.414-1.891-.414-.576 0-1.104.113-1.584.342-.48.227-.875.594-1.188 1.098h-.035v-1.188h-2.432v12.562h2.557v-4.41h.037c.311.457.711.803 1.195 1.035.486.234 1.018.352 1.594.352.684 0 1.281-.133 1.791-.396s.935-.618 1.277-1.061zm-1.647-2.305c-.072.359-.195.676-.369.945s-.402.488-.684.656c-.283.168-.633.252-1.053.252-.408 0-.756-.084-1.045-.252-.287-.168-.52-.387-.693-.656s-.299-.586-.377-.945-.117-.727-.117-1.098c0-.385.035-.756.107-1.117.072-.359.195-.678.369-.953s.402-.502.684-.676c.283-.174.633-.26 1.055-.26.406 0 .752.086 1.033.26.283.174.514.402.693.686.18.281.309.602.387.963.078.359.117.725.117 1.098.001.371-.035.738-.107 1.097zm-45.539-2.574c-.168-.66-.44-1.248-.818-1.764s-.861-.928-1.449-1.232c-.588-.307-1.278-.459-2.07-.459-.708 0-1.353.125-1.935.377s-1.083.598-1.503 1.035-.744.957-.973 1.557c-.228.6-.342 1.248-.342 1.945 0 .719.111 1.379.333 1.979.222.602.537 1.117.945 1.549.407.432.906.766 1.494.998.588.234 1.248.352 1.979.352 1.056 0 1.956-.24 2.7-.721.744-.479 1.296-1.277 1.656-2.393h-2.25c-.084.287-.312.561-.685.818s-.815.387-1.332.387c-.72 0-1.271-.186-1.655-.559-.385-.371-.595-.971-.63-1.799h6.714c.049-.72-.011-1.41-.179-2.07zm-6.534.449c.012-.18.051-.383.116-.611.066-.229.181-.443.343-.648.162-.203.378-.375.647-.512.271-.139.609-.207 1.018-.207.623 0 1.089.168 1.395.504s.519.828.639 1.475h-4.158zm46.511 21.838c-.275-.197-.59-.357-.943-.477-.355-.121-.719-.223-1.09-.307-.359-.084-.715-.162-1.062-.234s-.656-.152-.926-.242c-.271-.09-.49-.207-.658-.352s-.252-.33-.252-.559c0-.191.049-.344.145-.459.096-.113.213-.199.352-.26.137-.061.291-.1.459-.117l.467-.027c.457 0 .854.088 1.189.262s.521.506.557.998h2.43c-.047-.576-.193-1.053-.439-1.43-.246-.379-.557-.682-.928-.91s-.795-.389-1.27-.486c-.473-.096-.963-.143-1.467-.143s-.996.045-1.477.135c-.479.09-.912.246-1.295.467-.385.223-.693.525-.928.91-.232.383-.35.875-.35 1.475 0 .408.084.754.252 1.035.168.283.389.518.666.703.275.186.59.336.943.449.355.115.719.213 1.09.297.912.193 1.623.385 2.133.576s.766.48.766.863c0 .229-.055.418-.162.568s-.244.27-.406.359c-.16.09-.342.156-.539.197-.197.043-.387.064-.566.064-.252 0-.496-.031-.73-.09-.232-.061-.439-.154-.619-.279-.182-.127-.328-.289-.441-.486-.115-.197-.172-.436-.172-.711h-2.43c.023.625.164 1.143.424 1.557.258.414.588.748.988 1 .402.252.861.432 1.377.539.518.107 1.045.162 1.584.162.529 0 1.047-.051 1.559-.152.51-.102.963-.279 1.357-.531.396-.252.719-.586.965-1 .244-.414.367-.926.367-1.539 0-.432-.084-.795-.252-1.088-.17-.294-.391-.54-.668-.737zm-15.038-16.203c.666-.203 1.223-.488 1.674-.855.449-.365.789-.801 1.016-1.305.229-.504.342-1.049.342-1.639 0-.719-.152-1.311-.459-1.771-.305-.463-.668-.832-1.088-1.107s-.844-.477-1.27-.604c-.426-.125-.758-.213-.998-.26-.805-.205-1.455-.373-1.953-.506-.498-.131-.889-.264-1.17-.395-.283-.133-.471-.277-.568-.432-.096-.156-.143-.361-.143-.613 0-.275.059-.504.18-.684.119-.18.273-.33.459-.449.186-.121.393-.205.621-.252.227-.049.455-.072.684-.072.348 0 .668.029.963.09s.555.162.783.305c.229.145.41.344.549.596s.219.568.242.953h2.736c0-.744-.141-1.377-.422-1.898-.283-.523-.664-.951-1.143-1.287-.48-.336-1.029-.58-1.648-.729-.617-.15-1.262-.227-1.934-.227-.576 0-1.152.078-1.729.234s-1.092.396-1.549.721c-.455.324-.824.729-1.107 1.215-.281.486-.422 1.059-.422 1.719 0 .588.111 1.09.332 1.504.223.414.514.758.873 1.033.361.277.768.502 1.225.676.455.174.924.322 1.404.441.467.133.93.252 1.385.359.457.107.865.234 1.225.379.361.143.65.324.873.539.223.217.334.498.334.846 0 .324-.084.592-.252.801-.168.211-.379.377-.631.496s-.521.201-.811.242c-.287.043-.557.064-.809.064-.373 0-.732-.045-1.08-.137-.35-.09-.652-.227-.91-.414-.258-.186-.465-.428-.621-.729-.156-.299-.232-.666-.232-1.098h-2.736c-.014.793.131 1.477.432 2.053.299.576.705 1.049 1.215 1.422.51.371 1.098.645 1.764.818s1.354.262 2.061.262c.876.002 1.647-.102 2.313-.305zm12.735-9.287h-2.539l-1.961 6.354h-.037l-1.961-6.354h-2.682l3.186 9.305h2.844l3.15-9.305zm-7.578 21.801c-.252-.33-.598-.588-1.035-.775-.438-.186-.998-.277-1.684-.277-.539 0-1.068.123-1.584.367-.516.246-.936.641-1.26 1.18h-.053v-1.295h-2.431v9.305h2.557v-4.877c0-.949.156-1.629.469-2.043.311-.414.816-.621 1.512-.621.611 0 1.037.189 1.277.566.24.379.361.951.361 1.719v5.256h2.555v-5.723c0-.576-.051-1.102-.152-1.576-.103-.474-.28-.876-.532-1.206zm150.759-233.53h-6.258v22.757h6.258v-22.757zm-19.609 17.606c0 1.145.191 2.069.574 2.773.381.704.902 1.248 1.564 1.629.66.382 1.424.638 2.291.771.865.132 1.783.197 2.754.197.617 0 1.248-.015 1.895-.044s1.234-.088 1.762-.176v-4.842c-.293.059-.602.104-.924.132-.324.029-.662.044-1.014.044-1.059 0-1.764-.176-2.115-.528-.354-.352-.529-1.056-.529-2.112v-11.269h4.582v-4.182h-4.582v-6.823h-6.258v6.823h-3.789v4.182h3.789v13.425zm-184.627 197.758c-.288.072-.619.127-.99.162-.372.037-.75.084-1.134.145-.385.061-.766.141-1.144.242-.378.104-.714.256-1.008.459-.294.205-.534.479-.72.82-.187.342-.279.777-.279 1.305 0 .48.081.895.243 1.242s.387.635.675.863.624.396 1.008.504.798.162 1.242.162c.576 0 1.14-.084 1.692-.252.552-.168 1.031-.461 1.439-.883.012.156.033.311.063.459.029.15.068.299.116.441h2.593c-.12-.191-.204-.479-.252-.863-.049-.385-.072-.785-.072-1.207v-4.842c0-.562-.126-1.016-.378-1.359-.252-.342-.576-.607-.973-.801-.396-.191-.834-.32-1.313-.387-.48-.064-.954-.098-1.422-.098-.517 0-1.029.051-1.539.152-.511.102-.97.273-1.377.514-.408.24-.744.557-1.008.953-.265.396-.414.895-.45 1.494h2.556c.048-.504.216-.863.504-1.08s.685-.324 1.188-.324c.228 0 .44.016.639.045.198.031.372.09.522.18.149.09.27.217.359.379.091.162.136.381.136.656.012.264-.066.465-.234.604s-.395.242-.682.315zm.918 2.07c0 .145-.016.336-.045.576-.03.24-.111.477-.243.711-.133.234-.337.436-.612.604-.276.168-.666.252-1.17.252-.204 0-.402-.018-.594-.055-.192-.035-.36-.1-.504-.189-.145-.09-.259-.213-.343-.369-.084-.154-.126-.348-.126-.576 0-.238.042-.438.126-.594.084-.154.195-.285.333-.387s.3-.182.486-.242c.186-.061.375-.107.567-.145l.611-.09.585-.09c.187-.037.36-.082.522-.135.162-.055.297-.129.405-.225v.954zm-1.134 22.529v-4.842c0-.562-.126-1.016-.378-1.359-.252-.342-.576-.607-.973-.801-.396-.191-.834-.32-1.313-.387-.48-.064-.954-.098-1.422-.098-.517 0-1.029.051-1.539.152-.511.102-.97.273-1.377.514-.408.24-.744.557-1.009.953-.264.396-.414.895-.449 1.494h2.556c.048-.504.216-.863.504-1.08s.685-.324 1.188-.324c.228 0 .44.016.639.045.198.031.372.09.521.18.15.09.271.217.36.379s.135.381.135.656c.012.264-.065.465-.233.604-.169.139-.396.242-.685.314s-.618.127-.989.162c-.373.037-.751.084-1.135.145s-.765.141-1.143.242c-.378.104-.714.256-1.008.459-.295.205-.534.479-.721.82-.186.342-.278.777-.278 1.305 0 .48.081.895.243 1.242.161.348.387.635.675.863s.624.396 1.008.504.798.162 1.242.162c.576 0 1.14-.084 1.691-.252s1.032-.461 1.44-.883c.012.156.033.311.062.459.03.15.069.299.117.441h2.592c-.12-.191-.204-.479-.252-.863s-.069-.784-.069-1.206zm-2.557-1.529c0 .145-.015.336-.045.576s-.111.477-.243.711-.336.436-.611.604c-.276.168-.666.252-1.17.252-.204 0-.402-.018-.595-.055-.191-.035-.359-.1-.504-.189-.144-.09-.258-.213-.342-.369-.084-.154-.126-.348-.126-.576 0-.238.042-.438.126-.594.084-.154.195-.285.333-.387s.3-.182.486-.242c.186-.061.375-.107.566-.145l.612-.09.585-.09c.186-.037.36-.082.522-.135.161-.055.297-.129.404-.225v.954zm7.777-8.496h-2.557v2.791h-1.548v1.709h1.548v5.49c0 .469.078.846.234 1.135.156.287.369.51.639.666.271.156.582.26.937.314.354.055.729.08 1.125.08.252 0 .51-.006.773-.018.265-.012.505-.035.721-.072v-1.98l-.378.055-.414.018c-.433 0-.721-.072-.864-.215-.145-.145-.216-.432-.216-.865v-4.607h1.872v-1.709h-1.872v-2.792zm5.165-8.905h2.557v-12.852h-2.557v12.852zm10.963 12.784c-.421-.426-.928-.756-1.521-.99s-1.257-.35-1.989-.35c-.731 0-1.392.115-1.979.35s-1.093.564-1.512.99c-.421.426-.745.943-.973 1.549s-.342 1.281-.342 2.025.114 1.416.342 2.016.552 1.113.973 1.539c.419.426.924.752 1.512.98s1.248.342 1.979.342c.732 0 1.396-.113 1.989-.342s1.101-.555 1.521-.98c.42-.426.743-.939.972-1.539.228-.6.342-1.271.342-2.016s-.114-1.42-.342-2.025c-.229-.606-.553-1.124-.972-1.549zm-1.351 4.662c-.072.354-.195.672-.369.955-.174.281-.408.506-.701.674-.295.168-.657.252-1.09.252-.432 0-.792-.084-1.08-.252-.287-.168-.519-.393-.692-.674-.175-.283-.297-.602-.369-.955s-.108-.717-.108-1.088c0-.373.036-.738.108-1.1.072-.359.194-.678.369-.953.174-.275.405-.502.692-.676.288-.174.648-.26 1.08-.26.433 0 .795.086 1.09.26.293.174.527.4.701.676s.297.594.369.953c.072.361.108.727.108 1.1 0 .371-.036.734-.108 1.088zm184.455-247.151h-6.258v5.15h6.258v-5.15zm10.284 19.5c0-2.317.383-3.983 1.146-4.996s1.998-1.519 3.701-1.519c1.498 0 2.541.462 3.129 1.387.588.924.881 2.326.881 4.203v12.854h6.258v-13.997c0-1.409-.125-2.692-.375-3.852s-.684-2.142-1.299-2.949c-.617-.807-1.463-1.438-2.535-1.894-1.072-.454-2.445-.682-4.119-.682-1.322 0-2.615.301-3.879.902-1.262.602-2.291 1.562-3.084 2.883h-.133v-3.169h-5.947v22.757h6.256v-11.928zm-208.995 210.205h2.556v-12.852h-2.556v12.852zm-131.037 42h2.826v-2.771h-2.826v2.771z"/><path fill-rule="evenodd" clip-rule="evenodd" fill="#C62139" d="M62.996 530.73h587v-3h-587v3z"/></svg>