<svg xmlns="http://www.w3.org/2000/svg" width="750" height="510" viewBox="0 0 750 510"><path fill="#C62139" d="M64.007 400.192h586.667v3.666h-586.667v-3.666z"/><path fill="#fff" d="M397.801 187.995v-13.079c0-1.26-.176-2.337-.525-3.232-.354-.894-.848-1.617-1.477-2.173-.629-.554-1.384-.958-2.265-1.21-.882-.252-1.839-.378-2.869-.378-1.358 0-2.534.328-3.528.982-.994.655-1.781 1.412-2.357 2.269-.527-1.21-1.305-2.054-2.32-2.533-1.021-.478-2.146-.718-3.379-.718-1.282 0-2.422.277-3.416.832-.994.555-1.844 1.336-2.549 2.343h-.074v-2.646h-5.062v19.543h5.361v-11.341c0-.957.137-1.731.414-2.324.276-.592.61-1.046 1-1.361.391-.312.793-.527 1.209-.643.416-.113.748-.17 1-.17.854 0 1.504.146 1.941.435.438.29.757.675.942 1.153.188.478.298 1.002.32 1.568.024.566.038 1.141.038 1.721v10.962h5.357v-10.887c0-.604.047-1.203.135-1.796.088-.593.265-1.121.525-1.588.268-.467.629-.845 1.098-1.135.465-.289 1.072-.435 1.83-.435.756 0 1.354.127 1.793.378.438.253.771.593 1.002 1.021.228.431.361.934.414 1.514.051.58.072 1.196.072 1.852v11.076h5.37zm234.553-15.953v-3.591h-3.926v-5.859h-5.357v5.859h-3.246v3.591h3.246v11.529c0 .981.161 1.775.488 2.381.326.604.772 1.072 1.342 1.398.564.327 1.221.549 1.963.661.741.113 1.525.17 2.357.17.526 0 1.067-.013 1.623-.038.557-.024 1.059-.074 1.51-.149v-4.158c-.252.051-.516.089-.793.113-.273.024-.562.038-.865.038-.906 0-1.514-.151-1.812-.454-.304-.302-.453-.907-.453-1.814v-9.677h3.923zm-14.752 15.953v-12.021c0-1.21-.105-2.312-.318-3.308-.213-.995-.584-1.839-1.112-2.533-.529-.691-1.253-1.233-2.171-1.625-.92-.391-2.096-.586-3.528-.586-1.133 0-2.239.259-3.321.775-1.081.516-1.964 1.342-2.644 2.476h-.113v-2.722h-5.096v19.543h5.358v-10.244c0-1.99.324-3.421.979-4.29.653-.87 1.711-1.305 3.172-1.305 1.283 0 2.177.396 2.682 1.189.504.793.756 1.997.756 3.609v11.038h5.357v.004h-.001zm-60.743-42.483c2.32 2.792 5.027 4.787 8.115 5.983 3.088 1.196 6.354 1.795 9.811 1.795 3.521 0 6.822-.599 9.91-1.795s5.81-3.191 8.166-5.983c2.354-2.792 4.215-6.531 5.576-11.219 1.357-4.687 2.043-10.521 2.043-17.501 0-6.781-.686-12.48-2.043-17.103-1.361-4.62-3.223-8.327-5.576-11.12-2.356-2.791-5.078-4.785-8.166-5.982s-6.395-1.795-9.91-1.795c-3.45 0-6.721.598-9.811 1.795-3.088 1.197-5.795 3.191-8.115 5.982-2.324 2.793-4.166 6.5-5.524 11.12-1.363 4.621-2.044 10.32-2.044 17.103 0 6.98.681 12.814 2.044 17.501 1.358 4.687 3.199 8.427 5.524 11.219zm6.623-33.057c.031-1.695.146-3.44.35-5.236.199-1.795.529-3.571.996-5.334.463-1.762 1.107-3.342 1.938-4.736.83-1.396 1.896-2.526 3.188-3.392 1.293-.863 2.901-1.296 4.828-1.296s3.554.433 4.881 1.296c1.328.864 2.423 1.995 3.287 3.392.857 1.396 1.508 2.976 1.938 4.736.436 1.762.766 3.539.996 5.334.231 1.796.365 3.541.397 5.236.032 1.695.052 3.141.052 4.338 0 1.994-.068 4.404-.199 7.229-.135 2.826-.549 5.552-1.246 8.178-.693 2.627-1.825 4.87-3.385 6.729-1.562 1.862-3.804 2.793-6.724 2.793-2.854 0-5.048-.931-6.571-2.793-1.529-1.859-2.64-4.104-3.336-6.729-.697-2.625-1.113-5.352-1.246-8.178-.134-2.825-.199-5.235-.199-7.229.007-1.198.021-2.643.055-4.338zm-64.321 63.632c-.604.151-1.297.265-2.075.34-.779.076-1.572.177-2.38.304-.805.126-1.604.296-2.396.51-.793.215-1.494.536-2.111.964-.617.429-1.119 1.002-1.511 1.721-.392.718-.587 1.632-.587 2.74 0 1.008.172 1.878.514 2.608.34.729.812 1.336 1.414 1.813.604.479 1.31.831 2.111 1.058.809.229 1.676.342 2.604.342 1.207 0 2.392-.178 3.55-.529 1.155-.353 2.164-.97 3.021-1.853.021.327.066.648.133.964.062.314.146.624.246.927h5.437c-.252-.403-.431-1.008-.529-1.814-.103-.807-.148-1.649-.148-2.532v-10.17c0-1.186-.265-2.137-.793-2.854-.526-.719-1.207-1.279-2.037-1.683-.829-.402-1.75-.675-2.756-.812-1.008-.138-2.002-.208-2.981-.208-1.082 0-2.157.107-3.229.321-1.067.215-2.031.573-2.891 1.077-.854.505-1.562 1.172-2.109 2.004-.557.831-.869 1.877-.944 3.137h5.36c.101-1.058.45-1.813 1.058-2.268.604-.454 1.435-.682 2.491-.682.478 0 .925.032 1.341.096.413.062.778.188 1.094.378.313.188.565.454.757.794.188.34.282.8.282 1.38.022.555-.14.977-.491 1.266-.36.289-.84.51-1.445.661zm1.927 4.347c0 .304-.033.706-.097 1.21-.062.505-.231 1.003-.508 1.493-.277.491-.705.913-1.285 1.267-.578.354-1.396.528-2.453.528-.428 0-.844-.037-1.246-.112-.401-.075-.754-.208-1.057-.396-.305-.188-.541-.447-.721-.774-.176-.327-.265-.73-.265-1.209 0-.505.089-.921.265-1.248.18-.327.41-.599.699-.812.289-.213.629-.384 1.021-.51.391-.126.786-.229 1.188-.303.428-.075.854-.14 1.282-.189.429-.049.836-.113 1.228-.188.393-.076.758-.171 1.098-.283.34-.114.623-.271.851-.474v2zm107.558-34.922c2.32 2.792 5.027 4.787 8.113 5.983 3.088 1.196 6.356 1.795 9.812 1.795 3.521 0 6.818-.599 9.91-1.795 3.086-1.196 5.809-3.191 8.166-5.983 2.354-2.792 4.215-6.531 5.574-11.219 1.358-4.687 2.041-10.521 2.041-17.501 0-6.781-.683-12.48-2.041-17.103-1.359-4.62-3.224-8.327-5.574-11.12-2.357-2.791-5.08-4.785-8.166-5.982-3.092-1.197-6.395-1.795-9.91-1.795-3.453 0-6.725.598-9.812 1.795-3.086 1.197-5.793 3.191-8.113 5.982-2.324 2.793-4.166 6.5-5.527 11.12-1.36 4.621-2.041 10.32-2.041 17.103 0 6.98.681 12.814 2.041 17.501 1.361 4.687 3.201 8.427 5.527 11.219zm6.622-33.057c.033-1.695.15-3.44.352-5.236.199-1.795.531-3.571.996-5.334.465-1.762 1.109-3.342 1.939-4.736.83-1.396 1.895-2.526 3.188-3.392 1.295-.863 2.903-1.296 4.83-1.296 1.926 0 3.551.433 4.881 1.296 1.326.864 2.422 1.995 3.285 3.392.859 1.396 1.51 2.976 1.939 4.736.434 1.762.765 3.539.996 5.334.231 1.796.362 3.541.397 5.236.031 1.695.049 3.141.049 4.338 0 1.994-.065 4.404-.198 7.229-.134 2.826-.548 5.552-1.244 8.178-.694 2.627-1.826 4.87-3.388 6.729-1.562 1.862-3.801 2.793-6.722 2.793-2.854 0-5.048-.931-6.573-2.793-1.526-1.859-2.641-4.104-3.336-6.729-.696-2.625-1.11-5.352-1.244-8.178-.135-2.825-.198-5.235-.198-7.229.002-1.198.016-2.643.051-4.338zm-134.791 39.54h7.174c.062 1.062-.066 2.108-.398 3.141-.334 1.03-.831 1.96-1.493 2.792-.664.831-1.441 1.546-2.341 2.146-.897.599-1.844.997-2.838 1.195v7.182c2.123-.334 4.134-.947 6.021-1.847 1.895-.896 3.535-2.044 4.932-3.438 1.396-1.396 2.506-3.042 3.336-4.938.83-1.895 1.246-3.974 1.246-6.231v-15.357h-15.639v15.355zm-340.213-14.462h13c3.314 0 6-2.688 6-6v-6.484l.002-.02-.002-.021v-6.477c0-3.313-2.686-6-6-6h-5v-17h6v-4h-6v-3h6v-4h-6v-5h-3v33h-5c-3.312 0-6 2.687-6 6v6.477l-.001.021.001.02v6.484c0 3.313 2.687 6 6 6zm-3-18c0-2.209 1.791-4 4-4h11c2.208 0 4 1.791 4 4v11c0 2.209-1.791 4-4 4h-11c-2.209 0-4-1.791-4-4v-11zm210.481 68.462h5.358v-26.989h-5.358v26.989zm95.084 0v-26.989h-5.358v9.828h-.076c-.604-.958-1.428-1.683-2.473-2.174-1.045-.491-2.146-.737-3.304-.737-1.438 0-2.692.283-3.774.852-1.082.567-1.979 1.316-2.698 2.249-.718.933-1.259 2.01-1.62 3.23-.365 1.223-.551 2.489-.551 3.8 0 1.36.186 2.671.551 3.932.361 1.261.902 2.376 1.62 3.346.72.97 1.632 1.738 2.735 2.306 1.106.568 2.395.852 3.854.852 1.281 0 2.436-.233 3.451-.699 1.021-.467 1.848-1.229 2.477-2.287h.076v2.495h5.094l-.004-.004zm-5.397-7.485c-.146.756-.398 1.431-.754 2.021-.354.593-.824 1.063-1.416 1.418-.592.354-1.328.528-2.209.528-.83 0-1.541-.183-2.133-.548-.593-.364-1.082-.845-1.472-1.437-.395-.592-.674-1.268-.854-2.022-.176-.756-.265-1.512-.265-2.269 0-.807.082-1.581.246-2.324.162-.743.429-1.404.791-1.984.365-.579.851-1.046 1.455-1.397.604-.354 1.347-.529 2.228-.529s1.608.177 2.188.529c.578.352 1.051.812 1.416 1.379.361.567.623 1.223.771 1.966.151.744.229 1.52.229 2.325.003.805-.07 1.587-.221 2.344zm-175.542 3.874c-.34.189-.717.328-1.133.416-.414.089-.812.132-1.188.132-.526 0-1.037-.062-1.528-.188-.49-.126-.925-.321-1.302-.586-.379-.266-.688-.605-.926-1.021-.24-.416-.358-.913-.358-1.493h-5.097c.052 1.312.347 2.4.888 3.271s1.233 1.568 2.075 2.098c.845.53 1.808.907 2.89 1.134 1.082.229 2.188.342 3.321.342 1.105 0 2.195-.107 3.267-.321 1.067-.214 2.02-.586 2.85-1.115.832-.529 1.504-1.229 2.021-2.098.516-.87.774-1.947.774-3.232 0-.906-.178-1.669-.528-2.287-.354-.616-.818-1.134-1.396-1.55-.578-.415-1.238-.749-1.979-1.001-.742-.252-1.504-.466-2.285-.643-.754-.178-1.496-.341-2.228-.492-.729-.15-1.377-.321-1.942-.51-.566-.189-1.025-.437-1.379-.737-.353-.302-.527-.692-.527-1.172 0-.402.1-.724.303-.964.199-.239.445-.422.734-.548.289-.126.608-.208.963-.246.354-.037.68-.058.982-.058.954 0 1.784.185 2.489.549.705.365 1.097 1.064 1.17 2.099h5.099c-.103-1.21-.41-2.212-.926-3.005-.519-.794-1.164-1.432-1.943-1.909-.781-.479-1.668-.818-2.662-1.021-.994-.201-2.02-.303-3.076-.303s-2.09.095-3.096.283c-1.006.188-1.912.518-2.719.983-.806.467-1.453 1.103-1.943 1.907-.49.809-.734 1.84-.734 3.101 0 .856.177 1.582.527 2.174.354.593.816 1.084 1.396 1.475.577.392 1.237.705 1.979.944.742.24 1.504.448 2.283.624 1.912.403 3.404.807 4.475 1.21 1.068.403 1.604 1.008 1.604 1.813 0 .479-.113.877-.34 1.19-.232.315-.515.566-.855.755zm74.244-8.297c-.604.151-1.297.265-2.076.34-.778.076-1.571.177-2.379.304-.806.126-1.604.296-2.396.51-.791.215-1.496.536-2.112.964-.617.429-1.119 1.002-1.511 1.721-.392.718-.586 1.632-.586 2.74 0 1.008.17 1.878.511 2.608.34.729.812 1.336 1.415 1.813.605.479 1.31.831 2.113 1.058.808.229 1.674.342 2.604.342 1.207 0 2.392-.178 3.547-.529 1.158-.353 2.164-.97 3.021-1.853.024.327.067.648.134.964.062.314.146.624.243.927h5.437c-.25-.403-.428-1.008-.526-1.814-.101-.806-.149-1.649-.149-2.532v-10.17c0-1.186-.265-2.137-.793-2.854-.526-.719-1.207-1.279-2.039-1.683-.83-.402-1.748-.675-2.754-.812-1.009-.139-2.003-.208-2.981-.208-1.082 0-2.158.107-3.229.321-1.069.215-2.032.573-2.887 1.077-.856.505-1.562 1.172-2.115 2.004-.553.831-.866 1.877-.942 3.137h5.36c.102-1.058.453-1.813 1.059-2.268.604-.455 1.436-.682 2.489-.682.479 0 .926.032 1.342.096.414.062.779.188 1.095.378.313.188.565.454.756.794.188.34.283.8.283 1.38.022.555-.14.977-.49 1.266-.362.289-.84.51-1.444.661zm1.926 4.347c0 .304-.03.706-.096 1.21-.062.505-.231 1.003-.511 1.493-.276.491-.705.913-1.282 1.267-.578.354-1.396.528-2.453.528-.429 0-.845-.037-1.246-.112-.401-.075-.754-.208-1.058-.396-.303-.188-.541-.447-.717-.774-.179-.327-.267-.73-.267-1.209 0-.505.088-.921.267-1.248.176-.327.407-.599.696-.812.289-.213.629-.384 1.021-.51s.787-.229 1.188-.303c.429-.075.854-.14 1.283-.189.428-.05.836-.113 1.228-.188.391-.076.756-.171 1.096-.283.341-.114.623-.271.851-.474v2zm29.842-34.922c2.354-2.792 4.217-6.531 5.578-11.219 1.356-4.687 2.042-10.521 2.042-17.501 0-6.781-.685-12.48-2.042-17.103-1.361-4.62-3.224-8.327-5.578-11.12-2.356-2.791-5.078-4.785-8.166-5.982s-6.392-1.795-9.908-1.795c-3.453 0-6.723.598-9.812 1.795-3.088 1.197-5.793 3.191-8.114 5.982-2.324 2.793-4.168 6.5-5.527 11.12-1.36 4.621-2.04 10.32-2.04 17.103 0 6.98.68 12.814 2.04 17.501 1.359 4.688 3.203 8.427 5.527 11.219 2.321 2.792 5.026 4.787 8.114 5.983 3.089 1.196 6.354 1.795 9.812 1.795 3.519 0 6.82-.599 9.908-1.795 3.087-1.196 5.808-3.191 8.166-5.983zm-18.075-3.789c-2.854 0-5.047-.931-6.571-2.793-1.529-1.859-2.642-4.104-3.338-6.729-.697-2.625-1.111-5.352-1.244-8.179-.136-2.824-.199-5.234-.199-7.229 0-1.197.019-2.643.052-4.338.03-1.695.147-3.44.35-5.236.197-1.795.529-3.572.994-5.334.465-1.762 1.11-3.342 1.94-4.736.83-1.396 1.894-2.526 3.188-3.392 1.296-.863 2.904-1.296 4.83-1.296 1.927 0 3.552.433 4.881 1.296 1.326.864 2.423 1.995 3.285 3.392.863 1.396 1.511 2.976 1.942 4.736.431 1.762.763 3.539.994 5.334.231 1.796.363 3.541.397 5.236.033 1.695.05 3.141.05 4.338 0 1.994-.064 4.404-.197 7.229-.135 2.827-.549 5.553-1.246 8.179-.694 2.627-1.825 4.87-3.387 6.729-1.56 1.862-3.801 2.793-6.721 2.793zm70.321 33.457c-.354-1.386-.928-2.621-1.721-3.704-.793-1.084-1.808-1.946-3.039-2.59-1.23-.643-2.68-.964-4.342-.964-1.484 0-2.839.266-4.06.794-1.223.529-2.271 1.254-3.149 2.174-.884.92-1.562 2.011-2.039 3.271-.479 1.26-.718 2.621-.718 4.082 0 1.512.232 2.897.697 4.158.467 1.261 1.127 2.344 1.979 3.251.854.906 1.899 1.605 3.135 2.098 1.232.491 2.617.737 4.152.737 2.213 0 4.104-.504 5.662-1.513 1.559-1.008 2.717-2.685 3.473-5.027h-4.719c-.177.604-.654 1.179-1.437 1.721s-1.711.812-2.793.812c-1.512 0-2.668-.391-3.475-1.172-.808-.78-1.246-2.041-1.318-3.779h14.076c.112-1.514-.013-2.963-.364-4.349zm-13.703.945c.021-.378.104-.806.243-1.285.14-.478.38-.932.718-1.359.34-.429.793-.787 1.357-1.077.565-.289 1.276-.436 2.135-.436 1.309 0 2.281.354 2.926 1.06.644.705 1.088 1.737 1.34 3.099l-8.719-.002zm131.432-2.06c.364-.617.836-1.121 1.416-1.513.577-.391 1.295-.586 2.149-.586 2.291 0 3.609 1.121 3.965 3.364h5.246c-.074-1.26-.377-2.35-.906-3.271-.526-.92-1.213-1.688-2.058-2.307-.845-.617-1.802-1.077-2.868-1.379-1.069-.303-2.186-.454-3.341-.454-1.586 0-2.995.265-4.229.794-1.233.529-2.278 1.268-3.135 2.211-.854.945-1.504 2.066-1.942 3.364-.438 1.299-.66 2.703-.66 4.215 0 1.462.237 2.804.718 4.025.479 1.223 1.146 2.273 2.003 3.155.854.884 1.894 1.569 3.111 2.062 1.221.493 2.562.737 4.021.737 2.592 0 4.719-.682 6.379-2.041 1.66-1.361 2.668-3.339 3.021-5.936h-5.172c-.177 1.209-.607 2.173-1.302 2.893-.692.718-1.68 1.076-2.965 1.076-.83 0-1.535-.188-2.112-.566-.58-.378-1.037-.862-1.377-1.455-.341-.592-.587-1.253-.736-1.984-.148-.729-.228-1.448-.228-2.153 0-.731.074-1.469.228-2.212.151-.741.409-1.421.774-2.039zm-154.188-85.494c-2.326 2.791-4.172 6.498-5.527 11.119-1.36 4.622-2.043 10.32-2.043 17.103 0 6.98.683 12.814 2.043 17.501 1.357 4.688 3.201 8.427 5.527 11.219 2.318 2.792 5.025 4.787 8.113 5.983 3.086 1.196 6.354 1.795 9.812 1.795 3.519 0 6.818-.599 9.908-1.795 3.088-1.196 5.809-3.191 8.166-5.983 2.354-2.792 4.215-6.531 5.574-11.219 1.358-4.687 2.041-10.521 2.041-17.501 0-6.781-.683-12.48-2.041-17.103-1.359-4.621-3.222-8.328-5.574-11.119-2.357-2.793-5.078-4.786-8.166-5.983-3.09-1.196-6.395-1.795-9.908-1.795-3.453 0-6.727.599-9.812 1.795-3.085 1.197-5.792 3.19-8.113 5.983zm6.622 23.884c.031-1.695.148-3.44.352-5.236.199-1.795.529-3.571.996-5.334.463-1.762 1.107-3.342 1.938-4.736.83-1.396 1.896-2.526 3.188-3.392 1.293-.863 2.9-1.296 4.83-1.296 1.924 0 3.551.433 4.879 1.296 1.328.864 2.422 1.995 3.287 3.392.857 1.396 1.508 2.976 1.938 4.736.436 1.762.766 3.539.996 5.334.231 1.796.364 3.541.397 5.236.029 1.695.051 3.141.051 4.338 0 1.994-.067 4.404-.198 7.229-.136 2.826-.55 5.552-1.246 8.178-.694 2.627-1.826 4.87-3.386 6.729-1.562 1.862-3.803 2.793-6.723 2.793-2.854 0-5.049-.931-6.572-2.793-1.528-1.859-2.639-4.104-3.336-6.729-.696-2.625-1.112-5.352-1.246-8.178-.133-2.825-.198-5.235-.198-7.229.002-1.198.017-2.643.053-4.338zm-105.179 56.205c-1.246-.491-2.637-.737-4.172-.737s-2.92.246-4.152.737c-1.231.491-2.289 1.185-3.17 2.079-.881.894-1.561 1.979-2.039 3.251-.479 1.271-.717 2.688-.717 4.252 0 1.562.238 2.974.717 4.232.479 1.262 1.158 2.339 2.039 3.232.881.893 1.938 1.581 3.17 2.06s2.617.72 4.152.72 2.926-.24 4.172-.72c1.246-.479 2.309-1.165 3.188-2.06.881-.895 1.562-1.972 2.039-3.232.478-1.26.718-2.671.718-4.232 0-1.562-.24-2.979-.718-4.252-.479-1.272-1.157-2.356-2.039-3.251-.879-.895-1.942-1.588-3.188-2.079zm.359 11.869c-.151.743-.409 1.411-.774 2.003-.365.593-.854 1.064-1.471 1.418-.617.354-1.38.528-2.285.528-.906 0-1.66-.176-2.265-.528-.604-.354-1.09-.825-1.455-1.418-.362-.592-.62-1.261-.772-2.003-.148-.743-.228-1.506-.228-2.287 0-.78.076-1.55.228-2.307.152-.756.41-1.424.772-2.003.365-.579.851-1.053 1.455-1.418.604-.364 1.357-.548 2.265-.548s1.668.184 2.285.548c.614.365 1.104.839 1.471 1.418.366.579.623 1.247.774 2.003.148.757.228 1.525.228 2.307s-.077 1.544-.228 2.287zm219.582-35.017c2.323 2.792 5.027 4.787 8.116 5.983 3.089 1.196 6.354 1.795 9.81 1.795 3.521 0 6.822-.599 9.91-1.795 3.086-1.196 5.81-3.191 8.166-5.983 2.354-2.792 4.215-6.531 5.576-11.219 1.357-4.687 2.041-10.521 2.041-17.501 0-6.781-.684-12.48-2.041-17.103-1.361-4.62-3.225-8.327-5.576-11.12-2.356-2.791-5.08-4.785-8.166-5.982-3.088-1.197-6.395-1.795-9.91-1.795-3.452 0-6.721.598-9.81 1.795-3.089 1.197-5.793 3.191-8.116 5.982-2.324 2.793-4.166 6.5-5.526 11.12-1.361 4.621-2.041 10.32-2.041 17.103 0 6.98.68 12.814 2.041 17.501 1.36 4.687 3.202 8.427 5.526 11.219zm6.624-33.057c.029-1.695.146-3.44.349-5.236.198-1.795.53-3.571.995-5.334.466-1.762 1.111-3.342 1.943-4.736.826-1.396 1.891-2.526 3.186-3.392 1.296-.863 2.904-1.296 4.83-1.296 1.927 0 3.552.433 4.882 1.296 1.325.864 2.422 1.995 3.284 3.392.863 1.396 1.511 2.976 1.943 4.736.43 1.762.762 3.539.994 5.334.229 1.796.362 3.541.396 5.236.033 1.695.052 3.141.052 4.338 0 1.994-.064 4.404-.198 7.229-.136 2.826-.55 5.552-1.243 8.178-.697 2.627-1.828 4.87-3.389 6.729-1.562 1.862-3.804 2.793-6.724 2.793-2.854 0-5.047-.931-6.572-2.793-1.525-1.859-2.641-4.104-3.338-6.729-.696-2.625-1.109-5.352-1.243-8.178-.134-2.825-.196-5.235-.196-7.229-.001-1.198.013-2.643.049-4.338zm-252.574-23.868c-2.125 2.561-3.72 5.551-4.779 8.976-1.062 3.425-1.527 7.13-1.396 11.118h13.543c0-1.859.185-3.739.55-5.635.362-1.895.979-3.623 1.842-5.186.861-1.562 2.008-2.824 3.438-3.789 1.427-.963 3.17-1.446 5.229-1.446 3.053 0 5.561.948 7.52 2.843 1.957 1.896 2.938 4.537 2.938 7.928 0 2.13-.482 4.023-1.443 5.685-.965 1.663-2.158 3.159-3.586 4.488-1.428 1.33-3.004 2.543-4.729 3.64-1.729 1.097-3.355 2.178-4.882 3.241-2.987 2.061-5.825 4.088-8.516 6.083-2.688 1.994-5.027 4.173-7.02 6.53-1.992 2.36-3.57 5.036-4.73 8.028-1.162 2.991-1.834 6.387-1.834 10.441h51v-12h-33c1.728-2.396 4.033-4.525 6.291-6.32 2.256-1.795 4.58-3.473 6.973-5.035 2.39-1.562 4.763-3.142 7.119-4.736 2.355-1.597 4.465-3.373 6.324-5.335 1.857-1.961 3.352-4.204 4.479-6.731 1.129-2.526 1.691-5.55 1.691-9.075 0-3.391-.646-6.446-1.939-9.174-1.295-2.726-3.038-5.021-5.229-6.881-2.188-1.86-4.729-3.291-7.619-4.288-2.887-.997-5.924-1.496-9.108-1.496-4.187 0-7.886.716-11.105 2.145-3.226 1.429-5.897 3.422-8.022 5.981zm308.325 80.073c-1.246-.491-2.641-.737-4.172-.737-1.535 0-2.92.246-4.152.737-1.231.491-2.288 1.185-3.17 2.079-.883.895-1.562 1.979-2.039 3.251-.479 1.271-.717 2.688-.717 4.252 0 1.562.237 2.974.717 4.232.479 1.262 1.156 2.339 2.039 3.232.882.895 1.938 1.581 3.17 2.06s2.617.72 4.152.72c1.531 0 2.926-.24 4.172-.72 1.246-.479 2.31-1.165 3.188-2.06s1.562-1.972 2.037-3.232c.479-1.26.717-2.671.717-4.232 0-1.562-.236-2.979-.717-4.252-.479-1.273-1.158-2.356-2.037-3.251s-1.941-1.588-3.188-2.079zm.359 11.869c-.146.743-.406 1.411-.771 2.003-.365.593-.854 1.064-1.477 1.418-.613.354-1.377.528-2.279.528-.906 0-1.662-.176-2.27-.528-.604-.354-1.088-.825-1.453-1.418-.361-.592-.623-1.261-.771-2.003-.151-.743-.229-1.506-.229-2.287 0-.78.076-1.55.229-2.307.146-.756.408-1.424.771-2.003.365-.579.854-1.053 1.453-1.418.604-.364 1.358-.548 2.27-.548.904 0 1.666.184 2.279.548.617.365 1.106.839 1.477 1.418.363.579.623 1.247.771 2.003.151.757.229 1.525.229 2.307-.004.781-.078 1.544-.229 2.287zm-251.577-15.102h5.358v-4.422h-1.445c.595-.857 1.113-1.781 1.552-2.778.83-1.895 1.657-4.855 1.657-7.114l-.09-14.579h-16v15h7c.065 1.062.146 2.57-.188 3.603-.332 1.03-.83 1.96-1.494 2.792-.664.831-1.442 1.546-2.34 2.146-.896.599-1.979 1.262-2.979 1.461v6.906l-.19-.062c-1.068-.303-2.184-.454-3.342-.454-1.584 0-2.994.266-4.228.794-1.233.529-2.278 1.268-3.133 2.211-.856.945-1.506 2.066-1.944 3.364-.439 1.299-.66 2.703-.66 4.215 0 1.462.238 2.804.717 4.025.479 1.223 1.146 2.273 2.002 3.156.854.883 1.893 1.568 3.113 2.061 1.221.491 2.562.737 4.021.737 2.592 0 4.719-.682 6.379-2.041 1.662-1.361 2.668-3.339 3.021-5.936h-5.17c-.179 1.209-.608 2.173-1.304 2.893-.692.718-1.68 1.077-2.963 1.077-.832 0-1.535-.189-2.114-.567-.578-.378-1.037-.862-1.378-1.455-.34-.592-.586-1.253-.735-1.984-.15-.729-.228-1.448-.228-2.153 0-.731.076-1.469.228-2.212.15-.743.408-1.424.772-2.041.365-.617.836-1.121 1.416-1.513.578-.391 1.295-.586 2.15-.586 2.289 0 3.611 1.121 3.965 3.364h5.248c-.076-1.26-.379-2.35-.906-3.27-.528-.921-1.215-1.688-2.059-2.308-.744-.544-1.58-.959-2.5-1.258 2.064-.344 4.146-1.021 5.985-1.895 1.008-.478 1.938-1.029 2.803-1.647v.47h.003zm-12.041 73.215c-2.467-1.614-4.947-2.793-7.445-3.529-2.5-.737-4.454-1.246-5.86-1.528-4.719-1.193-8.539-2.177-11.459-2.95-2.922-.771-5.211-1.545-6.865-2.317s-2.764-1.615-3.326-2.529c-.563-.912-.846-2.107-.846-3.583 0-1.615.354-2.951 1.057-4.005.703-1.055 1.603-1.932 2.693-2.634s2.307-1.194 3.645-1.477c1.336-.28 2.675-.422 4.015-.422 2.041 0 3.924.177 5.647.527 1.726.353 3.256.947 4.597 1.791 1.336.844 2.409 2.003 3.221 3.478.809 1.477 1.283 3.338 1.426 5.586h16.053c0-4.354-.828-8.062-2.479-11.118-1.655-3.056-3.894-5.566-6.707-7.535-2.816-1.966-6.037-3.389-9.664-4.268-3.627-.878-7.41-1.317-11.352-1.317-3.382 0-6.763.458-10.142 1.37-3.379.914-6.406 2.318-9.082 4.215-2.678 1.897-4.842 4.27-6.494 7.113-1.653 2.846-2.481 6.201-2.481 10.064 0 3.441.649 6.375 1.955 8.799 1.301 2.424 3.01 4.444 5.121 6.06 2.11 1.617 4.506 2.936 7.182 3.952 2.676 1.021 5.42 1.88 8.238 2.582 2.746.773 5.455 1.476 8.131 2.107 2.676.631 5.07 1.37 7.182 2.213 2.113.843 3.818 1.896 5.123 3.161 1.303 1.265 1.953 2.916 1.953 4.953 0 1.896-.494 3.461-1.479 4.688-.986 1.229-2.22 2.196-3.697 2.897-1.479.703-3.062 1.178-4.752 1.423-1.689.247-3.273.368-4.752.368-2.185 0-4.295-.267-6.336-.789-2.043-.527-3.82-1.334-5.334-2.426-1.517-1.088-2.73-2.513-3.646-4.271-.916-1.755-1.373-3.898-1.373-6.428h-16.057c-.07 4.637.772 8.642 2.535 12.014 1.758 3.372 4.135 6.146 7.129 8.325 2.99 2.178 6.44 3.562 10.35 4.581 3.908 1.018 7.938 1.524 12.092 1.524 5.14 0 9.664-.598 13.57-1.791 3.908-1.19 7.184-2.646 9.822-4.793 2.642-2.142 4.629-4.688 5.967-7.64 1.337-2.951 2.007-6.146 2.007-9.59 0-4.216-.896-7.675-2.691-10.381-1.8-2.693-3.929-4.853-6.392-6.47zm12.041-50.647h5.358v-19.543h-5.358v19.543zm-1.821 28.517h22.601v61.118h16.582v-61.118h22.604v-13.91h-61.786l-.001 13.91zm-118.145-131.979h-.023l.023-.5c0-3.591-2.908-6.5-6.5-6.5-3.59 0-6.5 2.909-6.5 6.5l.025.5h-.025v147.627c-10.881 2.498-19 12.233-19 23.873 0 13.531 10.971 24.5 24.5 24.5 13.531 0 24.5-10.969 24.5-24.5 0-11.051-7.316-20.391-17.369-23.443l.369-.057v-92h3v-25h21v-6h-9v-4h4v-6h-4v-3h9v-6h-24v-6zm5 171.5c0 6.902-5.596 12.5-12.5 12.5-6.902 0-12.5-5.598-12.5-12.5 0-6.903 5.598-12.5 12.5-12.5 6.904 0 12.5 5.596 12.5 12.5zm239.908-43.737c-3.168-3.583-7.041-6.392-11.617-8.43-4.574-2.037-9.787-3.058-15.629-3.058-5.771 0-10.968 1.021-15.578 3.058-4.609 2.038-8.502 4.847-11.67 8.43s-5.599 7.782-7.287 12.594c-1.688 4.812-2.531 10.029-2.531 15.648 0 5.479.844 10.591 2.531 15.333 1.688 4.742 4.119 8.87 7.287 12.383 3.168 3.514 7.061 6.057 11.67 8.059 4.61 2.004 9.807 3.006 15.578 3.006 5.842 0 11.055-1.002 15.629-3.006 4.576-2.002 8.449-4.545 11.617-8.059 3.17-3.513 5.602-7.641 7.286-12.383 1.691-4.742 2.535-9.854 2.535-15.333 0-5.619-.844-10.836-2.535-15.648-1.687-4.811-4.116-9.011-7.286-12.594zm-7.867 37.464c-.736 2.986-1.92 5.674-3.537 8.062-1.617 2.389-3.73 4.304-6.338 5.742-2.604 1.438-5.771 2.16-9.504 2.16-3.731 0-6.898-.723-9.506-2.16-2.604-1.438-4.718-3.354-6.337-5.742-1.62-2.389-2.799-5.075-3.538-8.062-.738-2.984-1.105-6.06-1.105-9.222 0-3.301.367-6.497 1.105-9.589.739-3.091 1.918-5.85 3.538-8.272 1.619-2.424 3.729-4.354 6.337-5.797 2.604-1.438 5.772-2.16 9.506-2.16 3.729 0 6.897.723 9.504 2.16 2.604 1.441 4.721 3.373 6.338 5.797 1.617 2.424 2.801 5.183 3.537 8.272.74 3.092 1.108 6.288 1.108 9.589 0 3.163-.368 6.237-1.108 9.222zm-299.041-2.227h-2v-23h4v-4h-4v-4h9v-4h-9l.485-2.99-3.485-.01v38h-1c-5.521 0-10 4.478-10 10v2.477l-.001.021.001.02v10.484c0 5.521 4.479 10 10 10h6c5.522 0 10-4.479 10-10v-13c0-5.525-4.477-10.002-10-10.002zm1 22h-.142c-.446 1.723-1.997 3-3.858 3-1.86 0-3.412-1.277-3.857-3h-.143v-11h.143c.445-1.725 1.997-3 3.857-3 1.861 0 3.412 1.275 3.858 3h.142v11zm-22-123v-40.863c5.755-1.512 10-6.679 10-12.838 0-7.345-6.025-13.299-13.462-13.299-7.435 0-13.461 5.954-13.461 13.299 0 6.133 4.208 11.281 9.923 12.818v15.883h-2v9.027l-8-.027v3l10-.064v.006l-8 .06v2h-2v3h2v2h-5v3h13v3h.044c-.022.166-.051.331-.051.504 0 1.931 1.569 3.496 3.506 3.496 1.938 0 3.506-1.565 3.506-3.496 0-.173-.024-.338-.051-.504l.046-.002zm-3.462-47.053c-3.717 0-6.729-2.978-6.729-6.648 0-3.673 3.015-6.649 6.729-6.649 3.718 0 6.729 2.978 6.729 6.649.001 3.671-3.011 6.648-6.729 6.648zm32.462 64.053c-12.702 0-23 13-23 13s10.298 13 23 13c12.703 0 23-13 23-13s-10.297-13-23-13zm0 22c-4.971 0-9-4.029-9-9 0-4.972 4.029-9 9-9 4.972 0 9 4.028 9 9 0 4.971-4.029 9-9 9zm0-14c-2.761 0-5 2.238-5 5s2.239 5 5 5c2.763 0 5-2.238 5-5s-2.238-5-5-5zm447.59 13.74h.112v2.722h5.097v-19.543h-5.358v10.244c0 1.989-.328 3.421-.981 4.29-.65.869-1.711 1.304-3.17 1.304-1.283 0-2.179-.396-2.681-1.19-.504-.794-.756-1.997-.756-3.608v-11.038h-5.36v12.021c0 1.209.106 2.312.321 3.309.213.995.584 1.84 1.11 2.532.528.692 1.255 1.229 2.173 1.605.918.378 2.096.567 3.527.567 1.134 0 2.238-.252 3.322-.757 1.081-.505 1.964-1.324 2.644-2.458zm-52.629 60.219h36.541v-12.856h-36.541v-16.123h39.813v-13.909h-56.396v75.027h57.24v-13.695h-40.66v-18.44l.003-.004zm-8.159-64.982h-5.173c-.179 1.209-.608 2.173-1.304 2.893-.689.718-1.681 1.076-2.964 1.076-.829 0-1.534-.188-2.114-.566-.577-.378-1.036-.862-1.377-1.455-.341-.592-.586-1.253-.732-1.984-.152-.729-.229-1.448-.229-2.153 0-.731.075-1.469.229-2.212.146-.743.404-1.424.771-2.041.364-.617.838-1.121 1.416-1.513.577-.391 1.297-.586 2.151-.586 2.289 0 3.61 1.121 3.963 3.364h5.248c-.076-1.26-.379-2.35-.906-3.27-.528-.92-1.215-1.688-2.059-2.308-.843-.617-1.8-1.077-2.867-1.379-1.069-.303-2.186-.454-3.342-.454-1.586 0-2.994.266-4.229.794-1.232.529-2.276 1.268-3.134 2.211-.854.945-1.504 2.066-1.944 3.364-.438 1.299-.657 2.703-.657 4.215 0 1.462.235 2.805.718 4.025.478 1.223 1.146 2.273 2 3.156.854.883 1.896 1.568 3.114 2.061 1.22.492 2.562.737 4.021.737 2.593 0 4.72-.682 6.379-2.041 1.661-1.361 2.67-3.338 3.021-5.934zm122.823-1.078c-.354-.616-.816-1.134-1.396-1.55-.58-.415-1.24-.749-1.981-1.001-.742-.252-1.504-.466-2.283-.643-.756-.178-1.494-.341-2.228-.492-.729-.15-1.379-.321-1.944-.51-.562-.189-1.021-.436-1.377-.737-.354-.301-.525-.692-.525-1.172 0-.402.1-.725.301-.964.201-.239.447-.422.736-.548s.607-.208.963-.246c.353-.037.68-.058.979-.058.957 0 1.786.185 2.491.549.703.365 1.095 1.064 1.17 2.099h5.097c-.103-1.21-.406-2.212-.924-3.005-.519-.794-1.166-1.432-1.941-1.909-.781-.479-1.668-.818-2.662-1.021-.994-.202-2.021-.303-3.076-.303s-2.09.095-3.096.283c-1.01.188-1.912.518-2.721.982-.806.468-1.453 1.104-1.941 1.908-.49.809-.736 1.84-.736 3.101 0 .856.177 1.582.529 2.174.353.593.814 1.084 1.396 1.475.58.392 1.239.705 1.981.944.742.24 1.504.448 2.283.624 1.914.403 3.4.807 4.475 1.21 1.068.403 1.604 1.008 1.604 1.813 0 .479-.112.876-.341 1.19-.228.315-.511.566-.851.756s-.717.328-1.133.416c-.416.089-.812.132-1.188.132-.526 0-1.037-.062-1.526-.188s-.927-.321-1.304-.586c-.379-.266-.688-.605-.927-1.021s-.355-.913-.355-1.493h-5.099c.051 1.312.349 2.4.889 3.271.541.871 1.231 1.567 2.076 2.098.845.529 1.807.907 2.891 1.134 1.079.229 2.188.342 3.318.342 1.106 0 2.194-.107 3.268-.321 1.066-.214 2.02-.586 2.85-1.115.832-.529 1.504-1.229 2.021-2.098.517-.87.771-1.947.771-3.232-.008-.908-.183-1.67-.534-2.288zm-204.793 8.563h5.36v-19.543h-5.36v19.543zm186.582 65.085h-.213l-31.472-50.479h-16.473v75.028h15.522v-50.158h.212l31.364 50.158 16.646-.098v-75l-15.588.068v50.479h.002v.002zm-157.918-50.478h-16.58v75.028h53.332v-13.696h-36.752v-61.332zm-4.285-57.09c2.354-2.792 4.217-6.531 5.576-11.219 1.358-4.687 2.041-10.521 2.041-17.501 0-6.781-.683-12.48-2.041-17.103-1.359-4.62-3.222-8.327-5.576-11.12-2.355-2.791-5.076-4.785-8.166-5.982-3.088-1.197-6.394-1.795-9.906-1.795-3.453 0-6.727.598-9.812 1.795-3.089 1.197-5.793 3.191-8.117 5.982-2.322 2.793-4.166 6.5-5.523 11.12-1.361 4.621-2.041 10.32-2.041 17.103 0 6.98.68 12.814 2.041 17.501 1.357 4.688 3.201 8.427 5.523 11.219 2.324 2.792 5.028 4.787 8.117 5.983 3.086 1.196 6.354 1.795 9.812 1.795 3.518 0 6.818-.599 9.906-1.795 3.086-1.196 5.807-3.191 8.166-5.983zm-18.077-3.789c-2.855 0-5.049-.931-6.572-2.793-1.526-1.859-2.642-4.104-3.336-6.729-.697-2.626-1.113-5.352-1.246-8.179-.133-2.824-.198-5.234-.198-7.229 0-1.197.018-2.643.051-4.338.033-1.695.147-3.44.352-5.236.196-1.795.527-3.572.996-5.334.463-1.762 1.107-3.342 1.939-4.736.828-1.396 1.895-2.526 3.188-3.392 1.295-.863 2.9-1.296 4.83-1.296 1.924 0 3.551.433 4.879 1.296 1.328.864 2.424 1.995 3.287 3.392.859 1.396 1.51 2.976 1.939 4.736.434 1.762.764 3.539.993 5.334.232 1.796.365 3.541.398 5.236.031 1.695.051 3.141.051 4.338 0 1.994-.065 4.404-.199 7.229-.135 2.827-.549 5.553-1.243 8.179-.696 2.627-1.828 4.87-3.388 6.729-1.558 1.862-3.799 2.793-6.721 2.793zm9.185 46.763c1.207 0 2.392-.178 3.55-.529 1.155-.354 2.164-.97 3.021-1.854.021.328.064.649.131.965.062.314.146.624.246.927h5.437c-.252-.403-.429-1.008-.527-1.814-.102-.806-.15-1.649-.15-2.532v-10.169c0-1.186-.264-2.137-.791-2.854-.528-.719-1.209-1.279-2.039-1.683-.829-.402-1.75-.675-2.756-.812-1.006-.139-2-.208-2.981-.208-1.082 0-2.156.107-3.228.321-1.069.215-2.032.573-2.889 1.077-.855.505-1.562 1.172-2.113 2.004-.555.831-.869 1.877-.942 3.137h5.358c.101-1.058.453-1.813 1.058-2.268.604-.454 1.438-.682 2.491-.682.479 0 .925.032 1.341.096.416.062.778.188 1.096.378.312.188.563.454.756.794.188.34.281.8.281 1.38.024.555-.14.977-.488 1.266-.354.29-.83.511-1.438.662-.604.151-1.296.265-2.076.34-.777.076-1.57.177-2.377.303-.808.127-1.604.297-2.396.511-.793.215-1.498.536-2.113.964-.616.429-1.12 1.002-1.51 1.721-.395.718-.586 1.632-.586 2.74 0 1.008.17 1.878.51 2.608.341.729.812 1.336 1.416 1.813.604.479 1.308.831 2.113 1.058.796.227 1.664.34 2.595.34zm-1.019-7.296c.176-.327.406-.599.695-.812s.629-.384 1.021-.51c.39-.126.785-.229 1.188-.303.43-.075.854-.14 1.282-.189.429-.049.837-.113 1.229-.188.389-.075.754-.17 1.094-.282.34-.114.623-.271.851-.474v2.003c0 .304-.031.706-.095 1.21-.063.505-.233 1.003-.51 1.493-.277.491-.705.913-1.283 1.267-.58.354-1.397.528-2.455.528-.428 0-.844-.036-1.243-.112-.404-.075-.757-.208-1.06-.396-.301-.188-.541-.447-.717-.774-.18-.327-.268-.73-.268-1.209.008-.508.096-.924.271-1.252zm-14.468-15.763h5.36v-4.422h-5.36v4.422zm-362.832-2.894l-.136.018c-.438-1.729-1.995-3.018-3.864-3.018-2.209 0-4 1.789-4 3.996l.001.004h-.001v80.287l-13.004 7.455v19.5l17.007 9.75 17.008-9.75v-19.5l-13.011-7.459v-50.283h3v-8.925l12-.075v-4h-5v-2.021l5 .021v-5l-5-.019v-1.981h5v-4h-15v-5zm5.005 93.246v10.5l-9.004 5.25-9.003-5.25v-10.5l9.003-5.25 9.004 5.25zm-21.005-105.246c3.313 0 6-2.688 6-6v-.018l.001-.02-.001-.049v-15.915c0-2.457-3.294-4.565-5-5.494v-27.505h4v-2h-4v-6h4v-2h-4v-5h-2v5h-4v2h4v2h-3v2h3v2h-4v2h4v27.506c-1.706.929-5 3.037-5 5.494v15.915l-.001.049.001.02v.018c0 3.312 2.687 5.999 6 5.999zm-3-20.923c0-1.699 3-3.077 3-3.077s3 1.378 3 3.077v13.846c0 1.699-1.343 3.077-3 3.077-1.656 0-3-1.378-3-3.077v-13.846zm1.153 191.505v12.852h-2.826v-12.852h2.826zm4.644 3.546v1.296h.054c.324-.54.744-.934 1.26-1.18.516-.245 1.044-.368 1.584-.368.684 0 1.245.093 1.683.278.438.187.783.442 1.035.772.252.33.429.732.531 1.206s.153.999.153 1.575v5.724h-2.556v-5.256c0-.769-.12-1.341-.36-1.719-.24-.378-.666-.567-1.278-.567-.696 0-1.2.207-1.512.621s-.468 1.096-.468 2.043v4.878h-2.556v-9.306l2.43.003zm13.194-.459c.192-.618.48-1.158.864-1.62.384-.462.867-.822 1.449-1.08s1.251-.387 2.007-.387c.576 0 1.125.09 1.647.27.522.181.981.438 1.377.774s.711.75.945 1.241.351 1.043.351 1.655c0 .638-.103 1.184-.306 1.638-.204.457-.474.86-.81 1.217-.336.354-.717.675-1.143.963-.426.288-.854.572-1.287.854-.432.282-.852.587-1.26.91-.408.323-.768.701-1.08 1.133h5.958v2.196h-9.252c0-.73.105-1.368.315-1.907.21-.541.495-1.021.855-1.448.36-.427.783-.818 1.269-1.181.486-.36.999-.726 1.539-1.098.276-.191.57-.389.882-.585.312-.198.597-.417.855-.657.258-.24.474-.51.648-.81.174-.3.261-.645.261-1.026 0-.611-.177-1.089-.531-1.431-.354-.343-.807-.516-1.359-.516-.372 0-.687.089-.945.264-.258.174-.465.4-.621.684-.156.282-.267.595-.333.938-.066.343-.099.682-.099 1.018h-2.448c-.024-.722.06-1.391.252-2.009zm12.06 4.716c.024.51.099 1.002.225 1.477.126.476.327.88.604 1.216.275.336.672.505 1.188.505.528 0 .933-.169 1.215-.505.282-.336.486-.74.612-1.216.126-.475.201-.967.225-1.477.024-.51.036-.945.036-1.305l-.009-.783c-.006-.307-.03-.621-.072-.945s-.102-.645-.18-.963c-.078-.318-.195-.604-.351-.854-.156-.25-.354-.455-.594-.61-.24-.156-.534-.233-.882-.233s-.639.077-.873.233c-.234.155-.426.358-.576.61-.15.252-.267.536-.351.854s-.144.639-.18.963-.058.64-.063.945l-.009.783c-.001.36.011.795.035 1.305zm-2.223-4.393c.246-.834.579-1.504.999-2.009.42-.504.909-.862 1.467-1.079.558-.216 1.149-.322 1.773-.322.636 0 1.233.106 1.791.322.558.218 1.05.575 1.476 1.079.426.505.762 1.175 1.008 2.009s.369 1.862.369 3.088c0 1.26-.123 2.312-.369 3.158-.246.846-.583 1.521-1.008 2.023-.425.504-.918.864-1.476 1.08s-1.155.324-1.791.324c-.624 0-1.215-.108-1.773-.324s-1.047-.576-1.467-1.08c-.42-.504-.753-1.179-.999-2.023-.246-.848-.369-1.898-.369-3.158 0-1.224.123-2.254.369-3.088zm13.761 9.442v-8.172h-3.168v-1.926c.443.012.873-.021 1.287-.101.414-.079.786-.217 1.116-.413.33-.197.609-.459.837-.782.228-.324.378-.729.45-1.206h2.034v12.6h-2.556zm6.426-9.765c.192-.618.48-1.158.864-1.62.384-.462.867-.822 1.449-1.08s1.251-.387 2.007-.387c.576 0 1.125.09 1.647.27.522.181.981.438 1.377.774s.711.75.945 1.241.351 1.043.351 1.655c0 .638-.102 1.184-.306 1.638-.204.457-.474.86-.81 1.217-.336.354-.717.675-1.143.963-.426.288-.855.572-1.287.854-.432.282-.852.587-1.26.91-.408.323-.768.701-1.08 1.133h5.958v2.196h-9.252c0-.73.104-1.368.315-1.907.21-.541.495-1.021.855-1.448.36-.427.783-.818 1.269-1.181.486-.36.999-.726 1.539-1.098.276-.191.57-.389.882-.585.312-.198.597-.417.855-.657.258-.24.474-.51.648-.81.173-.3.261-.645.261-1.026 0-.611-.177-1.089-.531-1.431-.354-.343-.807-.516-1.359-.516-.372 0-.687.089-.945.264-.258.174-.465.4-.621.684-.156.282-.267.595-.333.938-.066.343-.099.682-.099 1.018h-2.448c-.024-.722.06-1.391.252-2.009zm15.408 1.827c.264-.396.6-.715 1.008-.954.408-.24.867-.411 1.377-.516.51-.102 1.023-.15 1.539-.15.468 0 .942.032 1.422.099s.918.195 1.314.387.72.459.972.802c.252.344.378.797.378 1.358v4.842c0 .423.024.822.072 1.207.047.386.132.673.252.863h-2.592c-.048-.145-.087-.291-.117-.44-.03-.148-.051-.304-.063-.459-.408.422-.888.715-1.44.884-.552.168-1.116.252-1.692.252-.444 0-.858-.057-1.242-.162-.384-.108-.72-.276-1.008-.504-.288-.229-.513-.518-.675-.864s-.243-.762-.243-1.242c0-.526.093-.963.279-1.305s.426-.615.72-.818c.294-.205.63-.355 1.008-.459.378-.103.759-.184 1.143-.243.384-.061.762-.106 1.134-.145.372-.036.702-.09.99-.162.288-.071.516-.177.684-.314.168-.139.246-.339.234-.604 0-.275-.045-.495-.135-.657-.09-.162-.21-.287-.36-.378-.15-.09-.324-.148-.522-.18-.198-.03-.411-.045-.639-.045-.504 0-.9.105-1.188.323-.288.217-.457.575-.504 1.08h-2.556c.036-.602.186-1.1.45-1.496zm5.049 3.61c-.162.054-.336.099-.522.136l-.585.091c-.204.021-.408.054-.612.09-.192.036-.381.084-.567.144-.186.062-.348.144-.486.243-.138.104-.25.231-.333.389-.084.154-.126.354-.126.594 0 .229.042.421.126.576.083.155.198.277.342.368s.312.152.504.188c.191.036.39.054.594.054.504 0 .894-.084 1.17-.252.276-.168.48-.369.612-.604.132-.233.213-.472.243-.711s.045-.434.045-.575v-.954c-.108.093-.243.168-.405.223zm7.371-4.978v1.296h.054c.324-.54.744-.934 1.26-1.18.516-.245 1.044-.368 1.584-.368.685 0 1.245.093 1.684.278.438.187.782.442 1.034.772s.43.732.531 1.206.153.999.153 1.575v5.724h-2.556v-5.256c0-.769-.12-1.341-.36-1.719-.24-.378-.666-.567-1.278-.567-.696 0-1.2.207-1.512.621s-.468 1.096-.468 2.043v4.878h-2.556v-9.306l2.43.003zm13.59 1.368c.264-.396.6-.715 1.008-.954.407-.24.866-.411 1.377-.516.51-.102 1.022-.15 1.539-.15.468 0 .941.032 1.422.099.479.066.918.195 1.313.387.396.192.721.459.973.802.252.344.378.797.378 1.358v4.842c0 .423.023.822.072 1.207.047.386.132.673.252.863h-2.593c-.048-.145-.087-.291-.116-.44-.03-.148-.052-.304-.063-.459-.408.422-.888.715-1.439.884-.553.168-1.116.252-1.692.252-.444 0-.858-.057-1.242-.162-.384-.108-.72-.276-1.008-.504-.288-.229-.513-.518-.675-.864s-.243-.762-.243-1.242c0-.526.093-.963.279-1.305.186-.342.426-.615.72-.818.294-.205.63-.355 1.008-.459.378-.103.759-.184 1.144-.243.384-.061.762-.106 1.134-.145.371-.036.702-.09.989-.162.288-.071.517-.177.685-.314.168-.139.246-.339.233-.604 0-.275-.045-.495-.135-.657s-.21-.287-.359-.378c-.15-.09-.324-.148-.522-.18-.198-.031-.411-.045-.639-.045-.504 0-.9.105-1.188.323-.288.217-.456.575-.504 1.08h-2.556c.034-.602.183-1.1.448-1.496zm5.049 3.61c-.162.054-.336.099-.522.136l-.585.091c-.204.021-.408.054-.611.09-.192.036-.382.084-.567.144-.187.062-.349.144-.486.243-.137.102-.249.231-.333.389-.084.154-.126.354-.126.594 0 .229.042.421.126.576s.198.277.342.368c.145.091.312.152.505.188.191.036.39.054.594.054.504 0 .894-.084 1.17-.252.275-.168.479-.369.612-.604.132-.233.213-.472.242-.711.03-.239.045-.434.045-.575v-.954c-.109.093-.244.168-.406.223zm10.053-4.978v1.71h-1.872v4.606c0 .434.072.722.216.863.145.146.432.217.864.217l.414-.019.378-.056v1.979c-.216.036-.456.062-.72.072-.265.012-.522.018-.774.018-.396 0-.771-.024-1.125-.08-.354-.055-.666-.159-.936-.313-.271-.156-.483-.378-.64-.666s-.233-.666-.233-1.135v-5.489h-1.549v-1.71h1.549v-2.79h2.556v2.79l1.872.003zm6.336 0v1.71h-1.872v4.606c0 .434.071.722.216.863.144.146.432.217.864.217l.414-.019.378-.056v1.979c-.216.036-.456.062-.721.072-.264.012-.521.018-.773.018-.396 0-.771-.024-1.125-.08-.354-.055-.666-.159-.937-.313-.27-.156-.482-.378-.639-.666-.157-.288-.234-.666-.234-1.135v-5.489h-1.548v-1.71h1.548v-2.79h2.557v2.79l1.872.003zm1.565 1.368c.264-.396.601-.715 1.008-.954.408-.24.867-.411 1.377-.516.511-.102 1.023-.15 1.539-.15.468 0 .942.032 1.422.099s.918.195 1.314.387.72.459.972.802c.252.344.378.797.378 1.358v4.842c0 .423.024.822.072 1.207.048.386.132.673.252.863h-2.592c-.048-.145-.087-.291-.117-.44-.03-.148-.051-.304-.062-.459-.408.422-.889.715-1.44.884-.551.168-1.116.252-1.692.252-.443 0-.857-.057-1.241-.162-.385-.108-.721-.276-1.009-.504-.288-.229-.513-.518-.675-.864s-.243-.762-.243-1.242c0-.526.093-.963.279-1.305s.426-.615.72-.818c.294-.205.631-.355 1.009-.459.378-.103.759-.184 1.143-.243.384-.061.762-.106 1.134-.145s.702-.09.99-.162c.288-.071.516-.177.684-.314.168-.139.246-.339.234-.604 0-.275-.045-.495-.135-.657s-.21-.287-.36-.378c-.15-.09-.324-.148-.521-.18-.198-.03-.411-.045-.64-.045-.504 0-.899.105-1.188.323-.288.217-.456.575-.504 1.08h-2.557c.035-.602.185-1.1.449-1.496zm5.049 3.61c-.162.054-.336.099-.521.136l-.585.091c-.204.021-.408.054-.612.09-.192.036-.381.084-.567.144-.186.062-.348.144-.485.243-.139.104-.249.231-.333.389-.084.154-.126.354-.126.594 0 .229.042.421.126.576s.197.277.342.368c.144.091.312.152.504.188.192.036.39.054.594.054.504 0 .895-.084 1.17-.252.276-.168.48-.369.612-.604.132-.233.213-.472.243-.711.029-.239.045-.434.045-.575v-.954c-.11.093-.245.168-.407.223zm9.386-3.304c-.407 0-.75.093-1.025.278-.276.187-.501.427-.675.721-.175.294-.297.618-.369.973-.072.354-.108.704-.108 1.054 0 .336.036.679.108 1.024.072.351.188.663.351.945.163.281.381.513.657.691.275.182.612.271 1.008.271.612 0 1.083-.171 1.413-.514s.537-.802.621-1.377h2.466c-.168 1.235-.647 2.179-1.439 2.825-.792.647-1.807.974-3.042.974-.696 0-1.336-.117-1.917-.353-.583-.232-1.077-.562-1.485-.979-.408-.419-.727-.922-.954-1.503-.229-.582-.342-1.223-.342-1.917 0-.722.104-1.392.314-2.008.21-.617.52-1.151.928-1.604.407-.45.905-.801 1.494-1.053.587-.252 1.26-.378 2.016-.378.552 0 1.083.069 1.593.216.51.144.966.362 1.368.657.402.294.729.658.98 1.098.253.438.396.957.433 1.557h-2.502c-.169-1.064-.8-1.598-1.892-1.598zm8.677-5.22v6.894l3.222-3.348h3.023l-3.51 3.42 3.906 5.886h-3.096l-2.557-4.158-.989.955v3.203h-2.557v-12.852h2.558zm13.166 5.724c-.306-.336-.771-.504-1.395-.504-.408 0-.747.069-1.018.207-.27.138-.485.31-.647.513-.162.204-.276.42-.342.648-.066.229-.105.432-.117.611h4.158c-.119-.647-.332-1.139-.639-1.475zm-2.888 4.895c.384.371.936.559 1.656.559.516 0 .96-.129 1.332-.387.371-.26.6-.531.684-.819h2.25c-.36 1.116-.912 1.914-1.656 2.395-.744.479-1.644.722-2.699.722-.732 0-1.393-.117-1.98-.354-.588-.231-1.086-.564-1.494-.998-.408-.433-.723-.946-.945-1.549-.222-.6-.332-1.26-.332-1.979 0-.696.113-1.347.342-1.944.228-.601.552-1.118.972-1.557.42-.438.921-.783 1.503-1.035s1.227-.378 1.936-.378c.792 0 1.481.152 2.069.459.588.306 1.071.717 1.449 1.231.378.518.65 1.104.819 1.766.168.659.228 1.35.18 2.068h-6.714c.034.83.243 1.429.628 1.8zm10.025-7.073v1.728h.036c.12-.287.282-.555.486-.801.204-.246.438-.456.702-.63.264-.174.546-.31.846-.405.3-.096.612-.144.936-.144.168 0 .354.028.559.09v2.376l-.432-.062c-.169-.019-.331-.025-.486-.025-.468 0-.864.078-1.188.232-.323.155-.585.369-.782.641-.198.271-.34.585-.424.943-.084.359-.126.75-.126 1.171v4.192h-2.556v-9.306h2.429zm11.728 6.993c.113.196.261.358.44.483.181.127.388.222.621.279.234.061.478.09.729.09.18 0 .369-.021.566-.062.198-.041.378-.107.54-.197.162-.09.297-.21.405-.359.108-.148.162-.34.162-.567 0-.384-.255-.672-.765-.862-.511-.192-1.222-.384-2.134-.576-.372-.084-.735-.183-1.089-.297s-.669-.265-.945-.45c-.275-.186-.498-.42-.666-.701-.168-.28-.252-.627-.252-1.034 0-.602.117-1.093.352-1.478.235-.384.543-.688.927-.908.384-.223.816-.379 1.296-.469s.973-.135 1.477-.135c.504 0 .992.048 1.467.145.474.097.896.259 1.269.485.372.228.682.53.928.909.245.378.393.854.44 1.431h-2.43c-.036-.491-.223-.825-.559-.999s-.731-.261-1.188-.261l-.468.026c-.169.019-.321.058-.459.116-.139.062-.256.146-.352.261-.096.114-.144.269-.144.459 0 .229.084.414.252.56.168.145.387.261.657.352.27.09.578.172.927.243.348.071.702.149 1.062.233.372.084.735.187 1.089.306.354.12.669.279.945.478.276.199.498.444.666.737.168.296.252.657.252 1.091 0 .61-.123 1.125-.369 1.539-.246.413-.566.745-.963.997-.396.253-.849.432-1.358.531-.511.103-1.029.153-1.558.153-.54 0-1.068-.056-1.584-.162-.516-.108-.975-.288-1.377-.54-.402-.252-.732-.585-.99-.999-.258-.414-.398-.935-.423-1.558h2.431c.002.275.058.512.173.71zm12.626-6.993v1.71h-1.871v4.606c0 .434.071.722.216.863.144.146.432.217.863.217l.414-.019.378-.056v1.979c-.216.036-.456.062-.72.072l-.773.018c-.396 0-.771-.024-1.125-.08-.354-.055-.666-.159-.937-.313-.27-.156-.483-.378-.639-.666-.156-.288-.234-.666-.234-1.135v-5.489h-1.548v-1.71h1.548v-2.79h2.557v2.79l1.871.003zm3.6 5.751c.071.354.194.672.369.954.174.28.404.507.692.675s.648.252 1.08.252.795-.084 1.089-.252.528-.395.702-.675c.174-.282.297-.602.369-.954.072-.354.108-.717.108-1.089s-.036-.738-.108-1.1c-.072-.358-.195-.679-.369-.955-.174-.273-.408-.5-.702-.674-.294-.175-.657-.262-1.089-.262s-.792.087-1.08.262c-.288.174-.519.398-.692.674-.175.276-.298.597-.369.955-.072.359-.108.728-.108 1.1s.036.736.108 1.089zm-2.322-3.114c.228-.604.552-1.122.972-1.548.42-.426.924-.756 1.513-.99.588-.233 1.247-.351 1.979-.351s1.396.116 1.989.351c.593.235 1.101.564 1.521.99.42.426.744.941.973 1.548.228.606.342 1.281.342 2.024 0 .744-.114 1.416-.342 2.017-.229.602-.553 1.113-.973 1.539-.42.426-.927.753-1.521.979-.594.229-1.257.344-1.989.344s-1.392-.114-1.979-.344c-.589-.229-1.093-.556-1.513-.979-.42-.425-.744-.938-.972-1.539-.229-.601-.342-1.271-.342-2.017 0-.744.113-1.418.342-2.024zm13.572-6.183v12.852h-2.557v-12.852h2.557zm7.641 5.724c-.306-.336-.771-.504-1.396-.504-.408 0-.747.069-1.017.207-.271.138-.486.31-.648.513-.161.204-.275.42-.342.648-.065.229-.104.432-.117.611h4.158c-.12-.647-.333-1.139-.638-1.475zm-2.89 4.895c.385.371.937.559 1.656.559.516 0 .96-.129 1.332-.387.372-.26.6-.531.685-.819h2.25c-.36 1.116-.912 1.914-1.656 2.395-.744.479-1.645.722-2.7.722-.732 0-1.392-.117-1.979-.354-.589-.231-1.087-.564-1.494-.998-.408-.433-.724-.946-.945-1.549-.222-.6-.333-1.26-.333-1.979 0-.696.114-1.347.342-1.944.229-.601.552-1.118.973-1.557.42-.438.921-.783 1.503-1.035.581-.252 1.227-.378 1.935-.378.792 0 1.482.152 2.07.459.588.306 1.07.717 1.449 1.231.378.518.65 1.104.818 1.766s.229 1.35.18 2.068h-6.714c.034.83.244 1.429.628 1.8zm12.547-7.532c.191-.618.479-1.158.863-1.62.384-.462.867-.822 1.449-1.08s1.251-.387 2.007-.387c.576 0 1.125.09 1.647.27.521.181.98.438 1.377.774.396.336.711.75.944 1.241.234.491.352 1.043.352 1.655 0 .638-.103 1.184-.306 1.638-.205.457-.475.86-.811 1.217-.336.354-.717.675-1.143.963-.427.288-.855.572-1.287.854-.433.282-.853.587-1.26.91-.408.323-.769.701-1.08 1.133h5.958v2.196h-9.253c0-.73.105-1.368.315-1.907.21-.541.495-1.021.855-1.448.359-.427.782-.818 1.269-1.181.487-.36.999-.726 1.539-1.098.275-.191.57-.389.882-.585.312-.198.597-.417.855-.657s.474-.51.647-.81.262-.645.262-1.026c0-.611-.178-1.089-.531-1.431-.354-.343-.808-.516-1.359-.516-.372 0-.687.089-.945.264-.258.174-.465.4-.62.684-.156.282-.268.595-.333.938-.066.343-.1.682-.1 1.018h-2.448c-.021-.722.063-1.391.255-2.009zm17.55.459v1.26h.036c.335-.479.74-.853 1.215-1.116.474-.264 1.017-.396 1.629-.396.588 0 1.125.114 1.611.342.485.229.854.63 1.106 1.206.276-.408.65-.768 1.125-1.08.474-.312 1.035-.468 1.683-.468.492 0 .948.06 1.368.18s.78.312 1.08.576c.301.265.534.608.702 1.035.168.426.252.938.252 1.539v6.228h-2.556v-5.272c0-.312-.013-.605-.036-.884-.024-.273-.09-.516-.198-.72s-.267-.366-.477-.484c-.21-.119-.495-.181-.855-.181s-.651.068-.873.206c-.222.139-.396.318-.521.54-.125.224-.21.476-.253.756-.042.282-.062.567-.062.855v5.184h-2.556v-5.22c0-.276-.007-.549-.019-.819-.012-.27-.062-.519-.152-.746-.09-.229-.24-.411-.45-.55-.21-.138-.52-.206-.927-.206-.12 0-.279.026-.478.08-.199.056-.39.156-.576.308-.186.148-.345.364-.477.646-.132.282-.198.651-.198 1.106v5.398h-2.556v-9.306l2.413.003zm13.895-1.44v-2.104h2.556v2.104h-2.556zm2.556 1.44v9.306h-2.556v-9.306h2.556zm4.644-3.546v12.852h-2.557v-12.852h2.557zm4.644 0v12.852h-2.557v-12.852h2.557zm2.088 2.106v-2.104h2.557v2.104h-2.557zm2.557 1.44v9.306h-2.557v-9.306h2.557zm4.391 5.751c.07.354.193.672.368.954.175.28.404.507.692.675s.648.252 1.08.252c.433 0 .795-.084 1.089-.252s.528-.395.702-.675c.174-.282.297-.602.369-.954.071-.354.107-.717.107-1.089s-.036-.738-.107-1.1c-.072-.358-.195-.679-.369-.955-.174-.273-.408-.5-.702-.674-.294-.175-.656-.262-1.089-.262-.432 0-.792.087-1.08.262-.288.174-.519.398-.692.674-.175.276-.298.597-.368.955-.072.359-.108.728-.108 1.1s.036.736.108 1.089zm-2.322-3.114c.228-.604.552-1.122.972-1.548s.924-.756 1.514-.99c.588-.233 1.247-.351 1.979-.351s1.396.116 1.989.351c.593.235 1.101.564 1.521.99.42.426.744.941.974 1.548.228.606.342 1.281.342 2.024 0 .744-.114 1.416-.342 2.017-.229.602-.554 1.113-.974 1.539-.42.426-.927.753-1.521.979-.595.229-1.257.344-1.989.344-.731 0-1.392-.114-1.979-.344-.59-.229-1.094-.556-1.514-.979-.42-.424-.744-.938-.972-1.539-.229-.601-.342-1.271-.342-2.017 0-.744.114-1.418.342-2.024zm13.374-2.637v1.296h.054c.324-.54.744-.934 1.26-1.18.518-.245 1.044-.368 1.584-.368.686 0 1.245.093 1.685.278.438.187.783.442 1.035.772.252.33.429.732.529 1.206.104.474.153.999.153 1.575v5.724h-2.556v-5.256c0-.769-.12-1.341-.36-1.719-.24-.378-.666-.567-1.278-.567-.694 0-1.198.207-1.512.621-.312.414-.468 1.096-.468 2.043v4.878h-2.556v-9.306l2.43.003zm15.398 6.993c.114.196.263.358.441.483.179.127.387.222.621.279.233.061.477.09.729.09.181 0 .369-.021.567-.062s.378-.107.54-.197.297-.21.404-.359c.107-.148.162-.34.162-.567 0-.384-.256-.672-.766-.862-.51-.192-1.222-.384-2.133-.576-.372-.084-.735-.183-1.089-.297s-.67-.265-.945-.45c-.275-.185-.498-.42-.666-.701-.168-.28-.252-.627-.252-1.034 0-.602.117-1.093.352-1.478.233-.384.543-.688.928-.908.384-.223.814-.379 1.296-.469.479-.09.972-.135 1.476-.135s.993.048 1.468.145.896.259 1.27.485c.372.228.681.53.927.909.246.378.394.854.441 1.431h-2.431c-.036-.491-.223-.825-.559-.999s-.731-.261-1.188-.261l-.469.026c-.168.019-.32.058-.459.116-.138.062-.255.146-.351.261-.097.114-.145.269-.145.459 0 .229.084.414.252.56.168.145.388.261.656.352.271.09.579.172.928.243s.701.149 1.062.233c.372.084.734.187 1.089.306.354.12.669.279.945.478.275.199.497.444.666.737.168.296.252.657.252 1.091 0 .61-.123 1.125-.369 1.539-.246.413-.566.745-.963.997-.397.253-.85.432-1.359.531-.509.103-1.028.153-1.557.153-.54 0-1.068-.056-1.584-.162-.517-.108-.977-.288-1.377-.54-.402-.252-.732-.585-.99-.999-.258-.414-.398-.935-.423-1.558h2.43c.002.275.059.512.173.71zm9.891-1.242c.072.354.194.672.369.954.174.28.404.507.692.675.288.168.647.252 1.08.252.433 0 .795-.084 1.089-.252.294-.168.528-.395.702-.675.174-.282.297-.602.369-.954.071-.354.107-.717.107-1.089s-.036-.738-.107-1.1c-.072-.358-.195-.679-.369-.955-.174-.273-.408-.5-.702-.674-.294-.175-.656-.262-1.089-.262-.433 0-.792.087-1.08.262-.288.174-.52.398-.692.674-.175.276-.297.597-.369.955-.071.359-.107.728-.107 1.1s.036.736.107 1.089zm-2.321-3.114c.229-.604.552-1.122.972-1.548s.925-.756 1.513-.99c.588-.233 1.248-.351 1.979-.351.731 0 1.396.116 1.988.351.595.234 1.102.564 1.521.99s.744.941.973 1.548c.229.607.343 1.281.343 2.024 0 .744-.114 1.416-.343 2.017-.229.602-.553 1.113-.973 1.539s-.927.753-1.521.979c-.594.229-1.257.344-1.988.344-.731 0-1.393-.114-1.979-.344-.588-.229-1.093-.556-1.513-.979s-.743-.938-.972-1.539c-.229-.601-.343-1.271-.343-2.017 0-.744.114-1.418.343-2.024zm15.39-.963c-.406 0-.75.093-1.025.278-.275.187-.5.427-.674.721-.176.294-.299.618-.369.973-.072.354-.107.704-.107 1.054 0 .336.035.679.107 1.024.07.351.188.663.352.945.163.281.381.513.656.691.275.182.611.271 1.008.271.611 0 1.082-.171 1.412-.514s.537-.802.621-1.377h2.467c-.168 1.235-.646 2.179-1.438 2.825-.793.647-1.809.974-3.043.974-.695 0-1.334-.117-1.916-.353-.582-.232-1.078-.562-1.486-.979s-.725-.922-.953-1.503c-.229-.582-.342-1.223-.342-1.917 0-.722.104-1.392.312-2.008.211-.617.521-1.151.93-1.604.406-.45.904-.801 1.494-1.053.588-.252 1.26-.378 2.016-.378.551 0 1.082.069 1.594.216.51.144.965.362 1.367.657.402.294.729.658.979 1.098.25.44.396.957.434 1.557h-2.502c-.173-1.064-.803-1.598-1.894-1.598zm5.957-3.114v-2.104h2.559v2.104h-2.559zm2.556 1.44v9.306h-2.559v-9.306h2.559zm2.358 1.368c.266-.396.602-.715 1.01-.954.406-.24.865-.411 1.377-.516.51-.102 1.021-.15 1.539-.15.469 0 .939.032 1.422.099.479.066.918.195 1.312.387.396.192.721.459.975.802.252.344.377.797.377 1.358v4.842c0 .423.021.822.07 1.207.05.386.134.673.252.863h-2.592c-.049-.145-.088-.291-.117-.44-.027-.148-.051-.304-.062-.459-.408.422-.89.715-1.438.884-.554.168-1.117.252-1.692.252-.443 0-.857-.057-1.242-.162-.383-.108-.72-.276-1.008-.504-.287-.229-.513-.518-.675-.864s-.244-.762-.244-1.242c0-.526.095-.963.279-1.305.186-.342.426-.615.721-.818.294-.205.63-.355 1.009-.459.377-.103.758-.184 1.144-.243.385-.061.762-.106 1.135-.145.371-.036.701-.09.988-.162.288-.071.519-.177.687-.314.168-.139.246-.339.23-.604 0-.275-.045-.495-.135-.657s-.209-.287-.359-.378c-.148-.09-.323-.148-.521-.18-.199-.03-.412-.045-.639-.045-.506 0-.9.105-1.189.323-.287.217-.455.575-.504 1.08h-2.555c.031-.602.181-1.1.445-1.496zm5.049 3.61c-.162.054-.337.099-.521.136l-.586.091c-.203.021-.408.054-.61.09-.19.036-.382.084-.565.144-.188.062-.351.144-.486.243-.139.104-.25.231-.334.389-.084.154-.125.354-.125.594 0 .229.041.421.125.576s.199.277.343.368c.146.091.312.152.506.188.19.036.39.054.594.054.505 0 .894-.084 1.171-.252.273-.168.479-.369.609-.604.135-.233.215-.472.242-.711.031-.239.045-.434.045-.575v-.954c-.111.093-.246.168-.408.223zm7.568-8.524v12.852h-2.555v-12.852h2.555zm9.504 3.546v1.26h.037c.336-.479.74-.853 1.215-1.116.477-.264 1.02-.396 1.629-.396.588 0 1.125.114 1.611.342.486.229.855.63 1.107 1.206.273-.408.648-.768 1.125-1.08.473-.312 1.031-.468 1.682-.468.492 0 .949.06 1.369.18s.779.312 1.08.576c.299.265.533.608.701 1.035.168.426.252.938.252 1.539v6.228h-2.559v-5.272c0-.312-.012-.605-.035-.884-.021-.273-.09-.516-.195-.72-.109-.204-.27-.366-.479-.484-.209-.119-.494-.181-.854-.181-.361 0-.652.068-.873.206-.225.139-.396.318-.523.54-.125.224-.209.476-.252.756-.041.282-.062.567-.062.855v5.184h-2.559v-5.22c0-.276-.006-.549-.018-.819-.014-.27-.062-.519-.152-.746-.09-.229-.24-.411-.451-.55-.209-.138-.518-.206-.926-.206-.121 0-.279.026-.477.08-.199.056-.393.156-.576.308-.188.148-.347.364-.479.646-.131.282-.195.651-.195 1.106v5.398h-2.559v-9.306l2.416.003zm19.449 2.178c-.307-.336-.771-.504-1.395-.504-.408 0-.748.069-1.02.207-.27.138-.486.31-.646.513-.162.204-.275.42-.344.648-.064.229-.104.432-.115.611h4.156c-.117-.647-.329-1.139-.636-1.475zm-2.888 4.895c.385.371.936.559 1.654.559.518 0 .959-.129 1.332-.387.371-.26.602-.531.686-.819h2.25c-.359 1.116-.912 1.914-1.656 2.395-.744.479-1.645.722-2.699.722-.73 0-1.393-.117-1.979-.354-.588-.231-1.086-.564-1.494-.998-.408-.433-.723-.946-.945-1.549-.223-.6-.332-1.26-.332-1.979 0-.696.113-1.347.343-1.944.229-.599.552-1.118.974-1.557.42-.438.92-.783 1.502-1.035s1.227-.378 1.936-.378c.791 0 1.482.152 2.07.459.588.306 1.07.717 1.447 1.231.379.518.65 1.104.819 1.766.168.661.229 1.35.181 2.068h-6.715c.032.83.241 1.429.626 1.8zm14.093-3.554c-.072-.354-.195-.666-.369-.936-.174-.271-.396-.489-.676-.657-.275-.168-.623-.252-1.043-.252s-.773.084-1.062.252c-.287.168-.52.39-.691.666s-.299.591-.377.944-.117.724-.117 1.105c0 .36.041.721.127 1.08.082.36.219.684.404.964.185.281.42.511.699.685.283.175.621.262 1.02.262.42 0 .771-.084 1.053-.252s.508-.396.676-.676c.168-.281.287-.604.359-.963.072-.359.107-.731.107-1.115-.002-.385-.037-.753-.11-1.107zm.108 4.599c-.301.504-.691.864-1.18 1.089-.484.222-1.035.333-1.646.333-.695 0-1.309-.137-1.836-.405-.527-.271-.964-.636-1.307-1.098-.342-.462-.6-.993-.771-1.596-.174-.6-.264-1.224-.264-1.87 0-.623.09-1.229.264-1.811s.432-1.095.771-1.539c.344-.441.771-.801 1.287-1.071.518-.27 1.117-.402 1.801-.402.553 0 1.076.116 1.574.351s.893.579 1.181 1.035h.034v-4.68h2.559v12.852h-2.432v-1.188h-.035zm4.465-9.558v-2.104h2.555v2.104h-2.555zm2.554 1.44v9.306h-2.555v-9.306h2.555zm2.36 1.368c.264-.396.6-.715 1.008-.954.408-.24.867-.411 1.377-.516.51-.102 1.021-.15 1.539-.15.467 0 .939.032 1.422.099.479.066.918.195 1.312.387.396.192.721.459.973.802.252.344.379.797.379 1.358v4.842c0 .423.021.822.072 1.207.047.386.131.673.252.863h-2.594c-.049-.145-.088-.291-.115-.44-.031-.148-.053-.304-.064-.459-.406.422-.887.715-1.438.884-.553.168-1.115.252-1.691.252-.443 0-.857-.057-1.242-.162-.385-.108-.721-.276-1.008-.504-.289-.229-.514-.518-.676-.864s-.242-.762-.242-1.242c0-.526.092-.963.279-1.305.186-.342.426-.615.719-.818.295-.205.631-.355 1.008-.459.379-.103.76-.184 1.146-.243.383-.061.762-.106 1.133-.145.373-.036.703-.09.989-.162.288-.071.517-.177.685-.314.168-.139.246-.339.233-.604 0-.275-.046-.495-.136-.657s-.209-.287-.357-.378c-.15-.09-.324-.148-.523-.18-.197-.03-.41-.045-.639-.045-.504 0-.898.105-1.188.323-.287.217-.457.575-.504 1.08h-2.557c.034-.602.184-1.1.448-1.496zm5.048 3.61c-.162.054-.336.099-.521.136l-.586.091c-.203.021-.408.054-.609.09-.193.036-.383.084-.568.144-.188.062-.348.144-.484.243-.139.104-.25.231-.334.389-.084.154-.125.354-.125.594 0 .229.041.421.125.576s.197.277.344.368c.145.091.312.152.504.188.19.036.391.054.594.054.504 0 .895-.084 1.17-.252.277-.168.479-.369.613-.604.131-.233.213-.472.24-.711.029-.239.047-.434.047-.575v-.954c-.113.093-.247.168-.41.223zm10.288-3.61c.264-.396.6-.715 1.008-.954.408-.24.867-.411 1.377-.516.51-.102 1.023-.15 1.539-.15.467 0 .939.032 1.422.099.48.066.918.195 1.314.387.395.192.719.459.971.802.252.344.379.797.379 1.358v4.842c0 .423.023.822.072 1.207.047.386.131.673.252.863h-2.592c-.051-.145-.09-.291-.117-.44-.031-.148-.055-.304-.064-.459-.406.422-.887.715-1.438.884-.553.168-1.115.252-1.691.252-.445 0-.859-.057-1.242-.162-.385-.108-.721-.276-1.008-.504-.289-.229-.514-.518-.676-.864s-.242-.762-.242-1.242c0-.526.092-.963.279-1.305.186-.342.426-.615.719-.818.295-.205.631-.355 1.008-.459.379-.103.76-.184 1.146-.243.383-.061.762-.106 1.133-.145.373-.036.703-.09.99-.162.288-.071.516-.177.684-.314.168-.139.246-.339.234-.604 0-.275-.046-.495-.137-.657-.09-.162-.211-.287-.357-.378-.15-.09-.324-.148-.523-.18-.196-.03-.41-.045-.639-.045-.504 0-.9.105-1.188.323-.286.217-.457.575-.504 1.08h-2.557c.033-.602.182-1.1.448-1.496zm5.048 3.61c-.162.054-.336.099-.521.136l-.586.091c-.205.021-.406.054-.609.09-.193.036-.383.084-.568.144-.186.062-.348.144-.484.243-.139.104-.25.231-.334.389-.084.154-.127.354-.127.594 0 .229.043.421.127.576s.197.277.344.368c.145.091.312.152.504.188.19.036.391.054.594.054.504 0 .895-.084 1.17-.252.277-.168.48-.369.613-.604.131-.233.213-.472.242-.711.027-.239.045-.434.045-.575v-.954c-.113.093-.248.168-.41.223zm9.387-3.304c-.408 0-.75.093-1.023.278-.277.187-.503.427-.678.721-.174.294-.297.618-.369.973-.07.354-.105.704-.105 1.054 0 .336.035.679.105 1.024.072.351.189.663.354.945.163.281.381.513.656.691.273.182.609.271 1.008.271.613 0 1.084-.171 1.414-.514s.537-.802.621-1.377h2.465c-.168 1.235-.648 2.179-1.439 2.825-.793.647-1.807.974-3.043.974-.693 0-1.334-.117-1.916-.353-.582-.232-1.078-.562-1.482-.979-.408-.42-.729-.922-.955-1.503-.229-.582-.342-1.223-.342-1.917 0-.722.104-1.392.312-2.008.211-.617.521-1.151.928-1.604.408-.45.906-.801 1.494-1.053s1.262-.378 2.018-.378c.553 0 1.082.069 1.594.216.51.144.965.362 1.367.657.4.294.729.658.979 1.098.25.44.396.957.436 1.557h-2.502c-.176-1.064-.805-1.598-1.897-1.598zm10.332 0c-.408 0-.75.093-1.027.278-.273.187-.5.427-.674.721s-.297.618-.369.973c-.07.354-.105.704-.105 1.054 0 .336.035.679.105 1.024.072.351.189.663.354.945.163.281.381.513.656.691.273.182.609.271 1.008.271.609 0 1.082-.171 1.414-.514.328-.343.535-.802.619-1.377h2.467c-.168 1.235-.648 2.179-1.439 2.825-.793.647-1.807.974-3.043.974-.693 0-1.334-.117-1.916-.353-.582-.232-1.078-.562-1.484-.979-.406-.42-.727-.922-.953-1.503-.229-.582-.342-1.223-.342-1.917 0-.722.104-1.392.312-2.008.211-.617.521-1.151.928-1.604.408-.45.906-.801 1.494-1.053s1.26-.378 2.018-.378c.551 0 1.082.069 1.594.216.51.144.965.362 1.367.657.4.294.729.658.979 1.098.25.44.396.957.434 1.557h-2.503c-.173-1.064-.802-1.598-1.894-1.598zm8.262 4.077c.072.354.195.672.369.954.174.28.404.507.693.675.287.168.646.252 1.078.252.434 0 .795-.084 1.09-.252s.527-.395.701-.675c.174-.282.299-.602.369-.954.07-.354.107-.717.107-1.089s-.037-.738-.107-1.1c-.07-.358-.195-.679-.369-.955-.174-.273-.406-.5-.701-.674-.295-.175-.656-.262-1.09-.262s-.791.087-1.078.262c-.289.174-.521.398-.693.674-.174.276-.297.597-.369.955-.07.359-.107.728-.107 1.1s.035.736.107 1.089zm-2.322-3.114c.229-.604.551-1.122.973-1.548.42-.426.924-.756 1.512-.99.588-.233 1.248-.351 1.979-.351.73 0 1.396.116 1.99.351.594.235 1.1.564 1.521.99.42.426.742.941.971 1.548.229.606.344 1.281.344 2.024 0 .744-.113 1.416-.344 2.017-.229.602-.551 1.113-.971 1.539-.422.426-.928.753-1.521.979-.596.229-1.26.344-1.99.344s-1.393-.114-1.979-.344c-.588-.229-1.092-.556-1.512-.979-.422-.426-.744-.938-.973-1.539-.229-.601-.344-1.271-.344-2.017.002-.744.115-1.418.344-2.024zm17.243 6.669v-1.296h-.056c-.324.54-.744.931-1.26 1.17-.516.24-1.045.36-1.584.36-.685 0-1.244-.092-1.685-.271-.438-.18-.782-.435-1.034-.765s-.43-.731-.529-1.206c-.104-.475-.154-.999-.154-1.575v-5.724h2.559v5.256c0 .768.118 1.341.357 1.719.24.379.666.567 1.279.567.695 0 1.199-.207 1.512-.621s.467-1.095.467-2.043v-4.878h2.559v9.306l-2.431.001zm6.803-9.306v1.296h.055c.324-.54.744-.934 1.26-1.18.518-.245 1.045-.368 1.584-.368.686 0 1.244.093 1.686.278.438.187.783.442 1.035.772s.428.732.529 1.206c.103.474.152.999.152 1.575v5.724h-2.557v-5.256c0-.769-.119-1.341-.359-1.719s-.666-.567-1.277-.567c-.695 0-1.201.207-1.514.621-.311.414-.467 1.096-.467 2.043v4.878h-2.559v-9.306l2.432.003zm13.356 0v1.71h-1.871v4.606c0 .434.072.722.219.863.143.146.432.217.861.217l.414-.019.377-.056v1.979c-.215.036-.455.062-.719.072l-.772.018c-.396 0-.771-.024-1.125-.08-.354-.055-.666-.159-.938-.313-.27-.156-.482-.378-.639-.666-.157-.288-.234-.666-.234-1.135v-5.489h-1.547v-1.71h1.547v-2.79h2.557v2.79l1.87.003zm3.375 6.993c.115.196.264.358.441.483.179.127.387.222.621.279.232.059.477.09.729.09.182 0 .369-.021.568-.062.197-.041.377-.107.539-.197s.297-.21.404-.359c.107-.148.16-.34.16-.567 0-.384-.254-.672-.764-.862-.51-.192-1.223-.384-2.133-.576-.373-.084-.736-.183-1.09-.297-.354-.114-.67-.265-.945-.45-.275-.185-.498-.42-.666-.701-.168-.28-.252-.627-.252-1.034 0-.602.117-1.093.352-1.478.235-.384.543-.688.93-.908.383-.223.812-.379 1.295-.469.479-.09.973-.135 1.477-.135s.992.048 1.467.145c.477.097.896.259 1.271.485.371.228.68.53.926.909.246.378.395.854.441 1.431h-2.432c-.037-.491-.223-.825-.559-.999s-.732-.261-1.188-.261l-.469.026c-.168.019-.32.058-.459.116-.137.062-.254.146-.35.261-.1.114-.146.269-.146.459 0 .229.084.414.252.56.168.145.389.261.656.352.271.09.58.172.928.243l1.062.233c.371.084.732.187 1.088.306.354.12.67.279.945.478.273.199.498.444.666.737.168.296.252.657.252 1.091 0 .61-.123 1.125-.369 1.539-.246.413-.566.745-.963.997-.397.253-.852.432-1.359.531-.509.103-1.029.153-1.557.153-.539 0-1.068-.056-1.584-.162-.518-.108-.977-.288-1.377-.54-.402-.252-.732-.585-.99-.999s-.398-.935-.422-1.558h2.43c.004.275.06.512.174.71zm18.82 2.313v-1.296h-.055c-.324.54-.744.931-1.262 1.17-.516.24-1.045.36-1.584.36-.684 0-1.244-.092-1.684-.271-.439-.179-.783-.435-1.035-.765s-.43-.731-.531-1.206c-.101-.475-.15-.999-.15-1.575v-5.724h2.557v5.256c0 .768.119 1.341.359 1.719.24.379.666.567 1.275.567.697 0 1.201-.207 1.514-.621.312-.414.469-1.095.469-2.043v-4.878h2.557v9.306l-2.43.001zm6.524-2.313c.113.196.262.358.439.483.179.127.387.222.621.279s.477.09.729.09c.181 0 .368-.021.567-.062.197-.041.377-.107.539-.197s.297-.21.404-.359c.107-.148.162-.34.162-.567 0-.384-.255-.672-.766-.862-.512-.192-1.223-.384-2.133-.576-.373-.084-.736-.183-1.09-.297-.354-.114-.67-.265-.945-.45-.273-.186-.498-.42-.666-.701-.168-.28-.252-.627-.252-1.034 0-.602.117-1.093.354-1.478.233-.384.543-.688.926-.908.385-.223.814-.379 1.297-.469s.973-.135 1.477-.135c.505 0 .992.048 1.469.145.473.097.896.259 1.27.485.371.228.681.53.926.909.246.378.395.854.441 1.431h-2.43c-.037-.491-.225-.825-.561-.999s-.73-.261-1.188-.261l-.47.026c-.169.019-.319.058-.459.116-.138.062-.255.146-.353.261-.096.114-.143.269-.143.459 0 .229.084.414.252.56.168.145.387.261.654.352.271.09.58.172.93.243l1.062.233c.371.084.734.187 1.088.306.354.12.67.279.945.478.275.199.498.444.666.737.168.296.252.657.252 1.091 0 .61-.123 1.125-.369 1.539-.246.413-.564.745-.963.997-.397.253-.85.432-1.359.531-.509.103-1.027.153-1.557.153-.539 0-1.068-.056-1.584-.162-.516-.108-.975-.288-1.377-.54s-.732-.585-.99-.999-.396-.935-.422-1.558h2.43c.007.275.063.512.177.71zm7.588-8.433v-2.104h2.555v2.104h-2.555zm2.554 1.44v9.306h-2.555v-9.306h2.555zm4.448 0v1.296h.053c.324-.54.744-.934 1.26-1.18.52-.245 1.045-.368 1.584-.368.688 0 1.246.093 1.686.278.438.187.782.442 1.034.772s.431.732.53 1.206c.103.474.152.999.152 1.575v5.724h-2.555v-5.256c0-.769-.121-1.341-.361-1.719s-.666-.567-1.277-.567c-.695 0-1.201.207-1.512.621-.312.414-.469 1.096-.469 2.043v4.878h-2.559v-9.306l2.434.003zm13.535 6.894c.273-.144.504-.336.684-.576.18-.237.314-.513.406-.816.09-.309.135-.627.135-.963 0-.386-.037-.747-.109-1.091-.07-.343-.189-.646-.357-.907-.168-.266-.393-.477-.666-.632-.275-.154-.625-.232-1.043-.232-.361 0-.67.072-.93.216-.258.145-.475.339-.646.585s-.299.528-.377.847c-.078.317-.117.65-.117 1 0 .336.033.67.098.998.066.329.184.629.344.893.161.264.375.479.641.646.264.17.594.252.99.252.353-.004.671-.076.947-.22zm3.5 3.095c-.104.479-.32.928-.656 1.342s-.822.765-1.457 1.053c-.637.288-1.488.432-2.558.432-.456 0-.923-.057-1.396-.17-.475-.114-.906-.291-1.297-.53-.392-.24-.713-.55-.974-.929-.259-.377-.403-.83-.438-1.356h2.537c.119.479.354.812.703.999.348.186.748.277 1.205.277.721 0 1.243-.217 1.572-.646.33-.434.49-.979.479-1.64v-1.225h-.037c-.275.492-.668.854-1.178 1.089-.514.234-1.049.354-1.611.354-.697 0-1.297-.123-1.801-.369s-.918-.582-1.242-1.009-.561-.925-.711-1.493c-.15-.57-.225-1.173-.225-1.811 0-.601.088-1.18.262-1.735.174-.56.428-1.051.764-1.478s.754-.766 1.252-1.018 1.07-.378 1.719-.378c.611 0 1.148.114 1.611.342.461.228.85.612 1.16 1.151h.037v-1.241h2.43v8.712c.004.372-.047.798-.15 1.277zm7.552-8.621c.264-.396.6-.715 1.008-.954.406-.24.865-.411 1.377-.516.51-.102 1.021-.15 1.539-.15.467 0 .941.032 1.422.099.479.066.918.195 1.312.387.396.192.721.459.973.802.252.344.379.797.379 1.358v4.842c0 .423.023.822.072 1.207.047.386.131.673.252.863h-2.594c-.047-.145-.086-.291-.115-.44-.031-.148-.053-.304-.064-.459-.406.422-.887.715-1.438.884-.552.168-1.115.252-1.691.252-.443 0-.857-.057-1.242-.162-.385-.108-.721-.276-1.008-.504-.289-.229-.514-.518-.676-.864s-.242-.762-.242-1.242c0-.526.092-.963.279-1.305.186-.342.426-.615.719-.818.295-.205.631-.355 1.008-.459.379-.103.762-.184 1.145-.243.385-.061.764-.106 1.135-.145s.703-.09.99-.162c.287-.071.516-.177.684-.314.168-.139.246-.339.234-.604 0-.275-.045-.495-.135-.657-.092-.162-.211-.287-.359-.378-.15-.09-.324-.148-.523-.18-.195-.03-.408-.045-.639-.045-.504 0-.9.105-1.188.323-.289.217-.457.575-.506 1.08h-2.557c.035-.602.184-1.1.449-1.496zm5.049 3.61c-.162.054-.336.099-.523.136l-.584.091c-.205.021-.406.054-.611.09-.191.036-.381.084-.566.144-.186.062-.348.144-.484.243-.139.104-.248.231-.332.389-.084.154-.127.354-.127.594 0 .229.043.421.127.576s.195.277.342.368c.145.091.312.152.504.188.191.036.391.054.594.054.504 0 .896-.084 1.17-.252.275-.168.48-.369.613-.604.131-.233.213-.472.242-.711.027-.239.045-.434.045-.575v-.954c-.113.093-.248.168-.41.223zm-544.403 23.015c.114.196.261.358.441.483.18.127.387.222.621.279.234.059.477.09.729.09.18 0 .369-.021.567-.062.198-.041.378-.107.54-.197s.297-.21.405-.359c.108-.148.162-.34.162-.567 0-.384-.255-.672-.765-.862-.51-.192-1.222-.384-2.133-.576-.372-.084-.735-.183-1.089-.297s-.669-.265-.945-.45c-.276-.186-.499-.42-.666-.701-.168-.28-.252-.627-.252-1.034 0-.602.117-1.093.351-1.478.234-.384.543-.688.927-.908.384-.223.816-.379 1.296-.469s.972-.135 1.476-.135.993.048 1.467.145.897.259 1.269.485.681.53.927.909c.246.378.393.854.441 1.431h-2.43c-.036-.491-.222-.825-.558-.999s-.732-.261-1.188-.261l-.468.026c-.168.019-.321.058-.459.116-.138.062-.255.146-.351.261-.096.114-.144.269-.144.459 0 .229.084.414.252.56.168.145.387.261.657.352.27.09.579.172.927.243l1.062.233c.372.084.735.187 1.089.306.354.12.668.279.945.478.276.199.498.444.666.737.168.296.252.657.252 1.091 0 .61-.124 1.125-.369 1.539-.246.413-.567.745-.963.997-.396.253-.849.432-1.359.531-.51.103-1.029.153-1.557.153-.54 0-1.068-.056-1.584-.162-.516-.108-.975-.288-1.377-.54-.402-.252-.732-.585-.99-.999s-.399-.935-.423-1.558h2.43c.001.275.057.512.171.71zm7.587-8.433v-2.104h2.556v2.104h-2.556zm2.556 1.44v9.306h-2.556v-9.306h2.556zm4.5 0v1.26h.036c.336-.479.741-.853 1.215-1.116.474-.264 1.017-.396 1.629-.396.588 0 1.125.114 1.611.342.486.229.855.63 1.107 1.206.276-.408.651-.768 1.125-1.08.474-.312 1.035-.468 1.683-.468.492 0 .948.06 1.368.18.42.12.78.312 1.08.576.3.265.534.608.702 1.035.168.426.252.938.252 1.539v6.228h-2.556v-5.272c0-.312-.012-.605-.036-.884-.024-.273-.09-.516-.198-.72-.108-.204-.267-.366-.477-.484-.21-.119-.495-.181-.855-.181s-.651.068-.873.206c-.222.139-.396.318-.521.54-.126.224-.21.476-.252.756-.042.282-.063.567-.063.855v5.184h-2.556v-5.22c0-.276-.006-.549-.018-.819-.012-.27-.063-.519-.153-.746-.09-.229-.24-.411-.45-.55-.21-.138-.519-.206-.927-.206-.12 0-.279.026-.477.08-.198.056-.39.156-.576.308-.186.148-.345.364-.477.646s-.198.651-.198 1.106v5.398h-2.556v-9.306l2.411.003zm19.575 7.38c.282-.168.51-.387.684-.657.174-.27.297-.585.369-.943.072-.359.108-.728.108-1.1s-.039-.737-.117-1.098c-.078-.36-.207-.684-.387-.964-.18-.281-.411-.511-.693-.686-.282-.174-.627-.261-1.035-.261-.42 0-.771.087-1.053.261-.282.175-.51.399-.684.675-.174.276-.297.597-.369.955-.072.359-.108.731-.108 1.115 0 .372.039.738.117 1.098.078.36.204.677.378.945.174.271.405.489.693.657.288.168.636.252 1.044.252.42.003.771-.081 1.053-.249zm-3.321-7.38v1.188h.036c.312-.505.708-.871 1.188-1.099.479-.228 1.008-.342 1.584-.342.731 0 1.362.138 1.89.413.528.274.966.643 1.314 1.099.348.456.606.987.774 1.593.168.606.252 1.239.252 1.899 0 .624-.084 1.224-.252 1.8-.168.576-.423 1.086-.765 1.53-.342.441-.768.798-1.278 1.062-.51.265-1.107.396-1.791.396-.576 0-1.107-.117-1.593-.353-.486-.234-.885-.578-1.197-1.035h-.036v4.41h-2.556v-12.562l2.43.001zm11.196-3.546v12.852h-2.556v-12.852h2.556zm7.641 5.724c-.306-.336-.771-.504-1.395-.504-.408 0-.747.069-1.017.207s-.486.31-.648.513c-.162.204-.276.42-.342.648-.066.229-.105.432-.117.611h4.158c-.121-.647-.334-1.139-.639-1.475zm-2.889 4.895c.384.371.936.559 1.656.559.516 0 .96-.129 1.332-.387.372-.26.6-.531.684-.819h2.25c-.36 1.116-.912 1.914-1.656 2.395-.744.479-1.645.722-2.7.722-.732 0-1.392-.117-1.98-.354-.588-.231-1.086-.564-1.494-.998-.408-.433-.723-.946-.945-1.549-.222-.6-.333-1.26-.333-1.979 0-.696.114-1.347.342-1.944s.552-1.118.972-1.557c.42-.438.921-.783 1.503-1.035.582-.252 1.227-.378 1.935-.378.792 0 1.482.152 2.07.459.587.306 1.071.717 1.449 1.231.378.518.651 1.104.819 1.766.168.661.228 1.35.18 2.068h-6.714c.035.83.245 1.429.63 1.8zm29.22-4.895c-.306-.336-.771-.504-1.395-.504-.408 0-.747.069-1.017.207s-.486.31-.648.513c-.162.204-.276.42-.342.648-.066.229-.105.432-.117.611h4.158c-.12-.647-.332-1.139-.639-1.475zm-2.889 4.895c.384.371.936.559 1.656.559.516 0 .96-.129 1.332-.387.372-.26.6-.531.684-.819h2.25c-.36 1.116-.912 1.914-1.656 2.395-.744.479-1.644.722-2.7.722-.732 0-1.392-.117-1.98-.354-.588-.231-1.086-.564-1.494-.998-.408-.433-.723-.946-.945-1.549-.222-.6-.333-1.26-.333-1.979 0-.696.114-1.347.342-1.944s.552-1.118.972-1.557c.42-.439.921-.783 1.503-1.035s1.227-.378 1.935-.378c.792 0 1.482.152 2.07.459.587.306 1.071.717 1.449 1.231.378.518.651 1.104.819 1.766.168.661.228 1.35.18 2.068h-6.714c.036.83.246 1.429.63 1.8zm11.034 5.005c-.492.323-1.177.484-2.053.484-.264 0-.524-.01-.782-.025l-.783-.063v-2.104l.738.071s.504.029.756.02c.336-.036.585-.169.747-.396.161-.229.242-.479.242-.757 0-.204-.035-.396-.107-.575l-3.258-8.729h2.718l2.105 6.372h.036l2.034-6.372h2.646l-3.889 10.458c-.274.752-.658 1.292-1.15 1.616zm9.536-15.624v12.852h-2.556v-12.852h2.556zm4.392 9.297c.071.354.194.672.369.954.174.28.404.507.692.675s.648.252 1.08.252.795-.084 1.089-.252.528-.395.702-.675c.174-.282.297-.602.369-.954.072-.354.108-.717.108-1.089s-.036-.738-.108-1.1c-.072-.358-.195-.679-.369-.955-.174-.273-.408-.5-.702-.674-.294-.175-.657-.262-1.089-.262s-.792.087-1.08.262c-.288.174-.519.398-.692.674-.175.276-.298.597-.369.955-.072.359-.108.728-.108 1.1s.036.736.108 1.089zm-2.322-3.114c.228-.604.552-1.122.972-1.548.42-.426.924-.756 1.513-.99.587-.233 1.247-.351 1.979-.351s1.396.116 1.989.351c.593.235 1.101.564 1.521.99.42.426.744.941.973 1.548.228.606.342 1.281.342 2.024 0 .744-.114 1.416-.342 2.017-.229.602-.553 1.113-.973 1.539-.42.426-.927.753-1.521.979-.594.229-1.257.344-1.989.344s-1.393-.114-1.979-.344c-.589-.229-1.093-.556-1.513-.979-.42-.425-.744-.938-.972-1.539-.229-.601-.342-1.271-.342-2.017 0-.744.113-1.418.342-2.024zm16.236 4.257c.275-.144.504-.336.684-.576.18-.237.315-.513.405-.816.09-.309.135-.627.135-.963 0-.386-.036-.747-.108-1.091-.071-.343-.191-.646-.359-.907-.169-.266-.391-.477-.666-.632-.276-.154-.624-.232-1.044-.232-.36 0-.67.072-.928.216-.258.145-.474.339-.647.585s-.3.528-.378.847c-.078.317-.117.65-.117 1 0 .336.033.67.099.998.066.329.181.629.343.893.161.264.375.479.639.646.264.17.594.252.99.252.357-.004.676-.076.952-.22zm3.501 3.095c-.103.479-.321.928-.657 1.342s-.822.765-1.458 1.053c-.637.288-1.488.432-2.557.432-.456 0-.921-.057-1.395-.17-.475-.114-.906-.291-1.296-.53-.391-.24-.714-.55-.972-.929-.259-.377-.405-.83-.441-1.356h2.538c.12.479.354.812.702.999.348.186.75.277 1.206.277.72 0 1.244-.217 1.575-.646.329-.434.488-.979.477-1.64v-1.225h-.036c-.276.492-.669.854-1.179 1.089-.511.234-1.047.354-1.611.354-.696 0-1.296-.123-1.8-.369s-.918-.582-1.242-1.009c-.324-.427-.561-.925-.711-1.493-.15-.57-.225-1.173-.225-1.811 0-.601.087-1.18.261-1.735.174-.56.429-1.051.765-1.478.336-.427.753-.766 1.251-1.018.498-.252 1.071-.378 1.72-.378.611 0 1.148.114 1.61.342.462.228.849.612 1.161 1.151h.036v-1.241h2.43v8.712c0 .372-.05.798-.152 1.277zm7.496-3.095c.276-.144.504-.336.685-.576.18-.237.314-.513.405-.816.09-.309.135-.627.135-.963 0-.386-.036-.747-.108-1.091-.071-.343-.192-.646-.359-.907-.169-.266-.391-.477-.666-.632-.276-.154-.624-.232-1.044-.232-.36 0-.67.072-.928.216-.258.145-.474.339-.647.585-.175.246-.301.528-.378.847-.078.317-.117.65-.117 1 0 .336.033.67.099.998.066.329.181.629.342.893.162.264.375.479.64.646.264.17.594.252.99.252.357-.004.676-.076.951-.22zm3.501 3.095c-.102.479-.321.928-.656 1.342-.337.414-.822.765-1.458 1.053-.637.288-1.488.432-2.557.432-.456 0-.921-.057-1.395-.17-.475-.114-.906-.291-1.296-.53-.391-.24-.714-.55-.973-.929-.258-.377-.404-.83-.44-1.356h2.538c.119.479.354.812.702.999.348.186.749.277 1.206.277.72 0 1.244-.217 1.574-.646.33-.434.489-.979.478-1.64v-1.225h-.036c-.276.492-.669.854-1.179 1.089-.511.234-1.048.354-1.611.354-.696 0-1.296-.123-1.8-.369s-.918-.582-1.242-1.009-.562-.925-.711-1.493c-.15-.57-.226-1.173-.226-1.811 0-.601.088-1.18.262-1.735.174-.56.429-1.051.765-1.478s.753-.766 1.251-1.018 1.071-.378 1.719-.378c.612 0 1.149.114 1.611.342s.849.612 1.161 1.151h.036v-1.241h2.43v8.712c.001.372-.05.798-.153 1.277zm7.83-7.811c-.306-.336-.771-.504-1.395-.504-.408 0-.747.069-1.018.207-.27.138-.485.31-.647.513-.162.204-.276.42-.342.648-.066.229-.105.432-.117.611h4.158c-.12-.647-.333-1.139-.639-1.475zm-2.888 4.895c.384.371.936.559 1.656.559.516 0 .96-.129 1.331-.387.372-.26.601-.531.685-.819h2.25c-.36 1.116-.912 1.914-1.656 2.395-.744.479-1.644.722-2.7.722-.731 0-1.392-.117-1.979-.354-.588-.231-1.086-.564-1.494-.998-.408-.433-.723-.946-.945-1.549-.222-.6-.333-1.26-.333-1.979 0-.696.114-1.347.343-1.944.228-.601.552-1.118.972-1.557.42-.438.921-.783 1.503-1.035s1.227-.378 1.935-.378c.792 0 1.482.152 2.07.459.588.306 1.071.717 1.449 1.231.378.518.65 1.104.818 1.766s.229 1.35.181 2.068h-6.714c.034.83.243 1.429.628 1.8zm10.025-7.073v1.728h.036c.12-.287.282-.555.486-.801.204-.246.438-.456.702-.63.264-.174.546-.31.846-.405.3-.096.612-.144.937-.144.167 0 .354.028.558.09v2.376l-.433-.062c-.168-.019-.33-.025-.485-.025-.468 0-.864.078-1.188.232-.324.155-.585.369-.783.641-.197.271-.339.585-.423.943-.084.359-.126.75-.126 1.171v4.192h-2.556v-9.306h2.429zm5.851 6.532v2.771h-2.826v-2.771h2.826zm-85.089-10.091v6.893l3.222-3.348h3.023l-3.51 3.42 3.906 5.886h-3.096l-2.557-4.158-.989.955v3.203h-2.557v-12.851h2.558z"/></svg>