<?xml version="1.0" encoding="utf-8"?>
<!-- Generator: Adobe Illustrator 16.0.0, SVG Export Plug-In . SVG Version: 6.00 Build 0)  -->
<!DOCTYPE svg PUBLIC "-//W3C//DTD SVG 1.1//EN" "http://www.w3.org/Graphics/SVG/1.1/DTD/svg11.dtd">
<svg version="1.1" id="Layer_1" xmlns="http://www.w3.org/2000/svg" xmlns:xlink="http://www.w3.org/1999/xlink" x="0px" y="0px"
	 width="750px" height="510px" viewBox="0 0 750 510" enable-background="new 0 0 750 510" xml:space="preserve">
<path fill="#C62139" d="M64.339,432.334h586.668V436H64.339V432.334z"/>
<path fill="#FFFFFF" d="M106.673,225.732h6.609c-0.064,0.491-0.109,0.989-0.109,1.5v8c0,6.352,5.148,11.5,11.5,11.5
	c6.351,0,11.5-5.148,11.5-11.5v-8c0-0.511-0.044-1.009-0.109-1.5h37.609c3.037,0,5.5-2.464,5.5-5.5c0-3.037-2.463-5.5-5.5-5.5h-67
	c-3.038,0-5.5,2.463-5.5,5.5S103.635,225.732,106.673,225.732z M123.162,227.982c0-0.69,0.677-1.25,1.512-1.25
	s1.512,0.56,1.512,1.25v7.5c0,0.689-0.677,1.25-1.512,1.25s-1.512-0.561-1.512-1.25V227.982z M339.077,223.732h-15.903v-11h-71v52
	c0,5.521,4.479,10,10,10h7v28.309c0,3.695,3.05,6.691,6.812,6.691h4.257c3.763,0,6.812-2.996,6.812-6.691v-24.766l12.295,20.914
	c1.895,3.213,6.061,4.328,9.307,2.492l3.673-2.076c3.246-1.836,4.342-5.931,2.448-9.144l-9.25-15.729h7.646c5.521,0,10-4.479,10-10
	v-22h15.903c3.919,0,7.097-3.24,7.097-7.238v-4.523C346.173,226.972,342.996,223.732,339.077,223.732L339.077,223.732z
	 M450.174,189.732h-64c-6.627,0-10,4.373-10,11v99c0,6.627,3.373,10,10,10h64c6.627,0,10-3.373,10-10v-100
	C460.174,193.105,456.801,189.732,450.174,189.732z M418.174,304.732c-1.658,0-3-1.344-3-3c0-1.657,1.342-3,3-3c1.656,0,3,1.343,3,3
	C421.174,303.389,419.83,304.732,418.174,304.732z M452.174,294.732h-68v-97h68V294.732z M322.241,196.249
	c-3.512-15.211-16.365-25.924-31.184-27.339l2.768-8.342c0.318-1.059-0.278-2.175-1.336-2.493c-1.059-0.32-2.175,0.278-2.493,1.335
	l-3.104,9.354c-2.172,0.051-4.369,0.293-6.572,0.761l-0.85,0.199l-3.12-7.313c-0.318-1.057-1.436-1.655-2.493-1.335
	c-1.058,0.319-1.654,1.436-1.336,2.493l3.11,7.29c-14.192,5.102-23.558,18.687-23.445,33.609l-0.014,0.265v8l69.884-16.788
	L322.241,196.249L322.241,196.249z M301.673,193.732c-4.694,0-8.5-3.807-8.5-8.5c0-4.694,3.806-8.5,8.5-8.5
	c4.694,0,8.5,3.806,8.5,8.5S306.368,193.732,301.673,193.732z M646.174,246.732h-31c-3.312,0-5,1.687-5,5v53c0,3.312,1.688,5,5,5h31
	c3.312,0,5-1.688,5-5v-53C651.174,248.418,649.486,246.732,646.174,246.732z M633.146,305.732h-4.445c-0.566,0-1.027-0.447-1.027-1
	c0-0.557,0.461-1,1.027-1h4.445c0.565,0,1.024,0.443,1.024,1C634.174,305.285,633.715,305.732,633.146,305.732z M647.174,300.732
	h-33v-49h33V300.732z M362.173,81.731h-37c-3.312,0-5,1.688-5,5.001v53c0,3.312,1.688,5,5,5h37c3.312,0,5-1.688,5-5v-53
	C367.173,83.418,365.486,81.731,362.173,81.731z M346.147,140.732h-4.446c-0.566,0-1.026-0.447-1.026-1c0-0.554,0.46-1,1.026-1
	h4.446c0.565,0,1.024,0.446,1.024,1C347.173,140.285,346.714,140.732,346.147,140.732z M363.173,135.732h-39v-49h39V135.732z
	 M161.16,184.722l6.514-6.514l6.514,6.514l6.978-6.977l-6.515-6.514l6.515-6.515l-6.978-6.977l-6.514,6.514l-6.514-6.514
	l-6.978,6.977l6.515,6.515l-6.515,6.514L161.16,184.722L161.16,184.722z M205.875,81.731H76.48c-6.797,0-12.307,5.47-12.307,12.215
	v203.572c0,6.746,5.51,12.215,12.307,12.215h129.396c6.798,0,12.308-5.469,12.308-12.215V93.946
	C218.182,87.201,212.672,81.731,205.875,81.731L205.875,81.731z M142.172,89.73c1.655,0,2.998,1.344,2.998,3.002
	c0,1.656-1.342,3-2.998,3c-1.656,0-2.997-1.344-2.997-3C139.175,91.074,140.517,89.73,142.172,89.73z M148.173,299.732h-13
	c-1.657,0-3-1.344-3-3c0-1.657,1.343-3,3-3h13c1.657,0,3,1.343,3,3C151.173,298.389,149.831,299.732,148.173,299.732z
	 M206.173,284.732h-130v-182h130V284.732z M108.16,184.722l6.514-6.514l6.514,6.514l6.978-6.977l-6.515-6.514l6.515-6.515
	l-6.978-6.977l-6.514,6.514l-6.514-6.514l-6.978,6.977l6.515,6.515l-6.515,6.514L108.16,184.722L108.16,184.722z"/>
<path opacity="0.6" fill="#FFFFFF" enable-background="new    " d="M578.021,83.325h-74c-6.629,0-10,3.374-10,10.001v102
	c0,6.628,3.371,10,10,10h74c6.628,0,10-3.372,10-10v-102C588.021,86.699,584.648,83.325,578.021,83.325L578.021,83.325z
	 M545.969,199.326h-8.895c-1.137,0-2.055-0.896-2.055-2s0.92-2,2.055-2h8.895c1.137,0,2.055,0.896,2.055,2
	C548.021,198.429,547.104,199.326,545.969,199.326z M581.834,188.833h-80.333V95.167h80.333V188.833z M549.476,119.875l4.534-4.546
	l4.233,4.245l4.233-4.245l4.533,4.546l-4.232,4.245l4.232,4.245l-4.533,4.546l-4.233-4.245l-4.233,4.245l-4.534-4.546l4.233-4.245
	L549.476,119.875z M515.025,119.875l4.533-4.546l4.233,4.245l4.233-4.245l4.532,4.546l-4.231,4.245l4.231,4.245l-4.532,4.546
	l-4.233-4.245l-4.233,4.245l-4.533-4.546l4.232-4.245L515.025,119.875z M563.42,152.309h-43.819c-1.983,0-3.597,1.795-3.597,4.008
	c0,2.214,1.611,4.008,3.597,4.008h24.438l-0.021,0.408v5.164c0,4.102,3.361,7.426,7.51,7.426c4.146,0,7.507-3.324,7.507-7.426
	v-5.164l-0.021-0.408h4.411c1.986,0,3.597-1.794,3.595-4.008C567.017,154.104,565.406,152.309,563.42,152.309L563.42,152.309z
	 M552.875,167.125h-2.75V160h2.75V167.125z"/>
<path fill="#FFFFFF" d="M64.85,359.73c0.36,0.396,0.798,0.711,1.314,0.944c0.516,0.234,1.044,0.353,1.584,0.353
	c0.612,0,1.152-0.108,1.62-0.324c0.468-0.217,0.875-0.576,1.224-1.08l0.036,0.036c-0.024,0.348-0.075,0.743-0.153,1.188
	c-0.078,0.443-0.207,0.86-0.387,1.25c-0.18,0.391-0.42,0.721-0.72,0.99c-0.3,0.271-0.684,0.405-1.152,0.405
	c-0.444,0-0.816-0.156-1.116-0.468c-0.3-0.312-0.492-0.678-0.576-1.1h-2.43c0.072,0.553,0.222,1.045,0.45,1.477
	c0.228,0.433,0.522,0.799,0.882,1.099c0.36,0.3,0.774,0.524,1.242,0.675c0.468,0.15,0.972,0.227,1.512,0.227
	c0.9,0,1.662-0.195,2.286-0.586s1.134-0.899,1.53-1.529s0.684-1.335,0.864-2.115c0.18-0.779,0.27-1.561,0.27-2.34
	c0-0.792-0.072-1.578-0.216-2.357s-0.402-1.479-0.774-2.098s-0.867-1.115-1.485-1.494c-0.618-0.378-1.407-0.566-2.367-0.566
	c-0.66,0-1.26,0.121-1.8,0.359c-0.54,0.24-1.005,0.567-1.395,0.981c-0.39,0.413-0.69,0.899-0.9,1.458
	c-0.21,0.558-0.315,1.16-0.315,1.809c0,0.504,0.078,1.002,0.234,1.494C64.268,358.91,64.514,359.348,64.85,359.73z M66.56,355.879
	c0.083-0.275,0.209-0.521,0.378-0.738c0.168-0.216,0.372-0.39,0.612-0.521c0.24-0.131,0.51-0.198,0.81-0.198
	c0.324,0,0.612,0.066,0.864,0.198s0.465,0.31,0.639,0.53c0.174,0.223,0.306,0.475,0.396,0.757c0.09,0.282,0.135,0.565,0.135,0.854
	c0,0.312-0.042,0.608-0.126,0.891c-0.084,0.283-0.21,0.531-0.378,0.748c-0.168,0.216-0.378,0.387-0.63,0.513
	c-0.252,0.126-0.552,0.188-0.9,0.188c-0.324,0-0.609-0.068-0.855-0.207s-0.447-0.317-0.603-0.539
	c-0.156-0.224-0.273-0.476-0.351-0.758c-0.078-0.281-0.117-0.572-0.117-0.873C66.434,356.438,66.476,356.155,66.56,355.879
	L66.56,355.879z M77.115,365.176c0.57,0.15,1.161,0.227,1.773,0.227c0.588,0,1.164-0.082,1.728-0.243
	c0.564-0.162,1.068-0.405,1.512-0.729c0.444-0.322,0.801-0.73,1.071-1.224c0.27-0.493,0.405-1.074,0.405-1.746
	c0-0.792-0.204-1.461-0.612-2.007c-0.408-0.546-0.99-0.903-1.746-1.071v-0.036c0.612-0.203,1.071-0.539,1.377-1.008
	c0.306-0.468,0.459-1.014,0.459-1.638c0-0.312-0.072-0.663-0.216-1.054c-0.144-0.391-0.381-0.756-0.711-1.099
	c-0.33-0.342-0.765-0.633-1.305-0.873c-0.54-0.239-1.2-0.358-1.98-0.358c-0.516,0-1.026,0.07-1.53,0.216
	c-0.504,0.144-0.958,0.358-1.359,0.647c-0.402,0.287-0.729,0.647-0.981,1.079c-0.252,0.433-0.378,0.931-0.378,1.494
	c0,0.624,0.156,1.17,0.468,1.638c0.312,0.469,0.774,0.786,1.386,0.955v0.035c-0.756,0.18-1.341,0.54-1.755,1.08
	c-0.414,0.54-0.621,1.212-0.621,2.016c0,0.686,0.135,1.272,0.405,1.766c0.27,0.492,0.63,0.898,1.08,1.224
	C76.035,364.789,76.545,365.025,77.115,365.176z M77.097,355.23c0.102-0.217,0.243-0.396,0.423-0.539
	c0.18-0.146,0.387-0.256,0.621-0.334s0.477-0.116,0.729-0.116c0.396,0,0.717,0.06,0.963,0.18s0.438,0.271,0.576,0.45
	c0.138,0.18,0.231,0.369,0.279,0.566s0.072,0.381,0.072,0.549c0,0.541-0.18,0.951-0.54,1.232c-0.36,0.282-0.81,0.424-1.35,0.424
	c-0.516,0-0.966-0.142-1.35-0.424c-0.384-0.281-0.576-0.691-0.576-1.232C76.944,355.699,76.995,355.447,77.097,355.23L77.097,355.23
	z M77.304,359.866c0.432-0.343,0.96-0.515,1.584-0.515c0.3,0,0.579,0.049,0.837,0.146c0.258,0.096,0.486,0.233,0.684,0.414
	c0.198,0.18,0.354,0.394,0.468,0.639c0.114,0.246,0.171,0.521,0.171,0.819c0,0.312-0.054,0.6-0.162,0.863
	c-0.108,0.265-0.261,0.488-0.459,0.676c-0.198,0.186-0.426,0.33-0.684,0.432c-0.258,0.104-0.543,0.153-0.855,0.153
	c-0.3,0-0.588-0.052-0.864-0.153s-0.513-0.246-0.711-0.432c-0.198-0.188-0.357-0.411-0.477-0.676s-0.18-0.559-0.18-0.883
	C76.656,360.703,76.872,360.208,77.304,359.866z M100.09,361.945c0-0.492-0.048-0.954-0.144-1.387
	c-0.096-0.433-0.261-0.808-0.495-1.125c-0.234-0.317-0.537-0.569-0.909-0.757c-0.372-0.186-0.84-0.278-1.404-0.278
	c-0.528,0-0.984,0.09-1.368,0.271s-0.702,0.426-0.954,0.738c-0.252,0.312-0.438,0.678-0.558,1.098c-0.12,0.42-0.18,0.876-0.18,1.368
	s0.051,0.954,0.153,1.386c0.102,0.433,0.27,0.808,0.504,1.125c0.234,0.318,0.54,0.567,0.918,0.747
	c0.378,0.18,0.843,0.271,1.395,0.271c0.528,0,0.984-0.088,1.368-0.262c0.384-0.175,0.699-0.416,0.945-0.729
	c0.246-0.313,0.429-0.679,0.549-1.099C100.03,362.893,100.09,362.438,100.09,361.945L100.09,361.945z M98.228,362.566
	c-0.018,0.246-0.066,0.479-0.144,0.701s-0.198,0.41-0.36,0.566s-0.381,0.234-0.657,0.234c-0.288,0-0.51-0.078-0.666-0.234
	c-0.156-0.156-0.27-0.346-0.342-0.566c-0.072-0.223-0.114-0.459-0.126-0.711l-0.018-0.666c0-0.203,0.009-0.433,0.027-0.685
	s0.069-0.485,0.153-0.702c0.084-0.216,0.207-0.396,0.369-0.54s0.387-0.216,0.675-0.216c0.264,0,0.471,0.081,0.621,0.243
	c0.15,0.161,0.261,0.354,0.333,0.575c0.072,0.223,0.117,0.457,0.135,0.701c0.018,0.248,0.027,0.461,0.027,0.641
	C98.254,362.102,98.245,362.32,98.228,362.566L98.228,362.566z M89.578,365.545l7.416-13.374h-1.53l-7.452,13.374H89.578z
	 M85.447,358.354c0.234,0.307,0.54,0.547,0.918,0.721c0.378,0.174,0.843,0.261,1.395,0.261c0.528,0,0.984-0.084,1.368-0.252
	c0.384-0.168,0.699-0.401,0.945-0.702c0.246-0.3,0.429-0.656,0.549-1.07s0.18-0.867,0.18-1.358c0-0.492-0.048-0.96-0.144-1.404
	c-0.096-0.442-0.261-0.831-0.495-1.161s-0.538-0.591-0.909-0.783c-0.372-0.19-0.84-0.287-1.404-0.287
	c-0.528,0-0.984,0.094-1.368,0.279c-0.384,0.187-0.702,0.44-0.954,0.766c-0.252,0.322-0.438,0.701-0.558,1.134
	c-0.12,0.432-0.18,0.894-0.18,1.386s0.051,0.951,0.153,1.377C85.045,357.682,85.213,358.048,85.447,358.354z M86.653,355.213
	c0.018-0.264,0.069-0.51,0.153-0.738c0.083-0.228,0.207-0.42,0.369-0.574c0.162-0.156,0.387-0.234,0.675-0.234
	c0.264,0,0.471,0.084,0.621,0.252c0.15,0.168,0.261,0.372,0.333,0.611c0.072,0.24,0.117,0.49,0.135,0.748l0.027,0.656
	c0,0.191-0.009,0.404-0.027,0.64c-0.018,0.233-0.066,0.456-0.144,0.666s-0.198,0.387-0.36,0.53
	c-0.162,0.145-0.381,0.217-0.657,0.217c-0.288,0-0.51-0.072-0.666-0.217c-0.156-0.145-0.27-0.32-0.342-0.53
	s-0.114-0.437-0.126-0.675l-0.018-0.648C86.626,355.711,86.635,355.479,86.653,355.213L86.653,355.213z M205.854,356.365
	c-0.3-0.264-0.66-0.456-1.08-0.576s-0.876-0.18-1.368-0.18c-0.647,0-1.209,0.154-1.683,0.468c-0.474,0.313-0.849,0.672-1.125,1.08
	c-0.252-0.576-0.621-0.979-1.107-1.206c-0.485-0.229-1.022-0.342-1.61-0.342c-0.612,0-1.155,0.132-1.629,0.396
	c-0.475,0.265-0.88,0.638-1.215,1.116H195v-1.26h-2.412v9.306h2.556v-5.399c0-0.455,0.065-0.824,0.198-1.106
	c0.132-0.282,0.291-0.498,0.477-0.647c0.187-0.149,0.378-0.253,0.576-0.307c0.198-0.055,0.357-0.081,0.478-0.081
	c0.407,0,0.717,0.069,0.927,0.207s0.359,0.321,0.45,0.549c0.09,0.229,0.141,0.478,0.152,0.747c0.012,0.271,0.019,0.543,0.019,0.819
	v5.22h2.556v-5.184c0-0.288,0.021-0.573,0.063-0.855c0.041-0.281,0.126-0.533,0.252-0.756s0.3-0.402,0.521-0.54
	s0.514-0.207,0.873-0.207c0.36,0,0.645,0.062,0.855,0.181c0.209,0.119,0.369,0.281,0.477,0.485s0.174,0.444,0.198,0.72
	c0.023,0.276,0.036,0.57,0.036,0.883v5.273h2.556v-6.229c0-0.601-0.084-1.112-0.252-1.539
	C206.388,356.975,206.153,356.629,205.854,356.365L205.854,356.365z M217.231,363.098v-4.843c0-0.563-0.126-1.017-0.378-1.358
	s-0.576-0.608-0.973-0.801c-0.396-0.191-0.834-0.32-1.313-0.388c-0.48-0.065-0.954-0.099-1.422-0.099
	c-0.517,0-1.029,0.051-1.539,0.152c-0.511,0.103-0.97,0.272-1.377,0.514c-0.408,0.24-0.744,0.558-1.008,0.953
	c-0.265,0.396-0.414,0.895-0.45,1.494h2.556c0.048-0.504,0.216-0.863,0.504-1.08s0.685-0.324,1.188-0.324
	c0.228,0,0.44,0.016,0.639,0.046c0.199,0.03,0.372,0.09,0.522,0.18c0.149,0.091,0.27,0.216,0.359,0.378
	c0.091,0.162,0.136,0.381,0.136,0.657c0.012,0.265-0.066,0.465-0.234,0.603c-0.168,0.14-0.396,0.244-0.684,0.315
	s-0.619,0.126-0.99,0.162c-0.372,0.036-0.75,0.084-1.134,0.144c-0.385,0.062-0.766,0.143-1.144,0.243
	c-0.378,0.103-0.714,0.255-1.008,0.459s-0.534,0.478-0.72,0.819c-0.187,0.342-0.279,0.777-0.279,1.305
	c0,0.48,0.081,0.895,0.243,1.242c0.162,0.348,0.387,0.636,0.675,0.864c0.288,0.228,0.624,0.396,1.008,0.504
	c0.384,0.106,0.798,0.161,1.242,0.161c0.576,0,1.14-0.084,1.692-0.252c0.552-0.168,1.031-0.461,1.439-0.883
	c0.012,0.156,0.033,0.311,0.063,0.459c0.029,0.15,0.068,0.299,0.116,0.441h2.593c-0.12-0.191-0.204-0.479-0.252-0.863
	C217.255,363.919,217.231,363.518,217.231,363.098L217.231,363.098z M214.676,361.566c0,0.145-0.016,0.336-0.045,0.576
	c-0.03,0.239-0.111,0.478-0.243,0.711c-0.133,0.233-0.337,0.436-0.612,0.604c-0.276,0.168-0.666,0.252-1.17,0.252
	c-0.204,0-0.402-0.018-0.594-0.054c-0.192-0.036-0.36-0.101-0.504-0.189c-0.145-0.09-0.259-0.213-0.343-0.368
	c-0.084-0.156-0.126-0.349-0.126-0.576c0-0.239,0.042-0.438,0.126-0.594c0.084-0.156,0.195-0.285,0.333-0.388
	c0.138-0.103,0.3-0.183,0.486-0.243c0.186-0.06,0.375-0.107,0.567-0.144l0.611-0.091c0.204-0.023,0.399-0.055,0.585-0.09
	c0.187-0.037,0.36-0.082,0.522-0.136s0.297-0.129,0.405-0.225v0.954H214.676z M219.346,365.167h2.557v-12.853h-2.557V365.167z
	 M233.228,362.161h-0.036l-1.584-6.3h-2.483l-1.548,6.316h-0.036l-1.71-6.316h-2.7l2.952,9.306h2.646l1.584-6.246h0.036l1.656,6.246
	h2.628l2.934-9.306h-2.628L233.228,362.161z M246.838,363.098v-4.843c0-0.563-0.127-1.017-0.379-1.358s-0.575-0.608-0.972-0.801
	c-0.396-0.191-0.834-0.32-1.313-0.388c-0.48-0.065-0.954-0.099-1.423-0.099c-0.516,0-1.028,0.051-1.538,0.152
	c-0.511,0.103-0.97,0.272-1.378,0.514c-0.407,0.24-0.744,0.558-1.008,0.953c-0.264,0.396-0.414,0.895-0.45,1.494h2.557
	c0.048-0.504,0.216-0.863,0.504-1.08s0.684-0.324,1.188-0.324c0.229,0,0.441,0.016,0.64,0.046c0.199,0.03,0.371,0.09,0.521,0.18
	c0.15,0.091,0.271,0.216,0.36,0.378s0.135,0.381,0.135,0.657c0.012,0.265-0.066,0.465-0.234,0.603
	c-0.168,0.14-0.396,0.244-0.684,0.315c-0.288,0.071-0.618,0.126-0.99,0.162s-0.75,0.084-1.134,0.144
	c-0.384,0.062-0.765,0.143-1.143,0.243c-0.378,0.103-0.715,0.255-1.009,0.459s-0.533,0.478-0.72,0.819
	c-0.186,0.342-0.278,0.777-0.278,1.305c0,0.48,0.08,0.895,0.242,1.242s0.388,0.636,0.676,0.864c0.287,0.228,0.623,0.396,1.008,0.504
	c0.384,0.106,0.798,0.161,1.242,0.161c0.575,0,1.14-0.084,1.691-0.252c0.551-0.168,1.032-0.461,1.44-0.883
	c0.012,0.156,0.032,0.311,0.062,0.459c0.03,0.15,0.069,0.299,0.117,0.441h2.592c-0.12-0.191-0.204-0.479-0.252-0.863
	C246.861,363.919,246.838,363.518,246.838,363.098L246.838,363.098z M244.281,361.566c0,0.145-0.015,0.336-0.045,0.576
	c-0.03,0.239-0.111,0.478-0.243,0.711c-0.132,0.233-0.336,0.436-0.612,0.604c-0.275,0.168-0.665,0.252-1.17,0.252
	c-0.204,0-0.401-0.018-0.594-0.054c-0.191-0.036-0.359-0.101-0.504-0.189c-0.144-0.09-0.258-0.213-0.342-0.368
	c-0.084-0.156-0.126-0.349-0.126-0.576c0-0.239,0.042-0.438,0.126-0.594c0.084-0.156,0.194-0.285,0.333-0.388
	c0.138-0.103,0.3-0.183,0.486-0.243c0.186-0.06,0.374-0.107,0.566-0.144l0.612-0.091c0.204-0.023,0.398-0.055,0.585-0.09
	c0.186-0.037,0.36-0.082,0.521-0.136c0.162-0.054,0.298-0.129,0.405-0.225v0.954H244.281z M253.425,355.753
	c-0.3,0.097-0.582,0.231-0.846,0.405c-0.264,0.174-0.498,0.384-0.702,0.63s-0.366,0.513-0.485,0.801h-0.036v-1.728h-2.431v9.306
	h2.557v-4.194c0-0.42,0.042-0.81,0.126-1.17c0.084-0.359,0.225-0.675,0.423-0.943c0.198-0.271,0.459-0.483,0.783-0.641
	c0.323-0.154,0.72-0.232,1.188-0.232c0.156,0,0.318,0.009,0.486,0.025l0.432,0.063v-2.376c-0.204-0.061-0.39-0.09-0.558-0.09
	C254.037,355.609,253.725,355.657,253.425,355.753L253.425,355.753z M264.734,359.064c-0.168-0.659-0.441-1.248-0.819-1.765
	c-0.378-0.516-0.86-0.927-1.448-1.231c-0.589-0.307-1.278-0.459-2.07-0.459c-0.708,0-1.354,0.125-1.935,0.377
	c-0.583,0.253-1.084,0.598-1.503,1.035c-0.421,0.438-0.745,0.957-0.973,1.558s-0.342,1.248-0.342,1.944
	c0,0.72,0.11,1.379,0.333,1.979c0.222,0.602,0.537,1.116,0.945,1.548c0.407,0.433,0.905,0.767,1.493,0.999
	c0.588,0.234,1.248,0.352,1.98,0.352c1.056,0,1.956-0.239,2.7-0.721c0.744-0.479,1.296-1.277,1.656-2.394h-2.25
	c-0.085,0.288-0.312,0.562-0.685,0.819c-0.372,0.258-0.816,0.387-1.332,0.387c-0.72,0-1.271-0.188-1.656-0.559
	c-0.384-0.371-0.594-0.973-0.63-1.801h6.714C264.962,360.415,264.902,359.727,264.734,359.064L264.734,359.064z M258.2,359.516
	c0.012-0.181,0.051-0.385,0.117-0.611c0.065-0.229,0.18-0.444,0.342-0.648c0.162-0.203,0.378-0.375,0.648-0.513
	s0.608-0.207,1.017-0.207c0.624,0,1.089,0.168,1.396,0.504c0.306,0.336,0.519,0.828,0.639,1.476H258.2L258.2,359.516z
	 M275.502,354.421h2.557v-2.104h-2.557V354.421z M275.502,365.167h2.557v-9.306h-2.557V365.167z M288.199,356.662
	c-0.252-0.33-0.597-0.588-1.035-0.773c-0.438-0.187-0.999-0.279-1.683-0.279c-0.54,0-1.068,0.123-1.584,0.369
	c-0.517,0.246-0.937,0.64-1.26,1.18h-0.055v-1.296h-2.43v9.306h2.556v-4.878c0-0.948,0.156-1.629,0.469-2.043
	c0.312-0.414,0.815-0.621,1.512-0.621c0.612,0,1.038,0.188,1.278,0.567c0.239,0.378,0.359,0.951,0.359,1.719v5.256h2.557v-5.725
	c0-0.575-0.052-1.102-0.153-1.574C288.628,357.395,288.451,356.992,288.199,356.662L288.199,356.662z M296.64,362.98
	c-0.33,0.342-0.802,0.513-1.413,0.513c-0.396,0-0.732-0.091-1.008-0.271c-0.276-0.181-0.495-0.41-0.657-0.692
	s-0.279-0.597-0.352-0.945c-0.071-0.348-0.107-0.688-0.107-1.026c0-0.348,0.036-0.697,0.107-1.053
	c0.072-0.354,0.195-0.678,0.369-0.972c0.174-0.294,0.399-0.534,0.675-0.72c0.276-0.188,0.618-0.279,1.026-0.279
	c1.092,0,1.722,0.533,1.89,1.602h2.502c-0.035-0.6-0.18-1.117-0.432-1.557c-0.252-0.439-0.579-0.805-0.98-1.098
	c-0.402-0.295-0.858-0.514-1.368-0.657c-0.511-0.146-1.041-0.216-1.593-0.216c-0.757,0-1.429,0.125-2.017,0.377
	c-0.588,0.253-1.086,0.604-1.494,1.054c-0.408,0.45-0.717,0.983-0.927,1.603c-0.21,0.617-0.314,1.287-0.314,2.008
	c0,0.695,0.113,1.334,0.342,1.916c0.228,0.582,0.546,1.084,0.954,1.504c0.407,0.42,0.902,0.746,1.484,0.979
	c0.582,0.234,1.221,0.353,1.917,0.353c1.236,0,2.25-0.324,3.042-0.973c0.792-0.647,1.272-1.591,1.44-2.826h-2.466
	C297.176,362.18,296.97,362.639,296.64,362.98L296.64,362.98z M301.309,365.167h2.556v-12.853h-2.556V365.167z M312.124,360.739
	c0,0.948-0.155,1.629-0.468,2.043s-0.815,0.62-1.513,0.62c-0.611,0-1.038-0.188-1.277-0.566c-0.24-0.378-0.359-0.951-0.359-1.719
	v-5.256h-2.557v5.724c0,0.576,0.051,1.103,0.153,1.575c0.102,0.475,0.279,0.876,0.531,1.206c0.252,0.33,0.597,0.585,1.035,0.765
	s0.998,0.271,1.683,0.271c0.54,0,1.068-0.12,1.583-0.36c0.517-0.239,0.937-0.63,1.261-1.17h0.054v1.296h2.431v-9.306h-2.557V360.739
	L312.124,360.739z M323.261,356.995h-0.036c-0.288-0.456-0.681-0.802-1.179-1.035s-1.022-0.351-1.575-0.351
	c-0.684,0-1.284,0.135-1.8,0.404c-0.517,0.271-0.945,0.627-1.287,1.07s-0.601,0.957-0.773,1.539s-0.262,1.186-0.262,1.809
	c0,0.648,0.087,1.272,0.262,1.873c0.174,0.601,0.433,1.131,0.773,1.594c0.341,0.461,0.777,0.826,1.306,1.098
	c0.527,0.27,1.141,0.404,1.837,0.404c0.61,0,1.159-0.11,1.646-0.332c0.486-0.223,0.879-0.586,1.179-1.09h0.036v1.188h2.431v-12.853
	h-2.557V356.995L323.261,356.995z M323.243,361.604c-0.072,0.359-0.192,0.682-0.36,0.963s-0.394,0.508-0.675,0.676
	c-0.282,0.168-0.633,0.252-1.053,0.252c-0.396,0-0.735-0.087-1.019-0.262c-0.283-0.174-0.516-0.401-0.702-0.685
	c-0.186-0.28-0.32-0.603-0.403-0.963c-0.084-0.36-0.126-0.72-0.126-1.08c0-0.384,0.038-0.753,0.116-1.106
	c0.077-0.354,0.203-0.668,0.379-0.944c0.173-0.276,0.403-0.498,0.691-0.666s0.643-0.252,1.062-0.252s0.768,0.084,1.044,0.252
	c0.274,0.168,0.501,0.388,0.675,0.657s0.297,0.582,0.369,0.936c0.07,0.354,0.106,0.725,0.106,1.107S323.314,361.243,323.243,361.604
	L323.243,361.604z M327.903,354.421h2.556v-2.104h-2.556V354.421z M327.903,365.167h2.556v-9.306h-2.556V365.167z M340.6,356.662
	c-0.252-0.33-0.597-0.588-1.033-0.773c-0.438-0.187-0.999-0.279-1.685-0.279c-0.54,0-1.067,0.123-1.584,0.369
	c-0.516,0.246-0.936,0.64-1.26,1.18h-0.054v-1.296h-2.432v9.306h2.558v-4.878c0-0.948,0.154-1.629,0.468-2.043
	c0.312-0.414,0.814-0.621,1.512-0.621c0.612,0,1.038,0.188,1.278,0.567c0.24,0.378,0.359,0.951,0.359,1.719v5.256h2.557v-5.725
	c0-0.575-0.052-1.102-0.153-1.574C341.03,357.396,340.852,356.992,340.6,356.662L340.6,356.662z M349.781,357.104h-0.035
	c-0.312-0.539-0.699-0.924-1.161-1.151s-0.999-0.343-1.611-0.343c-0.646,0-1.221,0.127-1.719,0.379s-0.915,0.591-1.251,1.017
	c-0.336,0.427-0.592,0.918-0.766,1.478c-0.174,0.558-0.262,1.137-0.262,1.735c0,0.638,0.075,1.239,0.227,1.81
	c0.148,0.57,0.387,1.068,0.711,1.494c0.323,0.427,0.737,0.763,1.241,1.009c0.505,0.245,1.104,0.368,1.801,0.368
	c0.562,0,1.101-0.116,1.61-0.352c0.509-0.234,0.902-0.597,1.18-1.089h0.035v1.224c0.012,0.66-0.146,1.207-0.478,1.64
	c-0.33,0.432-0.854,0.647-1.575,0.647c-0.455,0-0.857-0.094-1.205-0.279c-0.349-0.187-0.582-0.52-0.702-0.998h-2.538
	c0.036,0.527,0.184,0.979,0.44,1.357c0.258,0.379,0.582,0.688,0.973,0.928c0.391,0.239,0.821,0.416,1.296,0.53
	s0.938,0.171,1.396,0.171c1.067,0,1.92-0.144,2.557-0.432s1.122-0.639,1.458-1.053s0.556-0.861,0.656-1.342
	c0.103-0.479,0.153-0.906,0.153-1.277v-8.713h-2.431V357.104L349.781,357.104z M349.646,361.359c-0.09,0.307-0.225,0.58-0.403,0.818
	c-0.182,0.24-0.408,0.434-0.686,0.576c-0.275,0.145-0.594,0.217-0.954,0.217c-0.396,0-0.726-0.084-0.989-0.253
	c-0.265-0.168-0.478-0.384-0.64-0.647c-0.162-0.262-0.275-0.562-0.342-0.891c-0.065-0.33-0.1-0.664-0.1-1
	c0-0.348,0.039-0.681,0.117-0.998c0.077-0.317,0.203-0.601,0.378-0.847c0.174-0.246,0.39-0.44,0.647-0.585s0.567-0.216,0.927-0.216
	c0.42,0,0.769,0.077,1.044,0.233c0.276,0.155,0.498,0.365,0.666,0.631c0.168,0.264,0.288,0.565,0.36,0.908
	c0.072,0.342,0.107,0.705,0.107,1.09C349.781,360.732,349.736,361.055,349.646,361.359L349.646,361.359z M432.98,363.098v-4.843
	c0-0.563-0.128-1.017-0.38-1.358s-0.575-0.608-0.973-0.801c-0.395-0.191-0.834-0.32-1.312-0.388
	c-0.48-0.065-0.955-0.099-1.425-0.099c-0.516,0-1.026,0.051-1.536,0.152c-0.513,0.103-0.972,0.272-1.378,0.514
	c-0.407,0.24-0.745,0.558-1.01,0.953c-0.264,0.396-0.414,0.895-0.449,1.494h2.558c0.047-0.504,0.215-0.863,0.504-1.08
	c0.287-0.217,0.684-0.324,1.188-0.324c0.229,0,0.441,0.016,0.64,0.046c0.199,0.03,0.373,0.09,0.521,0.18
	c0.15,0.091,0.271,0.216,0.361,0.378s0.135,0.381,0.135,0.657c0.012,0.265-0.065,0.465-0.233,0.603
	c-0.169,0.14-0.396,0.244-0.685,0.315c-0.289,0.071-0.619,0.126-0.99,0.162c-0.373,0.036-0.75,0.084-1.135,0.144
	c-0.383,0.062-0.764,0.143-1.143,0.243c-0.377,0.103-0.713,0.255-1.008,0.459c-0.296,0.204-0.533,0.478-0.722,0.819
	c-0.186,0.342-0.276,0.777-0.276,1.305c0,0.48,0.079,0.895,0.241,1.242s0.388,0.636,0.677,0.864
	c0.286,0.228,0.623,0.396,1.008,0.504c0.383,0.106,0.797,0.161,1.242,0.161c0.573,0,1.139-0.084,1.69-0.252
	c0.551-0.168,1.031-0.461,1.439-0.883c0.012,0.156,0.032,0.311,0.062,0.459c0.031,0.15,0.07,0.299,0.117,0.441h2.592
	c-0.119-0.191-0.203-0.479-0.252-0.863C433.004,363.919,432.98,363.518,432.98,363.098L432.98,363.098z M430.424,361.566
	c0,0.145-0.016,0.336-0.045,0.576c-0.031,0.239-0.111,0.478-0.244,0.711c-0.131,0.233-0.336,0.436-0.61,0.604
	c-0.275,0.168-0.666,0.252-1.171,0.252c-0.204,0-0.401-0.018-0.594-0.054c-0.191-0.036-0.358-0.101-0.504-0.189
	c-0.145-0.089-0.258-0.213-0.342-0.368c-0.084-0.156-0.127-0.349-0.127-0.576c0-0.239,0.043-0.438,0.127-0.594
	c0.084-0.156,0.195-0.285,0.332-0.388c0.139-0.103,0.301-0.183,0.486-0.243c0.186-0.06,0.375-0.107,0.565-0.144l0.613-0.091
	c0.203-0.023,0.397-0.055,0.584-0.09c0.186-0.037,0.361-0.082,0.521-0.136c0.162-0.054,0.3-0.129,0.406-0.225v0.954H430.424z
	 M439.566,355.753c-0.3,0.097-0.582,0.231-0.847,0.405c-0.264,0.174-0.498,0.384-0.701,0.63c-0.204,0.246-0.366,0.513-0.485,0.801
	h-0.035v-1.728h-2.432v9.306h2.557v-4.194c0-0.42,0.043-0.81,0.127-1.17c0.084-0.359,0.225-0.675,0.422-0.943
	c0.199-0.271,0.459-0.483,0.783-0.641c0.324-0.154,0.721-0.232,1.188-0.232c0.156,0,0.318,0.009,0.486,0.025l0.432,0.063v-2.376
	c-0.202-0.061-0.389-0.09-0.557-0.09C440.18,355.609,439.867,355.657,439.566,355.753L439.566,355.753z M450.877,359.064
	c-0.168-0.659-0.441-1.248-0.818-1.765c-0.379-0.516-0.86-0.927-1.448-1.231c-0.588-0.307-1.279-0.459-2.07-0.459
	c-0.709,0-1.354,0.125-1.937,0.377c-0.581,0.252-1.081,0.598-1.502,1.035c-0.422,0.438-0.745,0.957-0.973,1.558
	c-0.229,0.601-0.342,1.248-0.342,1.944c0,0.72,0.109,1.379,0.332,1.979c0.223,0.602,0.537,1.116,0.945,1.548
	c0.407,0.433,0.905,0.767,1.493,0.999c0.589,0.234,1.248,0.352,1.98,0.352c1.055,0,1.955-0.239,2.699-0.721
	c0.744-0.479,1.297-1.277,1.655-2.394h-2.25c-0.084,0.288-0.312,0.562-0.684,0.819c-0.373,0.258-0.816,0.387-1.332,0.387
	c-0.721,0-1.271-0.188-1.656-0.559c-0.385-0.371-0.594-0.973-0.631-1.801h6.715C451.104,360.415,451.045,359.727,450.877,359.064
	L450.877,359.064z M444.342,359.516c0.012-0.181,0.051-0.385,0.117-0.611c0.066-0.229,0.18-0.444,0.342-0.648
	c0.162-0.203,0.379-0.375,0.648-0.513c0.269-0.138,0.608-0.207,1.018-0.207c0.623,0,1.088,0.168,1.396,0.504
	c0.307,0.336,0.52,0.828,0.639,1.476H444.342L444.342,359.516z M464.088,356.995h-0.035c-0.289-0.456-0.682-0.802-1.18-1.035
	s-1.023-0.351-1.574-0.351c-0.684,0-1.285,0.135-1.801,0.404c-0.516,0.271-0.945,0.627-1.287,1.07s-0.6,0.957-0.772,1.539
	c-0.174,0.582-0.263,1.186-0.263,1.809c0,0.648,0.088,1.272,0.263,1.873c0.174,0.601,0.432,1.131,0.772,1.594
	c0.341,0.461,0.777,0.826,1.305,1.098c0.529,0.27,1.142,0.404,1.836,0.404c0.613,0,1.162-0.11,1.648-0.332
	c0.486-0.223,0.879-0.586,1.178-1.09h0.037v1.188h2.43v-12.853h-2.557V356.995L464.088,356.995z M464.07,361.604
	c-0.072,0.359-0.191,0.682-0.359,0.963s-0.395,0.508-0.676,0.676s-0.633,0.252-1.053,0.252c-0.396,0-0.734-0.087-1.019-0.262
	c-0.281-0.174-0.516-0.401-0.701-0.685c-0.186-0.28-0.321-0.603-0.403-0.963c-0.086-0.36-0.127-0.72-0.127-1.08
	c0-0.384,0.039-0.753,0.116-1.106c0.078-0.354,0.203-0.668,0.377-0.944c0.175-0.276,0.406-0.498,0.693-0.666
	c0.289-0.168,0.644-0.252,1.062-0.252s0.768,0.084,1.045,0.252c0.274,0.168,0.5,0.388,0.674,0.657s0.297,0.582,0.369,0.936
	c0.071,0.354,0.106,0.725,0.106,1.107S464.143,361.243,464.07,361.604L464.07,361.604z M477.33,359.064
	c-0.17-0.659-0.441-1.248-0.82-1.765c-0.377-0.516-0.86-0.927-1.449-1.231c-0.588-0.307-1.276-0.459-2.069-0.459
	c-0.707,0-1.353,0.125-1.935,0.377c-0.582,0.253-1.084,0.598-1.504,1.035c-0.42,0.438-0.744,0.957-0.971,1.558
	c-0.229,0.601-0.344,1.248-0.344,1.944c0,0.72,0.11,1.379,0.334,1.979c0.223,0.602,0.537,1.116,0.944,1.548
	c0.408,0.433,0.906,0.767,1.494,0.999c0.588,0.234,1.248,0.352,1.979,0.352c1.057,0,1.957-0.239,2.701-0.721
	c0.743-0.479,1.295-1.277,1.655-2.394h-2.25c-0.084,0.288-0.312,0.562-0.684,0.819c-0.373,0.258-0.816,0.387-1.332,0.387
	c-0.721,0-1.273-0.188-1.656-0.559c-0.385-0.371-0.594-0.973-0.631-1.801h6.715C477.557,360.415,477.496,359.727,477.33,359.064
	L477.33,359.064z M470.795,359.516c0.012-0.181,0.051-0.385,0.117-0.611c0.066-0.229,0.18-0.444,0.342-0.648
	c0.162-0.203,0.379-0.375,0.648-0.513c0.269-0.138,0.608-0.207,1.018-0.207c0.623,0,1.088,0.168,1.396,0.504
	c0.307,0.336,0.52,0.828,0.639,1.476H470.795L470.795,359.516z M486.314,360.352c-0.275-0.196-0.593-0.355-0.945-0.477
	c-0.354-0.121-0.717-0.222-1.088-0.306c-0.361-0.085-0.715-0.162-1.062-0.234c-0.347-0.071-0.656-0.153-0.928-0.243
	c-0.27-0.09-0.488-0.207-0.656-0.351c-0.168-0.146-0.252-0.33-0.252-0.56c0-0.19,0.047-0.345,0.146-0.459
	c0.096-0.113,0.213-0.199,0.35-0.261c0.139-0.06,0.291-0.099,0.459-0.116c0.168-0.019,0.324-0.027,0.469-0.027
	c0.455,0,0.853,0.088,1.188,0.262s0.521,0.507,0.559,0.999h2.431c-0.05-0.576-0.195-1.054-0.441-1.431
	c-0.246-0.379-0.555-0.683-0.926-0.909c-0.373-0.229-0.795-0.39-1.271-0.486c-0.475-0.096-0.963-0.144-1.467-0.144
	s-0.996,0.045-1.477,0.135c-0.481,0.09-0.912,0.246-1.295,0.468c-0.386,0.224-0.693,0.524-0.929,0.909
	c-0.234,0.384-0.352,0.876-0.352,1.477c0,0.407,0.084,0.754,0.252,1.034c0.168,0.282,0.391,0.517,0.666,0.702
	c0.274,0.188,0.592,0.336,0.944,0.45c0.354,0.114,0.718,0.213,1.091,0.297c0.909,0.192,1.621,0.384,2.133,0.576
	c0.51,0.19,0.764,0.479,0.764,0.862c0,0.229-0.053,0.418-0.162,0.567c-0.106,0.149-0.241,0.271-0.403,0.36
	c-0.162,0.089-0.343,0.156-0.539,0.197c-0.199,0.043-0.39,0.062-0.568,0.062c-0.252,0-0.494-0.03-0.729-0.09
	c-0.235-0.061-0.441-0.153-0.621-0.279c-0.181-0.126-0.326-0.288-0.441-0.484c-0.113-0.198-0.17-0.437-0.17-0.713h-2.43
	c0.022,0.625,0.164,1.145,0.422,1.559s0.588,0.747,0.99,0.999c0.401,0.252,0.86,0.432,1.377,0.54
	c0.516,0.107,1.045,0.162,1.584,0.162c0.526,0,1.047-0.053,1.557-0.153s0.963-0.279,1.359-0.531
	c0.396-0.252,0.717-0.585,0.963-0.999s0.369-0.927,0.369-1.539c0-0.432-0.084-0.795-0.252-1.089S486.59,360.55,486.314,360.352
	L486.314,360.352z M488.9,365.167h2.557v-9.306H488.9V365.167z M488.9,354.421h2.557v-2.104H488.9V354.421z M500.027,357.104h-0.037
	c-0.312-0.539-0.699-0.924-1.16-1.151c-0.463-0.228-1-0.343-1.611-0.343c-0.647,0-1.221,0.127-1.719,0.379s-0.916,0.591-1.252,1.017
	c-0.336,0.427-0.59,0.918-0.764,1.478c-0.177,0.558-0.263,1.137-0.263,1.736c0,0.637,0.074,1.238,0.226,1.809
	c0.149,0.57,0.387,1.068,0.711,1.494c0.324,0.427,0.738,0.763,1.242,1.009c0.504,0.245,1.104,0.368,1.801,0.368
	c0.562,0,1.1-0.116,1.611-0.352c0.51-0.234,0.901-0.597,1.178-1.089h0.037v1.224c0.012,0.66-0.148,1.207-0.479,1.64
	c-0.33,0.432-0.854,0.647-1.574,0.647c-0.457,0-0.856-0.094-1.204-0.279c-0.351-0.187-0.585-0.52-0.703-0.998h-2.537
	c0.035,0.527,0.182,0.979,0.438,1.357c0.261,0.379,0.582,0.688,0.974,0.928c0.391,0.239,0.821,0.416,1.297,0.53
	c0.473,0.114,0.938,0.171,1.395,0.171c1.068,0,1.92-0.144,2.558-0.432c0.635-0.288,1.12-0.639,1.457-1.053
	c0.336-0.414,0.555-0.861,0.655-1.342c0.104-0.479,0.154-0.905,0.154-1.277v-8.713h-2.43V357.104L500.027,357.104z M499.893,361.359
	c-0.092,0.307-0.227,0.58-0.405,0.818c-0.181,0.24-0.408,0.434-0.685,0.576c-0.274,0.145-0.594,0.217-0.953,0.217
	c-0.396,0-0.727-0.084-0.989-0.252c-0.267-0.169-0.479-0.385-0.642-0.647c-0.16-0.265-0.274-0.562-0.342-0.892
	c-0.063-0.33-0.098-0.664-0.098-1c0-0.348,0.039-0.681,0.117-0.998c0.075-0.317,0.202-0.601,0.377-0.847
	c0.174-0.246,0.391-0.44,0.647-0.585s0.566-0.216,0.928-0.216c0.419,0,0.769,0.078,1.044,0.233c0.274,0.155,0.497,0.365,0.665,0.631
	c0.169,0.264,0.287,0.565,0.359,0.908c0.072,0.342,0.109,0.705,0.109,1.09C500.027,360.732,499.982,361.055,499.893,361.359
	L499.893,361.359z M512.615,356.662c-0.252-0.33-0.599-0.588-1.035-0.773c-0.438-0.187-0.998-0.279-1.682-0.279
	c-0.541,0-1.068,0.123-1.584,0.369c-0.519,0.246-0.938,0.64-1.263,1.18H507v-1.296h-2.43v9.306h2.555v-4.878
	c0-0.948,0.156-1.629,0.469-2.043c0.313-0.414,0.816-0.621,1.513-0.621c0.61,0,1.036,0.188,1.276,0.567
	c0.24,0.378,0.361,0.951,0.361,1.719v5.256h2.555v-5.724c0-0.576-0.051-1.103-0.151-1.575
	C513.046,357.396,512.867,356.992,512.615,356.662L512.615,356.662z M523.971,359.064c-0.168-0.659-0.438-1.248-0.817-1.764
	c-0.377-0.517-0.861-0.928-1.449-1.232c-0.588-0.307-1.277-0.459-2.07-0.459c-0.707,0-1.352,0.125-1.934,0.378
	c-0.582,0.252-1.084,0.597-1.504,1.034c-0.42,0.438-0.744,0.957-0.972,1.558c-0.229,0.601-0.344,1.248-0.344,1.944
	c0,0.72,0.111,1.38,0.334,1.979c0.224,0.602,0.537,1.116,0.945,1.549c0.408,0.432,0.906,0.766,1.494,0.998
	c0.588,0.234,1.248,0.352,1.979,0.352c1.058,0,1.957-0.239,2.701-0.721c0.744-0.479,1.295-1.277,1.656-2.394h-2.25
	c-0.084,0.288-0.312,0.562-0.687,0.819c-0.37,0.258-0.813,0.387-1.33,0.387c-0.721,0-1.272-0.188-1.655-0.559
	c-0.386-0.371-0.595-0.973-0.631-1.801h6.715C524.199,360.415,524.139,359.727,523.971,359.064L523.971,359.064z M517.438,359.516
	c0.012-0.181,0.051-0.385,0.116-0.611c0.066-0.229,0.181-0.444,0.343-0.648c0.161-0.203,0.379-0.375,0.647-0.513
	c0.27-0.138,0.609-0.207,1.019-0.207c0.622,0,1.088,0.168,1.395,0.504c0.305,0.336,0.519,0.828,0.639,1.476H517.438L517.438,359.516
	z M532.283,356.995h-0.035c-0.289-0.456-0.682-0.801-1.18-1.035c-0.498-0.233-1.023-0.351-1.574-0.351
	c-0.684,0-1.285,0.135-1.801,0.404c-0.517,0.271-0.945,0.627-1.287,1.07c-0.342,0.444-0.601,0.957-0.773,1.539
	s-0.262,1.186-0.262,1.809c0,0.648,0.088,1.272,0.262,1.873s0.433,1.131,0.773,1.594c0.341,0.462,0.776,0.826,1.305,1.098
	c0.529,0.27,1.141,0.404,1.836,0.404c0.613,0,1.162-0.11,1.648-0.332c0.485-0.223,0.879-0.586,1.178-1.09h0.037v1.188h2.43v-12.853
	h-2.557V356.995L532.283,356.995z M532.266,361.604c-0.071,0.359-0.19,0.682-0.358,0.963s-0.396,0.508-0.677,0.676
	c-0.28,0.168-0.633,0.252-1.053,0.252c-0.396,0-0.733-0.087-1.018-0.262c-0.281-0.174-0.517-0.401-0.701-0.684
	c-0.186-0.281-0.32-0.604-0.404-0.964s-0.127-0.72-0.127-1.08c0-0.384,0.039-0.753,0.117-1.106s0.203-0.668,0.377-0.944
	s0.406-0.498,0.693-0.666c0.289-0.168,0.643-0.252,1.062-0.252s0.769,0.084,1.045,0.252c0.275,0.168,0.5,0.388,0.675,0.657
	c0.174,0.27,0.297,0.582,0.368,0.936c0.072,0.354,0.107,0.725,0.107,1.107S532.338,361.243,532.266,361.604L532.266,361.604z
	 M545.441,352.314c-1.043,0-1.824,0.265-2.341,0.793c-0.516,0.527-0.772,1.205-0.772,2.033v0.721h-1.531v1.71h1.531v7.596h2.555
	v-7.596h1.766v-1.71h-1.766v-0.559c0-0.385,0.076-0.658,0.228-0.818c0.147-0.162,0.397-0.243,0.745-0.243
	c0.324,0,0.638,0.019,0.937,0.054v-1.908l-0.666-0.045C545.897,352.324,545.67,352.314,545.441,352.314L545.441,352.314z
	 M555.705,356.95c-0.42-0.427-0.928-0.756-1.521-0.99c-0.593-0.233-1.256-0.351-1.987-0.351c-0.732,0-1.394,0.115-1.98,0.351
	s-1.092,0.563-1.512,0.99c-0.42,0.426-0.744,0.942-0.974,1.548c-0.227,0.605-0.342,1.281-0.342,2.025s0.115,1.416,0.342,2.016
	c0.229,0.602,0.554,1.113,0.974,1.539s0.924,0.753,1.512,0.98c0.588,0.229,1.248,0.343,1.98,0.343c0.731,0,1.395-0.114,1.987-0.343
	c0.595-0.229,1.103-0.556,1.521-0.98s0.744-0.938,0.973-1.539c0.228-0.6,0.342-1.271,0.342-2.016c0-0.745-0.114-1.42-0.342-2.025
	C556.449,357.893,556.125,357.376,555.705,356.95z M554.355,361.612c-0.072,0.354-0.195,0.672-0.369,0.954
	c-0.175,0.281-0.408,0.507-0.701,0.675c-0.295,0.168-0.658,0.252-1.09,0.252c-0.433,0-0.793-0.084-1.08-0.252
	s-0.521-0.394-0.693-0.675c-0.174-0.282-0.297-0.602-0.369-0.954c-0.072-0.354-0.106-0.718-0.106-1.089
	c0-0.372,0.034-0.738,0.106-1.1c0.072-0.359,0.195-0.678,0.369-0.953s0.406-0.502,0.693-0.676s0.647-0.261,1.08-0.261
	c0.432,0,0.795,0.087,1.09,0.261c0.293,0.174,0.526,0.399,0.701,0.676c0.174,0.275,0.297,0.594,0.369,0.953
	c0.071,0.36,0.106,0.728,0.106,1.1C554.462,360.895,554.428,361.258,554.355,361.612z M563.203,355.753
	c-0.299,0.097-0.582,0.231-0.846,0.405c-0.265,0.174-0.498,0.384-0.701,0.63c-0.205,0.246-0.367,0.513-0.486,0.801h-0.035v-1.728
	h-2.432v9.306h2.557v-4.194c0-0.42,0.041-0.81,0.127-1.17c0.084-0.358,0.226-0.675,0.422-0.943c0.199-0.271,0.459-0.483,0.783-0.641
	c0.324-0.154,0.722-0.232,1.188-0.232c0.155,0,0.317,0.009,0.485,0.025l0.433,0.063v-2.376c-0.203-0.061-0.39-0.09-0.558-0.09
	C563.816,355.609,563.504,355.657,563.203,355.753L563.203,355.753z M579.062,363.098v-4.843c0-0.563-0.128-1.017-0.38-1.358
	s-0.575-0.608-0.973-0.801c-0.396-0.191-0.834-0.32-1.312-0.388c-0.48-0.065-0.955-0.099-1.423-0.099
	c-0.518,0-1.028,0.051-1.539,0.152c-0.512,0.103-0.971,0.272-1.377,0.514c-0.407,0.24-0.743,0.558-1.01,0.953
	c-0.264,0.396-0.412,0.895-0.449,1.494h2.558c0.047-0.504,0.215-0.863,0.504-1.08c0.287-0.217,0.684-0.323,1.188-0.323
	c0.229,0,0.441,0.015,0.64,0.045s0.373,0.09,0.521,0.18c0.15,0.091,0.271,0.216,0.361,0.378s0.135,0.381,0.135,0.657
	c0.012,0.265-0.065,0.465-0.234,0.603c-0.168,0.14-0.396,0.244-0.684,0.315c-0.289,0.072-0.619,0.126-0.99,0.162
	s-0.75,0.084-1.135,0.144c-0.383,0.062-0.764,0.143-1.143,0.244c-0.377,0.103-0.713,0.254-1.009,0.459
	c-0.295,0.203-0.532,0.478-0.721,0.818c-0.186,0.342-0.276,0.777-0.276,1.305c0,0.48,0.079,0.896,0.241,1.242
	c0.162,0.348,0.388,0.637,0.677,0.864c0.286,0.228,0.623,0.396,1.008,0.504c0.383,0.106,0.797,0.162,1.242,0.162
	c0.575,0,1.139-0.084,1.69-0.252c0.551-0.169,1.031-0.462,1.439-0.884c0.012,0.156,0.032,0.311,0.062,0.459
	c0.031,0.15,0.07,0.299,0.117,0.441h2.592c-0.119-0.191-0.203-0.479-0.252-0.863C579.086,363.919,579.062,363.518,579.062,363.098
	L579.062,363.098z M576.506,361.566c0,0.145-0.016,0.337-0.045,0.576c-0.031,0.24-0.111,0.478-0.244,0.711
	c-0.131,0.233-0.336,0.436-0.611,0.604c-0.274,0.168-0.666,0.252-1.17,0.252c-0.202,0-0.401-0.018-0.594-0.054
	c-0.191-0.036-0.358-0.101-0.504-0.188c-0.145-0.09-0.258-0.214-0.342-0.369s-0.127-0.349-0.127-0.576
	c0-0.239,0.043-0.438,0.127-0.594c0.084-0.156,0.195-0.285,0.332-0.388c0.139-0.103,0.301-0.183,0.486-0.243
	c0.186-0.06,0.375-0.106,0.565-0.144l0.613-0.091c0.203-0.023,0.397-0.055,0.584-0.09c0.186-0.037,0.36-0.082,0.522-0.136
	s0.297-0.129,0.404-0.225v0.955L576.506,361.566z M589.195,356.662c-0.252-0.33-0.599-0.588-1.035-0.773
	c-0.438-0.187-0.998-0.278-1.682-0.278c-0.541,0-1.068,0.122-1.587,0.368c-0.516,0.246-0.936,0.64-1.26,1.18h-0.053v-1.296h-2.43
	v9.306h2.555v-4.878c0-0.948,0.156-1.629,0.469-2.043c0.313-0.414,0.816-0.621,1.513-0.621c0.61,0,1.036,0.188,1.276,0.567
	c0.24,0.378,0.361,0.951,0.361,1.719v5.256h2.555v-5.724c0-0.576-0.051-1.103-0.151-1.575
	C589.625,357.396,589.447,356.992,589.195,356.662L589.195,356.662z M598.432,356.995h-0.037c-0.286-0.456-0.68-0.801-1.178-1.035
	c-0.498-0.233-1.022-0.351-1.576-0.351c-0.684,0-1.282,0.135-1.799,0.404c-0.518,0.271-0.944,0.627-1.287,1.07
	c-0.342,0.444-0.602,0.957-0.774,1.539s-0.261,1.186-0.261,1.809c0,0.648,0.087,1.272,0.261,1.873s0.434,1.131,0.774,1.594
	c0.342,0.462,0.775,0.826,1.306,1.098c0.526,0.27,1.141,0.404,1.836,0.404c0.61,0,1.16-0.11,1.646-0.332
	c0.486-0.223,0.879-0.586,1.181-1.09h0.034v1.188h2.431v-12.853h-2.556V356.995L598.432,356.995z M598.414,361.604
	c-0.072,0.359-0.193,0.682-0.361,0.963s-0.393,0.508-0.674,0.676c-0.283,0.168-0.635,0.252-1.055,0.252
	c-0.396,0-0.734-0.087-1.017-0.262c-0.282-0.174-0.516-0.401-0.702-0.684c-0.187-0.281-0.32-0.604-0.404-0.964
	s-0.127-0.72-0.127-1.08c0-0.384,0.039-0.753,0.117-1.106c0.077-0.354,0.205-0.668,0.379-0.944s0.403-0.498,0.692-0.666
	c0.287-0.168,0.642-0.252,1.062-0.252s0.77,0.084,1.045,0.252c0.274,0.168,0.5,0.388,0.676,0.657
	c0.174,0.27,0.297,0.582,0.369,0.936c0.07,0.354,0.107,0.725,0.107,1.107S598.484,361.243,598.414,361.604L598.414,361.604z
	 M607.537,355.753c-0.301,0.097-0.582,0.231-0.846,0.405c-0.265,0.174-0.498,0.384-0.703,0.63c-0.203,0.246-0.365,0.513-0.484,0.801
	h-0.037v-1.728h-2.43v9.306h2.557v-4.194c0-0.42,0.041-0.81,0.125-1.17c0.084-0.358,0.226-0.675,0.424-0.943
	c0.197-0.271,0.459-0.483,0.783-0.641c0.324-0.154,0.719-0.232,1.188-0.232c0.155,0,0.317,0.009,0.485,0.025l0.433,0.063v-2.376
	c-0.205-0.061-0.392-0.09-0.56-0.09C608.148,355.609,607.838,355.657,607.537,355.753L607.537,355.753z M618.172,356.95
	c-0.42-0.427-0.928-0.756-1.521-0.99c-0.594-0.233-1.259-0.351-1.988-0.351c-0.732,0-1.394,0.115-1.98,0.351
	s-1.092,0.563-1.512,0.99c-0.42,0.426-0.744,0.942-0.973,1.548c-0.229,0.605-0.342,1.281-0.342,2.025s0.112,1.416,0.342,2.016
	c0.229,0.602,0.553,1.113,0.973,1.539s0.924,0.753,1.512,0.98c0.589,0.229,1.248,0.342,1.98,0.342c0.729,0,1.395-0.113,1.988-0.342
	s1.102-0.556,1.521-0.98s0.744-0.938,0.971-1.539c0.229-0.6,0.345-1.271,0.345-2.016c0-0.745-0.115-1.42-0.345-2.025
	C618.916,357.893,618.592,357.376,618.172,356.95z M616.822,361.612c-0.072,0.354-0.195,0.672-0.369,0.954
	c-0.174,0.281-0.408,0.507-0.703,0.675c-0.293,0.168-0.656,0.252-1.088,0.252c-0.435,0-0.793-0.084-1.08-0.252
	c-0.289-0.168-0.521-0.394-0.693-0.675c-0.174-0.282-0.297-0.602-0.369-0.954c-0.071-0.354-0.106-0.718-0.106-1.089
	c0-0.372,0.035-0.738,0.106-1.1c0.072-0.359,0.195-0.678,0.369-0.953s0.404-0.502,0.693-0.676c0.287-0.174,0.646-0.261,1.08-0.261
	c0.432,0,0.795,0.087,1.088,0.261c0.295,0.174,0.529,0.399,0.703,0.676c0.174,0.275,0.297,0.594,0.369,0.953
	c0.069,0.36,0.106,0.727,0.106,1.1C616.929,360.895,616.893,361.258,616.822,361.612z M621.227,354.421h2.556v-2.104h-2.556V354.421
	z M621.227,365.167h2.556v-9.306h-2.556V365.167z M632.406,352.314v4.681h-0.037c-0.287-0.456-0.68-0.801-1.178-1.035
	c-0.498-0.233-1.023-0.351-1.576-0.351c-0.685,0-1.283,0.135-1.799,0.404c-0.519,0.271-0.945,0.627-1.287,1.07
	c-0.342,0.444-0.603,0.957-0.775,1.539s-0.26,1.186-0.26,1.809c0,0.648,0.086,1.272,0.26,1.873s0.435,1.131,0.775,1.594
	c0.341,0.461,0.774,0.826,1.305,1.098c0.527,0.27,1.141,0.404,1.836,0.404c0.611,0,1.16-0.11,1.646-0.332
	c0.485-0.223,0.879-0.586,1.18-1.09h0.035v1.188h2.43v-12.853H632.406L632.406,352.314z M632.387,361.604
	c-0.069,0.359-0.19,0.682-0.358,0.963s-0.394,0.508-0.674,0.676c-0.283,0.168-0.636,0.252-1.056,0.252
	c-0.395,0-0.733-0.087-1.016-0.262c-0.283-0.174-0.519-0.401-0.703-0.685c-0.186-0.28-0.32-0.603-0.404-0.963
	s-0.127-0.72-0.127-1.08c0-0.384,0.039-0.753,0.117-1.106s0.205-0.668,0.379-0.944s0.404-0.498,0.693-0.666
	c0.287-0.168,0.641-0.252,1.061-0.252s0.771,0.084,1.045,0.252c0.275,0.168,0.5,0.388,0.677,0.657
	c0.174,0.27,0.297,0.582,0.366,0.936c0.072,0.354,0.109,0.725,0.109,1.107S632.459,361.243,632.387,361.604L632.387,361.604z
	 M70.988,377.995h-0.036c-0.288-0.456-0.682-0.801-1.179-1.035c-0.498-0.233-1.023-0.351-1.575-0.351
	c-0.684,0-1.285,0.135-1.8,0.404c-0.516,0.271-0.945,0.627-1.287,1.07c-0.342,0.444-0.6,0.957-0.774,1.539
	c-0.174,0.582-0.261,1.186-0.261,1.809c0,0.648,0.087,1.272,0.261,1.873c0.174,0.601,0.432,1.131,0.774,1.594
	c0.342,0.461,0.777,0.826,1.305,1.098c0.528,0.27,1.14,0.404,1.836,0.404c0.612,0,1.161-0.11,1.647-0.332
	c0.486-0.223,0.879-0.586,1.179-1.09h0.036v1.188h2.43v-12.853h-2.556V377.995L70.988,377.995z M70.97,382.604
	c-0.072,0.359-0.192,0.682-0.36,0.963c-0.168,0.281-0.393,0.508-0.675,0.676c-0.282,0.168-0.633,0.252-1.053,0.252
	c-0.396,0-0.735-0.087-1.017-0.262c-0.282-0.174-0.517-0.401-0.702-0.685c-0.187-0.28-0.321-0.603-0.405-0.963
	s-0.126-0.72-0.126-1.08c0-0.384,0.039-0.753,0.117-1.106s0.204-0.668,0.378-0.944c0.174-0.276,0.405-0.498,0.693-0.666
	c0.288-0.168,0.642-0.252,1.062-0.252c0.42,0,0.768,0.084,1.044,0.252c0.276,0.168,0.501,0.388,0.675,0.657s0.297,0.582,0.369,0.936
	c0.072,0.354,0.108,0.725,0.108,1.107S71.042,382.243,70.97,382.604L70.97,382.604z M84.229,380.064
	c-0.168-0.659-0.441-1.248-0.819-1.764c-0.378-0.517-0.861-0.928-1.449-1.232c-0.588-0.307-1.278-0.459-2.07-0.459
	c-0.708,0-1.353,0.125-1.935,0.378c-0.582,0.252-1.083,0.597-1.503,1.034c-0.42,0.438-0.744,0.957-0.972,1.558
	s-0.342,1.248-0.342,1.944c0,0.72,0.111,1.38,0.333,1.979c0.222,0.602,0.537,1.116,0.945,1.549c0.408,0.432,0.906,0.766,1.494,0.998
	c0.588,0.234,1.248,0.352,1.98,0.352c1.056,0,1.956-0.239,2.7-0.721c0.744-0.479,1.296-1.277,1.656-2.394h-2.25
	c-0.084,0.288-0.312,0.562-0.684,0.819s-0.816,0.387-1.332,0.387c-0.72,0-1.272-0.188-1.656-0.559
	c-0.384-0.371-0.594-0.973-0.63-1.801h6.714C84.457,381.415,84.396,380.727,84.229,380.064L84.229,380.064z M77.695,380.516
	c0.012-0.181,0.051-0.385,0.117-0.611c0.066-0.229,0.18-0.444,0.342-0.648c0.162-0.203,0.378-0.375,0.648-0.513
	s0.609-0.207,1.017-0.207c0.624,0,1.089,0.168,1.395,0.504c0.306,0.336,0.519,0.828,0.639,1.476H77.695L77.695,380.516z
	 M89.495,383.215h-0.036l-1.962-6.354h-2.682l3.186,9.306h2.844l3.15-9.306h-2.538L89.495,383.215z M95.223,386.167h2.556v-9.306
	h-2.556V386.167z M95.223,375.421h2.556v-2.104h-2.556V375.421z M105.612,383.98c-0.33,0.342-0.801,0.513-1.413,0.513
	c-0.396,0-0.732-0.09-1.008-0.271c-0.276-0.181-0.495-0.41-0.657-0.692s-0.279-0.597-0.351-0.945
	c-0.072-0.348-0.108-0.688-0.108-1.026c0-0.348,0.036-0.697,0.108-1.053c0.072-0.354,0.195-0.678,0.369-0.972
	c0.174-0.294,0.399-0.534,0.675-0.72c0.276-0.188,0.618-0.279,1.026-0.279c1.092,0,1.722,0.534,1.89,1.602h2.502
	c-0.036-0.6-0.18-1.117-0.432-1.557c-0.252-0.438-0.579-0.804-0.981-1.098c-0.402-0.295-0.858-0.514-1.368-0.657
	c-0.51-0.146-1.041-0.216-1.593-0.216c-0.756,0-1.428,0.126-2.016,0.378c-0.588,0.252-1.086,0.603-1.494,1.053
	c-0.408,0.45-0.717,0.983-0.927,1.603c-0.21,0.617-0.315,1.287-0.315,2.008c0,0.695,0.114,1.334,0.342,1.916
	c0.228,0.582,0.546,1.084,0.954,1.504c0.408,0.42,0.902,0.746,1.485,0.98c0.582,0.233,1.221,0.352,1.917,0.352
	c1.236,0,2.25-0.324,3.042-0.973c0.792-0.647,1.272-1.591,1.44-2.826h-2.466C106.149,383.18,105.942,383.639,105.612,383.98
	L105.612,383.98z M118.919,380.064c-0.168-0.659-0.441-1.248-0.819-1.764c-0.378-0.517-0.861-0.928-1.449-1.232
	c-0.588-0.307-1.278-0.459-2.07-0.459c-0.708,0-1.353,0.125-1.935,0.378c-0.582,0.252-1.083,0.597-1.503,1.034
	c-0.42,0.438-0.744,0.957-0.972,1.558c-0.228,0.601-0.342,1.248-0.342,1.944c0,0.72,0.111,1.38,0.333,1.979
	c0.222,0.602,0.537,1.116,0.945,1.549c0.408,0.432,0.906,0.766,1.494,0.998c0.588,0.234,1.248,0.352,1.98,0.352
	c1.056,0,1.956-0.239,2.7-0.721c0.744-0.479,1.296-1.277,1.656-2.394h-2.25c-0.084,0.288-0.312,0.562-0.684,0.819
	s-0.816,0.387-1.332,0.387c-0.72,0-1.272-0.188-1.656-0.559c-0.384-0.371-0.594-0.973-0.63-1.801h6.714
	C119.147,381.415,119.087,380.727,118.919,380.064L118.919,380.064z M112.385,380.516c0.012-0.181,0.051-0.385,0.117-0.611
	c0.066-0.229,0.18-0.444,0.342-0.648c0.162-0.203,0.378-0.375,0.648-0.513s0.609-0.207,1.017-0.207c0.624,0,1.089,0.168,1.395,0.504
	c0.306,0.336,0.519,0.828,0.639,1.476H112.385L112.385,380.516z M127.905,381.352c-0.276-0.196-0.591-0.355-0.945-0.477
	c-0.354-0.12-0.717-0.222-1.089-0.306c-0.36-0.084-0.714-0.162-1.062-0.234c-0.348-0.071-0.657-0.153-0.927-0.243
	s-0.489-0.207-0.657-0.351c-0.168-0.146-0.252-0.33-0.252-0.56c0-0.19,0.048-0.345,0.144-0.459c0.096-0.113,0.213-0.199,0.351-0.261
	c0.138-0.06,0.291-0.099,0.459-0.116c0.168-0.019,0.324-0.026,0.468-0.026c0.456,0,0.852,0.087,1.188,0.261s0.522,0.507,0.558,0.999
	h2.43c-0.048-0.576-0.195-1.054-0.441-1.431c-0.246-0.379-0.555-0.683-0.927-0.909c-0.372-0.229-0.795-0.39-1.269-0.486
	c-0.474-0.096-0.963-0.144-1.467-0.144c-0.504,0-0.996,0.045-1.476,0.135s-0.912,0.246-1.296,0.468
	c-0.384,0.224-0.693,0.525-0.927,0.909s-0.351,0.876-0.351,1.477c0,0.407,0.083,0.754,0.252,1.034
	c0.168,0.282,0.39,0.517,0.666,0.702c0.276,0.188,0.591,0.336,0.945,0.45s0.717,0.213,1.089,0.297
	c0.912,0.192,1.623,0.384,2.133,0.576c0.51,0.19,0.765,0.479,0.765,0.862c0,0.229-0.054,0.418-0.162,0.567
	c-0.108,0.15-0.243,0.271-0.405,0.36c-0.162,0.089-0.342,0.156-0.54,0.197c-0.198,0.043-0.387,0.062-0.567,0.062
	c-0.252,0-0.495-0.029-0.729-0.09c-0.234-0.061-0.441-0.153-0.621-0.279s-0.327-0.288-0.441-0.484
	c-0.114-0.198-0.171-0.437-0.171-0.713h-2.43c0.024,0.625,0.165,1.145,0.423,1.559c0.258,0.414,0.588,0.747,0.99,0.999
	c0.402,0.252,0.861,0.432,1.377,0.54c0.516,0.107,1.044,0.162,1.584,0.162c0.528,0,1.047-0.053,1.557-0.153
	c0.51-0.103,0.963-0.278,1.359-0.531c0.396-0.252,0.717-0.585,0.963-0.999s0.369-0.927,0.369-1.539c0-0.432-0.084-0.795-0.252-1.089
	S128.181,381.55,127.905,381.352L127.905,381.352z M130.56,386.167h2.826v-2.772h-2.826V386.167z"/>
<g>
	<path fill="#FFFFFF" d="M107.632,358.685c0.229-0.61,0.556-1.13,0.979-1.559c0.422-0.43,0.93-0.762,1.522-0.997
		c0.592-0.236,1.256-0.354,1.994-0.354c0.737,0,1.404,0.117,2.002,0.354c0.598,0.235,1.108,0.567,1.531,0.997
		c0.423,0.429,0.75,0.948,0.979,1.559c0.229,0.609,0.344,1.289,0.344,2.039c0,0.748-0.115,1.426-0.344,2.028
		c-0.229,0.605-0.556,1.121-0.979,1.55c-0.423,0.43-0.934,0.759-1.531,0.988c-0.598,0.229-1.266,0.344-2.002,0.344
		c-0.737,0-1.402-0.114-1.994-0.344s-1.1-0.559-1.522-0.988c-0.423-0.429-0.75-0.944-0.979-1.55
		c-0.229-0.603-0.344-1.28-0.344-2.028C107.288,359.974,107.402,359.294,107.632,358.685z M109.97,361.819
		c0.073,0.356,0.196,0.677,0.372,0.96c0.175,0.285,0.408,0.512,0.698,0.681s0.652,0.253,1.087,0.253s0.8-0.084,1.097-0.253
		c0.296-0.169,0.531-0.396,0.706-0.681c0.175-0.283,0.299-0.604,0.372-0.96c0.073-0.356,0.109-0.722,0.109-1.096
		c0-0.375-0.036-0.743-0.109-1.106c-0.072-0.362-0.196-0.682-0.372-0.96s-0.41-0.505-0.706-0.681
		c-0.297-0.175-0.662-0.263-1.097-0.263s-0.797,0.088-1.087,0.263c-0.29,0.176-0.523,0.402-0.698,0.681
		c-0.175,0.278-0.299,0.598-0.372,0.96c-0.072,0.363-0.109,0.731-0.109,1.106C109.861,361.098,109.897,361.463,109.97,361.819z"/>
	<path fill="#FFFFFF" d="M117.409,357.75v-1.721h1.541v-0.725c0-0.834,0.259-1.516,0.779-2.048s1.305-0.798,2.356-0.798
		c0.23,0,0.459,0.009,0.689,0.027c0.229,0.018,0.452,0.034,0.67,0.046v1.92c-0.302-0.036-0.616-0.054-0.942-0.054
		c-0.351,0-0.602,0.081-0.752,0.244c-0.151,0.164-0.227,0.438-0.227,0.824v0.562h1.776v1.721h-1.776v7.648h-2.573v-7.648H117.409z"
		/>
	<path fill="#FFFFFF" d="M131.599,356.029v1.269h0.037c0.338-0.483,0.746-0.858,1.223-1.123c0.477-0.267,1.024-0.399,1.64-0.399
		c0.592,0,1.133,0.115,1.622,0.344c0.49,0.23,0.861,0.634,1.115,1.215c0.277-0.411,0.655-0.773,1.133-1.087
		c0.477-0.314,1.042-0.472,1.694-0.472c0.496,0,0.955,0.061,1.378,0.181c0.422,0.121,0.785,0.314,1.087,0.581
		c0.302,0.266,0.538,0.612,0.708,1.041c0.168,0.43,0.253,0.945,0.253,1.55v6.271h-2.573v-5.31c0-0.314-0.013-0.61-0.037-0.889
		c-0.024-0.277-0.091-0.52-0.2-0.725c-0.108-0.205-0.269-0.368-0.48-0.489s-0.499-0.182-0.861-0.182s-0.656,0.069-0.879,0.209
		c-0.224,0.139-0.399,0.32-0.525,0.544c-0.127,0.223-0.212,0.478-0.254,0.761c-0.042,0.284-0.063,0.57-0.063,0.861v5.219h-2.573
		v-5.256c0-0.278-0.006-0.553-0.019-0.824c-0.012-0.272-0.063-0.522-0.154-0.752s-0.242-0.414-0.453-0.553
		c-0.211-0.14-0.522-0.209-0.933-0.209c-0.121,0-0.281,0.027-0.48,0.082c-0.2,0.055-0.393,0.157-0.58,0.309
		c-0.188,0.15-0.348,0.368-0.48,0.651c-0.133,0.284-0.2,0.655-0.2,1.115v5.437h-2.573v-9.369H131.599z"/>
	<path fill="#FFFFFF" d="M145.303,358.685c0.229-0.61,0.556-1.13,0.979-1.559c0.423-0.43,0.93-0.762,1.522-0.997
		c0.592-0.236,1.257-0.354,1.993-0.354c0.737,0,1.405,0.117,2.003,0.354c0.598,0.235,1.108,0.567,1.532,0.997
		c0.422,0.429,0.749,0.948,0.979,1.559c0.229,0.609,0.345,1.289,0.345,2.039c0,0.748-0.116,1.426-0.345,2.028
		c-0.23,0.605-0.556,1.121-0.979,1.55c-0.423,0.43-0.934,0.759-1.532,0.988s-1.266,0.344-2.003,0.344
		c-0.736,0-1.401-0.114-1.993-0.344c-0.592-0.229-1.099-0.559-1.522-0.988c-0.423-0.429-0.75-0.944-0.979-1.55
		c-0.229-0.603-0.344-1.28-0.344-2.028C144.959,359.974,145.074,359.294,145.303,358.685z M147.641,361.819
		c0.073,0.356,0.197,0.677,0.372,0.96c0.175,0.285,0.408,0.512,0.698,0.681c0.289,0.169,0.652,0.253,1.086,0.253
		c0.435,0,0.801-0.084,1.097-0.253s0.532-0.396,0.707-0.681c0.175-0.283,0.299-0.604,0.371-0.96
		c0.073-0.356,0.109-0.722,0.109-1.096c0-0.375-0.036-0.743-0.109-1.106c-0.072-0.362-0.196-0.682-0.371-0.96
		c-0.175-0.278-0.411-0.505-0.707-0.681c-0.296-0.175-0.662-0.263-1.097-0.263c-0.435,0-0.797,0.088-1.086,0.263
		c-0.291,0.176-0.523,0.402-0.698,0.681c-0.175,0.278-0.299,0.598-0.372,0.96c-0.073,0.363-0.108,0.731-0.108,1.106
		C147.533,361.098,147.568,361.463,147.641,361.819z"/>
	<path fill="#FFFFFF" d="M158.685,352.459v4.713h0.037c0.314-0.484,0.74-0.838,1.277-1.062s1.096-0.335,1.677-0.335
		c0.471,0,0.936,0.097,1.396,0.29c0.459,0.192,0.873,0.488,1.242,0.888c0.368,0.398,0.667,0.909,0.896,1.531
		c0.229,0.622,0.344,1.362,0.344,2.221c0,0.857-0.115,1.598-0.344,2.221c-0.229,0.622-0.529,1.132-0.896,1.53
		c-0.369,0.398-0.783,0.694-1.242,0.888c-0.459,0.194-0.925,0.29-1.396,0.29c-0.689,0-1.305-0.108-1.849-0.326
		c-0.543-0.217-0.954-0.586-1.232-1.105h-0.036v1.196h-2.447v-12.939H158.685z M162.853,359.581
		c-0.084-0.362-0.217-0.683-0.399-0.962c-0.181-0.275-0.407-0.498-0.679-0.66c-0.271-0.163-0.602-0.245-0.988-0.245
		c-0.375,0-0.701,0.082-0.978,0.245c-0.278,0.162-0.508,0.385-0.689,0.66c-0.181,0.279-0.314,0.6-0.398,0.962
		c-0.084,0.361-0.127,0.743-0.127,1.143c0,0.386,0.043,0.76,0.127,1.123c0.084,0.362,0.217,0.683,0.398,0.96
		c0.182,0.278,0.411,0.498,0.689,0.662c0.277,0.162,0.604,0.244,0.978,0.244c0.386,0,0.716-0.082,0.988-0.244
		c0.272-0.164,0.499-0.384,0.679-0.662c0.182-0.277,0.314-0.598,0.399-0.96c0.084-0.363,0.127-0.737,0.127-1.123
		C162.98,360.324,162.938,359.942,162.853,359.581z"/>
	<path fill="#FFFFFF" d="M167.084,354.58v-2.121h2.574v2.121H167.084z M169.658,356.029v9.369h-2.574v-9.369H169.658z"/>
	<path fill="#FFFFFF" d="M174.136,352.459v12.939h-2.574v-12.939H174.136z"/>
	<path fill="#FFFFFF" d="M178.777,363.15c0.387,0.375,0.942,0.562,1.668,0.562c0.519,0,0.966-0.13,1.341-0.39
		c0.374-0.259,0.604-0.534,0.688-0.823h2.265c-0.362,1.122-0.918,1.926-1.667,2.41c-0.749,0.482-1.655,0.724-2.718,0.724
		c-0.738,0-1.402-0.118-1.994-0.353c-0.592-0.236-1.094-0.571-1.504-1.006c-0.411-0.436-0.729-0.954-0.952-1.56
		c-0.224-0.604-0.335-1.268-0.335-1.992c0-0.701,0.115-1.354,0.345-1.957c0.229-0.604,0.555-1.127,0.978-1.568
		c0.423-0.441,0.927-0.789,1.513-1.043c0.585-0.252,1.235-0.38,1.949-0.38c0.797,0,1.492,0.154,2.083,0.462
		c0.592,0.309,1.079,0.722,1.458,1.241c0.381,0.52,0.656,1.112,0.825,1.776c0.169,0.665,0.229,1.358,0.181,2.084h-6.759
		C178.18,362.172,178.391,362.776,178.777,363.15z M181.686,358.222c-0.308-0.338-0.777-0.508-1.404-0.508
		c-0.411,0-0.753,0.069-1.024,0.209s-0.489,0.312-0.652,0.516c-0.163,0.206-0.278,0.424-0.344,0.653
		c-0.067,0.229-0.106,0.435-0.118,0.616h4.186C182.208,359.056,181.994,358.561,181.686,358.222z"/>
</g>
<path fill="#FFFFFF" d="M270.013,362.607v2.791c0,0.411-0.076,0.788-0.227,1.133c-0.151,0.345-0.353,0.644-0.607,0.897
	c-0.254,0.253-0.552,0.462-0.896,0.625c-0.344,0.162-0.71,0.273-1.097,0.335v-1.306c0.182-0.035,0.353-0.108,0.517-0.217
	s0.305-0.237,0.426-0.389c0.121-0.152,0.211-0.321,0.271-0.508c0.06-0.188,0.084-0.379,0.072-0.571h-1.305v-2.791H270.013z"/>
<g>
	<path fill="#FFFFFF" d="M356.714,354.49v-2.407h10.667v2.407h-3.902v10.612h-2.863V354.49H356.714z"/>
	<path fill="#FFFFFF" d="M369.445,355.675v1.751h0.037c0.122-0.292,0.286-0.562,0.492-0.812c0.207-0.249,0.444-0.462,0.711-0.638
		c0.267-0.177,0.553-0.312,0.857-0.411c0.304-0.097,0.62-0.146,0.948-0.146c0.17,0,0.358,0.031,0.566,0.091v2.407
		c-0.122-0.024-0.268-0.045-0.438-0.064c-0.17-0.018-0.334-0.026-0.492-0.026c-0.474,0-0.875,0.079-1.203,0.237
		c-0.329,0.157-0.593,0.373-0.794,0.646s-0.343,0.593-0.428,0.957c-0.085,0.365-0.128,0.761-0.128,1.186v4.249h-2.59v-9.428H369.445
		z"/>
	<path fill="#FFFFFF" d="M373.997,358.347c0.231-0.614,0.559-1.137,0.985-1.568c0.425-0.432,0.937-0.766,1.532-1.003
		s1.264-0.355,2.006-0.355c0.741,0,1.412,0.118,2.014,0.355c0.603,0.237,1.116,0.571,1.542,1.003
		c0.425,0.432,0.753,0.954,0.984,1.568c0.23,0.613,0.347,1.298,0.347,2.052c0,0.753-0.116,1.434-0.347,2.042
		c-0.231,0.608-0.56,1.128-0.984,1.559c-0.426,0.433-0.939,0.763-1.542,0.994c-0.602,0.231-1.272,0.347-2.014,0.347
		c-0.742,0-1.41-0.115-2.006-0.347s-1.107-0.562-1.532-0.994c-0.426-0.431-0.754-0.95-0.985-1.559
		c-0.231-0.608-0.347-1.289-0.347-2.042C373.65,359.645,373.765,358.96,373.997,358.347z M376.349,361.502
		c0.073,0.358,0.198,0.681,0.374,0.965c0.176,0.287,0.41,0.515,0.703,0.685c0.291,0.171,0.656,0.255,1.094,0.255
		c0.437,0,0.805-0.084,1.103-0.255c0.298-0.17,0.535-0.397,0.712-0.685c0.176-0.284,0.3-0.606,0.373-0.965
		c0.073-0.359,0.109-0.727,0.109-1.104c0-0.378-0.036-0.748-0.109-1.112c-0.073-0.365-0.197-0.688-0.373-0.966
		c-0.177-0.28-0.414-0.509-0.712-0.685c-0.298-0.177-0.666-0.265-1.103-0.265c-0.438,0-0.803,0.088-1.094,0.265
		c-0.293,0.176-0.527,0.404-0.703,0.685c-0.176,0.278-0.301,0.601-0.374,0.966c-0.073,0.364-0.109,0.734-0.109,1.112
		C376.239,360.775,376.275,361.143,376.349,361.502z"/>
	<path fill="#FFFFFF" d="M383.946,366.27c0.269,0,0.502-0.052,0.703-0.154c0.2-0.104,0.301-0.332,0.301-0.685v-9.756h2.589v9.884
		c0,0.486-0.052,0.905-0.154,1.258c-0.104,0.353-0.28,0.647-0.529,0.885c-0.25,0.237-0.587,0.413-1.013,0.528
		c-0.425,0.116-0.966,0.174-1.622,0.174c-0.304,0-0.577-0.025-0.82-0.073v-2.133C383.534,366.245,383.716,366.27,383.946,366.27z
		 M384.95,354.217v-2.134h2.589v2.134H384.95z"/>
	<path fill="#FFFFFF" d="M389.407,358.575c0.036-0.608,0.188-1.113,0.456-1.515c0.267-0.4,0.607-0.723,1.021-0.967
		c0.414-0.242,0.879-0.416,1.396-0.519c0.517-0.104,1.037-0.155,1.559-0.155c0.475,0,0.954,0.033,1.44,0.101
		c0.486,0.066,0.93,0.197,1.332,0.392c0.401,0.194,0.729,0.465,0.984,0.812c0.255,0.346,0.383,0.805,0.383,1.376v4.904
		c0,0.427,0.023,0.833,0.073,1.223c0.048,0.389,0.133,0.681,0.256,0.875h-2.627c-0.049-0.146-0.088-0.294-0.118-0.447
		c-0.03-0.151-0.053-0.306-0.064-0.465c-0.413,0.426-0.899,0.724-1.458,0.894c-0.56,0.171-1.131,0.256-1.715,0.256
		c-0.449,0-0.869-0.055-1.258-0.164s-0.729-0.28-1.021-0.511c-0.291-0.23-0.52-0.522-0.684-0.875s-0.246-0.772-0.246-1.259
		c0-0.535,0.095-0.976,0.282-1.321c0.188-0.347,0.433-0.623,0.73-0.83s0.639-0.361,1.021-0.466c0.383-0.103,0.769-0.185,1.158-0.246
		c0.389-0.06,0.772-0.109,1.148-0.145c0.376-0.037,0.712-0.093,1.003-0.164c0.292-0.073,0.522-0.18,0.692-0.319
		c0.171-0.141,0.25-0.344,0.237-0.611c0-0.279-0.046-0.502-0.136-0.665c-0.091-0.165-0.213-0.293-0.365-0.384
		s-0.328-0.151-0.528-0.183c-0.201-0.029-0.417-0.046-0.648-0.046c-0.51,0-0.911,0.11-1.203,0.329s-0.463,0.584-0.51,1.095H389.407z
		 M395.388,360.489c-0.109,0.098-0.245,0.173-0.41,0.229c-0.164,0.055-0.341,0.1-0.528,0.136c-0.189,0.037-0.387,0.067-0.593,0.092
		c-0.207,0.024-0.413,0.054-0.621,0.092c-0.194,0.036-0.385,0.085-0.573,0.146c-0.189,0.061-0.353,0.143-0.492,0.245
		c-0.141,0.104-0.253,0.234-0.338,0.393s-0.128,0.358-0.128,0.602c0,0.231,0.043,0.426,0.128,0.583
		c0.085,0.159,0.201,0.284,0.347,0.374c0.146,0.092,0.316,0.155,0.511,0.191c0.194,0.037,0.395,0.056,0.602,0.056
		c0.511,0,0.905-0.085,1.186-0.256c0.28-0.17,0.486-0.374,0.62-0.61c0.134-0.237,0.216-0.478,0.245-0.721
		c0.031-0.243,0.046-0.438,0.046-0.584V360.489z"/>
	<path fill="#FFFFFF" d="M402.314,355.675v1.313h0.056c0.328-0.547,0.753-0.945,1.275-1.195c0.523-0.249,1.059-0.373,1.605-0.373
		c0.692,0,1.262,0.095,1.705,0.283s0.793,0.449,1.048,0.784c0.255,0.334,0.435,0.741,0.538,1.221
		c0.104,0.48,0.156,1.013,0.156,1.596v5.799h-2.59v-5.324c0-0.778-0.122-1.358-0.365-1.741s-0.675-0.575-1.295-0.575
		c-0.705,0-1.215,0.21-1.531,0.629c-0.316,0.421-0.475,1.109-0.475,2.07v4.941h-2.589v-9.428H402.314z"/>
	<path fill="#FFFFFF" d="M412.698,362.76c0.115,0.2,0.265,0.364,0.446,0.492c0.183,0.127,0.393,0.222,0.63,0.282
		s0.482,0.092,0.738,0.092c0.183,0,0.374-0.021,0.574-0.064c0.201-0.042,0.383-0.109,0.547-0.2c0.165-0.091,0.301-0.213,0.41-0.365
		c0.109-0.151,0.164-0.343,0.164-0.574c0-0.389-0.259-0.681-0.774-0.874c-0.518-0.195-1.237-0.39-2.162-0.585
		c-0.376-0.085-0.743-0.185-1.103-0.301c-0.358-0.115-0.678-0.267-0.957-0.455s-0.505-0.426-0.675-0.712
		c-0.17-0.284-0.256-0.635-0.256-1.048c0-0.608,0.119-1.105,0.355-1.496c0.237-0.389,0.551-0.695,0.939-0.921
		c0.389-0.225,0.827-0.383,1.313-0.474s0.984-0.137,1.495-0.137s1.006,0.049,1.486,0.146c0.48,0.099,0.908,0.262,1.286,0.493
		c0.376,0.23,0.688,0.538,0.938,0.921c0.249,0.383,0.398,0.866,0.446,1.449h-2.462c-0.036-0.498-0.225-0.836-0.564-1.012
		c-0.341-0.177-0.741-0.266-1.203-0.266c-0.146,0-0.305,0.01-0.475,0.028c-0.171,0.018-0.325,0.058-0.465,0.118
		c-0.141,0.062-0.259,0.149-0.356,0.265c-0.098,0.116-0.146,0.271-0.146,0.465c0,0.23,0.085,0.42,0.255,0.565
		s0.393,0.265,0.666,0.355c0.273,0.092,0.586,0.174,0.939,0.246c0.352,0.073,0.711,0.152,1.075,0.236
		c0.377,0.086,0.744,0.189,1.104,0.312c0.357,0.121,0.677,0.282,0.957,0.482c0.279,0.2,0.505,0.45,0.675,0.748
		s0.255,0.665,0.255,1.103c0,0.621-0.124,1.14-0.373,1.56s-0.574,0.757-0.976,1.013c-0.401,0.255-0.86,0.434-1.377,0.537
		s-1.042,0.155-1.577,0.155c-0.547,0-1.082-0.055-1.604-0.164c-0.523-0.109-0.988-0.291-1.395-0.547
		c-0.408-0.255-0.742-0.593-1.004-1.013c-0.261-0.419-0.404-0.944-0.429-1.577h2.463C412.525,362.318,412.583,362.56,412.698,362.76
		z"/>
</g>
</svg>
