<svg xmlns="http://www.w3.org/2000/svg" width="200" height="84" viewBox="0 0 200 84"><path fill-rule="evenodd" clip-rule="evenodd" fill="#fff" d="M189.949 0h-181.909c-5.55 0-8.04 4.5-8.04 10.05v35.176c0 5.551 4.5 10.05 10.05 10.05h73.358l-.073.073c14.641.992 26.211 13.175 26.211 28.067 0-14.893 11.572-27.075 26.213-28.067l-.072-.073h54.262c5.551 0 10.051-4.499 10.051-10.05v-35.176c0-5.55-4.5-10.05-10.051-10.05z"/><path d="M15.077 22.5c.104.201.243.364.417.488.172.125.375.217.609.277.233.061.474.091.723.091.169 0 .35-.014.543-.042.193-.029.374-.083.542-.163.169-.081.31-.191.422-.332.113-.141.168-.32.168-.537 0-.233-.074-.422-.223-.567-.149-.145-.344-.265-.585-.361s-.515-.181-.82-.253c-.306-.073-.616-.152-.929-.241-.321-.08-.635-.179-.94-.295-.305-.117-.579-.267-.82-.452s-.436-.416-.585-.694c-.148-.277-.223-.613-.223-1.007 0-.442.094-.826.283-1.152s.436-.597.742-.814c.306-.217.651-.377 1.037-.482.386-.104.772-.156 1.158-.156.451 0 .882.05 1.296.15s.782.264 1.104.488c.321.226.576.513.766.863.188.35.283.774.283 1.272h-1.833c-.016-.257-.07-.47-.163-.639-.093-.169-.215-.302-.368-.398-.153-.097-.327-.165-.524-.205-.197-.041-.413-.061-.646-.061-.152 0-.305.016-.458.048s-.292.088-.416.169c-.125.081-.227.181-.308.301s-.121.273-.121.458c0 .169.032.306.097.41.064.105.191.201.38.29.189.089.45.177.784.266l1.309.337c.161.033.384.09.669.175.285.084.569.219.85.404s.525.433.729.742c.205.31.308.706.308 1.188 0 .394-.077.76-.229 1.097-.153.338-.38.629-.681.875-.302.246-.676.437-1.122.573-.446.137-.962.205-1.549.205-.475 0-.935-.058-1.381-.175-.446-.116-.84-.299-1.182-.548-.342-.25-.613-.567-.814-.953-.201-.386-.298-.844-.29-1.375h1.833c.001.289.053.534.158.735zm12.929-6.488v1.592h-4.547v1.845h4.173v1.471h-4.173v2.111h4.644v1.592h-6.537v-8.611h6.44zm7.888 0v1.592h-4.547v1.845h4.173v1.471h-4.173v2.111h4.643v1.592h-6.536v-8.611h6.44zm6.621 0v3.305h3.486v-3.305h1.892v8.611h-1.892v-3.714h-3.486v3.714h-1.894v-8.611h1.894zm6.968 2.551c.192-.551.471-1.031.833-1.441.36-.41.806-.731 1.332-.965.526-.233 1.119-.35 1.779-.35.667 0 1.262.117 1.784.35.522.233.966.555 1.326.965.362.41.641.891.833 1.441.193.551.289 1.148.289 1.791 0 .627-.096 1.212-.289 1.755-.192.543-.471 1.016-.833 1.417-.36.402-.804.717-1.326.947-.522.229-1.117.343-1.784.343-.66 0-1.253-.114-1.779-.343-.526-.229-.972-.545-1.332-.947-.362-.402-.641-.875-.833-1.417-.193-.542-.289-1.127-.289-1.755 0-.643.096-1.24.289-1.791zm1.73 2.846c.085.342.219.65.404.923.185.273.426.492.724.657.298.165.659.248 1.086.248.426 0 .788-.083 1.085-.248.298-.165.538-.384.724-.657.186-.273.319-.581.404-.923.084-.341.127-.693.127-1.055 0-.377-.043-.743-.127-1.097-.085-.354-.219-.669-.404-.947-.186-.277-.426-.498-.724-.663-.297-.165-.659-.248-1.085-.248-.427 0-.788.083-1.086.248-.298.165-.539.386-.724.663-.186.278-.319.594-.404.947-.084.354-.126.72-.126 1.097 0 .361.042.713.126 1.055zm13.85 3.214l-1.459-5.861h-.024l-1.436 5.861h-1.918l-2.278-8.611h1.893l1.363 5.861h.023l1.496-5.861h1.772l1.473 5.934h.023l1.411-5.934h1.857l-2.316 8.611h-1.88zm11.083-8.611l2.014 5.922h.023l1.906-5.922h2.666v8.611h-1.772v-6.102h-.024l-2.111 6.102h-1.459l-2.11-6.042h-.025v6.042h-1.774v-8.611h2.666zm8.199 2.551c.192-.551.469-1.031.831-1.441s.806-.731 1.333-.965c.527-.233 1.12-.35 1.779-.35.667 0 1.262.117 1.784.35.522.233.965.555 1.327.965.361.41.639.891.832 1.441.192.551.289 1.148.289 1.791 0 .627-.097 1.212-.289 1.755-.193.543-.471 1.016-.832 1.417-.362.402-.805.717-1.327.947-.522.229-1.117.343-1.784.343-.659 0-1.252-.114-1.779-.343-.527-.229-.971-.545-1.333-.947s-.639-.875-.831-1.417c-.194-.542-.291-1.127-.291-1.755 0-.643.097-1.24.291-1.791zm1.73 2.846c.084.342.22.65.404.923.185.273.426.492.724.657.297.165.659.248 1.086.248.426 0 .787-.083 1.086-.248.296-.165.537-.384.722-.657.186-.273.32-.581.404-.923.085-.341.128-.693.128-1.055 0-.377-.043-.743-.128-1.097-.084-.354-.219-.669-.404-.947-.185-.277-.426-.498-.722-.663-.299-.165-.66-.248-1.086-.248-.427 0-.789.083-1.086.248-.298.165-.539.386-.724.663-.185.278-.32.594-.404.947-.085.354-.126.72-.126 1.097 0 .361.041.713.126 1.055zm9.618-5.397l3.594 5.777h.023v-5.777h1.774v8.611h-1.893l-3.582-5.765h-.024v5.765h-1.772v-8.611h1.88zm13.536 0v1.592h-4.547v1.845h4.172v1.471h-4.172v2.111h4.645v1.592h-6.537v-8.611h6.439zm.687 0h2.123l2.014 3.401 2.002-3.401h2.109l-3.195 5.306v3.305h-1.893v-3.353l-3.16-5.258zm13.772 6.488c.105.201.244.364.416.488.174.125.377.217.611.277.232.061.473.091.723.091.168 0 .35-.014.543-.042.193-.029.373-.083.543-.163.168-.081.309-.191.422-.332.113-.141.168-.32.168-.537 0-.233-.074-.422-.223-.567-.148-.145-.344-.265-.584-.361-.242-.097-.516-.181-.82-.253-.307-.073-.617-.152-.93-.241-.32-.08-.635-.179-.941-.295-.305-.117-.578-.267-.818-.452-.242-.185-.438-.416-.586-.694-.148-.277-.223-.613-.223-1.007 0-.442.094-.826.283-1.152s.436-.597.742-.814c.305-.217.65-.377 1.037-.482.385-.104.771-.156 1.156-.156.451 0 .885.05 1.299.15s.781.264 1.102.488c.322.226.578.513.766.863.189.35.285.774.285 1.272h-1.834c-.016-.257-.07-.47-.162-.639-.094-.169-.217-.302-.369-.398-.152-.097-.326-.165-.523-.205-.197-.041-.412-.061-.646-.061-.152 0-.305.016-.457.048s-.293.088-.416.169c-.125.081-.229.181-.309.301s-.119.273-.119.458c0 .169.031.306.096.41.064.105.189.201.379.29.189.089.451.177.785.266l1.309.337c.16.033.383.09.67.175.285.084.566.219.85.404.281.185.525.433.729.742.207.31.309.706.309 1.188 0 .394-.076.76-.23 1.097-.152.338-.379.629-.68.875-.303.246-.676.437-1.121.573-.447.137-.965.205-1.551.205-.475 0-.936-.058-1.381-.175-.445-.116-.84-.299-1.182-.548-.342-.25-.613-.567-.814-.953-.201-.386-.299-.844-.289-1.375h1.832c-.004.289.049.534.153.735zm12.621 2.123l-1.459-5.861h-.025l-1.436 5.861h-1.916l-2.281-8.611h1.895l1.363 5.861h.023l1.496-5.861h1.771l1.473 5.934h.023l1.412-5.934h1.855l-2.314 8.611h-1.88zm6.988-8.611v8.611h-1.893v-8.611h1.893zm.959 1.592v-1.592h7.055v1.592h-2.58v7.019h-1.893v-7.019h-2.582zm13.392.705c-.111-.18-.252-.339-.422-.476-.168-.137-.359-.244-.572-.32-.213-.076-.436-.114-.67-.114-.426 0-.787.083-1.086.248-.297.165-.539.386-.723.663-.186.278-.32.594-.404.947-.084.354-.127.72-.127 1.097 0 .362.043.714.127 1.055.084.342.219.65.404.923.184.273.426.492.723.657.299.165.66.248 1.086.248.58 0 1.031-.177 1.357-.531.324-.354.523-.82.596-1.399h1.834c-.047.539-.174 1.025-.373 1.459-.203.435-.467.804-.797 1.109-.33.306-.715.539-1.158.7-.441.16-.93.241-1.459.241-.66 0-1.252-.114-1.777-.343-.527-.229-.973-.545-1.334-.947s-.641-.875-.832-1.417c-.193-.542-.289-1.127-.289-1.755 0-.643.096-1.24.289-1.791.191-.551.471-1.031.832-1.441s.807-.731 1.334-.965c.525-.233 1.117-.35 1.777-.35.475 0 .922.068 1.346.205.422.137.799.335 1.133.597.334.262.609.585.826.971.217.386.354.828.41 1.327h-1.834c-.031-.218-.103-.417-.217-.598zm5.288-2.297v3.305h3.484v-3.305h1.895v8.611h-1.895v-3.714h-3.484v3.714h-1.895v-8.611h1.895zm13.521 0v1.592h-4.545v1.845h4.172v1.471h-4.172v2.111h4.643v1.592h-6.537v-8.611h6.439zm2.854 6.488c.104.201.242.364.416.488.172.125.375.217.607.277.234.061.477.091.725.091.17 0 .35-.014.543-.042.193-.029.375-.083.543-.163s.309-.191.422-.332c.111-.141.17-.32.17-.537 0-.233-.076-.422-.225-.567-.148-.145-.344-.265-.586-.361-.24-.097-.514-.181-.818-.253-.305-.073-.615-.152-.93-.241-.32-.08-.635-.179-.939-.295-.307-.117-.58-.267-.82-.452-.242-.185-.438-.416-.586-.694-.148-.277-.223-.613-.223-1.007 0-.442.096-.826.283-1.152.189-.326.436-.597.742-.814.305-.217.652-.377 1.037-.482.387-.104.771-.156 1.158-.156.449 0 .881.05 1.295.15.416.101.783.264 1.105.488.32.226.576.513.766.863.188.35.283.774.283 1.272h-1.834c-.016-.257-.07-.47-.162-.639-.094-.169-.215-.302-.369-.398-.152-.097-.326-.165-.523-.205-.197-.041-.412-.061-.646-.061-.152 0-.305.016-.457.048s-.291.088-.416.169-.227.181-.309.301c-.08.121-.119.273-.119.458 0 .169.031.306.096.41.064.105.191.201.379.29.189.089.451.177.785.266l1.309.337c.16.033.385.09.668.175.287.084.57.219.852.404s.525.433.729.742c.205.31.309.706.309 1.188 0 .394-.076.76-.229 1.097-.154.338-.381.629-.682.875-.303.246-.676.437-1.121.573-.447.137-.963.205-1.551.205-.475 0-.934-.058-1.381-.175-.447-.116-.84-.299-1.182-.548-.342-.25-.613-.567-.814-.953-.201-.386-.297-.844-.289-1.375h1.832c-.002.289.053.534.157.735zm-151.869 11.185v-1.592h7.055v1.592h-2.581v7.019h-1.894v-7.019h-2.58zm7.785.959c.193-.551.471-1.032.832-1.441.362-.41.807-.732 1.332-.965.527-.233 1.12-.35 1.78-.35.667 0 1.262.117 1.785.35.521.233.964.555 1.326.965.361.41.639.891.832 1.441.193.55.289 1.148.289 1.791 0 .627-.096 1.212-.289 1.755-.193.543-.471 1.015-.832 1.417-.362.402-.805.717-1.326.946-.523.229-1.118.344-1.785.344-.66 0-1.253-.114-1.78-.344-.525-.229-.97-.544-1.332-.946-.361-.402-.639-.875-.832-1.417-.193-.542-.289-1.127-.289-1.755 0-.643.096-1.241.289-1.791zm1.731 2.845c.085.342.22.65.404.923.185.273.426.492.724.657s.658.248 1.086.248c.426 0 .788-.083 1.085-.248.298-.165.539-.384.724-.657.185-.273.319-.581.404-.923.084-.342.127-.693.127-1.055 0-.378-.043-.744-.127-1.097-.085-.354-.22-.669-.404-.947-.185-.277-.426-.498-.724-.663-.297-.165-.659-.247-1.085-.247-.428 0-.788.083-1.086.247-.298.165-.539.386-.724.663-.185.278-.319.593-.404.947-.084.354-.126.719-.126 1.097 0 .362.042.713.126 1.055zm15.383-5.396l3.22 8.611h-1.966l-.651-1.918h-3.219l-.676 1.918h-1.906l3.257-8.611h1.941zm.109 5.282l-1.086-3.16h-.024l-1.122 3.16h2.232zm5.831-5.282l3.594 5.777h.024v-5.777h1.772v8.611h-1.894l-3.581-5.765h-.025v5.765h-1.772v-8.611h1.882zm6.98 2.551c.192-.551.471-1.032.832-1.441.361-.41.807-.732 1.333-.965s1.119-.35 1.778-.35c.668 0 1.263.117 1.784.35.523.233.966.555 1.327.965.362.41.641.891.833 1.441.193.55.289 1.148.289 1.791 0 .627-.096 1.212-.289 1.755-.192.543-.471 1.015-.833 1.417-.361.402-.804.717-1.327.946-.521.229-1.116.344-1.784.344-.659 0-1.252-.114-1.778-.344-.526-.229-.972-.544-1.333-.946-.361-.402-.64-.875-.832-1.417-.193-.542-.289-1.127-.289-1.755 0-.643.096-1.241.289-1.791zm1.731 2.845c.084.342.219.65.404.923.185.273.426.492.724.657.297.165.659.248 1.085.248.427 0 .788-.083 1.086-.248.297-.165.538-.384.724-.657.186-.273.319-.581.404-.923.084-.342.126-.693.126-1.055 0-.378-.042-.744-.126-1.097-.085-.354-.219-.669-.404-.947-.186-.277-.427-.498-.724-.663-.298-.165-.659-.247-1.086-.247-.426 0-.788.083-1.085.247-.298.165-.539.386-.724.663-.186.278-.32.593-.404.947-.084.354-.127.719-.127 1.097 0 .362.043.713.127 1.055zm6.88-3.804v-1.592h7.056v1.592h-2.581v7.019h-1.894v-7.019h-2.581zm9.908-1.592v3.304h3.486v-3.304h1.892v8.611h-1.892v-3.714h-3.486v3.714h-1.894v-8.611h1.894zm13.522 0v1.592h-4.546v1.845h4.173v1.471h-4.173v2.111h4.644v1.592h-6.537v-8.611h6.439zm6.091 0c.387 0 .734.062 1.043.187.311.125.576.295.797.512.221.217.391.469.506.754.117.285.176.593.176.922 0 .506-.105.945-.32 1.314-.213.37-.561.651-1.043.844v.024c.232.065.426.163.578.296s.279.289.375.47.166.38.211.597c.043.217.074.434.092.651l.023.482.041.567c.021.193.053.376.098.548.043.173.109.32.199.44h-1.895c-.105-.273-.17-.599-.193-.977-.023-.378-.061-.74-.107-1.085-.064-.451-.203-.78-.41-.989-.211-.209-.553-.314-1.025-.314h-1.894v3.365h-1.895v-8.611h4.643zm-.674 3.895c.434 0 .76-.097.977-.29s.324-.507.324-.941c0-.418-.107-.721-.324-.91s-.543-.284-.977-.284h-2.076v2.424h2.076zm12.385-3.895l3.221 8.611h-1.965l-.652-1.918h-3.221l-.676 1.918h-1.904l3.256-8.611h1.941zm.109 5.282l-1.086-3.16h-.023l-1.123 3.16h2.232zm9.086-2.985c-.111-.181-.254-.339-.422-.476-.17-.137-.359-.243-.572-.32-.213-.076-.438-.114-.67-.114-.426 0-.787.083-1.086.247-.297.165-.537.386-.723.663-.184.278-.32.593-.404.947-.084.354-.127.719-.127 1.097 0 .362.043.713.127 1.055s.221.65.404.923c.186.273.426.492.723.657.299.165.66.248 1.086.248.58 0 1.031-.177 1.357-.531.326-.353.525-.82.598-1.398h1.832c-.049.538-.174 1.025-.375 1.459-.199.434-.465.804-.795 1.109-.328.306-.715.539-1.158.7-.441.161-.928.241-1.459.241-.658 0-1.252-.114-1.779-.344-.525-.229-.969-.544-1.332-.946-.361-.402-.639-.875-.832-1.417-.193-.542-.289-1.127-.289-1.755 0-.643.096-1.24.289-1.791.193-.551.471-1.032.832-1.441.363-.41.807-.732 1.332-.965.527-.233 1.121-.35 1.779-.35.475 0 .924.068 1.346.205.422.137.799.335 1.133.597s.609.585.826.971c.217.386.354.828.41 1.326h-1.832c-.034-.217-.106-.416-.219-.597zm8.914 0c-.113-.181-.254-.339-.422-.476-.17-.137-.361-.243-.574-.32-.213-.076-.436-.114-.668-.114-.428 0-.789.083-1.086.247-.299.165-.539.386-.725.663-.186.278-.318.593-.404.947-.084.354-.125.719-.125 1.097 0 .362.041.713.125 1.055.086.342.219.65.404.923.186.273.426.492.725.657.297.165.658.248 1.086.248.578 0 1.029-.177 1.355-.531.326-.353.525-.82.598-1.398h1.832c-.047.538-.172 1.025-.373 1.459s-.467.804-.797 1.109c-.33.306-.715.539-1.156.7-.443.161-.93.241-1.459.241-.66 0-1.254-.114-1.779-.344-.527-.229-.973-.544-1.332-.946-.363-.402-.641-.875-.834-1.417-.193-.542-.289-1.127-.289-1.755 0-.643.096-1.24.289-1.791.193-.551.471-1.032.834-1.441.359-.41.805-.732 1.332-.965.525-.233 1.119-.35 1.779-.35.475 0 .922.068 1.344.205.422.137.801.335 1.133.597.334.261.609.585.826.971.219.386.355.828.41 1.326h-1.832c-.034-.217-.106-.416-.217-.597zm3.303.254c.193-.551.471-1.032.832-1.441.363-.41.807-.732 1.334-.965.525-.233 1.119-.35 1.777-.35.668 0 1.264.117 1.785.35.523.233.965.555 1.328.965.361.41.639.891.83 1.441.195.55.291 1.148.291 1.791 0 .627-.096 1.212-.291 1.755-.191.543-.469 1.015-.83 1.417-.363.402-.805.717-1.328.946-.521.229-1.117.344-1.785.344-.658 0-1.252-.114-1.777-.344-.527-.229-.971-.544-1.334-.946-.361-.402-.639-.875-.832-1.417-.191-.542-.289-1.127-.289-1.755 0-.643.097-1.241.289-1.791zm1.732 2.845c.084.342.219.65.404.923.184.273.426.492.723.657s.658.248 1.084.248.789-.083 1.086-.248c.299-.165.539-.384.725-.657.184-.273.32-.581.404-.923s.125-.693.125-1.055c0-.378-.041-.744-.125-1.097-.084-.354-.221-.669-.404-.947-.186-.277-.426-.498-.725-.663-.297-.165-.66-.247-1.086-.247s-.787.083-1.084.247c-.297.165-.539.386-.723.663-.186.278-.32.593-.404.947-.086.354-.129.719-.129 1.097 0 .362.043.713.129 1.055zm14.043 2.557c-.65.567-1.551.85-2.701.85-1.166 0-2.068-.281-2.707-.844-.641-.563-.959-1.431-.959-2.605v-5.354h1.893v5.354c0 .234.02.463.061.688.039.225.125.424.254.597.127.172.307.313.535.422.23.108.539.163.924.163.674 0 1.143-.151 1.398-.453.258-.301.387-.774.387-1.417v-5.354h1.893v5.354c-.001 1.166-.328 2.032-.978 2.599zm4.518-7.953l3.592 5.777h.025v-5.777h1.773v8.611h-1.895l-3.582-5.765h-.023v5.765h-1.773v-8.611h1.883zm6.347 1.592v-1.592h7.057v1.592h-2.58v7.019h-1.895v-7.019h-2.582z" fill="#010101"/></svg>