<svg xmlns="http://www.w3.org/2000/svg" width="1600" height="1200" viewBox="0 0 1600 1200"><defs><pattern id="b" width="20" height="20" patternUnits="userSpaceOnUse" patternTransform="rotate(-45)"><path fill="#bf45aa" opacity=".5" d="M0 0h20v20h-20z"/><path fill="#ec53d2" d="M0 0h20v8h-20z"/></pattern><pattern id="a" width="20" height="4" patternUnits="userSpaceOnUse" patternTransform="rotate(-45)"><path fill="#bf45aa" opacity=".5" d="M0 0h20v4h-20z"/><path fill="#ec53d2" d="M0 0h20v2h-20z"/></pattern></defs><path fill="url(#a)" d="M0 0v1200h1600v-1200h-1600zm805.5 842c-189.158 0-342.5-153.343-342.5-342.5s153.342-342.5 342.5-342.5c189.157 0 342.5 153.343 342.5 342.5s-153.343 342.5-342.5 342.5z"/><path fill="url(#b)" d="M806 194c-168.447 0-305 136.553-305 305s136.553 305 305 305 305-136.553 305-305-136.553-305-305-305zm-3 413c-61.304 0-111-49.696-111-111s49.696-111 111-111 111 49.696 111 111-49.696 111-111 111z"/></svg>