<svg xmlns="http://www.w3.org/2000/svg" width="800" height="270" viewBox="0 0 800 270"><path d="M43.78 0c5 0 9.254.727 12.764 2.184 3.508 1.455 6.362 3.379 8.567 5.766 2.2 2.39 3.806 5.114 4.813 8.175 1.008 3.062 1.512 6.233 1.512 9.517 0 3.21-.503 6.366-1.512 9.462-1.007 3.098-2.614 5.84-4.813 8.229-2.205 2.39-5.059 4.311-8.567 5.766-3.509 1.456-7.764 2.183-12.764 2.183h-18.475v28.665h-17.578v-79.947h36.053zm-4.816 37.622c2.017 0 3.956-.148 5.823-.448 1.866-.297 3.508-.875 4.926-1.735 1.418-.856 2.558-2.071 3.416-3.639.857-1.567 1.287-3.618 1.287-6.158 0-2.537-.43-4.59-1.287-6.159-.858-1.567-1.998-2.779-3.416-3.638-1.418-.857-3.061-1.436-4.926-1.736-1.867-.297-3.806-.448-5.823-.448h-13.659v23.961h13.659zm51.684-15.564v10.748h.225c.746-1.791 1.753-3.45 3.023-4.981 1.269-1.528 2.724-2.836 4.368-3.918 1.641-1.082 3.395-1.921 5.262-2.521 1.865-.596 3.807-.896 5.821-.896 1.045 0 2.202.187 3.473.561v14.779c-.747-.148-1.644-.28-2.688-.392-1.045-.112-2.054-.167-3.022-.167-2.911 0-5.376.486-7.391 1.456-2.016.97-3.638 2.295-4.87 3.975-1.233 1.68-2.11 3.639-2.632 5.877-.523 2.24-.784 4.667-.784 7.278v26.089h-15.899v-57.888h15.114zm24.935 16.402c1.417-3.768 3.433-6.978 6.046-9.629 2.611-2.647 5.748-4.701 9.406-6.157 3.655-1.456 7.761-2.184 12.315-2.184 4.553 0 8.677.729 12.373 2.184s6.848 3.509 9.462 6.157c2.611 2.652 4.625 5.861 6.045 9.629 1.417 3.771 2.127 7.97 2.127 12.597 0 4.63-.71 8.809-2.127 12.541-1.42 3.735-3.435 6.925-6.045 9.574-2.615 2.651-5.767 4.686-9.462 6.102-3.696 1.418-7.82 2.127-12.373 2.127-4.554 0-8.66-.708-12.315-2.127-3.658-1.416-6.794-3.451-9.406-6.102-2.614-2.649-4.629-5.839-6.046-9.574-1.419-3.731-2.129-7.91-2.129-12.541.001-4.626.711-8.826 2.129-12.597zm14.444 19.372c.447 2.202 1.212 4.181 2.295 5.934 1.081 1.755 2.519 3.155 4.31 4.199 1.792 1.047 4.031 1.567 6.718 1.567s4.945-.521 6.775-1.567c1.828-1.044 3.283-2.444 4.368-4.199 1.08-1.752 1.846-3.731 2.294-5.934.447-2.201.672-4.459.672-6.775 0-2.312-.225-4.59-.672-6.829-.448-2.24-1.214-4.218-2.294-5.935-1.085-1.717-2.54-3.116-4.368-4.199-1.83-1.081-4.087-1.624-6.775-1.624s-4.926.543-6.718 1.624c-1.791 1.083-3.229 2.482-4.31 4.199-1.083 1.717-1.849 3.695-2.295 5.935-.447 2.239-.673 4.516-.673 6.829 0 2.316.226 4.574.673 6.775zm80.359-35.774v10.638h-11.645v28.664c0 2.687.448 4.479 1.344 5.375.896.894 2.687 1.342 5.375 1.342.895 0 1.752-.037 2.574-.112.822-.073 1.605-.187 2.352-.336v12.317c-1.344.225-2.838.373-4.479.448-1.642.074-3.247.113-4.813.113-2.465 0-4.797-.168-6.998-.505-2.205-.336-4.144-.989-5.823-1.96-1.68-.968-3.007-2.351-3.976-4.142-.971-1.792-1.455-4.144-1.455-7.055v-34.15h-9.628v-10.637h9.628v-17.355h15.899v17.354h11.645zm20.109 44.004c2.388 2.312 5.822 3.47 10.301 3.47 3.208 0 5.972-.802 8.286-2.407 2.312-1.604 3.731-3.303 4.254-5.094h13.996c-2.24 6.942-5.673 11.905-10.3 14.893-4.629 2.986-10.229 4.477-16.796 4.477-4.554 0-8.66-.727-12.316-2.183-3.659-1.455-6.757-3.527-9.293-6.215-2.54-2.686-4.499-5.895-5.879-9.629-1.38-3.731-2.071-7.837-2.071-12.317 0-4.327.708-8.358 2.127-12.092 1.417-3.731 3.433-6.959 6.047-9.685 2.611-2.724 5.727-4.871 9.349-6.439 3.62-1.567 7.632-2.351 12.037-2.351 4.925 0 9.218.952 12.877 2.856 3.656 1.904 6.662 4.461 9.013 7.669 2.352 3.212 4.049 6.868 5.095 10.973 1.044 4.107 1.417 8.398 1.119 12.876h-41.763c.221 5.151 1.527 8.886 3.917 11.198zm17.97-30.456c-1.902-2.089-4.796-3.136-8.677-3.136-2.539 0-4.646.431-6.327 1.287-1.679.86-3.022 1.923-4.031 3.192-1.007 1.27-1.719 2.613-2.127 4.031-.41 1.418-.653 2.686-.727 3.806h25.864c-.747-4.03-2.071-7.089-3.975-9.18zm52.725-3.135c-2.539 0-4.666.58-6.382 1.735-1.718 1.159-3.118 2.65-4.199 4.479-1.082 1.83-1.847 3.846-2.295 6.046-.447 2.202-.672 4.386-.672 6.549 0 2.092.225 4.219.672 6.383.448 2.165 1.175 4.125 2.184 5.878 1.007 1.755 2.369 3.192 4.087 4.312 1.714 1.12 3.806 1.679 6.269 1.679 3.809 0 6.736-1.063 8.79-3.191 2.053-2.127 3.339-4.982 3.862-8.566h15.341c-1.045 7.69-4.031 13.549-8.956 17.58-4.928 4.031-11.237 6.045-18.923 6.045-4.331 0-8.305-.727-11.925-2.183-3.621-1.455-6.7-3.488-9.239-6.103-2.538-2.611-4.516-5.728-5.934-9.35-1.419-3.618-2.127-7.594-2.127-11.923 0-4.479.652-8.64 1.96-12.485 1.304-3.843 3.228-7.166 5.765-9.966 2.538-2.799 5.635-4.982 9.294-6.55 3.657-1.567 7.837-2.351 12.541-2.351 3.433 0 6.735.447 9.909 1.344 3.172.896 6.008 2.258 8.51 4.086 2.5 1.832 4.535 4.106 6.102 6.83 1.567 2.726 2.463 5.954 2.687 9.686h-15.564c-1.047-6.642-4.965-9.964-11.757-9.964zm65.132-10.413v10.638h-11.645v28.664c0 2.687.449 4.479 1.344 5.375.896.894 2.688 1.342 5.374 1.342.896 0 1.754-.037 2.576-.112.822-.073 1.604-.187 2.352-.336v12.317c-1.345.225-2.838.373-4.479.448-1.644.074-3.247.113-4.814.113-2.464 0-4.798-.168-6.999-.505-2.202-.336-4.142-.989-5.822-1.96-1.68-.968-3.007-2.351-3.975-4.142-.972-1.792-1.457-4.144-1.457-7.055v-34.15h-9.629v-10.637h9.629v-17.355h15.9v17.354h11.645zm54.528 75.131c-3.062 2.014-7.316 3.021-12.766 3.021-1.643 0-3.266-.056-4.871-.167-1.605-.112-3.229-.243-4.871-.392v-13.1c1.494.148 3.025.298 4.593.448 1.566.148 3.135.186 4.701.11 2.09-.222 3.639-1.045 4.646-2.462 1.008-1.418 1.512-2.986 1.512-4.703 0-1.269-.225-2.463-.672-3.583l-20.265-54.305h16.908l13.1 39.639h.225l12.65-39.639h16.461l-24.187 65.054c-1.717 4.704-4.106 8.063-7.164 10.079zm31.004-58.729c1.416-3.768 3.432-6.978 6.045-9.629 2.611-2.647 5.746-4.701 9.406-6.157 3.654-1.456 7.762-2.184 12.316-2.184 4.553 0 8.676.729 12.371 2.184s6.848 3.509 9.463 6.157c2.611 2.652 4.627 5.861 6.045 9.629 1.418 3.771 2.129 7.97 2.129 12.597 0 4.63-.711 8.809-2.129 12.541-1.418 3.735-3.434 6.925-6.045 9.574-2.615 2.651-5.768 4.686-9.463 6.102-3.695 1.418-7.818 2.127-12.371 2.127-4.555 0-8.662-.708-12.316-2.127-3.66-1.416-6.795-3.451-9.406-6.102-2.613-2.649-4.629-5.839-6.045-9.574-1.42-3.731-2.129-7.91-2.129-12.541 0-4.626.709-8.826 2.129-12.597zm14.443 19.372c.447 2.202 1.213 4.181 2.295 5.934 1.082 1.755 2.518 3.155 4.311 4.199 1.791 1.047 4.031 1.567 6.719 1.567s4.943-.521 6.775-1.567c1.826-1.044 3.281-2.444 4.367-4.199 1.078-1.752 1.846-3.731 2.293-5.934.449-2.201.672-4.459.672-6.775 0-2.312-.223-4.59-.672-6.829-.447-2.24-1.215-4.218-2.293-5.935-1.086-1.717-2.541-3.116-4.367-4.199-1.832-1.081-4.088-1.624-6.775-1.624s-4.928.543-6.719 1.624c-1.793 1.083-3.229 2.482-4.311 4.199-1.082 1.717-1.848 3.695-2.295 5.935-.449 2.239-.67 4.516-.67 6.829 0 2.316.221 4.574.67 6.775zm88.265 22.113v-8.062h-.338c-2.016 3.359-4.629 5.786-7.836 7.279-3.211 1.492-6.496 2.239-9.855 2.239-4.256 0-7.744-.559-10.469-1.679-2.727-1.119-4.871-2.705-6.438-4.758-1.568-2.051-2.672-4.552-3.303-7.503-.637-2.946-.953-6.213-.953-9.796v-35.607h15.9v32.695c0 4.778.744 8.341 2.238 10.693 1.492 2.351 4.143 3.528 7.949 3.528 4.33 0 7.465-1.287 9.406-3.863 1.939-2.575 2.91-6.812 2.91-12.709v-30.344h15.9v57.888h-15.111zm38.626-57.887v10.748h.225c.746-1.791 1.752-3.45 3.021-4.981 1.27-1.528 2.725-2.836 4.369-3.918 1.641-1.082 3.393-1.921 5.262-2.521 1.863-.596 3.807-.896 5.822-.896 1.045 0 2.201.187 3.471.561v14.779c-.746-.148-1.643-.28-2.686-.392-1.049-.112-2.057-.167-3.023-.167-2.912 0-5.377.486-7.391 1.456-2.016.97-3.641 2.295-4.871 3.975-1.232 1.68-2.111 3.639-2.631 5.877-.523 2.24-.783 4.667-.783 7.278v26.089h-15.9v-57.888h15.115zm39.144 43.5c.709 1.232 1.623 2.239 2.742 3.022 1.119.784 2.408 1.364 3.863 1.737 1.457.373 2.969.559 4.535.559 1.119 0 2.295-.129 3.527-.392 1.232-.261 2.35-.671 3.357-1.232 1.008-.559 1.848-1.304 2.52-2.239.674-.932 1.01-2.108 1.01-3.526 0-2.388-1.588-4.18-4.76-5.375-3.174-1.194-7.596-2.389-13.27-3.584-2.312-.521-4.57-1.136-6.773-1.847-2.203-.709-4.162-1.641-5.879-2.798-1.717-1.158-3.098-2.613-4.141-4.367-1.047-1.754-1.57-3.901-1.57-6.438 0-3.731.729-6.792 2.184-9.182 1.457-2.388 3.379-4.272 5.766-5.652 2.389-1.382 5.078-2.353 8.062-2.912 2.986-.56 6.047-.84 9.182-.84 3.137 0 6.176.3 9.127.896 2.945.6 5.58 1.606 7.893 3.024 2.312 1.418 4.236 3.303 5.768 5.655 1.529 2.351 2.443 5.317 2.742 8.901h-15.115c-.225-3.061-1.383-5.131-3.471-6.215-2.092-1.081-4.557-1.624-7.391-1.624-.896 0-1.867.057-2.91.168-1.047.113-1.998.355-2.855.729-.859.374-1.586.915-2.184 1.624-.598.708-.896 1.662-.896 2.854 0 1.42.523 2.576 1.568 3.472 1.043.896 2.406 1.623 4.086 2.183s3.602 1.063 5.766 1.511c2.166.448 4.367.935 6.607 1.457 2.314.521 4.572 1.158 6.773 1.903 2.201.746 4.162 1.735 5.879 2.966 1.717 1.232 3.096 2.762 4.143 4.591 1.047 1.83 1.568 4.087 1.568 6.774 0 3.807-.766 6.998-2.295 9.573-1.531 2.574-3.527 4.646-5.99 6.213-2.465 1.568-5.281 2.67-8.455 3.304s-6.4.95-9.684.95c-3.361 0-6.646-.335-9.855-1.007s-6.064-1.791-8.562-3.359c-2.506-1.567-4.555-3.639-6.16-6.213-1.605-2.576-2.482-5.803-2.631-9.686h15.115c0 1.717.353 3.19 1.064 4.422zm59.869.504c2.387 2.312 5.82 3.47 10.299 3.47 3.209 0 5.973-.802 8.285-2.407 2.314-1.604 3.732-3.303 4.256-5.094h13.998c-2.24 6.942-5.674 11.905-10.303 14.893-4.631 2.986-10.227 4.477-16.797 4.477-4.553 0-8.658-.727-12.314-2.183-3.658-1.455-6.76-3.527-9.293-6.215-2.539-2.686-4.5-5.895-5.879-9.629-1.383-3.731-2.07-7.837-2.07-12.317 0-4.327.707-8.358 2.127-12.092 1.418-3.731 3.432-6.959 6.047-9.685 2.609-2.724 5.727-4.871 9.348-6.439 3.619-1.567 7.631-2.351 12.035-2.351 4.928 0 9.219.952 12.877 2.856 3.656 1.904 6.662 4.461 9.016 7.669 2.352 3.212 4.049 6.868 5.094 10.973 1.043 4.107 1.416 8.398 1.119 12.876h-41.764c.224 5.151 1.527 8.886 3.919 11.198zm17.971-30.456c-1.904-2.089-4.799-3.136-8.678-3.136-2.541 0-4.648.431-6.326 1.287-1.682.86-3.023 1.923-4.031 3.192-1.008 1.27-1.717 2.613-2.129 4.031-.41 1.418-.652 2.686-.727 3.806h25.863c-.744-4.03-2.07-7.089-3.972-9.18zm41.435-35.606v79.945h-15.898v-79.945h15.898zm2.834 32.695v-10.637h9.518v-4.479c0-5.148 1.604-9.366 4.814-12.652 3.207-3.283 8.061-4.927 14.557-4.927 1.414 0 2.834.055 4.254.168 1.416.112 2.797.206 4.143.28v11.868c-1.867-.223-3.807-.335-5.822-.335-2.166 0-3.715.503-4.646 1.511-.936 1.008-1.4 2.707-1.4 5.096v3.47h10.973v10.638h-10.973v47.25h-15.898v-47.25h-9.52zm-698.569 140.225l-10.301-38.854h-.224l-9.853 38.854h-16.46l-18.362-57.888h16.796l10.635 39.3h.226l9.628-39.3h15.451l9.854 39.189h.225l10.637-39.189h16.346l-18.249 57.888h-16.349zm37.733-66.844v-13.102h15.899v13.102h-15.899zm15.9 8.956v57.888h-15.9v-57.888h15.9zm40.308 0v10.638h-11.646v28.663c0 2.688.45 4.48 1.345 5.377.895.894 2.687 1.342 5.375 1.342.896 0 1.753-.037 2.576-.111.82-.074 1.604-.188 2.351-.337v12.317c-1.344.223-2.839.373-4.479.447-1.643.074-3.247.113-4.814.113-2.464 0-4.797-.168-6.999-.505-2.202-.337-4.143-.988-5.823-1.96-1.681-.969-3.006-2.352-3.975-4.142-.97-1.792-1.457-4.144-1.457-7.055v-34.15h-9.628v-10.638h9.628v-17.354h15.899v17.355h11.647zm20.288-22.058v30.12h.335c2.017-3.359 4.591-5.802 7.727-7.333 3.134-1.531 6.194-2.297 9.181-2.297 4.255 0 7.744.581 10.469 1.737 2.723 1.157 4.87 2.762 6.438 4.814 1.566 2.054 2.667 4.554 3.303 7.502.634 2.95.952 6.214.952 9.796v35.607h-15.899v-32.695c0-4.775-.747-8.342-2.24-10.693-1.494-2.351-4.142-3.525-7.949-3.525-4.33 0-7.467 1.287-9.406 3.862-1.941 2.574-2.911 6.813-2.911 12.708v30.344h-15.899v-79.947h15.899zm75.353 39.861c.223-3.731 1.157-6.829 2.799-9.293 1.641-2.464 3.732-4.441 6.271-5.935 2.536-1.494 5.392-2.556 8.565-3.192 3.171-.631 6.362-.952 9.573-.952 2.911 0 5.859.208 8.845.617 2.984.411 5.712 1.215 8.175 2.407 2.462 1.195 4.478 2.855 6.045 4.983 1.568 2.127 2.352 4.946 2.352 8.454v30.12c0 2.613.148 5.112.447 7.502.299 2.389.822 4.181 1.569 5.374h-16.123c-.301-.896-.543-1.81-.728-2.744-.188-.933-.318-1.885-.392-2.854-2.54 2.613-5.526 4.442-8.958 5.486-3.434 1.044-6.942 1.567-10.526 1.567-2.762 0-5.338-.336-7.726-1.008-2.39-.672-4.479-1.717-6.27-3.134-1.792-1.419-3.192-3.21-4.199-5.376-1.007-2.163-1.511-4.738-1.511-7.725 0-3.285.577-5.991 1.735-8.119 1.156-2.125 2.649-3.824 4.479-5.094 1.829-1.27 3.919-2.221 6.27-2.854 2.351-.634 4.722-1.138 7.11-1.513 2.388-.371 4.739-.672 7.054-.896 2.313-.223 4.366-.56 6.158-1.007 1.792-.446 3.209-1.101 4.256-1.96 1.043-.857 1.529-2.108 1.456-3.751 0-1.716-.28-3.078-.84-4.086-.56-1.007-1.307-1.791-2.239-2.351-.935-.56-2.017-.932-3.249-1.12-1.231-.186-2.557-.28-3.974-.28-3.134 0-5.599.672-7.39 2.016-1.792 1.343-2.837 3.584-3.136 6.718h-15.898zm36.726 11.757c-.673.598-1.512 1.063-2.519 1.4-1.008.335-2.092.615-3.248.838-1.158.225-2.371.412-3.639.561-1.271.151-2.539.336-3.808.561-1.195.225-2.37.522-3.526.896-1.159.373-2.166.877-3.023 1.51-.859.636-1.55 1.439-2.072 2.408-.523.97-.784 2.203-.784 3.695 0 1.419.26 2.612.784 3.583.522.97 1.232 1.734 2.127 2.294.895.561 1.939.952 3.134 1.177 1.194.225 2.426.335 3.696.335 3.134 0 5.56-.521 7.277-1.566 1.717-1.045 2.985-2.296 3.809-3.752.819-1.456 1.323-2.928 1.511-4.422.186-1.492.28-2.689.28-3.583v-5.935zm70.091-51.618v79.946h-15.899v-79.946h15.899zm25.639 66.061c2.389 2.314 5.823 3.471 10.302 3.471 3.208 0 5.971-.802 8.285-2.406 2.313-1.604 3.731-3.303 4.254-5.094h13.999c-2.24 6.94-5.676 11.904-10.303 14.89-4.629 2.988-10.229 4.479-16.796 4.479-4.553 0-8.659-.728-12.315-2.183-3.659-1.456-6.757-3.528-9.294-6.215-2.537-2.688-4.496-5.897-5.878-9.63-1.382-3.73-2.071-7.837-2.071-12.316 0-4.328.708-8.357 2.127-12.093 1.417-3.73 3.433-6.958 6.047-9.684 2.611-2.726 5.727-4.871 9.349-6.439 3.62-1.567 7.631-2.352 12.035-2.352 4.928 0 9.221.952 12.878 2.857 3.655 1.904 6.663 4.461 9.012 7.669 2.354 3.21 4.049 6.868 5.096 10.974 1.045 4.105 1.416 8.396 1.119 12.876h-41.764c.223 5.149 1.528 8.884 3.918 11.196zm17.971-30.455c-1.903-2.089-4.797-3.135-8.676-3.135-2.54 0-4.648.43-6.328 1.287-1.679.86-3.022 1.923-4.03 3.192-1.008 1.271-1.718 2.614-2.128 4.031-.412 1.418-.655 2.686-.728 3.807h25.865c-.747-4.032-2.07-7.091-3.975-9.182zm38.383 29.951c.709 1.232 1.623 2.24 2.742 3.023 1.121.783 2.408 1.363 3.863 1.735 1.457.374 2.967.56 4.535.56 1.119 0 2.295-.129 3.527-.392 1.23-.261 2.35-.672 3.359-1.231 1.008-.559 1.848-1.306 2.518-2.239.672-.933 1.008-2.107 1.008-3.526 0-2.388-1.588-4.181-4.76-5.376-3.172-1.192-7.594-2.388-13.268-3.583-2.312-.521-4.572-1.136-6.773-1.847-2.201-.709-4.162-1.642-5.879-2.798-1.717-1.158-3.098-2.613-4.143-4.367s-1.566-3.901-1.566-6.439c0-3.731.727-6.792 2.182-9.182 1.457-2.388 3.379-4.271 5.768-5.655 2.389-1.379 5.076-2.351 8.062-2.911 2.984-.559 6.045-.84 9.18-.84 3.137 0 6.176.301 9.127.896 2.947.598 5.578 1.607 7.893 3.024 2.312 1.419 4.236 3.303 5.768 5.653 1.527 2.353 2.443 5.318 2.744 8.901h-15.117c-.225-3.06-1.381-5.132-3.471-6.214-2.088-1.081-4.555-1.624-7.391-1.624-.895 0-1.867.057-2.91.168-1.047.111-1.998.354-2.855.727-.859.375-1.588.916-2.184 1.624-.598.71-.896 1.662-.896 2.855 0 1.419.523 2.576 1.568 3.473 1.043.895 2.406 1.622 4.088 2.183 1.678.559 3.6 1.063 5.764 1.51 2.166.449 4.369.936 6.605 1.456 2.314.523 4.574 1.159 6.777 1.903 2.197.747 4.156 1.737 5.877 2.968 1.715 1.231 3.098 2.763 4.145 4.591 1.043 1.83 1.564 4.088 1.564 6.773 0 3.809-.764 6.999-2.295 9.574-1.529 2.574-3.525 4.646-5.99 6.214-2.463 1.568-5.283 2.67-8.453 3.304-3.174.633-6.402.951-9.686.951-3.357 0-6.643-.336-9.852-1.008-3.211-.672-6.066-1.791-8.566-3.359-2.502-1.566-4.555-3.639-6.158-6.213-1.605-2.576-2.482-5.804-2.633-9.686h15.117c0 1.72.354 3.193 1.065 4.424zm56.529 0c.709 1.232 1.625 2.24 2.744 3.023 1.121.783 2.406 1.363 3.865 1.735 1.453.374 2.965.56 4.533.56 1.121 0 2.297-.129 3.527-.392 1.23-.261 2.35-.672 3.359-1.231 1.008-.559 1.848-1.306 2.518-2.239.672-.933 1.008-2.107 1.008-3.526 0-2.388-1.586-4.181-4.76-5.376-3.17-1.192-7.596-2.388-13.266-3.583-2.314-.521-4.574-1.136-6.775-1.847-2.201-.709-4.16-1.642-5.879-2.798-1.717-1.158-3.096-2.613-4.143-4.367-1.045-1.754-1.566-3.901-1.566-6.439 0-3.731.729-6.792 2.184-9.182 1.455-2.388 3.375-4.271 5.768-5.655 2.387-1.379 5.072-2.351 8.061-2.911 2.984-.559 6.045-.84 9.18-.84 3.137 0 6.176.301 9.125.896 2.949.598 5.58 1.607 7.896 3.024 2.312 1.419 4.234 3.303 5.766 5.653 1.529 2.353 2.443 5.318 2.744 8.901h-15.117c-.225-3.06-1.381-5.132-3.471-6.214-2.09-1.081-4.555-1.624-7.391-1.624-.895 0-1.865.057-2.91.168-1.047.111-1.996.354-2.855.727-.859.375-1.586.916-2.186 1.624-.598.71-.893 1.662-.893 2.855 0 1.419.52 2.576 1.566 3.473 1.045.895 2.406 1.622 4.088 2.183 1.678.559 3.6 1.063 5.766 1.51 2.164.449 4.367.936 6.605 1.456 2.312.523 4.572 1.159 6.775 1.903 2.199.747 4.158 1.737 5.879 2.968 1.713 1.231 3.096 2.763 4.143 4.591 1.043 1.83 1.564 4.088 1.564 6.773 0 3.809-.764 6.999-2.293 9.574-1.531 2.574-3.527 4.646-5.992 6.214-2.463 1.568-5.281 2.67-8.453 3.304-3.172.633-6.402.951-9.686.951-3.355 0-6.643-.336-9.852-1.008-3.211-.672-6.066-1.791-8.566-3.359-2.5-1.566-4.555-3.639-6.156-6.213-1.607-2.576-2.482-5.804-2.633-9.686h15.115c.001 1.72.355 3.193 1.064 4.424zm42.627-27.096c1.416-3.768 3.434-6.978 6.045-9.629 2.613-2.648 5.748-4.702 9.408-6.157 3.656-1.456 7.762-2.185 12.314-2.185s8.68.729 12.373 2.185 6.85 3.509 9.461 6.157c2.611 2.651 4.631 5.861 6.047 9.629 1.416 3.771 2.127 7.97 2.127 12.597 0 4.631-.711 8.809-2.127 12.541-1.416 3.734-3.436 6.924-6.047 9.572-2.611 2.651-5.768 4.687-9.461 6.104-3.693 1.416-7.82 2.127-12.373 2.127s-8.658-.711-12.314-2.127c-3.66-1.417-6.795-3.452-9.408-6.104-2.611-2.648-4.629-5.838-6.045-9.572-1.416-3.732-2.129-7.91-2.129-12.541 0-4.628.713-8.827 2.129-12.597zm14.445 19.372c.449 2.202 1.211 4.181 2.295 5.934 1.08 1.755 2.52 3.154 4.309 4.199 1.795 1.045 4.031 1.566 6.719 1.566 2.689 0 4.945-.521 6.773-1.566 1.83-1.045 3.287-2.444 4.369-4.199 1.082-1.753 1.846-3.731 2.293-5.934.449-2.203.672-4.46.672-6.775 0-2.312-.223-4.59-.672-6.828-.447-2.24-1.211-4.218-2.293-5.936-1.082-1.717-2.539-3.116-4.369-4.199-1.828-1.081-4.084-1.624-6.773-1.624-2.688 0-4.924.542-6.719 1.624-1.789 1.083-3.229 2.482-4.309 4.199-1.084 1.717-1.846 3.695-2.295 5.936-.451 2.238-.674 4.516-.674 6.828 0 2.315.223 4.572.674 6.775zm64.391-35.775v8.062h.336c2.018-3.359 4.627-5.802 7.838-7.333 3.209-1.531 6.496-2.297 9.854-2.297 4.256 0 7.742.581 10.469 1.737 2.725 1.157 4.871 2.762 6.439 4.814 1.564 2.054 2.668 4.554 3.301 7.502.637 2.95.953 6.214.953 9.796v35.607h-15.898v-32.695c0-4.775-.748-8.342-2.242-10.693-1.494-2.351-4.143-3.525-7.949-3.525-4.33 0-7.465 1.287-9.404 3.862-1.941 2.574-2.912 6.813-2.912 12.708v30.344h-15.9v-57.888h15.115zm-612.256 103.612v-10.638h9.518v-4.479c0-5.149 1.604-9.367 4.813-12.652 3.209-3.283 8.063-4.927 14.557-4.927 1.417 0 2.836.056 4.253.169 1.419.111 2.801.205 4.144.278v11.869c-1.867-.225-3.806-.337-5.822-.337-2.167 0-3.715.506-4.647 1.513-.934 1.007-1.399 2.704-1.399 5.094v3.472h10.973v10.638h-10.973v47.25h-15.899v-47.25h-9.518zm54.607-10.638v10.748h.224c.744-1.791 1.751-3.451 3.024-4.981 1.267-1.53 2.723-2.836 4.365-3.919 1.641-1.081 3.396-1.92 5.263-2.519 1.864-.598 3.806-.897 5.822-.897 1.045 0 2.201.188 3.471.562v14.778c-.747-.148-1.642-.279-2.686-.39-1.046-.113-2.053-.171-3.024-.171-2.911 0-5.373.487-7.39 1.457-2.015.971-3.638 2.295-4.87 3.975-1.232 1.68-2.11 3.639-2.632 5.878-.523 2.241-.784 4.666-.784 7.278v26.089h-15.9v-57.888h15.117zm24.933 16.403c1.417-3.769 3.434-6.978 6.046-9.63 2.612-2.648 5.748-4.701 9.406-6.158 3.656-1.455 7.764-2.184 12.315-2.184 4.553 0 8.679.729 12.375 2.184 3.694 1.457 6.847 3.51 9.461 6.158 2.611 2.652 4.626 5.861 6.045 9.63 1.419 3.771 2.127 7.97 2.127 12.597 0 4.629-.708 8.808-2.127 12.539-1.418 3.734-3.434 6.926-6.045 9.573-2.614 2.652-5.767 4.688-9.461 6.104-3.696 1.417-7.821 2.127-12.375 2.127-4.552 0-8.659-.71-12.315-2.127-3.658-1.416-6.793-3.451-9.406-6.104-2.612-2.647-4.629-5.839-6.046-9.573-1.417-3.731-2.127-7.91-2.127-12.539 0-4.627.71-8.826 2.127-12.597zm14.444 19.371c.448 2.202 1.213 4.181 2.295 5.934 1.082 1.754 2.521 3.154 4.312 4.199 1.791 1.047 4.031 1.567 6.716 1.567 2.688 0 4.945-.521 6.775-1.567 1.829-1.045 3.284-2.445 4.368-4.199 1.08-1.753 1.847-3.731 2.294-5.934.448-2.201.671-4.46.671-6.774 0-2.312-.223-4.592-.671-6.829-.447-2.24-1.215-4.218-2.294-5.937-1.083-1.716-2.539-3.115-4.368-4.197-1.83-1.081-4.086-1.624-6.775-1.624-2.685 0-4.925.543-6.716 1.624-1.792 1.082-3.23 2.481-4.312 4.197-1.082 1.719-1.847 3.696-2.295 5.937-.447 2.237-.671 4.517-.671 6.829 0 2.314.224 4.573.671 6.774zm64.483-35.774v7.838h.225c2.088-2.985 4.608-5.299 7.558-6.942 2.948-1.641 6.325-2.464 10.133-2.464 3.656 0 6.999.711 10.021 2.127 3.022 1.42 5.318 3.921 6.887 7.504 1.716-2.538 4.048-4.777 6.997-6.72 2.949-1.938 6.438-2.911 10.469-2.911 3.06 0 5.896.376 8.509 1.12 2.612.747 4.852 1.942 6.72 3.584 1.864 1.643 3.32 3.789 4.366 6.438 1.044 2.65 1.567 5.842 1.567 9.572v38.741h-15.899v-32.808c0-1.939-.076-3.768-.224-5.484-.151-1.719-.562-3.21-1.233-4.479-.67-1.269-1.66-2.276-2.966-3.024-1.308-.745-3.079-1.117-5.319-1.117-2.239 0-4.05.43-5.43 1.287-1.382.857-2.464 1.978-3.248 3.356-.783 1.383-1.307 2.951-1.567 4.704-.263 1.755-.392 3.527-.392 5.318v32.247h-15.9v-32.472c0-1.715-.037-3.413-.11-5.094-.075-1.68-.392-3.228-.952-4.646-.56-1.418-1.495-2.557-2.8-3.414s-3.229-1.287-5.765-1.287c-.747 0-1.736.166-2.968.502-1.231.335-2.427.971-3.584 1.905s-2.145 2.275-2.966 4.029c-.822 1.754-1.231 4.05-1.231 6.886v33.591h-15.899v-57.888h15.001zm110.847 17.803c.224-3.733 1.156-6.828 2.799-9.293 1.641-2.463 3.732-4.44 6.271-5.934 2.537-1.494 5.392-2.558 8.566-3.192 3.171-.633 6.362-.952 9.573-.952 2.911 0 5.858.208 8.846.616 2.984.411 5.711 1.215 8.174 2.407 2.462 1.195 4.479 2.854 6.045 4.983 1.568 2.127 2.352 4.946 2.352 8.455v30.117c0 2.615.148 5.114.447 7.502.298 2.391.821 4.181 1.569 5.375h-16.123c-.301-.896-.543-1.81-.729-2.744-.188-.933-.318-1.884-.392-2.854-2.54 2.614-5.526 4.441-8.959 5.486s-6.94 1.567-10.523 1.567c-2.763 0-5.339-.335-7.727-1.007-2.39-.672-4.479-1.717-6.27-3.136-1.792-1.417-3.191-3.208-4.199-5.375-1.007-2.163-1.511-4.738-1.511-7.724 0-3.286.576-5.992 1.735-8.12 1.156-2.127 2.649-3.825 4.478-5.094 1.829-1.268 3.918-2.221 6.27-2.855 2.352-.633 4.721-1.138 7.11-1.512 2.388-.372 4.739-.671 7.054-.895 2.313-.225 4.366-.56 6.158-1.008 1.792-.447 3.209-1.101 4.256-1.961 1.043-.856 1.529-2.107 1.456-3.751 0-1.716-.28-3.079-.84-4.085-.56-1.01-1.307-1.793-2.239-2.353-.934-.56-2.017-.933-3.248-1.118-1.232-.187-2.557-.281-3.976-.281-3.134 0-5.597.671-7.389 2.016-1.792 1.344-2.837 3.583-3.136 6.718h-15.898zm36.727 11.755c-.672.598-1.512 1.064-2.521 1.4-1.007.336-2.089.616-3.246.84-1.159.225-2.371.411-3.639.559-1.271.152-2.539.338-3.808.561-1.195.224-2.371.523-3.526.896-1.159.373-2.166.878-3.023 1.511-.86.636-1.55 1.439-2.072 2.408-.523.971-.784 2.202-.784 3.693 0 1.421.26 2.616.784 3.584.521.972 1.23 1.735 2.127 2.296.896.56 1.939.951 3.135 1.175 1.193.224 2.426.337 3.695.337 3.136 0 5.561-.521 7.277-1.567 1.717-1.044 2.984-2.296 3.808-3.752.82-1.456 1.324-2.927 1.512-4.422.186-1.492.28-2.688.28-3.583v-5.936zm94.835 20.94c-1.868 3.135-4.311 5.394-7.334 6.774-3.023 1.379-6.438 2.07-10.246 2.07-4.33 0-8.137-.84-11.42-2.519-3.286-1.681-5.99-3.955-8.117-6.83-2.127-2.873-3.735-6.175-4.816-9.91-1.082-3.73-1.623-7.613-1.623-11.645 0-3.88.541-7.631 1.623-11.252 1.081-3.619 2.688-6.811 4.816-9.573 2.127-2.762 4.795-4.983 8.004-6.661 3.209-1.683 6.943-2.521 11.197-2.521 3.433 0 6.699.729 9.798 2.184 3.095 1.457 5.542 3.604 7.334 6.438h.224v-29.111h15.898v79.945h-15.114v-7.39h-.224zm-.671-28.608c-.448-2.201-1.215-4.143-2.296-5.822-1.083-1.679-2.483-3.041-4.199-4.086-1.717-1.045-3.881-1.568-6.493-1.568-2.614 0-4.814.523-6.605 1.568-1.792 1.045-3.231 2.426-4.311 4.142-1.083 1.717-1.867 3.678-2.352 5.88-.486 2.202-.727 4.497-.727 6.885 0 2.24.26 4.479.784 6.719.522 2.239 1.361 4.236 2.518 5.99 1.157 1.754 2.614 3.172 4.368 4.254s3.863 1.624 6.327 1.624c2.612 0 4.795-.521 6.55-1.567 1.753-1.045 3.153-2.445 4.199-4.199 1.043-1.753 1.791-3.751 2.239-5.99.447-2.24.672-4.552.672-6.942-.003-2.39-.227-4.685-.674-6.888zm24.039-5.487c1.416-3.769 3.432-6.978 6.045-9.63 2.611-2.648 5.748-4.701 9.406-6.158 3.656-1.455 7.762-2.184 12.316-2.184 4.553 0 8.678.729 12.371 2.184 3.695 1.457 6.85 3.51 9.461 6.158 2.613 2.652 4.629 5.861 6.049 9.63 1.414 3.771 2.125 7.97 2.125 12.597 0 4.629-.711 8.808-2.125 12.539-1.42 3.734-3.436 6.926-6.049 9.573-2.611 2.652-5.766 4.688-9.461 6.104-3.693 1.417-7.818 2.127-12.371 2.127-4.555 0-8.66-.71-12.316-2.127-3.658-1.416-6.795-3.451-9.406-6.104-2.613-2.647-4.629-5.839-6.045-9.573-1.42-3.731-2.129-7.91-2.129-12.539 0-4.627.709-8.826 2.129-12.597zm14.444 19.371c.447 2.202 1.213 4.181 2.295 5.934 1.082 1.754 2.518 3.154 4.311 4.199 1.791 1.047 4.031 1.567 6.719 1.567s4.943-.521 6.773-1.567c1.828-1.045 3.283-2.445 4.365-4.199 1.084-1.753 1.85-3.731 2.297-5.934.447-2.201.672-4.46.672-6.774 0-2.312-.225-4.592-.672-6.829-.447-2.24-1.213-4.218-2.297-5.937-1.082-1.716-2.537-3.115-4.365-4.197-1.83-1.081-4.086-1.624-6.773-1.624s-4.928.543-6.719 1.624c-1.793 1.082-3.229 2.481-4.311 4.197-1.082 1.719-1.848 3.696-2.295 5.937-.449 2.237-.674 4.517-.674 6.829 0 2.314.224 4.573.674 6.774zm65.511-57.832v79.945h-15.902v-79.945h15.902zm24.612 0v79.945h-15.9v-79.945h15.9zm7.949 39.861c.223-3.733 1.154-6.828 2.797-9.293 1.643-2.463 3.73-4.44 6.271-5.934 2.537-1.494 5.393-2.558 8.566-3.192 3.17-.633 6.363-.952 9.572-.952 2.912 0 5.857.208 8.846.616 2.984.411 5.711 1.215 8.174 2.407 2.463 1.195 4.479 2.854 6.045 4.983 1.57 2.127 2.354 4.946 2.354 8.455v30.117c0 2.615.148 5.114.447 7.502.297 2.391.82 4.181 1.566 5.375h-16.123c-.299-.896-.541-1.81-.727-2.744-.188-.933-.32-1.884-.393-2.854-2.541 2.614-5.525 4.441-8.959 5.486s-6.939 1.567-10.525 1.567c-2.76 0-5.336-.335-7.725-1.007s-4.479-1.717-6.27-3.136c-1.791-1.417-3.191-3.208-4.199-5.375-1.008-2.163-1.512-4.738-1.512-7.724 0-3.286.578-5.992 1.736-8.12 1.154-2.127 2.648-3.825 4.477-5.094 1.83-1.268 3.92-2.221 6.271-2.855 2.35-.633 4.723-1.138 7.111-1.512 2.389-.372 4.738-.671 7.053-.895 2.314-.225 4.367-.56 6.158-1.008 1.793-.447 3.209-1.101 4.258-1.961 1.041-.856 1.525-2.107 1.453-3.751 0-1.716-.281-3.079-.84-4.085-.561-1.01-1.307-1.793-2.238-2.353-.936-.56-2.018-.933-3.248-1.118-1.232-.187-2.559-.281-3.975-.281-3.137 0-5.6.671-7.393 2.016-1.789 1.344-2.834 3.583-3.131 6.718h-15.897zm36.724 11.755c-.672.598-1.512 1.064-2.518 1.4-1.01.336-2.094.616-3.248.84-1.158.225-2.371.411-3.639.559-1.273.152-2.539.338-3.807.561-1.197.224-2.371.523-3.529.896-1.156.373-2.164.878-3.023 1.511-.859.636-1.547 1.439-2.07 2.408-.523.971-.785 2.202-.785 3.693 0 1.421.262 2.616.785 3.584.523.972 1.232 1.735 2.127 2.296.895.56 1.939.951 3.135 1.175 1.193.224 2.426.337 3.695.337 3.135 0 5.561-.521 7.277-1.567 1.719-1.044 2.984-2.296 3.807-3.752s1.324-2.927 1.512-4.422c.189-1.492.281-2.688.281-3.583v-5.936zm39.512-29.558v10.748h.227c.744-1.791 1.75-3.451 3.02-4.981 1.271-1.53 2.727-2.836 4.369-3.919 1.641-1.081 3.395-1.92 5.262-2.519 1.863-.598 3.807-.897 5.822-.897 1.047 0 2.201.188 3.471.562v14.778c-.746-.148-1.641-.279-2.684-.39-1.049-.113-2.057-.171-3.025-.171-2.912 0-5.377.487-7.391 1.457-2.016.971-3.641 2.295-4.871 3.975s-2.109 3.639-2.631 5.878c-.523 2.241-.783 4.666-.783 7.278v26.089h-15.9v-57.888h15.114z" fill="#fff"/></svg>