<?xml version="1.0" encoding="utf-8"?>
<!-- Generator: Adobe Illustrator 16.0.0, SVG Export Plug-In . SVG Version: 6.00 Build 0)  -->
<!DOCTYPE svg PUBLIC "-//W3C//DTD SVG 1.1//EN" "http://www.w3.org/Graphics/SVG/1.1/DTD/svg11.dtd">
<svg version="1.1" id="Layer_1" xmlns="http://www.w3.org/2000/svg" xmlns:xlink="http://www.w3.org/1999/xlink" x="0px" y="0px"
	 width="430px" height="200px" viewBox="0 0 430 200" enable-background="new 0 0 430 200" xml:space="preserve">
<path fill="#FFFFFF" d="M0,6.061V0h26.855v6.061h-9.824v26.717H9.824V6.061H0z M34.388,0v12.35h0.138
	c0.826-1.378,1.882-2.38,3.167-3.007c1.287-0.626,2.54-0.942,3.765-0.942c1.745,0,3.175,0.239,4.292,0.712
	c1.117,0.476,1.997,1.133,2.641,1.974c0.643,0.843,1.093,1.868,1.354,3.077c0.259,1.209,0.39,2.548,0.39,4.017v14.598h-6.519V19.374
	c0-1.958-0.307-3.42-0.918-4.384c-0.611-0.964-1.698-1.446-3.259-1.446c-1.775,0-3.061,0.528-3.855,1.583
	c-0.796,1.056-1.193,2.793-1.193,5.21v12.44H27.87V0H34.388z M52.846,16.344c0.092-1.53,0.474-2.8,1.147-3.81
	c0.673-1.01,1.53-1.821,2.571-2.435c1.04-0.612,2.209-1.047,3.512-1.309c1.3-0.259,2.609-0.391,3.925-0.391
	c1.194,0,2.402,0.085,3.626,0.253c1.224,0.168,2.34,0.498,3.351,0.987c1.01,0.49,1.836,1.17,2.479,2.043s0.963,2.027,0.963,3.465
	v12.35c0,1.072,0.062,2.097,0.185,3.077c0.122,0.979,0.335,1.714,0.643,2.203h-6.61c-0.123-0.367-0.223-0.742-0.299-1.125
	c-0.076-0.381-0.13-0.771-0.16-1.17c-1.042,1.072-2.265,1.82-3.674,2.25c-1.407,0.429-2.845,0.642-4.314,0.642
	c-1.132,0-2.188-0.138-3.167-0.413c-0.98-0.275-1.836-0.704-2.571-1.285c-0.735-0.581-1.309-1.315-1.722-2.204
	c-0.413-0.887-0.62-1.942-0.62-3.167c0-1.347,0.238-2.456,0.712-3.328c0.474-0.872,1.086-1.568,1.835-2.089
	c0.75-0.52,1.608-0.91,2.571-1.17c0.964-0.26,1.935-0.466,2.915-0.619c0.979-0.153,1.943-0.275,2.892-0.368
	c0.947-0.092,1.79-0.23,2.525-0.414c0.733-0.184,1.315-0.451,1.744-0.803c0.428-0.352,0.627-0.865,0.597-1.539
	c0-0.703-0.115-1.263-0.344-1.675c-0.229-0.413-0.536-0.734-0.918-0.964c-0.383-0.229-0.826-0.382-1.331-0.459
	c-0.504-0.076-1.049-0.115-1.63-0.115c-1.286,0-2.295,0.275-3.03,0.826c-0.735,0.551-1.164,1.47-1.285,2.754L52.846,16.344
	L52.846,16.344z M67.903,21.164c-0.275,0.246-0.62,0.436-1.033,0.574c-0.413,0.138-0.856,0.252-1.331,0.344
	c-0.475,0.092-0.972,0.167-1.491,0.229c-0.521,0.062-1.042,0.138-1.562,0.229c-0.49,0.092-0.972,0.214-1.446,0.367
	c-0.476,0.153-0.888,0.36-1.24,0.62c-0.351,0.26-0.635,0.591-0.848,0.987c-0.215,0.397-0.321,0.903-0.321,1.515
	c0,0.583,0.106,1.072,0.321,1.469c0.213,0.398,0.504,0.712,0.872,0.941c0.367,0.229,0.795,0.39,1.285,0.482
	c0.489,0.092,0.994,0.138,1.516,0.138c1.285,0,2.278-0.215,2.983-0.643c0.704-0.428,1.224-0.941,1.561-1.538
	c0.336-0.597,0.543-1.201,0.621-1.813c0.075-0.612,0.115-1.102,0.115-1.469L67.903,21.164z M83.742,9.044v3.306h0.137
	c0.826-1.378,1.897-2.38,3.213-3.007c1.315-0.626,2.663-0.941,4.041-0.941c1.745,0,3.175,0.238,4.292,0.712
	c1.117,0.475,1.997,1.132,2.64,1.974c0.644,0.842,1.095,1.867,1.354,3.076c0.259,1.208,0.39,2.548,0.39,4.017v14.598h-6.519V19.374
	c0-1.958-0.307-3.42-0.918-4.384c-0.613-0.964-1.698-1.446-3.259-1.446c-1.775,0-3.061,0.528-3.856,1.583
	c-0.795,1.056-1.192,2.793-1.192,5.21v12.44h-6.519V9.044H83.742z M109.645,0v17.583l8.218-8.539h7.712l-8.952,8.723l9.962,15.011
	h-7.896l-6.52-10.604l-2.524,2.433v8.171h-6.519V0H109.645z M146.735,39.847c-1.254,0.826-3,1.24-5.232,1.24
	c-0.673,0-1.339-0.023-1.997-0.069c-0.658-0.045-1.324-0.1-1.997-0.161v-5.372l1.882,0.184c0.643,0.062,1.286,0.076,1.928,0.046
	c0.855-0.092,1.491-0.429,1.905-1.01c0.414-0.582,0.62-1.225,0.62-1.928c0-0.52-0.092-1.01-0.275-1.468L135.26,9.044h6.932
	l5.371,16.251h0.092l5.187-16.251h6.749l-9.917,26.672C148.97,37.644,147.991,39.021,146.735,39.847L146.735,39.847z M159.117,15.77
	c0.581-1.545,1.407-2.861,2.479-3.949c1.07-1.085,2.356-1.927,3.856-2.524c1.499-0.597,3.182-0.896,5.049-0.896
	c1.866,0,3.558,0.299,5.073,0.896c1.515,0.597,2.807,1.438,3.879,2.524c1.071,1.088,1.897,2.403,2.479,3.949
	c0.581,1.545,0.872,3.267,0.872,5.164c0,1.898-0.291,3.612-0.872,5.143c-0.582,1.53-1.408,2.838-2.479,3.924
	c-1.072,1.087-2.364,1.921-3.879,2.502c-1.515,0.582-3.206,0.872-5.073,0.872s-3.55-0.291-5.049-0.872
	c-1.5-0.581-2.786-1.415-3.856-2.502c-1.073-1.085-1.898-2.394-2.479-3.924c-0.582-1.531-0.872-3.245-0.872-5.143
	C158.245,19.037,158.535,17.315,159.117,15.77z M165.039,23.711c0.184,0.903,0.497,1.714,0.94,2.433s1.033,1.293,1.769,1.722
	c0.734,0.428,1.652,0.643,2.753,0.643c1.103,0,2.027-0.214,2.777-0.643c0.75-0.428,1.347-1.003,1.791-1.722
	c0.443-0.719,0.757-1.53,0.94-2.433c0.184-0.902,0.276-1.828,0.276-2.777c0-0.948-0.092-1.882-0.276-2.8
	c-0.184-0.917-0.498-1.729-0.94-2.432c-0.444-0.705-1.041-1.279-1.791-1.723c-0.75-0.443-1.675-0.666-2.777-0.666
	c-1.102,0-2.02,0.222-2.753,0.666c-0.735,0.444-1.325,1.018-1.769,1.723c-0.443,0.703-0.756,1.515-0.94,2.432
	c-0.184,0.918-0.275,1.852-0.275,2.8C164.764,21.883,164.855,22.809,165.039,23.711z M200.876,32.778v-3.305h-0.138
	c-0.826,1.377-1.898,2.372-3.213,2.984c-1.316,0.612-2.663,0.917-4.041,0.917c-1.744,0-3.175-0.229-4.292-0.688
	c-1.116-0.458-1.997-1.108-2.64-1.95c-0.643-0.841-1.094-1.866-1.354-3.076c-0.26-1.208-0.391-2.547-0.391-4.017V9.044h6.52v13.405
	c0,1.958,0.305,3.42,0.917,4.384s1.699,1.446,3.259,1.446c1.775,0,3.061-0.528,3.855-1.583c0.796-1.056,1.195-2.792,1.195-5.21
	V9.044h6.519v23.734H200.876L200.876,32.778z M218.643,13.405V9.044h3.902V7.208c0-2.112,0.657-3.84,1.975-5.188
	c1.314-1.346,3.307-2.02,5.967-2.02c0.582,0,1.162,0.023,1.744,0.069c0.581,0.045,1.148,0.083,1.699,0.115V5.05
	c-0.766-0.092-1.562-0.138-2.389-0.138c-0.887,0-1.521,0.207-1.904,0.621c-0.383,0.414-0.574,1.11-0.574,2.089v1.423h4.499v4.361
	h-4.499v19.373h-6.518V13.405H218.643z M234.1,15.77c0.58-1.545,1.406-2.861,2.479-3.949c1.069-1.085,2.355-1.927,3.855-2.524
	c1.5-0.597,3.184-0.896,5.049-0.896c1.867,0,3.56,0.299,5.074,0.896c1.514,0.597,2.806,1.438,3.879,2.524
	c1.069,1.088,1.896,2.403,2.479,3.949c0.582,1.545,0.873,3.267,0.873,5.164c0,1.898-0.291,3.612-0.873,5.143
	c-0.581,1.53-1.408,2.838-2.479,3.924c-1.073,1.087-2.365,1.921-3.879,2.502c-1.518,0.582-3.207,0.872-5.074,0.872
	c-1.865,0-3.549-0.291-5.049-0.872c-1.5-0.581-2.786-1.415-3.855-2.502c-1.071-1.085-1.896-2.394-2.479-3.924
	c-0.582-1.531-0.873-3.245-0.873-5.143C233.227,19.037,233.518,17.315,234.1,15.77L234.1,15.77z M240.021,23.711
	c0.183,0.903,0.496,1.714,0.938,2.433s1.032,1.293,1.769,1.722c0.733,0.428,1.65,0.643,2.754,0.643s2.025-0.214,2.776-0.643
	c0.749-0.428,1.349-1.003,1.79-1.722c0.443-0.719,0.76-1.53,0.941-2.433c0.184-0.902,0.272-1.828,0.272-2.777
	c0-0.948-0.091-1.882-0.272-2.8c-0.187-0.917-0.498-1.729-0.941-2.432c-0.441-0.705-1.041-1.279-1.79-1.723
	c-0.751-0.443-1.675-0.666-2.776-0.666c-1.104,0-2.021,0.222-2.754,0.666c-0.734,0.444-1.324,1.018-1.769,1.723
	c-0.442,0.703-0.757,1.515-0.938,2.432c-0.186,0.918-0.275,1.852-0.275,2.8C239.746,21.883,239.838,22.809,240.021,23.711z
	 M266.066,9.044v4.408h0.093c0.306-0.734,0.719-1.415,1.238-2.043c0.521-0.627,1.118-1.163,1.792-1.607
	c0.672-0.443,1.392-0.788,2.155-1.033c0.766-0.245,1.562-0.367,2.388-0.367c0.43,0,0.901,0.077,1.425,0.229v6.06
	c-0.308-0.061-0.675-0.115-1.103-0.161c-0.431-0.046-0.844-0.068-1.24-0.068c-1.193,0-2.203,0.199-3.029,0.597
	c-0.826,0.397-1.492,0.94-1.996,1.63c-0.507,0.687-0.865,1.491-1.079,2.41c-0.214,0.918-0.321,1.913-0.321,2.984v10.696h-6.519
	V9.044H266.066L266.066,9.044z M293.336,0v12.35h0.137c0.825-1.378,1.882-2.38,3.167-3.007c1.286-0.626,2.542-0.941,3.765-0.941
	c1.745,0,3.178,0.238,4.295,0.712c1.114,0.475,1.995,1.132,2.639,1.974c0.644,0.842,1.095,1.867,1.354,3.076
	c0.258,1.208,0.39,2.548,0.39,4.017v14.598h-6.52V19.374c0-1.958-0.307-3.42-0.919-4.384c-0.61-0.964-1.698-1.446-3.259-1.446
	c-1.775,0-3.061,0.528-3.855,1.583c-0.797,1.056-1.191,2.793-1.191,5.21v12.44h-6.522V0H293.336L293.336,0z M319.04,27.085
	c0.979,0.949,2.389,1.423,4.226,1.423c1.314,0,2.448-0.329,3.397-0.987c0.946-0.659,1.528-1.354,1.744-2.088h5.735
	c-0.918,2.846-2.324,4.882-4.224,6.105c-1.896,1.224-4.194,1.836-6.887,1.836c-1.866,0-3.552-0.297-5.049-0.895
	c-1.499-0.597-2.771-1.446-3.812-2.548c-1.042-1.102-1.845-2.417-2.411-3.949c-0.563-1.53-0.848-3.212-0.848-5.049
	c0-1.774,0.29-3.427,0.87-4.958c0.583-1.531,1.408-2.854,2.478-3.971s2.351-1.997,3.833-2.64c1.485-0.643,3.13-0.964,4.937-0.964
	c2.021,0,3.778,0.391,5.278,1.171c1.501,0.78,2.732,1.83,3.695,3.145c0.965,1.316,1.66,2.816,2.09,4.499
	c0.43,1.684,0.58,3.443,0.459,5.279h-17.124C317.525,24.606,318.062,26.137,319.04,27.085L319.04,27.085z M326.408,14.599
	c-0.78-0.856-1.967-1.285-3.559-1.285c-1.041,0-1.904,0.176-2.595,0.527c-0.686,0.352-1.237,0.788-1.649,1.308
	c-0.414,0.521-0.705,1.072-0.873,1.652c-0.168,0.583-0.271,1.103-0.3,1.562h10.604C327.732,16.711,327.189,15.458,326.408,14.599z
	 M343.045,0v32.777h-6.517V0H343.045z M352.376,9.044v3.03h0.095c0.796-1.287,1.805-2.219,3.029-2.8
	c1.224-0.581,2.57-0.874,4.04-0.874c1.867,0,3.474,0.354,4.82,1.057c1.346,0.703,2.462,1.638,3.352,2.8
	c0.886,1.164,1.545,2.518,1.974,4.062c0.428,1.546,0.643,3.161,0.643,4.843c0,1.592-0.212,3.123-0.643,4.591
	c-0.429,1.47-1.079,2.77-1.951,3.902c-0.872,1.133-1.959,2.036-3.259,2.708c-1.304,0.673-2.823,1.01-4.567,1.01
	c-1.472,0-2.822-0.297-4.062-0.895c-1.238-0.597-2.258-1.476-3.053-2.64h-0.094v11.247h-6.519V9.044H352.376L352.376,9.044z
	 M360.848,27.866c0.719-0.429,1.302-0.987,1.744-1.675c0.444-0.689,0.758-1.492,0.941-2.411c0.181-0.918,0.273-1.85,0.273-2.8
	c0-0.947-0.099-1.881-0.3-2.799c-0.199-0.918-0.523-1.736-0.982-2.456c-0.459-0.72-1.052-1.302-1.77-1.746
	c-0.72-0.443-1.602-0.666-2.642-0.666c-1.07,0-1.967,0.222-2.688,0.666c-0.718,0.444-1.3,1.018-1.742,1.722
	c-0.442,0.704-0.759,1.515-0.94,2.433c-0.186,0.918-0.276,1.868-0.276,2.846c0,0.95,0.103,1.882,0.299,2.8
	c0.199,0.918,0.521,1.722,0.968,2.411c0.439,0.688,1.03,1.246,1.767,1.675c0.733,0.429,1.621,0.643,2.662,0.643
	C359.232,28.509,360.129,28.295,360.848,27.866L360.848,27.866z M372.425,5.372V0h6.519v5.372H372.425z M378.943,9.044v23.734
	h-6.521V9.044H378.943z M388.276,9.044v3.306h0.136c0.827-1.378,1.896-2.38,3.216-3.007c1.312-0.626,2.662-0.941,4.038-0.941
	c1.745,0,3.175,0.238,4.293,0.712c1.115,0.475,1.996,1.132,2.639,1.974c0.645,0.842,1.096,1.867,1.355,3.076
	c0.258,1.208,0.39,2.548,0.39,4.017v14.598h-6.518V19.374c0-1.958-0.309-3.42-0.918-4.384c-0.614-0.964-1.7-1.446-3.262-1.446
	c-1.774,0-3.061,0.528-3.854,1.583c-0.798,1.056-1.192,2.793-1.192,5.21v12.44h-6.521V9.044H388.276z M429.609,34.522
	c-0.262,1.224-0.818,2.364-1.678,3.42c-0.854,1.056-2.096,1.951-3.718,2.685c-1.621,0.735-3.797,1.102-6.518,1.102
	c-1.165,0-2.352-0.146-3.561-0.436c-1.21-0.292-2.312-0.743-3.307-1.354c-0.994-0.612-1.819-1.4-2.48-2.364
	c-0.655-0.964-1.03-2.12-1.124-3.466h6.474c0.309,1.224,0.901,2.074,1.792,2.548c0.888,0.474,1.912,0.711,3.076,0.711
	c1.836,0,3.174-0.552,4.015-1.652c0.843-1.1,1.249-2.495,1.218-4.177v-3.122h-0.092c-0.703,1.255-1.705,2.18-3.006,2.777
	c-1.3,0.597-2.669,0.896-4.109,0.896c-1.773,0-3.305-0.313-4.59-0.941c-1.287-0.626-2.343-1.483-3.169-2.57
	c-0.826-1.086-1.431-2.355-1.812-3.811c-0.385-1.454-0.573-2.991-0.573-4.614c0-1.53,0.221-3.007,0.666-4.429
	c0.44-1.424,1.093-2.679,1.951-3.766c0.854-1.086,1.919-1.951,3.188-2.594c1.271-0.643,2.732-0.964,4.384-0.964
	c1.562,0,2.933,0.292,4.108,0.873c1.178,0.583,2.166,1.562,2.961,2.938h0.092V9.044H430v22.219
	C430,32.212,429.868,33.298,429.609,34.522L429.609,34.522z M420.682,26.626c0.703-0.368,1.285-0.856,1.744-1.469
	c0.459-0.612,0.803-1.309,1.032-2.089c0.229-0.78,0.344-1.599,0.344-2.456c0-0.979-0.091-1.905-0.271-2.777
	c-0.188-0.872-0.491-1.645-0.918-2.317c-0.432-0.674-0.997-1.209-1.699-1.607c-0.706-0.397-1.593-0.597-2.662-0.597
	c-0.919,0-1.708,0.184-2.366,0.551c-0.656,0.367-1.209,0.865-1.65,1.492c-0.443,0.627-0.769,1.347-0.964,2.158
	c-0.199,0.812-0.3,1.661-0.3,2.547c0,0.857,0.084,1.707,0.252,2.548c0.168,0.842,0.459,1.6,0.873,2.272
	c0.412,0.673,0.955,1.224,1.63,1.652c0.675,0.429,1.518,0.643,2.525,0.643C419.166,27.177,419.978,26.994,420.682,26.626z
	 M28.994,81.745v-3.307h-0.139c-0.826,1.379-1.898,2.373-3.212,2.982c-1.315,0.611-2.663,0.918-4.04,0.918
	c-1.745,0-3.176-0.229-4.292-0.688c-1.118-0.459-1.998-1.108-2.64-1.95c-0.643-0.843-1.095-1.867-1.355-3.076
	c-0.26-1.209-0.389-2.547-0.389-4.017V58.011h6.519v13.404c0,1.959,0.306,3.42,0.918,4.385s1.699,1.445,3.259,1.445
	c1.773,0,3.06-0.527,3.855-1.582c0.795-1.057,1.194-2.793,1.194-5.211V58.011h6.519v23.734H28.994z M43.739,75.847
	c0.29,0.504,0.666,0.918,1.125,1.238c0.459,0.322,0.987,0.559,1.583,0.711c0.597,0.154,1.217,0.23,1.86,0.23
	c0.458,0,0.94-0.053,1.446-0.16c0.504-0.107,0.963-0.275,1.376-0.506c0.413-0.229,0.757-0.535,1.033-0.918
	c0.276-0.383,0.413-0.863,0.413-1.445c0-0.98-0.65-1.715-1.95-2.203c-1.301-0.49-3.116-0.98-5.44-1.471
	c-0.95-0.213-1.875-0.465-2.777-0.756c-0.903-0.293-1.707-0.673-2.41-1.148c-0.704-0.475-1.271-1.07-1.7-1.791
	c-0.428-0.719-0.643-1.599-0.643-2.641c0-1.528,0.299-2.783,0.895-3.764c0.598-0.979,1.386-1.752,2.366-2.317
	c0.979-0.566,2.082-0.964,3.305-1.194c1.224-0.229,2.48-0.344,3.764-0.344c1.286,0,2.532,0.123,3.741,0.367
	c1.208,0.245,2.288,0.658,3.236,1.239c0.948,0.583,1.736,1.354,2.364,2.318c0.627,0.964,1.002,2.181,1.125,3.648h-6.197
	c-0.092-1.253-0.566-2.104-1.423-2.547c-0.857-0.442-1.867-0.665-3.03-0.665c-0.367,0-0.766,0.022-1.194,0.068
	c-0.429,0.046-0.819,0.146-1.17,0.299c-0.353,0.153-0.65,0.375-0.895,0.665c-0.246,0.292-0.367,0.682-0.367,1.172
	c0,0.582,0.213,1.055,0.643,1.422c0.428,0.368,0.987,0.667,1.675,0.896c0.689,0.229,1.477,0.437,2.364,0.62
	c0.887,0.184,1.791,0.383,2.708,0.596c0.948,0.215,1.875,0.476,2.777,0.78c0.903,0.307,1.706,0.711,2.41,1.217
	c0.704,0.504,1.27,1.132,1.698,1.882c0.429,0.75,0.644,1.676,0.644,2.776c0,1.562-0.314,2.869-0.941,3.926
	c-0.627,1.056-1.446,1.904-2.456,2.548c-1.01,0.644-2.166,1.096-3.466,1.354c-1.3,0.258-2.625,0.389-3.97,0.389
	c-1.377,0-2.724-0.137-4.041-0.412c-1.316-0.274-2.487-0.733-3.511-1.377c-1.026-0.643-1.869-1.491-2.526-2.549
	c-0.659-1.056-1.018-2.379-1.079-3.972h6.197C43.303,74.737,43.449,75.341,43.739,75.847z M78.329,58.011v3.214h0.092
	c0.856-1.224,1.889-2.173,3.099-2.847c1.208-0.672,2.595-1.009,4.154-1.009c1.499,0,2.869,0.292,4.108,0.872
	c1.239,0.582,2.181,1.607,2.822,3.075c0.705-1.039,1.66-1.958,2.87-2.754c1.208-0.795,2.64-1.193,4.292-1.193
	c1.253,0,2.417,0.153,3.488,0.459c1.072,0.306,1.99,0.795,2.754,1.468c0.764,0.674,1.361,1.554,1.79,2.641
	c0.428,1.086,0.643,2.396,0.643,3.924v15.885h-6.519V68.294c0-0.796-0.031-1.545-0.092-2.25c-0.062-0.703-0.229-1.315-0.504-1.836
	c-0.276-0.52-0.682-0.934-1.217-1.239c-0.536-0.306-1.263-0.459-2.181-0.459c-0.918,0-1.662,0.178-2.227,0.528
	c-0.566,0.352-1.01,0.811-1.331,1.376c-0.321,0.566-0.536,1.209-0.643,1.928c-0.108,0.72-0.161,1.447-0.161,2.181v13.222h-6.519
	V68.432c0-0.704-0.016-1.399-0.045-2.089c-0.031-0.688-0.162-1.323-0.392-1.905c-0.229-0.581-0.611-1.047-1.147-1.399
	c-0.535-0.351-1.323-0.528-2.364-0.528c-0.306,0-0.71,0.068-1.216,0.207c-0.504,0.139-0.995,0.398-1.468,0.781
	c-0.475,0.383-0.88,0.935-1.216,1.653c-0.337,0.719-0.505,1.66-0.505,2.823v13.771h-6.519V58.011H78.329z M111.243,65.31
	c0.092-1.529,0.474-2.8,1.147-3.81c0.673-1.009,1.53-1.819,2.571-2.433c1.039-0.611,2.21-1.048,3.512-1.309
	c1.3-0.26,2.609-0.391,3.925-0.391c1.193,0,2.401,0.085,3.626,0.253c1.224,0.168,2.341,0.497,3.351,0.985
	c1.01,0.491,1.836,1.171,2.479,2.043c0.643,0.872,0.964,2.028,0.964,3.467v12.349c0,1.07,0.061,2.096,0.184,3.076
	c0.123,0.979,0.336,1.713,0.643,2.203h-6.609c-0.124-0.367-0.224-0.742-0.299-1.125c-0.077-0.383-0.131-0.773-0.161-1.17
	c-1.041,1.07-2.265,1.82-3.673,2.248c-1.408,0.428-2.846,0.643-4.315,0.643c-1.132,0-2.189-0.137-3.168-0.412
	c-0.98-0.275-1.836-0.705-2.571-1.285c-0.734-0.582-1.308-1.314-1.721-2.205c-0.414-0.887-0.621-1.939-0.621-3.166
	c0-1.348,0.238-2.457,0.713-3.328c0.473-0.873,1.085-1.568,1.835-2.088c0.75-0.52,1.607-0.91,2.571-1.171
	c0.964-0.259,1.936-0.466,2.917-0.619c0.978-0.153,1.942-0.274,2.892-0.367c0.948-0.092,1.791-0.229,2.524-0.413
	c0.734-0.184,1.315-0.451,1.745-0.804c0.428-0.352,0.626-0.863,0.597-1.538c0-0.703-0.115-1.262-0.344-1.675
	c-0.229-0.414-0.536-0.735-0.917-0.966c-0.384-0.228-0.827-0.381-1.331-0.459c-0.505-0.076-1.049-0.113-1.63-0.113
	c-1.286,0-2.295,0.275-3.03,0.826c-0.735,0.552-1.164,1.469-1.285,2.754H111.243L111.243,65.31z M126.3,70.13
	c-0.275,0.245-0.62,0.438-1.033,0.574c-0.413,0.136-0.857,0.252-1.332,0.343c-0.474,0.093-0.972,0.17-1.492,0.229
	c-0.521,0.062-1.041,0.138-1.561,0.229c-0.49,0.094-0.971,0.217-1.446,0.367c-0.475,0.152-0.888,0.359-1.239,0.621
	c-0.352,0.26-0.636,0.59-0.849,0.984c-0.215,0.398-0.321,0.902-0.321,1.518c0,0.582,0.106,1.068,0.321,1.469
	c0.213,0.396,0.505,0.711,0.872,0.939c0.367,0.229,0.794,0.391,1.284,0.48c0.489,0.092,0.995,0.139,1.516,0.139
	c1.285,0,2.278-0.213,2.984-0.643c0.704-0.428,1.224-0.941,1.561-1.537c0.336-0.598,0.543-1.201,0.62-1.814
	c0.076-0.609,0.115-1.102,0.115-1.469L126.3,70.13L126.3,70.13z M142.738,48.968V66.55l8.217-8.539h7.712l-8.952,8.723l9.962,15.011
	h-7.896l-6.519-10.605l-2.525,2.436v8.172h-6.519V48.968H142.738L142.738,48.968z M165.737,76.052
	c0.979,0.949,2.387,1.424,4.223,1.424c1.315,0,2.448-0.328,3.397-0.984c0.948-0.658,1.53-1.355,1.745-2.092h5.737
	c-0.917,2.848-2.325,4.885-4.223,6.105c-1.897,1.225-4.193,1.836-6.887,1.836c-1.866,0-3.55-0.297-5.049-0.895
	c-1.5-0.598-2.771-1.445-3.811-2.547c-1.042-1.104-1.844-2.418-2.411-3.949c-0.567-1.529-0.85-3.213-0.85-5.049
	c0-1.774,0.291-3.427,0.873-4.958c0.581-1.529,1.407-2.853,2.479-3.971c1.072-1.116,2.35-1.997,3.833-2.64
	c1.483-0.643,3.127-0.964,4.935-0.964c2.021,0,3.779,0.391,5.279,1.171c1.499,0.78,2.731,1.829,3.695,3.145
	c0.964,1.316,1.66,2.816,2.088,4.5c0.428,1.683,0.582,3.442,0.459,5.279H164.13C164.222,73.573,164.757,75.104,165.737,76.052
	L165.737,76.052z M173.104,63.566c-0.779-0.856-1.966-1.286-3.558-1.286c-1.041,0-1.904,0.177-2.594,0.528
	c-0.688,0.352-1.239,0.788-1.651,1.308c-0.413,0.521-0.706,1.071-0.872,1.652c-0.169,0.582-0.269,1.103-0.3,1.562h10.604
	C174.428,65.676,173.885,64.423,173.104,63.566L173.104,63.566z M207.235,58.011v4.361h-4.774v11.751
	c0,1.103,0.184,1.836,0.551,2.203c0.367,0.366,1.103,0.551,2.203,0.551c0.368,0,0.72-0.015,1.056-0.045
	c0.336-0.031,0.659-0.076,0.964-0.14v5.052c-0.551,0.092-1.165,0.151-1.836,0.184c-0.672,0.029-1.331,0.046-1.974,0.046
	c-1.01,0-1.967-0.068-2.869-0.205c-0.904-0.14-1.699-0.406-2.387-0.806c-0.688-0.396-1.232-0.963-1.629-1.696
	c-0.397-0.736-0.597-1.699-0.597-2.894v-14h-3.947v-4.362h3.947v-7.115h6.52v7.115H207.235z M215.181,48.968v12.349h0.137
	c0.826-1.377,1.883-2.38,3.168-3.006c1.285-0.627,2.539-0.941,3.764-0.941c1.745,0,3.175,0.236,4.293,0.712
	c1.117,0.475,1.996,1.132,2.639,1.974c0.645,0.842,1.094,1.867,1.354,3.076c0.26,1.209,0.392,2.547,0.392,4.018v14.598h-6.521
	V68.339c0-1.958-0.306-3.419-0.917-4.383c-0.613-0.963-1.699-1.446-3.26-1.446c-1.775,0-3.062,0.528-3.855,1.584
	c-0.796,1.056-1.194,2.793-1.194,5.21v12.44h-6.519V48.968H215.181L215.181,48.968z M240.889,76.052
	c0.979,0.949,2.386,1.424,4.223,1.424c1.315,0,2.448-0.328,3.396-0.984c0.949-0.658,1.531-1.355,1.745-2.092h5.738
	c-0.92,2.848-2.326,4.885-4.224,6.105c-1.897,1.225-4.193,1.836-6.888,1.836c-1.864,0-3.55-0.297-5.05-0.895
	s-2.771-1.445-3.812-2.547c-1.039-1.104-1.844-2.418-2.408-3.949c-0.566-1.529-0.852-3.213-0.852-5.049
	c0-1.774,0.291-3.427,0.873-4.958c0.58-1.529,1.408-2.853,2.478-3.971c1.073-1.116,2.353-1.997,3.835-2.64
	c1.483-0.643,3.131-0.964,4.937-0.964c2.021,0,3.779,0.391,5.278,1.171c1.5,0.78,2.73,1.829,3.695,3.145
	c0.963,1.316,1.658,2.816,2.088,4.5c0.43,1.683,0.582,3.442,0.459,5.279h-17.12C239.373,73.573,239.908,75.104,240.889,76.052
	L240.889,76.052z M248.256,63.566c-0.78-0.856-1.968-1.286-3.559-1.286c-1.039,0-1.904,0.177-2.594,0.528
	c-0.689,0.351-1.238,0.788-1.651,1.308c-0.413,0.521-0.705,1.071-0.872,1.652c-0.169,0.582-0.27,1.103-0.299,1.562h10.604
	C249.58,65.676,249.037,64.423,248.256,63.566L248.256,63.566z M276.053,48.834v32.911h-6.52V48.834H276.053z M285.385,58.011v3.306
	h0.136c0.827-1.377,1.898-2.38,3.216-3.006c1.314-0.627,2.661-0.941,4.039-0.941c1.744,0,3.176,0.236,4.291,0.712
	c1.116,0.475,1.998,1.132,2.643,1.974c0.645,0.842,1.094,1.867,1.354,3.076s0.391,2.547,0.391,4.018v14.598h-6.521V68.339
	c0-1.958-0.305-3.419-0.917-4.383c-0.61-0.963-1.697-1.446-3.26-1.446c-1.774,0-3.062,0.528-3.855,1.584
	c-0.795,1.056-1.192,2.793-1.192,5.21v12.44h-6.519V58.011H285.385L285.385,58.011z M317.31,58.011v4.361h-4.771v11.751
	c0,1.103,0.184,1.836,0.551,2.203c0.368,0.366,1.104,0.551,2.203,0.551c0.368,0,0.718-0.015,1.057-0.045
	c0.339-0.031,0.658-0.076,0.966-0.14v5.052c-0.555,0.092-1.165,0.151-1.837,0.184c-0.677,0.029-1.332,0.046-1.976,0.046
	c-1.01,0-1.967-0.068-2.87-0.205c-0.901-0.14-1.696-0.406-2.387-0.806c-0.689-0.396-1.231-0.963-1.63-1.696
	c-0.397-0.736-0.599-1.699-0.599-2.894v-14h-3.946v-4.362h3.946v-7.115h6.521v7.115H317.31z M325.206,76.052
	c0.979,0.949,2.388,1.424,4.223,1.424c1.317,0,2.449-0.328,3.398-0.984c0.949-0.658,1.53-1.355,1.744-2.092h5.737
	c-0.917,2.848-2.324,4.885-4.225,6.105c-1.895,1.225-4.191,1.836-6.885,1.836c-1.869,0-3.553-0.297-5.052-0.895
	s-2.771-1.445-3.812-2.547c-1.04-1.104-1.845-2.418-2.409-3.949c-0.563-1.529-0.85-3.213-0.85-5.049
	c0-1.774,0.291-3.427,0.872-4.958c0.581-1.529,1.405-2.853,2.479-3.971c1.069-1.116,2.347-1.997,3.832-2.64
	c1.483-0.643,3.13-0.964,4.938-0.964c2.019,0,3.777,0.391,5.277,1.171c1.497,0.78,2.73,1.829,3.693,3.145
	c0.965,1.316,1.66,2.816,2.09,4.5c0.429,1.683,0.58,3.442,0.459,5.279h-17.118C323.691,73.573,324.228,75.104,325.206,76.052
	L325.206,76.052z M332.574,63.566c-0.78-0.856-1.967-1.286-3.56-1.286c-1.042,0-1.904,0.177-2.594,0.528
	c-0.69,0.351-1.239,0.788-1.65,1.308c-0.414,0.521-0.704,1.071-0.872,1.652c-0.17,0.582-0.271,1.103-0.3,1.562h10.604
	C333.898,65.676,333.356,64.423,332.574,63.566z M348.823,58.011v4.407h0.093c0.308-0.734,0.72-1.415,1.24-2.043
	c0.521-0.627,1.115-1.162,1.789-1.605s1.394-0.789,2.158-1.034c0.764-0.244,1.561-0.367,2.388-0.367
	c0.427,0,0.898,0.076,1.422,0.229v6.06c-0.305-0.061-0.673-0.114-1.1-0.161c-0.432-0.046-0.846-0.068-1.24-0.068
	c-1.194,0-2.203,0.199-3.029,0.596c-0.827,0.398-1.493,0.941-1.999,1.63c-0.504,0.689-0.863,1.493-1.077,2.411
	c-0.216,0.918-0.321,1.914-0.321,2.983v10.697h-6.52V58.011H348.823z M364.887,58.011v3.306h0.139
	c0.826-1.377,1.896-2.38,3.213-3.006c1.316-0.627,2.662-0.941,4.042-0.941c1.744,0,3.173,0.236,4.29,0.712
	c1.117,0.475,1.998,1.132,2.642,1.974c0.644,0.842,1.092,1.867,1.354,3.076c0.26,1.209,0.391,2.547,0.391,4.018v14.598h-6.519
	V68.339c0-1.958-0.308-3.419-0.918-4.383c-0.611-0.963-1.698-1.446-3.262-1.446c-1.771,0-3.062,0.528-3.852,1.584
	c-0.798,1.056-1.195,2.793-1.195,5.21v12.44h-6.518V58.011H364.887L364.887,58.011z M390.914,76.052
	c0.979,0.949,2.388,1.424,4.224,1.424c1.316,0,2.448-0.328,3.397-0.984c0.947-0.658,1.53-1.355,1.745-2.092h5.736
	c-0.918,2.848-2.326,4.885-4.226,6.105c-1.894,1.225-4.193,1.836-6.886,1.836c-1.867,0-3.552-0.297-5.05-0.895
	c-1.501-0.598-2.771-1.445-3.811-2.547c-1.041-1.104-1.846-2.418-2.41-3.949c-0.566-1.529-0.851-3.213-0.851-5.049
	c0-1.774,0.292-3.427,0.873-4.958c0.581-1.529,1.407-2.853,2.478-3.971c1.069-1.116,2.351-1.997,3.833-2.64
	c1.483-0.643,3.128-0.964,4.937-0.964c2.02,0,3.778,0.391,5.277,1.171c1.499,0.78,2.73,1.829,3.696,3.145
	c0.962,1.316,1.659,2.816,2.087,4.5c0.43,1.683,0.581,3.442,0.459,5.279h-17.123C389.399,73.573,389.937,75.104,390.914,76.052
	L390.914,76.052z M398.282,63.566c-0.78-0.856-1.969-1.286-3.56-1.286c-1.04,0-1.904,0.177-2.594,0.528
	c-0.689,0.351-1.24,0.788-1.649,1.308c-0.415,0.521-0.705,1.071-0.873,1.652c-0.168,0.582-0.271,1.103-0.303,1.562h10.607
	C399.606,65.676,399.062,64.423,398.282,63.566z M421.064,58.011v4.361h-4.773v11.751c0,1.103,0.185,1.836,0.552,2.203
	c0.366,0.366,1.103,0.551,2.203,0.551c0.366,0,0.718-0.015,1.055-0.045c0.339-0.031,0.658-0.076,0.966-0.14v5.052
	c-0.554,0.092-1.161,0.151-1.836,0.184c-0.676,0.029-1.33,0.046-1.974,0.046c-1.011,0-1.968-0.068-2.869-0.205
	c-0.903-0.14-1.698-0.406-2.387-0.806c-0.69-0.396-1.233-0.963-1.631-1.696c-0.399-0.736-0.597-1.699-0.597-2.894v-14h-3.95v-4.362
	h3.95v-7.115h6.518v7.115H421.064z M94.813,114.276c0.091-1.528,0.474-2.798,1.147-3.811c0.672-1.009,1.53-1.821,2.571-2.437
	c1.04-0.61,2.21-1.047,3.512-1.308c1.3-0.261,2.608-0.391,3.925-0.391c1.194,0,2.402,0.084,3.626,0.251
	c1.224,0.169,2.341,0.498,3.35,0.988c1.011,0.489,1.837,1.17,2.479,2.043c0.643,0.871,0.964,2.027,0.964,3.466v12.349
	c0,1.072,0.061,2.097,0.184,3.077c0.122,0.978,0.337,1.713,0.643,2.203h-6.61c-0.123-0.367-0.223-0.742-0.297-1.126
	c-0.077-0.382-0.131-0.772-0.162-1.17c-1.041,1.07-2.265,1.821-3.672,2.249c-1.408,0.428-2.846,0.643-4.315,0.643
	c-1.131,0-2.188-0.137-3.167-0.411c-0.98-0.274-1.837-0.706-2.572-1.285c-0.733-0.584-1.308-1.315-1.72-2.206
	c-0.414-0.888-0.62-1.939-0.62-3.166c0-1.347,0.237-2.458,0.712-3.326c0.474-0.873,1.085-1.568,1.836-2.093
	c0.75-0.519,1.607-0.908,2.571-1.168c0.963-0.261,1.935-0.468,2.914-0.62c0.979-0.153,1.944-0.273,2.893-0.365
	c0.948-0.094,1.79-0.229,2.525-0.415c0.734-0.185,1.315-0.45,1.743-0.803c0.428-0.354,0.627-0.865,0.598-1.539
	c0-0.702-0.115-1.263-0.344-1.675c-0.229-0.415-0.536-0.733-0.918-0.965c-0.383-0.229-0.825-0.382-1.331-0.459
	c-0.504-0.077-1.048-0.116-1.63-0.116c-1.285,0-2.294,0.277-3.029,0.827c-0.735,0.55-1.165,1.469-1.286,2.753h-6.52V114.276z
	 M109.871,119.097c-0.275,0.245-0.621,0.438-1.034,0.574c-0.413,0.139-0.857,0.252-1.332,0.343c-0.474,0.093-0.971,0.171-1.491,0.23
	c-0.521,0.063-1.042,0.138-1.562,0.229c-0.49,0.093-0.972,0.216-1.446,0.367c-0.475,0.155-0.887,0.362-1.239,0.622
	c-0.352,0.26-0.636,0.59-0.849,0.986c-0.215,0.398-0.321,0.902-0.321,1.516c0,0.582,0.106,1.069,0.321,1.47
	c0.213,0.397,0.505,0.711,0.872,0.94c0.367,0.229,0.795,0.39,1.285,0.48c0.488,0.092,0.994,0.139,1.515,0.139
	c1.285,0,2.279-0.213,2.984-0.643c0.704-0.43,1.224-0.942,1.562-1.537c0.336-0.601,0.543-1.201,0.62-1.814
	c0.076-0.611,0.115-1.102,0.115-1.468L109.871,119.097L109.871,119.097z M136.013,124.813c0.29,0.504,0.666,0.917,1.125,1.236
	c0.459,0.321,0.987,0.56,1.583,0.711c0.596,0.153,1.217,0.23,1.859,0.23c0.459,0,0.94-0.055,1.446-0.161
	c0.505-0.104,0.964-0.272,1.377-0.505c0.413-0.229,0.757-0.535,1.034-0.917c0.275-0.387,0.413-0.865,0.413-1.447
	c0-0.977-0.65-1.713-1.951-2.203c-1.301-0.487-3.115-0.978-5.44-1.47c-0.949-0.213-1.875-0.465-2.777-0.756
	c-0.903-0.291-1.707-0.676-2.41-1.147c-0.704-0.477-1.27-1.069-1.698-1.792c-0.43-0.72-0.643-1.599-0.643-2.639
	c0-1.53,0.298-2.785,0.895-3.767c0.596-0.977,1.384-1.753,2.363-2.318c0.979-0.563,2.082-0.963,3.306-1.192
	c1.224-0.229,2.479-0.344,3.764-0.344c1.285,0,2.532,0.123,3.741,0.366c1.208,0.244,2.288,0.658,3.236,1.237
	c0.948,0.582,1.736,1.355,2.364,2.321c0.628,0.963,1.002,2.178,1.125,3.647h-6.198c-0.091-1.254-0.565-2.105-1.422-2.548
	s-1.868-0.666-3.03-0.666c-0.368,0-0.766,0.022-1.194,0.067c-0.429,0.049-0.819,0.146-1.17,0.301
	c-0.352,0.152-0.65,0.375-0.895,0.666c-0.247,0.29-0.368,0.682-0.368,1.169c0,0.582,0.213,1.059,0.643,1.425
	c0.429,0.367,0.988,0.666,1.676,0.895c0.689,0.231,1.477,0.438,2.363,0.62c0.888,0.185,1.792,0.384,2.708,0.597
	c0.948,0.215,1.874,0.477,2.776,0.78c0.903,0.306,1.707,0.712,2.411,1.218c0.704,0.504,1.27,1.132,1.698,1.88
	c0.428,0.751,0.643,1.676,0.643,2.779c0,1.559-0.315,2.867-0.941,3.925c-0.627,1.055-1.446,1.903-2.457,2.547
	c-1.01,0.645-2.167,1.098-3.466,1.355c-1.3,0.258-2.625,0.389-3.971,0.389c-1.377,0-2.724-0.137-4.04-0.411
	c-1.316-0.274-2.487-0.733-3.513-1.378c-1.025-0.644-1.867-1.491-2.524-2.55c-0.659-1.054-1.019-2.378-1.079-3.97h6.197
	C135.577,123.703,135.722,124.308,136.013,124.813z M152.988,114.276c0.092-1.528,0.474-2.798,1.147-3.811
	c0.673-1.009,1.53-1.821,2.57-2.437c1.04-0.61,2.21-1.047,3.512-1.308c1.3-0.261,2.609-0.391,3.925-0.391
	c1.194,0,2.402,0.084,3.626,0.251c1.224,0.169,2.341,0.498,3.351,0.988c1.009,0.489,1.836,1.17,2.479,2.043
	c0.643,0.871,0.964,2.027,0.964,3.466v12.349c0,1.072,0.061,2.097,0.184,3.077c0.123,0.978,0.336,1.713,0.643,2.203h-6.609
	c-0.124-0.367-0.224-0.742-0.299-1.126c-0.077-0.382-0.131-0.772-0.161-1.17c-1.041,1.07-2.265,1.821-3.673,2.249
	s-2.846,0.643-4.315,0.643c-1.132,0-2.188-0.137-3.167-0.411c-0.98-0.274-1.836-0.706-2.571-1.285
	c-0.734-0.584-1.308-1.315-1.721-2.206c-0.413-0.888-0.62-1.939-0.62-3.166c0-1.347,0.237-2.458,0.712-3.326
	c0.474-0.873,1.086-1.568,1.836-2.093c0.75-0.519,1.607-0.908,2.57-1.168c0.964-0.261,1.935-0.468,2.915-0.62
	c0.979-0.153,1.943-0.273,2.893-0.365c0.948-0.094,1.79-0.229,2.524-0.415c0.734-0.185,1.315-0.45,1.745-0.803
	c0.428-0.354,0.626-0.865,0.597-1.539c0-0.702-0.115-1.263-0.344-1.675c-0.229-0.415-0.536-0.733-0.918-0.965
	c-0.383-0.229-0.826-0.382-1.331-0.459c-0.504-0.077-1.048-0.116-1.629-0.116c-1.286,0-2.295,0.277-3.03,0.827
	s-1.164,1.469-1.285,2.753h-6.52V114.276L152.988,114.276z M168.045,119.097c-0.275,0.245-0.62,0.438-1.033,0.574
	c-0.413,0.139-0.857,0.252-1.332,0.343c-0.475,0.093-0.972,0.171-1.492,0.23c-0.521,0.063-1.041,0.138-1.561,0.229
	c-0.49,0.093-0.972,0.216-1.446,0.367c-0.475,0.155-0.888,0.362-1.239,0.622c-0.352,0.26-0.636,0.59-0.849,0.986
	c-0.215,0.398-0.322,0.902-0.322,1.516c0,0.582,0.106,1.069,0.322,1.47c0.213,0.397,0.505,0.711,0.872,0.94s0.795,0.39,1.285,0.48
	c0.489,0.092,0.995,0.139,1.516,0.139c1.285,0,2.279-0.213,2.984-0.643c0.704-0.43,1.224-0.942,1.561-1.537
	c0.336-0.601,0.543-1.201,0.62-1.814c0.075-0.611,0.115-1.102,0.115-1.468L168.045,119.097L168.045,119.097z M175.298,111.338
	v-4.361h3.902v-1.835c0-2.112,0.657-3.84,1.974-5.188c1.315-1.348,3.305-2.02,5.969-2.02c0.58,0,1.162,0.021,1.743,0.066
	c0.581,0.045,1.148,0.084,1.699,0.115v4.862c-0.766-0.091-1.561-0.137-2.386-0.137c-0.889,0-1.523,0.206-1.905,0.62
	c-0.383,0.413-0.574,1.109-0.574,2.087v1.425h4.5v4.361h-4.5v19.373H179.2v-19.373h-3.902V111.338L175.298,111.338z M197.742,125.02
	c0.979,0.948,2.387,1.422,4.223,1.422c1.315,0,2.448-0.326,3.396-0.982c0.948-0.659,1.531-1.355,1.746-2.092h5.738
	c-0.918,2.848-2.327,4.883-4.224,6.104c-1.897,1.225-4.193,1.835-6.887,1.835c-1.867,0-3.55-0.297-5.049-0.893
	c-1.5-0.6-2.771-1.446-3.811-2.548c-1.042-1.103-1.844-2.419-2.41-3.95c-0.567-1.528-0.85-3.212-0.85-5.047
	c0-1.776,0.291-3.429,0.873-4.961c0.581-1.528,1.407-2.85,2.479-3.97c1.071-1.117,2.349-1.999,3.834-2.643
	c1.484-0.645,3.128-0.963,4.935-0.963c2.02,0,3.779,0.392,5.279,1.17c1.499,0.781,2.731,1.831,3.695,3.146
	c0.963,1.315,1.66,2.813,2.089,4.499c0.428,1.684,0.581,3.44,0.459,5.276h-17.123C196.227,122.54,196.762,124.071,197.742,125.02
	L197.742,125.02z M205.109,112.532c-0.78-0.855-1.967-1.285-3.558-1.285c-1.042,0-1.906,0.178-2.594,0.529
	c-0.688,0.352-1.239,0.788-1.652,1.306c-0.414,0.522-0.706,1.072-0.872,1.653c-0.169,0.582-0.269,1.104-0.299,1.562h10.604
	C206.433,114.645,205.89,113.39,205.109,112.532L205.109,112.532z M221.359,106.977v4.409h0.092
	c0.307-0.733,0.719-1.417,1.239-2.044c0.521-0.628,1.116-1.163,1.79-1.606c0.674-0.441,1.393-0.79,2.158-1.032
	c0.764-0.243,1.561-0.366,2.387-0.366c0.429,0,0.9,0.077,1.424,0.229v6.061c-0.307-0.061-0.674-0.112-1.102-0.16
	c-0.432-0.044-0.844-0.066-1.24-0.066c-1.193,0-2.203,0.198-3.029,0.596s-1.492,0.94-1.997,1.633
	c-0.505,0.688-0.864,1.491-1.079,2.408c-0.214,0.919-0.32,1.911-0.32,2.983v10.695h-6.519v-23.732h6.196V106.977L221.359,106.977z
	 M248.307,106.977v3.032h0.092c0.794-1.288,1.807-2.221,3.029-2.803c1.225-0.579,2.571-0.871,4.041-0.871
	c1.865,0,3.473,0.352,4.819,1.055c1.347,0.705,2.463,1.639,3.351,2.804c0.889,1.161,1.544,2.52,1.977,4.062
	c0.428,1.546,0.643,3.161,0.643,4.842c0,1.592-0.215,3.123-0.643,4.593c-0.433,1.47-1.08,2.771-1.951,3.901
	c-0.873,1.131-1.959,2.035-3.261,2.707c-1.303,0.673-2.821,1.009-4.566,1.009c-1.47,0-2.821-0.297-4.062-0.893
	c-1.239-0.6-2.257-1.479-3.053-2.641h-0.093v11.247h-6.521v-32.044H248.307L248.307,106.977L248.307,106.977z M256.775,125.8
	c0.719-0.428,1.301-0.986,1.744-1.677c0.442-0.688,0.758-1.492,0.939-2.41c0.182-0.917,0.273-1.851,0.273-2.8
	c0-0.948-0.1-1.881-0.297-2.799c-0.199-0.919-0.527-1.738-0.986-2.457c-0.459-0.72-1.051-1.3-1.77-1.744
	c-0.719-0.443-1.599-0.666-2.639-0.666c-1.073,0-1.967,0.223-2.686,0.666c-0.722,0.444-1.301,1.018-1.745,1.721
	c-0.443,0.705-0.757,1.516-0.941,2.434c-0.183,0.917-0.274,1.866-0.274,2.848c0,0.947,0.101,1.883,0.299,2.801
	c0.199,0.918,0.521,1.722,0.965,2.41c0.441,0.688,1.031,1.249,1.768,1.676c0.735,0.43,1.622,0.646,2.663,0.646
	C255.162,126.441,256.057,126.228,256.775,125.8L256.775,125.8z M274.872,97.935v32.777h-6.519V97.935H274.872z M277.77,114.276
	c0.092-1.528,0.475-2.798,1.146-3.811c0.672-1.009,1.528-1.821,2.57-2.437c1.041-0.61,2.211-1.047,3.511-1.308
	c1.302-0.261,2.61-0.391,3.927-0.391c1.193,0,2.402,0.084,3.626,0.251c1.224,0.169,2.34,0.498,3.351,0.988
	c1.013,0.489,1.839,1.17,2.479,2.043c0.643,0.871,0.964,2.027,0.964,3.466v12.349c0,1.072,0.062,2.097,0.183,3.077
	c0.124,0.978,0.34,1.713,0.646,2.203h-6.608c-0.122-0.367-0.224-0.742-0.298-1.126c-0.078-0.382-0.133-0.772-0.16-1.17
	c-1.041,1.07-2.269,1.821-3.674,2.249c-1.408,0.428-2.848,0.643-4.314,0.643c-1.133,0-2.188-0.137-3.168-0.411
	s-1.836-0.706-2.57-1.285c-0.734-0.584-1.309-1.315-1.721-2.206c-0.414-0.888-0.621-1.939-0.621-3.166
	c0-1.347,0.236-2.458,0.713-3.326c0.475-0.873,1.086-1.568,1.836-2.093c0.749-0.519,1.604-0.908,2.57-1.168
	c0.964-0.261,1.936-0.468,2.914-0.62c0.979-0.153,1.941-0.273,2.892-0.365c0.951-0.094,1.792-0.229,2.526-0.415
	c0.733-0.185,1.313-0.45,1.744-0.803c0.427-0.354,0.627-0.865,0.597-1.539c0-0.702-0.114-1.263-0.345-1.675
	c-0.229-0.415-0.535-0.733-0.919-0.965c-0.383-0.229-0.825-0.382-1.329-0.459c-0.506-0.077-1.05-0.116-1.631-0.116
	c-1.285,0-2.295,0.277-3.029,0.827s-1.164,1.469-1.285,2.753h-6.52v0.005H277.77z M292.825,119.097
	c-0.275,0.245-0.62,0.438-1.032,0.574c-0.414,0.139-0.857,0.252-1.332,0.343c-0.475,0.093-0.973,0.171-1.492,0.23
	c-0.52,0.063-1.039,0.138-1.561,0.229c-0.491,0.093-0.974,0.216-1.445,0.367c-0.475,0.155-0.889,0.362-1.24,0.622
	c-0.351,0.26-0.635,0.59-0.849,0.986c-0.215,0.398-0.321,0.902-0.321,1.516c0,0.582,0.106,1.069,0.321,1.47
	c0.214,0.397,0.505,0.711,0.871,0.94c0.368,0.229,0.796,0.39,1.286,0.48c0.488,0.092,0.994,0.139,1.516,0.139
	c1.285,0,2.279-0.213,2.982-0.643c0.705-0.43,1.224-0.942,1.562-1.537c0.337-0.601,0.542-1.201,0.62-1.814
	c0.076-0.611,0.114-1.102,0.114-1.468V119.097z M313.427,111.247c-1.041,0-1.912,0.238-2.614,0.713
	c-0.704,0.474-1.278,1.086-1.722,1.836c-0.444,0.75-0.759,1.576-0.941,2.478c-0.185,0.904-0.274,1.802-0.274,2.688
	c0,0.856,0.092,1.73,0.274,2.617c0.184,0.888,0.481,1.688,0.896,2.406c0.411,0.724,0.972,1.312,1.677,1.771
	c0.702,0.459,1.562,0.686,2.57,0.686c1.559,0,2.76-0.434,3.603-1.308c0.843-0.873,1.369-2.044,1.584-3.512h6.288
	c-0.429,3.152-1.648,5.556-3.673,7.207c-2.02,1.651-4.604,2.478-7.758,2.478c-1.774,0-3.403-0.297-4.889-0.893
	c-1.484-0.6-2.747-1.431-3.786-2.503c-1.041-1.069-1.854-2.349-2.436-3.834c-0.583-1.482-0.871-3.113-0.871-4.89
	c0-1.835,0.268-3.54,0.805-5.117c0.533-1.576,1.32-2.939,2.361-4.084c1.041-1.149,2.312-2.047,3.812-2.689
	c1.499-0.644,3.216-0.963,5.142-0.963c1.408,0,2.763,0.185,4.063,0.55c1.3,0.367,2.462,0.927,3.488,1.677
	c1.022,0.751,1.858,1.686,2.501,2.802c0.644,1.118,1.011,2.44,1.104,3.971h-6.382C317.817,112.609,316.212,111.247,313.427,111.247
	L313.427,111.247z M333.58,125.02c0.979,0.948,2.387,1.422,4.225,1.422c1.314,0,2.447-0.326,3.396-0.982
	c0.949-0.659,1.53-1.355,1.744-2.092h5.737c-0.918,2.848-2.324,4.883-4.224,6.104c-1.896,1.225-4.194,1.835-6.886,1.835
	c-1.867,0-3.553-0.297-5.053-0.893c-1.498-0.6-2.771-1.446-3.811-2.548c-1.041-1.103-1.845-2.419-2.41-3.95
	c-0.562-1.528-0.849-3.212-0.849-5.047c0-1.776,0.29-3.429,0.871-4.961c0.581-1.528,1.406-2.85,2.479-3.97
	c1.071-1.117,2.351-1.999,3.836-2.643c1.483-0.645,3.128-0.963,4.936-0.963c2.02,0,3.779,0.392,5.278,1.17
	c1.497,0.781,2.73,1.831,3.693,3.146c0.965,1.315,1.66,2.813,2.09,4.499c0.429,1.684,0.58,3.44,0.459,5.276h-17.124
	C332.063,122.54,332.601,124.071,333.58,125.02L333.58,125.02z M340.947,112.532c-0.779-0.855-1.967-1.285-3.559-1.285
	c-1.041,0-1.904,0.178-2.594,0.529c-0.687,0.352-1.24,0.788-1.651,1.306c-0.413,0.522-0.705,1.072-0.873,1.653
	c-0.168,0.582-0.27,1.104-0.3,1.562h10.605C342.271,114.645,341.729,113.39,340.947,112.532z"/>
<g>
	<path fill="#FFFFFF" d="M189.443,175.337v2.564h-6.7v3.202h5.807v2.371h-5.807v5.729h-3.049v-13.867H189.443z"/>
	<path fill="#FFFFFF" d="M190.275,182.008c0.246-0.652,0.595-1.212,1.049-1.67c0.453-0.459,0.997-0.815,1.631-1.067
		c0.634-0.252,1.346-0.38,2.137-0.38c0.79,0,1.504,0.128,2.146,0.38s1.188,0.608,1.642,1.067c0.453,0.458,0.802,1.018,1.049,1.67
		c0.246,0.652,0.369,1.382,0.369,2.184c0,0.805-0.124,1.529-0.369,2.179c-0.247,0.646-0.596,1.199-1.049,1.658
		c-0.454,0.461-1,0.813-1.642,1.06c-0.641,0.245-1.356,0.368-2.146,0.368c-0.791,0-1.503-0.123-2.137-0.368
		c-0.635-0.246-1.179-0.599-1.631-1.06c-0.454-0.459-0.804-1.012-1.049-1.658c-0.246-0.649-0.369-1.374-0.369-2.179
		C189.906,183.39,190.029,182.66,190.275,182.008z M192.781,185.367c0.078,0.383,0.21,0.726,0.398,1.03
		c0.188,0.304,0.437,0.548,0.748,0.729c0.31,0.182,0.699,0.271,1.166,0.271c0.466,0,0.856-0.09,1.174-0.271
		c0.318-0.181,0.57-0.425,0.757-0.729c0.188-0.305,0.32-0.647,0.399-1.03c0.078-0.382,0.116-0.772,0.116-1.176
		c0-0.4-0.039-0.795-0.116-1.184c-0.079-0.388-0.211-0.73-0.399-1.027c-0.188-0.3-0.439-0.542-0.757-0.729
		c-0.318-0.187-0.708-0.283-1.174-0.283c-0.467,0-0.855,0.097-1.166,0.283c-0.312,0.188-0.561,0.43-0.748,0.729
		c-0.188,0.297-0.32,0.64-0.398,1.027c-0.078,0.389-0.116,0.783-0.116,1.184C192.665,184.595,192.703,184.985,192.781,185.367z"/>
	<path fill="#FFFFFF" d="M204.549,175.337v13.867h-2.757v-13.867H204.549z"/>
	<path fill="#FFFFFF" d="M209.221,175.337v13.867h-2.758v-13.867H209.221z"/>
	<path fill="#FFFFFF" d="M211.085,182.008c0.247-0.652,0.596-1.212,1.049-1.67c0.453-0.459,0.997-0.815,1.631-1.067
		s1.347-0.38,2.136-0.38c0.79,0,1.506,0.128,2.146,0.38s1.188,0.608,1.641,1.067c0.454,0.458,0.803,1.018,1.05,1.67
		c0.245,0.652,0.369,1.382,0.369,2.184c0,0.805-0.124,1.529-0.369,2.179c-0.247,0.646-0.596,1.199-1.05,1.658
		c-0.452,0.461-1,0.813-1.641,1.06c-0.641,0.245-1.356,0.368-2.146,0.368c-0.79,0-1.502-0.123-2.136-0.368
		c-0.634-0.246-1.179-0.599-1.631-1.06c-0.454-0.459-0.803-1.012-1.049-1.658c-0.246-0.649-0.369-1.374-0.369-2.179
		C210.717,183.39,210.839,182.66,211.085,182.008z M213.591,185.367c0.078,0.383,0.21,0.726,0.399,1.03
		c0.188,0.304,0.437,0.548,0.747,0.729c0.311,0.182,0.699,0.271,1.165,0.271c0.467,0,0.857-0.09,1.176-0.271
		c0.316-0.181,0.569-0.425,0.757-0.729c0.188-0.305,0.32-0.647,0.398-1.03c0.078-0.382,0.116-0.772,0.116-1.176
		c0-0.4-0.038-0.795-0.116-1.184c-0.078-0.388-0.211-0.73-0.398-1.027c-0.188-0.3-0.44-0.542-0.757-0.729
		c-0.318-0.187-0.709-0.283-1.176-0.283c-0.466,0-0.854,0.097-1.165,0.283c-0.311,0.188-0.56,0.43-0.747,0.729
		c-0.188,0.297-0.321,0.64-0.399,1.027c-0.077,0.389-0.116,0.783-0.116,1.184C213.475,184.595,213.514,184.985,213.591,185.367z"/>
	<path fill="#FFFFFF" d="M230.865,189.204l-1.786-6.738h-0.039l-1.709,6.738h-2.854l-3.187-10.042h2.915l1.844,6.818h0.039
		l1.671-6.818h2.68l1.71,6.799h0.039l1.844-6.799h2.837l-3.166,10.042H230.865z"/>
	<path fill="#FFFFFF" d="M249.452,189.204v-1.398h-0.06c-0.348,0.582-0.803,1.002-1.358,1.263c-0.556,0.259-1.126,0.388-1.709,0.388
		c-0.737,0-1.343-0.097-1.815-0.29c-0.473-0.195-0.846-0.47-1.117-0.825c-0.272-0.357-0.464-0.793-0.573-1.302
		c-0.11-0.513-0.165-1.078-0.165-1.699v-6.178h2.759v5.672c0,0.829,0.129,1.446,0.389,1.854c0.259,0.409,0.717,0.612,1.378,0.612
		c0.751,0,1.295-0.225,1.632-0.671s0.505-1.182,0.505-2.204v-5.264h2.759v10.042H249.452z"/>
	<path fill="#FFFFFF" d="M256.238,186.708c0.124,0.213,0.281,0.39,0.477,0.524c0.194,0.137,0.418,0.236,0.67,0.302
		c0.253,0.064,0.516,0.097,0.787,0.097c0.194,0,0.397-0.023,0.611-0.068s0.407-0.116,0.584-0.213
		c0.173-0.098,0.318-0.227,0.436-0.39c0.116-0.162,0.176-0.365,0.176-0.611c0-0.413-0.275-0.727-0.826-0.931
		c-0.55-0.207-1.317-0.414-2.302-0.621c-0.401-0.092-0.793-0.199-1.175-0.322s-0.723-0.284-1.02-0.486
		c-0.299-0.199-0.538-0.451-0.719-0.757c-0.181-0.305-0.271-0.676-0.271-1.117c0-0.646,0.126-1.177,0.379-1.593
		c0.252-0.414,0.585-0.74,1-0.979c0.414-0.239,0.879-0.409,1.398-0.507c0.518-0.096,1.049-0.145,1.593-0.145
		c0.543,0,1.07,0.052,1.582,0.155c0.513,0.104,0.968,0.279,1.37,0.523c0.402,0.247,0.734,0.574,1.001,0.981
		c0.264,0.409,0.424,0.923,0.474,1.544h-2.621c-0.039-0.529-0.239-0.889-0.602-1.077c-0.363-0.187-0.79-0.282-1.282-0.282
		c-0.154,0-0.322,0.01-0.505,0.03c-0.181,0.02-0.346,0.062-0.495,0.126c-0.149,0.063-0.275,0.159-0.379,0.282
		c-0.104,0.122-0.155,0.287-0.155,0.494c0,0.245,0.091,0.446,0.271,0.604c0.182,0.153,0.419,0.279,0.708,0.376
		c0.293,0.099,0.626,0.187,1.001,0.264c0.376,0.078,0.758,0.162,1.146,0.253c0.402,0.09,0.795,0.202,1.177,0.331
		c0.381,0.128,0.721,0.299,1.02,0.514c0.296,0.214,0.536,0.479,0.717,0.796c0.182,0.317,0.273,0.708,0.273,1.176
		c0,0.659-0.134,1.214-0.397,1.66c-0.267,0.448-0.612,0.807-1.04,1.078c-0.429,0.271-0.916,0.463-1.467,0.572
		c-0.551,0.11-1.109,0.165-1.68,0.165c-0.583,0-1.152-0.058-1.709-0.175c-0.558-0.115-1.053-0.311-1.486-0.582
		c-0.434-0.273-0.791-0.632-1.068-1.078c-0.278-0.446-0.431-1.007-0.456-1.68h2.622
		C256.055,186.239,256.116,186.494,256.238,186.708z"/>
</g>
</svg>
