<svg xmlns="http://www.w3.org/2000/svg" width="200" height="75" viewBox="0 0 200 75"><path fill-rule="evenodd" clip-rule="evenodd" fill="#fff" d="M199.973 10.041c-.006-5.549-2.498-10.045-8.049-10.041l-181.884.163c-5.55.004-10.045 4.508-10.04 10.057l.028 29.142c.005 5.551 4.508 10.045 10.058 10.041l124.448-.112-.252.253c13.072.87 23.412 11.702 23.424 24.954-.012-13.252 10.309-24.102 23.379-24.994l-.254-.254 9.131-.008c5.549-.006 10.045-4.508 10.039-10.059l-.028-29.142z"/><path d="M17.817 19.548c.105.201.243.364.417.489.172.124.375.217.609.276.233.061.474.092.723.092.169 0 .35-.015.542-.043.193-.028.374-.082.543-.162.168-.081.31-.19.422-.332.113-.142.169-.32.169-.537 0-.232-.074-.422-.223-.566s-.344-.265-.584-.361c-.242-.098-.515-.182-.82-.254-.306-.072-.615-.151-.929-.241-.321-.079-.635-.179-.94-.295-.305-.116-.579-.268-.82-.452s-.437-.416-.585-.694c-.149-.276-.223-.612-.223-1.007 0-.441.094-.825.283-1.151.189-.324.437-.597.742-.813.305-.218.651-.378 1.037-.482.386-.104.772-.157 1.158-.157.45 0 .882.051 1.296.151.414.1.782.263 1.104.488.321.225.576.513.766.861.188.35.283.774.283 1.272h-1.833c-.016-.257-.071-.47-.163-.638-.093-.169-.215-.303-.368-.398-.152-.097-.327-.165-.524-.205-.197-.041-.412-.061-.645-.061-.153 0-.305.016-.458.049-.153.032-.292.088-.416.168-.125.081-.227.181-.308.302s-.121.272-.121.458c0 .169.032.306.097.409.064.106.191.202.38.291.188.088.45.177.783.265l1.309.338c.161.032.384.09.669.175.285.084.569.22.85.404.282.184.525.432.73.741.205.31.308.705.308 1.188 0 .395-.077.76-.229 1.098-.153.337-.38.629-.681.874-.302.245-.676.437-1.122.572-.446.138-.963.206-1.55.206-.475 0-.935-.059-1.381-.175-.446-.117-.84-.3-1.181-.55-.342-.249-.613-.566-.814-.951-.201-.387-.298-.845-.29-1.376h1.833c-.001.289.051.534.155.734zm12.928-6.486v1.592h-4.546v1.845h4.172v1.47h-4.172v2.111h4.643v1.592h-6.536v-8.609h6.439zm7.887 0v1.592h-4.546v1.845h4.172v1.47h-4.172v2.111h4.643v1.592h-6.536v-8.609h6.439zm6.62 0v3.303h3.485v-3.303h1.893v8.609h-1.893v-3.715h-3.485v3.715h-1.893v-8.609h1.893zm6.967 2.549c.193-.55.47-1.03.832-1.44.362-.41.806-.732 1.333-.965.526-.232 1.119-.351 1.778-.351.667 0 1.262.118 1.785.351s.965.555 1.327.965.639.891.832 1.44c.193.551.29 1.147.29 1.791 0 .627-.096 1.212-.29 1.754-.193.543-.47 1.016-.832 1.417s-.804.718-1.327.947c-.522.229-1.117.344-1.785.344-.659 0-1.252-.115-1.778-.344-.527-.229-.971-.546-1.333-.947-.361-.401-.639-.874-.832-1.417-.193-.542-.29-1.127-.29-1.754.001-.643.097-1.24.29-1.791zm1.73 2.846c.084.342.219.649.404.923.185.273.426.492.724.657s.659.247 1.085.247.788-.082 1.085-.247.539-.384.723-.657c.185-.273.32-.581.404-.923.084-.342.127-.693.127-1.055 0-.378-.042-.743-.127-1.098-.084-.354-.219-.669-.404-.947-.185-.276-.426-.498-.723-.663s-.659-.247-1.085-.247-.788.082-1.085.247-.539.387-.724.663c-.185.278-.32.593-.404.947s-.126.72-.126 1.098c0 .362.042.713.126 1.055zm13.848 3.214l-1.459-5.86h-.024l-1.435 5.86h-1.917l-2.279-8.609h1.893l1.363 5.86h.024l1.496-5.86h1.772l1.471 5.933h.024l1.411-5.933h1.857l-2.315 8.609h-1.882zm11.081-8.609l2.014 5.921h.024l1.905-5.921h2.665v8.609h-1.772v-6.101h-.024l-2.11 6.101h-1.46l-2.11-6.042h-.024v6.042h-1.772v-8.609h2.664zm8.198 2.549c.193-.55.47-1.03.832-1.44s.806-.732 1.333-.965 1.119-.351 1.779-.351c.667 0 1.262.118 1.784.351s.965.555 1.327.965c.361.41.639.891.832 1.44.193.551.29 1.147.29 1.791 0 .627-.096 1.212-.29 1.754-.193.543-.47 1.016-.832 1.417s-.805.718-1.327.947c-.522.229-1.117.344-1.784.344-.66 0-1.252-.115-1.779-.344-.526-.229-.971-.546-1.333-.947s-.639-.874-.832-1.417c-.193-.542-.29-1.127-.29-1.754 0-.643.096-1.24.29-1.791zm1.73 2.846c.084.342.219.649.404.923.184.273.426.492.723.657s.659.247 1.085.247c.426 0 .788-.082 1.085-.247s.539-.384.724-.657c.185-.273.32-.581.404-.923.084-.342.126-.693.126-1.055 0-.378-.042-.743-.126-1.098-.084-.354-.22-.669-.404-.947-.185-.276-.426-.498-.724-.663s-.659-.247-1.085-.247c-.427 0-.788.082-1.085.247s-.539.387-.723.663c-.185.278-.32.593-.404.947-.084.354-.127.72-.127 1.098 0 .362.043.713.127 1.055zm9.617-5.395l3.593 5.776h.023v-5.776h1.773v8.609h-1.893l-3.582-5.764h-.024v5.764h-1.772v-8.609h1.882zm13.532 0v1.592h-4.545v1.845h4.172v1.47h-4.172v2.111h4.643v1.592h-6.535v-8.609h6.437zm.688 0h2.123l2.014 3.399 2.002-3.399h2.109l-3.195 5.305v3.305h-1.893v-3.353l-3.16-5.257zm16.966 0c.387 0 .734.062 1.043.187.311.125.576.295.797.513s.389.469.506.753c.117.286.176.593.176.923 0 .506-.107.945-.32 1.314s-.561.651-1.043.845v.023c.232.064.426.163.578.296.152.132.277.289.375.47.096.181.166.38.211.598.043.217.074.434.09.65l.023.482.043.567c.02.192.053.375.096.548.045.173.111.319.199.44h-1.893c-.105-.273-.17-.599-.193-.977-.023-.379-.061-.74-.107-1.085-.064-.451-.201-.779-.41-.989-.209-.209-.551-.314-1.025-.314h-1.893v3.365h-1.895v-8.609h4.642zm-.675 3.893c.436 0 .762-.096.979-.288.217-.193.324-.507.324-.941 0-.418-.107-.721-.324-.909-.217-.189-.543-.285-.979-.285h-2.072v2.424h2.072zm11.179-3.893v1.592h-4.547v1.845h4.172v1.47h-4.172v2.111h4.643v1.592h-6.535v-8.609h6.439zm5.94 0l3.219 8.609h-1.965l-.652-1.918h-3.219l-.676 1.918h-1.904l3.254-8.609h1.943zm.107 5.281l-1.086-3.159h-.023l-1.121 3.159h2.23zm9.086-2.986c-.113-.18-.254-.339-.422-.476-.17-.137-.359-.243-.572-.319s-.438-.115-.67-.115c-.426 0-.787.082-1.086.247-.297.165-.539.387-.723.663-.186.278-.32.593-.404.947s-.127.72-.127 1.098c0 .361.043.713.127 1.055s.219.649.404.923c.184.273.426.492.723.657.299.165.66.247 1.086.247.578 0 1.031-.177 1.357-.531.324-.353.523-.819.596-1.398h1.834c-.049.538-.174 1.025-.375 1.459-.201.435-.465.805-.795 1.109-.33.306-.715.539-1.158.7-.441.16-.928.241-1.459.241-.66 0-1.252-.115-1.779-.344-.525-.229-.971-.546-1.332-.947s-.639-.874-.832-1.417c-.193-.542-.289-1.127-.289-1.754 0-.644.096-1.24.289-1.791.193-.55.471-1.03.832-1.44s.807-.732 1.332-.965c.527-.232 1.119-.351 1.779-.351.475 0 .922.068 1.344.206.422.137.801.336 1.135.597s.609.585.826.971.354.827.41 1.325h-1.834c-.031-.216-.104-.416-.217-.597zm5.285-2.295v3.303h3.486v-3.303h1.893v8.609h-1.893v-3.715h-3.486v3.715h-1.893v-8.609h1.893zm13.522 0v1.592h-4.547v1.845h4.174v1.47h-4.174v2.111h4.645v1.592h-6.537v-8.609h6.439zm2.851 6.486c.105.201.242.364.416.489.174.124.375.217.609.276.232.061.475.092.723.092.17 0 .35-.015.543-.043s.373-.082.543-.162c.168-.081.309-.19.422-.332s.168-.32.168-.537c0-.232-.074-.422-.223-.566s-.344-.265-.584-.361c-.242-.098-.516-.182-.82-.254s-.615-.151-.928-.241c-.322-.079-.637-.179-.941-.295s-.578-.268-.82-.452c-.24-.185-.436-.416-.584-.694-.148-.276-.223-.612-.223-1.007 0-.441.094-.825.283-1.151.188-.324.436-.597.74-.813.307-.218.652-.378 1.037-.482.387-.104.771-.157 1.158-.157.451 0 .883.051 1.297.151.414.1.781.263 1.104.488.32.225.576.513.766.861.188.35.283.774.283 1.272h-1.834c-.016-.257-.07-.47-.162-.638-.092-.169-.215-.303-.367-.398-.154-.097-.328-.165-.525-.205-.197-.041-.412-.061-.645-.061-.152 0-.307.016-.459.049-.152.032-.291.088-.416.168-.125.081-.227.181-.307.302s-.121.272-.121.458c0 .169.031.306.096.409.064.106.191.202.381.291.189.088.449.177.783.265l1.309.338c.16.032.385.09.67.175.285.084.568.22.85.404.281.184.525.432.729.741.205.31.309.705.309 1.188 0 .395-.076.76-.229 1.098-.152.337-.381.629-.682.874-.303.245-.676.437-1.121.572-.447.138-.963.206-1.551.206-.475 0-.934-.059-1.381-.175-.445-.117-.84-.3-1.182-.55-.342-.249-.613-.566-.812-.951-.201-.387-.299-.845-.291-1.376h1.834c-.001.289.052.534.155.734zm-132.241 9.592l3.22 8.609h-1.966l-.651-1.918h-3.22l-.675 1.918h-1.905l3.256-8.609h1.941zm.108 5.281l-1.085-3.159h-.024l-1.122 3.159h2.231zm12.734-2.984c-.113-.181-.254-.34-.422-.477-.169-.137-.36-.243-.573-.319s-.437-.115-.669-.115c-.426 0-.788.082-1.085.247s-.539.387-.723.664c-.185.277-.32.593-.404.946-.084.354-.126.72-.126 1.098 0 .362.042.713.126 1.055s.219.649.404.923c.185.273.426.492.723.657s.659.247 1.085.247c.579 0 1.031-.177 1.357-.531.325-.353.524-.819.597-1.398h1.833c-.048.538-.173 1.025-.374 1.459-.201.435-.466.805-.796 1.109-.33.306-.715.539-1.157.7-.442.161-.929.241-1.459.241-.659 0-1.252-.115-1.779-.344-.526-.229-.97-.545-1.333-.946-.361-.401-.639-.875-.832-1.418-.193-.542-.29-1.127-.29-1.754 0-.643.096-1.239.29-1.791.193-.55.47-1.03.832-1.44.362-.41.806-.732 1.333-.965.527-.232 1.12-.351 1.779-.351.475 0 .922.068 1.345.206.422.137.8.336 1.133.597s.609.585.826.971.354.827.41 1.326h-1.833c-.033-.218-.105-.418-.218-.597zm5.285-2.297v3.304h3.485v-3.304h1.893v8.609h-1.893v-3.715h-3.485v3.715h-1.893v-8.609h1.893zm11.419 0l3.22 8.609h-1.965l-.651-1.918h-3.22l-.675 1.918h-1.905l3.256-8.609h1.94zm.109 5.281l-1.085-3.159h-.024l-1.122 3.159h2.231zm8.592-5.281c.386 0 .733.062 1.042.187s.575.296.796.513c.221.218.39.469.507.753.116.286.175.593.175.923 0 .506-.106.945-.319 1.314-.213.369-.561.651-1.043.845v.023c.233.064.426.163.579.296.153.132.278.289.374.47.097.182.167.381.211.598.044.217.075.434.091.65l.024.482.042.567c.021.192.052.375.096.548.044.173.111.319.199.44h-1.893c-.105-.273-.169-.599-.193-.977-.024-.379-.061-.74-.108-1.085-.064-.451-.201-.779-.41-.989-.209-.209-.551-.314-1.025-.314h-1.895v3.365h-1.893v-8.609h4.643zm-.676 3.893c.434 0 .76-.096.977-.288.217-.193.325-.506.325-.941 0-.418-.108-.721-.325-.909-.217-.189-.543-.285-.977-.285h-2.074v2.424h2.074zm6.652-3.893v8.609h-1.893v-8.609h1.893zm.958 1.591v-1.591h7.054v1.592h-2.581v7.018h-1.893v-7.018h-2.58zm7.549-1.591h2.123l2.014 3.399 2.002-3.399h2.109l-3.195 5.306v3.304h-1.893v-3.353l-3.16-5.257zm14.216 0v8.609h-1.893v-8.609h1.893zm3.586 0l3.594 5.776h.023v-5.776h1.773v8.609h-1.895l-3.58-5.764h-.025v5.764h-1.771v-8.609h1.881zm12.287 0l3.594 5.776h.023v-5.776h1.773v8.609h-1.893l-3.582-5.764h-.023v5.764h-1.773v-8.609h1.881zm13.534 0v1.592h-4.545v1.845h4.172v1.471h-4.172v2.11h4.643v1.592h-6.537v-8.61h6.439zm7.886 0v1.592h-4.547v1.845h4.172v1.471h-4.172v2.11h4.643v1.592h-6.535v-8.61h6.439zm5.16 0c.557 0 1.072.089 1.551.265.479.177.893.442 1.242.795.35.355.623.797.82 1.327.195.531.295 1.154.295 1.869 0 .627-.08 1.206-.242 1.736-.16.531-.402.989-.729 1.376-.326.385-.732.688-1.219.909s-1.059.332-1.719.332h-3.713v-8.609h3.714zm-.13 7.017c.273 0 .537-.044.795-.133.258-.088.486-.235.688-.439.201-.206.361-.473.482-.803.121-.329.182-.73.182-1.205 0-.435-.043-.826-.127-1.176-.086-.35-.223-.649-.416-.898s-.449-.439-.766-.573c-.318-.133-.711-.198-1.176-.198h-1.352v5.426h1.69z" fill="#010101"/></svg>