<svg xmlns="http://www.w3.org/2000/svg" width="800" height="160" viewBox="0 0 800 160"><path d="M34.381 0c4.666 0 9.009.746 13.032 2.232 4.022 1.487 7.505 3.719 10.446 6.694 2.941 2.976 5.239 6.694 6.896 11.156 1.656 4.462 2.485 9.702 2.485 15.719 0 5.274-.676 10.142-2.028 14.605-1.353 4.461-3.397 8.315-6.136 11.561-2.738 3.246-6.153 5.799-10.243 7.657-4.091 1.86-8.909 2.789-14.452 2.789h-31.237v-72.413h31.237zm-1.116 59.026c2.298 0 4.529-.371 6.694-1.116 2.163-.743 4.09-1.978 5.781-3.701 1.689-1.725 3.042-3.972 4.057-6.745 1.014-2.771 1.521-6.151 1.521-10.142 0-3.65-.354-6.947-1.064-9.888s-1.876-5.46-3.499-7.556-3.77-3.703-6.44-4.817c-2.672-1.115-5.968-1.674-9.889-1.674h-11.359v45.639h14.198zm39.462-24.188c1.284-3.413 3.11-6.32 5.477-8.723 2.366-2.399 5.206-4.259 8.519-5.577 3.312-1.319 7.031-1.978 11.156-1.978 4.124 0 7.86.658 11.207 1.978 3.347 1.318 6.202 3.178 8.57 5.577 2.365 2.402 4.191 5.31 5.477 8.723 1.284 3.415 1.927 7.218 1.927 11.409 0 4.192-.643 7.979-1.927 11.359-1.286 3.381-3.111 6.271-5.477 8.671-2.368 2.401-5.223 4.244-8.57 5.527-3.347 1.284-7.083 1.928-11.207 1.928-4.125 0-7.844-.644-11.156-1.928-3.313-1.283-6.153-3.126-8.519-5.527-2.367-2.399-4.193-5.29-5.477-8.671-1.285-3.38-1.927-7.167-1.927-11.359 0-4.191.641-7.994 1.927-11.409zm13.083 17.545c.406 1.996 1.099 3.788 2.079 5.376.979 1.589 2.282 2.856 3.905 3.803 1.623.947 3.651 1.42 6.085 1.42s4.479-.473 6.136-1.42c1.656-.946 2.975-2.214 3.956-3.803.979-1.588 1.674-3.38 2.079-5.376.405-1.993.608-4.039.608-6.136 0-2.095-.203-4.158-.608-6.187s-1.1-3.819-2.079-5.375c-.981-1.555-2.3-2.822-3.956-3.803-1.657-.979-3.702-1.471-6.136-1.471s-4.462.491-6.085 1.471c-1.623.98-2.925 2.248-3.905 3.803-.98 1.556-1.673 3.347-2.079 5.375-.405 2.028-.608 4.092-.608 6.187-.001 2.097.202 4.143.608 6.136zm58.325-32.403v7.302h.305c1.825-3.043 4.191-5.256 7.099-6.644 2.906-1.385 5.882-2.078 8.925-2.078 3.854 0 7.013.524 9.482 1.571 2.467 1.049 4.412 2.502 5.832 4.362 1.42 1.859 2.417 4.124 2.992 6.794.574 2.672.862 5.629.862 8.874v32.251h-14.402v-29.613c0-4.325-.677-7.555-2.028-9.686-1.354-2.129-3.753-3.193-7.201-3.193-3.922 0-6.762 1.165-8.52 3.498-1.759 2.333-2.637 6.17-2.637 11.512v27.483h-14.401v-52.433h13.692zm56.529-19.98v15.519c.066 2.229-.254 4.327-.964 6.287-.71 1.962-1.708 3.686-2.992 5.173-1.285 1.487-2.823 2.722-4.614 3.7-1.792.981-3.736 1.607-5.831 1.877v-6.693c2.568-.878 4.326-2.181 5.273-3.904.946-1.725 1.42-3.837 1.42-6.338h-6.693v-15.621h14.401zm36.916 19.98v9.634h-10.548v25.964c0 2.434.406 4.057 1.218 4.867.811.812 2.434 1.218 4.868 1.218.811 0 1.588-.033 2.333-.102.743-.066 1.453-.168 2.13-.304v11.155c-1.217.203-2.57.337-4.057.405-1.488.067-2.941.102-4.361.102-2.231 0-4.345-.152-6.339-.456-1.995-.304-3.752-.896-5.274-1.774-1.521-.879-2.723-2.13-3.6-3.753-.879-1.623-1.319-3.752-1.319-6.39v-30.932h-8.722v-9.634h8.722v-15.72h14.401v15.72h10.548zm75.149 52.433l-9.33-35.192h-.203l-8.925 35.192h-14.909l-16.632-52.433h15.213l9.634 35.598h.204l8.721-35.598h13.996l8.925 35.496h.203l9.634-35.496h14.807l-16.53 52.433h-14.808zm31.957-37.575c1.285-3.413 3.11-6.32 5.478-8.723 2.366-2.399 5.206-4.259 8.519-5.577 3.312-1.319 7.031-1.978 11.156-1.978s7.861.658 11.208 1.978c3.347 1.318 6.201 3.178 8.57 5.577 2.365 2.402 4.19 5.31 5.477 8.723 1.283 3.415 1.927 7.218 1.927 11.409 0 4.192-.644 7.979-1.927 11.359-1.286 3.381-3.111 6.271-5.477 8.671-2.369 2.401-5.224 4.244-8.57 5.527-3.347 1.284-7.083 1.928-11.208 1.928s-7.844-.644-11.156-1.928c-3.313-1.283-6.153-3.126-8.519-5.527-2.367-2.399-4.193-5.29-5.478-8.671-1.284-3.38-1.926-7.167-1.926-11.359 0-4.191.641-7.994 1.926-11.409zm13.084 17.545c.405 1.996 1.098 3.788 2.079 5.376.979 1.589 2.282 2.856 3.906 3.803 1.622.947 3.651 1.42 6.083 1.42 2.435 0 4.479-.473 6.136-1.42 1.656-.946 2.975-2.214 3.956-3.803.979-1.588 1.674-3.38 2.079-5.376.405-1.993.608-4.039.608-6.136 0-2.095-.203-4.158-.608-6.187s-1.101-3.819-2.079-5.375c-.981-1.555-2.3-2.822-3.956-3.803-1.658-.979-3.702-1.471-6.136-1.471-2.433 0-4.462.491-6.083 1.471-1.624.98-2.926 2.248-3.906 3.803-.98 1.556-1.673 3.347-2.079 5.375-.406 2.028-.608 4.092-.608 6.187-.001 2.097.202 4.143.608 6.136zm58.325-32.403v9.735h.203c.675-1.623 1.587-3.127 2.736-4.513 1.15-1.386 2.469-2.569 3.958-3.55 1.485-.979 3.073-1.739 4.766-2.281 1.688-.541 3.448-.812 5.272-.812.947 0 1.994.169 3.145.508v13.386c-.677-.135-1.487-.253-2.433-.354-.949-.101-1.862-.152-2.739-.152-2.637 0-4.869.44-6.693 1.318-1.826.88-3.297 2.08-4.412 3.601-1.115 1.521-1.912 3.296-2.383 5.324-.475 2.028-.71 4.226-.71 6.593v23.63h-14.401v-52.433h13.691zm36.307 0v9.735h.203c.675-1.623 1.587-3.127 2.736-4.513 1.15-1.386 2.468-2.569 3.957-3.55 1.485-.979 3.074-1.739 4.767-2.281 1.688-.541 3.448-.812 5.272-.812.947 0 1.994.169 3.145.508v13.386c-.677-.135-1.487-.253-2.433-.354-.949-.101-1.862-.152-2.739-.152-2.638 0-4.869.44-6.693 1.318-1.827.88-3.298 2.08-4.412 3.601-1.115 1.521-1.912 3.296-2.384 5.324-.474 2.028-.709 4.226-.709 6.593v23.63h-14.401v-52.433h13.691zm45.282 68.052c-2.771 1.825-6.628 2.737-11.562 2.737-1.487 0-2.958-.051-4.412-.152-1.454-.101-2.925-.22-4.412-.354v-11.867c1.353.136 2.738.27 4.16.406 1.419.135 2.838.168 4.259.102 1.893-.203 3.295-.948 4.21-2.231.912-1.285 1.367-2.705 1.367-4.26 0-1.149-.203-2.23-.608-3.245l-18.357-49.188h15.313l11.867 35.901h.203l11.46-35.901h14.908l-21.906 58.924c-1.555 4.26-3.719 7.302-6.49 9.128zm40.577-31.237v15.618c0 2.298-.422 4.411-1.266 6.339-.849 1.928-1.979 3.601-3.399 5.02-1.419 1.42-3.093 2.587-5.021 3.499-1.926.913-3.972 1.537-6.135 1.876v-7.302c1.014-.202 1.978-.608 2.89-1.216.914-.609 1.706-1.337 2.383-2.182.677-.846 1.184-1.791 1.522-2.839.337-1.049.472-2.114.405-3.195h-7.302v-15.618h15.923zm54.055 31.237c-2.772 1.825-6.628 2.737-11.562 2.737-1.487 0-2.958-.051-4.412-.152-1.454-.101-2.925-.22-4.412-.354v-11.867c1.353.136 2.738.27 4.16.406 1.419.135 2.838.168 4.259.102 1.893-.203 3.295-.948 4.21-2.231.912-1.285 1.367-2.705 1.367-4.26 0-1.149-.203-2.23-.608-3.245l-18.356-49.188h15.313l11.867 35.901h.203l11.46-35.901h14.908l-21.906 58.924c-1.555 4.26-3.719 7.302-6.491 9.128zm28.083-53.194c1.282-3.413 3.108-6.32 5.476-8.723 2.366-2.399 5.206-4.259 8.521-5.577 3.312-1.319 7.03-1.978 11.155-1.978 4.123 0 7.86.658 11.205 1.978 3.348 1.318 6.204 3.178 8.57 5.577 2.366 2.402 4.193 5.31 5.478 8.723 1.283 3.415 1.926 7.218 1.926 11.409 0 4.192-.643 7.979-1.926 11.359-1.284 3.381-3.111 6.271-5.478 8.671-2.366 2.401-5.223 4.244-8.57 5.527-3.345 1.284-7.082 1.928-11.205 1.928-4.125 0-7.844-.644-11.155-1.928-3.314-1.283-6.154-3.126-8.521-5.527-2.367-2.399-4.193-5.29-5.476-8.671-1.285-3.38-1.928-7.167-1.928-11.359.001-4.191.643-7.994 1.928-11.409zm13.083 17.545c.406 1.996 1.097 3.788 2.079 5.376.979 1.589 2.282 2.856 3.903 3.803 1.624.947 3.651 1.42 6.086 1.42s4.479-.473 6.136-1.42c1.656-.946 2.975-2.214 3.955-3.803.98-1.588 1.673-3.38 2.078-5.376.406-1.993.608-4.039.608-6.136 0-2.095-.202-4.158-.608-6.187-.405-2.028-1.098-3.819-2.078-5.375-.98-1.555-2.299-2.822-3.955-3.803-1.657-.979-3.701-1.471-6.136-1.471s-4.462.491-6.086 1.471c-1.621.98-2.925 2.248-3.903 3.803-.982 1.556-1.673 3.347-2.079 5.375-.407 2.028-.61 4.092-.61 6.187 0 2.097.203 4.143.61 6.136zm79.947 20.03v-7.302h-.304c-1.825 3.043-4.193 5.24-7.1 6.593-2.908 1.352-5.883 2.028-8.924 2.028-3.854 0-7.017-.508-9.484-1.521-2.468-1.015-4.41-2.451-5.831-4.312-1.419-1.858-2.418-4.122-2.991-6.794-.575-2.671-.862-5.629-.862-8.874v-32.251h14.4v29.613c0 4.328.677 7.556 2.029 9.687 1.352 2.129 3.753 3.193 7.201 3.193 3.92 0 6.76-1.165 8.519-3.498 1.758-2.333 2.638-6.169 2.638-11.512v-27.483h14.4v52.433h-13.691zm-686.756 41.212c-2.299 0-4.226.524-5.781 1.572-1.557 1.049-2.824 2.4-3.804 4.057-.98 1.658-1.673 3.483-2.079 5.477-.406 1.995-.609 3.973-.609 5.934 0 1.893.203 3.82.609 5.78.405 1.962 1.064 3.737 1.978 5.325.913 1.588 2.146 2.89 3.702 3.904 1.554 1.014 3.448 1.521 5.68 1.521 3.448 0 6.101-.964 7.961-2.892 1.858-1.927 3.024-4.512 3.499-7.758h13.895c-.948 6.965-3.651 12.271-8.114 15.923s-10.177 5.477-17.14 5.477c-3.922 0-7.522-.66-10.801-1.978-3.28-1.318-6.069-3.16-8.367-5.527-2.299-2.366-4.092-5.188-5.375-8.469-1.285-3.278-1.927-6.878-1.927-10.8 0-4.057.591-7.825 1.775-11.308 1.182-3.482 2.924-6.491 5.223-9.027 2.297-2.535 5.104-4.513 8.417-5.933 3.312-1.42 7.099-2.13 11.359-2.13 3.109 0 6.101.405 8.976 1.218 2.873.811 5.442 2.046 7.708 3.701 2.265 1.657 4.107 3.72 5.527 6.187 1.419 2.469 2.231 5.393 2.434 8.772h-14.097c-.948-6.016-4.497-9.026-10.649-9.026zm29.137 6.694c.203-3.38 1.047-6.188 2.535-8.418 1.487-2.231 3.38-4.021 5.68-5.375 2.297-1.353 4.884-2.315 7.758-2.892 2.874-.572 5.764-.861 8.671-.861 2.637 0 5.307.188 8.012.558 2.703.372 5.172 1.101 7.403 2.182s4.057 2.585 5.477 4.513c1.42 1.927 2.13 4.479 2.13 7.656v27.282c0 2.367.134 4.632.405 6.794.27 2.165.743 3.788 1.42 4.869h-14.604c-.271-.812-.491-1.639-.659-2.484-.17-.846-.289-1.707-.355-2.587-2.299 2.367-5.004 4.023-8.113 4.97-3.111.946-6.288 1.42-9.533 1.42-2.502 0-4.835-.304-6.998-.913-2.165-.608-4.057-1.555-5.68-2.839-1.622-1.284-2.89-2.906-3.803-4.869-.913-1.96-1.369-4.293-1.369-6.998 0-2.975.523-5.426 1.572-7.353 1.048-1.927 2.399-3.464 4.057-4.614 1.656-1.148 3.55-2.011 5.68-2.586 2.13-.574 4.275-1.03 6.44-1.369 2.163-.338 4.292-.608 6.39-.812 2.094-.202 3.955-.508 5.578-.913 1.623-.405 2.906-.997 3.854-1.774.946-.777 1.385-1.91 1.318-3.398 0-1.554-.253-2.788-.76-3.701-.507-.912-1.184-1.623-2.029-2.13-.846-.507-1.826-.845-2.941-1.014-1.116-.168-2.317-.254-3.601-.254-2.839 0-5.071.609-6.693 1.825-1.623 1.218-2.571 3.245-2.84 6.086h-14.402zm33.265 10.649c-.608.542-1.369.963-2.282 1.268s-1.894.559-2.941.761c-1.049.203-2.147.373-3.296.507-1.151.137-2.299.305-3.448.507-1.083.204-2.147.475-3.194.812-1.049.339-1.962.795-2.738 1.369-.778.575-1.404 1.302-1.877 2.18-.474.88-.709 1.995-.709 3.348 0 1.284.236 2.367.709 3.245.473.879 1.116 1.571 1.928 2.079.811.507 1.757.861 2.839 1.064 1.081.202 2.196.304 3.347.304 2.839 0 5.036-.472 6.592-1.419 1.555-.946 2.703-2.08 3.448-3.397.743-1.318 1.199-2.653 1.369-4.006.168-1.352.253-2.435.253-3.245v-5.377zm35.789-26.775v7.303h.305c1.826-3.043 4.191-5.257 7.099-6.644 2.906-1.385 5.882-2.079 8.925-2.079 3.854 0 7.014.524 9.482 1.572 2.467 1.049 4.412 2.502 5.832 4.36 1.419 1.86 2.417 4.125 2.991 6.796.574 2.671.862 5.628.862 8.874v32.251h-14.401v-29.615c0-4.325-.677-7.555-2.028-9.685-1.353-2.13-3.753-3.195-7.201-3.195-3.922 0-6.762 1.167-8.519 3.499-1.759 2.334-2.637 6.171-2.637 11.512v27.484h-14.401v-52.434h13.691zm105.068 52.434v-7.303h-.305c-1.826 3.043-4.193 5.241-7.099 6.593-2.908 1.352-5.882 2.028-8.925 2.028-3.854 0-7.015-.508-9.482-1.521-2.469-1.015-4.412-2.45-5.832-4.311-1.419-1.859-2.418-4.123-2.992-6.795-.575-2.67-.862-5.628-.862-8.874v-32.251h14.401v29.614c0 4.328.675 7.555 2.028 9.686 1.352 2.13 3.753 3.194 7.2 3.194 3.921 0 6.761-1.166 8.52-3.498 1.757-2.334 2.637-6.17 2.637-11.512v-27.484h14.401v52.434h-13.69zm33.376-13.032c.642 1.115 1.47 2.028 2.484 2.737 1.015.711 2.181 1.235 3.499 1.572 1.319.34 2.688.507 4.108.507 1.014 0 2.079-.116 3.194-.354 1.116-.236 2.13-.608 3.042-1.115.913-.508 1.674-1.182 2.282-2.029.609-.844.913-1.909.913-3.193 0-2.164-1.437-3.787-4.31-4.869-2.875-1.08-6.88-2.162-12.019-3.245-2.096-.472-4.142-1.03-6.136-1.674-1.995-.641-3.77-1.486-5.324-2.534-1.556-1.048-2.806-2.367-3.752-3.955-.948-1.589-1.419-3.533-1.419-5.833 0-3.38.659-6.15 1.978-8.315 1.318-2.164 3.058-3.87 5.223-5.122 2.163-1.25 4.597-2.129 7.302-2.637 2.703-.507 5.477-.761 8.316-.761 2.84 0 5.594.271 8.266.811 2.671.542 5.054 1.456 7.15 2.739 2.095 1.285 3.836 2.992 5.223 5.122 1.385 2.129 2.214 4.817 2.485 8.062h-13.691c-.204-2.771-1.252-4.646-3.145-5.628-1.894-.979-4.125-1.471-6.693-1.471-.812 0-1.691.051-2.637.151-.948.103-1.81.322-2.586.66-.778.339-1.438.828-1.978 1.471-.542.644-.811 1.505-.811 2.586 0 1.285.472 2.332 1.419 3.145.946.811 2.181 1.471 3.702 1.978 1.521.507 3.262.963 5.223 1.369 1.96.405 3.956.846 5.984 1.317 2.095.475 4.141 1.05 6.136 1.725 1.994.677 3.769 1.571 5.324 2.688 1.555 1.116 2.805 2.502 3.753 4.158.945 1.658 1.419 3.701 1.419 6.137 0 3.448-.694 6.338-2.079 8.67-1.386 2.333-3.194 4.21-5.426 5.63-2.231 1.419-4.784 2.418-7.657 2.991-2.875.573-5.799.862-8.773.862-3.043 0-6.019-.304-8.925-.913-2.908-.608-5.494-1.623-7.759-3.042-2.266-1.42-4.125-3.296-5.578-5.63-1.455-2.332-2.249-5.256-2.384-8.771h13.692c.001 1.553.322 2.887.965 4.003zm54.226.456c2.163 2.097 5.274 3.145 9.331 3.145 2.906 0 5.408-.727 7.504-2.181 2.096-1.453 3.38-2.992 3.854-4.615h12.677c-2.028 6.288-5.14 10.786-9.331 13.488-4.193 2.706-9.264 4.058-15.212 4.058-4.125 0-7.844-.66-11.156-1.978-3.314-1.318-6.121-3.195-8.418-5.63-2.299-2.434-4.074-5.34-5.324-8.721-1.251-3.38-1.876-7.1-1.876-11.157 0-3.92.642-7.57 1.927-10.953 1.284-3.38 3.11-6.304 5.478-8.772 2.365-2.467 5.188-4.411 8.468-5.831 3.278-1.42 6.913-2.13 10.903-2.13 4.462 0 8.349.861 11.662 2.586 3.312 1.724 6.034 4.041 8.165 6.947 2.129 2.908 3.667 6.221 4.614 9.939.946 3.719 1.284 7.606 1.015 11.662h-37.83c.203 4.666 1.385 8.048 3.549 10.143zm16.278-27.585c-1.724-1.894-4.344-2.841-7.859-2.841-2.3 0-4.209.391-5.731 1.167-1.521.777-2.738 1.741-3.651 2.89-.913 1.151-1.556 2.367-1.927 3.651-.373 1.285-.593 2.435-.66 3.448h23.428c-.676-3.651-1.876-6.422-3.6-8.315zm49.947 2.585c1.285-3.413 3.11-6.321 5.478-8.722 2.365-2.398 5.206-4.259 8.519-5.578 3.312-1.318 7.031-1.978 11.156-1.978s7.86.659 11.207 1.978c3.348 1.319 6.202 3.18 8.57 5.578 2.366 2.4 4.191 5.309 5.476 8.722 1.284 3.416 1.928 7.219 1.928 11.409 0 4.193-.644 7.979-1.928 11.36s-3.109 6.271-5.476 8.671c-2.368 2.4-5.223 4.244-8.57 5.527-3.347 1.283-7.082 1.927-11.207 1.927s-7.845-.644-11.156-1.927c-3.312-1.283-6.153-3.127-8.519-5.527-2.367-2.399-4.192-5.29-5.478-8.671-1.285-3.381-1.926-7.167-1.926-11.36 0-4.19.641-7.993 1.926-11.409zm13.084 17.546c.405 1.995 1.098 3.787 2.078 5.375.98 1.59 2.282 2.856 3.906 3.804 1.621.947 3.651 1.42 6.084 1.42 2.435 0 4.479-.473 6.135-1.42 1.657-.947 2.975-2.214 3.958-3.804.979-1.588 1.673-3.38 2.079-5.375.405-1.994.607-4.04.607-6.137 0-2.094-.202-4.157-.607-6.186-.406-2.028-1.101-3.818-2.079-5.375-.983-1.555-2.301-2.823-3.958-3.804-1.656-.979-3.7-1.471-6.135-1.471-2.433 0-4.463.491-6.084 1.471-1.624.98-2.926 2.249-3.906 3.804-.98 1.557-1.673 3.347-2.078 5.375s-.608 4.092-.608 6.186c-.001 2.097.203 4.143.608 6.137zm79.948 20.03v-7.303h-.304c-1.827 3.043-4.193 5.241-7.1 6.593-2.908 1.352-5.883 2.028-8.926 2.028-3.854 0-7.015-.508-9.482-1.521-2.47-1.015-4.412-2.45-5.831-4.311-1.421-1.859-2.419-4.123-2.991-6.795-.577-2.67-.863-5.628-.863-8.874v-32.251h14.402v29.614c0 4.328.674 7.555 2.026 9.686 1.354 2.13 3.753 3.194 7.201 3.194 3.922 0 6.76-1.166 8.521-3.498 1.756-2.334 2.635-6.17 2.635-11.512v-27.484h14.401v52.434h-13.689zm34.987-52.434v9.736h.203c.675-1.623 1.587-3.127 2.736-4.513 1.15-1.385 2.469-2.569 3.958-3.55 1.485-.979 3.073-1.741 4.766-2.283 1.688-.539 3.448-.811 5.272-.811.947 0 1.994.17 3.145.507v13.388c-.677-.135-1.487-.253-2.433-.354-.949-.103-1.862-.153-2.739-.153-2.637 0-4.869.44-6.693 1.318-1.826.881-3.297 2.079-4.412 3.601s-1.912 3.297-2.383 5.325c-.475 2.027-.71 4.226-.71 6.592v23.631h-14.401v-52.434h13.691zm63.284-19.978v26.367h.202c1.757-2.702 4.142-4.681 7.149-5.933 3.008-1.25 6.138-1.876 9.381-1.876 2.638 0 5.239.542 7.812 1.623 2.566 1.082 4.884 2.737 6.945 4.97 2.062 2.23 3.736 5.088 5.021 8.569 1.283 3.483 1.926 7.624 1.926 12.424 0 4.802-.643 8.942-1.926 12.424-1.284 3.483-2.958 6.339-5.021 8.569-2.062 2.231-4.379 3.89-6.945 4.97-2.572 1.081-5.174 1.623-7.812 1.623-3.854 0-7.302-.609-10.343-1.825-3.043-1.218-5.343-3.279-6.896-6.188h-.203v6.694h-13.691v-72.411h14.401zm23.326 39.856c-.474-2.028-1.217-3.819-2.23-5.375-1.016-1.555-2.281-2.789-3.804-3.702-1.521-.913-3.363-1.369-5.527-1.369-2.096 0-3.922.456-5.476 1.369-1.558.913-2.84 2.147-3.855 3.702-1.014 1.556-1.758 3.347-2.23 5.375-.474 2.028-.709 4.158-.709 6.389 0 2.165.235 4.261.709 6.289.473 2.028 1.217 3.82 2.23 5.375 1.016 1.556 2.298 2.788 3.855 3.701 1.554.913 3.38 1.37 5.476 1.37 2.164 0 4.007-.457 5.527-1.37 1.522-.913 2.788-2.146 3.804-3.701 1.014-1.555 1.757-3.347 2.23-5.375s.709-4.124.709-6.289c0-2.231-.236-4.36-.709-6.389zm55.963 32.556v-7.303h-.304c-1.827 3.043-4.193 5.241-7.1 6.593-2.908 1.352-5.883 2.028-8.926 2.028-3.854 0-7.015-.508-9.482-1.521-2.47-1.015-4.412-2.45-5.831-4.311-1.422-1.859-2.418-4.123-2.991-6.795-.577-2.67-.863-5.628-.863-8.874v-32.251h14.401v29.614c0 4.328.675 7.555 2.027 9.686 1.354 2.13 3.753 3.194 7.201 3.194 3.922 0 6.76-1.166 8.521-3.498 1.756-2.334 2.635-6.17 2.635-11.512v-27.484h14.401v52.434h-13.689zm45.808-43.002c-2.299 0-4.227.524-5.779 1.572-1.559 1.049-2.824 2.4-3.805 4.057-.98 1.658-1.674 3.483-2.079 5.477-.405 1.995-.608 3.973-.608 5.934 0 1.893.203 3.82.608 5.78.405 1.962 1.065 3.737 1.978 5.325s2.146 2.89 3.703 3.904c1.554 1.014 3.448 1.521 5.678 1.521 3.448 0 6.103-.964 7.962-2.892 1.858-1.927 3.024-4.512 3.498-7.758h13.895c-.947 6.965-3.65 12.271-8.112 15.923s-10.178 5.477-17.141 5.477c-3.922 0-7.521-.66-10.8-1.978-3.28-1.318-6.069-3.16-8.367-5.527-2.301-2.366-4.092-5.188-5.376-8.469-1.285-3.278-1.926-6.879-1.926-10.801 0-4.057.591-7.825 1.774-11.308 1.181-3.482 2.923-6.491 5.223-9.027 2.299-2.535 5.104-4.513 8.417-5.933 3.312-1.42 7.1-2.13 11.359-2.13 3.108 0 6.102.405 8.975 1.218 2.874.811 5.443 2.046 7.708 3.701 2.265 1.657 4.108 3.72 5.527 6.187 1.421 2.469 2.231 5.393 2.435 8.772h-14.098c-.948-6.015-4.497-9.025-10.649-9.025zm44.755-29.41v38.842l18.154-18.863h17.038l-19.777 19.27 22.01 33.164h-17.444l-14.401-23.428-5.579 5.375v18.053h-14.401v-72.413h14.4z" fill="#fff"/></svg>