<svg xmlns="http://www.w3.org/2000/svg" width="190" height="73" viewBox="0 0 190 73"><path fill-rule="evenodd" clip-rule="evenodd" fill="#fff" d="M180.968.001h-170.612c-5.543-.117-10.405 5.743-10.356 11.287l.28 25.097c.05 5.543 5.537 12.675 11.079 12.792l6.57.01-.254.242c12.067.887 21.791 10.938 22.325 23.157l.032.033c.013-12.527 9.575-22.545 21.795-23.197l-.175-.171 118.355.171c5.543.118 9.995-4.281 9.945-9.826l.048-29.559c-.05-5.544-3.49-9.919-9.032-10.036z"/><path d="M20.25 17.618c.104.201.242.363.416.488.172.125.375.217.608.277s.474.091.723.091c.168 0 .349-.014.542-.042.193-.028.374-.082.542-.163.169-.08.31-.19.422-.331s.168-.319.168-.536c0-.233-.074-.421-.223-.566-.149-.145-.343-.265-.584-.361-.241-.097-.514-.181-.819-.253-.305-.072-.615-.152-.928-.241-.321-.08-.634-.178-.939-.295-.305-.116-.578-.267-.819-.451-.241-.185-.436-.416-.584-.693-.148-.277-.223-.612-.223-1.006 0-.441.094-.825.283-1.15.189-.325.436-.596.741-.813.305-.217.65-.377 1.035-.481.386-.104.771-.157 1.156-.157.45 0 .881.05 1.294.15.414.101.781.263 1.102.488.321.225.576.512.765.861.188.349.283.773.283 1.271h-1.83c-.016-.257-.071-.47-.163-.638s-.215-.301-.367-.397c-.152-.097-.327-.165-.524-.205-.197-.041-.412-.061-.645-.061-.152 0-.305.016-.457.048-.153.032-.292.088-.416.169-.125.08-.227.18-.307.301-.081.121-.121.273-.121.458 0 .169.032.306.096.409.064.105.191.201.379.289.189.089.449.177.783.265l1.307.337c.16.032.383.09.668.174s.568.219.849.404c.281.185.524.432.729.74.205.31.307.705.307 1.187 0 .394-.076.759-.229 1.096-.153.337-.379.628-.68.874-.302.245-.675.436-1.121.572-.445.137-.961.205-1.547.205-.474 0-.934-.058-1.379-.174s-.839-.299-1.18-.548-.612-.566-.813-.952c-.201-.385-.297-.843-.289-1.373h1.831c.002.287.054.532.158.733zm12.911-6.479v1.589h-4.54v1.843h4.167v1.469h-4.167v2.107h4.637v1.59h-6.528v-8.599h6.431zm7.877 0v1.589h-4.54v1.843h4.167v1.469h-4.167v2.107h4.637v1.59h-6.527v-8.599h6.43zm6.611 0v3.3h3.48v-3.3h1.891v8.599h-1.89v-3.709h-3.48v3.709h-1.891v-8.599h1.89zm6.959 2.548c.192-.55.469-1.03.831-1.439.362-.41.805-.73 1.331-.963s1.118-.35 1.776-.35c.667 0 1.26.117 1.782.35s.963.554 1.325.963c.361.409.638.89.831 1.439s.289 1.146.289 1.788c0 .626-.096 1.21-.289 1.752-.193.542-.47 1.014-.831 1.416-.362.401-.803.716-1.325.945s-1.116.343-1.782.343c-.659 0-1.25-.114-1.776-.343s-.969-.544-1.331-.945c-.361-.401-.638-.874-.831-1.416-.193-.542-.289-1.126-.289-1.752 0-.642.096-1.239.289-1.788zm1.728 2.841c.084.342.219.649.404.922.184.273.425.492.722.656s.658.247 1.084.247c.425 0 .787-.083 1.084-.247s.538-.383.722-.656c.185-.273.32-.58.404-.922.084-.341.126-.692.126-1.053 0-.377-.042-.743-.126-1.096-.084-.354-.219-.668-.404-.946-.185-.277-.425-.498-.722-.662s-.659-.247-1.084-.247c-.426 0-.787.083-1.084.247s-.538.385-.722.662c-.185.277-.32.592-.404.946-.084.353-.126.718-.126 1.096-.001.36.041.712.126 1.053zm13.83 3.21l-1.457-5.853h-.024l-1.433 5.853h-1.915l-2.276-8.599h1.891l1.361 5.853h.024l1.494-5.853h1.77l1.47 5.925h.024l1.409-5.925h1.855l-2.312 8.599h-1.881zm11.066-8.599l2.011 5.913h.024l1.903-5.913h2.662v8.599h-1.771v-6.094h-.024l-2.108 6.094h-1.457l-2.107-6.034h-.024v6.034h-1.77v-8.599h2.661zm8.188 2.548c.192-.55.469-1.03.831-1.439.361-.41.805-.73 1.331-.963.526-.233 1.118-.35 1.777-.35.666 0 1.26.117 1.782.35.521.233.963.554 1.325.963.361.409.639.89.83 1.439.193.55.29 1.146.29 1.788 0 .626-.097 1.21-.29 1.752-.191.542-.469 1.014-.83 1.416s-.803.716-1.325.945c-.522.229-1.116.343-1.782.343-.659 0-1.251-.114-1.777-.343-.525-.229-.969-.544-1.331-.945s-.638-.874-.831-1.416c-.193-.542-.289-1.126-.289-1.752 0-.642.096-1.239.289-1.788zm1.727 2.841c.084.342.219.649.404.922s.425.492.723.656c.297.165.658.247 1.084.247.425 0 .787-.083 1.083-.247.297-.165.538-.383.723-.656.185-.273.319-.58.404-.922.084-.341.126-.692.126-1.053 0-.377-.042-.743-.126-1.096-.084-.354-.219-.668-.404-.946-.185-.277-.425-.498-.723-.662-.297-.165-.658-.247-1.083-.247-.426 0-.787.083-1.084.247-.297.165-.538.385-.723.662-.185.277-.319.592-.404.946-.084.353-.126.718-.126 1.096 0 .36.042.712.126 1.053zm9.605-5.389l3.589 5.769h.024v-5.769h1.77v8.599h-1.89l-3.577-5.756h-.024v5.756h-1.771v-8.599h1.879zm13.516 0v1.589h-4.539v1.843h4.166v1.469h-4.166v2.107h4.637v1.59h-6.527v-8.599h6.429zm.687 0h2.119l2.012 3.396 1.999-3.396h2.107l-3.191 5.299v3.3h-1.892v-3.348l-3.154-5.251zm18.354 0v1.589h-4.155v1.987h3.601v1.469h-3.601v3.553h-1.89v-8.599h6.045zm2.902 0v7.009h4.191v1.59h-6.082v-8.599h1.891zm4.98 2.548c.191-.55.469-1.03.83-1.439.361-.41.805-.73 1.331-.963s1.118-.35 1.776-.35c.666 0 1.26.117 1.782.35s.964.554 1.325.963c.361.409.638.89.83 1.439.193.55.289 1.146.289 1.788 0 .626-.096 1.21-.289 1.752-.192.542-.469 1.014-.83 1.416s-.803.716-1.325.945-1.116.343-1.782.343c-.658 0-1.25-.114-1.776-.343s-.97-.544-1.331-.945-.639-.874-.83-1.416c-.193-.542-.289-1.126-.289-1.752 0-.642.096-1.239.289-1.788zm1.728 2.841c.084.342.219.649.403.922s.426.492.723.656.658.247 1.084.247.787-.083 1.084-.247.537-.383.723-.656c.184-.273.318-.58.403-.922.085-.341.126-.692.126-1.053 0-.377-.041-.743-.126-1.096-.085-.354-.22-.668-.403-.946-.186-.277-.426-.498-.723-.662s-.658-.247-1.084-.247-.787.083-1.084.247-.538.385-.723.662c-.185.277-.319.592-.403.946-.085.353-.126.718-.126 1.096 0 .36.041.712.126 1.053zm13.829 3.21l-1.457-5.853h-.024l-1.433 5.853h-1.915l-2.276-8.599h1.891l1.361 5.853h.023l1.494-5.853h1.77l1.47 5.925h.024l1.408-5.925h1.855l-2.312 8.599h-1.879zm6.418-2.12c.105.201.243.363.416.488s.375.217.608.277c.232.06.474.091.722.091.169 0 .35-.014.543-.042.192-.028.373-.082.541-.163.169-.08.31-.19.422-.331.113-.141.168-.319.168-.536 0-.233-.073-.421-.222-.566-.149-.145-.344-.265-.585-.361-.24-.097-.514-.181-.818-.253s-.614-.152-.928-.241c-.32-.08-.634-.178-.939-.295-.305-.116-.578-.267-.818-.451s-.436-.416-.584-.693c-.148-.277-.223-.612-.223-1.006 0-.441.094-.825.283-1.15.188-.325.436-.596.74-.813.305-.217.65-.377 1.035-.481.387-.104.771-.157 1.156-.157.45 0 .881.05 1.295.15.414.101.781.263 1.102.488.321.225.576.512.766.861.188.349.283.773.283 1.271h-1.831c-.017-.257-.07-.47-.163-.638-.092-.168-.215-.301-.367-.397-.152-.097-.326-.165-.523-.205-.197-.041-.412-.061-.645-.061-.152 0-.305.016-.457.048-.153.032-.292.088-.416.169-.125.08-.227.18-.307.301-.081.121-.121.273-.121.458 0 .169.031.306.097.409.063.105.19.201.38.289.188.089.449.177.781.265l1.308.337c.16.032.384.09.669.174.284.084.567.219.848.404.281.185.525.432.729.74.205.31.309.705.309 1.187 0 .394-.077.759-.229 1.096-.152.337-.38.628-.681.874-.301.245-.674.436-1.119.572-.445.137-.962.205-1.549.205-.473 0-.933-.058-1.379-.174-.445-.116-.838-.299-1.18-.548s-.612-.566-.812-.952c-.201-.385-.297-.843-.289-1.373h1.83c-.002.287.05.532.154.733zm-139.343 18.177l-1.458-5.853h-.024l-1.433 5.853h-1.915l-2.276-8.599h1.891l1.361 5.853h.024l1.494-5.853h1.77l1.47 5.925h.024l1.409-5.925h1.855l-2.312 8.599h-1.88zm6.979-8.598v3.3h3.481v-3.3h1.891v8.599h-1.891v-3.709h-3.481v3.709h-1.891v-8.599h1.891zm13.504 0v1.589h-4.54v1.843h4.167v1.469h-4.167v2.107h4.637v1.59h-6.527v-8.599h6.43zm3.324 0l3.588 5.769h.024v-5.769h1.771v8.599h-1.891l-3.577-5.756h-.024v5.756h-1.77v-8.599h1.879zm11.838 6.479c.104.201.242.363.416.488.172.125.375.216.608.277.233.06.474.091.722.091.169 0 .35-.015.542-.042.193-.028.374-.082.542-.163.169-.08.31-.19.422-.331s.168-.319.168-.536c0-.233-.074-.421-.223-.566-.149-.145-.343-.265-.584-.361-.241-.097-.514-.181-.819-.253-.305-.072-.615-.152-.928-.241-.321-.08-.634-.178-.939-.295-.305-.116-.578-.267-.819-.451-.241-.185-.436-.416-.584-.693-.148-.277-.223-.612-.223-1.006 0-.441.094-.825.283-1.15.189-.325.436-.596.741-.813.305-.217.65-.377 1.035-.482.386-.104.771-.156 1.156-.156.45 0 .881.05 1.294.15.414.101.781.263 1.102.488.321.225.576.512.765.861.188.349.283.773.283 1.271h-1.828c-.016-.257-.071-.47-.163-.638s-.215-.301-.367-.397c-.152-.097-.327-.165-.524-.205-.197-.04-.412-.06-.645-.06-.152 0-.305.016-.457.048-.153.032-.292.088-.416.169-.125.08-.227.18-.307.301-.081.121-.121.273-.121.458 0 .168.032.305.096.409.064.105.191.201.379.289.189.089.449.177.783.265l1.307.337c.16.032.383.09.668.174s.568.219.849.404c.281.185.524.432.729.74.205.31.307.705.307 1.187 0 .394-.076.759-.229 1.096-.153.337-.379.628-.68.874-.302.245-.675.436-1.121.572-.445.137-.961.205-1.547.205-.474 0-.934-.058-1.379-.174s-.839-.299-1.18-.548-.612-.566-.813-.952c-.201-.385-.297-.843-.289-1.373h1.831c.001.286.053.531.157.732zm8.371-6.479v3.3h3.481v-3.3h1.891v8.599h-1.891v-3.709h-3.481v3.709h-1.891v-8.599h1.891zm6.959 2.547c.193-.55.47-1.03.831-1.439.362-.41.805-.73 1.331-.963s1.118-.35 1.776-.35c.667 0 1.26.117 1.782.35s.963.554 1.325.963c.361.409.638.889.831 1.439.193.55.289 1.146.289 1.789 0 .626-.096 1.21-.289 1.752-.192.542-.469 1.014-.831 1.416-.362.401-.803.716-1.325.945-.522.229-1.116.343-1.782.343-.659 0-1.25-.114-1.776-.343-.526-.229-.969-.544-1.331-.945-.361-.401-.638-.874-.831-1.416s-.289-1.126-.289-1.752c0-.643.096-1.24.289-1.789zm1.728 2.841c.084.342.219.649.404.922.184.273.425.492.722.656s.658.247 1.084.247c.425 0 .787-.083 1.084-.247s.538-.383.722-.656c.185-.273.32-.58.404-.922.084-.341.126-.692.126-1.053 0-.377-.042-.743-.126-1.096-.084-.354-.219-.668-.404-.946-.185-.277-.425-.498-.722-.662s-.659-.247-1.084-.247c-.426 0-.787.083-1.084.247s-.538.385-.722.662c-.185.277-.319.592-.404.946-.084.353-.126.718-.126 1.096-.001.361.041.713.126 1.053zm11.603-5.388c.538 0 .996.078 1.373.234s.684.363.921.621c.237.257.41.55.518.879.108.33.162.67.162 1.024 0 .345-.054.685-.162 1.017-.108.333-.281.628-.518.886-.237.257-.544.463-.921.62s-.835.235-1.373.235h-1.987v3.083h-1.891v-8.599h3.878zm-.518 4.046c.217 0 .426-.016.626-.048.201-.032.377-.094.53-.187.152-.092.275-.223.367-.392.092-.168.139-.389.139-.662s-.047-.494-.139-.663c-.092-.168-.215-.299-.367-.392-.153-.092-.33-.154-.53-.187-.201-.032-.409-.048-.626-.048h-1.469v2.577h1.469zm8.418-4.046c.538 0 .996.078 1.373.234s.684.363.922.621c.236.257.409.55.518.879.108.33.162.67.162 1.024 0 .345-.054.685-.162 1.017-.108.333-.281.628-.518.886-.238.257-.545.463-.922.62s-.835.235-1.373.235h-1.987v3.083h-1.891v-8.599h3.878zm-.518 4.046c.217 0 .426-.016.626-.048s.378-.094.53-.187.275-.223.367-.392.139-.389.139-.662-.047-.494-.139-.663-.215-.299-.367-.392c-.152-.092-.33-.154-.53-.187-.2-.032-.409-.048-.626-.048h-1.469v2.577h1.469zm6.432-4.046v8.599h-1.891v-8.599h1.891zm3.58 0l3.588 5.769h.024v-5.769h1.771v8.599h-1.891l-3.576-5.756h-.025v5.756h-1.77v-8.599h1.879zm12.149 8.532c-.408.173-.822.259-1.24.259-.658 0-1.25-.114-1.775-.343-.526-.229-.97-.544-1.332-.945-.36-.401-.638-.874-.83-1.416-.193-.542-.289-1.126-.289-1.752 0-.642.096-1.239.289-1.789.192-.55.47-1.03.83-1.439.362-.41.806-.73 1.332-.963.525-.233 1.117-.35 1.775-.35.441 0 .869.066 1.283.199.413.133.787.327 1.12.584.333.257.608.574.825.952s.349.811.396 1.301h-1.807c-.111-.482-.328-.843-.649-1.084s-.711-.361-1.169-.361c-.426 0-.787.083-1.084.247s-.537.385-.722.662c-.185.277-.319.592-.403.946-.085.353-.127.718-.127 1.096 0 .361.042.712.127 1.053.084.342.219.649.403.922s.425.492.722.656.658.247 1.084.247c.627 0 1.11-.159 1.451-.476.342-.317.541-.776.597-1.379h-1.903v-1.409h3.613v4.648h-1.204l-.192-.976c-.338.434-.711.738-1.121.91zm7.31-5.985c.193-.55.47-1.03.831-1.439.362-.41.806-.73 1.331-.963s1.117-.35 1.776-.35c.667 0 1.261.117 1.782.35s.963.554 1.325.963c.36.409.638.889.831 1.439.192.55.289 1.146.289 1.789 0 .626-.097 1.21-.289 1.752-.193.542-.471 1.014-.831 1.416-.362.401-.804.716-1.325.945-.521.229-1.115.343-1.782.343-.659 0-1.251-.114-1.776-.343-.525-.229-.969-.544-1.331-.945-.361-.401-.638-.874-.831-1.416s-.289-1.126-.289-1.752c0-.643.096-1.24.289-1.789zm1.729 2.841c.084.342.219.649.403.922s.426.492.723.656.658.247 1.084.247c.425 0 .786-.083 1.084-.247.297-.165.538-.383.722-.656.186-.273.32-.58.404-.922.084-.341.127-.692.127-1.053 0-.377-.043-.743-.127-1.096-.084-.354-.219-.668-.404-.946-.184-.277-.425-.498-.722-.662-.298-.165-.659-.247-1.084-.247-.426 0-.787.083-1.084.247s-.538.385-.723.662c-.185.277-.319.592-.403.946-.084.353-.127.718-.127 1.096 0 .361.043.713.127 1.053zm9.604-5.388l3.589 5.769h.023v-5.769h1.771v8.599h-1.891l-3.578-5.756h-.023v5.756h-1.771v-8.599h1.88zm8.976 0v7.009h4.191v1.59h-6.082v-8.599h1.891zm7.068 0v8.599h-1.891v-8.599h1.891zm3.581 0l3.589 5.769h.023v-5.769h1.771v8.599h-1.891l-3.577-5.756h-.024v5.756h-1.771v-8.599h1.88zm13.516 0v1.589h-4.54v1.843h4.167v1.469h-4.167v2.107h4.637v1.59h-6.527v-8.599h6.43z" fill="#010101"/></svg>