<svg xmlns="http://www.w3.org/2000/svg" width="500" height="87" viewBox="0 0 500 87"><path fill="#fff" d="M7.943-.024v12.359h13.035v-12.359h7.082v32.206h-7.082v-13.894h-13.035v13.894h-7.082v-32.206h7.082zm30.481 26.613c.962.932 2.345 1.396 4.15 1.396 1.292 0 2.405-.322 3.336-.969.932-.648 1.504-1.331 1.714-2.052h5.639c-.902 2.796-2.286 4.795-4.15 5.999-1.865 1.201-4.12 1.804-6.766 1.804-1.834 0-3.489-.293-4.96-.879-1.475-.587-2.721-1.421-3.744-2.504-1.022-1.082-1.812-2.376-2.368-3.879-.557-1.505-.833-3.158-.833-4.962 0-1.743.285-3.368.856-4.872.571-1.503 1.382-2.804 2.436-3.901 1.052-1.098 2.308-1.962 3.767-2.594 1.458-.631 3.073-.947 4.848-.947 1.986 0 3.713.383 5.187 1.15 1.474.767 2.685 1.796 3.631 3.089.948 1.293 1.631 2.768 2.053 4.42.421 1.654.571 3.383.451 5.188h-16.826c.091 2.075.616 3.58 1.579 4.513zm7.239-12.27c-.767-.841-1.932-1.262-3.496-1.262-1.023 0-1.872.173-2.548.519-.676.347-1.217.775-1.624 1.286-.407.511-.692 1.052-.857 1.624-.166.571-.264 1.083-.293 1.534h10.42c-.301-1.626-.835-2.859-1.602-3.701zm16.301-14.343v32.206h-6.405v-32.206h6.405zm9.125 8.885v2.978h.089c.782-1.263 1.774-2.18 2.977-2.751 1.203-.57 2.525-.856 3.969-.856 1.834 0 3.413.347 4.736 1.038 1.323.691 2.419 1.609 3.293 2.751.873 1.144 1.518 2.474 1.939 3.992.42 1.519.631 3.105.631 4.758 0 1.564-.211 3.067-.631 4.513-.421 1.441-1.061 2.72-1.917 3.832-.856 1.113-1.925 2.001-3.203 2.662-1.278.661-2.773.991-4.488.991-1.442 0-2.773-.293-3.992-.879-1.218-.587-2.218-1.45-3-2.594h-.09v11.051h-6.405v-31.486h6.092zm8.322 18.493c.706-.42 1.278-.97 1.713-1.647.436-.676.744-1.466.925-2.366.18-.903.271-1.819.271-2.752 0-.933-.098-1.85-.293-2.752-.196-.901-.519-1.706-.97-2.413-.451-.706-1.03-1.277-1.737-1.714-.706-.436-1.571-.654-2.593-.654-1.054 0-1.933.218-2.64.654-.707.437-1.277 1.001-1.713 1.691-.437.691-.745 1.488-.925 2.391-.18.902-.271 1.835-.271 2.796 0 .932.098 1.848.293 2.751.196.901.512 1.691.948 2.367.435.677 1.015 1.227 1.736 1.646.722.423 1.594.632 2.617.632 1.053.001 1.931-.208 2.639-.63zm37.594 4.828v-3.248h-.135c-.812 1.354-1.864 2.331-3.157 2.933-1.293.603-2.616.901-3.97.901-1.714 0-3.119-.226-4.217-.676-1.099-.452-1.961-1.091-2.593-1.917-.631-.827-1.076-1.835-1.331-3.022-.255-1.189-.384-2.505-.384-3.946v-14.346h6.406v13.171c0 1.925.3 3.36.901 4.308.601.947 1.669 1.421 3.203 1.421 1.744 0 3.007-.519 3.788-1.557.783-1.036 1.173-2.742 1.173-5.119v-12.224h6.405v23.321h-6.089zm14.443-5.797c.286.497.654.902 1.105 1.218.45.315.969.55 1.556.7.587.15 1.196.226 1.827.226.452 0 .924-.052 1.421-.157.496-.104.947-.272 1.353-.496.407-.227.745-.526 1.015-.901.271-.375.406-.851.406-1.421 0-.962-.639-1.685-1.917-2.165-1.279-.481-3.061-.964-5.345-1.443-.933-.21-1.842-.458-2.729-.744-.888-.284-1.677-.661-2.369-1.127-.691-.466-1.248-1.053-1.668-1.76-.421-.706-.631-1.571-.631-2.593 0-1.504.292-2.736.878-3.699.586-.961 1.36-1.721 2.324-2.277.961-.557 2.044-.948 3.247-1.172 1.203-.226 2.437-.339 3.7-.339 1.262 0 2.487.121 3.676.361 1.188.241 2.247.646 3.18 1.218.932.571 1.707 1.331 2.323 2.278.616.947.983 2.142 1.104 3.586h-6.089c-.09-1.233-.556-2.067-1.397-2.503-.842-.436-1.834-.653-2.977-.653-.361 0-.752.022-1.172.067-.421.044-.805.143-1.149.293-.347.15-.641.369-.879.654-.241.287-.361.67-.361 1.15 0 .571.209 1.038.632 1.397.42.361.969.654 1.647.879.676.226 1.451.429 2.322.608.872.181 1.759.376 2.662.586.931.211 1.841.466 2.729.768.887.3 1.676.699 2.368 1.195.69.496 1.247 1.112 1.668 1.851.42.735.632 1.646.632 2.729 0 1.533-.308 2.819-.925 3.857-.617 1.035-1.421 1.872-2.414 2.503-.992.631-2.127 1.075-3.406 1.331-1.278.254-2.58.383-3.901.383-1.354 0-2.676-.135-3.969-.406-1.293-.27-2.443-.722-3.45-1.354-1.007-.631-1.834-1.464-2.481-2.501-.646-1.04-1-2.34-1.06-3.903h6.089c-.004.688.139 1.28.425 1.776zm33.715-17.524v3.158h.089c.843-1.202 1.856-2.134 3.045-2.796 1.188-.661 2.549-.993 4.083-.993 1.473 0 2.819.286 4.036.856 1.218.571 2.144 1.579 2.774 3.023.691-1.022 1.63-1.924 2.82-2.707 1.187-.781 2.593-1.173 4.217-1.173 1.232 0 2.375.151 3.428.452 1.053.301 1.955.782 2.707 1.443.75.663 1.338 1.527 1.759 2.593.42 1.067.632 2.354.632 3.856v15.607h-6.405v-13.215c0-.781-.03-1.519-.09-2.21-.061-.691-.227-1.293-.497-1.804-.27-.51-.669-.917-1.194-1.218-.526-.3-1.241-.451-2.143-.451-.902 0-1.632.174-2.188.52-.557.345-.993.796-1.308 1.353-.316.558-.526 1.188-.631 1.895-.106.707-.159 1.421-.159 2.143v12.99h-6.405v-13.082c0-.692-.015-1.376-.045-2.053-.03-.678-.158-1.3-.383-1.873-.227-.57-.603-1.029-1.128-1.375-.527-.345-1.302-.52-2.323-.52-.301 0-.699.068-1.196.203-.496.135-.978.392-1.444.768-.466.376-.864.917-1.196 1.624-.331.708-.495 1.632-.495 2.773v13.532h-6.406v-23.319h6.046zm32.294 7.172c.091-1.503.467-2.751 1.127-3.744.662-.993 1.503-1.789 2.526-2.391 1.021-.602 2.172-1.029 3.451-1.286 1.277-.255 2.563-.383 3.856-.383 1.172 0 2.36.083 3.564.248 1.203.167 2.3.489 3.292.97.993.481 1.804 1.15 2.437 2.007.631.856.946 1.992.946 3.406v12.133c0 1.053.06 2.062.181 3.023.12.963.332 1.684.631 2.165h-6.495c-.121-.361-.218-.73-.293-1.106-.075-.375-.128-.758-.158-1.149-1.022 1.054-2.225 1.788-3.608 2.211-1.383.42-2.796.631-4.24.631-1.113 0-2.15-.135-3.112-.405-.962-.271-1.805-.691-2.525-1.264-.723-.569-1.286-1.294-1.691-2.165-.405-.872-.609-1.908-.609-3.111 0-1.323.232-2.412.699-3.271.467-.854 1.067-1.54 1.804-2.051.736-.51 1.579-.895 2.525-1.15.948-.255 1.901-.458 2.864-.608.963-.15 1.909-.271 2.841-.361.932-.09 1.76-.227 2.48-.407.722-.18 1.293-.443 1.714-.789.421-.345.617-.85.586-1.511 0-.691-.113-1.241-.338-1.647-.227-.405-.527-.722-.902-.946-.375-.226-.812-.375-1.308-.452-.497-.074-1.031-.112-1.601-.112-1.264 0-2.255.27-2.978.812-.722.541-1.144 1.443-1.264 2.706h-6.404v-.003h.002zm14.795 4.736c-.271.242-.608.43-1.016.565-.405.135-.841.247-1.308.338-.467.09-.956.166-1.466.225-.512.062-1.024.136-1.534.227-.48.09-.956.211-1.421.36-.466.151-.873.354-1.218.609-.346.256-.625.578-.834.969s-.315.888-.315 1.489c0 .57.105 1.054.315 1.442.21.393.497.698.856.924.361.227.782.386 1.263.476.48.09.978.135 1.489.135 1.263 0 2.241-.209 2.932-.632.691-.42 1.203-.924 1.534-1.511.332-.586.535-1.181.609-1.782.075-.602.113-1.082.113-1.442l.001-2.392zm16.111-20.793v17.275l8.074-8.391h7.577l-8.795 8.57 9.787 14.751h-7.758l-6.404-10.42-2.48 2.39v8.03h-6.405v-32.205h6.404zm22.567 26.613c.961.932 2.344 1.396 4.15 1.396 1.292 0 2.404-.322 3.336-.969.932-.648 1.503-1.331 1.715-2.052h5.637c-.896 2.796-2.285 4.795-4.146 5.999-1.865 1.201-4.119 1.804-6.769 1.804-1.836 0-3.485-.293-4.958-.879-1.475-.587-2.723-1.421-3.744-2.504-1.023-1.082-1.813-2.376-2.368-3.879-.558-1.505-.833-3.158-.833-4.962 0-1.743.285-3.368.856-4.872.571-1.503 1.383-2.804 2.437-3.901 1.051-1.098 2.307-1.962 3.766-2.594 1.459-.631 3.075-.947 4.853-.947 1.981 0 3.715.383 5.188 1.15 1.476.767 2.687 1.796 3.634 3.089.945 1.293 1.629 2.768 2.051 4.42.422 1.654.572 3.383.451 5.188h-16.826c.081 2.075.606 3.58 1.57 4.513zm7.239-12.27c-.767-.841-1.933-1.262-3.496-1.262-1.022 0-1.872.173-2.548.519-.676.347-1.217.775-1.624 1.286-.405.511-.692 1.052-.856 1.624-.167.571-.265 1.083-.293 1.534h10.417c-.3-1.626-.833-2.859-1.6-3.701zm33.265-5.458v4.286h-4.688v11.547c0 1.082.181 1.804.541 2.165.357.361 1.083.541 2.165.541.358 0 .707-.014 1.034-.045.332-.029.646-.074.949-.135v4.962c-.541.09-1.146.148-1.807.18-.662.029-1.311.045-1.938.045-.989 0-1.936-.066-2.815-.203-.89-.135-1.669-.396-2.349-.788-.678-.393-1.211-.947-1.604-1.67-.391-.722-.586-1.669-.586-2.842v-13.757h-3.88v-4.286h3.88v-6.991h6.404v6.991h4.694zm7.757-8.885v12.134h.135c.812-1.354 1.85-2.338 3.113-2.956 1.262-.615 2.496-.924 3.697-.924 1.715 0 3.115.233 4.219.7 1.096.466 1.961 1.112 2.594 1.938.631.828 1.074 1.834 1.33 3.022s.385 2.503.385 3.946v14.344h-6.406v-13.17c0-1.924-.301-3.359-.9-4.307-.601-.948-1.67-1.421-3.203-1.421-1.741 0-3.008.52-3.785 1.556-.782 1.038-1.178 2.745-1.178 5.12v12.223h-6.399v-32.205h6.398zm25.213 26.613c.963.932 2.345 1.396 4.15 1.396 1.293 0 2.399-.322 3.338-.969.931-.647 1.502-1.331 1.713-2.052h5.639c-.901 2.796-2.285 4.795-4.148 5.999-1.865 1.201-4.121 1.804-6.768 1.804-1.834 0-3.488-.293-4.961-.879-1.475-.587-2.721-1.421-3.744-2.504-1.021-1.082-1.812-2.376-2.368-3.879-.556-1.505-.833-3.158-.833-4.962 0-1.743.285-3.368.855-4.872.57-1.503 1.383-2.804 2.436-3.901 1.053-1.098 2.309-1.962 3.768-2.594 1.457-.631 3.072-.947 4.853-.947 1.981 0 3.713.383 5.188 1.15 1.475.767 2.687 1.796 3.631 3.089.947 1.293 1.633 2.768 2.055 4.42.42 1.654.568 3.383.45 5.188h-16.828c.086 2.075.611 3.58 1.574 4.513zm7.241-12.27c-.768-.841-1.933-1.262-3.496-1.262-1.021 0-1.873.173-2.549.519-.677.347-1.218.775-1.623 1.286-.406.511-.688 1.052-.854 1.624-.166.571-.268 1.083-.293 1.534h10.42c-.307-1.626-.84-2.859-1.605-3.701zm27.039-14.319v32.182h-6.404v-32.182h6.404zm9.125 8.861v3.249h.137c.812-1.354 1.863-2.338 3.156-2.956 1.293-.615 2.615-.924 3.969-.924 1.719 0 3.119.233 4.222.7 1.101.466 1.963 1.112 2.595 1.938.635.828 1.073 1.834 1.33 3.022.256 1.188.389 2.503.389 3.946v14.344h-6.404v-13.17c0-1.924-.301-3.359-.902-4.307-.602-.948-1.668-1.421-3.201-1.421-1.746 0-3.008.52-3.789 1.556-.783 1.038-1.174 2.745-1.174 5.12v12.223h-6.404v-23.32h6.076zm31.328 0v4.286h-4.688v11.547c0 1.082.181 1.804.54 2.165.358.361 1.082.541 2.165.541.356 0 .707-.014 1.038-.045.33-.029.646-.074.941-.135v4.962c-.542.09-1.144.148-1.805.18-.661.029-1.308.045-1.938.045-.992 0-1.935-.066-2.814-.203-.893-.135-1.669-.396-2.348-.788-.676-.393-1.211-.947-1.604-1.67-.396-.722-.587-1.669-.587-2.842v-13.757h-3.879v-4.286h3.879v-6.991h6.401v6.991h4.699zm7.713 17.728c.968.932 2.352 1.396 4.15 1.396 1.293 0 2.405-.322 3.337-.969.933-.648 1.504-1.331 1.715-2.052h5.644c-.9 2.796-2.286 4.795-4.149 5.999-1.865 1.201-4.119 1.804-6.767 1.804-1.835 0-3.487-.293-4.962-.879-1.479-.587-2.726-1.421-3.742-2.504-1.022-1.082-1.812-2.376-2.368-3.879-.557-1.505-.835-3.158-.835-4.962 0-1.743.286-3.368.854-4.872.571-1.503 1.388-2.804 2.438-3.901 1.052-1.098 2.308-1.962 3.766-2.594 1.458-.631 3.073-.947 4.854-.947 1.979 0 3.715.383 5.188 1.15 1.479.767 2.688 1.796 3.632 3.089.947 1.293 1.631 2.768 2.056 4.42.423 1.654.567 3.383.449 5.188h-16.822c.074 2.075.599 3.58 1.562 4.513zm7.239-12.27c-.766-.841-1.932-1.262-3.495-1.262-1.021 0-1.872.173-2.548.519-.677.347-1.218.775-1.624 1.286-.406.511-.688 1.052-.854 1.624-.164.571-.268 1.083-.294 1.534h10.421c-.304-1.626-.839-2.859-1.606-3.701zm15.923-5.458v4.331h.09c.305-.723.707-1.391 1.223-2.007.512-.617 1.099-1.143 1.759-1.579.662-.437 1.369-.773 2.12-1.015.751-.24 1.533-.361 2.346-.361.422 0 .888.076 1.397.226v5.954c-.306-.06-.661-.113-1.081-.158-.422-.045-.828-.068-1.224-.068-1.173 0-2.165.195-2.978.586-.813.391-1.467.924-1.963 1.6-.494.678-.854 1.466-1.062 2.369-.212.901-.312 1.879-.312 2.933v10.51h-6.402v-23.321h6.087zm15.737 0v3.249h.136c.812-1.354 1.863-2.338 3.154-2.956 1.294-.615 2.617-.924 3.972-.924 1.715 0 3.12.233 4.218.7 1.103.466 1.968 1.112 2.599 1.938.633.828 1.075 1.834 1.332 3.022.255 1.188.383 2.503.383 3.946v14.344h-6.405v-13.17c0-1.924-.3-3.359-.898-4.307-.604-.948-1.668-1.421-3.2-1.421-1.746 0-3.011.52-3.789 1.556-.782 1.038-1.175 2.745-1.175 5.12v12.223h-6.403v-23.32h6.076zm25.529 17.728c.96.932 2.343 1.396 4.146 1.396 1.294 0 2.406-.322 3.34-.969.937-.647 1.502-1.331 1.714-2.052h5.644c-.903 2.796-2.286 4.795-4.15 5.999-1.859 1.201-4.121 1.804-6.766 1.804-1.834 0-3.49-.293-4.962-.879-1.478-.587-2.728-1.421-3.742-2.504-1.022-1.082-1.812-2.376-2.369-3.879-.558-1.505-.835-3.158-.835-4.962 0-1.743.287-3.368.857-4.872.565-1.503 1.383-2.804 2.436-3.901 1.053-1.098 2.312-1.962 3.771-2.594 1.46-.631 3.07-.947 4.851-.947 1.983 0 3.713.383 5.188 1.15 1.477.767 2.686 1.796 3.632 3.089.942 1.293 1.632 2.768 2.054 4.42.419 1.654.57 3.383.45 5.188h-16.827c.077 2.075.604 3.58 1.568 4.513zm7.238-12.27c-.768-.841-1.931-1.262-3.489-1.262-1.022 0-1.871.173-2.554.519-.676.347-1.218.775-1.624 1.286-.4.511-.688 1.052-.854 1.624-.165.571-.269 1.083-.293 1.534h10.42c-.306-1.626-.839-2.859-1.606-3.701zm22.345-5.458v4.286h-4.69v11.547c0 1.082.18 1.804.541 2.165.359.361 1.083.541 2.165.541.359 0 .707-.014 1.037-.045.33-.029.646-.074.945-.135v4.962c-.541.09-1.146.148-1.808.18-.662.029-1.309.045-1.938.045-.993 0-1.938-.066-2.82-.203-.886-.135-1.667-.396-2.344-.788-.679-.393-1.211-.947-1.604-1.67-.391-.722-.585-1.669-.585-2.842v-13.757h-3.88v-4.286h3.88v-6.991h6.405v6.991h4.696zm-382.935 53.198c.089-1.502.466-2.752 1.129-3.742.66-.989 1.502-1.791 2.525-2.393 1.022-.601 2.172-1.027 3.451-1.285 1.277-.256 2.562-.384 3.854-.384 1.174 0 2.362.083 3.564.248 1.201.167 2.301.49 3.294.97.992.481 1.805 1.15 2.435 2.008.63.856.947 1.992.947 3.406v12.133c0 1.058.061 2.062.182 3.022.119.963.33 1.685.63 2.165h-6.495c-.121-.361-.217-.729-.293-1.105-.074-.375-.128-.759-.158-1.146-1.021 1.053-2.224 1.788-3.605 2.21-1.386.42-2.798.631-4.241.631-1.111 0-2.151-.135-3.111-.402-.963-.271-1.805-.688-2.527-1.267-.72-.565-1.284-1.293-1.689-2.165-.405-.871-.609-1.906-.609-3.107 0-1.321.234-2.412.699-3.271.466-.854 1.066-1.539 1.805-2.053.736-.511 1.578-.896 2.525-1.147.946-.256 1.901-.46 2.863-.607.963-.146 1.91-.271 2.841-.357.934-.093 1.761-.229 2.482-.406.721-.179 1.292-.438 1.715-.789.42-.347.614-.851.584-1.511 0-.688-.111-1.241-.337-1.646-.227-.405-.528-.726-.903-.946-.376-.228-.812-.375-1.308-.45-.494-.074-1.03-.111-1.6-.111-1.265 0-2.257.271-2.978.812-.723.541-1.144 1.439-1.264 2.704h-6.407v-.019zm14.793 4.735c-.271.243-.607.431-1.013.565-.406.133-.845.246-1.31.338-.466.09-.954.166-1.466.225-.51.062-1.021.137-1.534.227-.479.09-.954.211-1.418.36-.469.152-.875.354-1.219.609-.346.256-.625.577-.834.969-.211.392-.316.888-.316 1.489 0 .57.105 1.054.316 1.441.209.394.496.694.857.926.36.227.779.385 1.263.475.479.09.976.135 1.487.135 1.265 0 2.241-.209 2.934-.631.69-.421 1.202-.925 1.535-1.511.331-.587.532-1.183.607-1.782.075-.604.111-1.083.111-1.443v-2.392zm25.417 5.617c.288.496.653.901 1.104 1.217.452.315.97.552 1.557.7.584.15 1.195.227 1.825.227.452 0 .926-.053 1.423-.158.495-.104.947-.271 1.354-.494.405-.229.742-.523 1.016-.898.271-.375.405-.854.405-1.421 0-.961-.64-1.688-1.917-2.165-1.28-.479-3.062-.964-5.346-1.439-.934-.209-1.842-.457-2.729-.742-.888-.285-1.678-.662-2.37-1.129s-1.248-1.057-1.667-1.764c-.423-.701-.633-1.566-.633-2.592 0-1.505.294-2.732.88-3.7.584-.961 1.36-1.722 2.323-2.272.961-.561 2.043-.946 3.248-1.172 1.202-.229 2.435-.342 3.699-.342 1.26 0 2.485.119 3.676.359 1.186.242 2.248.646 3.179 1.218.934.572 1.706 1.331 2.323 2.278.616.943.985 2.146 1.105 3.586h-6.089c-.089-1.229-.557-2.062-1.397-2.504-.842-.438-1.835-.652-2.977-.652-.361 0-.753.021-1.172.063-.423.048-.805.146-1.151.296-.347.146-.64.365-.88.65-.24.287-.359.67-.359 1.149 0 .571.211 1.039.63 1.397.423.356.97.65 1.646.879.678.227 1.452.43 2.324.609.875.182 1.759.375 2.663.586.93.211 1.841.465 2.73.768.885.3 1.676.699 2.365 1.193.694.496 1.248 1.109 1.671 1.852.422.736.631 1.646.631 2.729 0 1.533-.309 2.818-.926 3.856-.615 1.034-1.419 1.872-2.411 2.503-.993.632-2.129 1.075-3.406 1.331-1.277.254-2.577.383-3.9.383-1.353 0-2.679-.135-3.97-.405-1.294-.271-2.445-.722-3.452-1.354-1.006-.633-1.834-1.464-2.48-2.501-.648-1.04-1-2.341-1.061-3.902h6.088c-.001.688.144 1.28.428 1.777zm16.635-10.352c.09-1.502.465-2.752 1.128-3.742.659-.989 1.502-1.791 2.523-2.393 1.023-.601 2.172-1.027 3.452-1.285 1.277-.256 2.561-.384 3.856-.384 1.174 0 2.361.083 3.563.248 1.202.167 2.299.49 3.292.97.994.481 1.806 1.15 2.436 2.008.632.856.948 1.992.948 3.406v12.133c0 1.058.06 2.062.18 3.022.12.963.33 1.685.632 2.165h-6.494c-.122-.361-.218-.729-.294-1.105-.075-.375-.128-.759-.159-1.146-1.022 1.053-2.225 1.788-3.607 2.21-1.384.42-2.797.631-4.239.631-1.112 0-2.15-.135-3.112-.402-.962-.271-1.805-.688-2.526-1.267-.722-.565-1.284-1.293-1.69-2.165-.405-.871-.611-1.906-.611-3.107 0-1.321.235-2.412.7-3.271.466-.854 1.067-1.539 1.805-2.053.737-.511 1.578-.896 2.525-1.147.948-.256 1.901-.46 2.865-.607.963-.146 1.91-.271 2.841-.357.934-.093 1.76-.229 2.481-.406.724-.18 1.293-.438 1.715-.789.42-.347.615-.851.586-1.511 0-.688-.113-1.241-.338-1.646-.228-.405-.527-.726-.903-.946-.377-.228-.813-.375-1.31-.45-.493-.074-1.028-.111-1.601-.111-1.263 0-2.256.271-2.976.812-.723.541-1.145 1.439-1.264 2.704h-6.405l.001-.019zm14.794 4.735c-.271.243-.608.431-1.015.565-.408.133-.843.246-1.31.338-.465.09-.955.166-1.464.225-.513.062-1.024.137-1.535.227-.481.09-.954.211-1.42.36-.467.152-.874.354-1.217.609-.348.256-.626.577-.834.969-.211.392-.316.888-.316 1.489 0 .57.105 1.054.316 1.441.208.394.494.694.856.926.36.227.78.385 1.261.475.483.09.979.135 1.488.135 1.265 0 2.241-.209 2.934-.631.69-.421 1.202-.925 1.534-1.511.331-.587.533-1.183.608-1.782.075-.604.113-1.083.113-1.443l.001-2.392zm7.072-7.621v-4.286h3.834v-1.803c0-2.076.646-3.773 1.94-5.098 1.291-1.323 3.247-1.984 5.863-1.984.572 0 1.145.021 1.713.066.572.045 1.129.084 1.67.113v4.776c-.752-.09-1.533-.135-2.346-.135-.872 0-1.495.198-1.872.604-.376.405-.562 1.09-.562 2.055v1.396h4.42v4.285h-4.42v19.035h-6.406v-19.03h-3.834v.006zm22.008 13.44c.961.933 2.344 1.397 4.148 1.397 1.293 0 2.406-.323 3.341-.974.93-.646 1.501-1.331 1.712-2.057h5.639c-.903 2.801-2.285 4.801-4.15 6-1.863 1.201-4.12 1.808-6.765 1.808-1.835 0-3.49-.293-4.964-.879-1.472-.587-2.721-1.421-3.741-2.505-1.022-1.081-1.813-2.377-2.369-3.883-.558-1.504-.834-3.153-.834-4.961 0-1.74.285-3.367.857-4.871.571-1.504 1.384-2.805 2.436-3.898 1.052-1.1 2.307-1.962 3.766-2.594 1.458-.637 3.076-.947 4.851-.947 1.983 0 3.713.389 5.188 1.146 1.471.771 2.682 1.799 3.63 3.094.946 1.293 1.63 2.771 2.053 4.42.419 1.648.571 3.383.452 5.188h-16.826c.086 2.08.614 3.585 1.576 4.516zm7.238-12.267c-.767-.843-1.932-1.264-3.494-1.264-1.023 0-1.872.173-2.548.52-.678.351-1.219.774-1.623 1.285-.407.512-.694 1.053-.858 1.625-.166.569-.264 1.082-.294 1.533h10.421c-.304-1.625-.837-2.857-1.604-3.699zm15.921-5.459v4.33h.091c.301-.722.707-1.391 1.219-2.007.509-.616 1.096-1.144 1.76-1.579.66-.438 1.366-.771 2.119-1.015.752-.24 1.535-.361 2.346-.361.42 0 .885.076 1.399.226v5.955c-.304-.06-.663-.108-1.083-.158-.422-.045-.828-.062-1.221-.062-1.172 0-2.164.189-2.977.586-.812.395-1.466.93-1.96 1.604-.499.678-.851 1.468-1.061 2.367s-.316 1.879-.316 2.935v10.51h-6.404v-23.322h6.088v-.009zm26.21 0v2.978h.088c.781-1.263 1.774-2.181 2.979-2.747 1.2-.57 2.524-.856 3.972-.856 1.836 0 3.411.351 4.733 1.038 1.321.688 2.422 1.604 3.293 2.751.872 1.146 1.521 2.479 1.938 3.993.42 1.521.633 3.104.633 4.757 0 1.562-.213 3.066-.633 4.517-.422 1.438-1.062 2.721-1.916 3.832-.855 1.109-1.926 2.002-3.205 2.662-1.274.657-2.771.987-4.485.987-1.44 0-2.771-.293-3.989-.879-1.218-.587-2.221-1.45-2.999-2.599h-.091v11.057h-6.406v-31.49h6.088v-.001zm8.32 18.493c.704-.42 1.275-.969 1.713-1.647.438-.676.744-1.465.924-2.361.182-.903.271-1.819.271-2.752 0-.938-.098-1.854-.293-2.758-.193-.896-.52-1.701-.971-2.407-.448-.707-1.028-1.277-1.735-1.718-.705-.438-1.57-.65-2.595-.65-1.053 0-1.93.219-2.637.65-.709.438-1.279 1-1.719 1.689-.438.692-.74 1.487-.925 2.391-.187.902-.271 1.836-.271 2.797 0 .937.099 1.853.293 2.756.191.896.512 1.688.945 2.363.438.682 1.016 1.229 1.734 1.646.723.423 1.594.635 2.615.635 1.065-.002 1.943-.212 2.651-.634zm17.728-27.378v32.205h-6.404v-32.205h6.404zm2.801 16.057c.092-1.502.467-2.752 1.129-3.742.66-.989 1.504-1.791 2.527-2.393 1.02-.601 2.172-1.027 3.444-1.285 1.275-.256 2.562-.384 3.854-.384 1.174 0 2.356.083 3.562.248 1.2.167 2.302.49 3.293.97.99.481 1.804 1.15 2.438 2.008.631.856.945 1.992.945 3.406v12.133c0 1.058.062 2.062.183 3.022.12.963.325 1.685.632 2.165h-6.497c-.118-.361-.217-.729-.291-1.105-.071-.375-.128-.759-.155-1.146-1.021 1.053-2.229 1.788-3.609 2.21-1.383.42-2.795.631-4.236.631-1.113 0-2.146-.135-3.109-.402-.966-.271-1.809-.688-2.525-1.267-.723-.565-1.284-1.293-1.688-2.165-.404-.871-.604-1.906-.604-3.107 0-1.321.229-2.412.698-3.271.465-.854 1.062-1.539 1.805-2.053.732-.511 1.579-.896 2.523-1.147.944-.256 1.898-.46 2.862-.607.961-.146 1.908-.271 2.843-.357.934-.093 1.76-.229 2.479-.406.721-.18 1.289-.438 1.714-.789.42-.347.613-.851.586-1.511 0-.688-.109-1.241-.338-1.646-.229-.405-.526-.726-.902-.946-.375-.228-.812-.375-1.312-.45-.492-.074-1.025-.111-1.6-.111-1.267 0-2.256.271-2.979.812s-1.145 1.439-1.266 2.704h-6.402l-.004-.019zm14.795 4.735c-.27.243-.609.431-1.016.565-.408.134-.847.246-1.312.338-.47.09-.956.166-1.468.225-.518.062-1.021.137-1.532.227-.479.09-.957.211-1.422.36-.472.152-.871.354-1.222.609-.346.256-.625.577-.836.969s-.312.888-.312 1.489c0 .57.104 1.054.312 1.441.211.394.498.694.857.926.359.227.781.385 1.266.475.479.09.979.135 1.486.135 1.264 0 2.238-.209 2.932-.631.691-.421 1.203-.925 1.533-1.511.33-.587.533-1.183.609-1.782.072-.604.111-1.083.111-1.443v-2.392h.014zm20.201-7.712c-1.021 0-1.881.232-2.57.697-.691.469-1.256 1.068-1.691 1.806-.436.738-.742 1.549-.925 2.437-.181.892-.271 1.771-.271 2.643 0 .843.09 1.693.271 2.566.183.871.476 1.662.88 2.367.407.707.954 1.285 1.648 1.735.688.451 1.531.679 2.523.679 1.529 0 2.713-.431 3.539-1.285.825-.854 1.348-2.008 1.56-3.451h6.179c-.424 3.104-1.625 5.457-3.607 7.082-1.981 1.623-4.521 2.438-7.623 2.438-1.744 0-3.347-.293-4.805-.879-1.459-.587-2.697-1.405-3.723-2.459-1.021-1.056-1.818-2.312-2.391-3.771-.57-1.457-.855-3.061-.855-4.803 0-1.807.264-3.48.788-5.027.526-1.549 1.3-2.891 2.321-4.019 1.021-1.127 2.271-2.007 3.746-2.639 1.473-.634 3.156-.947 5.053-.947 1.383 0 2.713.183 3.988.543 1.275.358 2.424.909 3.43 1.646 1.008.738 1.828 1.654 2.459 2.752.633 1.103.992 2.397 1.082 3.9h-6.271c-.42-2.672-1.998-4.011-4.735-4.011zm19.748 13.531c.963.933 2.347 1.397 4.146 1.397 1.29 0 2.402-.323 3.339-.974.933-.646 1.507-1.331 1.716-2.057h5.639c-.9 2.801-2.287 4.801-4.148 6-1.865 1.201-4.119 1.808-6.768 1.808-1.834 0-3.488-.293-4.961-.879-1.478-.587-2.721-1.421-3.742-2.505-1.023-1.081-1.814-2.377-2.367-3.883-.561-1.504-.835-3.153-.835-4.961 0-1.74.283-3.367.854-4.871.565-1.504 1.383-2.805 2.437-3.898 1.052-1.1 2.31-1.962 3.769-2.594 1.457-.637 3.072-.947 4.851-.947 1.983 0 3.714.389 5.188 1.146 1.473.771 2.685 1.799 3.629 3.094.945 1.293 1.633 2.771 2.056 4.42s.569 3.383.45 5.188h-16.821c.078 2.08.606 3.585 1.568 4.516zm7.241-12.267c-.771-.843-1.934-1.264-3.496-1.264-1.021 0-1.873.173-2.549.52-.678.351-1.219.774-1.625 1.285-.404.512-.691 1.053-.857 1.625-.159.569-.262 1.082-.291 1.533h10.423c-.305-1.625-.84-2.857-1.605-3.699z"/></svg>