<svg xmlns="http://www.w3.org/2000/svg" width="430" height="140" viewBox="0 0 430 140"><path d="M0 6.06v-6.06h26.855v6.06h-9.824v26.717h-7.207v-26.717h-9.824zm34.388-6.06v12.349h.138c.826-1.378 1.882-2.38 3.167-3.007 1.286-.627 2.54-.942 3.765-.942 1.745 0 3.175.238 4.292.712 1.117.475 1.997 1.132 2.64 1.974.643.842 1.094 1.867 1.354 3.076.259 1.209.39 2.548.39 4.017v14.598h-6.519v-13.404c0-1.958-.306-3.42-.918-4.384-.612-.964-1.698-1.446-3.259-1.446-1.775 0-3.061.528-3.856 1.583-.796 1.056-1.193 2.793-1.193 5.21v12.44h-6.519v-32.776h6.518zm18.458 16.343c.092-1.53.474-2.8 1.147-3.81.673-1.01 1.53-1.821 2.571-2.434 1.04-.612 2.21-1.048 3.512-1.309 1.3-.259 2.609-.39 3.925-.39 1.194 0 2.402.085 3.626.252 1.224.169 2.341.498 3.351.987 1.01.49 1.836 1.17 2.479 2.043s.964 2.028.964 3.466v12.349c0 1.072.061 2.097.184 3.076.122.98.336 1.714.643 2.204h-6.61c-.123-.367-.223-.742-.298-1.125-.077-.382-.131-.772-.161-1.171-1.041 1.072-2.265 1.821-3.673 2.25-1.408.429-2.846.643-4.315.643-1.132 0-2.188-.138-3.167-.413-.98-.275-1.836-.704-2.571-1.285-.734-.581-1.308-1.315-1.721-2.204-.413-.887-.62-1.943-.62-3.167 0-1.346.237-2.456.712-3.328.474-.872 1.086-1.568 1.836-2.089.75-.52 1.607-.91 2.571-1.17.964-.26 1.935-.466 2.915-.62.979-.153 1.943-.275 2.892-.367.948-.092 1.79-.23 2.525-.414.734-.184 1.315-.451 1.744-.803.428-.352.627-.864.597-1.538 0-.704-.115-1.263-.344-1.676-.229-.413-.536-.734-.918-.964-.383-.229-.826-.382-1.331-.459-.505-.076-1.049-.115-1.63-.115-1.285 0-2.295.275-3.03.826-.735.551-1.164 1.469-1.285 2.754l-6.52.001zm15.057 4.82c-.275.246-.62.436-1.033.574-.413.138-.857.252-1.331.344-.475.092-.972.168-1.492.229-.521.062-1.041.138-1.561.229-.49.092-.972.214-1.446.367-.475.153-.888.36-1.239.62-.352.26-.636.59-.849.987-.215.398-.321.903-.321 1.515 0 .582.106 1.072.321 1.469.213.398.505.712.872.941.367.229.795.39 1.285.482.489.092.994.138 1.515.138 1.285 0 2.279-.214 2.984-.643.704-.428 1.224-.941 1.561-1.538.336-.597.543-1.201.62-1.813.076-.612.115-1.102.115-1.469l-.001-2.432zm15.838-12.12v3.306h.138c.826-1.378 1.897-2.38 3.213-3.007 1.315-.627 2.663-.941 4.04-.941 1.745 0 3.175.238 4.292.712 1.117.475 1.997 1.132 2.64 1.974.643.842 1.094 1.867 1.354 3.076.259 1.209.39 2.548.39 4.017v14.598h-6.519v-13.405c0-1.958-.306-3.42-.918-4.384-.612-.964-1.698-1.446-3.259-1.446-1.775 0-3.061.528-3.856 1.583-.796 1.056-1.193 2.793-1.193 5.21v12.44h-6.519v-23.733h6.197zm25.904-9.043v17.582l8.218-8.539h7.712l-8.952 8.723 9.962 15.011h-7.896l-6.519-10.604-2.525 2.433v8.171h-6.519v-32.777h6.519zm37.091 39.846c-1.255.826-3 1.24-5.233 1.24-.673 0-1.339-.023-1.997-.069-.658-.046-1.324-.1-1.997-.161v-5.371l1.882.184c.643.061 1.286.076 1.928.046.856-.092 1.492-.429 1.905-1.01.414-.582.62-1.225.62-1.928 0-.52-.092-1.01-.275-1.469l-8.309-22.265h6.932l5.371 16.251h.092l5.187-16.251h6.749l-9.917 26.672c-.704 1.928-1.683 3.305-2.938 4.131zm12.381-24.077c.581-1.545 1.407-2.861 2.479-3.948 1.071-1.086 2.356-1.928 3.856-2.525 1.499-.597 3.183-.896 5.049-.896s3.558.298 5.073.896c1.515.597 2.808 1.438 3.879 2.525 1.071 1.087 1.897 2.403 2.479 3.948.581 1.545.872 3.267.872 5.164 0 1.898-.291 3.612-.872 5.142-.582 1.531-1.408 2.839-2.479 3.925-1.071 1.087-2.364 1.921-3.879 2.502-1.515.581-3.206.872-5.073.872s-3.55-.291-5.049-.872c-1.5-.581-2.785-1.415-3.856-2.502-1.072-1.086-1.898-2.394-2.479-3.925-.582-1.53-.872-3.244-.872-5.142 0-1.897.29-3.619.872-5.164zm5.922 7.941c.184.903.497 1.714.941 2.433.443.719 1.033 1.293 1.768 1.721.734.429 1.652.643 2.754.643s2.027-.214 2.777-.643c.75-.428 1.347-1.002 1.791-1.721.443-.719.757-1.53.941-2.433.184-.902.275-1.828.275-2.777 0-.948-.092-1.882-.275-2.8-.184-.918-.498-1.729-.941-2.433-.444-.704-1.041-1.278-1.791-1.722-.75-.443-1.675-.666-2.777-.666s-2.02.222-2.754.666c-.735.444-1.324 1.018-1.768 1.722-.444.704-.757 1.515-.941 2.433s-.275 1.852-.275 2.8c0 .949.091 1.875.275 2.777zm35.838 9.067v-3.305h-.138c-.826 1.377-1.898 2.372-3.213 2.984-1.316.612-2.663.918-4.04.918-1.745 0-3.176-.229-4.292-.688-1.117-.459-1.997-1.109-2.64-1.951-.643-.841-1.094-1.866-1.354-3.076-.26-1.208-.39-2.547-.39-4.017v-14.599h6.519v13.405c0 1.959.306 3.42.918 4.384.612.964 1.699 1.446 3.259 1.446 1.775 0 3.061-.528 3.856-1.584.795-1.056 1.194-2.792 1.194-5.21v-12.441h6.519v23.734h-6.198zm17.766-19.372v-4.362h3.902v-1.836c0-2.112.657-3.84 1.975-5.188 1.314-1.346 3.306-2.02 5.967-2.02.582 0 1.162.023 1.744.069.582.046 1.148.084 1.699.115v4.866c-.766-.092-1.562-.138-2.388-.138-.888 0-1.522.207-1.905.62-.383.414-.574 1.11-.574 2.089v1.423h4.5v4.362h-4.5v19.372h-6.518v-19.372h-3.902zm15.457 2.364c.58-1.545 1.406-2.861 2.479-3.948 1.07-1.086 2.355-1.928 3.855-2.525s3.184-.896 5.049-.896c1.867 0 3.559.298 5.074.896 1.514.597 2.807 1.438 3.879 2.525 1.069 1.087 1.896 2.403 2.479 3.948.581 1.545.872 3.267.872 5.164 0 1.898-.291 3.612-.872 5.142-.582 1.531-1.408 2.839-2.479 3.925-1.072 1.087-2.365 1.921-3.879 2.502-1.517.581-3.207.872-5.074.872-1.865 0-3.549-.291-5.049-.872s-2.785-1.415-3.855-2.502c-1.072-1.086-1.898-2.394-2.479-3.925-.582-1.53-.873-3.244-.873-5.142 0-1.897.291-3.619.873-5.164zm5.921 7.941c.184.903.496 1.714.939 2.433.443.719 1.032 1.293 1.768 1.721.734.429 1.652.643 2.754.643 1.104 0 2.027-.214 2.777-.643.749-.428 1.348-1.002 1.79-1.721.443-.719.759-1.53.941-2.433.184-.902.274-1.828.274-2.777 0-.948-.092-1.882-.274-2.8-.185-.918-.498-1.729-.941-2.433-.442-.704-1.041-1.278-1.79-1.722-.75-.443-1.675-.666-2.777-.666s-2.02.222-2.754.666-1.324 1.018-1.768 1.722c-.443.704-.757 1.515-.939 2.433-.185.918-.275 1.852-.275 2.8 0 .949.092 1.875.275 2.777zm26.045-14.667v4.408h.093c.306-.734.719-1.415 1.239-2.043.52-.627 1.117-1.163 1.791-1.607.672-.443 1.392-.788 2.156-1.033.766-.245 1.562-.367 2.387-.367.43 0 .902.077 1.425.229v6.06c-.308-.061-.675-.115-1.103-.161-.43-.046-.843-.069-1.24-.069-1.192 0-2.203.2-3.029.597-.826.398-1.492.941-1.996 1.63-.506.688-.865 1.492-1.079 2.41s-.321 1.913-.321 2.984v10.696h-6.519v-23.734h6.196zm27.27-9.043v12.349h.137c.826-1.378 1.883-2.38 3.168-3.007s2.541-.941 3.764-.941c1.746 0 3.177.238 4.294.712 1.116.475 1.995 1.132 2.639 1.974.644.842 1.095 1.867 1.354 3.076s.391 2.548.391 4.017v14.598h-6.52v-13.405c0-1.958-.307-3.42-.918-4.384-.612-.964-1.699-1.446-3.26-1.446-1.775 0-3.061.528-3.855 1.583-.797 1.056-1.192 2.793-1.192 5.21v12.44h-6.521v-32.776h6.519zm25.705 27.084c.979.949 2.389 1.423 4.225 1.423 1.314 0 2.447-.329 3.396-.987.947-.658 1.529-1.354 1.744-2.088h5.738c-.918 2.846-2.326 4.882-4.224 6.105-1.897 1.224-4.194 1.836-6.887 1.836-1.867 0-3.552-.298-5.05-.895-1.5-.597-2.771-1.446-3.811-2.548-1.041-1.102-1.845-2.417-2.41-3.948-.565-1.53-.85-3.213-.85-5.05 0-1.774.291-3.427.872-4.958.581-1.531 1.407-2.854 2.479-3.971 1.069-1.117 2.348-1.997 3.832-2.64s3.129-.964 4.936-.964c2.02 0 3.779.39 5.279 1.171 1.5.78 2.731 1.83 3.694 3.145.966 1.316 1.66 2.816 2.091 4.499.428 1.684.58 3.443.459 5.279h-17.125c.096 2.112.633 3.643 1.612 4.591zm7.368-12.486c-.78-.856-1.968-1.285-3.558-1.285-1.041 0-1.906.176-2.595.528-.688.352-1.239.788-1.651 1.308-.414.521-.705 1.072-.873 1.653-.168.582-.269 1.102-.299 1.561h10.604c-.305-1.653-.848-2.907-1.628-3.765zm16.637-14.598v32.777h-6.519v-32.777h6.519zm9.332 9.043v3.03h.093c.795-1.286 1.805-2.219 3.029-2.8s2.57-.873 4.04-.873c1.866 0 3.474.353 4.819 1.056 1.347.704 2.464 1.638 3.352 2.801.887 1.163 1.545 2.518 1.975 4.062.428 1.545.643 3.16.643 4.843 0 1.592-.214 3.122-.643 4.591-.43 1.469-1.08 2.77-1.951 3.902-.873 1.133-1.959 2.036-3.26 2.708-1.302.673-2.822 1.01-4.566 1.01-1.471 0-2.823-.298-4.062-.895-1.24-.597-2.258-1.476-3.054-2.64h-.093v11.247h-6.519v-32.042h6.197zm8.47 18.822c.719-.428 1.301-.987 1.744-1.675s.758-1.492.941-2.41c.183-.918.275-1.851.275-2.8 0-.948-.101-1.882-.299-2.8-.199-.918-.527-1.736-.986-2.456-.459-.719-1.049-1.301-1.769-1.745-.719-.443-1.601-.666-2.64-.666-1.071 0-1.967.222-2.687.666-.719.444-1.301 1.018-1.743 1.722-.444.704-.759 1.515-.941 2.433-.184.918-.275 1.867-.275 2.846 0 .949.1 1.882.299 2.8.198.918.521 1.722.965 2.41.442.688 1.033 1.247 1.768 1.675.734.429 1.622.643 2.662.643 1.07 0 1.967-.214 2.686-.643zm11.577-22.494v-5.371h6.519v5.371h-6.519zm6.518 3.672v23.734h-6.52v-23.734h6.52zm9.332 0v3.306h.138c.827-1.378 1.897-2.38 3.214-3.007 1.314-.627 2.662-.941 4.04-.941 1.744 0 3.174.238 4.292.712 1.116.475 1.997 1.132 2.64 1.974.644.842 1.095 1.867 1.354 3.076s.391 2.548.391 4.017v14.598h-6.519v-13.405c0-1.958-.308-3.42-.918-4.384-.613-.964-1.699-1.446-3.261-1.446-1.774 0-3.061.528-3.854 1.583-.797 1.056-1.194 2.793-1.194 5.21v12.44h-6.519v-23.733h6.196zm41.334 25.478c-.261 1.224-.818 2.364-1.676 3.42-.856 1.056-2.097 1.951-3.719 2.685-1.622.735-3.795 1.102-6.519 1.102-1.163 0-2.35-.146-3.559-.436-1.209-.292-2.312-.743-3.306-1.354-.994-.612-1.82-1.4-2.479-2.364-.657-.964-1.032-2.12-1.125-3.466h6.474c.306 1.224.901 2.073 1.791 2.548.887.474 1.912.711 3.075.711 1.836 0 3.175-.551 4.017-1.652.842-1.101 1.247-2.495 1.217-4.177v-3.122h-.092c-.704 1.255-1.706 2.18-3.007 2.777-1.301.597-2.67.896-4.108.896-1.774 0-3.306-.313-4.591-.941-1.286-.626-2.341-1.484-3.167-2.57s-1.432-2.356-1.813-3.811c-.384-1.453-.574-2.991-.574-4.613 0-1.53.222-3.007.666-4.43.442-1.423 1.094-2.678 1.951-3.765.856-1.086 1.92-1.951 3.19-2.594 1.271-.643 2.731-.964 4.384-.964 1.562 0 2.931.292 4.108.873 1.178.582 2.165 1.561 2.961 2.938h.092v-3.169h6.2v22.219c0 .949-.131 2.035-.391 3.259zm-8.927-7.896c.703-.367 1.285-.856 1.744-1.469.459-.612.803-1.309 1.032-2.089.23-.78.345-1.599.345-2.456 0-.979-.092-1.905-.274-2.777-.185-.872-.49-1.645-.918-2.318-.43-.673-.995-1.209-1.698-1.607-.705-.397-1.592-.597-2.663-.597-.918 0-1.706.184-2.364.551-.658.367-1.209.865-1.651 1.492-.444.628-.767 1.347-.965 2.158-.198.812-.299 1.661-.299 2.548 0 .857.084 1.707.253 2.548.168.842.459 1.6.872 2.272.413.673.956 1.224 1.63 1.652.674.429 1.516.643 2.524.643.916 0 1.727-.183 2.432-.551zm-391.688 55.119v-3.307h-.138c-.826 1.379-1.898 2.373-3.213 2.983-1.316.611-2.663.918-4.04.918-1.745 0-3.176-.229-4.292-.688-1.117-.459-1.997-1.108-2.64-1.95-.643-.843-1.094-1.867-1.354-3.076s-.39-2.547-.39-4.017v-14.597h6.519v13.404c0 1.959.306 3.42.918 4.385.612.965 1.699 1.445 3.259 1.445 1.774 0 3.06-.527 3.856-1.582.795-1.057 1.194-2.793 1.194-5.211v-12.441h6.519v23.734h-6.198zm14.745-5.898c.29.504.666.918 1.125 1.238.459.322.987.559 1.583.711.597.154 1.217.23 1.859.23.459 0 .941-.053 1.446-.16s.964-.275 1.377-.506c.413-.229.757-.535 1.033-.918.276-.383.413-.863.413-1.445 0-.98-.65-1.715-1.951-2.203-1.301-.49-3.115-.98-5.44-1.471-.949-.213-1.875-.465-2.777-.756-.903-.292-1.707-.673-2.41-1.147-.704-.475-1.271-1.071-1.699-1.791-.429-.719-.643-1.599-.643-2.64 0-1.529.298-2.784.895-3.764.597-.979 1.385-1.752 2.365-2.318.979-.566 2.081-.964 3.305-1.193 1.224-.229 2.479-.345 3.764-.345 1.285 0 2.532.123 3.741.367 1.208.245 2.288.658 3.236 1.239.948.582 1.736 1.354 2.364 2.318.627.964 1.002 2.181 1.125 3.649h-6.197c-.092-1.254-.566-2.104-1.423-2.548-.857-.442-1.867-.665-3.03-.665-.367 0-.766.022-1.194.068-.429.046-.819.146-1.17.299-.352.153-.65.375-.895.665-.246.292-.367.682-.367 1.171 0 .582.213 1.056.643 1.423.428.367.987.666 1.675.896.689.229 1.477.437 2.364.62.887.184 1.791.383 2.708.597.948.214 1.874.475 2.777.78.902.306 1.706.711 2.41 1.217.704.505 1.27 1.132 1.698 1.882.428.75.643 1.676.643 2.776 0 1.562-.314 2.869-.941 3.926-.627 1.056-1.446 1.904-2.456 2.548-1.01.643-2.166 1.096-3.466 1.354-1.301.258-2.625.389-3.971.389-1.377 0-2.724-.137-4.04-.412-1.316-.274-2.487-.733-3.512-1.377-1.026-.643-1.868-1.491-2.525-2.549-.659-1.056-1.018-2.379-1.079-3.972h6.198c.003.707.148 1.311.439 1.817zm34.59-17.836v3.214h.092c.856-1.224 1.889-2.173 3.099-2.847 1.208-.673 2.594-1.01 4.154-1.01 1.499 0 2.869.291 4.108.872 1.24.582 2.181 1.607 2.823 3.076.704-1.04 1.66-1.958 2.869-2.755 1.208-.795 2.64-1.193 4.292-1.193 1.254 0 2.417.153 3.489.459 1.071.307 1.989.796 2.754 1.469.764.674 1.361 1.554 1.79 2.64.428 1.087.643 2.396.643 3.925v15.884h-6.519v-13.451c0-.796-.031-1.545-.092-2.249-.062-.704-.229-1.316-.505-1.837-.275-.52-.681-.933-1.216-1.239-.536-.306-1.263-.459-2.181-.459-.918 0-1.661.177-2.227.528-.566.352-1.01.811-1.331 1.377-.321.566-.536 1.209-.643 1.928-.108.72-.161 1.446-.161 2.181v13.221h-6.519v-13.313c0-.704-.016-1.4-.046-2.089-.031-.688-.161-1.323-.391-1.905-.229-.581-.612-1.048-1.147-1.399-.536-.352-1.324-.528-2.364-.528-.306 0-.711.068-1.216.206-.505.139-.995.398-1.469.781-.475.383-.88.934-1.216 1.652-.337.72-.505 1.66-.505 2.823v13.772h-6.519v-23.734h6.154zm32.914 7.299c.092-1.529.474-2.8 1.147-3.81.673-1.01 1.53-1.82 2.571-2.434 1.04-.611 2.211-1.048 3.512-1.308 1.3-.26 2.609-.391 3.925-.391 1.194 0 2.402.085 3.626.253s2.341.497 3.351.986c1.01.49 1.836 1.171 2.479 2.043s.964 2.028.964 3.466v12.349c0 1.07.061 2.096.184 3.076.122.979.336 1.713.643 2.203h-6.61c-.123-.367-.223-.742-.298-1.125-.077-.383-.131-.773-.161-1.17-1.041 1.07-2.265 1.82-3.673 2.248-1.408.428-2.846.643-4.315.643-1.132 0-2.189-.137-3.168-.412-.98-.275-1.836-.705-2.571-1.285-.734-.582-1.308-1.315-1.721-2.205-.413-.887-.62-1.94-.62-3.166 0-1.348.237-2.457.712-3.328.474-.873 1.086-1.568 1.836-2.088s1.607-.91 2.571-1.171c.964-.259 1.936-.466 2.916-.619.979-.153 1.943-.275 2.892-.367.948-.092 1.79-.229 2.525-.413.734-.184 1.315-.451 1.744-.804.428-.352.627-.864.597-1.538 0-.703-.115-1.262-.344-1.675s-.536-.735-.918-.965c-.383-.229-.826-.382-1.331-.459-.505-.076-1.049-.114-1.63-.114-1.285 0-2.295.275-3.03.826-.735.551-1.164 1.469-1.285 2.754h-6.52zm15.057 4.82c-.275.245-.62.438-1.033.574s-.857.252-1.331.343c-.475.093-.972.17-1.492.229-.521.062-1.041.138-1.561.229-.49.093-.972.216-1.446.367-.475.153-.888.36-1.239.621-.352.26-.636.59-.849.985-.215.398-.321.902-.321 1.517 0 .582.106 1.069.321 1.469.213.397.505.711.872.94.367.229.795.39 1.285.48.489.092.994.139 1.515.139 1.285 0 2.279-.213 2.984-.643.704-.428 1.224-.941 1.561-1.537.336-.598.543-1.201.62-1.814.076-.61.115-1.102.115-1.469l-.001-2.43zm16.438-21.162v17.582l8.217-8.539h7.712l-8.952 8.723 9.962 15.011h-7.896l-6.519-10.605-2.525 2.435v8.172h-6.519v-32.779h6.52zm22.999 27.084c.979.949 2.387 1.424 4.223 1.424 1.315 0 2.448-.328 3.397-.985.948-.658 1.53-1.355 1.745-2.091h5.738c-.918 2.847-2.326 4.884-4.224 6.105-1.897 1.225-4.193 1.836-6.886 1.836-1.867 0-3.55-.297-5.049-.895-1.5-.598-2.771-1.445-3.811-2.547-1.041-1.104-1.844-2.418-2.41-3.949-.567-1.529-.85-3.213-.85-5.049 0-1.774.291-3.427.873-4.958.581-1.529 1.407-2.853 2.479-3.971 1.071-1.116 2.349-1.997 3.833-2.64s3.128-.964 4.935-.964c2.02 0 3.779.391 5.279 1.171 1.499.78 2.731 1.829 3.695 3.145s1.66 2.815 2.089 4.499c.428 1.683.581 3.442.459 5.279h-17.122c.092 2.111.627 3.643 1.607 4.59zm7.367-12.486c-.78-.856-1.967-1.285-3.558-1.285-1.041 0-1.905.177-2.594.528-.688.352-1.239.788-1.652 1.308-.413.521-.705 1.072-.872 1.652-.169.582-.269 1.103-.299 1.562h10.604c-.305-1.654-.848-2.908-1.629-3.765zm34.131-5.555v4.361h-4.774v11.751c0 1.103.184 1.836.551 2.203.367.366 1.102.551 2.203.551.367 0 .719-.015 1.056-.045.336-.031.658-.076.964-.14v5.052c-.551.092-1.164.151-1.836.184-.673.029-1.331.046-1.974.046-1.01 0-1.967-.068-2.869-.205-.903-.14-1.699-.406-2.387-.806-.688-.396-1.232-.963-1.629-1.696-.398-.736-.597-1.699-.597-2.894v-14h-3.948v-4.362h3.948v-7.115h6.519v7.115h4.773zm7.946-9.043v12.349h.138c.826-1.377 1.882-2.38 3.167-3.007s2.539-.941 3.764-.941c1.745 0 3.176.237 4.293.712s1.996 1.133 2.639 1.974c.644.842 1.094 1.867 1.355 3.076.259 1.209.39 2.547.39 4.017v14.598h-6.519v-13.406c0-1.958-.307-3.42-.918-4.384-.613-.964-1.699-1.446-3.26-1.446-1.775 0-3.062.528-3.855 1.584-.796 1.056-1.194 2.793-1.194 5.21v12.441h-6.519v-32.777h6.519zm25.708 27.084c.979.949 2.387 1.424 4.223 1.424 1.316 0 2.449-.328 3.396-.985.949-.658 1.531-1.355 1.745-2.091h5.738c-.919 2.847-2.326 4.884-4.224 6.105-1.897 1.225-4.193 1.836-6.887 1.836-1.865 0-3.55-.297-5.05-.895s-2.771-1.445-3.812-2.547c-1.039-1.104-1.844-2.418-2.408-3.949-.567-1.529-.852-3.213-.852-5.049 0-1.774.291-3.427.873-4.958.581-1.529 1.408-2.853 2.479-3.971 1.072-1.116 2.351-1.997 3.834-2.64 1.484-.643 3.13-.964 4.936-.964 2.021 0 3.779.391 5.279 1.171 1.499.78 2.73 1.829 3.695 3.145.963 1.316 1.658 2.815 2.088 4.499.429 1.683.582 3.442.459 5.279h-17.121c.093 2.111.628 3.643 1.609 4.59zm7.367-12.486c-.779-.856-1.967-1.285-3.558-1.285-1.04 0-1.905.177-2.595.528-.688.351-1.238.788-1.651 1.308-.413.521-.704 1.072-.872 1.652-.169.582-.27 1.103-.299 1.562h10.604c-.305-1.654-.848-2.908-1.629-3.765zm27.796-14.732v32.911h-6.519v-32.911h6.519zm9.333 9.177v3.306h.137c.826-1.377 1.897-2.38 3.215-3.007 1.314-.627 2.662-.941 4.039-.941 1.744 0 3.175.237 4.291.712 1.117.475 1.998 1.133 2.642 1.974.644.842 1.094 1.867 1.354 3.076s.391 2.547.391 4.017v14.598h-6.52v-13.406c0-1.958-.306-3.42-.918-4.384-.611-.964-1.697-1.446-3.26-1.446-1.773 0-3.061.528-3.855 1.584-.795 1.056-1.193 2.793-1.193 5.21v12.441h-6.518v-23.734h6.195zm31.926 0v4.361h-4.772v11.751c0 1.103.185 1.836.551 2.203.367.366 1.103.551 2.203.551.367 0 .719-.015 1.056-.045.338-.031.658-.076.965-.14v5.052c-.552.092-1.164.151-1.836.184-.675.029-1.332.046-1.975.046-1.01 0-1.967-.068-2.869-.205-.902-.14-1.697-.406-2.388-.806-.688-.396-1.231-.963-1.629-1.696-.398-.736-.599-1.699-.599-2.894v-14h-3.947v-4.362h3.947v-7.115h6.521v7.115h4.772zm7.895 18.041c.979.949 2.388 1.424 4.224 1.424 1.316 0 2.449-.328 3.398-.985.947-.658 1.529-1.355 1.744-2.091h5.738c-.918 2.847-2.326 4.884-4.225 6.105-1.896 1.225-4.193 1.836-6.886 1.836-1.868 0-3.552-.297-5.052-.895-1.498-.598-2.77-1.445-3.81-2.547-1.041-1.104-1.845-2.418-2.409-3.949-.566-1.529-.851-3.213-.851-5.049 0-1.774.291-3.427.872-4.958.581-1.529 1.406-2.853 2.479-3.971 1.07-1.116 2.348-1.997 3.834-2.64 1.483-.643 3.129-.964 4.936-.964 2.02 0 3.779.391 5.279 1.171 1.498.78 2.73 1.829 3.694 3.145s1.66 2.815 2.089 4.499c.428 1.683.581 3.442.459 5.279h-17.119c.091 2.111.627 3.643 1.606 4.59zm7.368-12.486c-.779-.856-1.967-1.285-3.559-1.285-1.041 0-1.904.177-2.594.528s-1.238.788-1.652 1.308c-.412.521-.703 1.072-.871 1.652-.17.582-.27 1.103-.299 1.562h10.604c-.305-1.654-.848-2.908-1.629-3.765zm16.25-5.555v4.407h.092c.307-.734.719-1.415 1.24-2.043.52-.627 1.115-1.162 1.789-1.606.674-.443 1.394-.788 2.158-1.033.765-.244 1.561-.367 2.388-.367.428 0 .901.077 1.423.229v6.06c-.307-.061-.674-.114-1.102-.16-.431-.046-.844-.069-1.24-.069-1.193 0-2.203.199-3.029.597s-1.492.941-1.997 1.63-.864 1.492-1.079 2.41c-.214.918-.32 1.913-.32 2.983v10.697h-6.52v-23.735h6.197zm16.063 0v3.306h.139c.826-1.377 1.896-2.38 3.213-3.007s2.662-.941 4.041-.941c1.744 0 3.174.237 4.291.712s1.998 1.133 2.641 1.974c.643.842 1.094 1.867 1.354 3.076.261 1.209.392 2.547.392 4.017v14.598h-6.519v-13.406c0-1.958-.308-3.42-.918-4.384-.613-.964-1.699-1.446-3.261-1.446-1.774 0-3.062.528-3.854 1.584-.797 1.056-1.194 2.793-1.194 5.21v12.441h-6.519v-23.734h6.194zm26.027 18.041c.979.949 2.388 1.424 4.225 1.424 1.314 0 2.447-.328 3.396-.985.948-.658 1.529-1.355 1.744-2.091h5.737c-.918 2.847-2.325 4.884-4.224 6.105-1.896 1.225-4.193 1.836-6.886 1.836-1.867 0-3.552-.297-5.05-.895-1.5-.598-2.771-1.445-3.811-2.547-1.041-1.104-1.845-2.418-2.41-3.949-.566-1.529-.85-3.213-.85-5.049 0-1.774.291-3.427.872-4.958.581-1.529 1.407-2.853 2.479-3.971 1.069-1.116 2.348-1.997 3.832-2.64s3.129-.964 4.936-.964c2.02 0 3.778.391 5.278 1.171 1.499.78 2.731 1.829 3.695 3.145s1.66 2.815 2.089 4.499c.429 1.683.581 3.442.459 5.279h-17.123c.096 2.111.634 3.643 1.612 4.59zm7.368-12.486c-.78-.856-1.967-1.285-3.558-1.285-1.041 0-1.906.177-2.595.528s-1.239.788-1.651 1.308c-.414.521-.705 1.072-.873 1.652-.168.582-.269 1.103-.299 1.562h10.604c-.305-1.654-.848-2.908-1.628-3.765zm22.783-5.555v4.361h-4.773v11.751c0 1.103.184 1.836.551 2.203.367.366 1.103.551 2.203.551.367 0 .719-.015 1.056-.045.338-.031.658-.076.965-.14v5.052c-.552.092-1.163.151-1.836.184-.675.029-1.331.046-1.975.046-1.01 0-1.967-.068-2.869-.205-.902-.14-1.697-.406-2.387-.806-.689-.396-1.232-.963-1.631-1.696-.398-.736-.596-1.699-.596-2.894v-14h-3.949v-4.362h3.949v-7.115h6.519v7.115h4.773zm-326.252 56.265c.092-1.529.474-2.799 1.147-3.81.673-1.01 1.53-1.821 2.571-2.437 1.04-.61 2.21-1.047 3.512-1.307 1.3-.26 2.609-.391 3.925-.391 1.194 0 2.402.084 3.626.252 1.224.168 2.341.498 3.351.986 1.01.49 1.836 1.172 2.479 2.045.643.871.964 2.027.964 3.465v12.35c0 1.07.061 2.096.184 3.076.122.979.337 1.713.643 2.203h-6.61c-.123-.367-.223-.742-.298-1.125-.077-.383-.131-.773-.161-1.17-1.041 1.07-2.265 1.82-3.673 2.248-1.408.428-2.846.643-4.315.643-1.132 0-2.188-.137-3.167-.412-.98-.274-1.836-.705-2.571-1.285-.734-.582-1.308-1.315-1.721-2.205-.413-.887-.62-1.94-.62-3.166 0-1.348.237-2.457.712-3.327.474-.873 1.086-1.568 1.836-2.091.75-.52 1.607-.909 2.571-1.17.964-.26 1.935-.467 2.915-.619.979-.153 1.943-.274 2.892-.366.948-.093 1.79-.229 2.525-.414.734-.185 1.315-.451 1.744-.804.428-.352.627-.864.597-1.538 0-.703-.115-1.263-.344-1.675-.229-.414-.536-.735-.918-.965-.383-.229-.826-.383-1.331-.459-.505-.076-1.049-.115-1.63-.115-1.285 0-2.295.275-3.03.826-.735.551-1.164 1.469-1.285 2.754h-6.52v.003zm15.057 4.821c-.275.246-.62.438-1.033.574-.413.139-.857.252-1.331.344-.475.092-.972.17-1.492.23-.521.062-1.041.137-1.561.229-.49.092-.972.215-1.446.367-.475.154-.888.361-1.239.621-.352.26-.636.59-.849.986-.215.398-.321.902-.321 1.516 0 .582.106 1.07.321 1.469.213.398.505.711.872.941.367.229.795.389 1.285.48.489.092.994.139 1.515.139 1.285 0 2.279-.213 2.984-.643.704-.429 1.224-.941 1.561-1.537.336-.599.543-1.201.62-1.814.076-.611.115-1.102.115-1.469l-.001-2.433zm26.143 5.716c.29.504.666.918 1.125 1.237.459.322.987.56 1.583.711.597.154 1.217.23 1.859.23.459 0 .941-.054 1.446-.16s.964-.274 1.377-.506c.413-.229.757-.535 1.033-.918.276-.384.413-.863.413-1.445 0-.979-.65-1.715-1.951-2.203-1.301-.489-3.115-.979-5.44-1.471-.949-.213-1.875-.465-2.777-.756-.903-.291-1.707-.675-2.41-1.148-.704-.475-1.27-1.069-1.698-1.791-.429-.719-.643-1.598-.643-2.639 0-1.529.298-2.785.895-3.765.597-.979 1.384-1.754 2.364-2.319.979-.565 2.081-.963 3.305-1.193 1.224-.229 2.479-.344 3.764-.344 1.285 0 2.532.123 3.741.367 1.208.243 2.288.657 3.236 1.237.948.582 1.736 1.355 2.364 2.32.627.963 1.002 2.18 1.125 3.648h-6.197c-.092-1.254-.566-2.104-1.423-2.547-.857-.443-1.867-.666-3.03-.666-.367 0-.766.022-1.194.067-.429.048-.819.146-1.17.3-.352.153-.65.375-.895.666-.246.291-.367.682-.367 1.17 0 .582.213 1.057.643 1.424.428.367.987.666 1.675.895.689.23 1.477.438 2.364.621.887.184 1.791.383 2.708.596.948.215 1.874.476 2.777.781.902.305 1.706.711 2.41 1.217.704.504 1.27 1.131 1.698 1.881.428.75.643 1.676.643 2.777 0 1.561-.314 2.869-.941 3.926-.627 1.055-1.446 1.904-2.456 2.547-1.01.644-2.166 1.097-3.466 1.355-1.301.258-2.625.389-3.971.389-1.377 0-2.724-.137-4.04-.412-1.316-.274-2.487-.733-3.512-1.377-1.026-.643-1.867-1.492-2.525-2.549-.659-1.055-1.018-2.379-1.079-3.971h6.197c.004.709.149 1.313.44 1.818zm16.975-10.537c.092-1.529.474-2.799 1.147-3.81.673-1.01 1.53-1.821 2.571-2.437 1.04-.61 2.21-1.047 3.512-1.307 1.3-.26 2.609-.391 3.925-.391 1.194 0 2.402.084 3.626.252s2.341.498 3.351.986c1.01.49 1.836 1.172 2.479 2.045.643.871.964 2.027.964 3.465v12.35c0 1.07.061 2.096.184 3.076.122.979.336 1.713.643 2.203h-6.61c-.123-.367-.223-.742-.298-1.125-.077-.383-.131-.773-.161-1.17-1.041 1.07-2.265 1.82-3.673 2.248-1.408.428-2.846.643-4.315.643-1.132 0-2.188-.137-3.167-.412-.98-.274-1.837-.705-2.571-1.285-.734-.582-1.308-1.315-1.721-2.205-.413-.887-.62-1.94-.62-3.166 0-1.348.237-2.457.712-3.327.474-.873 1.086-1.568 1.836-2.091.75-.52 1.607-.909 2.571-1.17.964-.26 1.935-.467 2.915-.619.979-.153 1.943-.274 2.892-.366.948-.093 1.79-.229 2.525-.414.734-.185 1.315-.451 1.744-.804.428-.352.627-.864.597-1.538 0-.703-.115-1.263-.344-1.675-.229-.414-.536-.735-.918-.965-.383-.229-.826-.383-1.331-.459s-1.049-.115-1.63-.115c-1.285 0-2.295.275-3.03.826s-1.164 1.469-1.285 2.754h-6.52v.003zm15.057 4.821c-.275.246-.62.438-1.033.574-.413.139-.857.252-1.331.344-.475.092-.972.17-1.492.23-.521.062-1.041.137-1.561.229-.49.092-.972.215-1.446.367-.475.154-.888.361-1.239.621-.352.26-.636.59-.849.986-.215.398-.321.902-.321 1.516 0 .582.106 1.07.321 1.469.213.398.505.711.872.941.367.229.795.389 1.285.48.489.092.994.139 1.515.139 1.285 0 2.279-.213 2.984-.643.704-.429 1.224-.941 1.561-1.537.336-.599.543-1.201.62-1.814.076-.611.115-1.102.115-1.469l-.001-2.433zm7.253-7.758v-4.361h3.902v-1.836c0-2.111.658-3.84 1.974-5.188 1.315-1.348 3.305-2.02 5.968-2.02.581 0 1.163.021 1.744.067.581.045 1.148.084 1.699.115v4.864c-.766-.092-1.561-.137-2.387-.137-.888 0-1.523.205-1.905.619-.383.412-.574 1.109-.574 2.088v1.424h4.499v4.361h-4.499v19.373h-6.519v-19.373h-3.902v.004zm22.444 13.68c.979.949 2.387 1.424 4.223 1.424 1.315 0 2.448-.328 3.397-.985.948-.658 1.53-1.354 1.745-2.09h5.738c-.918 2.846-2.326 4.883-4.224 6.104-1.897 1.225-4.193 1.836-6.886 1.836-1.867 0-3.55-.297-5.049-.895-1.5-.598-2.771-1.445-3.811-2.547-1.041-1.104-1.844-2.418-2.41-3.949-.567-1.529-.85-3.213-.85-5.049 0-1.775.291-3.428.873-4.959.581-1.529 1.407-2.852 2.479-3.971 1.071-1.117 2.349-1.998 3.834-2.642 1.484-.644 3.128-.963 4.935-.963 2.02 0 3.779.392 5.279 1.17 1.499.781 2.731 1.83 3.695 3.146.964 1.316 1.66 2.814 2.089 4.498.428 1.685.581 3.443.459 5.279h-17.123c.092 2.114.627 3.645 1.607 4.593zm7.367-12.487c-.78-.855-1.967-1.285-3.558-1.285-1.041 0-1.905.178-2.594.529-.688.352-1.239.787-1.652 1.307-.413.521-.705 1.072-.872 1.652-.169.582-.269 1.104-.299 1.562h10.604c-.305-1.653-.848-2.907-1.629-3.765zm16.25-5.554v4.408h.092c.307-.734.719-1.416 1.24-2.043.52-.629 1.115-1.164 1.789-1.607.674-.442 1.393-.789 2.158-1.032.764-.244 1.561-.367 2.387-.367.429 0 .901.076 1.424.229v6.061c-.307-.061-.674-.113-1.102-.16-.431-.045-.843-.068-1.24-.068-1.193 0-2.203.199-3.029.597s-1.492.94-1.997 1.631c-.505.688-.864 1.492-1.079 2.41-.214.918-.32 1.911-.32 2.981v10.697h-6.519v-23.734h6.196v-.003zm26.948 0v3.031h.092c.795-1.287 1.806-2.221 3.029-2.803 1.225-.58 2.571-.871 4.04-.871 1.866 0 3.474.352 4.82 1.055 1.347.705 2.463 1.639 3.351 2.803.889 1.162 1.545 2.519 1.976 4.062.428 1.545.643 3.16.643 4.842 0 1.592-.215 3.123-.643 4.592-.431 1.47-1.079 2.771-1.951 3.902-.873 1.131-1.959 2.035-3.261 2.707-1.301.674-2.821 1.01-4.566 1.01-1.469 0-2.822-.297-4.062-.895-1.238-.598-2.256-1.477-3.053-2.639h-.092v11.246h-6.52v-32.043h6.197v.001zm8.468 18.822c.719-.428 1.301-.986 1.744-1.676s.758-1.492.94-2.41.274-1.852.274-2.801c0-.947-.1-1.881-.297-2.799-.199-.918-.528-1.738-.987-2.457s-1.05-1.301-1.769-1.744-1.599-.666-2.639-.666c-1.072 0-1.967.223-2.686.666-.721.443-1.301 1.018-1.744 1.721-.444.705-.758 1.516-.941 2.434s-.275 1.867-.275 2.847c0 .948.1 1.883.299 2.801s.521 1.722.964 2.41c.442.688 1.032 1.248 1.768 1.676.735.429 1.622.644 2.663.644 1.073-.004 1.968-.218 2.686-.646zm18.097-27.865v32.777h-6.519v-32.777h6.519zm2.898 16.341c.092-1.529.474-2.799 1.146-3.81.673-1.01 1.529-1.821 2.57-2.437 1.041-.61 2.211-1.047 3.512-1.307s2.609-.391 3.926-.391c1.193 0 2.402.084 3.626.252s2.341.498 3.351.986c1.012.49 1.838 1.172 2.479 2.045.644.871.964 2.027.964 3.465v12.35c0 1.07.062 2.096.184 3.076.123.979.338 1.713.644 2.203h-6.608c-.123-.367-.224-.742-.299-1.125-.078-.383-.132-.773-.16-1.17-1.041 1.07-2.267 1.82-3.674 2.248-1.408.428-2.847.643-4.314.643-1.133 0-2.188-.137-3.168-.412-.98-.274-1.836-.705-2.57-1.285-.734-.582-1.309-1.315-1.721-2.205-.414-.887-.621-1.94-.621-3.166 0-1.348.236-2.457.713-3.327.475-.873 1.086-1.568 1.836-2.091.749-.52 1.605-.909 2.57-1.17.964-.26 1.936-.467 2.914-.619.979-.153 1.942-.274 2.893-.366.95-.093 1.791-.229 2.525-.414s1.314-.451 1.744-.804c.428-.352.627-.864.597-1.538 0-.703-.114-1.263-.345-1.675-.229-.414-.535-.735-.918-.965s-.826-.383-1.33-.459c-.506-.076-1.049-.115-1.631-.115-1.285 0-2.295.275-3.029.826s-1.164 1.469-1.285 2.754h-6.52v.003zm15.055 4.821c-.275.246-.62.438-1.032.574-.414.139-.857.252-1.332.344s-.972.17-1.492.23c-.52.062-1.039.137-1.561.229-.49.092-.973.215-1.445.367-.475.154-.889.361-1.24.621s-.635.59-.849.986c-.215.398-.321.902-.321 1.516 0 .582.106 1.07.321 1.469.214.398.505.711.872.941.367.229.795.389 1.285.48.488.092.994.139 1.516.139 1.285 0 2.279-.213 2.982-.643.705-.429 1.225-.941 1.562-1.537.337-.599.543-1.201.62-1.814.076-.611.114-1.102.114-1.469v-2.433zm20.602-7.85c-1.04 0-1.911.238-2.614.713-.705.475-1.279 1.086-1.723 1.836s-.758 1.576-.941 2.479c-.183.903-.274 1.8-.274 2.687 0 .856.092 1.729.274 2.617.185.887.482 1.688.896 2.407.413.722.972 1.31 1.677 1.769.703.459 1.562.688 2.57.688 1.561 0 2.762-.436 3.604-1.309s1.369-2.043 1.584-3.512h6.289c-.43 3.152-1.651 5.555-3.674 7.207-2.02 1.652-4.604 2.479-7.758 2.479-1.775 0-3.404-.297-4.888-.895-1.485-.598-2.748-1.43-3.787-2.502-1.041-1.07-1.853-2.348-2.435-3.834-.582-1.482-.871-3.113-.871-4.889 0-1.836.267-3.541.804-5.117.534-1.576 1.321-2.939 2.362-4.086 1.041-1.148 2.312-2.045 3.812-2.688 1.499-.644 3.214-.963 5.142-.963 1.406 0 2.762.185 4.062.551 1.3.367 2.463.927 3.488 1.677 1.024.75 1.859 1.684 2.502 2.801s1.01 2.44 1.102 3.971h-6.381c-.431-2.724-2.037-4.087-4.822-4.087zm20.153 13.772c.979.949 2.388 1.424 4.225 1.424 1.314 0 2.447-.328 3.396-.985.947-.658 1.529-1.354 1.744-2.09h5.738c-.918 2.846-2.326 4.883-4.225 6.104-1.896 1.225-4.193 1.836-6.886 1.836-1.867 0-3.552-.297-5.052-.895-1.498-.598-2.77-1.445-3.81-2.547-1.041-1.104-1.845-2.418-2.41-3.949-.565-1.529-.85-3.213-.85-5.049 0-1.775.291-3.428.872-4.959.58-1.529 1.406-2.852 2.479-3.971 1.071-1.117 2.35-1.998 3.834-2.642s3.129-.963 4.936-.963c2.02 0 3.779.392 5.279 1.17 1.498.781 2.73 1.83 3.694 3.146.964 1.316 1.66 2.814 2.089 4.498.428 1.685.581 3.443.459 5.279h-17.123c.095 2.114.631 3.645 1.611 4.593zm7.368-12.487c-.78-.855-1.968-1.285-3.558-1.285-1.041 0-1.906.178-2.595.529-.688.351-1.239.787-1.651 1.307-.414.521-.705 1.072-.873 1.652-.168.582-.269 1.104-.299 1.562h10.604c-.305-1.653-.847-2.907-1.628-3.765z" fill="#fff"/></svg>