<?xml version="1.0" encoding="utf-8"?>
<!-- Generator: Adobe Illustrator 16.0.0, SVG Export Plug-In . SVG Version: 6.00 Build 0)  -->
<!DOCTYPE svg PUBLIC "-//W3C//DTD SVG 1.1//EN" "http://www.w3.org/Graphics/SVG/1.1/DTD/svg11.dtd">
<svg version="1.1" id="Layer_1" xmlns="http://www.w3.org/2000/svg" xmlns:xlink="http://www.w3.org/1999/xlink" x="0px" y="0px"
	 width="30px" height="30px" viewBox="0 0 30 30" enable-background="new 0 0 30 30" xml:space="preserve">
<path fill="#FFFFFF" d="M15,0C6.715,0,0,6.715,0,15c0,8.283,6.715,15,15,15c8.284,0,15-6.717,15-15C30,6.715,23.284,0,15,0z"/>
<path fill="#268065" d="M14.52,21.362c-3.023,0-5.463-2.431-5.463-5.464c0-2.796,2.138-5.015,4.855-5.341V8.073
	c-4.07,0.316-7.287,3.68-7.287,7.826c0,4.367,3.538,7.899,7.895,7.899c4.146,0,7.505-3.207,7.825-7.282h-2.479
	C19.535,19.228,17.316,21.362,14.52,21.362z M16.333,6.798v2.431h3.143L14,14.692l1.72,1.72l5.474-5.479v3.147h2.431V6.798H16.333z"
	/>
</svg>
