<?xml version="1.0" encoding="utf-8"?>
<!-- Generator: Adobe Illustrator 16.0.0, SVG Export Plug-In . SVG Version: 6.00 Build 0)  -->
<!DOCTYPE svg PUBLIC "-//W3C//DTD SVG 1.1//EN" "http://www.w3.org/Graphics/SVG/1.1/DTD/svg11.dtd">
<svg version="1.1" id="Layer_1" xmlns="http://www.w3.org/2000/svg" xmlns:xlink="http://www.w3.org/1999/xlink" x="0px" y="0px"
	 width="30px" height="30px" viewBox="0 0 30 30" enable-background="new 0 0 30 30" xml:space="preserve">
<path fill="#FFFFFF" d="M15,0C6.715,0,0,6.715,0,15c0,8.283,6.715,15,15,15c8.284,0,15-6.717,15-15C30,6.715,23.284,0,15,0z
	 M14.52,23.798c-4.357,0-7.895-3.532-7.895-7.899c0-4.146,3.217-7.51,7.287-7.826v2.485c-2.717,0.326-4.855,2.544-4.855,5.341
	c0,3.033,2.44,5.464,5.463,5.464c2.797,0,5.016-2.135,5.346-4.847h2.479C22.024,20.591,18.665,23.798,14.52,23.798z M23.625,14.08
	h-2.431v-3.147l-5.474,5.479L14,14.692l5.475-5.464h-3.143V6.798h7.292V14.08z"/>
</svg>
