<svg xmlns="http://www.w3.org/2000/svg" width="1200" height="320" viewBox="0 0 1200 320"><path fill="#fff" d="M194.361 261.775h7.704v20.952h5.652v-20.952h7.704v-4.752h-21.06v4.752zm463.163-166.048h-27v123h27v-123zm-410.099 161.296h-21.06v4.752h7.704v20.952h5.652v-20.952h7.704v-4.752zm6.66 0l-9.72 25.704h5.688l2.016-5.725h9.612l1.944 5.725h5.868l-9.612-25.704h-5.796zm-.54 15.768l3.348-9.432h.072l3.24 9.432h-6.66zm-77.436 1.476h-.072l-10.728-17.243h-5.616v25.704h5.292v-17.209h.072l10.692 17.209h5.652v-25.704h-5.292v17.243zm118.367-17.244h-7.056l-10.044 10.655v-10.655h-5.652v25.704h5.652v-8.28l3.24-3.276 7.74 11.557h7.092l-11.016-15.553 10.044-10.152zm79.049-161.296h-27v123h27v-123zm-235 79l28.252-.031c7.681 0 14.217-1.118 19.608-3.354 5.389-2.236 9.774-5.188 13.158-8.859 3.381-3.667 5.848-7.881 7.396-12.641 1.548-4.757 2.322-9.603 2.322-14.534 0-5.044-.774-9.917-2.322-14.62-1.548-4.7-4.015-8.885-7.396-12.556-3.384-3.669-7.77-6.622-13.158-8.858-5.391-2.236-12.179-3.546-19.86-3.546h-55v123h27v-44.001zm0-58h21c3.096 0 5.933.407 8.8.864 2.865.459 5.389 1.349 7.568 2.666 2.177 1.319 3.926 3.182 5.246 5.59 1.317 2.408 1.978 5.563 1.978 9.46 0 3.899-.661 7.052-1.978 9.46-1.319 2.408-3.069 4.273-5.246 5.59-2.18 1.32-4.703 2.209-7.568 2.666-2.867.46-5.848.688-8.944.688l-20.856.016v-37zm-14.094 143.464c-1.044-1.057-2.281-1.848-3.708-2.377-1.428-.526-2.97-.791-4.626-.791h-11.088v25.704h11.088c1.968 0 3.678-.33 5.13-.99 1.452-.66 2.664-1.566 3.636-2.719.972-1.151 1.698-2.52 2.178-4.104.479-1.584.72-3.312.72-5.184 0-2.137-.294-3.996-.882-5.58s-1.404-2.903-2.448-3.959zm-2.862 13.68c-.36.983-.84 1.782-1.44 2.394-.6.612-1.284 1.051-2.052 1.314s-1.56.396-2.376.396h-5.04v-16.2h4.032c1.392 0 2.562.198 3.51.594.948.396 1.71.966 2.286 1.71s.99 1.639 1.242 2.682c.252 1.045.378 2.215.378 3.51 0 1.416-.18 2.617-.54 3.6zm64.764-11.304h2.376c0 .888-.168 1.638-.504 2.25-.336.611-.96 1.074-1.872 1.386v2.376c.744-.096 1.434-.318 2.07-.666.635-.348 1.182-.786 1.638-1.314.456-.527.81-1.14 1.062-1.836.252-.695.366-1.439.342-2.231v-5.508h-5.112v5.543zm-33.84-2.232c-1.08-1.224-2.4-2.184-3.96-2.88-1.561-.695-3.336-1.044-5.328-1.044-1.968 0-3.738.349-5.31 1.044-1.572.696-2.898 1.656-3.978 2.88-1.08 1.225-1.908 2.659-2.484 4.303-.576 1.644-.864 3.426-.864 5.346 0 1.871.288 3.617.864 5.238.576 1.619 1.404 3.029 2.484 4.229 1.08 1.2 2.406 2.142 3.978 2.826 1.571.684 3.342 1.026 5.31 1.026 1.992 0 3.768-.343 5.328-1.026 1.56-.685 2.88-1.625 3.96-2.826 1.08-1.2 1.908-2.61 2.484-4.229.576-1.621.864-3.367.864-5.238 0-1.92-.288-3.702-.864-5.346-.576-1.644-1.404-3.078-2.484-4.303zm-2.682 12.799c-.252 1.02-.654 1.938-1.206 2.754-.553.815-1.272 1.469-2.16 1.961s-1.968.738-3.24.738-2.352-.246-3.24-.738c-.888-.492-1.608-1.146-2.16-1.961-.552-.816-.954-1.734-1.206-2.754-.252-1.021-.378-2.07-.378-3.15 0-1.127.126-2.219.378-3.276.252-1.056.654-1.998 1.206-2.826.552-.827 1.272-1.487 2.16-1.979.888-.491 1.968-.738 3.24-.738s2.352.247 3.24.738c.888.492 1.607 1.152 2.16 1.979.552.828.954 1.771 1.206 2.826.252 1.058.378 2.147.378 3.276 0 1.079-.126 2.129-.378 3.15zm382.713-107.407h50v53h27v-123h-27v47h-50v-47l-26.964.013v122.986h26.964v-52.999zm-60.857 96.048h7.703v20.952h5.652v-20.952h7.704v-4.752h-21.06v4.752h.001zm388.857-109.048v20h27c-.804 8.601-3.389 14.897-8.261 19.427-4.875 4.53-11.782 6.794-20.726 6.794-6.08 0-11.24-1.176-15.48-3.526-4.244-2.349-7.684-5.474-10.32-9.374-2.639-3.896-4.558-8.283-5.762-13.158-1.204-4.873-1.807-9.89-1.807-15.05 0-5.388.603-10.604 1.807-15.652 1.204-5.044 3.123-9.546 5.762-13.502 2.638-3.956 6.076-7.108 10.32-9.46 4.24-2.349 9.4-3.526 15.48-3.526 6.535 0 12.096 1.72 16.684 5.16 4.585 3.44 7.641 8.958 9.248 15.838h26.078c-.688-6.993-2.818-13.542-5.914-18.934-3.096-5.389-7.025-9.917-11.782-13.588-4.76-3.668-10.092-6.45-15.996-8.342-5.907-1.892-12.013-2.838-18.316-2.838-9.404 0-17.861 1.664-25.37 4.988-7.512 3.327-13.848 7.912-19.007 13.76s-9.115 12.701-11.867 20.554c-2.752 7.856-4.128 16.37-4.128 25.542 0 8.944 1.376 17.286 4.128 25.026s6.708 14.479 11.867 20.21c5.159 5.735 11.495 10.233 19.007 13.502 7.509 3.269 15.966 4.901 25.37 4.901 5.961 0 11.866-1.232 17.716-3.697 5.848-2.464 11.18-6.794 15.996-12.986l2.752 13.932h17.521v-66h-52zm-397.462 130.001h5.652v-25.704h-5.652v25.704zm294.462-104.001l-.501-.42-51.499-82.58h-27v123h26v-82l.039-.216 51.084 82.215h26.877v-123h-25v83.001zm-388.421 88.161h-10.404v-9.864h-5.652v25.704h5.652v-11.088h10.404v11.088h5.652v-25.704h-5.652v9.864zm-65.735 4.787h12.456v-4.392h-12.456v-5.508h13.572v-4.752h-19.224v25.704h19.512v-4.752h-13.86v-6.3zm25.668-9.9h7.704v20.952h5.652v-20.952h7.704v-4.752h-21.06v4.752zm-30.511-119.048h-50v-47h-27l.019 123h27.004l-.022-53h50v53h27v-123h-27l-.001 47zm131.345 126.032c1.152-.552 2.021-1.26 2.611-2.123.588-.865.881-1.944.881-3.24 0-1.2-.197-2.208-.594-3.024-.396-.814-.953-1.47-1.674-1.962-.72-.492-1.583-.847-2.592-1.062-1.008-.217-2.124-.324-3.348-.324h-12.097v25.704h12.456c1.152 0 2.273-.145 3.366-.433 1.092-.288 2.063-.731 2.916-1.332.853-.6 1.53-1.374 2.034-2.321.504-.948.756-2.07.756-3.367 0-1.606-.391-2.98-1.17-4.121-.778-1.139-1.96-1.939-3.545-2.395zm-11.159-7.344h5.292c.504 0 .99.042 1.458.126s.882.234 1.241.45c.36.216.648.516.865.9.215.384.323.875.323 1.476 0 1.08-.323 1.86-.972 2.34s-1.477.72-2.484.72h-5.724v-6.012zm9.882 15.191c-.229.433-.534.774-.918 1.027-.384.252-.828.432-1.332.539-.504.108-1.032.162-1.584.162h-6.048v-7.056h6.155c1.225 0 2.209.282 2.953.846.743.563 1.115 1.506 1.115 2.826.001.673-.113 1.225-.341 1.656zm16.83-19.583l-9.721 25.704h5.688l2.017-5.725h9.611l1.944 5.725h5.868l-9.612-25.704h-5.795zm-.54 15.768l3.349-9.432h.071l3.24 9.432h-6.66zm-59.508-1.116h12.456v-4.392h-12.456v-5.508h13.572v-4.752h-19.224v25.704h19.512v-4.752h-13.86v-6.3zm102.215-73.76c2.177-4.815 3.269-10.032 3.269-15.651 0-6.881-1.463-12.526-4.387-16.942-2.924-4.413-6.395-7.938-10.406-10.578-4.015-2.636-8.057-4.558-12.125-5.762-4.072-1.204-7.254-2.034-9.547-2.494-7.684-1.948-13.904-3.553-18.662-4.816-4.759-1.26-8.486-2.521-11.18-3.784-2.696-1.261-4.502-2.637-5.418-4.128-.919-1.489-1.376-3.44-1.376-5.848 0-2.636.572-4.816 1.72-6.536 1.146-1.72 2.607-3.152 4.387-4.3 1.775-1.145 3.754-1.949 5.934-2.408 2.177-.457 4.355-.688 6.536-.688 3.325 0 6.391.288 9.202.86 2.809.575 5.302 1.548 7.481 2.924 2.177 1.376 3.927 3.268 5.246 5.676 1.317 2.408 2.091 5.716 2.322 9.384h26.144c0-7.108-1.349-13.426-4.041-18.414-2.695-4.988-6.338-9.086-10.923-12.298-4.587-3.208-9.833-5.531-15.737-6.966-5.908-1.433-12.07-2.15-18.492-2.15-5.504 0-11.008.747-16.511 2.236-5.504 1.492-10.436 3.784-14.792 6.88-4.359 3.096-7.885 6.966-10.578 11.61-2.696 4.644-4.042 10.121-4.042 16.426 0 5.62 1.059 10.406 3.182 14.362 2.12 3.956 4.902 7.253 8.342 9.89 3.44 2.639 7.337 4.789 11.696 6.451 4.356 1.664 8.829 3.068 13.416 4.213 4.472 1.264 8.885 2.408 13.244 3.44 4.355 1.032 8.256 2.236 11.695 3.612 3.44 1.376 6.219 3.096 8.342 5.16 2.121 2.063 3.183 4.76 3.183 8.084 0 3.096-.804 5.648-2.408 7.654-1.606 2.006-3.612 3.584-6.02 4.729-2.408 1.147-4.988 1.921-7.74 2.321-2.752.404-5.332.603-7.74.603-3.556 0-6.995-.43-10.319-1.29-3.328-.859-6.223-2.177-8.687-3.956-2.467-1.776-4.445-4.098-5.934-6.966-1.492-2.865-2.594-6.632-2.594-10.76h-25.697c-.116 7.568 1.171 14.372 4.039 19.876 2.865 5.504 6.735 10.034 11.61 13.588 4.873 3.556 10.492 6.165 16.856 7.826 6.363 1.661 12.927 2.493 19.693 2.493 8.369 0 15.738-.976 22.103-2.924 6.364-1.947 11.696-4.67 15.996-8.17 4.3-3.495 7.537-7.654 9.718-12.469z"/></svg>