<svg xmlns="http://www.w3.org/2000/svg" width="1200" height="320" viewBox="0 0 1200 320"><path fill="#fff" d="M240.757 275.445h10.836v-4.07h-10.836v4.07zm-88.856 7.953h19.993l.024-5h-14.039l-.085-6.053h13.017l.068-4.947h-13l-.085-4.953h14.132v-5.07h-20.025v26.023zm49.545-7.953h10.836v-4.07h-10.836v4.07zm-2.664-18.07h-7.056l-9.804 10.977-.043-10.952h-6v25.999h6l.043-8.279 3-3.275 7.74 11.555h7.092l-11.016-15.553 10.044-10.472zm434.117-160.957h-27.005v122.98h27.005v-122.98zm-409.206 160.957l-9.72 26.023h5.688l2.016-5.965h9.612l1.944 5.965h5.868l-9.612-26.023h-5.796zm-.539 15.928l3.348-9.271h.072l3.24 9.271h-6.66zm-50.347-74.889c-2.408 1.147-4.988 1.922-7.74 2.322-2.752.403-5.332.602-7.74.602-3.556 0-6.996-.43-10.32-1.289-3.327-.86-6.222-2.178-8.686-3.957-2.467-1.775-4.445-4.098-5.934-6.965-1.491-2.865-2.236-6.364-2.236-10.492h-26.144c-.116 7.568 1.26 14.104 4.128 19.607 2.865 5.504 6.735 10.035 11.61 13.588 4.872 3.557 10.492 6.166 16.856 7.826 6.364 1.661 12.927 2.494 19.694 2.494 8.369 0 15.738-.977 22.102-2.924 6.364-1.948 11.696-4.671 15.996-8.17 4.3-3.497 7.538-7.654 9.718-12.471 2.177-4.815 3.268-10.031 3.268-15.651 0-6.88-1.462-12.526-4.386-16.942-2.924-4.412-6.394-7.938-10.406-10.578-4.015-2.636-8.057-4.558-12.126-5.762-4.072-1.204-7.253-2.034-9.546-2.494-7.684-1.948-13.905-3.553-18.662-4.816-4.76-1.26-8.487-2.521-11.18-3.784-2.695-1.261-4.501-2.637-5.418-4.128-.919-1.489-1.376-3.44-1.376-5.848 0-2.636.572-4.816 1.72-6.536 1.145-1.72 2.607-3.152 4.386-4.3 1.776-1.145 3.754-1.949 5.934-2.408 2.177-.457 4.356-.688 6.536-.688 3.324 0 6.391.288 9.202.86 2.809.575 5.303 1.548 7.482 2.924 2.177 1.376 3.926 3.268 5.246 5.676 1.317 2.408 2.091 5.448 2.322 9.116h26.144c0-7.108-1.349-13.158-4.042-18.146-2.696-4.988-6.337-9.086-10.922-12.298-4.588-3.208-9.834-5.531-15.738-6.966-5.907-1.433-12.07-2.15-18.49-2.15-5.504 0-11.008.747-16.512 2.236-5.504 1.492-10.436 3.784-14.792 6.88-4.359 3.096-7.885 6.966-10.578 11.61-2.696 4.644-4.042 10.121-4.042 16.426 0 5.62 1.059 10.406 3.182 14.362 2.121 3.956 4.902 7.253 8.342 9.89 3.44 2.639 7.337 4.789 11.696 6.45 4.356 1.664 8.828 3.069 13.416 4.214 4.472 1.264 8.885 2.408 13.244 3.439 4.356 1.033 8.256 2.236 11.696 3.613 3.44 1.375 6.219 3.096 8.342 5.159 2.121 2.063 3.182 4.761 3.182 8.085 0 3.096-.804 5.648-2.408 7.653-1.607 2.008-3.612 3.587-6.02 4.731zm509.112-61.231l51.084 82.216h26.832v-122.981h-24.94v82.56h-.516l-51.256-82.56h-27.176v122.98h25.972v-82.215zm-433.09 0h.171l51.084 82.216h26.833v-122.981h-25.112v82.56h-.344l-51.256-82.56h-26.316v122.98h24.94v-82.215zm-125.016 123.067c-.708-.768-1.626-1.707-2.754-2.174-1.128-.468-2.497-.701-4.104-.701h-12.073v26.023h6.132v-9.217h5.94c1.607 0 2.976-.232 4.104-.701 1.127-.469 2.045-1.086 2.754-1.854.708-.77 1.224-1.65 1.548-2.646.324-.996.486-2.01.486-3.043 0-1.055-.162-2.076-.486-3.059-.323-.983-.839-1.858-1.547-2.628zm-3.852 7.668c-.276.504-.643.895-1.098 1.17-.456.277-.984.463-1.584.559-.6.096-1.224.145-1.872.145h-4.392v-7.705h4.392c.648 0 1.272.049 1.872.145.6.096 1.128.281 1.584.559.456.275.822.666 1.098 1.17.275.504.414 1.164.414 1.979 0 .814-.139 1.474-.414 1.978zm8.933 15.48h19.993l-.008-5h-14l.067-6.053 11.933.053v-4.121l-12 .121.067-5.953h13.973v-5.07h-20.025v26.023zm665.512-79.652c5.16 5.735 11.495 10.234 19.007 13.502 7.509 3.269 15.966 4.902 25.369 4.902 5.961 0 11.868-1.232 17.717-3.697 5.848-2.465 11.18-6.795 15.995-12.986l2.752 13.932h17.544v-67.08h-51.943v20.124h27.177c-.805 8.601-3.643 15.853-8.515 20.382-4.875 4.53-11.781 6.793-20.727 6.793-6.079 0-11.239-1.175-15.479-3.525-4.244-2.35-7.684-5.475-10.319-9.375-2.64-3.896-4.559-8.282-5.763-13.157-1.203-4.873-1.807-9.89-1.807-15.05 0-5.388.604-10.604 1.807-15.652 1.204-5.044 3.123-9.546 5.763-13.502 2.637-3.956 6.075-7.108 10.319-9.46 4.24-2.349 9.4-3.526 15.479-3.526 6.536 0 12.097 1.72 16.685 5.16 4.585 3.44 7.682 9.116 9.288 15.996h25.8c-.688-6.993-2.58-13.7-5.676-19.091-3.097-5.389-7.024-9.917-11.782-13.588-4.76-3.668-10.092-6.45-15.995-8.342-5.908-1.892-12.014-2.838-18.319-2.838-9.403 0-17.86 1.664-25.369 4.988-7.512 3.327-13.847 7.912-19.007 13.76s-9.115 12.701-11.867 20.554c-2.753 7.856-4.129 16.37-4.129 25.542 0 8.945 1.376 17.287 4.129 25.027 2.751 7.737 6.706 14.476 11.866 20.207zm-464.26 57.26c-1.08-1.223-2.4-2.184-3.96-2.879-1.561-.696-3.336-1.045-5.328-1.045-1.968 0-3.738.349-5.31 1.045-1.572.695-2.898 1.656-3.978 2.879-1.08 1.225-1.908 2.66-2.484 4.303-.576 1.645-.864 3.426-.864 5.346 0 1.871.288 3.617.864 5.238.576 1.619 1.404 3.029 2.484 4.23 1.08 1.199 2.406 2.141 3.978 2.826 1.572.684 3.342 1.025 5.31 1.025 1.992 0 3.768-.342 5.328-1.025 1.56-.686 2.88-1.625 3.96-2.826s1.908-2.611 2.484-4.23c.576-1.621.864-3.367.864-5.238 0-1.92-.288-3.701-.864-5.346-.577-1.643-1.405-3.079-2.484-4.303zm-2.683 12.799c-.252 1.02-.654 1.938-1.206 2.754-.552.816-1.272 1.469-2.16 1.961-.888.492-1.968.738-3.24.738s-2.353-.246-3.24-.738c-.888-.492-1.608-1.145-2.16-1.961-.552-.816-.954-1.734-1.206-2.754s-.378-2.07-.378-3.15c0-1.127.126-2.219.378-3.275s.653-1.998 1.206-2.826c.552-.828 1.272-1.488 2.16-1.98.888-.49 1.968-.738 3.24-.738 1.271 0 2.352.248 3.24.738.888.492 1.608 1.152 2.16 1.98.552.828.954 1.771 1.206 2.826.252 1.057.378 2.146.378 3.275 0 1.079-.126 2.13-.378 3.15zm23.416-55.407h27v-122h-27v122zm-48.742 42.608c-1.08-1.223-2.4-2.184-3.96-2.879-1.561-.696-3.336-1.045-5.328-1.045-1.968 0-3.738.349-5.31 1.045-1.572.695-2.898 1.656-3.978 2.879-1.08 1.225-1.908 2.66-2.484 4.303-.576 1.645-.864 3.426-.864 5.346 0 1.871.288 3.617.864 5.238.576 1.619 1.404 3.029 2.484 4.23 1.08 1.199 2.406 2.141 3.978 2.826 1.572.684 3.342 1.025 5.31 1.025 1.992 0 3.768-.342 5.328-1.025 1.56-.686 2.88-1.625 3.96-2.826s1.908-2.611 2.484-4.23c.576-1.621.864-3.367.864-5.238 0-1.92-.288-3.701-.864-5.346-.576-1.643-1.404-3.079-2.484-4.303zm-2.682 12.799c-.252 1.02-.654 1.938-1.206 2.754-.553.816-1.272 1.469-2.16 1.961-.888.492-1.968.738-3.24.738s-2.352-.246-3.24-.738c-.888-.492-1.608-1.145-2.16-1.961-.552-.816-.954-1.734-1.206-2.754s-.378-2.07-.378-3.15c0-1.127.126-2.219.378-3.275s.654-1.998 1.206-2.826c.552-.828 1.272-1.488 2.16-1.98.888-.49 1.968-.738 3.24-.738s2.352.248 3.24.738c.888.492 1.607 1.152 2.16 1.98.552.828.954 1.771 1.206 2.826.252 1.057.378 2.146.378 3.275 0 1.079-.125 2.13-.378 3.15zm102.424-54.407h27l.033-50.912 50.967-.088v-21h-51v-28h59v-23h-86v123zm-129.082 50.032c1.152-.551 2.022-1.26 2.61-2.123.587-.865.882-1.945.882-3.24 0-1.199-.198-2.289-.594-3.104-.396-.816-.954-1.391-1.674-1.883s-1.584-1.166-2.592-1.381c-1.008-.217-2.124-.324-3.348-.324h-12.256v26.023h12.616c1.152 0 2.273-.145 3.366-.432 1.092-.289 2.063-.732 2.916-1.332.852-.6 1.53-1.375 2.034-2.322.504-.947.756-2.07.756-3.367 0-1.605-.391-2.98-1.17-4.121-.78-1.138-1.962-1.937-3.546-2.394zm-10.919-7.104h5.052c.504 0 .99.043 1.458.127.468.084.882.232 1.242.449s.648.516.864.9c.216.383.324.635.324 1.236 0 1.08-.324 1.859-.972 2.34-.648.479-1.476.559-2.484.559h-5.483l-.001-5.611zm9.642 14.951c-.229.434-.534.535-.918.787s-.828.432-1.332.539c-.504.109-1.032.162-1.584.162h-5.808v-6.574h5.916c1.224 0 2.208.281 2.952.846s1.116 1.266 1.116 2.586c-.001.672-.115 1.223-.342 1.654zm259.385-108.791h51.084v-21.156h-51.084v-28.036h58.996v-22.876h-86v122.98h27.004v-50.912z"/></svg>