<svg xmlns="http://www.w3.org/2000/svg" width="1200" height="320" viewBox="0 0 1200 320"><path fill="#fff" d="M373.016 93.886h-27v123h27v-123zm-158.86 179.009h-.072l-4.392-17.713h-5.292l-4.464 17.496h-.072l-4.068-17.496h-5.652l6.804 25.705h5.724l4.284-17.496h.072l4.356 17.496h5.616l6.912-25.705h-5.544l-4.212 17.713zm-49.32-3.061h12.456v-4.393h-12.456v-5.508h13.572v-4.752h-19.224v25.705h19.512v-4.752h-13.86v-6.3zm-15.911 2.592h-.072l-10.728-17.244h-5.616v25.705h5.292v-17.209h.072l10.692 17.209h5.652v-25.705h-5.292v17.244zm-23.617-13.932c-1.08-1.225-2.4-2.184-3.96-2.881-1.561-.695-3.336-1.043-5.328-1.043-1.968 0-3.738.348-5.31 1.043-1.572.697-2.898 1.656-3.978 2.881-1.08 1.225-1.908 2.658-2.484 4.303-.576 1.643-.864 3.426-.864 5.346 0 1.871.288 3.617.864 5.238.576 1.619 1.404 3.029 2.484 4.229 1.08 1.201 2.406 2.143 3.978 2.826 1.572.684 3.342 1.027 5.31 1.027 1.992 0 3.768-.344 5.328-1.027s2.88-1.625 3.96-2.826c1.08-1.199 1.908-2.609 2.484-4.229.576-1.621.864-3.367.864-5.238 0-1.92-.288-3.703-.864-5.346-.575-1.645-1.404-3.078-2.484-4.303zm-2.682 12.799c-.252 1.02-.654 1.938-1.206 2.754-.552.814-1.272 1.469-2.16 1.961s-1.968.738-3.24.738c-1.272 0-2.353-.246-3.24-.738-.888-.492-1.608-1.146-2.16-1.961-.552-.816-.954-1.734-1.206-2.754-.252-1.021-.378-2.07-.378-3.15 0-1.127.126-2.219.378-3.277.252-1.055.654-1.998 1.206-2.826.552-.826 1.272-1.486 2.16-1.979.887-.492 1.967-.738 3.24-.738 1.272 0 2.352.246 3.24.738s1.607 1.152 2.16 1.979c.552.828.954 1.771 1.206 2.826.252 1.059.378 2.148.378 3.277 0 1.08-.126 2.128-.378 3.15zm447.602 1.133h-.071l-10.728-17.244h-5.616v25.705h5.292v-17.209h.072l10.691 17.209h5.651v-25.705h-5.293l.002 17.244zm-376.697-63.882c4.3-3.497 7.538-7.654 9.718-12.47 2.177-4.816 3.268-10.032 3.268-15.652 0-6.88-1.462-12.525-4.386-16.941-2.924-4.414-6.394-7.938-10.406-10.579-4.015-2.636-8.057-4.558-12.126-5.762-4.072-1.204-7.253-2.034-9.546-2.494-7.684-1.948-13.905-3.553-18.662-4.816-4.76-1.26-8.487-2.521-11.18-3.784-2.695-1.261-4.501-2.637-5.418-4.128-.919-1.489-1.376-3.44-1.376-5.848 0-2.636.572-4.816 1.72-6.536 1.145-1.72 2.607-3.152 4.386-4.3 1.776-1.145 3.754-1.949 5.934-2.408 2.177-.457 4.356-.688 6.536-.688 3.324 0 6.391.288 9.202.86 2.809.575 5.303 1.548 7.482 2.924 2.177 1.376 3.926 3.268 5.246 5.676 1.317 2.408 1.863 5.62 2.094 9.288h26c0-7.108-.977-13.33-3.67-18.318-2.696-4.988-6.337-9.086-10.922-12.298-4.588-3.208-9.834-5.531-15.738-6.966-5.908-1.433-12.07-2.15-18.49-2.15-5.504 0-11.008.747-16.512 2.236-5.505 1.492-10.436 3.784-14.793 6.88-4.359 3.096-7.885 6.966-10.578 11.61-2.695 4.644-4.042 10.121-4.042 16.426 0 5.62 1.059 10.406 3.182 14.362 2.121 3.956 4.902 7.253 8.342 9.89 3.44 2.639 7.337 4.789 11.696 6.45 4.356 1.664 8.828 3.068 13.416 4.214 4.472 1.263 8.885 2.408 13.244 3.44 4.356 1.031 8.256 2.236 11.696 3.611 3.44 1.377 6.219 3.096 8.342 5.16 2.121 2.064 3.182 4.76 3.182 8.084 0 3.096-.804 5.649-2.408 7.654-1.607 2.007-3.612 3.585-6.021 4.73-2.408 1.146-4.988 1.92-7.74 2.321-2.752.403-5.332.603-7.74.603-3.556 0-6.996-.43-10.32-1.291-3.327-.859-6.222-2.176-8.686-3.955-2.467-1.776-4.445-4.098-5.934-6.967-1.491-2.865-2.508-6.6-2.508-10.728h-26c-.116 7.567 1.388 14.341 4.256 19.845 2.865 5.504 6.735 10.034 11.61 13.588 4.872 3.555 10.492 6.164 16.856 7.826 6.364 1.66 12.927 2.493 19.694 2.493 8.369 0 15.738-.976 22.102-2.924 6.365-1.946 11.697-4.669 15.998-8.168zm52.485-73.658l.832-.216 51.084 82.216h28.127l-.043-123h-26v83l-.708-.42-51.292-82.58h-27v123h25v-82zm295.952 120.296h-5.795l-9.721 25.705h5.688l2.019-5.725h9.61l1.943 5.725h5.869l-9.613-25.705zm-6.336 15.767l3.349-9.432h.071l3.24 9.432h-6.66zm-16.615-105.063h52.001v-21h-52.001v-28h59.001v-23h-86.001v123.043l27-.043v-51zm144.479-31.216h.344l51.084 82.216h27.107l-.016-123h-25l.043 82.58h-.76l-50.283-81.58h-27l-.061 122h24.541v-82.216zm37.809 127.369c.553-.826 1.271-1.486 2.16-1.979.887-.492 1.967-.738 3.24-.738 1.365 0 2.529.359 3.49 1.08.959.719 1.607 1.799 1.943 3.24h5.4c-.145-1.463-.541-2.76-1.188-3.889-.648-1.128-1.471-2.076-2.467-2.844s-2.111-1.35-3.348-1.746c-1.238-.396-2.516-.594-3.834-.594-1.971 0-3.738.348-5.312 1.043-1.572.697-2.896 1.656-3.979 2.881-1.08 1.225-1.906 2.658-2.482 4.303-.576 1.643-.865 3.426-.865 5.346 0 1.871.289 3.617.865 5.238.576 1.619 1.402 3.029 2.482 4.229 1.08 1.201 2.406 2.143 3.979 2.826s3.342 1.027 5.312 1.027c1.248 0 2.482-.26 3.707-.775s2.34-1.422 3.35-2.717l.574 2.916h3.602v-13.896h-10.801v4.211h5.688c-.168 1.801-.762 3.176-1.781 4.123s-2.467 1.422-4.338 1.422c-1.273 0-2.354-.246-3.24-.738-.889-.492-1.607-1.146-2.16-1.961-.553-.816-.953-1.734-1.205-2.754-.252-1.021-.379-2.07-.379-3.15 0-1.127.127-2.219.379-3.277.255-1.055.655-1.999 1.208-2.827zm-32.905-6.857v15.984c0 3.504.955 6.096 2.863 7.775s4.602 2.521 8.082 2.521c3.432 0 6.119-.848 8.061-2.539 1.945-1.691 2.916-4.277 2.916-7.758v-15.984h-5.648v15.984c0 1.92-.385 3.33-1.152 4.229-.77.9-2.16 1.35-4.176 1.35-1.152 0-2.07-.16-2.754-.484-.688-.324-1.219-.744-1.605-1.26-.383-.518-.635-1.111-.756-1.783-.119-.672-.18-1.355-.18-2.051v-15.985l-5.651.001zm-51.382-161.296h-27v123h27v-123zm-3.196 187.001h5.295v-17.209h.07l10.691 17.209h5.652v-25.705h-5.293v17.244h-.07l-10.729-17.244h-5.617v25.705h.001zm47.487-22.393c-1.08-1.225-2.4-2.184-3.959-2.881-1.561-.695-3.336-1.043-5.328-1.043-1.969 0-3.738.348-5.311 1.043-1.572.697-2.898 1.656-3.98 2.881-1.08 1.225-1.908 2.658-2.482 4.303-.574 1.643-.863 3.426-.863 5.346 0 1.871.289 3.617.863 5.238.574 1.619 1.402 3.029 2.482 4.229 1.08 1.201 2.406 2.143 3.98 2.826 1.572.684 3.342 1.027 5.311 1.027 1.992 0 3.768-.344 5.328-1.027 1.559-.684 2.879-1.625 3.959-2.826 1.08-1.199 1.908-2.609 2.484-4.229.576-1.621.861-3.367.861-5.238 0-1.92-.285-3.703-.861-5.346-.576-1.645-1.404-3.078-2.484-4.303zm-2.682 12.799c-.252 1.02-.654 1.938-1.205 2.754-.553.814-1.273 1.469-2.16 1.961-.889.492-1.969.738-3.24.738-1.273 0-2.354-.246-3.24-.738-.889-.492-1.609-1.146-2.16-1.961-.553-.816-.953-1.734-1.207-2.754-.252-1.021-.377-2.07-.377-3.15 0-1.127.125-2.219.377-3.277.254-1.055.654-1.998 1.207-2.826.551-.826 1.271-1.486 2.16-1.979.887-.492 1.967-.738 3.24-.738 1.271 0 2.352.246 3.24.738.887.492 1.607 1.152 2.16 1.979.551.828.953 1.771 1.205 2.826.252 1.059.379 2.148.379 3.277 0 1.08-.127 2.128-.379 3.15zm-48.906-11.359v-4.752h-19.224v25.705h19.513v-4.752h-13.861v-6.301h12.457v-4.393h-12.457v-5.508h13.572zm225.808-43.995c5.85-2.463 11.182-6.793 15.996-12.986l2.752 13.933h16.783v-65.975h-50.975v20.02h26.969c-.805 8.601-3.643 14.853-8.516 19.382-4.875 4.53-11.781 6.793-20.727 6.793-6.08 0-11.24-1.175-15.479-3.525-4.244-2.35-7.686-5.475-10.32-9.375-2.639-3.896-4.559-8.282-5.762-13.157-1.203-4.873-1.809-9.89-1.809-15.05 0-5.388.605-10.604 1.809-15.652 1.203-5.044 3.123-9.337 5.762-13.293 2.637-3.956 6.076-7.317 10.32-9.668 4.238-2.349 9.398-3.526 15.479-3.526 6.535 0 12.098 1.72 16.686 5.16 4.584 3.44 7.682 9.018 9.287 15.897l25.801.104c-.689-6.993-2.58-13.707-5.676-19.098-3.098-5.389-7.025-9.917-11.781-13.588-4.76-3.668-10.092-6.45-15.996-8.342-5.908-1.892-12.016-2.838-18.318-2.838-9.404 0-17.861 1.664-25.371 4.988-7.512 3.327-13.846 7.912-19.006 13.76s-9.115 12.701-11.867 20.554c-2.752 7.856-4.129 16.37-4.129 25.542 0 8.944 1.377 17.286 4.129 25.026s6.707 14.479 11.867 20.211c5.16 5.734 11.494 10.233 19.006 13.502 7.51 3.268 15.967 4.901 25.371 4.901 5.961-.001 11.868-1.235 17.715-3.7zm-592.97 49.108h-10.404v-9.865h-5.652v25.705h5.652v-11.088h10.404v11.088h5.652v-25.705h-5.652v9.865zm275.973 15.84h5.652v-25.705h-5.652v9.865h-10.403v-9.865h-5.652v25.705h5.652v-11.088h10.403v11.088zm-40.067-20.953h7.704v20.953h5.651v-20.953h7.704v-4.752h-21.06v4.752h.001zm-57.449-143.048h60v-23h-87v123h27v-51h52v-21h-52v-28zm-104.513 164.001h5.652v-25.705h-5.652v25.705zm-31.356 0h5.652v-10.621h10.764v-4.393h-10.764v-5.939h12.42v-4.752h-18.072v25.705zm-21.347 0h5.652v-10.621h10.764v-4.393h-10.764v-5.939h12.42v-4.752h-18.072v25.705zm-10.621 0h5.652v-25.705h-5.652v25.705zm90.863-13.393c-.84-.553-1.686-.955-2.538-1.207s-1.518-.426-1.998-.521c-1.608-.408-2.911-.744-3.906-1.008-.996-.264-1.776-.527-2.34-.791-.564-.266-.942-.553-1.134-.865-.192-.312-.288-.719-.288-1.223 0-.553.12-1.01.36-1.369.239-.359.545-.66.918-.9.372-.24.786-.408 1.242-.504s.912-.143 1.368-.143c.696 0 1.338.059 1.926.18s1.11.324 1.566.611c.456.289.822.684 1.098 1.188s.438 1.141.486 1.908h5.472c0-1.488-.282-2.754-.846-3.797-.564-1.045-1.327-1.902-2.286-2.574-.96-.672-2.058-1.158-3.294-1.459-1.236-.3-2.526-.449-3.87-.449-1.152 0-2.304.156-3.456.467-1.152.312-2.184.793-3.096 1.441-.913.647-1.65 1.457-2.214 2.43s-.846 2.119-.846 3.438c0 1.176.222 2.178.666 3.006s1.026 1.52 1.746 2.07c.72.553 1.536 1.002 2.448 1.35.912.348 1.848.643 2.808.883.936.264 1.859.504 2.772.721.912.215 1.728.467 2.448.756.72.287 1.302.646 1.746 1.08.444.432.666.994.666 1.691 0 .648-.168 1.182-.504 1.602-.336.42-.756.75-1.26.99s-1.044.402-1.62.486c-.576.084-1.116.125-1.62.125-.744 0-1.464-.09-2.16-.27-.696-.18-1.302-.455-1.818-.828-.517-.371-.93-.857-1.242-1.457-.312-.602-.468-1.332-.468-2.197h-5.472c-.024 1.584.264 2.953.864 4.105.6 1.15 1.41 2.1 2.43 2.844s2.196 1.291 3.528 1.637c1.332.348 2.706.523 4.122.523 1.751 0 3.294-.205 4.626-.613s2.448-.979 3.348-1.709c.9-.732 1.578-1.604 2.034-2.611.456-1.008.684-2.1.684-3.275 0-1.439-.306-2.621-.918-3.545-.612-.928-1.338-1.664-2.178-2.217zm69.912-9c-1.079-1.225-2.399-2.184-3.959-2.881-1.562-.695-3.336-1.043-5.328-1.043-1.969 0-3.738.348-5.31 1.043-1.572.697-2.898 1.656-3.978 2.881s-1.908 2.658-2.484 4.303c-.576 1.643-.864 3.426-.864 5.346 0 1.871.288 3.617.864 5.238.576 1.619 1.404 3.029 2.484 4.229 1.08 1.201 2.406 2.143 3.978 2.826 1.572.684 3.341 1.027 5.31 1.027 1.992 0 3.768-.344 5.328-1.027 1.56-.684 2.88-1.625 3.959-2.826 1.08-1.199 1.908-2.609 2.484-4.229.576-1.621.864-3.367.864-5.238 0-1.92-.288-3.703-.864-5.346-.576-1.645-1.404-3.078-2.484-4.303zm-2.682 12.799c-.252 1.02-.654 1.938-1.205 2.754-.553.814-1.272 1.469-2.16 1.961-.889.492-1.969.738-3.24.738-1.272 0-2.354-.246-3.24-.738-.888-.492-1.608-1.146-2.16-1.961-.552-.816-.954-1.734-1.206-2.754-.252-1.021-.378-2.07-.378-3.15 0-1.127.126-2.219.378-3.277.252-1.055.654-1.998 1.206-2.826.552-.826 1.272-1.486 2.16-1.979.887-.492 1.967-.738 3.24-.738 1.271 0 2.352.246 3.24.738.888.492 1.606 1.152 2.16 1.979.551.828.953 1.771 1.205 2.826.252 1.059.379 2.148.379 3.277 0 1.08-.127 2.128-.379 3.15zm41.525-1.459h12.456v-4.393h-12.456v-5.508h13.572v-4.752h-19.225v25.705h19.512v-4.752h-13.859v-6.3zm-78.263 3.023h-.072l-6.012-17.676h-7.956v25.705h5.292v-18.036h.072l6.3 18.037h4.356l6.3-18.217h.072v18.217h5.292v-25.705h-7.956l-5.688 17.675zm67.879 5.077c-.061-.576-.104-1.139-.127-1.691s-.047-1.031-.071-1.439c-.048-.648-.138-1.297-.271-1.945-.132-.646-.342-1.242-.629-1.781-.289-.541-.66-1.008-1.117-1.404s-1.031-.689-1.729-.883v-.07c1.439-.576 2.479-1.416 3.114-2.521.636-1.104.954-2.412.954-3.924 0-.984-.174-1.902-.522-2.754-.348-.852-.853-1.602-1.512-2.25-.66-.648-1.452-1.156-2.376-1.529s-1.962-.559-3.114-.559h-13.86v25.705h5.652v-10.045h5.652c1.416 0 2.436.312 3.06.936.624.625 1.032 1.609 1.224 2.953.145 1.031.252 2.111.324 3.24.072 1.127.265 2.1.576 2.916h5.652c-.264-.361-.462-.799-.594-1.314-.13-.518-.228-1.065-.286-1.641zm-6.498-11.989c-.648.576-1.62.865-2.916.865h-6.192v-7.236h6.192c1.296 0 2.268.281 2.916.846.647.564.972 1.471.972 2.719-.002 1.295-.325 2.23-.972 2.806zm302.649-.898h-10.404v-9.865h-5.652v25.705h5.652v-11.088h10.404v11.088h5.652v-25.705h-5.652v9.865z"/></svg>