<svg xmlns="http://www.w3.org/2000/svg" width="1200" height="320" viewBox="0 0 1200 320"><path fill="#fff" d="M526.22 254.414c-1.968 0-3.739.35-5.31 1.045-1.572.695-2.898 1.654-3.979 2.879s-1.908 2.658-2.483 4.303c-.576 1.645-.864 3.426-.864 5.346 0 1.873.288 3.619.864 5.238.575 1.621 1.403 3.029 2.483 4.23 1.08 1.199 2.406 2.143 3.979 2.824 1.57.686 3.342 1.027 5.31 1.027 1.992 0 3.768-.344 5.328-1.027 1.56-.684 2.88-1.625 3.96-2.824 1.08-1.201 1.908-2.609 2.484-4.23.575-1.619.863-3.365.863-5.238 0-1.92-.288-3.701-.863-5.346-.576-1.645-1.404-3.078-2.484-4.303s-2.4-2.184-3.96-2.879c-1.561-.695-3.336-1.045-5.328-1.045zm6.605 10.297c.252 1.057.378 2.148.378 3.275 0 1.08-.126 2.131-.378 3.15-.253 1.02-.654 1.938-1.206 2.754-.553.814-1.272 1.471-2.16 1.961-.889.492-1.968.736-3.24.736s-2.353-.244-3.24-.736c-.888-.49-1.607-1.146-2.16-1.961-.552-.816-.954-1.734-1.206-2.754-.252-1.021-.378-2.07-.378-3.15 0-1.127.126-2.219.378-3.275s.654-1.998 1.206-2.826c.553-.828 1.272-1.488 2.16-1.98.889-.49 1.968-.738 3.24-.738 1.271 0 2.352.248 3.24.738.888.492 1.607 1.152 2.16 1.98s.954 1.769 1.206 2.826zm12.114 12.744c1.08 1.199 2.406 2.143 3.979 2.824 1.571.686 3.342 1.027 5.31 1.027 1.992 0 3.769-.344 5.328-1.027 1.561-.684 2.88-1.625 3.96-2.824 1.08-1.201 1.908-2.609 2.484-4.23.576-1.619.863-3.365.863-5.238 0-1.92-.287-3.701-.863-5.346s-1.404-3.078-2.484-4.303-2.399-2.184-3.96-2.879-3.336-1.045-5.328-1.045c-1.968 0-3.738.35-5.31 1.045-1.572.695-2.898 1.654-3.979 2.879s-1.907 2.658-2.483 4.303-.864 3.426-.864 5.346c0 1.873.288 3.619.864 5.238.576 1.621 1.403 3.029 2.483 4.23zm2.683-12.744c.252-1.057.653-1.998 1.206-2.826.552-.828 1.271-1.488 2.159-1.98.889-.49 1.969-.738 3.24-.738 1.272 0 2.353.248 3.24.738.888.492 1.608 1.152 2.16 1.98s.954 1.77 1.206 2.826.378 2.148.378 3.275c0 1.08-.126 2.131-.378 3.15-.252 1.018-.654 1.938-1.206 2.754-.552.814-1.272 1.471-2.16 1.961-.888.492-1.968.736-3.24.736-1.271 0-2.353-.244-3.24-.736-.888-.49-1.607-1.146-2.159-1.961-.553-.816-.954-1.734-1.206-2.754-.252-1.021-.378-2.07-.378-3.15 0-1.127.126-2.218.378-3.275zm-416.407-98.92h51.228v-20.984h-51.228v-28.38h59.14v-22.704h-86.344v123.007h27.204v-50.939zm-7.166 92.402c-1.044-1.055-2.281-1.848-3.708-2.375-1.428-.527-2.97-.793-4.626-.793h-11.088v25.705h11.088c1.968 0 3.678-.33 5.13-.99s2.664-1.566 3.636-2.719c.972-1.15 1.698-2.521 2.178-4.104.479-1.584.72-3.312.72-5.184 0-2.137-.294-3.996-.882-5.58-.589-1.583-1.404-2.903-2.448-3.96zm-2.862 13.682c-.36.984-.84 1.781-1.44 2.395-.6.611-1.284 1.049-2.052 1.312-.768.266-1.56.396-2.376.396h-5.04v-16.201h4.032c1.392 0 2.562.199 3.51.596.948.396 1.71.965 2.286 1.709.576.744.99 1.639 1.242 2.684.252 1.043.378 2.213.378 3.51 0 1.415-.18 2.615-.54 3.599zm26.28-.863c0 1.92-.384 3.328-1.152 4.229-.769.9-2.16 1.35-4.176 1.35-1.152 0-2.07-.16-2.754-.484s-1.218-.744-1.602-1.26c-.384-.518-.636-1.111-.756-1.783s-.18-1.355-.18-2.051v-15.984h-5.652v15.984c0 3.504.954 6.096 2.862 7.775 1.908 1.68 4.602 2.52 8.082 2.52 3.432 0 6.12-.846 8.064-2.537 1.944-1.693 2.916-4.279 2.916-7.758v-15.984h-5.652v15.983zm24.552 1.691h-.072l-6.012-17.678h-7.956v25.705h5.292v-18.037h.072l6.3 18.037h4.356l6.3-18.217h.072v18.217h5.292v-25.705h-7.956l-5.688 17.678zm360.152-78.678h-67.02v-30.1h59.911v-21.184h-59.911v-26.115h65.644v-22.903h-91.648v123.007h93.024v-22.705zm-327.5 78.678h-.072l-6.012-17.678h-7.956v25.705h5.292v-18.037h.072l6.3 18.037h4.356l6.3-18.217h.072v18.217h5.292v-25.705h-7.956l-5.688 17.678zm371.696-.252l3.239-3.277 7.74 11.557h7.092l-11.016-15.551 10.044-10.152h-7.056l-10.044 10.656v-10.656h-5.652v25.703h5.652v-8.28zm137.724-55.721l9.631-27.949h45.926l9.287 27.949h28.035l-45.924-123.007h-27.691l-46.44 123.007h27.176zm32.68-92.537h.344l15.48 44.465h-31.82l15.996-44.465zm81.527 76.885c5.16 5.734 11.494 10.233 19.006 13.502 7.51 3.27 15.967 4.902 25.371 4.902 5.961 0 11.867-1.234 17.715-3.697 5.848-2.465 11.18-6.795 15.996-12.986l2.752 13.932h17.201v-66.993h-51.602v20.124h27.178c-.805 8.602-3.643 15.766-8.516 20.295-4.875 4.53-11.783 6.795-20.727 6.795-6.078 0-11.238-1.177-15.48-3.527-4.242-2.348-7.684-5.475-10.318-9.373-2.641-3.896-4.559-8.283-5.764-13.158-1.203-4.873-1.805-9.891-1.805-15.051 0-5.388.602-10.604 1.805-15.651 1.205-5.044 3.123-9.546 5.764-13.502 2.637-3.956 6.076-7.108 10.318-9.46 4.242-2.35 9.402-3.525 15.48-3.525 6.537 0 12.098 1.719 16.684 5.159 4.586 3.44 7.684 9 9.289 15.88h25.799c-.688-6.992-2.58-13.584-5.676-18.976-3.096-5.389-7.025-9.917-11.781-13.588-4.76-3.669-10.092-6.45-15.996-8.343-5.906-1.892-12.012-2.838-18.316-2.838-9.404 0-17.861 1.664-25.371 4.988-7.512 3.327-13.846 7.912-19.006 13.76-5.16 5.849-9.115 12.701-11.867 20.555-2.752 7.855-4.129 16.369-4.129 25.541 0 8.946 1.377 17.288 4.129 25.028 2.752 7.736 6.707 14.475 11.867 20.207zm212.906-7.252h-66.021v-30.101h59.113v-20.984h-59.113v-25.916h65.045v-23.102h-92.049v123.007h93.023v-22.904h.002zm-421.709 82.512c-.504.24-1.043.402-1.619.486s-1.117.127-1.621.127c-.744 0-1.463-.092-2.16-.271-.695-.182-1.301-.455-1.816-.828-.518-.371-.932-.857-1.242-1.457-.312-.602-.469-1.332-.469-2.197h-5.473c-.023 1.584.264 2.953.865 4.105.6 1.15 1.408 2.1 2.43 2.844s2.195 1.291 3.527 1.639c1.332.346 2.707.521 4.123.521 1.752 0 3.293-.205 4.625-.613 1.332-.406 2.447-.979 3.348-1.709.9-.732 1.578-1.604 2.035-2.609.455-1.008.684-2.102.684-3.275 0-1.441-.307-2.623-.918-3.547s-1.338-1.662-2.178-2.215c-.84-.551-1.688-.953-2.539-1.205-.85-.252-1.518-.426-1.998-.521-1.605-.408-2.91-.744-3.904-1.008-.996-.266-1.775-.529-2.342-.793-.562-.264-.939-.553-1.133-.863-.193-.312-.289-.721-.289-1.225 0-.553.121-1.008.361-1.367.238-.361.545-.66.918-.9.371-.24.785-.408 1.242-.504.455-.096.91-.145 1.367-.145.695 0 1.338.061 1.926.18.588.121 1.109.324 1.564.613.457.287.822.684 1.1 1.188.275.504.438 1.141.484 1.906h5.475c0-1.486-.283-2.754-.848-3.797-.562-1.045-1.326-1.902-2.285-2.574-.961-.672-2.059-1.158-3.295-1.459-1.236-.299-2.525-.449-3.869-.449-1.152 0-2.305.156-3.455.469-1.152.312-2.186.791-3.098 1.439s-1.65 1.457-2.215 2.43c-.562.973-.846 2.119-.846 3.438 0 1.178.223 2.18.666 3.006.443.828 1.025 1.52 1.746 2.07s1.535 1.004 2.447 1.352 1.85.641 2.809.881c.936.266 1.859.504 2.771.721s1.729.469 2.447.756c.721.289 1.303.648 1.746 1.08.445.432.666.996.666 1.691 0 .648-.168 1.184-.504 1.604s-.752.747-1.256.985zm27.432-20.879c-1.561-.695-3.336-1.045-5.328-1.045-1.969 0-3.738.35-5.311 1.045s-2.896 1.654-3.979 2.879c-1.08 1.225-1.908 2.658-2.482 4.303-.576 1.645-.863 3.426-.863 5.346 0 1.873.287 3.619.863 5.238.574 1.621 1.402 3.029 2.482 4.23 1.08 1.199 2.406 2.143 3.979 2.824 1.572.686 3.342 1.027 5.311 1.027 1.992 0 3.77-.344 5.328-1.027 1.561-.684 2.881-1.625 3.961-2.824 1.08-1.201 1.908-2.609 2.482-4.23.576-1.619.863-3.365.863-5.238 0-1.92-.287-3.701-.863-5.346-.574-1.645-1.402-3.078-2.482-4.303s-2.401-2.184-3.961-2.879zm1.277 15.678c-.252 1.02-.654 1.938-1.205 2.754-.553.816-1.271 1.471-2.16 1.963s-1.969.736-3.24.736-2.352-.244-3.24-.736c-.887-.492-1.607-1.146-2.158-1.963-.553-.816-.955-1.734-1.207-2.754s-.377-2.07-.377-3.15c0-1.127.125-2.219.377-3.275.252-1.055.654-1.998 1.207-2.824.551-.828 1.271-1.488 2.158-1.98.889-.492 1.969-.738 3.24-.738s2.354.246 3.24.738c.889.492 1.607 1.152 2.16 1.98.551.826.953 1.77 1.205 2.824.252 1.057.379 2.148.379 3.275 0 1.079-.127 2.13-.379 3.15zm125.317-6.498c.588-.863.883-1.943.883-3.24 0-1.199-.197-2.207-.594-3.023-.396-.814-.955-1.471-1.676-1.963-.719-.49-1.584-.846-2.592-1.061-1.008-.217-2.123-.324-3.348-.324h-12.098v25.703h12.457c1.152 0 2.273-.145 3.365-.432s2.064-.732 2.916-1.332 1.531-1.373 2.035-2.322c.504-.947.756-2.07.756-3.365 0-1.607-.391-2.982-1.17-4.123-.781-1.139-1.963-1.938-3.547-2.393 1.155-.553 2.025-1.262 2.613-2.125zm-13.77-5.221h5.291c.504 0 .99.043 1.459.127.467.084.881.232 1.242.449.359.217.646.518.863.9.215.385.322.877.322 1.477 0 1.08-.322 1.859-.971 2.34s-1.477.721-2.484.721h-5.725v-6.014h.003zm9.881 15.191c-.229.434-.533.773-.918 1.027-.383.252-.828.432-1.332.539s-1.031.16-1.584.16h-6.047v-7.055h6.154c1.225 0 2.209.281 2.953.846.742.564 1.115 1.506 1.115 2.826.003.675-.113 1.228-.341 1.657zm-144.41-101.912h27.98c7.682 0 14.217-1.117 19.607-3.354 5.389-2.236 9.773-5.188 13.158-8.858 3.381-3.668 5.848-7.883 7.395-12.642 1.551-4.757 2.322-9.603 2.322-14.534 0-5.045-.771-9.917-2.322-14.62-1.547-4.7-4.014-8.885-7.395-12.556-3.385-3.669-7.771-6.822-13.158-9.059-5.391-2.236-11.928-3.354-19.607-3.354h-54.984v123.008h27.004v-44.031zm0-57.791h20.584c3.096 0 6.076.231 8.945.688 2.863.46 5.387 1.349 7.566 2.666 2.178 1.319 3.928 3.182 5.246 5.59 1.316 2.407 1.979 5.563 1.979 9.46 0 3.899-.66 7.052-1.979 9.46-1.318 2.408-3.068 4.272-5.246 5.59-2.18 1.319-4.703 2.209-7.566 2.666-2.869.46-5.85.688-8.945.688h-20.584v-36.808zm-113.69 161.073h-12.528v-20.953h-5.652v25.705h18.18v-4.752zm-52.201-16.202h7.705v20.953h5.652v-20.953h7.703v-4.752h-21.06v4.752zm228.186-1.584c-1.043-1.055-2.279-1.848-3.707-2.375-1.43-.527-2.971-.793-4.627-.793h-11.088v25.705h11.088c1.969 0 3.678-.33 5.131-.99 1.451-.66 2.664-1.566 3.635-2.719.975-1.15 1.699-2.521 2.18-4.104.479-1.584.721-3.312.721-5.184 0-2.137-.295-3.996-.883-5.58-.591-1.583-1.405-2.903-2.45-3.96zm-2.862 13.682c-.359.984-.84 1.781-1.439 2.395-.602.611-1.283 1.049-2.053 1.312-.768.266-1.561.396-2.375.396h-5.041v-16.201h4.031c1.393 0 2.562.199 3.512.596.947.396 1.709.965 2.285 1.709s.99 1.639 1.242 2.684c.252 1.043.377 2.213.377 3.51 0 1.415-.179 2.615-.539 3.599zm26.28-.863c0 1.92-.385 3.328-1.15 4.229-.77.9-2.16 1.35-4.178 1.35-1.15 0-2.068-.16-2.754-.484-.684-.324-1.219-.744-1.602-1.26-.385-.518-.637-1.111-.756-1.783-.121-.672-.182-1.355-.182-2.051v-15.984h-5.65v15.984c0 3.504.953 6.096 2.861 7.775 1.908 1.678 4.602 2.52 8.082 2.52 3.432 0 6.119-.846 8.062-2.537 1.943-1.693 2.916-4.279 2.916-7.758v-15.984h-5.65v15.983h.001zm-259.631-10.442h2.376c0 .889-.168 1.639-.504 2.25s-.96 1.074-1.872 1.387v2.375c.744-.096 1.434-.316 2.07-.666.636-.348 1.182-.785 1.638-1.312.456-.529.81-1.141 1.062-1.836.252-.697.367-1.441.343-2.232v-5.508h-5.112v5.542h-.001zm292.463 1.946h.072v18.215h5.291v-25.703h-7.955l-5.689 17.676h-.07l-6.014-17.676h-7.955v25.703h5.291v-18.035h.072l6.301 18.035h4.355l6.301-18.215zm-354.364-4.323c-1.045-1.055-2.281-1.848-3.709-2.375s-2.97-.793-4.625-.793h-11.088v25.705h11.088c1.967 0 3.678-.33 5.129-.99 1.453-.66 2.664-1.566 3.637-2.719.972-1.152 1.697-2.521 2.178-4.104.479-1.584.721-3.312.721-5.184 0-2.137-.295-3.996-.883-5.58-.589-1.583-1.405-2.903-2.448-3.96zm-2.863 13.682c-.359.984-.84 1.781-1.439 2.395-.602.611-1.283 1.049-2.052 1.312-.769.266-1.56.396-2.376.396h-5.04v-16.201h4.032c1.392 0 2.562.199 3.51.596.947.396 1.71.965 2.286 1.709.575.744.989 1.639 1.241 2.684.252 1.043.379 2.213.379 3.51 0 1.415-.18 2.615-.541 3.599zm54.541.395h-.072l-10.729-17.244h-5.615v25.705h5.291v-17.209h.072l10.692 17.209h5.651v-25.705h-5.291v17.244zm-151.811-12.493h7.704v20.953h5.652v-20.953h7.704v-4.752h-21.06v4.752zm29.663 9.903h12.456v-4.393h-12.456v-5.51h13.572v-4.752h-19.224v25.705h19.512v-4.752h-13.86v-6.298zm-44.711-2.342c-.84-.551-1.686-.953-2.538-1.205-.853-.252-1.518-.426-1.998-.521-1.608-.408-2.911-.744-3.906-1.008-.996-.266-1.776-.529-2.34-.793s-.942-.553-1.134-.863c-.192-.312-.288-.721-.288-1.225 0-.553.12-1.008.36-1.367.24-.361.545-.66.918-.9.372-.24.786-.408 1.242-.504s.912-.145 1.368-.145c.696 0 1.338.061 1.926.18.588.121 1.11.324 1.566.613.456.287.822.684 1.098 1.188.275.504.438 1.141.486 1.906h5.472c0-1.486-.283-2.754-.846-3.797-.564-1.045-1.326-1.902-2.286-2.574s-2.058-1.158-3.294-1.459c-1.236-.299-2.526-.449-3.87-.449-1.152 0-2.304.156-3.456.469s-2.185.791-3.096 1.439c-.913.648-1.65 1.457-2.214 2.43s-.846 2.119-.846 3.438c0 1.178.222 2.18.666 3.006.444.828 1.026 1.52 1.746 2.07.72.553 1.536 1.004 2.448 1.352s1.848.641 2.808.881c.936.266 1.86.504 2.772.721s1.728.469 2.448.756c.72.289 1.301.648 1.746 1.08.444.432.666.996.666 1.691 0 .648-.168 1.184-.504 1.604s-.756.75-1.26.988c-.504.24-1.044.402-1.62.486-.576.084-1.116.127-1.62.127-.744 0-1.464-.092-2.16-.271-.697-.182-1.302-.455-1.818-.828-.516-.371-.93-.857-1.242-1.457-.312-.602-.468-1.332-.468-2.197h-5.472c-.024 1.584.264 2.953.864 4.104.6 1.152 1.41 2.102 2.43 2.846s2.196 1.291 3.528 1.639c1.332.346 2.706.521 4.122.521 1.751 0 3.294-.205 4.626-.613 1.332-.406 2.448-.979 3.348-1.709.9-.732 1.578-1.604 2.034-2.609.456-1.008.684-2.102.684-3.275 0-1.441-.306-2.623-.918-3.547-.612-.928-1.338-1.666-2.178-2.219zm79.307 0c-.84-.551-1.686-.953-2.538-1.205-.853-.252-1.519-.426-1.998-.521-1.608-.408-2.911-.744-3.906-1.008-.996-.266-1.776-.529-2.34-.793s-.942-.553-1.134-.863c-.192-.312-.288-.721-.288-1.225 0-.553.12-1.008.36-1.367.24-.361.545-.66.918-.9.372-.24.786-.408 1.242-.504s.912-.145 1.368-.145c.696 0 1.338.061 1.926.18.587.121 1.11.324 1.566.613.456.287.822.684 1.098 1.188s.438 1.141.486 1.906h5.472c0-1.486-.282-2.754-.846-3.797-.564-1.045-1.327-1.902-2.286-2.574-.96-.672-2.058-1.158-3.294-1.459-1.236-.299-2.526-.449-3.87-.449-1.152 0-2.304.156-3.456.469s-2.184.791-3.096 1.439c-.913.648-1.65 1.457-2.214 2.43s-.846 2.119-.846 3.438c0 1.178.222 2.18.666 3.006.444.828 1.026 1.52 1.746 2.07.72.553 1.536 1.004 2.448 1.352s1.848.641 2.808.881c.936.266 1.859.504 2.772.721.912.217 1.728.469 2.448.756.72.289 1.301.648 1.746 1.08.444.432.666.996.666 1.691 0 .648-.168 1.184-.504 1.604s-.756.75-1.26.988c-.504.24-1.044.402-1.62.486-.576.084-1.116.127-1.62.127-.744 0-1.464-.092-2.16-.271-.696-.182-1.302-.455-1.818-.828-.517-.371-.93-.857-1.242-1.457-.312-.602-.468-1.332-.468-2.197h-5.472c-.024 1.584.264 2.953.864 4.104.6 1.152 1.41 2.102 2.43 2.846s2.196 1.291 3.528 1.639c1.332.346 2.706.521 4.122.521 1.751 0 3.294-.205 4.626-.613 1.332-.406 2.448-.979 3.348-1.709.9-.732 1.578-1.604 2.034-2.609.456-1.008.684-2.102.684-3.275 0-1.441-.306-2.623-.918-3.547-.612-.928-1.338-1.666-2.178-2.219zm-72.863 13.392h5.652v-25.705h-5.652v25.705zm-5-64h27.636l-45.524-123.007h-27.692l-46.44 123.008h27.176l9.632-27.947h45.924l9.288 27.946zm-48.16-48.072l15.996-44.465h.344l15.48 44.465h-31.82zm189.959 89.68c-1.08-1.225-2.399-2.184-3.96-2.879s-3.336-1.045-5.328-1.045c-1.968 0-3.738.35-5.311 1.045-1.571.695-2.897 1.654-3.978 2.879s-1.907 2.658-2.483 4.303-.865 3.426-.865 5.346c0 1.873.289 3.619.865 5.238.576 1.621 1.403 3.029 2.483 4.23 1.08 1.199 2.406 2.143 3.978 2.824 1.572.686 3.343 1.027 5.311 1.027 1.992 0 3.768-.344 5.328-1.027s2.88-1.625 3.96-2.824c1.08-1.201 1.907-2.609 2.483-4.23.576-1.619.865-3.365.865-5.238 0-1.92-.289-3.701-.865-5.346s-1.403-3.079-2.483-4.303zm-2.683 12.799c-.252 1.02-.654 1.938-1.207 2.754-.551.816-1.271 1.471-2.16 1.963-.887.492-1.967.736-3.239.736s-2.353-.244-3.24-.736-1.608-1.146-2.159-1.963c-.553-.816-.955-1.734-1.207-2.754s-.377-2.07-.377-3.15c0-1.127.125-2.219.377-3.275.252-1.055.654-1.998 1.207-2.824.551-.828 1.271-1.488 2.159-1.98s1.968-.738 3.24-.738 2.353.246 3.239.738c.888.492 1.607 1.152 2.16 1.98.553.826.955 1.77 1.207 2.824.252 1.057.377 2.148.377 3.275 0 1.079-.125 2.13-.377 3.15zm-39.701-128.71l47.989-48.704h-33.713l-48.188 51.111v-51.111h-27.204v123.007h27.204v-39.56l15.68-15.651 36.98 55.212h34.484l-53.232-74.304zm-142.222 122.753l-6.012-10.152h-6.336l9.432 15.695v10.008h5.652v-9.863l9.54-15.84h-6.3l-5.976 10.152z"/></svg>