<svg xmlns="http://www.w3.org/2000/svg" width="1200" height="320" viewBox="0 0 1200 320"><path fill="#fff" d="M500.885 274.957c0 1.92-.384 3.33-1.152 4.23-.769.898-2.159 1.35-4.176 1.35-1.151 0-2.069-.162-2.754-.486s-1.218-.744-1.603-1.26c-.383-.516-.635-1.109-.756-1.783-.121-.672-.18-1.354-.18-2.051v-15.984h-5.652v15.984c0 3.504.955 6.096 2.862 7.775 1.908 1.68 4.603 2.52 8.082 2.52 3.432 0 6.12-.846 8.064-2.537 1.943-1.691 2.916-4.277 2.916-7.758v-15.984h-5.652v15.984h.001zm-205.126-1.332h12.456v-4.391h-12.456v-5.507h13.572v-4.752h-19.224v25.703h19.512v-4.752h-13.86zm-43.237 2.592h-.071l-10.728-17.242h-5.616v25.703h5.292v-17.207h.072l10.692 17.207h5.652v-25.703h-5.293zm22.213-1.223h5.688c-.168 1.799-.762 3.174-1.782 4.121-1.02.949-2.466 1.422-4.338 1.422-1.272 0-2.353-.246-3.24-.738-.888-.49-1.608-1.145-2.16-1.961-.552-.816-.954-1.734-1.206-2.754s-.378-2.07-.378-3.15c0-1.127.126-2.219.378-3.275s.654-1.998 1.206-2.826c.552-.828 1.271-1.488 2.16-1.98.888-.49 1.968-.738 3.24-.738 1.368 0 2.532.361 3.492 1.08.959.721 1.607 1.801 1.944 3.24h5.4c-.144-1.463-.54-2.76-1.188-3.889-.648-1.127-1.47-2.074-2.466-2.844-.996-.768-2.112-1.35-3.348-1.746-1.236-.395-2.514-.594-3.834-.594-1.968 0-3.738.348-5.31 1.045-1.572.695-2.898 1.656-3.978 2.879-1.08 1.225-1.908 2.66-2.484 4.303-.576 1.645-.864 3.426-.864 5.346 0 1.873.288 3.617.864 5.238.576 1.619 1.404 3.029 2.484 4.23 1.08 1.199 2.406 2.141 3.978 2.826 1.572.684 3.342 1.025 5.31 1.025 1.248 0 2.484-.258 3.708-.773 1.224-.518 2.34-1.422 3.348-2.719l.576 2.916h3.6v-13.896h-10.8v4.212zm101.735 1.223h-.073l-10.727-17.242h-5.616v25.703h5.292v-17.207h.071l10.693 17.207h5.652v-25.703h-5.292zm46.943-17.242h5.652v25.703h-5.652zm45.936 16.019h5.688c-.168 1.799-.762 3.174-1.781 4.121-1.021.949-2.467 1.422-4.338 1.422-1.272 0-2.354-.246-3.24-.738-.889-.49-1.607-1.145-2.16-1.961-.552-.816-.954-1.734-1.206-2.754s-.378-2.07-.378-3.15c0-1.127.126-2.219.378-3.275s.654-1.998 1.206-2.826c.553-.828 1.271-1.488 2.16-1.98.888-.49 1.968-.738 3.24-.738 1.367 0 2.531.361 3.492 1.08.959.721 1.607 1.801 1.943 3.24h5.4c-.145-1.463-.54-2.76-1.188-3.889-.647-1.127-1.471-2.074-2.466-2.844-.996-.768-2.111-1.35-3.348-1.746-1.236-.395-2.516-.594-3.834-.594-1.969 0-3.739.348-5.312 1.045-1.571.695-2.897 1.656-3.978 2.879-1.081 1.225-1.908 2.66-2.484 4.303-.576 1.645-.863 3.426-.863 5.346 0 1.873.287 3.617.863 5.238.576 1.619 1.404 3.029 2.484 4.23 1.08 1.199 2.406 2.141 3.978 2.826 1.572.684 3.343 1.025 5.312 1.025 1.248 0 2.484-.258 3.707-.773 1.225-.518 2.341-1.422 3.349-2.719l.576 2.916h3.6v-13.896h-10.8v4.212zm-18.397-3.709c-.84-.551-1.687-.953-2.537-1.205-.853-.252-1.519-.426-1.999-.521-1.608-.408-2.91-.744-3.906-1.01-.996-.264-1.776-.527-2.34-.791s-.942-.553-1.134-.863c-.192-.312-.288-.721-.288-1.225 0-.553.12-1.008.36-1.369.239-.359.545-.658.918-.898.372-.24.786-.408 1.242-.504s.912-.145 1.368-.145c.696 0 1.337.061 1.926.18.587.121 1.109.324 1.566.611.456.289.822.686 1.098 1.189.276.504.438 1.139.486 1.908h5.472c0-1.488-.281-2.754-.846-3.799s-1.327-1.902-2.286-2.574c-.96-.67-2.058-1.156-3.294-1.457s-2.526-.451-3.87-.451c-1.152 0-2.304.156-3.456.469s-2.184.791-3.096 1.439c-.913.648-1.65 1.459-2.214 2.43-.564.973-.846 2.119-.846 3.439 0 1.176.222 2.178.666 3.006.444.828 1.026 1.518 1.746 2.068.72.553 1.535 1.002 2.448 1.352.912.348 1.848.641 2.808.881.936.264 1.859.504 2.772.721.912.215 1.728.467 2.448.756.72.287 1.302.648 1.746 1.08s.667.996.667 1.691c0 .648-.168 1.182-.504 1.602-.336.42-.757.75-1.261.99s-1.044.402-1.62.486c-.576.084-1.116.127-1.62.127-.744 0-1.464-.09-2.16-.271-.696-.18-1.302-.455-1.818-.828-.516-.371-.93-.857-1.242-1.457s-.468-1.332-.468-2.195h-5.472c-.024 1.584.264 2.951.864 4.104.6 1.152 1.41 2.1 2.43 2.844s2.196 1.291 3.528 1.639c1.332.346 2.706.521 4.122.521 1.751 0 3.294-.205 4.627-.611 1.331-.408 2.447-.979 3.348-1.711.899-.73 1.578-1.602 2.033-2.609.457-1.008.685-2.1.685-3.277 0-1.439-.306-2.621-.918-3.545s-1.338-1.664-2.179-2.217zm-32.345-5.183c-.588-1.584-1.403-2.902-2.448-3.959-1.044-1.057-2.28-1.85-3.708-2.377s-2.97-.791-4.626-.791h-11.088v25.703h11.088c1.968 0 3.678-.33 5.13-.99 1.452-.66 2.664-1.566 3.636-2.719.972-1.15 1.698-2.52 2.178-4.104.479-1.584.72-3.311.72-5.184 0-2.136-.294-3.995-.882-5.579zm-5.309 9.72c-.36.984-.84 1.781-1.44 2.393-.6.613-1.284 1.051-2.052 1.314-.769.264-1.561.396-2.376.396h-5.04v-16.199h4.032c1.392 0 2.562.197 3.51.594.948.395 1.71.965 2.286 1.709s.99 1.639 1.242 2.682c.252 1.045.378 2.215.378 3.512 0 1.416-.18 2.615-.54 3.599zm-63.864-16.847h5.652v25.703h-5.652zm-14.454 24.388c-.133-.514-.229-1.062-.288-1.637-.061-.576-.103-1.141-.126-1.693-.024-.551-.048-1.031-.072-1.439-.048-.648-.139-1.297-.27-1.943-.132-.648-.342-1.242-.63-1.783-.288-.539-.661-1.008-1.116-1.404-.456-.395-1.032-.688-1.728-.881v-.072c1.44-.576 2.478-1.416 3.114-2.52.635-1.105.954-2.412.954-3.924 0-.984-.175-1.902-.522-2.754-.348-.854-.852-1.604-1.512-2.25-.661-.648-1.453-1.158-2.376-1.531-.924-.371-1.962-.557-3.114-.557h-13.86v25.703h5.652v-10.045h5.652c1.416 0 2.436.312 3.06.938s1.032 1.607 1.224 2.951c.144 1.033.252 2.111.324 3.24s.264 2.102.576 2.916h5.652c-.264-.36-.461-.799-.594-1.315zm-6.785-13.625c-.648.576-1.62.863-2.916.863h-6.192v-7.236h6.192c1.296 0 2.268.283 2.916.846.648.564.972 1.471.972 2.719-.001 1.297-.324 2.232-.972 2.808zm-103.932-10.763h-5.796l-9.72 25.703h5.688l2.016-5.725h9.612l1.944 5.725h5.868l-9.612-25.703zm-6.336 15.767l3.348-9.432h.072l3.24 9.432h-6.66zm102.164-60.351c-.633-2.469-1.093-5.082-1.378-7.838-.288-2.756-.49-5.453-.604-8.098-.116-2.639-.231-4.936-.345-6.889-.231-3.102-.662-6.203-1.292-9.303-.633-3.102-1.637-5.943-3.016-8.527-1.379-2.584-3.162-4.824-5.343-6.718-2.184-1.896-4.941-3.3-8.272-4.222v-.344c6.894-2.755 11.862-6.774 14.907-12.059 3.043-5.281 4.567-11.542 4.567-18.776 0-4.708-.835-9.101-2.499-13.178-1.667-4.075-4.08-7.666-7.238-10.767-3.161-3.101-6.953-5.539-11.374-7.321-4.424-1.779-9.393-2.67-14.907-2.67h-66.35v122.999h27.057v-48.062h27.057c6.778 0 11.66 1.494 14.649 4.479 2.986 2.987 4.938 7.694 5.859 14.126.69 4.938 1.207 10.105 1.552 15.504.345 5.398 1.263 10.049 2.757 13.953h27.057c-1.266-1.725-2.213-3.819-2.844-6.289zm-32.786-64.895c-3.085 2.788-7.714 4.181-13.886 4.181h-29.486v-35.01h29.486c6.172 0 10.801 1.366 13.886 4.093 3.086 2.729 4.629 7.114 4.629 13.15 0 6.271-1.543 10.798-4.629 13.586zm344.091-51.845h-27.673l-46.572 122.972h27.157l9.789-27.84h45.894l9.28 27.842h28.018l-45.893-122.974zm-30.58 75.994l16.313-45.721h.344l15.798 45.721h-32.455zm112.067-35.4h.672l51.049 82.544h27.478v-123.138h-25.267v82.388h-.836l-51.221-82.388h-26.814v122.972h24.939zm-594.638 120.73h-5.796l-9.72 25.703h5.688l2.016-5.725h9.612l1.944 5.725h5.868l-9.612-25.703zm-6.337 15.767l3.348-9.432h.072l3.24 9.432h-6.66zm45.108-3.457c-.84-.551-1.686-.953-2.538-1.205s-1.518-.426-1.998-.521c-1.608-.408-2.911-.744-3.906-1.01-.996-.264-1.776-.527-2.34-.791s-.942-.553-1.134-.863c-.192-.312-.288-.721-.288-1.225 0-.553.12-1.008.36-1.369.239-.359.545-.658.918-.898.372-.24.786-.408 1.242-.504s.912-.145 1.368-.145c.696 0 1.338.061 1.926.18.588.121 1.11.324 1.566.611.456.289.822.686 1.098 1.189.276.504.438 1.139.486 1.908h5.472c0-1.488-.282-2.754-.846-3.799s-1.327-1.902-2.286-2.574c-.96-.67-2.058-1.156-3.294-1.457s-2.526-.451-3.87-.451c-1.152 0-2.304.156-3.456.469-1.152.312-2.184.791-3.096 1.439-.913.648-1.65 1.459-2.214 2.43-.564.973-.846 2.119-.846 3.439 0 1.176.222 2.178.666 3.006.444.828 1.026 1.518 1.746 2.068.72.553 1.536 1.002 2.448 1.352.912.348 1.848.641 2.808.881.936.264 1.859.504 2.772.721.912.215 1.728.467 2.448.756.72.287 1.302.648 1.746 1.08s.666.996.666 1.691c0 .648-.168 1.182-.504 1.602s-.756.75-1.26.99-1.044.402-1.62.486c-.576.084-1.116.127-1.62.127-.744 0-1.464-.09-2.16-.271-.696-.18-1.302-.455-1.818-.828-.517-.371-.93-.857-1.242-1.457s-.468-1.332-.468-2.195h-5.472c-.024 1.584.264 2.951.864 4.104s1.41 2.1 2.43 2.844 2.196 1.291 3.528 1.639c1.332.346 2.706.521 4.122.521 1.751 0 3.294-.205 4.626-.611 1.332-.408 2.448-.979 3.348-1.711.9-.73 1.578-1.602 2.034-2.609s.684-2.1.684-3.277c0-1.439-.306-2.621-.918-3.545-.612-.926-1.339-1.664-2.178-2.217zm4.428-7.558h7.704v20.951h5.652v-20.951h7.704v-4.752h-21.06zm45.558 19.636c-.133-.514-.229-1.062-.288-1.637-.06-.576-.102-1.141-.126-1.693-.024-.551-.048-1.031-.072-1.439-.048-.648-.139-1.297-.27-1.943-.132-.648-.342-1.242-.63-1.783-.288-.539-.661-1.008-1.116-1.404-.456-.395-1.032-.688-1.728-.881v-.072c1.44-.576 2.478-1.416 3.114-2.52.635-1.105.954-2.412.954-3.924 0-.984-.174-1.902-.522-2.754-.348-.854-.852-1.604-1.512-2.25-.661-.648-1.453-1.158-2.376-1.531-.924-.371-1.962-.557-3.114-.557h-13.86v25.703h5.652v-10.045h5.652c1.416 0 2.436.312 3.06.938s1.032 1.607 1.224 2.951c.144 1.033.252 2.111.324 3.24.072 1.129.264 2.102.576 2.916h5.652c-.265-.36-.462-.799-.594-1.315zm-6.786-13.625c-.648.576-1.62.863-2.916.863h-6.192v-7.236h6.192c1.296 0 2.268.283 2.916.846.648.564.972 1.471.972 2.719 0 1.297-.324 2.232-.972 2.808zm311.18-10.763h5.652v25.703h-5.652zm23.4 21.31c-.504.24-1.044.402-1.62.486s-1.116.127-1.62.127c-.744 0-1.464-.09-2.16-.271-.695-.18-1.302-.455-1.817-.828-.517-.371-.931-.857-1.242-1.457-.312-.6-.468-1.332-.468-2.195h-5.473c-.023 1.584.265 2.951.864 4.104s1.41 2.1 2.43 2.844c1.021.744 2.196 1.291 3.528 1.639 1.332.346 2.706.521 4.122.521 1.752 0 3.294-.205 4.626-.611 1.332-.408 2.448-.979 3.348-1.711.9-.73 1.578-1.602 2.034-2.609s.685-2.1.685-3.277c0-1.439-.307-2.621-.918-3.545-.612-.924-1.339-1.662-2.179-2.215-.84-.551-1.686-.953-2.538-1.205-.852-.252-1.518-.426-1.998-.521-1.607-.408-2.91-.744-3.905-1.01-.996-.264-1.776-.527-2.341-.791-.563-.264-.941-.553-1.134-.863-.191-.312-.288-.721-.288-1.225 0-.553.12-1.008.36-1.369.24-.359.545-.658.918-.898.372-.24.786-.408 1.242-.504.456-.098.912-.145 1.368-.145.695 0 1.338.061 1.926.18.588.121 1.109.324 1.565.611.456.289.822.686 1.099 1.189.275.504.438 1.139.485 1.908h5.473c0-1.488-.282-2.754-.847-3.799-.563-1.045-1.326-1.902-2.285-2.574-.96-.67-2.059-1.156-3.294-1.457-1.236-.301-2.526-.451-3.87-.451-1.152 0-2.305.156-3.456.469-1.152.312-2.185.791-3.097 1.439s-1.649 1.459-2.214 2.43c-.563.973-.846 2.119-.846 3.439 0 1.176.221 2.178.666 3.006.444.828 1.026 1.518 1.746 2.068.72.553 1.536 1.002 2.448 1.352.912.348 1.848.641 2.808.881.937.264 1.859.504 2.772.721.911.215 1.728.467 2.447.756.721.287 1.303.648 1.746 1.08.444.432.666.996.666 1.691 0 .648-.168 1.182-.504 1.602s-.753.748-1.258.988zm-56.354-65.494c3.768 3.051 8.049 5.295 12.846 6.732 4.795 1.438 9.763 2.158 14.901 2.158 9.136 0 16.386-1.41 21.753-4.23 5.366-2.818 9.478-6.326 12.333-10.529 2.854-4.197 4.682-8.715 5.481-13.549.797-4.832 1.199-9.261 1.199-13.291v-84.398h-26.893v83.191c0 2.188-.086 4.461-.257 6.818-.171 2.36-.685 4.547-1.542 6.559-.855 2.016-2.256 3.654-4.196 4.92-1.942 1.268-4.684 1.898-8.222 1.898-3.198 0-5.797-.518-7.793-1.553-2-1.037-3.57-2.443-4.71-4.23-1.144-1.783-1.942-3.939-2.397-6.473-.459-2.529-.687-5.291-.687-8.285v-5.867h-24.322v11.045c0 6.791 1.14 12.574 3.427 17.348 2.283 4.777 5.31 8.689 9.079 11.736zm86.162 48.936v-4.752h-19.224v25.703h19.512v-4.752h-13.861v-6.301h12.456v-4.391h-12.456v-5.507zm-425.721-43.047h27.111v-100.259h36.954v-22.737h-101.019v22.738h36.954zm313.918-86.55c-2.758-7.885-6.723-14.767-11.894-20.639-5.171-5.873-11.492-10.477-18.96-13.817-7.472-3.339-15.975-5.009-25.512-5.009-9.424 0-17.9 1.67-25.425 5.008-7.528 3.341-13.876 7.945-19.047 13.817-5.171 5.872-9.136 12.753-11.894 20.639-2.758 7.888-4.137 16.438-4.137 25.647 0 8.981 1.379 17.356 4.137 25.13 2.758 7.773 6.722 14.537 11.894 20.293 5.171 5.76 11.519 10.277 19.047 13.559 7.525 3.281 16.001 4.922 25.425 4.922 9.537 0 18.04-1.641 25.511-4.922 7.468-3.279 13.79-7.799 18.961-13.557 5.171-5.756 9.135-12.521 11.894-20.293 2.758-7.772 4.137-16.148 4.137-25.131 0-9.21-1.379-17.758-4.137-25.647zm-25.341 40.493c-1.203 4.875-3.124 9.26-5.758 13.158-2.637 3.9-6.075 7.025-10.313 9.373-4.241 2.352-9.397 3.527-15.469 3.527-6.075 0-11.231-1.176-15.469-3.527-4.241-2.348-7.678-5.473-10.313-9.373-2.637-3.898-4.555-8.283-5.758-13.158-1.204-4.873-1.805-9.891-1.805-15.05 0-5.388.602-10.605 1.805-15.652 1.203-5.044 3.121-9.546 5.758-13.502 2.635-3.956 6.072-7.108 10.313-9.46 4.238-2.349 9.394-3.526 15.469-3.526 6.072 0 11.229 1.177 15.469 3.526 4.238 2.352 7.676 5.504 10.313 9.46 2.634 3.956 4.555 8.458 5.758 13.502 1.203 5.047 1.805 10.264 1.805 15.652-.001 5.158-.602 10.177-1.805 15.05z"/></svg>