<svg xmlns="http://www.w3.org/2000/svg" width="1200" height="320" viewBox="0 0 1200 320"><path fill="#fff" d="M576.15 282.527v-9.864l9.539-15.84h-6.3l-5.977 10.151-6.012-10.151h-6.337l9.433 15.696v10.008h5.654zm-47.22-98.733c3.591 4.001 7.998 7.14 13.225 9.421 5.225 2.279 11.108 3.42 17.649 3.42 4.148 0 8.259-.861 12.328-2.58 4.066-1.721 7.777-4.74 11.129-9.061l1.914 9.598h11.968v-46.074h-36.023v14.039h19.031c-.562 6-2.533 10.459-5.924 13.617-3.394 3.161-8.197 4.74-14.423 4.74-4.229 0-7.817-.818-10.77-2.46-2.953-1.64-5.349-3.819-7.183-6.54-1.836-2.719-3.17-5.779-4.008-9.18-.838-3.399-1.257-6.9-1.257-10.5 0-3.76.419-7.398 1.257-10.92.838-3.521 2.172-6.66 4.008-9.42 1.834-2.76 4.229-4.959 7.183-6.601 2.951-1.639 6.541-2.46 10.77-2.46 4.55 0 8.418 1.2 11.609 3.6 3.189 2.4 5.344 6.369 6.461 11.17h17.951c-.479-4.879-1.795-9.567-3.949-13.33-2.154-3.758-4.887-6.917-8.197-9.479-3.311-2.559-7.02-4.5-11.129-5.82-4.108-1.32-8.358-1.98-12.746-1.98-6.541 0-12.426 1.161-17.649 3.48-5.227 2.321-9.634 5.52-13.225 9.6-3.59 4.08-6.343 8.861-8.258 14.34-1.914 5.48-2.872 11.42-2.872 17.82 0 6.24.958 12.06 2.872 17.459 1.915 5.401 4.668 10.101 8.258 14.101zm305.64 0c3.592 4.001 7.998 7.14 13.225 9.421 5.225 2.279 11.109 3.42 17.652 3.42 4.146 0 8.258-.861 12.324-2.58 4.069-1.721 7.778-4.74 11.131-9.061l1.916 9.598h12.336v-46.074h-36.025v14.162h18.662c-.561 6-2.533 10.334-5.924 13.494-3.394 3.161-8.197 4.74-14.42 4.74-4.23 0-7.82-.818-10.771-2.46-2.953-1.64-5.346-3.819-7.182-6.54-1.836-2.719-3.17-5.779-4.008-9.18-.841-3.399-1.259-6.9-1.259-10.5 0-3.76.419-7.398 1.259-10.92.838-3.521 2.172-6.66 4.008-9.42 1.836-2.76 4.229-4.959 7.182-6.601 2.951-1.639 6.541-2.46 10.771-2.46 4.547 0 8.416 1.2 11.606 3.6 3.189 2.4 5.345 6.246 6.463 11.047h18.318c-.479-4.879-2.164-9.444-4.318-13.206-2.151-3.759-4.887-6.918-8.194-9.48-3.312-2.559-7.021-4.5-11.131-5.82-4.11-1.32-8.357-1.98-12.744-1.98-6.543 0-12.429 1.161-17.652 3.48-5.227 2.321-9.633 5.52-13.225 9.6-3.59 4.08-6.342 8.861-8.258 14.34-1.914 5.48-2.871 11.42-2.871 17.82 0 6.24.957 12.06 2.871 17.459 1.917 5.401 4.67 10.101 8.258 14.101zm-416.325-5.289h-42.016v-69.963h-19.159v85.927h61.174l.001-15.964zm204.093 98.136c-.385-.516-.637-1.108-.756-1.781-.121-.672-.18-1.354-.18-2.053v-15.982h-5.652v15.982c0 3.504.953 6.098 2.861 7.776 1.908 1.681 4.602 2.521 8.082 2.521 3.432 0 6.119-.846 8.063-2.539 1.943-1.69 2.916-4.276 2.916-7.758v-15.982h-5.651v15.982c0 1.92-.386 3.33-1.152 4.229-.77.899-2.16 1.351-4.176 1.351-1.152 0-2.07-.162-2.754-.486-.684-.324-1.218-.744-1.601-1.26zm-330.218-82.049h19.035v-32.758l31.836-53.292h-20.942l-19.866 34.332-19.985-34.332h-21.062l30.984 52.812v33.238zm-34.977-16.065l-46 .016v-20.016h42v-15h-42v-19h45v-16h-63v86h64v-16zm271.597 81.608c-1.08 1.225-1.908 2.659-2.483 4.303-.575 1.645-.864 3.426-.864 5.347 0 1.872.289 3.618.864 5.237s1.403 3.029 2.483 4.229c1.08 1.199 2.404 2.142 3.978 2.825 1.572.686 3.343 1.025 5.312 1.025 1.247 0 2.482-.259 3.708-.773 1.224-.516 2.34-1.422 3.348-2.719l.576 2.916h3.602v-13.895h-10.804v4.212h5.688c-.168 1.801-.763 3.174-1.78 4.123-1.021.947-2.467 1.422-4.338 1.422-1.272 0-2.354-.246-3.24-.738-.89-.491-1.607-1.146-2.16-1.963-.553-.814-.953-1.732-1.205-2.754-.253-1.02-.379-2.068-.379-3.148 0-1.127.126-2.221.379-3.276.252-1.056.652-1.998 1.205-2.825.553-.828 1.271-1.488 2.16-1.979.888-.491 1.968-.738 3.24-.738 1.366 0 2.53.36 3.491 1.08.959.72 1.606 1.8 1.942 3.24h5.4c-.146-1.464-.54-2.759-1.188-3.888-.646-1.129-1.471-2.076-2.467-2.845s-2.11-1.351-3.348-1.745c-1.237-.396-2.516-.596-3.834-.596-1.97 0-3.738.35-5.312 1.044-1.568.695-2.894 1.655-3.974 2.879zm227.326-122.781h.237l35.543 57.238h19.281v-86.05h-18.084v57.972h-.24l-35.661-57.972h-18.914v86.05h17.838v-57.238zm-33.861-28.812h-19.158v86.05h19.158v-86.05zm-111.062 166.479c.576-1.621.863-3.367.863-5.238 0-1.92-.287-3.702-.863-5.346-.575-1.646-1.403-3.078-2.483-4.304-1.08-1.224-2.398-2.184-3.959-2.88-1.562-.695-3.336-1.044-5.328-1.044-1.967 0-3.738.349-5.311 1.044-1.57.696-2.896 1.656-3.979 2.88-1.08 1.226-1.908 2.659-2.482 4.304-.575 1.644-.862 3.426-.862 5.346 0 1.871.287 3.617.862 5.238.574 1.619 1.402 3.028 2.482 4.229 1.08 1.199 2.406 2.143 3.979 2.825 1.571.687 3.344 1.024 5.311 1.024 1.992 0 3.768-.342 5.328-1.024 1.56-.683 2.879-1.626 3.959-2.825 1.078-1.199 1.906-2.609 2.483-4.229zm-5.166-2.087c-.252 1.021-.653 1.938-1.206 2.754-.554.815-1.271 1.471-2.158 1.961-.89.492-1.97.738-3.24.738s-2.352-.246-3.238-.738c-.889-.49-1.608-1.146-2.159-1.961-.554-.815-.955-1.733-1.207-2.754s-.377-2.07-.377-3.149c0-1.127.125-2.22.377-3.275s.653-1.997 1.207-2.825c.551-.828 1.271-1.488 2.159-1.98.888-.491 1.968-.738 3.238-.738s2.354.247 3.24.738c.887.492 1.604 1.152 2.158 1.98.553.828.954 1.771 1.206 2.825.253 1.058.378 2.147.378 3.275-.001 1.078-.126 2.128-.378 3.149zm70.029-78.342h12.213v-46.074h-36.022v14.162h18.785c-.562 6-2.533 10.334-5.925 13.494-3.393 3.161-8.196 4.74-14.422 4.74-4.229 0-7.817-.818-10.77-2.46-2.953-1.64-5.349-3.819-7.183-6.54-1.836-2.719-3.172-5.779-4.01-9.18-.838-3.399-1.256-6.9-1.256-10.5 0-3.76.418-7.398 1.256-10.92.838-3.521 2.174-6.66 4.01-9.42 1.834-2.76 4.229-4.959 7.183-6.601 2.949-1.639 6.541-2.46 10.77-2.46 4.549 0 8.418 1.2 11.609 3.6 3.188 2.4 5.344 6.369 6.463 11.17l17.949.123c-.479-4.879-1.795-9.69-3.949-13.453-2.154-3.758-4.887-6.917-8.197-9.479-3.311-2.559-7.02-4.5-11.129-5.82-4.109-1.32-8.359-1.98-12.746-1.98-6.543 0-12.428 1.161-17.649 3.48-5.228 2.321-9.636 5.52-13.226 9.6-3.59 4.08-6.344 8.861-8.258 14.34-1.914 5.48-2.871 11.42-2.871 17.82 0 6.24.957 12.06 2.871 17.459s4.668 10.102 8.258 14.101c3.59 4.001 7.998 7.14 13.226 9.421 5.225 2.279 11.106 3.42 17.649 3.42 4.148 0 8.258-.861 12.326-2.58 4.07-1.721 7.779-4.74 11.131-9.061l1.914 9.598zm-554.46 74.543c-.84-.552-1.686-.953-2.538-1.205-.853-.252-1.519-.427-1.998-.521-1.608-.408-2.911-.744-3.906-1.008-.996-.266-1.776-.528-2.34-.793-.564-.264-.942-.553-1.134-.863-.192-.311-.288-.721-.288-1.225 0-.553.12-1.008.36-1.367.24-.36.545-.66.918-.9.372-.238.786-.407 1.242-.504.456-.096.912-.145 1.368-.145.696 0 1.338.061 1.926.181.587.12 1.11.323 1.566.61.456.289.822.686 1.098 1.188.276.503.438 1.14.486 1.907h5.472c0-1.487-.282-2.754-.846-3.797-.564-1.045-1.327-1.902-2.286-2.574-.96-.672-2.058-1.157-3.294-1.458-1.236-.3-2.526-.45-3.87-.45-1.152 0-2.304.156-3.456.469-1.152.312-2.184.791-3.096 1.439-.913.648-1.65 1.458-2.214 2.43-.564.973-.846 2.119-.846 3.438 0 1.177.222 2.179.666 3.006.444.828 1.026 1.52 1.746 2.07.72.553 1.536 1.002 2.448 1.351s1.848.642 2.808.882c.936.264 1.859.504 2.772.721.912.217 1.728.469 2.448.756.72.287 1.301.647 1.746 1.08.444.432.666.996.666 1.691 0 .648-.168 1.182-.504 1.602-.336.422-.756.75-1.26.99s-1.044.402-1.62.486c-.576.084-1.116.126-1.62.126-.744 0-1.464-.091-2.16-.271-.696-.181-1.302-.455-1.818-.828-.516-.371-.93-.857-1.242-1.457-.312-.601-.468-1.332-.468-2.196h-5.473c-.024 1.584.264 2.952.864 4.104s1.41 2.101 2.43 2.845 2.196 1.291 3.528 1.639 2.706.521 4.122.521c1.751 0 3.294-.205 4.626-.613 1.332-.406 2.448-.978 3.348-1.709.9-.73 1.578-1.603 2.034-2.609.456-1.009.684-2.102.684-3.277 0-1.438-.306-2.621-.918-3.545-.612-.926-1.338-1.664-2.177-2.217zm136.583-9c-1.08-1.224-2.4-2.184-3.96-2.88-1.561-.696-3.337-1.044-5.328-1.044-1.968 0-3.738.348-5.31 1.044-1.572.696-2.898 1.656-3.979 2.88-1.081 1.225-1.908 2.659-2.484 4.303-.576 1.645-.863 3.426-.863 5.347 0 1.872.287 3.618.863 5.237.576 1.619 1.404 3.029 2.484 4.229 1.08 1.199 2.406 2.142 3.979 2.825 1.571.686 3.342 1.025 5.31 1.025 1.991 0 3.768-.343 5.328-1.025 1.56-.684 2.88-1.626 3.96-2.825 1.08-1.2 1.908-2.61 2.484-4.229.575-1.619.863-3.365.863-5.237 0-1.919-.288-3.702-.863-5.347-.575-1.645-1.404-3.079-2.484-4.303zm-2.682 12.799c-.252 1.021-.654 1.938-1.207 2.754-.552.815-1.271 1.471-2.16 1.961-.888.492-1.968.738-3.239.738-1.272 0-2.353-.246-3.24-.738-.888-.49-1.608-1.146-2.159-1.961-.553-.815-.955-1.733-1.207-2.754s-.378-2.07-.378-3.149c0-1.127.126-2.22.378-3.275s.654-1.997 1.207-2.825c.551-.828 1.271-1.488 2.159-1.98.888-.491 1.968-.738 3.24-.738 1.271 0 2.352.247 3.239.738.889.492 1.608 1.152 2.16 1.98.553.828.955 1.771 1.207 2.825.252 1.058.377 2.147.377 3.275 0 1.078-.125 2.128-.377 3.149zm29.303-12.943c-1.043-1.056-2.279-1.849-3.707-2.376-1.429-.527-2.971-.792-4.627-.792h-11.088v25.704h11.088c1.969 0 3.678-.33 5.131-.99 1.451-.66 2.664-1.566 3.636-2.719.972-1.151 1.698-2.521 2.179-4.104.479-1.584.719-3.312.719-5.184 0-2.137-.293-3.996-.881-5.58-.59-1.583-1.405-2.903-2.45-3.959zm-2.861 13.68c-.359.983-.84 1.782-1.439 2.394-.601.613-1.285 1.052-2.053 1.314-.768.264-1.561.396-2.376.396h-5.04v-16.2h4.032c1.392 0 2.562.198 3.51.594.948.396 1.71.966 2.286 1.71s.99 1.639 1.242 2.682c.252 1.045.378 2.215.378 3.512 0 1.413-.18 2.615-.54 3.598zm34.092-11.304h2.376c0 .888-.169 1.638-.504 2.25-.337.611-.96 1.074-1.872 1.386v2.376c.743-.096 1.434-.318 2.07-.666.635-.348 1.182-.785 1.638-1.312.456-.528.81-1.141 1.062-1.838.252-.694.365-1.438.342-2.23v-5.508h-5.111l-.001 5.542zm-87.191 6.192c1.152-.551 2.021-1.26 2.609-2.123s.883-1.943.883-3.24c0-1.199-.198-2.207-.594-3.023-.396-.814-.955-1.47-1.675-1.962-.72-.492-1.584-.846-2.592-1.062-1.008-.215-2.124-.323-3.349-.323h-12.096v25.704h12.457c1.151 0 2.273-.146 3.365-.432 1.092-.289 2.064-.732 2.916-1.332.852-.602 1.53-1.375 2.034-2.322.504-.948.756-2.07.756-3.366 0-1.606-.391-2.981-1.17-4.122-.779-1.144-1.96-1.94-3.544-2.397zm-11.161-7.344h5.292c.504 0 .99.043 1.458.127.468.084.882.233 1.242.449.359.217.648.516.863.9.217.384.324.875.324 1.476 0 1.08-.324 1.86-.972 2.341-.647.479-1.476.719-2.483.719h-5.725l.001-6.012zm9.882 15.192c-.228.433-.534.774-.918 1.026s-.828.432-1.332.539c-.504.107-1.032.161-1.584.161h-6.048v-7.056h6.156c1.224 0 2.207.283 2.951.847.744.563 1.117 1.507 1.117 2.825.001.675-.115 1.226-.342 1.658zm74.07-9.432l-6.012-10.15h-6.336l9.432 15.695v10.008h5.652v-9.863l9.54-15.84h-6.3l-5.976 10.15zm-131.543 7.524h-.072l-6.012-17.677h-7.956v25.705h5.292v-18.036h.072l6.3 18.036h4.356l6.299-18.217h.072v18.217h5.293v-25.705h-7.957l-5.687 17.677zm172.906-5.364c-.841-.552-1.687-.953-2.538-1.205-.851-.252-1.518-.427-1.998-.521-1.607-.408-2.91-.744-3.906-1.008-.996-.266-1.775-.528-2.34-.793-.564-.264-.941-.553-1.134-.863-.192-.312-.288-.721-.288-1.225 0-.553.12-1.008.359-1.367.24-.36.547-.66.919-.9.372-.239.786-.407 1.241-.504.456-.096.912-.145 1.369-.145.695 0 1.337.061 1.926.181.588.12 1.109.323 1.565.61.456.289.821.686 1.099 1.188.275.504.438 1.14.485 1.907h5.472c0-1.487-.281-2.754-.846-3.797-.565-1.045-1.326-1.902-2.285-2.574-.961-.672-2.059-1.157-3.295-1.458-1.236-.3-2.525-.45-3.869-.45-1.152 0-2.305.156-3.457.469-1.151.312-2.184.791-3.096 1.439s-1.65 1.457-2.214 2.43c-.564.973-.846 2.119-.846 3.438 0 1.177.222 2.179.665 3.006.444.828 1.027 1.52 1.746 2.07.721.553 1.536 1.002 2.449 1.351.911.349 1.848.642 2.808.882.936.264 1.859.504 2.772.721.911.217 1.728.469 2.447.756.721.287 1.302.647 1.746 1.08.443.432.666.996.666 1.691 0 .648-.168 1.182-.504 1.602-.336.422-.756.75-1.26.99s-1.045.402-1.621.486c-.575.084-1.115.126-1.619.126-.744 0-1.465-.091-2.16-.271-.696-.181-1.303-.455-1.818-.828-.516-.371-.93-.857-1.242-1.457-.312-.601-.467-1.332-.467-2.197h-5.471c-.024 1.585.264 2.953.864 4.104.599 1.151 1.409 2.101 2.43 2.845s2.196 1.291 3.528 1.639 2.705.521 4.121.521c1.752 0 3.295-.205 4.627-.613 1.332-.406 2.447-.978 3.348-1.709.9-.73 1.578-1.603 2.034-2.609.456-1.009.684-2.102.684-3.277 0-1.438-.306-2.621-.918-3.545s-1.338-1.663-2.178-2.216zm-194.147-9c-1.08-1.224-2.4-2.184-3.96-2.88s-3.336-1.044-5.327-1.044c-1.969 0-3.738.348-5.311 1.044-1.572.696-2.898 1.656-3.978 2.88-1.08 1.225-1.908 2.659-2.484 4.303-.576 1.645-.864 3.426-.864 5.347 0 1.872.288 3.618.864 5.237.576 1.619 1.404 3.029 2.484 4.229 1.08 1.199 2.406 2.142 3.978 2.825 1.572.686 3.342 1.025 5.311 1.025 1.991 0 3.768-.343 5.327-1.025 1.56-.684 2.88-1.626 3.96-2.825 1.08-1.2 1.908-2.61 2.484-4.229.576-1.619.863-3.365.863-5.237 0-1.919-.287-3.702-.863-5.347-.575-1.645-1.404-3.079-2.484-4.303zm-2.682 12.799c-.252 1.021-.654 1.938-1.206 2.754-.553.815-1.272 1.471-2.16 1.961-.888.492-1.968.738-3.239.738-1.273 0-2.354-.246-3.24-.738-.889-.49-1.608-1.146-2.16-1.961-.553-.815-.954-1.733-1.206-2.754-.253-1.021-.378-2.07-.378-3.149 0-1.128.125-2.22.378-3.275.252-1.057.653-1.998 1.206-2.825.552-.828 1.271-1.488 2.16-1.98.887-.491 1.967-.738 3.24-.738 1.271 0 2.352.247 3.239.738.888.492 1.607 1.152 2.16 1.98.552.827.954 1.771 1.206 2.825.252 1.058.378 2.147.378 3.275 0 1.078-.126 2.128-.378 3.149zm48.186-1.459h12.456v-4.392h-12.456v-5.508h13.572v-4.753h-19.224v25.705h19.513v-4.752h-13.86l-.001-6.3zm-12.158-162.948h-24l-32.954 36.027-.046-36.027h-19v86h19l.046-27.414 10.771-10.919 25.729 38.521h23.576l-36.62-51.841 33.498-34.347zm339.397 174v-25.705h-5.292v17.244h-.071l-10.729-17.244h-5.616v25.705h5.292v-17.209h.072l10.689 17.209h5.655zm-32.329 0h5.652v-25.705h-5.652v25.705zm-10.619-15.839h-10.403v-9.863h-5.652v25.703h5.652v-11.088h10.403v11.088h5.651v-25.703h-5.651v9.863zm-79.056-9.866l-9.72 25.705h5.688l2.016-5.726h9.612l1.944 5.726h5.867l-9.611-25.705h-5.796zm-.539 15.77l3.348-9.433h.072l3.24 9.433h-6.66zm12.851-11.017h7.704v20.952h5.651v-20.952h7.705v-4.753h-21.062l.002 4.753zm-26.603-4.753l-4.213 17.713h-.071l-4.392-17.713h-5.293l-4.464 17.496h-.071l-4.068-17.496h-5.652l6.805 25.705h5.724l4.284-17.496h.072l4.355 17.496h5.616l6.911-25.705h-5.543zm63.803-63.607c5.225 2.279 11.108 3.42 17.651 3.42 6.622 0 12.524-1.141 17.712-3.42 5.185-2.281 9.574-5.419 13.164-9.421 3.591-4 6.343-8.7 8.257-14.101 1.916-5.399 2.873-11.219 2.873-17.459 0-6.399-.957-12.34-2.873-17.82-1.914-5.479-4.666-10.26-8.257-14.34-3.59-4.08-7.979-7.279-13.164-9.6-5.188-2.319-11.091-3.48-17.712-3.48-6.543 0-12.428 1.161-17.651 3.48-5.227 2.321-9.634 5.52-13.224 9.6-3.591 4.08-6.344 8.861-8.258 14.34-1.915 5.48-2.872 11.42-2.872 17.82 0 6.24.957 11.691 2.872 17.091 1.914 5.399 4.667 10.47 8.258 14.469 3.591 4.001 7.997 7.14 13.224 9.421zm-4.309-51.901c.838-3.521 2.173-6.66 4.009-9.42 1.835-2.76 4.229-4.959 7.181-6.601 2.951-1.639 6.541-2.46 10.771-2.46 4.229 0 7.817.821 10.771 2.46 2.95 1.642 5.345 3.841 7.181 6.601 1.835 2.76 3.173 5.899 4.011 9.42.837 3.521 1.256 7.16 1.256 10.92 0 3.6-.419 7.101-1.256 10.5-.838 3.399-2.176 6.461-4.011 9.18-1.836 2.721-4.229 4.9-7.181 6.54-2.953 1.642-6.543 2.46-10.771 2.46-4.229 0-7.819-.818-10.771-2.46-2.951-1.64-5.346-3.819-7.181-6.54-1.836-2.719-3.171-5.779-4.009-9.18-.837-3.399-1.257-6.9-1.257-10.5.001-3.759.42-7.399 1.257-10.92zm6.691 135.489c-.973 1.059-2.321 1.584-4.051 1.584-1.271 0-2.352-.246-3.239-.738-.888-.49-1.607-1.146-2.159-1.961-.553-.815-.954-1.733-1.206-2.754s-.378-2.07-.378-3.149c0-1.127.126-2.22.378-3.275s.653-1.997 1.206-2.825c.552-.828 1.271-1.488 2.159-1.98.889-.491 1.969-.738 3.239-.738.696 0 1.362.114 1.998.342.637.229 1.207.547 1.711.955s.924.881 1.26 1.422c.336.539.553 1.133.648 1.781h5.472c-.169-1.488-.575-2.808-1.224-3.96-.648-1.151-1.471-2.118-2.467-2.897s-2.124-1.375-3.385-1.781c-1.261-.408-2.599-.612-4.015-.612-1.968 0-3.738.349-5.31 1.044-1.571.696-2.897 1.656-3.979 2.881s-1.908 2.658-2.483 4.303c-.576 1.644-.863 3.426-.863 5.346 0 1.872.287 3.618.863 5.238.575 1.619 1.403 3.029 2.483 4.229s2.406 2.143 3.979 2.825c1.57.687 3.342 1.024 5.31 1.024 1.584 0 3.037-.238 4.356-.721 1.318-.479 2.472-1.175 3.456-2.088.983-.91 1.774-2.016 2.376-3.312.6-1.295.972-2.746 1.115-4.354h-5.473c-.21 1.723-.806 3.115-1.777 4.171z"/></svg>