<svg xmlns="http://www.w3.org/2000/svg" width="1200" height="320" viewBox="0 0 1200 320"><path fill="#fff" d="M146.51 268.284h-10.404v-10.204h-5.652v26.044h5.652v-11.088h10.404v11.088h5.651v-26.044h-5.651v10.204zm16.271 4.788h12.455v-4.393h-12.455v-5.508h13.572v-5.092h-19.225v26.044h19.512v-4.752h-13.859v-6.299zm166.082 11.052h5.312v-10.79h10.766v-4.223h-10.766v-5.939h12.42v-5.092h-17.73v26.044h-.002zm-195.859-162.947h59.023v-23.019h-86.027v123.124h27.004v-51.214l50.954.314v-21.299h-50.954v-27.906zm89.281 72.126h45.924l9.287 27.821h28.037l-45.926-122.966h-27.691l-46.439 122.966h27.176l9.632-27.821zm23.047-64.716h.345l15.479 44.591h-31.82l15.996-44.591zm114.548 155.537h5.651v-10.79h10.765v-4.223h-10.765v-5.939h12.42v-5.092h-18.071v26.044zm42.604-2.953c-.06-.575-.103-1.14-.125-1.692-.024-.552-.049-1.031-.072-1.439-.049-.648-.139-1.296-.27-1.943-.134-.648-.343-1.242-.632-1.783-.286-.539-.659-1.008-1.114-1.403-.457-.396-1.033-.688-1.729-.882v-.072c1.44-.576 2.479-1.416 3.114-2.52.636-1.104.953-2.412.953-3.925 0-.983-.174-1.901-.521-2.754-.349-.853-.853-1.603-1.513-2.25s-1.452-1.497-2.376-1.87c-.925-.371-1.962-.558-3.113-.558h-13.86v26.044h5.651v-10.044h5.652c1.415 0 2.436.312 3.061.936.623.625 1.031 1.608 1.224 2.952.145 1.032.252 2.112.324 3.24.071 1.128.264 2.101.575 2.916h5.652c-.265-.36-.464-.798-.595-1.313-.129-.517-.225-1.063-.286-1.64zm-6.498-11.987c-.646.576-1.619.864-2.916.864h-6.191v-7.235h6.191c1.297 0 2.27.281 2.916.846.647.564.973 1.47.973 2.718 0 1.294-.324 2.23-.973 2.807zm136.985-71.08h-66.062v-29.941h60.144v-20.984h-60.144v-26h65.002v-23.02h-92.006v122.966h93.065v-23.021h.001zm-295.022 63.626c-1.08-1.224-2.4-2.184-3.961-2.879-1.561-.697-3.336-1.045-5.327-1.045-1.968 0-3.738.348-5.31 1.045-1.572.695-2.898 1.655-3.979 2.879-1.081 1.225-1.908 2.66-2.483 4.303-.576 1.644-.863 3.426-.863 5.346 0 1.872.287 3.618.863 5.238.575 1.619 1.403 3.029 2.483 4.23 1.08 1.199 2.405 2.142 3.979 2.825 1.57.685 3.342 1.026 5.31 1.026 1.991 0 3.769-.342 5.328-1.026 1.56-.684 2.88-1.625 3.96-2.825 1.08-1.201 1.908-2.611 2.484-4.23.574-1.62.862-3.366.862-5.238 0-1.919-.288-3.702-.862-5.346-.576-1.642-1.404-3.077-2.484-4.303zm-2.681 12.799c-.252 1.021-.654 1.938-1.207 2.755-.552.815-1.271 1.47-2.16 1.962-.887.492-1.967.738-3.238.738s-2.354-.246-3.24-.738c-.888-.492-1.607-1.146-2.158-1.962-.554-.816-.955-1.734-1.207-2.755-.252-1.02-.379-2.069-.379-3.149 0-1.127.127-2.219.379-3.276.252-1.056.653-1.998 1.207-2.826.551-.827 1.271-1.487 2.158-1.979.889-.491 1.969-.737 3.24-.737s2.352.246 3.238.737c.89.492 1.608 1.152 2.16 1.979.553.828.955 1.771 1.207 2.826.252 1.058.377 2.148.377 3.276 0 1.079-.125 2.13-.377 3.149zm26.8-3.799c-.84-.551-1.687-.953-2.537-1.205-.854-.252-1.52-.426-1.998-.522-1.608-.407-2.91-.744-3.906-1.008-.996-.265-1.775-.528-2.34-.792s-.941-.553-1.135-.864c-.191-.312-.287-.72-.287-1.224 0-.553.119-1.008.359-1.368.239-.36.545-.66.918-.899.371-.24.785-.408 1.241-.505.456-.096.912-.144 1.368-.144.695 0 1.338.06 1.926.18.588.121 1.11.324 1.566.612s.82.684 1.098 1.188c.276.504.438 1.139.486 1.907h5.472c0-1.487-.282-2.754-.846-3.798s-1.326-1.902-2.286-2.574c-.96-.671-2.059-1.156-3.294-1.458-1.235-.3-2.526-.45-3.87-.45-1.15 0-2.304.156-3.456.469-1.151.312-2.185.791-3.096 1.439-.912.648-1.65 1.458-2.214 2.43-.564.973-.848 2.119-.848 3.438 0 1.176.223 2.179.666 3.006.444.828 1.026 1.519 1.746 2.07.721.552 1.536 1.002 2.448 1.35.912.349 1.849.642 2.808.882.938.265 1.859.504 2.772.721.911.216 1.728.468 2.448.756s1.301.648 1.746 1.08c.442.432.666.996.666 1.691 0 .648-.168 1.183-.504 1.603-.338.42-.756.75-1.262.989-.504.24-1.044.402-1.619.486-.576.084-1.115.127-1.619.127-.744 0-1.465-.091-2.16-.271-.697-.181-1.303-.456-1.818-.828s-.93-.858-1.242-1.458-.468-1.332-.468-2.196h-5.472c-.024 1.584.264 2.952.863 4.104s1.409 2.1 2.43 2.844 2.197 1.291 3.529 1.639c1.332.346 2.705.521 4.121.521 1.752 0 3.295-.204 4.627-.612 1.33-.407 2.446-.978 3.348-1.71.9-.73 1.578-1.602 2.033-2.609.455-1.009.685-2.101.685-3.276 0-1.44-.306-2.622-.918-3.546s-1.335-1.661-2.175-2.215zm59.256-9c-1.08-1.224-2.4-2.184-3.961-2.879-1.561-.697-3.336-1.045-5.327-1.045-1.968 0-3.738.348-5.31 1.045-1.572.695-2.898 1.655-3.979 2.879-1.081 1.225-1.908 2.66-2.483 4.303-.576 1.644-.863 3.426-.863 5.346 0 1.872.287 3.618.863 5.238.575 1.619 1.403 3.029 2.483 4.23 1.08 1.199 2.405 2.142 3.979 2.825 1.57.685 3.342 1.026 5.31 1.026 1.991 0 3.769-.342 5.327-1.026 1.561-.684 2.881-1.625 3.961-2.825 1.08-1.201 1.908-2.611 2.484-4.23.575-1.62.862-3.366.862-5.238 0-1.919-.287-3.702-.862-5.346-.576-1.642-1.404-3.077-2.484-4.303zm-2.681 12.799c-.252 1.021-.654 1.938-1.207 2.755-.552.815-1.271 1.47-2.158 1.962-.889.492-1.969.738-3.24.738s-2.354-.246-3.239-.738c-.889-.492-1.608-1.146-2.159-1.962-.554-.816-.955-1.734-1.207-2.755-.252-1.02-.377-2.069-.377-3.149 0-1.127.125-2.219.377-3.276.252-1.056.653-1.998 1.207-2.826.551-.827 1.271-1.487 2.159-1.979.888-.491 1.968-.737 3.239-.737s2.354.246 3.24.737c.888.492 1.606 1.152 2.158 1.979.553.828.955 1.771 1.207 2.826.252 1.058.377 2.148.377 3.276 0 1.079-.125 2.13-.377 3.149zm-112.608 3.869c-.973 1.058-2.322 1.584-4.051 1.584-1.271 0-2.353-.246-3.239-.737-.888-.492-1.608-1.146-2.16-1.962s-.954-1.734-1.206-2.754c-.252-1.021-.378-2.07-.378-3.15 0-1.127.126-2.219.378-3.275s.654-1.998 1.206-2.826 1.272-1.488 2.16-1.98c.888-.49 1.968-.738 3.239-.738.695 0 1.361.114 1.998.342.637.229 1.207.547 1.711.955s.924.881 1.26 1.422c.336.539.552 1.134.648 1.781h5.472c-.169-1.488-.576-2.808-1.224-3.959-.648-1.152-1.472-2.119-2.468-2.898-.995-.78-2.124-1.374-3.384-1.782s-2.6-.612-4.016-.612c-1.967 0-3.737.348-5.31 1.045-1.571.695-2.897 1.655-3.978 2.879-1.081 1.225-1.908 2.66-2.484 4.303-.576 1.644-.863 3.426-.863 5.346 0 1.872.287 3.618.863 5.238.576 1.619 1.404 3.029 2.484 4.23 1.08 1.199 2.406 2.141 3.978 2.825s3.343 1.026 5.31 1.026c1.584 0 3.037-.24 4.356-.721 1.319-.479 2.472-1.174 3.456-2.088.984-.912 1.775-2.016 2.376-3.312s.972-2.748 1.116-4.356h-5.473c-.21 1.728-.805 3.12-1.777 4.174zm323.968 5.726h5.144v-26.044h-5.144v26.044zm-105.103-186.124h-33.713l-48.146 51.229v-51.07h-27.004v122.966h27.004v-39.56l15.638-15.652 36.979 55.212h33.884l-52.631-74.304 47.989-48.821zm-158.404 165.171h7.705v20.952h5.65v-20.952h7.705v-5.092h-21.062l.002 5.092zm-160.055 0h7.703v20.952h5.652v-20.952h7.704v-5.092h-21.06v5.092zm517.116-70.026h45.926l9.287 27.979h28.193l-46.082-122.966h-27.691l-46.44 122.966h27.176l9.631-27.979zm23.047-64.558h.346l15.479 44.435h-31.818l15.993-44.435zm-233.733 144.485h12.115v-4.393h-12.115v-5.508h13.232v-5.092h-19.056v26.044h19.343v-4.752h-13.52l.001-6.299zm101.267.431h10.765v-4.392h-10.765v-5.94h12.42v-5.092h-17.562v26.044h5.143l-.001-10.62zm-28.618 2.628h-.072l-4.393-18.052h-5.293l-4.463 17.836h-.072l-4.067-17.836h-5.992l7.146 26.044h5.724l4.284-17.496h.072l4.354 17.496h5.616l6.912-26.044h-5.545l-4.211 18.052zm12.516 7.993h5.822v-26.044h-5.822v26.044zm245.964-107.033h28.854c7.682 0 14.217-1.118 19.607-3.354 5.389-2.235 9.773-5.187 13.158-8.857 3.381-3.668 5.533-7.882 7.08-12.643 1.549-4.756 2.32-9.603 2.32-14.533 0-5.044-.771-9.917-2.32-14.62-1.547-4.7-3.699-8.885-7.08-12.556-3.385-3.669-7.771-6.747-13.158-8.982-5.391-2.236-11.928-3.354-19.607-3.354h-54.91v122.932h26.056v-44.033zm0-57.949h21.457c3.096 0 6.076.231 8.943.688 2.865.46 5.389 1.35 7.568 2.666 2.176 1.32 3.926 3.182 5.244 5.59s1.98 5.721 1.98 9.618c0 3.899-.662 7.052-1.98 9.46s-3.068 4.273-5.244 5.59c-2.18 1.32-4.703 2.209-7.568 2.666-2.867.46-5.848.688-8.943.688h-21.457v-36.966zm-307.802 153.93h12.116v-4.393h-12.116v-5.508h13.231v-5.092h-18.544v26.044h18.832v-4.752h-13.521l.002-6.299z"/></svg>