<svg xmlns="http://www.w3.org/2000/svg" width="1200" height="320" viewBox="0 0 1200 320"><path fill="#fff" d="M337.879 255.459l-9.72 25.939h5.688l2.485-6h9l2.086 6h5.868l-9.611-25.939h-5.796zm-.54 16.004l3.349-9.432h.072l3.239 9.432h-6.66zm36.63-13.213c-.708-.768-1.626-1.738-2.754-2.207-1.129-.467-2.496-.701-4.104-.701l-11.778.057v26h5.838v-9.217h5.94c1.607 0 2.975-.232 4.104-.701 1.128-.469 2.046-1.086 2.754-1.854.708-.77 1.225-1.65 1.549-2.646.323-.996.485-2.01.485-3.043 0-1.055-.162-2.076-.485-3.059-.325-.984-.841-1.859-1.549-2.629zm-3.851 7.668c-.276.504-.643.895-1.098 1.17-.457.277-.984.463-1.584.559-.601.096-1.225.145-1.873.145h-4.392v-7.705h4.392c.648 0 1.272.049 1.873.145.6.096 1.127.281 1.584.559.455.275.821.666 1.098 1.17.275.504.414 1.164.414 1.979 0 .814-.138 1.474-.414 1.978zm-55.751-62.623c-.288-2.752-.489-5.445-.603-8.084-.115-2.637-.23-4.93-.344-6.881-.23-3.096-.661-6.191-1.29-9.287-.632-3.098-1.634-5.936-3.01-8.516-1.376-2.578-3.155-4.814-5.332-6.707-2.18-1.893-4.932-3.295-8.256-4.214v-.344c6.88-2.752 11.839-6.765 14.878-12.04 3.037-5.273 4.559-11.524 4.559-18.748 0-4.701-.834-9.086-2.494-13.158-1.664-4.069-4.072-7.654-7.225-10.75-3.154-3.096-6.939-5.531-11.352-7.31-4.416-1.776-8.062-2.858-13.565-2.858h-67v123h27v-48l26.475.012c6.764 0 11.637 1.49 14.62 4.473 2.98 2.982 4.929 7.684 5.847 14.104.688 4.932 1.205 10.092 1.549 15.48.344 5.391 1.26 10.035 2.752 13.932h27.004c-1.264-1.721-2.209-3.811-2.838-6.277-.632-2.466-1.092-5.075-1.375-7.827zm-31.047-57.276c-3.096 2.752-7.795 4.38-13.987 4.38h-29v-35h28c6.192 0 11.891 1.525 14.987 4.218 3.096 2.696 4.644 7.025 4.644 12.986 0 6.191-1.547 10.664-4.644 13.416zm27.013 126.614l-10.542-17.291-5.458.057v26h5v-17l.206-.209 10.691 17.209h5.136v-26.057l-5.033.057v17.234zm87.647-14.383c-.708-.768-1.626-1.738-2.754-2.207-1.129-.467-2.496-.701-4.104-.701l-11.789.057v26h6v-9l5.79-.217c1.607 0 2.975-.232 4.104-.701 1.128-.469 2.046-1.086 2.754-1.854.708-.77 1.225-1.65 1.549-2.646.323-.996.485-2.01.485-3.043 0-1.055-.162-2.076-.485-3.059-.324-.984-.842-1.859-1.55-2.629zm-3.851 7.668c-.276.504-.643.895-1.098 1.17-.457.277-.984.229-1.584.324-.601.096-1.225.025-1.873.025l-4.241.021v-7.062h4c.647 0 1.866.09 2.466.186.6.096.775-.07 1.232.205.455.275.821.666 1.098 1.17.275.504.414 1.166.414 1.98 0 .817-.139 1.477-.414 1.981zm-292.796-148.52h37v100h27v-100h37v-23h-101v23zm441 164v-26h-5v10h-11v-10h-5v26h5v-11h11v11h5zm-74.252-70.105c3.782 3.039 8.084 5.273 12.899 6.707 4.815 1.432 10.192 2.398 15.354 2.398 9.173 0 16.062-1.652 21.455-4.463 5.388-2.809 9.517-6.305 12.384-10.492 2.865-4.184 4.7-8.686 5.504-13.502.801-4.814 1.657-9.527 1.657-13.543v-84h-27v83c0 2.18-.543 4.541-.715 6.891-.173 2.352-.688 4.529-1.548 6.535-.86 2.008-2.267 3.643-4.215 4.902-1.951 1.264-4.703 1.893-8.257 1.893-3.211 0-5.82-.518-7.826-1.549-2.008-1.031-3.584-2.436-4.729-4.215-1.146-1.775-1.951-3.926-2.408-6.449-.46-2.521-.303-5.025-.303-8.008v-6h-25v11c0 6.768 1.336 12.441 3.631 17.197 2.292 4.76 5.332 8.661 9.117 11.698zm-324.748 54.105h-11l.132-10.057-5.132.057v26h5v-11h11v11h5v-26h-5v10zm-39.944-4.953l6.945-.047v21h6v-21h8v-5l-20.945-.057v5.104zm149.674 7.561c-.84-.551-1.686-.953-2.538-1.205-.853-.252-1.519-.426-1.998-.523-1.608-.406-2.911-.742-3.906-1.008-.996-.264-1.776-.527-2.34-.791-.564-.264-.942-.553-1.134-.863-.192-.312-.288-.721-.288-1.225 0-.553.12-1.008.36-1.369.24-.359.545-.66.918-.898.372-.24.786-.408 1.242-.504.456-.098.912-.145 1.368-.145.696 0 1.338.061 1.926.18.588.121 1.11.324 1.566.611.456.289.822.686 1.098 1.189.275.504.438 1.139.486 1.906h5.472c0-1.486-.283-2.754-.846-3.797-.564-1.045-1.327-1.902-2.286-2.574-.96-.672-2.058-1.156-3.294-1.457-1.236-.301-2.526-.451-3.87-.451-1.152 0-2.304.156-3.456.469-1.152.311-2.185.791-3.096 1.439-.913.648-1.65 1.459-2.214 2.43-.564.973-.846 2.119-.846 3.438 0 1.178.222 2.18.666 3.008.444.826 1.026 1.518 1.746 2.068.72.553 1.536 1.002 2.448 1.352.912.348 1.848.641 2.808.881.936.264 1.86.504 2.772.721.912.215 1.728.467 2.448.756.72.287 1.301.648 1.746 1.08.444.432.666.996.666 1.691 0 .648-.168 1.182-.504 1.602s-.756.75-1.26.99-1.044.402-1.62.486c-.576.084-1.116.127-1.62.127-.744 0-1.464-.09-2.16-.271-.696-.18-1.302-.455-1.818-.828-.516-.371-.93-.857-1.242-1.457s-.468-1.332-.468-2.195h-5.472c-.024 1.584.264 2.951.864 4.104.6 1.152 1.41 2.1 2.43 2.844s2.196 1.291 3.528 1.639c1.332.346 2.706.521 4.122.521 1.751 0 3.294-.205 4.626-.611 1.332-.408 2.448-.979 3.348-1.711.9-.73 1.578-1.602 2.034-2.609s.684-2.102.684-3.277c0-1.439-.306-2.621-.918-3.545-.612-.927-1.338-1.665-2.178-2.218zm-49.73 13.392h19v-5h-14v-6h13v-4h-13v-6h14v-5h-19v26zm23-20h2c0 .889-.025 1.479-.361 2.09s-.725 1.074-1.637 1.387v2.375c.744-.096 1.199-.318 1.835-.666.635-.348 1.182-.785 1.638-1.314.456-.527.81-1.139 1.062-1.836.252-.695.487-1.244.463-2.035v-6h-5v5.999zm187 20h6l.104-9.916h9.941v-5.096h-9.941v-5.941l11.778.014.117-5.061-18.018-.057.019 26.057zm-260 0h19v-5h-13v-6h12v-4h-12v-6h13v-5h-19v26zm44.742-2.953c-.06-.574-.102-1.139-.126-1.691-.024-.551-.048-1.031-.072-1.439-.048-.648-.138-1.297-.27-1.943-.132-.648-.342-1.242-.63-1.783-.288-.539-.661-1.008-1.116-1.404-.456-.395-1.032-.688-1.728-.881v-.072c1.44-.576 2.478-1.416 3.114-2.52.636-1.105.954-2.412.954-3.924 0-.984-.174-1.902-.521-2.754-.349-.854-.853-1.955-1.512-2.604-.661-.646-1.453-1.158-2.376-1.529-.924-.373-1.962-.559-3.114-.559l-13.344.057v26h5.136v-10.045h5.652c1.416 0 2.436.312 3.06.938s1.031 1.607 1.224 2.951c.144 1.031.252 2.111.324 3.24.072 1.127.264 2.102.576 2.916h5.652c-.265-.359-.462-.799-.594-1.314-.134-.517-.23-1.064-.289-1.64zm-6.497-11.986c-.648.576-1.62.863-2.916.863h-6.192v-7.236h6.192c1.296 0 2.268.283 2.916.846.648.564.972 1.471.972 2.719-.002 1.294-.324 2.232-.972 2.808zm84.958-11.117l-9.72 26.057h5.688l2.016-5.959h9.612l1.944 5.959h5.868l-9.612-26.057h-5.796zm-.54 16.121l3.348-9.432h.072l3.24 9.432h-6.66zm498.338-177.065h-25v82l-.928.58-51.072-82.58h-27l-.016 123h25.016v-82l.611-.216 51.084 82.216h27.305v-123zm-290.169 184.047c-.062-.574-.103-1.139-.126-1.691-.023-.551-.048-1.031-.072-1.439-.048-.648-.138-1.297-.271-1.943-.131-.648-.342-1.242-.629-1.783-.289-.539-.66-1.008-1.116-1.404-.455-.395-1.031-.688-1.728-.881v-.072c1.439-.576 2.478-1.416 3.113-2.52.637-1.105.954-2.412.954-3.924 0-.984-.175-1.902-.522-2.754-.348-.854-.852-1.604-1.512-2.25-.66-.648-1.451-1.158-2.376-1.531-.925-.371-2.396-.854-3.547-.854h-13v26h6v-10l4.877-.045c1.415 0 2.437.312 3.06.938.625.625 1.033 1.607 1.226 2.951.144 1.031.252 2.111.323 3.24.072 1.127.265 2.102.576 2.916h5.651c-.265-.359-.462-.799-.594-1.314s-.228-1.064-.287-1.64zm-6.498-11.986c-.647.576-1.62.863-2.916.863l-5.417.076v-7l5.417-.078c1.296 0 2.269.049 2.916.611.647.564.972 1.471.972 2.719-.001 1.295-.325 2.233-.972 2.809zm39.666-11.061h-21v5h7v21h6v-21h8v-5zm-61.626 3.608c-1.08-1.223-2.4-2.184-3.96-2.879-1.562-.697-3.336-1.045-5.328-1.045-1.969 0-3.737.348-5.312 1.045-1.571.695-2.896 1.656-3.978 2.879-1.081 1.225-1.907 2.66-2.483 4.303-.576 1.645-.864 3.426-.864 5.346 0 1.871.288 3.617.864 5.238.576 1.619 1.403 3.029 2.483 4.23 1.08 1.199 2.405 2.141 3.978 2.826 1.572.684 3.343 1.025 5.312 1.025 1.992 0 3.769-.342 5.328-1.025 1.56-.686 2.88-1.625 3.96-2.826s1.906-2.611 2.482-4.23c.576-1.621.865-3.367.865-5.238 0-1.92-.289-3.701-.865-5.346-.576-1.643-1.402-3.079-2.482-4.303zm-2.684 12.799c-.252 1.02-.653 1.938-1.205 2.754-.553.816-1.272 1.469-2.159 1.961-.89.492-1.97.738-3.24.738-1.272 0-2.353-.246-3.239-.738-.889-.492-1.607-1.145-2.16-1.961s-.953-1.734-1.205-2.754-.379-2.07-.379-3.15c0-1.127.127-2.219.379-3.275s.652-1.998 1.205-2.826 1.271-1.488 2.16-1.98c.887-.49 1.967-.738 3.239-.738 1.271 0 2.353.248 3.24.738.887.492 1.606 1.152 2.159 1.98.552.828.953 1.771 1.205 2.826.252 1.057.379 2.146.379 3.275 0 1.079-.127 2.13-.379 3.15zm-5.222-115.295c0-9.172-1.375-17.686-4.128-25.542-2.752-7.853-6.708-14.706-11.867-20.554-5.161-5.848-11.468-10.433-18.921-13.76-7.455-3.324-15.94-4.988-25.455-4.988-9.404 0-17.861 1.664-25.371 4.988-7.512 3.327-13.846 7.912-19.006 13.76s-9.115 12.701-11.867 20.554c-2.752 7.856-4.129 16.37-4.129 25.542 0 8.945 1.377 17.287 4.129 25.027 2.752 7.738 6.707 14.477 11.867 20.209 5.16 5.734 11.494 10.234 19.006 13.502 7.51 3.268 15.967 4.902 25.371 4.902 9.516 0 18-1.635 25.455-4.902 7.453-3.268 13.76-7.768 18.921-13.502 5.159-5.732 9.115-12.471 11.867-20.209 2.753-7.74 4.128-16.082 4.128-25.027zm-28.809 15.051c-1.204 4.875-3.126 9.26-5.763 13.158-2.639 3.9-6.078 7.025-10.319 9.373-4.243 2.352-8.5 3.307-14.576 3.307-6.079 0-12.144-.955-16.384-3.307-4.244-2.348-7.684-5.473-10.32-9.373-2.639-3.898-4.558-8.283-5.762-13.158-1.204-4.873-1.807-9.891-1.807-15.05 0-5.388.603-10.604 1.807-15.652 1.204-5.044 3.123-9.546 5.762-13.502 2.637-3.956 6.076-7.108 10.32-9.46 4.24-2.349 9.305-3.498 15.384-3.498 6.076 0 11.333 1.149 15.576 3.498 4.241 2.352 7.681 5.504 10.319 9.46 2.637 3.956 4.559 8.458 5.763 13.502 1.204 5.047 1.806 10.264 1.806 15.652-.001 5.159-.603 10.177-1.806 15.05zm135.341 83.837l-9.456 26h5.688l1.769-6h10l1.804 6h5.868l-9.672-26h-6.001zm0 16l3.071-9.367h.071l3.856 9.367h-6.998zm34-177l-47.136 123h27.176l9.96-28h46l8.883 28h28.037l-45.92-123h-27zm-3 75l15.719-44.536h.346l15.936 44.536h-32.001zm-18 86v5h8v21h4.965l.035-21h8l-.139-4.979-20.861-.021z"/></svg>