<svg xmlns="http://www.w3.org/2000/svg" width="1200" height="320" viewBox="0 0 1200 320"><path fill="#fff" d="M144.701 103.391h-.198l-16.556-49.057h-21.858v71.223h14.522v-49.8h.198l17.348 49.8h11.995l17.348-50.298h.198v50.297h14.572v-71.223h-21.907l-15.662 49.058zm1.034 163.138h-10.404v-9.863h-5.652v25.703h5.652v-11.088h10.404v11.088h5.652v-25.703h-5.652v9.863zm63.996-156.778h26.468l5.353 15.805h16.159l-26.469-71.223h-15.96l-26.765 71.223h15.663l5.551-15.805zm13.284-37.672h.198l8.922 26.043h-18.339l9.219-26.043zm-78.314 133.026h-.198l-16.556-48.808h-21.708v70.974h14.373v-49.803h.198l17.348 50.053h11.995l17.348-50.549h.198v50.549h14.572v-71.224h-21.908l-15.662 48.808zm17.306 66.213h12.456v-4.393h-12.456v-5.508h13.572v-4.752h-19.224v25.703h19.512v-4.752h-13.86v-6.298zm27.683 11.051h5.652v-25.703h-5.652v25.703zm86.076-7.631h10.836v-4.393h-10.836v4.393zm2.911-109.693c-2.875-2.916-6.279-5.103-10.21-6.562-3.933-1.457-8.179-2.187-12.739-2.187h-30.532v71.223h30.532c5.418 0 10.127-.91 14.126-2.734 3.998-1.822 7.335-4.574 10.012-7.754 2.677-3.182 4.675-6.959 5.998-11.332 1.321-4.375 1.982-9.145 1.982-14.314 0-5.896-.81-11.034-2.429-15.408-1.62-4.372-3.865-8.016-6.74-10.932zm-7.881 37.773c-.992 2.717-2.314 4.92-3.965 6.609-1.653 1.689-3.536 2.898-5.651 3.629-2.116.729-4.296 1.094-6.542 1.094h-13.878v-44.732h11.103c3.832 0 7.054.547 9.666 1.641 2.61 1.093 4.708 2.668 6.295 4.721 1.586 2.055 2.726 4.523 3.42 7.406s1.041 6.113 1.041 9.691c-.002 3.912-.498 7.225-1.489 9.941zm25.85 68.5h12.456v-4.393h-12.456v-5.508h13.572v-4.752h-19.224v25.703h19.512v-4.752h-13.86v-6.298zm-79.919 2.592h-.072l-10.728-17.244h-5.616v25.703h5.292v-17.207h.072l10.692 17.207h5.652v-25.703h-5.292v17.244zm-111.06-12.492h7.704v20.951h5.652v-20.951h7.704v-4.752h-21.06v4.752zm105.848-105.121h-15.563v71.224h15.563v-71.224zm15.471 126.072h5.652v-10.619h10.764v-4.393h-10.764v-5.939h12.42v-4.752h-18.072v25.703zm42.156-22.39c-1.08-1.225-2.4-2.186-3.96-2.881-1.561-.695-3.336-1.045-5.328-1.045-1.968 0-3.738.35-5.31 1.045-1.572.695-2.898 1.656-3.978 2.881-1.08 1.223-1.908 2.658-2.484 4.301-.576 1.645-.864 3.426-.864 5.346 0 1.873.288 3.619.864 5.238.576 1.621 1.404 3.031 2.484 4.23s2.406 2.143 3.978 2.826c1.572.684 3.342 1.025 5.31 1.025 1.992 0 3.768-.342 5.328-1.025s2.88-1.625 3.96-2.826c1.08-1.199 1.908-2.609 2.484-4.23.576-1.619.864-3.365.864-5.238 0-1.918-.288-3.701-.864-5.346-.576-1.643-1.404-3.079-2.484-4.301zm-2.682 12.796c-.252 1.02-.654 1.938-1.206 2.754-.552.816-1.272 1.471-2.16 1.963-.888.492-1.968.738-3.24.738s-2.353-.246-3.24-.738c-.889-.492-1.608-1.146-2.16-1.963-.553-.816-.954-1.734-1.206-2.754s-.378-2.07-.378-3.15c0-1.127.126-2.219.378-3.275s.653-1.998 1.206-2.826c.552-.828 1.271-1.488 2.16-1.98.887-.49 1.967-.736 3.24-.736 1.272 0 2.352.246 3.24.736.888.492 1.608 1.152 2.16 1.98.552.828.954 1.771 1.206 2.826.252 1.057.378 2.148.378 3.275 0 1.08-.126 2.131-.378 3.15zm105.648-116.478v70.974h50.061v-13.121h-34.498v-57.853h-15.563zm182.512 105.121v-4.752h-19.225v25.703h19.513v-4.752h-13.86v-6.299h12.456v-4.393h-12.456v-5.508h13.572zm-145.932-183.376h.198l29.442 47.264h15.813v-70.973h-14.822v47.864h-.198l-29.541-47.864h-15.464v70.973h14.572v-47.264zm170.466 189.64c.635-1.104.954-2.412.954-3.924 0-.984-.175-1.902-.522-2.754s-.852-1.602-1.512-2.25c-.661-.648-1.453-1.156-2.376-1.529-.924-.373-1.962-.559-3.114-.559h-13.86v25.703h5.652v-10.043h5.652c1.416 0 2.436.312 3.06.936.624.625 1.032 1.607 1.224 2.951.145 1.033.253 2.113.324 3.24.072 1.129.265 2.102.576 2.916h5.652c-.266-.359-.462-.797-.594-1.312-.133-.518-.229-1.062-.288-1.639-.061-.576-.103-1.141-.126-1.691-.024-.553-.049-1.033-.072-1.441-.048-.646-.139-1.295-.271-1.943s-.342-1.242-.63-1.781c-.288-.541-.661-1.01-1.116-1.404-.455-.396-1.031-.689-1.728-.883v-.072c1.44-.578 2.479-1.418 3.115-2.521zm-5.671-.252c-.648.576-1.62.863-2.916.863h-6.192v-7.234h6.192c1.296 0 2.268.281 2.916.846.647.562.972 1.469.972 2.717.001 1.296-.323 2.232-.972 2.808zm-294.804-189.388h.198l29.442 47.264h15.813v-70.973h-14.822v47.864h-.198l-29.541-47.864h-15.464v70.973h14.572v-47.264zm101.756-23.709l-15.564.25v70.723h15.564v-70.973zm302.849 58.103h-39.166v-17.395h35.1v-12.127h-35.1v-15.209h38.173v-13.372h-53.137v70.973h54.13v-12.87zm-112.022-17.496h28.649v30.366h15.562v-70.973h-15.562v27.486h-28.649v-27.486h-15.563v70.973h15.563v-30.366zm-44.182 162.427c-1.128-.467-2.497-.701-4.104-.701h-11.592v25.703h5.652v-9.215h5.939c1.607 0 2.977-.234 4.104-.703 1.128-.467 2.046-1.084 2.754-1.854.708-.768 1.224-1.65 1.548-2.646s.486-2.01.486-3.041c0-1.057-.162-2.076-.486-3.061s-.84-1.859-1.548-2.627c-.707-.769-1.625-1.386-2.753-1.855zm-1.098 9.524c-.276.504-.643.895-1.099 1.17-.457.275-.983.461-1.584.557s-1.224.145-1.872.145h-4.392v-7.703h4.392c.648 0 1.271.047 1.872.143s1.127.283 1.584.559c.456.275.822.666 1.099 1.17.275.504.413 1.164.413 1.98s-.137 1.473-.413 1.979zm-99.863-7.057c-1.044-1.057-2.28-1.848-3.708-2.377-1.428-.525-2.97-.791-4.626-.791h-11.088v25.703h11.088c1.967 0 3.677-.33 5.13-.99 1.452-.66 2.664-1.564 3.636-2.717.972-1.152 1.698-2.52 2.178-4.104s.72-3.312.72-5.186c0-2.135-.294-3.996-.882-5.58s-1.404-2.901-2.448-3.958zm-2.862 13.68c-.36.984-.84 1.781-1.44 2.395-.6.611-1.284 1.049-2.052 1.314-.769.264-1.561.395-2.376.395h-5.04v-16.199h4.032c1.392 0 2.562.197 3.51.594.948.396 1.71.967 2.286 1.711.576.742.99 1.637 1.242 2.682.252 1.043.378 2.213.378 3.51 0 1.414-.18 2.613-.54 3.598zm31.374 5.904c-.06-.576-.103-1.141-.126-1.691-.024-.553-.048-1.033-.072-1.441-.048-.646-.139-1.295-.27-1.943-.132-.648-.342-1.242-.63-1.781-.288-.541-.66-1.01-1.116-1.404-.456-.396-1.032-.689-1.728-.883v-.072c1.44-.576 2.478-1.416 3.114-2.52.636-1.104.954-2.412.954-3.924 0-.984-.174-1.902-.522-2.754-.348-.852-.852-1.602-1.512-2.25-.66-.648-1.452-1.156-2.376-1.529-.924-.373-1.962-.559-3.114-.559h-13.86v25.703h5.652v-10.043h5.652c1.416 0 2.436.311 3.06.936.624.625 1.032 1.607 1.224 2.951.144 1.033.252 2.113.324 3.24.072 1.129.264 2.102.576 2.916h5.652c-.264-.359-.462-.797-.594-1.312s-.229-1.064-.288-1.64zm-6.498-11.988c-.648.576-1.62.863-2.916.863h-6.192v-7.234h6.192c1.296 0 2.268.281 2.916.846.648.562.972 1.469.972 2.717 0 1.296-.324 2.232-.972 2.808zm-47.88 1.549c-.84-.553-1.687-.955-2.538-1.207-.852-.252-1.518-.426-1.998-.521-1.608-.408-2.911-.744-3.906-1.008-.996-.264-1.776-.529-2.34-.793s-.942-.551-1.134-.863-.288-.721-.288-1.225c0-.551.12-1.008.36-1.367.239-.361.545-.66.918-.9.372-.24.786-.408 1.242-.504s.912-.145 1.368-.145c.696 0 1.337.061 1.926.18.588.121 1.11.324 1.566.613.456.287.822.684 1.098 1.188.276.504.438 1.141.486 1.908h5.472c0-1.488-.282-2.754-.846-3.799-.564-1.043-1.327-1.902-2.286-2.574-.96-.67-2.058-1.156-3.294-1.457-1.236-.301-2.526-.449-3.87-.449-1.152 0-2.304.154-3.456.467s-2.184.793-3.096 1.439c-.913.648-1.65 1.459-2.214 2.432-.564.971-.846 2.117-.846 3.438 0 1.176.222 2.178.666 3.006.444.828 1.026 1.52 1.746 2.07.72.551 1.536 1.002 2.448 1.35s1.848.643 2.808.883c.936.264 1.859.504 2.772.719.912.217 1.728.469 2.448.756.72.289 1.302.648 1.746 1.08s.666.996.666 1.693c0 .646-.168 1.182-.504 1.602s-.756.75-1.26.99c-.504.238-1.044.4-1.62.484-.576.084-1.116.127-1.62.127-.744 0-1.464-.09-2.16-.27-.696-.18-1.302-.457-1.818-.828-.517-.373-.931-.859-1.242-1.459-.312-.6-.468-1.332-.468-2.195h-5.472c-.024 1.584.264 2.951.864 4.104.6 1.152 1.41 2.1 2.43 2.844s2.196 1.291 3.528 1.639 2.706.521 4.122.521c1.751 0 3.294-.203 4.626-.611s2.448-.979 3.348-1.711c.9-.73 1.578-1.602 2.034-2.609s.684-2.1.684-3.275c0-1.441-.306-2.623-.918-3.547-.612-.925-1.338-1.666-2.178-2.216zm-41.379-93c-1.62-4.374-3.866-8.017-6.741-10.935-2.875-2.914-6.279-5.102-10.21-6.561-3.933-1.457-8.178-2.187-12.738-2.187h-30.533v71.224h30.533c5.418 0 10.127-.91 14.126-2.734 3.998-1.822 7.336-4.574 10.012-7.756 2.677-3.18 4.675-6.957 5.998-11.332 1.321-4.373 1.983-9.145 1.983-14.314-.001-5.894-.811-11.03-2.43-15.405zm-14.622 26.839c-.991 2.717-2.314 4.92-3.965 6.609-1.653 1.689-3.536 2.898-5.65 3.629-2.116.729-4.297 1.094-6.542 1.094h-13.879v-44.732h11.103c3.832 0 7.054.547 9.666 1.641 2.61 1.093 4.708 2.668 6.294 4.721 1.586 2.055 2.727 4.523 3.42 7.406.694 2.883 1.041 6.113 1.041 9.691-.001 3.912-.497 7.225-1.488 9.941zm1.93 71.92h-.072l-5.724-18.072h-5.796l8.316 25.703h6.372l8.532-25.703h-5.832l-5.796 18.072zm19.476-3.42h12.456v-4.393h-12.456v-5.508h13.572v-4.752h-19.224v25.703h19.512v-4.752h-13.86v-6.298zm-44.316-14.652l-9.72 25.703h5.688l2.016-5.723h9.612l1.944 5.723h5.868l-9.612-25.703h-5.796zm-.54 15.768l3.348-9.432h.072l3.24 9.432h-6.66zm205.554-147.127v-57.602h21.214v-13.372h-57.992v13.371h21.214v57.602h15.564zm-79.901 71.447h34.8v-12.127h-34.8v-15.207h37.873v-13.122h-53.436v70.973h54.229v-13.121h-38.666v-17.396zm59.367 62.469c-.708-.77-1.626-1.387-2.754-1.855-1.128-.467-2.497-.701-4.104-.701h-11.592v25.703h5.652v-9.215h5.939c1.607 0 2.977-.234 4.104-.703 1.128-.467 2.046-1.084 2.754-1.854.708-.768 1.224-1.65 1.548-2.646s.486-2.01.486-3.041c0-1.057-.162-2.076-.486-3.061s-.839-1.86-1.547-2.627zm-3.852 7.668c-.275.504-.642.895-1.098 1.17-.457.275-.984.461-1.584.557s-1.225.145-1.872.145h-4.392v-7.703h4.392c.647 0 1.271.047 1.872.143.6.096 1.128.283 1.584.559s.822.666 1.098 1.17c.276.504.414 1.164.414 1.98s-.138 1.473-.414 1.979zm-21.798-6.912c-1.08-1.225-2.399-2.186-3.96-2.881s-3.336-1.045-5.328-1.045c-1.968 0-3.738.35-5.31 1.045-1.572.695-2.898 1.656-3.978 2.881-1.08 1.223-1.908 2.658-2.484 4.301-.576 1.645-.864 3.426-.864 5.346 0 1.873.288 3.619.864 5.238.576 1.621 1.404 3.031 2.484 4.23 1.079 1.199 2.405 2.143 3.978 2.826 1.571.684 3.342 1.025 5.31 1.025 1.992 0 3.768-.342 5.328-1.025s2.88-1.625 3.96-2.826c1.08-1.199 1.908-2.609 2.484-4.23.575-1.619.864-3.365.864-5.238 0-1.918-.289-3.701-.864-5.346-.575-1.643-1.404-3.079-2.484-4.301zm-2.682 12.796c-.253 1.02-.654 1.938-1.206 2.754-.553.816-1.271 1.471-2.16 1.963s-1.968.738-3.24.738c-1.271 0-2.352-.246-3.24-.738-.888-.492-1.607-1.146-2.16-1.963-.551-.816-.953-1.734-1.205-2.754s-.379-2.07-.379-3.15c0-1.127.127-2.219.379-3.275s.654-1.998 1.205-2.826c.553-.828 1.272-1.488 2.16-1.98.889-.49 1.967-.736 3.24-.736 1.272 0 2.352.246 3.24.736.889.492 1.607 1.152 2.16 1.98.552.828.953 1.771 1.206 2.826.252 1.057.378 2.148.378 3.275 0 1.08-.126 2.131-.378 3.15z"/></svg>