<svg xmlns="http://www.w3.org/2000/svg" width="1200" height="320" viewBox="0 0 1200 320"><path fill="#fff" d="M189.219 94.799v22.954h-59.215v28.005h51.053v20.984h-51.053v50.99h-27.004v-122.933h86.219zm68.971 74.961l-15.48-44.564h-.344l-15.996 44.564h31.82zm-1.548-75.086l45.924 123.059h-28.036l-9.289-27.849h-45.924l-9.631 27.849h-27.176l46.44-123.059h27.692zm83.341 0v51.162l48.238-51.162h33.712l-47.988 48.754 52.632 74.304h-33.884l-36.979-55.213-15.73 15.652v39.561h-27.004v-123.058h27.003zm189.026 0v23.079h-64.969v26.066h60.012v21.109h-60.012v29.725h66.97v23.08h-92.974v-123.059h90.973zm115.661 58.042c3.096 0 6.076-.228 8.945-.688 2.863-.457 5.387-1.346 7.566-2.666 2.178-1.317 3.928-3.182 5.246-5.59 1.316-2.408 1.979-5.561 1.979-9.46 0-3.897-.66-7.052-1.979-9.46-1.318-2.408-3.068-4.271-5.246-5.59-2.18-1.317-4.703-2.207-7.566-2.666-2.869-.457-5.85-.688-8.945-.688h-20.984v36.808h20.984zm7.396-57.959c7.682 0 14.217 1.118 19.607 3.354 5.389 2.236 9.773 5.356 13.158 9.025 3.381 3.671 5.848 7.855 7.395 12.556 1.551 4.703 2.322 9.576 2.322 14.62 0 4.932-.771 9.777-2.322 14.534-1.547 4.759-4.014 8.974-7.395 12.642-3.385 3.671-7.771 6.621-13.158 8.857-5.391 2.236-11.928 3.354-19.607 3.354h-28.381v44.032h-26.671v-122.974h55.052zm109.393 75.003l-15.48-44.564h-.344l-15.996 44.564h31.82zm-1.549-75.169l45.924 123.142h-28.035l-9.287-27.849h-45.926l-9.631 27.849h-27.176l46.439-123.142h27.692zm129.344 122.195c-5.848 2.464-11.754 3.698-17.715 3.698-9.404 0-17.861-1.635-25.371-4.902-7.512-3.268-13.846-7.768-19.006-13.502-5.16-5.732-9.115-12.471-11.867-20.21-2.752-7.74-4.129-16.082-4.129-25.026 0-9.172 1.377-17.686 4.129-25.542 2.752-7.853 6.707-14.706 11.867-20.554s11.494-10.433 19.006-13.76c7.51-3.324 15.967-4.988 25.371-4.988 6.305 0 12.41.946 18.318 2.838 5.902 1.892 11.234 4.674 15.994 8.342 4.758 3.671 8.688 8.199 11.781 13.588 3.096 5.391 4.988 12.083 5.676 19.076h-25.798c-1.605-6.88-4.703-12.54-9.289-15.979-4.586-3.44-10.146-5.16-16.684-5.16-6.078 0-11.238 1.177-15.48 3.526-4.242 2.352-7.684 5.504-10.318 9.46-2.641 3.956-4.559 8.458-5.764 13.502-1.203 5.047-1.805 10.264-1.805 15.652 0 5.16.602 10.178 1.805 15.051 1.205 4.875 3.123 9.26 5.764 13.157 2.637 3.9 6.076 7.025 10.318 9.374 4.242 2.352 9.402 3.526 15.48 3.526 8.943 0 15.852-2.263 20.727-6.794 4.873-4.528 7.711-10.76 8.516-19.36h-26.678v-20.125h50.934v66.06h-17.033l-2.753-13.934c-4.816 6.192-10.148 10.522-15.996 12.986zm149.805-122.029v23.037h-65.01v25.983h59.012v20.984h-59.012v29.935h65.887v23.037h-92.891v-122.976h92.014zm-929.952 161.27l10.728 17.244h.072v-17.244h5.292v25.705h-5.652l-10.692-17.209h-.072v17.209h-5.292v-25.705h5.616zm25.974 16.112c.252 1.02.653 1.938 1.205 2.754.553.815 1.272 1.469 2.16 1.961.889.492 1.969.738 3.24.738s2.352-.246 3.24-.738c.888-.492 1.607-1.146 2.16-1.961.552-.816.953-1.734 1.206-2.754.252-1.021.378-2.07.378-3.15 0-1.127-.126-2.219-.378-3.276-.253-1.056-.654-1.998-1.206-2.826-.553-.827-1.272-1.487-2.16-1.979-.889-.491-1.969-.738-3.24-.738s-2.352.247-3.24.738c-.888.492-1.607 1.152-2.16 1.979-.552.828-.953 1.771-1.205 2.826-.252 1.058-.379 2.147-.379 3.276 0 1.079.127 2.129.379 3.15zm-5.166-8.496c.576-1.645 1.404-3.078 2.484-4.303 1.08-1.224 2.406-2.184 3.978-2.88 1.571-.696 3.342-1.044 5.31-1.044 1.992 0 3.768.348 5.328 1.044 1.561.696 2.88 1.656 3.96 2.88 1.08 1.225 1.908 2.659 2.484 4.303.575 1.644.864 3.426.864 5.346 0 1.871-.289 3.617-.864 5.238-.576 1.619-1.404 3.029-2.484 4.229s-2.399 2.142-3.96 2.826c-1.561.684-3.336 1.026-5.328 1.026-1.968 0-3.738-.343-5.31-1.026-1.572-.685-2.898-1.625-3.978-2.826-1.08-1.2-1.908-2.61-2.484-4.229-.576-1.621-.864-3.367-.864-5.238 0-1.921.288-3.703.864-5.346zm47.123 18.089l-4.355-17.496h-.073l-4.283 17.496h-5.725l-6.804-25.705h5.651l4.068 17.496h.072l4.464-17.496h5.292l4.393 17.713h.071l4.212-17.713h5.545l-6.912 25.705h-5.616zm38.268-9.936l-3.239-9.432h-.072l-3.348 9.432h6.659zm-.324-15.769l9.612 25.705h-5.869l-1.943-5.725h-9.611l-2.017 5.725h-5.688l9.721-25.705h5.795zm15.769 25.705l-8.316-25.705h5.796l5.724 18.072h.072l5.796-18.072h5.832l-8.532 25.705h-6.372zm28.584-9.936l-3.24-9.432h-.072l-3.348 9.432h6.66zm-.324-15.769l9.611 25.705h-5.867l-1.944-5.725h-9.612l-2.016 5.725h-5.688l9.719-25.705h5.797zm17.496 0v25.705h-5.652v-25.705h5.652zm10.619 0v20.953h12.528v4.752h-18.181v-25.705h5.653zm28.836 15.769l-3.24-9.432h-.072l-3.348 9.432h6.66zm-.324-15.769l9.612 25.705h-5.868l-1.943-5.725h-9.613l-2.016 5.725h-5.688l9.72-25.705h5.796zm23.22 10.405c1.008 0 1.836-.24 2.483-.72s.972-1.26.972-2.34c0-.601-.107-1.092-.324-1.476-.215-.385-.504-.685-.863-.9-.36-.216-.774-.366-1.242-.45-.469-.083-.954-.126-1.458-.126h-5.292v6.012h5.724zm.719-10.405c1.225 0 2.341.108 3.349.324 1.008.217 1.872.57 2.592 1.062.72.492 1.278 1.146 1.675 1.962.396.815.594 1.824.594 3.024 0 1.295-.295 2.375-.883 3.24-.588.863-1.457 1.571-2.609 2.123 1.584.457 2.766 1.254 3.546 2.395.779 1.141 1.17 2.515 1.17 4.121 0 1.297-.252 2.419-.756 3.367-.505.947-1.183 1.722-2.034 2.321-.852.601-1.824 1.044-2.916 1.332-1.092.288-2.214.433-3.366.433h-12.456v-25.705h12.094zm-.395 21.313c.552 0 1.08-.054 1.584-.162.504-.107.948-.287 1.332-.539.384-.253.689-.595.918-1.027.228-.432.343-.982.343-1.655 0-1.32-.373-2.263-1.117-2.826-.744-.563-1.728-.846-2.951-.846h-6.156v7.056h6.047zm19.296-21.313v20.953h12.527v4.752h-18.18v-25.705h5.653zm34.919 0v4.752h-13.572v5.509h12.456v4.392h-12.456v6.301h13.859v4.752h-19.512v-25.705h19.225zm19.026 16.112c.252 1.02.654 1.938 1.206 2.754.552.815 1.272 1.469 2.16 1.961.888.492 1.968.738 3.239.738 1.272 0 2.353-.246 3.24-.738.888-.492 1.607-1.146 2.16-1.961.552-.816.954-1.734 1.206-2.754.252-1.021.378-2.07.378-3.15 0-1.127-.126-2.219-.378-3.276-.252-1.056-.654-1.998-1.206-2.826-.553-.827-1.272-1.487-2.16-1.979-.888-.491-1.968-.738-3.24-.738-1.271 0-2.352.247-3.239.738-.888.492-1.608 1.152-2.16 1.979-.552.828-.954 1.771-1.206 2.826-.252 1.058-.378 2.147-.378 3.276 0 1.079.126 2.129.378 3.15zm-5.166-8.496c.576-1.645 1.404-3.078 2.484-4.303 1.08-1.224 2.405-2.184 3.978-2.88 1.571-.696 3.342-1.044 5.31-1.044 1.992 0 3.768.348 5.328 1.044 1.561.696 2.881 1.656 3.961 2.88 1.08 1.225 1.908 2.659 2.483 4.303.576 1.644.864 3.426.864 5.346 0 1.871-.288 3.617-.864 5.238-.575 1.619-1.403 3.029-2.483 4.229s-2.4 2.142-3.961 2.826c-1.561.684-3.336 1.026-5.328 1.026-1.968 0-3.738-.343-5.31-1.026-1.572-.685-2.897-1.625-3.978-2.826-1.08-1.2-1.908-2.61-2.484-4.229-.576-1.621-.863-3.367-.863-5.238 0-1.921.287-3.703.863-5.346zm33.876-7.616l10.728 17.244h.072v-17.244h5.292v25.705h-5.651l-10.692-17.209h-.071v17.209h-5.293v-25.705h5.615zm39.024 0l6.012 17.677h.072l5.688-17.677h7.956v25.705h-5.292v-18.217h-.072l-6.3 18.217h-4.356l-6.299-18.037h-.072v18.037h-5.294v-25.705h7.957zm29.61 16.112c.252 1.02.654 1.938 1.206 2.754.553.815 1.272 1.469 2.16 1.961.889.492 1.968.738 3.239.738s2.353-.246 3.24-.738c.889-.492 1.606-1.146 2.16-1.961.553-.816.953-1.734 1.205-2.754.253-1.021.379-2.07.379-3.15 0-1.127-.126-2.219-.379-3.276-.252-1.056-.652-1.998-1.205-2.826-.554-.827-1.271-1.487-2.16-1.979-.889-.491-1.969-.738-3.24-.738s-2.353.247-3.239.738c-.888.492-1.607 1.152-2.16 1.979-.552.828-.954 1.771-1.206 2.826-.252 1.058-.378 2.147-.378 3.276 0 1.079.126 2.129.378 3.15zm-5.166-8.496c.576-1.645 1.404-3.078 2.484-4.303 1.08-1.224 2.406-2.184 3.979-2.88 1.57-.696 3.342-1.044 5.31-1.044 1.992 0 3.768.348 5.328 1.044s2.881 1.656 3.961 2.88c1.08 1.225 1.908 2.659 2.482 4.303.576 1.644.864 3.426.864 5.346 0 1.871-.288 3.617-.864 5.238-.574 1.619-1.402 3.029-2.482 4.229s-2.4 2.142-3.961 2.826c-1.562.684-3.336 1.026-5.328 1.026-1.968 0-3.738-.343-5.31-1.026-1.571-.685-2.897-1.625-3.979-2.826-1.08-1.2-1.908-2.61-2.484-4.229-.575-1.621-.862-3.367-.862-5.238-.002-1.921.285-3.703.862-5.346zm39.636 2.789c1.008 0 1.836-.24 2.482-.72.647-.479.973-1.26.973-2.34 0-.601-.107-1.092-.324-1.476-.215-.385-.504-.685-.863-.9-.36-.216-.773-.366-1.242-.45-.468-.083-.954-.126-1.458-.126h-5.292v6.012h5.724zm.719-10.405c1.225 0 2.341.108 3.349.324 1.008.217 1.872.57 2.593 1.062.72.492 1.277 1.146 1.675 1.962.396.815.594 1.824.594 3.024 0 1.295-.295 2.375-.883 3.24-.588.863-1.457 1.571-2.609 2.123 1.584.457 2.767 1.254 3.546 2.395s1.17 2.515 1.17 4.121c0 1.297-.252 2.419-.756 3.367-.504.947-1.183 1.722-2.034 2.321-.852.601-1.823 1.044-2.916 1.332-1.092.288-2.214.433-3.364.433h-12.461v-25.705h12.096zm-.395 21.313c.553 0 1.08-.054 1.584-.162.506-.107.948-.287 1.332-.539.385-.253.69-.595.918-1.027.229-.432.344-.982.344-1.655 0-1.32-.373-2.263-1.117-2.826s-1.729-.846-2.951-.846h-6.156v7.056h6.046zm19.295-21.313v25.705h-5.652v-25.705h5.652zm10.621 0v20.953h12.528v4.752h-18.181v-25.705h5.653zm34.919 0v4.752h-13.571v5.509h12.456v4.392h-12.456v6.301h13.858v4.752h-19.512v-25.705h19.225zm24.805 20.953c.814 0 1.605-.133 2.375-.396.768-.264 1.451-.702 2.053-1.314.6-.611 1.08-1.41 1.439-2.394s.539-2.185.539-3.601c0-1.295-.125-2.465-.379-3.51-.252-1.043-.666-1.938-1.24-2.682-.576-.744-1.338-1.314-2.285-1.71-.949-.396-2.119-.595-3.512-.595h-4.031v16.201h5.041zm.395-20.953c1.656 0 3.199.266 4.627.793s2.664 1.32 3.707 2.375c1.045 1.058 1.859 2.377 2.449 3.961.588 1.584.881 3.443.881 5.58 0 1.871-.24 3.6-.719 5.184-.48 1.584-1.207 2.952-2.178 4.104-.975 1.152-2.186 2.059-3.639 2.719-1.451.66-3.16.99-5.129.99h-11.088v-25.705h11.089v-.001zm34.812 0v4.752h-13.572v5.509h12.457v4.392h-12.457v6.301h13.859v4.752h-19.512v-25.705h19.225zm9.684 25.705l-8.314-25.705h5.795l5.725 18.072h.072l5.795-18.072h5.832l-8.531 25.705h-6.374zm22.752-25.705v25.705h-5.65v-25.705h5.65zm21.455 6.859c-.336-.54-.756-1.013-1.26-1.422-.504-.407-1.074-.726-1.709-.954-.637-.228-1.303-.342-1.998-.342-1.273 0-2.354.247-3.24.738-.889.492-1.607 1.152-2.16 1.98-.553.827-.953 1.771-1.205 2.825-.254 1.058-.379 2.147-.379 3.276 0 1.08.125 2.13.379 3.15.252 1.02.652 1.938 1.205 2.754.553.815 1.271 1.469 2.16 1.961.887.492 1.967.738 3.24.738 1.727 0 3.078-.527 4.049-1.584.973-1.056 1.566-2.447 1.783-4.176h5.471c-.143 1.607-.516 3.061-1.115 4.355-.6 1.297-1.393 2.4-2.377 3.312-.982.913-2.135 1.607-3.455 2.088-1.318.48-2.771.721-4.355.721-1.967 0-3.738-.343-5.311-1.026-1.57-.685-2.896-1.625-3.979-2.826-1.08-1.2-1.908-2.61-2.484-4.229-.574-1.621-.861-3.367-.861-5.238 0-1.92.287-3.702.861-5.346.576-1.645 1.404-3.078 2.484-4.303 1.08-1.224 2.406-2.184 3.979-2.88s3.344-1.044 5.311-1.044c1.416 0 2.754.204 4.014.611 1.262.41 2.391 1.003 3.385 1.783.996.779 1.818 1.746 2.467 2.897.646 1.151 1.057 2.472 1.225 3.96h-5.473c-.099-.645-.316-1.239-.652-1.779zm29.412-6.859v4.752h-13.572v5.509h12.457v4.392h-12.457v6.301h13.861v4.752h-19.512v-25.705h19.223zm8.424 19.369c.312.6.727 1.086 1.242 1.457.516.373 1.121.648 1.818.828.695.18 1.416.271 2.158.271.506 0 1.045-.042 1.621-.126.576-.083 1.115-.246 1.619-.486s.924-.57 1.26-.99c.338-.42.506-.953.506-1.602 0-.696-.223-1.26-.666-1.691-.445-.433-1.025-.793-1.746-1.08-.721-.289-1.537-.541-2.447-.757-.912-.216-1.836-.456-2.773-.72-.959-.24-1.895-.534-2.807-.882-.912-.349-1.729-.798-2.449-1.351-.719-.552-1.301-1.242-1.746-2.07-.443-.827-.666-1.829-.666-3.006 0-1.318.283-2.465.848-3.438.562-.972 1.301-1.781 2.215-2.43.91-.648 1.943-1.127 3.096-1.44 1.152-.312 2.305-.468 3.455-.468 1.344 0 2.635.15 3.871.45 1.234.301 2.334.786 3.293 1.458s1.723 1.529 2.287 2.574c.562 1.043.846 2.31.846 3.797h-5.473c-.049-.768-.211-1.403-.486-1.907s-.643-.899-1.098-1.188c-.457-.287-.979-.492-1.566-.611-.588-.12-1.229-.18-1.926-.18-.455 0-.912.047-1.367.144-.457.096-.871.264-1.242.504-.371.239-.678.54-.918.899-.24.36-.359.816-.359 1.369 0 .504.096.911.287 1.223.191.312.57.602 1.135.865.562.264 1.344.527 2.34.791.996.265 2.299.601 3.906 1.008.479.097 1.146.271 1.998.522s1.697.654 2.537 1.206c.84.553 1.566 1.291 2.18 2.214.611.925.918 2.106.918 3.546 0 1.176-.229 2.269-.686 3.276-.455 1.008-1.135 1.878-2.033 2.61-.9.731-2.018 1.302-3.35 1.709-1.33.408-2.873.613-4.625.613-1.416 0-2.789-.176-4.121-.522-1.332-.349-2.51-.894-3.527-1.638-1.021-.744-1.832-1.692-2.432-2.845-.6-1.151-.889-2.521-.863-4.104h5.473c-.004.866.15 1.598.463 2.198z"/></svg>