<svg xmlns="http://www.w3.org/2000/svg" width="1200" height="320" viewBox="0 0 1200 320"><path fill="#fff" d="M461.707 259.864c-.709-.769-1.627-1.386-2.754-1.854-1.129-.467-2.498-.701-4.104-.701h-11.592v25.703h5.651v-9.216h5.94c1.606 0 2.976-.233 4.104-.702 1.127-.468 2.045-1.086 2.754-1.854.707-.769 1.224-1.65 1.548-2.646.323-.996.485-2.011.485-3.041 0-1.058-.162-2.076-.485-3.062-.323-.984-.84-1.859-1.547-2.627zm-3.853 7.668c-.276.504-.644.896-1.098 1.17-.456.276-.984.462-1.584.558-.601.098-1.224.146-1.872.146h-4.393v-7.704h4.393c.648 0 1.271.048 1.872.145.6.096 1.128.282 1.584.559.456.275.821.666 1.098 1.17s.414 1.164.414 1.98c0 .814-.138 1.472-.414 1.976zm35.604 9.756c-.973 1.058-2.322 1.584-4.051 1.584-1.271 0-2.353-.245-3.24-.737s-1.607-1.146-2.159-1.963c-.554-.814-.954-1.732-1.206-2.754-.252-1.02-.378-2.07-.378-3.15 0-1.127.126-2.219.378-3.274s.652-1.998 1.206-2.826c.552-.828 1.271-1.487 2.159-1.979.889-.49 1.969-.737 3.24-.737.696 0 1.362.114 1.998.342.637.229 1.207.546 1.711.954s.923.883 1.26 1.422c.336.54.552 1.135.647 1.782h5.473c-.169-1.487-.576-2.808-1.225-3.96-.647-1.152-1.47-2.117-2.466-2.898-.996-.779-2.124-1.373-3.384-1.781-1.261-.407-2.599-.611-4.015-.611-1.968 0-3.737.349-5.31 1.044-1.572.696-2.897 1.655-3.978 2.88s-1.908 2.659-2.484 4.303c-.576 1.645-.864 3.426-.864 5.346 0 1.873.288 3.619.864 5.238.576 1.62 1.404 3.03 2.484 4.229 1.08 1.2 2.405 2.143 3.978 2.825 1.572.685 3.342 1.025 5.31 1.025 1.584 0 3.037-.24 4.356-.72 1.32-.479 2.472-1.175 3.456-2.088.984-.911 1.775-2.017 2.376-3.312.6-1.298.972-2.748 1.116-4.356h-5.473c-.213 1.723-.807 3.116-1.779 4.172zm-112.229-15.227h7.704v20.951h5.652v-20.951h7.703v-4.752h-21.06v4.752zm44.819-1.441c-1.08-1.224-2.4-2.185-3.96-2.88s-3.337-1.044-5.328-1.044c-1.968 0-3.738.349-5.31 1.044-1.572.695-2.898 1.656-3.979 2.88s-1.908 2.659-2.484 4.302c-.576 1.645-.863 3.428-.863 5.346 0 1.873.287 3.619.863 5.238.576 1.621 1.404 3.031 2.484 4.23s2.406 2.143 3.979 2.826c1.57.684 3.342 1.024 5.31 1.024 1.991 0 3.769-.342 5.328-1.024 1.56-.684 2.88-1.627 3.96-2.826s1.908-2.609 2.484-4.23c.575-1.619.863-3.365.863-5.238 0-1.918-.288-3.701-.863-5.346-.575-1.643-1.404-3.078-2.484-4.302zm-2.681 12.797c-.252 1.021-.653 1.938-1.205 2.754-.554.816-1.272 1.472-2.16 1.964-.889.491-1.969.736-3.24.736s-2.352-.245-3.24-.736c-.888-.492-1.607-1.146-2.16-1.964-.552-.815-.953-1.733-1.205-2.754s-.379-2.069-.379-3.149c0-1.127.127-2.22.379-3.275.252-1.057.652-1.998 1.205-2.826s1.272-1.488 2.16-1.98c.889-.489 1.969-.736 3.24-.736s2.352.247 3.24.736c.888.492 1.606 1.152 2.16 1.98.552.828.953 1.771 1.205 2.826.252 1.057.379 2.148.379 3.275-.002 1.08-.127 2.13-.379 3.149zm43.901 9.595h5.652v-25.703h-5.652v25.703zm53.928 0h7.094l-11.018-15.552 10.044-10.151h-7.056l-10.044 10.655v-10.655h-5.652v25.703h5.652v-8.279l3.24-3.276 7.74 11.555zm-409.677-25.703l-9.72 25.703h5.688l2.016-5.725h9.612l1.944 5.725h5.868l-9.612-25.703h-5.796zm-.54 15.767l3.348-9.432h.072l3.24 9.432h-6.66zm34.596 1.477h-.072l-10.728-17.244h-5.616v25.703h5.292v-17.207h.072l10.692 17.207h5.652v-25.703h-5.292v17.244zm254.392-95.949h.198l11.996 48.435h15.465l19.033-71.099h-15.268l-11.598 48.907h-.198l-12.095-48.907h-14.57l-12.292 48.309h-.198l-11.202-48.309h-15.563l18.735 71.099h15.763l11.794-48.435zm-123.517-69.21h26.467l5.354 15.575h16.158l-26.467-70.973h-15.96l-26.766 70.973h15.663l5.551-15.575zm13.284-37.673h.198l8.922 26.043h-18.339l9.219-26.043zm256.998 127.459h15.314c3.897 0 6.707.862 8.426 2.584 1.719 1.725 2.841 4.44 3.371 8.151.396 2.851.693 5.832.892 8.946.198 3.115.728 5.799 1.587 8.052h15.562c-.729-.994-1.272-2.203-1.635-3.629-.364-1.424-.629-2.933-.793-4.522-.166-1.591-.282-3.146-.349-4.673-.065-1.522-.133-2.848-.196-3.976-.135-1.789-.383-3.578-.744-5.368-.363-1.789-.941-3.429-1.734-4.92s-1.818-2.783-3.073-3.876c-1.257-1.094-2.843-1.904-4.759-2.436v-.199c3.965-1.59 6.823-3.909 8.575-6.959 1.75-3.047 2.627-6.659 2.627-10.834 0-2.717-.48-5.252-1.438-7.604-.959-2.351-2.347-4.423-4.162-6.212-1.818-1.79-4-3.195-6.543-4.225-2.546-1.026-5.402-1.541-8.575-1.541h-38.04v70.974h15.688v-27.733zm0-31.114h16.801c3.569 0 6.246.781 8.03 2.337 1.784 1.558 2.677 4.06 2.677 7.505 0 3.578-.893 6.163-2.677 7.753s-4.461 2.386-8.03 2.386h-16.801v-19.981zm-294.569-55.988h-38.166v-17.395h34.3v-12.128h-34.3v-15.208h37.373v-13.351h-52.936v71.03h53.729v-12.948zm394.985 112.102c3.998-1.822 7.336-4.324 10.014-7.506 2.678-3.181 4.676-6.958 5.996-11.332 1.322-4.373 1.984-9.145 1.984-14.313 0-5.897-.811-11.034-2.43-15.408s-3.865-8.017-6.74-10.935c-2.875-2.914-6.279-5.102-10.211-6.561-3.934-1.457-8.178-2.187-12.738-2.187h-30.533v70.974h30.533c5.418.001 10.127-.909 14.125-2.732zm-29.093-10.388v-44.731h11.102c3.832 0 7.055.547 9.666 1.641 2.609 1.093 4.709 2.668 6.295 4.721 1.588 2.055 2.727 4.523 3.42 7.406.693 2.882 1.041 6.113 1.041 9.691 0 3.91-.494 7.224-1.486 9.939-.99 2.719-2.314 4.92-3.965 6.61-1.652 1.688-3.537 2.899-5.65 3.628-2.115.73-4.297 1.094-6.543 1.094l-13.88.001zm-440.635-2.685h26.468l5.353 15.807h16.158l-26.468-70.974h-15.96l-26.766 70.973h15.663l5.552-15.806zm13.283-37.673h.198l8.922 26.043h-18.339l9.219-26.043zm155.321-71.098l9.037-9.045 21.313 31.735h19.528l-30.334-42.77 27.658-28.261h-19.43l-27.773 29.653v-29.652h-15.448v71.03h15.448v-22.69zm113.917 115.531c2.975 3.314 6.625 5.915 10.954 7.803 4.328 1.889 9.203 2.833 14.622 2.833 5.484 0 10.375-.944 14.671-2.833 4.295-1.889 7.931-4.488 10.905-7.803 2.973-3.312 5.254-7.207 6.84-11.68 1.586-4.474 2.379-9.295 2.379-14.463 0-5.302-.793-10.223-2.379-14.762s-3.867-8.499-6.84-11.878c-2.975-3.38-6.609-6.03-10.905-7.952s-9.187-2.883-14.671-2.883c-5.419 0-10.294.961-14.622 2.883-4.329 1.921-7.979 4.572-10.954 7.952-2.974 3.379-5.254 7.341-6.84 11.878-1.586 4.54-2.379 9.46-2.379 14.762 0 5.168.793 9.989 2.379 14.463 1.586 4.473 3.866 8.368 6.84 11.68zm7.385-35.187c.694-2.916 1.801-5.518 3.321-7.804 1.521-2.287 3.502-4.108 5.948-5.467 2.443-1.356 5.418-2.038 8.922-2.038 3.502 0 6.477.68 8.922 2.038 2.444 1.358 4.427 3.181 5.948 5.467 1.52 2.286 2.627 4.888 3.321 7.804.693 2.916 1.041 5.932 1.041 9.045 0 2.982-.348 5.883-1.041 8.698-.694 2.817-1.803 5.353-3.321 7.604-1.521 2.254-3.503 4.06-5.948 5.417-2.445 1.358-5.419 2.038-8.922 2.038s-6.479-.68-8.922-2.038c-2.446-1.357-4.428-3.164-5.948-5.417-1.521-2.252-2.627-4.787-3.321-7.604-.693-2.815-1.041-5.716-1.041-8.698 0-3.115.347-6.129 1.041-9.045zm-334.516-57.481l11.796-48.309h.198l11.995 48.309h15.466l18.75-71.187h-15l-11.582 49.12h-.198l-12.22-49.12h-14l-12.739 48.523h-.198l-11.063-48.523h-16l19.033 71.187h15.762zm180.559 135.421c-1.08-1.224-2.399-2.185-3.959-2.88-1.562-.695-3.336-1.044-5.328-1.044-1.969 0-3.738.349-5.311 1.044s-2.898 1.656-3.978 2.88-1.908 2.659-2.484 4.302c-.576 1.645-.864 3.428-.864 5.346 0 1.873.288 3.619.864 5.238.576 1.621 1.404 3.031 2.484 4.23s2.406 2.143 3.978 2.826 3.342 1.024 5.311 1.024c1.992 0 3.768-.342 5.328-1.024 1.56-.685 2.879-1.627 3.959-2.826s1.908-2.609 2.484-4.23c.576-1.619.864-3.365.864-5.238 0-1.918-.288-3.701-.864-5.346-.576-1.643-1.404-3.078-2.484-4.302zm-2.682 12.797c-.252 1.021-.654 1.938-1.206 2.754-.552.816-1.272 1.472-2.159 1.964-.889.491-1.969.736-3.24.736-1.272 0-2.354-.245-3.24-.736-.889-.492-1.608-1.146-2.16-1.964-.553-.815-.954-1.733-1.206-2.754s-.378-2.069-.378-3.149c0-1.127.126-2.22.378-3.275.252-1.057.653-1.998 1.206-2.826.552-.828 1.271-1.488 2.16-1.98.888-.489 1.968-.736 3.24-.736 1.271 0 2.352.247 3.24.736.887.492 1.607 1.152 2.159 1.98s.954 1.771 1.206 2.826c.252 1.057.378 2.148.378 3.275 0 1.08-.126 2.13-.378 3.149zm25.452 3.871c-.972 1.058-2.322 1.584-4.05 1.584-1.272 0-2.354-.245-3.24-.737-.889-.492-1.607-1.146-2.16-1.963-.552-.814-.954-1.732-1.206-2.754-.252-1.02-.378-2.07-.378-3.15 0-1.127.126-2.219.378-3.274s.654-1.998 1.206-2.826c.553-.828 1.271-1.487 2.16-1.979.887-.49 1.967-.737 3.24-.737.695 0 1.361.114 1.998.342.636.229 1.205.546 1.71.954.504.408.924.883 1.26 1.422.335.54.552 1.135.647 1.782h5.473c-.168-1.487-.576-2.808-1.225-3.96-.647-1.152-1.471-2.117-2.465-2.898-.996-.779-2.125-1.373-3.385-1.781-1.26-.407-2.598-.611-4.014-.611-1.969 0-3.738.349-5.311 1.044-1.572.696-2.897 1.655-3.978 2.88s-1.908 2.659-2.484 4.303c-.575 1.645-.864 3.426-.864 5.346 0 1.873.289 3.619.864 5.238.576 1.62 1.404 3.03 2.484 4.229 1.08 1.2 2.405 2.143 3.978 2.825 1.572.685 3.342 1.025 5.311 1.025 1.584 0 3.035-.24 4.355-.72s2.473-1.175 3.456-2.088c.984-.911 1.776-2.017 2.376-3.312.6-1.298.973-2.748 1.116-4.356h-5.472c-.214 1.723-.808 3.116-1.78 4.172zm-59.273-19.979h-5.652v25.703h18.18v-4.752h-12.528v-20.951zm-105.371 14.651h12.456v-4.394h-12.456v-5.508h13.572v-4.752h-19.224v25.703h19.512v-4.752h-13.86v-6.297zm179.503-66.12c0-3.977-.842-7.238-2.528-9.792-1.685-2.55-3.685-4.588-5.997-6.112-2.314-1.523-4.645-2.635-6.989-3.33-2.347-.696-4.181-1.176-5.502-1.441-4.428-1.126-8.014-2.053-10.756-2.783-2.743-.729-4.892-1.457-6.442-2.187-1.555-.729-2.596-1.523-3.123-2.386-.529-.86-.793-1.988-.793-3.379 0-1.524.33-2.783.99-3.777s1.504-1.822 2.528-2.485c1.022-.662 2.164-1.126 3.42-1.392 1.254-.264 2.511-.397 3.767-.397 1.918 0 3.685.166 5.305.497 1.619.333 3.056.895 4.312 1.689 1.254.795 2.263 1.889 3.022 3.281.76 1.392 1.205 3.147 1.339 5.268h15.067c0-4.108-.776-7.604-2.33-10.487s-3.651-5.251-6.295-7.106c-2.644-1.854-5.666-3.196-9.069-4.026-3.405-.828-6.957-1.242-10.657-1.242-3.172 0-6.346.432-9.518 1.292-3.172.862-6.015 2.187-8.524 3.977-2.513 1.789-4.545 4.025-6.097 6.709-1.554 2.685-2.33 5.85-2.33 9.494 0 3.248.61 6.014 1.834 8.299 1.222 2.287 2.824 4.192 4.808 5.716 1.983 1.524 4.229 2.768 6.741 3.728 2.511.961 5.088 1.774 7.732 2.437 2.578.729 5.121 1.392 7.633 1.987 2.511.597 4.758 1.293 6.74 2.088s3.584 1.789 4.809 2.981c1.222 1.193 1.834 2.75 1.834 4.672 0 1.789-.463 3.265-1.389 4.423-.926 1.16-2.082 2.072-3.47 2.733-1.388.664-2.875 1.11-4.461 1.342-1.586.233-3.073.349-4.461.349-2.049 0-4.032-.25-5.948-.746-1.916-.498-3.586-1.258-5.006-2.286-1.422-1.027-2.562-2.369-3.42-4.026-.859-1.654-1.289-3.678-1.289-6.062h-15.068c-.066 4.373.727 8.15 2.379 11.332 1.651 3.181 3.881 5.799 6.691 7.852 2.809 2.057 6.047 3.562 9.715 4.523 3.668.959 7.451 1.44 11.352 1.44 4.822 0 9.07-.563 12.738-1.688 3.668-1.127 6.74-2.699 9.219-4.724 2.479-2.02 4.345-4.423 5.601-7.206 1.257-2.787 1.886-5.802 1.886-9.049zm19 51.469h-7.057l-10.044 10.655v-10.655h-5.651v25.703h5.651v-8.279l3.24-3.276 7.739 11.556h7.093l-11.017-15.551 10.046-10.153zm-173.807 0l-9.72 25.703h5.688l2.016-5.725h9.612l1.944 5.725h5.868l-9.612-25.703h-5.796zm-.54 15.767l3.348-9.432h.072l3.24 9.432h-6.66zm51.119-5.616l-6.012-10.151h-6.336l9.432 15.694v10.009h5.652v-9.863l9.54-15.84h-6.3l-5.976 10.151zm38.009-52.575c1.254-2.783 1.883-5.798 1.883-9.045 0-3.977-.843-7.238-2.528-9.792-1.685-2.55-3.685-4.588-5.998-6.112-2.314-1.523-4.644-2.635-6.989-3.33-2.347-.696-4.18-1.176-5.501-1.441-4.429-1.126-8.014-2.053-10.756-2.783-2.743-.729-4.892-1.457-6.444-2.187-1.553-.729-2.594-1.523-3.123-2.386-.53-.86-.793-1.988-.793-3.379 0-1.524.33-2.783.991-3.777.66-.994 1.502-1.822 2.528-2.485 1.024-.662 2.164-1.126 3.42-1.392 1.255-.264 2.511-.397 3.767-.397 1.916 0 3.684.166 5.304.497 1.619.333 3.056.895 4.312 1.689 1.255.795 2.263 1.889 3.024 3.281.759 1.392 1.205 3.147 1.338 5.268h15.068c0-4.108-.778-7.604-2.33-10.487-1.554-2.883-3.653-5.251-6.295-7.106-2.644-1.854-5.667-3.196-9.071-4.026-3.404-.828-6.956-1.242-10.657-1.242-3.172 0-6.344.432-9.517 1.292-3.172.862-6.014 2.187-8.525 3.977-2.513 1.789-4.545 4.025-6.097 6.709-1.554 2.685-2.33 5.85-2.33 9.494 0 3.248.61 6.014 1.834 8.299 1.222 2.287 2.825 4.192 4.808 5.716 1.983 1.524 4.229 2.768 6.741 3.728 2.511.961 5.088 1.774 7.732 2.437 2.578.729 5.121 1.392 7.633 1.987 2.511.597 4.758 1.293 6.741 2.088s3.584 1.789 4.808 2.981c1.222 1.193 1.834 2.75 1.834 4.672 0 1.789-.463 3.265-1.388 4.423-.926 1.16-2.082 2.072-3.47 2.733-1.388.664-2.875 1.11-4.461 1.342-1.586.233-3.073.349-4.461.349-2.049 0-4.032-.25-5.948-.746-1.918-.498-3.586-1.258-5.006-2.286-1.422-1.027-2.562-2.369-3.42-4.026-.86-1.654-1.289-3.678-1.289-6.062h-15.068c-.066 4.373.727 8.15 2.379 11.332 1.651 3.181 3.881 5.799 6.691 7.852 2.808 2.057 6.047 3.562 9.715 4.523 3.667.959 7.45 1.44 11.351 1.44 4.823 0 9.07-.563 12.738-1.688 3.668-1.127 6.741-2.699 9.219-4.724 2.484-2.024 4.35-4.427 5.606-7.21zm-54.029 54.735c-.84-.552-1.686-.954-2.538-1.206-.852-.252-1.518-.426-1.998-.521-1.608-.407-2.911-.744-3.906-1.008-.996-.264-1.776-.527-2.34-.793-.564-.264-.942-.551-1.134-.863-.192-.312-.288-.721-.288-1.225 0-.551.12-1.008.36-1.367s.545-.66.918-.899c.372-.24.786-.408 1.242-.505.456-.096.912-.145 1.368-.145.696 0 1.338.061 1.926.18.588.121 1.11.324 1.566.613.456.287.822.684 1.098 1.188.276.504.438 1.141.486 1.907h5.472c0-1.487-.282-2.754-.846-3.799-.564-1.043-1.326-1.9-2.286-2.574-.96-.67-2.058-1.155-3.294-1.457-1.236-.301-2.526-.449-3.87-.449-1.152 0-2.304.156-3.456.468-1.152.312-2.184.792-3.096 1.438-.913.648-1.65 1.459-2.214 2.432-.564.972-.846 2.118-.846 3.438 0 1.176.222 2.179.666 3.006.444.828 1.026 1.519 1.746 2.07.72.553 1.536 1.002 2.448 1.35.912.349 1.848.644 2.808.883.936.265 1.86.504 2.772.72.912.218 1.728.47 2.448.756.72.289 1.302.648 1.746 1.08.444.433.666.996.666 1.692 0 .646-.168 1.183-.504 1.603-.336.421-.756.75-1.26.989-.504.24-1.044.402-1.62.484-.576.086-1.116.127-1.62.127-.744 0-1.464-.09-2.16-.27-.696-.181-1.302-.456-1.818-.828-.516-.373-.93-.857-1.242-1.459-.312-.6-.468-1.332-.468-2.195h-5.472c-.024 1.584.264 2.951.864 4.104.6 1.152 1.41 2.101 2.43 2.845 1.02.743 2.196 1.291 3.528 1.639s2.706.521 4.122.521c1.751 0 3.294-.202 4.626-.61s2.448-.979 3.348-1.711c.9-.73 1.578-1.603 2.034-2.609.456-1.008.684-2.1.684-3.275 0-1.439-.306-2.623-.918-3.547-.612-.928-1.338-1.667-2.178-2.218zm-69.489-90.917c0-2.915-.446-5.73-1.338-8.449-.892-2.717-2.314-5.135-4.263-7.257-1.95-2.12-4.478-3.827-7.583-5.119-3.107-1.292-6.874-1.938-11.301-1.938h-31.754v70.974h15.397v-25.448h16.357c4.427 0 8.193-.646 11.301-1.938 3.105-1.292 5.633-2.998 7.583-5.12 1.949-2.12 3.371-4.555 4.263-7.307.892-2.747 1.338-5.548 1.338-8.398zm-16.208 5.467c-.761 1.393-1.769 2.471-3.023 3.23-1.256.763-2.711 1.277-4.362 1.541-1.653.266-3.371.396-5.155.396h-12.094v-21.271h12.094c1.784 0 3.502.133 5.155.396 1.651.266 3.105.78 4.362 1.541 1.254.764 2.263 1.84 3.023 3.231.759 1.392 1.14 3.215 1.14 5.467 0 2.255-.381 4.077-1.14 5.469z"/></svg>