<svg xmlns="http://www.w3.org/2000/svg" width="1200" height="320" viewBox="0 0 1200 320"><path fill="#fff" d="M206.635 180.766c0-6.881-1.462-12.526-4.386-16.942-2.924-4.413-6.394-7.938-10.406-10.578-4.015-2.636-8.057-4.558-12.126-5.762-4.072-1.204-7.253-2.034-9.546-2.494-7.684-1.948-13.905-3.553-18.662-4.816-4.76-1.26-8.487-2.521-11.18-3.784-2.695-1.261-4.501-2.637-5.418-4.128-.919-1.489-1.376-3.44-1.376-5.848 0-2.636.572-4.816 1.72-6.536 1.145-1.72 2.607-3.152 4.386-4.3 1.776-1.145 3.754-1.949 5.934-2.408 2.177-.457 4.356-.688 6.536-.688 3.324 0 6.391.288 9.202.86 2.809.575 5.303 1.548 7.482 2.924 2.177 1.376 3.926 3.268 5.246 5.676 1.317 2.408 2.091 5.628 2.322 9.297h26.144c0-7.108-1.349-13.339-4.042-18.327-2.696-4.988-6.337-9.086-10.922-12.298-4.588-3.208-9.834-5.531-15.738-6.966-5.908-1.433-12.07-2.15-18.49-2.15-5.505 0-11.008.747-16.512 2.236-5.504 1.492-10.436 3.784-14.792 6.88-4.359 3.096-7.885 6.966-10.578 11.61-2.696 4.644-4.042 10.121-4.042 16.426 0 5.62 1.059 10.406 3.182 14.362 2.121 3.956 4.902 7.253 8.342 9.89 3.44 2.639 7.337 4.789 11.696 6.45 4.356 1.665 8.828 3.069 13.416 4.213 4.472 1.264 8.885 2.408 13.244 3.44 4.356 1.032 8.256 2.236 11.696 3.612 3.44 1.376 6.219 3.096 8.342 5.16 2.121 2.063 3.182 4.76 3.182 8.084 0 3.096-.804 5.648-2.408 7.654-1.607 2.006-3.612 3.584-6.021 4.729-2.408 1.147-4.988 1.921-7.74 2.321-2.752.404-5.332.603-7.74.603-3.556 0-6.996-.43-10.32-1.29-3.327-.859-6.222-2.177-8.686-3.956-2.467-1.776-4.445-4.098-5.934-6.966-1.491-2.865-2.236-6.725-2.236-10.854h-26.143c-.116 7.568 1.26 14.465 4.128 19.97 2.865 5.504 6.735 10.034 11.61 13.588 4.872 3.556 10.492 6.165 16.856 7.826 6.364 1.661 12.927 2.493 19.694 2.493 8.369 0 15.738-.976 22.102-2.924 6.364-1.947 11.696-4.67 15.996-8.17 4.3-3.496 7.538-7.654 9.718-12.47 2.176-4.813 3.268-10.03 3.268-15.649zm119.71 36.463v-122.989h-25.284v82.568h-.705l-51.256-82.568h-26.832v122.988h24.923v-82.215h.705l51.084 82.215h27.365zm50.739-123.169h-27.004v123.168h27.004v-123.168zm50.017 72.068h52.15v-20.984h-52.15v-27.838h60.062l.181-23.246h-86.164v123.168h25.921v-51.1zm102.175.181h51.97v-20.984h-51.97v-28.018h59.881v-23.247h-86.163v123.168h26.282v-50.919zm102.896-72.069h-27.004v122.988h27.004v-122.988zm126.911 122.989v-122.989h-24.924v82.568h-.523l-51.256-82.568h-26.292v122.988h25.106v-82.188l51.064 82.188h26.825zm78.955 2.751c5.961 0 11.869-1.232 17.717-3.697 5.85-2.465 11.18-6.794 15.996-12.986l2.752 13.932h17.742v-66.03h-52.143v20.124h27.176c-.805 8.6-3.643 14.804-8.514 19.333-4.875 4.53-11.781 6.794-20.727 6.794-6.08 0-11.24-1.176-15.48-3.526-4.242-2.349-7.684-5.474-10.318-9.374-2.641-3.896-4.559-8.283-5.764-13.158-1.203-4.873-1.807-9.89-1.807-15.05 0-5.388.604-10.604 1.807-15.652 1.205-5.044 3.123-9.546 5.764-13.502 2.637-3.956 6.076-7.108 10.318-9.46 4.24-2.349 9.4-3.526 15.48-3.526 6.535 0 12.096 1.72 16.684 5.16 4.586 3.44 7.682 9.142 9.289 16.021h25.801c-.689-6.993-2.58-13.727-5.678-19.118-3.096-5.389-7.023-9.917-11.781-13.588-4.76-3.668-10.092-6.45-15.996-8.342-5.906-1.892-12.012-2.838-18.318-2.838-9.402 0-17.859 1.664-25.369 4.988-7.512 3.327-13.846 7.912-19.006 13.76s-9.115 12.701-11.867 20.554c-2.754 7.856-4.129 16.37-4.129 25.542 0 8.944 1.375 17.286 4.129 25.026 2.752 7.74 6.707 14.479 11.867 20.21 5.16 5.735 11.494 10.233 19.006 13.502 7.51 3.269 15.967 4.901 25.369 4.901zm-716.499 47.857c-.84-.552-1.686-.954-2.538-1.206-.853-.252-1.519-.426-1.998-.522-1.608-.407-2.911-.743-3.906-1.008-.996-.264-1.776-.527-2.34-.791-.564-.265-.942-.553-1.134-.864-.192-.312-.288-.72-.288-1.224 0-.553.12-1.009.36-1.369.24-.359.545-.66.918-.899.372-.24.786-.408 1.242-.504.456-.097.912-.144 1.368-.144.696 0 1.338.06 1.926.18.587.121 1.11.324 1.566.611.456.289.822.685 1.098 1.188s.438 1.14.486 1.907h5.472c0-1.487-.282-2.754-.846-3.797-.564-1.045-1.327-1.902-2.286-2.574-.96-.672-2.058-1.157-3.294-1.458-1.236-.3-2.526-.45-3.87-.45-1.152 0-2.304.156-3.456.468s-2.184.792-3.096 1.44c-.913.648-1.65 1.458-2.214 2.43-.564.973-.846 2.119-.846 3.438 0 1.177.222 2.179.666 3.007.444.827 1.026 1.519 1.746 2.069.72.553 1.536 1.002 2.448 1.351.912.348 1.848.642 2.808.882.936.264 1.859.504 2.772.721.912.215 1.728.467 2.448.756.72.287 1.301.647 1.746 1.08.444.432.666.996.666 1.691 0 .648-.168 1.182-.504 1.602s-.756.75-1.26.99-1.044.402-1.62.486c-.576.084-1.116.126-1.62.126-.744 0-1.464-.09-2.16-.271-.696-.18-1.302-.455-1.818-.828-.516-.371-.93-.857-1.242-1.457-.312-.601-.468-1.332-.468-2.196h-5.473c-.024 1.584.264 2.952.864 4.104.6 1.151 1.41 2.1 2.43 2.844s2.196 1.291 3.528 1.638c1.332.347 2.706.522 4.122.522 1.751 0 3.294-.205 4.626-.612 1.332-.408 2.448-.978 3.348-1.71.9-.731 1.578-1.603 2.034-2.61s.684-2.101.684-3.276c0-1.439-.306-2.621-.918-3.545-.612-.926-1.338-1.663-2.177-2.216zm4.427-7.561h7.704v20.953h5.652v-20.953h7.704v-5.064h-21.06v5.064zm44.82-1.439c-1.08-1.224-2.4-2.184-3.96-2.88-1.561-.696-3.336-1.044-5.328-1.044-1.968 0-3.738.348-5.31 1.044-1.572.696-2.898 1.656-3.978 2.88-1.08 1.225-1.908 2.659-2.484 4.303s-.864 3.426-.864 5.346c0 1.871.288 3.617.864 5.238.576 1.619 1.404 3.029 2.484 4.229s2.406 2.142 3.978 2.826c1.572.684 3.342 1.026 5.31 1.026 1.992 0 3.768-.343 5.328-1.026 1.56-.685 2.88-1.625 3.96-2.826 1.08-1.2 1.908-2.61 2.484-4.229.576-1.621.864-3.367.864-5.238 0-1.92-.288-3.702-.864-5.346s-1.404-3.078-2.484-4.303zm-2.682 12.799c-.252 1.02-.654 1.938-1.206 2.754-.552.815-1.272 1.469-2.16 1.961-.889.492-1.968.738-3.24.738s-2.353-.246-3.24-.738c-.888-.492-1.608-1.146-2.16-1.961-.552-.816-.954-1.734-1.206-2.754-.252-1.021-.378-2.07-.378-3.15 0-1.127.126-2.219.378-3.276.252-1.056.654-1.998 1.206-2.826.552-.827 1.271-1.487 2.16-1.979.888-.491 1.968-.738 3.24-.738s2.352.247 3.24.738c.887.492 1.607 1.152 2.16 1.979.552.828.954 1.771 1.206 2.826.252 1.058.378 2.147.378 3.276 0 1.079-.126 2.129-.378 3.15zm15.534-16.425h-5.652v26.019h18.18v-4.752h-12.528v-21.267zm21.347 14.966h12.456v-4.392h-12.456v-5.509h13.572v-5.064h-19.224v26.018h19.512v-4.752h-13.86v-6.301zm34.092 2.592h-.072l-10.728-17.558h-5.616v26.019h5.292v-17.209h.072l10.692 17.209h5.652v-26.019h-5.292v17.558zm39.69-14.077c-1.044-1.055-2.28-2.16-3.708-2.688s-2.97-.792-4.626-.792h-11.088v26.018h11.088c1.968 0 3.678-.33 5.13-.989 1.452-.66 2.664-1.566 3.636-2.718s1.698-2.521 2.178-4.104c.479-1.584.72-3.312.72-5.185 0-2.135-.294-3.995-.882-5.579-.588-1.586-1.404-2.906-2.448-3.963zm-2.862 13.681c-.36.983-.84 1.782-1.44 2.394-.6.612-1.284 1.051-2.052 1.314s-1.56.396-2.376.396h-5.04v-16.201h4.032c1.392 0 2.562.199 3.51.595s1.71.966 2.286 1.71c.576.744.99 1.639 1.242 2.682.252 1.045.378 2.215.378 3.51 0 1.415-.18 2.617-.54 3.6zm17.136-17.162l-9.72 26.019h5.688l2.016-5.725h9.612l1.944 5.725h5.868l-9.612-26.019h-5.796zm-.54 16.082l3.348-9.432h.072l3.24 9.432h-6.66zm33.912-16.082h-21.06v5.065h7.704v20.951h5.652v-20.951h7.704v-5.065zm6.66 0l-9.72 26.019h5.688l2.016-5.725h9.612l1.944 5.725h5.868l-9.612-26.019h-5.796zm-.54 16.082l3.348-9.432h.072l3.24 9.432h-6.66zm45.108-3.456c-.84-.552-1.687-.954-2.538-1.206-.852-.252-1.518-.426-1.998-.522-1.608-.407-2.91-.743-3.906-1.008-.996-.264-1.776-.527-2.34-.791-.564-.265-.942-.553-1.134-.864-.192-.312-.288-.72-.288-1.224 0-.553.12-1.009.36-1.369.24-.359.546-.66.918-.899.372-.24.786-.408 1.242-.504.456-.097.912-.144 1.368-.144.696 0 1.337.06 1.926.18.588.121 1.11.324 1.566.611.456.289.822.685 1.098 1.188.275.504.438 1.14.486 1.907h5.472c0-1.487-.282-2.754-.846-3.797-.564-1.045-1.326-1.902-2.286-2.574s-2.059-1.157-3.294-1.458c-1.237-.3-2.526-.45-3.87-.45-1.152 0-2.304.156-3.456.468s-2.184.792-3.096 1.44c-.912.648-1.65 1.458-2.214 2.43-.564.973-.846 2.119-.846 3.438 0 1.177.222 2.179.666 3.007.444.827 1.026 1.519 1.746 2.069.72.553 1.536 1.002 2.448 1.351.912.348 1.848.642 2.808.882.936.264 1.86.504 2.772.721.912.215 1.728.467 2.448.756.72.287 1.302.647 1.746 1.08.444.432.666.996.666 1.691 0 .648-.168 1.182-.504 1.602s-.756.75-1.26.99-1.044.402-1.62.486c-.576.084-1.116.126-1.62.126-.745 0-1.464-.09-2.16-.271-.696-.18-1.302-.455-1.818-.828-.517-.371-.931-.857-1.242-1.457-.312-.601-.468-1.332-.468-2.196h-5.472c-.024 1.584.264 2.952.864 4.104.6 1.151 1.41 2.1 2.43 2.844s2.196 1.291 3.528 1.638c1.332.347 2.706.522 4.122.522 1.752 0 3.294-.205 4.626-.612 1.332-.408 2.448-.978 3.348-1.71.9-.731 1.578-1.603 2.034-2.61s.684-2.101.684-3.276c0-1.439-.306-2.621-.918-3.545-.612-.926-1.338-1.663-2.178-2.216zm4.427-7.561h7.704v20.953h5.652v-20.953h7.704v-5.064h-21.06v5.064zm24.012 20.953h5.652v-26.019h-5.652v26.019zm27.036-8.46h-.072l-10.728-17.558h-5.616v26.019h5.292v-17.209h.072l10.692 17.209h5.652v-26.019h-5.292v17.558zm33.117-17.558h-7.056l-10.044 10.97v-10.97h-5.652v26.019h5.652v-8.28l3.24-3.276 7.74 11.557h7.092l-11.016-15.553 10.044-10.467zm20.055 12.626c-.84-.552-1.687-.954-2.538-1.206-.852-.252-1.518-.426-1.998-.522-1.608-.407-2.91-.743-3.906-1.008-.996-.264-1.776-.527-2.34-.791-.564-.265-.942-.553-1.134-.864-.192-.312-.288-.72-.288-1.224 0-.553.12-1.009.36-1.369.24-.359.546-.66.918-.899.372-.24.786-.408 1.242-.504.456-.097.912-.144 1.368-.144.696 0 1.337.06 1.926.18.588.121 1.11.324 1.566.611.456.289.822.685 1.098 1.188s.438 1.14.486 1.907h5.472c0-1.487-.282-2.754-.846-3.797-.564-1.045-1.326-1.902-2.286-2.574s-2.059-1.157-3.294-1.458c-1.236-.3-2.526-.45-3.87-.45-1.152 0-2.304.156-3.456.468s-2.184.792-3.096 1.44c-.912.648-1.65 1.458-2.214 2.43-.564.973-.846 2.119-.846 3.438 0 1.177.222 2.179.667 3.007.443.827 1.026 1.519 1.746 2.069.72.553 1.536 1.002 2.448 1.351.912.348 1.848.642 2.808.882.937.264 1.86.504 2.772.721.912.215 1.728.467 2.448.756.72.287 1.302.647 1.746 1.08.444.432.666.996.666 1.691 0 .648-.168 1.182-.504 1.602s-.756.75-1.26.99-1.044.402-1.62.486c-.576.084-1.116.126-1.62.126-.744 0-1.464-.09-2.16-.271-.696-.18-1.302-.455-1.818-.828-.517-.371-.931-.857-1.242-1.457-.312-.601-.468-1.332-.468-2.196h-5.472c-.024 1.584.264 2.952.864 4.104.6 1.151 1.41 2.1 2.43 2.844s2.196 1.291 3.528 1.638 2.706.522 4.122.522c1.752 0 3.294-.205 4.626-.612 1.332-.408 2.448-.978 3.348-1.71.9-.731 1.578-1.603 2.034-2.61s.684-2.101.684-3.276c0-1.439-.306-2.621-.918-3.545-.614-.926-1.34-1.663-2.179-2.216z"/></svg>