<svg xmlns="http://www.w3.org/2000/svg" width="1200" height="320" viewBox="0 0 1200 320"><path fill="#fff" d="M366.129 258.494c-1.08-1.225-2.4-2.184-3.96-2.881-1.561-.695-3.336-1.043-5.328-1.043-1.968 0-3.738.348-5.31 1.043-1.572.697-2.898 1.656-3.978 2.881s-1.908 2.658-2.484 4.303c-.576 1.643-.864 3.426-.864 5.346 0 1.871.288 3.617.864 5.238.576 1.619 1.404 3.029 2.484 4.229 1.08 1.201 2.406 2.143 3.978 2.826s3.342 1.027 5.31 1.027c1.992 0 3.768-.344 5.328-1.027 1.56-.684 2.88-1.625 3.96-2.826 1.08-1.199 1.908-2.609 2.484-4.229.575-1.621.863-3.367.863-5.238 0-1.92-.288-3.703-.863-5.346-.575-1.645-1.404-3.078-2.484-4.303zm-2.681 12.799c-.252 1.02-.654 1.938-1.207 2.754-.552.814-1.271 1.469-2.16 1.961-.889.492-1.968.738-3.24.738s-2.353-.246-3.24-.738c-.888-.492-1.608-1.146-2.16-1.961-.552-.816-.954-1.734-1.206-2.754-.252-1.021-.378-2.07-.378-3.15 0-1.127.126-2.219.378-3.277.252-1.055.654-1.998 1.206-2.826.552-.826 1.271-1.486 2.16-1.979.888-.492 1.968-.738 3.24-.738s2.352.246 3.24.738c.887.492 1.607 1.152 2.16 1.979.553.828.955 1.771 1.207 2.826.252 1.059.377 2.148.377 3.277 0 1.08-.125 2.128-.377 3.15zm-223.892-54.407h27.004l-.048-100h37v-23h-101v23h37l.044 100zm255.031 61.048c-.062-.576-.103-1.139-.126-1.691-.024-.553-.049-1.031-.072-1.439-.048-.648-.138-1.297-.27-1.945-.133-.646-.342-1.242-.631-1.781-.287-.541-.66-1.008-1.115-1.404-.457-.396-1.032-.689-1.729-.883v-.07c1.44-.576 2.478-1.416 3.114-2.521.636-1.104.954-2.412.954-3.924 0-.984-.175-1.902-.522-2.754s-.852-1.602-1.512-2.25-1.452-1.156-2.376-1.529-1.962-.559-3.114-.559h-13.859v25.705h5.651v-10.045h5.652c1.416 0 2.437.312 3.06.936.625.625 1.032 1.609 1.225 2.953.144 1.031.252 2.111.324 3.24.071 1.127.264 2.1.576 2.916h5.651c-.265-.361-.462-.799-.594-1.314s-.227-1.065-.287-1.641zm-6.498-11.989c-.648.576-1.62.865-2.916.865h-6.192v-7.236h6.192c1.296 0 2.269.281 2.916.846s.972 1.471.972 2.719c0 1.295-.324 2.23-.972 2.806zm62.316 6.481h-.071l-10.729-17.244h-5.616v25.705h5.293v-17.209h.071l10.692 17.209h5.652v-25.705h-5.293v17.244zm-34.057-17.244l-9.72 25.705h5.688l2.017-5.725h9.611l1.944 5.725h5.868l-9.612-25.705h-5.796zm-.54 15.767l3.349-9.432h.071l3.24 9.432h-6.66zm-172.257-3.455c-.84-.553-1.686-.955-2.538-1.207-.853-.252-1.519-.426-1.998-.521-1.608-.408-2.911-.744-3.906-1.008-.996-.264-1.776-.527-2.34-.791-.564-.266-.942-.553-1.134-.865s-.288-.719-.288-1.223c0-.553.12-1.01.36-1.369s.545-.66.918-.9c.372-.24.786-.408 1.242-.504s.912-.144 1.368-.144c.696 0 1.338.06 1.926.181.588.12 1.11.323 1.566.611.456.289.822.684 1.098 1.188.275.504.438 1.141.486 1.908h5.472c0-1.488-.283-2.754-.846-3.798-.564-1.044-1.326-1.901-2.286-2.573s-2.058-1.158-3.294-1.459c-1.236-.3-2.526-.449-3.87-.449-1.152 0-2.304.156-3.456.467-1.152.312-2.184.793-3.096 1.441-.912.647-1.65 1.457-2.214 2.43s-.846 2.119-.846 3.438c0 1.176.222 2.178.666 3.006.444.828 1.026 1.52 1.746 2.07.72.553 1.536 1.002 2.448 1.35.912.348 1.848.643 2.808.883.936.264 1.86.504 2.772.721.912.215 1.728.467 2.448.756.72.287 1.301.646 1.746 1.08.444.432.666.994.666 1.691 0 .648-.168 1.182-.504 1.602s-.756.75-1.26.99-1.044.402-1.62.486c-.576.084-1.116.125-1.62.125-.744 0-1.464-.09-2.16-.27-.697-.18-1.302-.455-1.818-.828-.516-.371-.93-.857-1.242-1.457-.312-.602-.468-1.332-.468-2.197h-5.472c-.024 1.584.264 2.953.864 4.105.6 1.15 1.41 2.1 2.43 2.844s2.196 1.291 3.528 1.637c1.332.348 2.706.523 4.122.523 1.751 0 3.294-.205 4.626-.613 1.332-.408 2.448-.979 3.348-1.709.9-.732 1.578-1.604 2.034-2.611s.684-2.1.684-3.275c0-1.439-.306-2.621-.918-3.545-.612-.928-1.339-1.664-2.178-2.217zm46.403-7.56h7.704v20.953h5.652v-20.953h7.704v-4.752h-21.06v4.752zm-8.604 20.953h5.652v-25.705h-5.652v25.705zm-168.334-25.705l-9.72 25.705h5.688l2.016-5.725h9.612l1.944 5.725h5.868l-9.612-25.705h-5.796zm-.54 15.767l3.348-9.432h.072l3.24 9.432h-6.66zm82.745 6.985c-.06-.576-.103-1.139-.126-1.691-.024-.553-.048-1.031-.072-1.439-.049-.648-.139-1.297-.27-1.945-.132-.646-.342-1.242-.63-1.781-.288-.541-.66-1.008-1.116-1.404-.457-.396-1.032-.689-1.728-.883v-.07c1.44-.576 2.478-1.416 3.114-2.521.636-1.104.954-2.412.954-3.924 0-.984-.174-1.902-.522-2.754s-.852-1.602-1.512-2.25c-.66-.648-1.452-1.156-2.376-1.529-.924-.373-1.962-.559-3.114-.559h-13.86v25.705h5.652v-10.045h5.652c1.416 0 2.436.312 3.06.936.624.625 1.032 1.609 1.224 2.953.144 1.031.252 2.111.324 3.24.072 1.127.264 2.1.576 2.916h5.652c-.264-.361-.462-.799-.594-1.314s-.228-1.065-.288-1.641zm-6.498-11.989c-.648.576-1.62.865-2.916.865h-6.192v-7.236h6.192c1.296 0 2.268.281 2.916.846s.972 1.471.972 2.719c.001 1.295-.324 2.23-.972 2.806zm27.396 5.221c0 1.92-.384 3.33-1.152 4.229-.769.9-2.16 1.35-4.176 1.35-1.152 0-2.07-.16-2.754-.484s-1.218-.744-1.602-1.26c-.384-.518-.636-1.111-.756-1.783-.121-.672-.18-1.355-.18-2.053v-15.983h-5.652v15.983c0 3.506.954 6.098 2.862 7.777 1.908 1.68 4.602 2.52 8.082 2.52 3.432 0 6.12-.846 8.064-2.537 1.944-1.693 2.916-4.279 2.916-7.758v-15.985h-5.652v15.984zm43.883 9.721h5.652v-10.621h10.764v-4.393h-10.764v-5.939h12.42v-4.752h-18.072v25.705zm-96.658 0h5.652v-25.705h-5.652v25.705zm155.692-78.106c-.287-2.752-.489-5.444-.602-8.084-.116-2.635-.231-4.928-.344-6.879-.231-3.097-.661-6.192-1.29-9.289-.631-3.096-1.634-5.934-3.01-8.514s-3.155-4.816-5.332-6.708c-2.18-1.892-4.932-3.295-8.256-4.214v-.344c6.88-2.752 11.839-6.765 14.878-12.04 3.037-5.273 4.558-11.524 4.558-18.748 0-4.701-.833-9.086-2.494-13.158-1.664-4.069-4.072-7.654-7.224-10.75-3.155-3.096-6.939-5.531-11.352-7.31-4.416-1.776-9.553-2.858-15.057-2.858h-66l-.042 123h27.043v-48l26.967.013c6.764 0 11.637 1.49 14.62 4.471 2.98 2.984 4.929 7.685 5.848 14.104.688 4.933 1.204 10.093 1.548 15.479.344 5.392 1.26 10.035 2.752 13.933h27.004c-1.263-1.72-2.209-3.812-2.838-6.278-.632-2.462-1.091-5.074-1.377-7.826zm-31.045-57.275c-3.096 2.752-7.287 4.38-13.479 4.38h-30v-34h30c6.192 0 10.383.525 13.479 3.218 3.096 2.696 4.644 7.025 4.644 12.986 0 6.192-1.548 10.664-4.644 13.416zm-138.471 127.748h-.072l-5.724-18.072h-5.796l8.316 25.705h6.372l8.532-25.705h-5.832l-5.796 18.072zm174.453 7.633h5.652v-10.621h10.764v-4.393h-10.764v-5.939h12.42v-4.752h-18.072v25.705zm117.096-170.985c-5.16-5.848-11.469-10.433-18.921-13.76-7.454-3.324-15.939-4.988-25.456-4.988-9.404 0-17.861 1.664-25.369 4.988-7.513 3.327-13.847 7.912-19.006 13.76-5.16 5.848-9.116 12.701-11.868 20.554-2.752 7.856-4.128 16.37-4.128 25.542 0 8.944 1.376 17.286 4.128 25.026s6.708 14.479 11.868 20.211c5.16 5.734 11.494 10.233 19.006 13.502 7.508 3.268 15.965 4.901 25.369 4.901 9.516 0 18.002-1.634 25.456-4.901 7.452-3.269 13.761-7.768 18.921-13.502 5.159-5.732 9.115-12.471 11.867-20.211s4.128-16.082 4.128-25.026c0-9.172-1.376-17.686-4.128-25.542-2.752-7.853-6.708-14.706-11.867-20.554zm-12.815 61.146c-1.204 4.875-3.126 9.261-5.762 13.157-2.64 3.9-6.08 7.025-10.32 9.375-4.244 2.352-9.404 3.525-15.48 3.525-6.078 0-11.238-1.175-15.479-3.525-4.244-2.35-7.685-5.475-10.32-9.375-2.639-3.896-4.558-8.282-5.762-13.157-1.204-4.873-1.806-9.89-1.806-15.05 0-5.388.602-10.604 1.806-15.652 1.204-5.044 3.123-9.546 5.762-13.502 2.638-3.956 6.077-7.108 10.32-9.46 4.241-2.349 9.401-3.526 15.479-3.526 6.076 0 11.236 1.177 15.48 3.526 4.24 2.352 7.681 5.504 10.32 9.46 2.636 3.956 4.558 8.458 5.762 13.502 1.204 5.047 1.806 10.264 1.806 15.652 0 5.16-.602 10.177-1.806 15.05zm285.258-36.162l1.035-.216 50.965 82.216h27v-123h-25v83l-.504-.42-51.496-82.58h-27v123h25v-82zm-109-41l-46.312 123h27.177l9.136-28h46l9.709 28h28.035l-45.744-123h-28.001zm-2 75l15.545-44.536h.344l15.111 44.536h-31zm-78.344 93.153c.552-.826 1.271-1.486 2.16-1.979.888-.492 1.968-.738 3.239-.738.696 0 1.362.113 1.998.342s1.206.547 1.71.953c.504.41.924.883 1.261 1.422.336.541.552 1.135.647 1.783h5.472c-.168-1.488-.575-2.809-1.224-3.961-.648-1.151-1.47-2.117-2.466-2.897s-2.124-1.374-3.384-1.782c-1.261-.408-2.599-.611-4.015-.611-1.968 0-3.737.348-5.31 1.043-1.572.697-2.898 1.656-3.979 2.881s-1.907 2.658-2.483 4.303c-.576 1.643-.864 3.426-.864 5.346 0 1.871.288 3.617.864 5.238.576 1.619 1.403 3.029 2.483 4.229 1.08 1.201 2.406 2.143 3.979 2.826s3.342 1.027 5.31 1.027c1.584 0 3.036-.24 4.356-.721s2.472-1.176 3.456-2.088c.983-.912 1.775-2.016 2.376-3.312.6-1.295.972-2.748 1.116-4.355h-5.47c-.216 1.729-.81 3.119-1.782 4.176s-2.321 1.584-4.05 1.584c-1.271 0-2.353-.246-3.239-.738-.889-.492-1.608-1.146-2.16-1.961-.554-.816-.954-1.734-1.206-2.754-.252-1.021-.378-2.07-.378-3.15 0-1.127.126-2.219.378-3.277.251-1.057.653-2.001 1.205-2.829zm40.986 4.158c.637-1.104.954-2.412.954-3.924 0-.984-.175-1.902-.521-2.754-.349-.852-.853-1.602-1.512-2.25-.661-.648-1.453-1.156-2.377-1.529s-1.962-.559-3.113-.559h-13.86v25.705h5.652v-10.045h5.651c1.416 0 2.437.312 3.061.936.624.625 1.031 1.609 1.224 2.953.145 1.031.252 2.111.324 3.24.072 1.127.264 2.1.576 2.916h5.651c-.265-.361-.462-.799-.594-1.314s-.228-1.062-.288-1.639-.103-1.139-.126-1.691l-.071-1.439c-.049-.648-.14-1.297-.271-1.945-.132-.646-.342-1.242-.63-1.781-.288-.541-.661-1.008-1.116-1.404-.456-.396-1.032-.689-1.728-.883v-.07c1.439-.577 2.477-1.417 3.114-2.523zm-5.67-.252c-.647.576-1.62.865-2.916.865h-6.191v-7.236h6.191c1.296 0 2.269.281 2.916.846.648.564.973 1.471.973 2.719-.001 1.295-.325 2.23-.973 2.806zm-89.243-.611l-6.012-10.152h-6.336l9.432 15.697v10.008h5.652v-9.865l9.54-15.84h-6.3l-5.976 10.152zm58.031-49.91c5.389-2.809 9.517-6.305 12.385-10.492 2.864-4.184 4.7-8.686 5.504-13.502.801-4.816 1.352-9.529 1.352-13.544v-84h-27v83c0 2.181-.238 4.541-.41 6.89-.172 2.353-.688 4.531-1.548 6.537-.86 2.008-2.266 3.641-4.214 4.901-1.951 1.263-4.703 1.892-8.256 1.892-3.212 0-5.821-.516-7.826-1.548-2.008-1.032-3.585-2.435-4.73-4.214-1.146-1.775-1.951-3.926-2.408-6.449-.459-2.521-.607-5.025-.607-8.009v-6h-24v11c0 6.767.641 12.44 2.936 17.198 2.293 4.759 5.332 8.658 9.116 11.695 3.784 3.041 8.084 5.275 12.9 6.709 4.815 1.432 9.888 2.397 15.048 2.397 9.17.001 16.367-1.653 21.758-4.461zm-14.256 61.105c.456-1.008.684-2.1.684-3.275 0-1.439-.306-2.621-.918-3.545-.611-.926-1.338-1.662-2.178-2.215s-1.686-.955-2.538-1.207c-.852-.252-1.518-.426-1.998-.521-1.607-.408-2.911-.744-3.905-1.008-.996-.264-1.776-.527-2.341-.791-.563-.266-.941-.553-1.134-.865-.191-.312-.288-.719-.288-1.223 0-.553.12-1.01.36-1.369s.546-.66.918-.9.786-.408 1.242-.504.912-.144 1.368-.144c.695 0 1.338.06 1.926.181.588.12 1.11.323 1.565.611.456.289.822.684 1.099 1.188.274.504.438 1.141.485 1.908h5.473c0-1.488-.283-2.754-.847-3.798s-1.325-1.901-2.285-2.573-2.059-1.158-3.294-1.459c-1.236-.3-2.526-.449-3.87-.449-1.152 0-2.305.156-3.456.467-1.152.312-2.186.793-3.096 1.441-.914.647-1.65 1.457-2.215 2.43-.563.973-.846 2.119-.846 3.438 0 1.176.222 2.178.666 3.006.443.828 1.025 1.52 1.746 2.07.72.553 1.535 1.002 2.448 1.35.911.348 1.848.643 2.808.883.936.264 1.86.504 2.771.721.912.215 1.729.467 2.448.756.72.287 1.302.646 1.746 1.08.444.432.666.994.666 1.691 0 .648-.168 1.182-.504 1.602s-.756.75-1.26.99-1.044.402-1.62.486-1.116.125-1.62.125c-.744 0-1.464-.09-2.16-.27s-1.302-.455-1.817-.828c-.517-.371-.931-.857-1.242-1.457-.312-.602-.469-1.332-.469-2.197h-5.472c-.024 1.584.265 2.953.864 4.105.6 1.15 1.41 2.1 2.43 2.844 1.021.744 2.196 1.291 3.528 1.637 1.332.348 2.706.523 4.122.523 1.751 0 3.294-.205 4.626-.613s2.448-.979 3.348-1.709c.902-.734 1.58-1.605 2.036-2.613zm108.718-12.851l10.691 17.209h5.652v-25.705h-5.291v17.244h-.072l-10.729-17.244h-5.617v25.705h5.293v-17.209h.073zm-9.466-3.744v-4.752h-19.224v25.705h19.511v-4.752h-13.86v-6.301h12.456v-4.393h-12.456v-5.508h13.573zm-23.329 0v-4.752h-19.224v25.705h19.512v-4.752h-13.859v-6.301h12.455v-4.393h-12.455v-5.508h13.571z"/></svg>