<svg xmlns="http://www.w3.org/2000/svg" width="1200" height="320" viewBox="0 0 1200 320"><path fill="#fff" d="M370.068 156.004v70.973h50.062v-13.121h-34.498v-57.852h-15.564zm479.834 106.83c.145-.562.365-1.057.666-1.477.3-.42.685-.756 1.151-1.008s1.025-.377 1.674-.377c.96 0 1.71.264 2.25.791.54.528.812 1.344.812 2.448.022.647-.091 1.188-.343 1.62s-.582.828-.989 1.188c-.409.36-.854.721-1.332 1.08-.48.36-.938.787-1.368 1.278-.433.492-.811 1.086-1.134 1.782-.324.695-.522 1.561-.595 2.592v1.62h4.859v-1.368c.097-.72.33-1.32.702-1.8s.798-.905 1.278-1.278c.479-.371.989-.744 1.529-1.115.54-.373 1.03-.822 1.477-1.351.443-.526.815-1.164 1.115-1.908.3-.743.45-1.692.45-2.844 0-.696-.15-1.444-.45-2.25-.3-.804-.798-1.554-1.494-2.25s-1.614-1.278-2.754-1.746c-1.141-.468-2.562-.702-4.267-.702-1.319 0-2.515.223-3.582.666-1.067.444-1.979 1.062-2.735 1.854-.756.793-1.345 1.729-1.765 2.809s-.643 2.268-.666 3.564h5.292c.005-.648.076-1.254.219-1.818zm-200.445-6.462h-21.061v4.752h7.703v20.952h5.652v-20.952h7.704l.002-4.752zm-271.061-202.372h-15.563v71.046h15.563v-71.046zm190.828 40.647h28.648v30.616h15.562v-71.19h-15.562v27.454h-28.648v-27.527h-15.564v71.263h15.563v-30.616zm-61.051 30.471h15.927v-57.707h21.069v-13.411h-57.992v13.411h20.996v57.707zm-26.385 44.007v-13.121h-52.937v70.973h53.729v-13.121h-38.165v-17.396h34.3v-12.127h-34.3v-15.208h37.373zm-75.14-91.376h.197l29.441 47.369h15.564v-71.045h-14.572v47.831h-.198l-29.54-47.904h-15.464v71.046h14.572v-47.297zm134.234 198.44c-.385-.516-.637-1.109-.756-1.781-.121-.672-.181-1.355-.181-2.053v-15.983h-5.651v15.983c0 3.504.953 6.097 2.861 7.776 1.907 1.681 4.602 2.521 8.082 2.521 3.432 0 6.12-.846 8.063-2.538s2.916-4.278 2.916-7.759v-15.983h-5.652v15.983c0 1.92-.385 3.33-1.151 4.229-.769.899-2.16 1.351-4.176 1.351-1.152 0-2.07-.162-2.754-.486-.684-.324-1.218-.742-1.601-1.26zm75.419-15.065v-4.752h-19.224v25.704h19.512v-4.752h-13.859v-6.301h12.456v-4.392h-12.456v-5.508h13.571zm120.707 3.744h.071l10.692 17.208h5.651v-25.704h-5.292v17.244h-.072l-10.729-17.244h-5.615v25.704h5.292l.002-17.208zm-10.261-8.496h-5.651v25.704h5.651v-25.704zm-25.991 17.424l3.24-3.276 7.74 11.557h7.092l-11.017-15.553 10.044-10.151h-7.055l-10.044 10.655v-10.655h-5.652v25.704h5.652v-8.281zm59.867 5.004c1.08 1.2 2.406 2.142 3.979 2.826 1.571.685 3.343 1.026 5.311 1.026 1.248 0 2.484-.258 3.708-.774 1.225-.517 2.34-1.422 3.349-2.718l.575 2.916h3.601v-13.896h-10.8v4.213h5.688c-.168 1.799-.762 3.174-1.782 4.121-1.021.948-2.466 1.422-4.338 1.422-1.272 0-2.354-.246-3.24-.737-.888-.492-1.606-1.146-2.159-1.962-.553-.816-.953-1.734-1.206-2.754-.252-1.021-.378-2.07-.378-3.15 0-1.127.126-2.219.378-3.275.253-1.057.653-1.998 1.206-2.826s1.271-1.488 2.159-1.98c.888-.491 1.968-.738 3.24-.738 1.368 0 2.532.36 3.492 1.08.96.721 1.606 1.801 1.943 3.24h5.399c-.145-1.463-.54-2.759-1.188-3.889-.647-1.127-1.471-2.075-2.466-2.844-.997-.768-2.111-1.35-3.349-1.746-1.237-.396-2.515-.594-3.834-.594-1.968 0-3.738.348-5.311 1.045-1.571.695-2.897 1.655-3.979 2.879-1.081 1.225-1.908 2.659-2.483 4.303s-.863 3.426-.863 5.346c0 1.872.288 3.618.863 5.238.577 1.617 1.405 3.03 2.485 4.228zm59.328 0c1.079 1.2 2.405 2.142 3.978 2.826 1.571.685 3.343 1.026 5.311 1.026 1.992 0 3.768-.342 5.328-1.026 1.56-.685 2.88-1.625 3.96-2.826 1.08-1.2 1.908-2.61 2.483-4.229.576-1.62.864-3.366.864-5.238 0-1.919-.288-3.702-.864-5.346-.575-1.645-1.403-3.078-2.483-4.303-1.08-1.224-2.4-2.184-3.96-2.879-1.562-.697-3.336-1.045-5.328-1.045-1.968 0-3.738.348-5.311 1.045-1.571.695-2.897 1.655-3.978 2.879-1.081 1.225-1.908 2.659-2.484 4.303s-.864 3.426-.864 5.346c0 1.872.288 3.618.864 5.238.576 1.618 1.403 3.031 2.484 4.229zm2.682-12.743c.252-1.057.653-1.998 1.206-2.826.552-.828 1.271-1.488 2.159-1.98.889-.491 1.968-.738 3.24-.738 1.271 0 2.353.247 3.239.738.889.492 1.607 1.152 2.16 1.98.552.828.954 1.771 1.206 2.826.252 1.057.378 2.147.378 3.275 0 1.08-.126 2.13-.378 3.15s-.654 1.938-1.206 2.754c-.553.815-1.271 1.47-2.16 1.962-.888.491-1.968.737-3.239.737-1.272 0-2.353-.246-3.24-.737-.888-.492-1.607-1.146-2.159-1.962-.553-.816-.954-1.734-1.206-2.754-.252-1.021-.378-2.07-.378-3.15 0-1.127.126-2.219.378-3.275zm27.557 16.019h5.651v-5.544h-5.651v5.544zm-48.779 0h5.651v-20.952h7.703v-4.752h-21.06v4.752h7.704l.002 20.952zm-120.251-170l-38.48.066v-17.758h34.299v-11.982h-34.299v-15.208l37.48-.118v-13l-53.045-.003v71.19l54.045-.187v-13zm-89.644 155.313c.637-1.104.954-2.412.954-3.925 0-.983-.175-1.901-.521-2.754-.35-.853-.854-1.603-1.513-2.25-.66-.647-1.451-1.157-2.376-1.53-.924-.371-1.962-.558-3.113-.558h-13.86v25.704h5.652v-10.044h5.651c1.416 0 2.437.312 3.061.936.624.625 1.032 1.608 1.224 2.952.146 1.032.252 2.112.324 3.24s.264 2.101.576 2.916h5.651c-.265-.36-.463-.799-.594-1.314-.133-.516-.229-1.062-.288-1.638-.061-.576-.103-1.14-.126-1.692-.023-.552-.049-1.031-.071-1.439-.05-.648-.14-1.297-.271-1.944s-.342-1.241-.63-1.782c-.287-.539-.66-1.008-1.115-1.404-.457-.396-1.033-.688-1.729-.881v-.072c1.439-.578 2.478-1.418 3.114-2.521zm-5.67-.253c-.647.576-1.62.864-2.916.864h-6.191v-7.236h6.191c1.296 0 2.269.282 2.916.846.647.564.973 1.471.973 2.719-.002 1.295-.326 2.232-.973 2.807zm-24.804-1.584v2.376c.743-.096 1.434-.318 2.069-.666s1.182-.785 1.638-1.313.811-1.14 1.062-1.837c.253-.695.365-1.439.343-2.231v-5.508h-5.111v5.544h2.375c0 .889-.168 1.639-.504 2.25s-.961 1.074-1.872 1.385zm95.074-9.18l-9.72 25.704h5.688l2.016-5.725h9.612l1.943 5.725h5.868l-9.612-25.704h-5.795zm-.54 15.769l3.349-9.433h.071l3.24 9.433h-6.66zm36.362 5.183h-12.528v-20.952h-5.651v25.704h18.18v-4.752h-.001zm-484.246-168.228h26.467l5.354 16.022h16.158l-26.468-71.045h-15.96l-26.765 70.973 15.662.217 5.552-16.167zm13.284-37.311h.198l8.922 25.681h-18.339l9.219-25.681zm-67.848 187.899c-1.08-1.224-2.4-2.184-3.96-2.879-1.561-.697-3.336-1.045-5.328-1.045-1.968 0-3.738.348-5.31 1.045-1.572.695-2.898 1.655-3.979 2.879-1.081 1.225-1.908 2.659-2.484 4.303-.575 1.644-.863 3.426-.863 5.346 0 1.872.288 3.618.863 5.238.576 1.619 1.404 3.029 2.484 4.229 1.08 1.2 2.406 2.142 3.979 2.826 1.571.685 3.342 1.026 5.31 1.026 1.992 0 3.768-.342 5.328-1.026s2.88-1.625 3.96-2.826c1.08-1.2 1.908-2.61 2.484-4.229.576-1.62.863-3.366.863-5.238 0-1.919-.287-3.702-.863-5.346-.576-1.644-1.404-3.079-2.484-4.303zm-2.682 12.798c-.252 1.02-.654 1.938-1.206 2.754-.553.815-1.272 1.47-2.16 1.962-.888.491-1.968.737-3.24.737s-2.353-.246-3.239-.737c-.889-.492-1.609-1.146-2.16-1.962-.553-.816-.955-1.734-1.207-2.754-.252-1.021-.377-2.07-.377-3.15 0-1.127.125-2.219.377-3.275s.654-1.998 1.207-2.826c.551-.828 1.271-1.488 2.16-1.98.887-.491 1.967-.738 3.239-.738s2.353.247 3.24.738c.888.492 1.607 1.152 2.16 1.98.552.828.954 1.771 1.206 2.826.252 1.057.378 2.147.378 3.275 0 1.08-.126 2.13-.378 3.15zm29.466-5.959l-6.013-10.151h-6.336l9.433 15.696v10.008h5.651v-9.864l9.541-15.84h-6.301l-5.975 10.151zm96.478-188.774h.198l29.441 47.514 15.131-.187v-71l-14.139-.003v47.831h-.198l-29.541-47.831-15.122.003v71l14.229.042.001-47.369zm5.402 178.623h-7.057l-10.044 10.655v-10.655h-5.651v25.704h5.651v-8.28l3.24-3.276 7.74 11.557h7.092l-11.017-15.553 10.046-10.152zm-66.637 3.312c-1.08-1.224-2.4-2.184-3.959-2.879-1.561-.697-3.337-1.045-5.328-1.045-1.969 0-3.738.348-5.311 1.045-1.572.695-2.898 1.655-3.979 2.879-1.079 1.225-1.907 2.659-2.483 4.303-.576 1.644-.864 3.426-.864 5.346 0 1.872.288 3.618.864 5.238.576 1.619 1.404 3.029 2.483 4.229 1.08 1.2 2.406 2.142 3.979 2.826 1.572.685 3.342 1.026 5.311 1.026 1.991 0 3.768-.342 5.328-1.026 1.559-.685 2.879-1.625 3.959-2.826 1.08-1.2 1.908-2.61 2.484-4.229.576-1.62.864-3.366.864-5.238 0-1.919-.288-3.702-.864-5.346-.576-1.644-1.404-3.079-2.484-4.303zm-2.681 12.798c-.252 1.02-.654 1.938-1.206 2.754-.552.815-1.272 1.47-2.159 1.962-.889.491-1.969.737-3.24.737-1.273 0-2.354-.246-3.24-.737-.889-.492-1.608-1.146-2.16-1.962-.553-.816-.954-1.734-1.206-2.754-.252-1.021-.378-2.07-.378-3.15 0-1.127.126-2.219.378-3.275s.653-1.998 1.206-2.826c.552-.828 1.271-1.488 2.16-1.98.887-.491 1.967-.738 3.24-.738 1.271 0 2.352.247 3.24.738.887.492 1.607 1.152 2.159 1.98.552.828.954 1.771 1.206 2.826.252 1.057.378 2.147.378 3.275 0 1.08-.126 2.13-.378 3.15zm26.046-.127c0 1.92-.384 3.33-1.151 4.229-.77.899-2.16 1.351-4.176 1.351-1.152 0-2.07-.162-2.755-.486-.684-.324-1.218-.744-1.602-1.26-.384-.517-.636-1.11-.757-1.782-.119-.673-.18-1.354-.18-2.052v-15.984h-5.652v15.984c0 3.504.955 6.096 2.863 7.775 1.907 1.68 4.602 2.52 8.082 2.52 3.432 0 6.119-.846 8.063-2.537 1.944-1.692 2.916-4.278 2.916-7.758v-15.984h-5.652l.001 15.984zm58.092-45.376h30.533c5.418 0 10.127-.91 14.125-2.734 3.998-1.822 7.336-4.324 10.014-7.505 2.677-3.181 4.675-6.958 5.996-11.332 1.322-4.374 1.984-9.146 1.984-14.314 0-5.897-.811-11.034-2.43-15.407-1.62-4.375-3.866-8.018-6.741-10.935-2.874-2.915-6.278-5.102-10.21-6.561-3.934-1.457-8.179-2.187-12.738-2.187h-30.533v70.975zm15.564-57.854h11.104c3.832 0 7.055.546 9.666 1.641 2.609 1.092 4.709 2.668 6.295 4.721 1.586 2.055 2.727 4.522 3.42 7.406.693 2.881 1.041 6.112 1.041 9.69 0 3.911-.496 7.224-1.487 9.94-.991 2.718-2.313 4.92-3.966 6.609s-3.535 2.899-5.65 3.628c-2.115.73-4.297 1.095-6.541 1.095h-13.88l-.002-44.73zm-118.263 57.854h15.562v-70.974h-15.562v70.974zm-75.34-151.516h.197l17.348 49.583h11.996l17.348-50.08h.198v50.08h14.572v-70.973h-21.908l-15.663 49.024h-.197l-16.556-49.024h-21.762v70.973h14.428l-.001-49.583zm6.493 184.077c-1.044-1.056-2.28-1.849-3.708-2.376-1.428-.527-2.971-.792-4.627-.792h-11.087v25.704h11.088c1.969 0 3.678-.33 5.131-.99 1.451-.66 2.664-1.566 3.636-2.718s1.698-2.521 2.179-4.104c.479-1.584.719-3.312.719-5.184 0-2.137-.293-3.996-.881-5.58-.59-1.584-1.406-2.902-2.45-3.96zm-2.862 13.681c-.359.983-.84 1.781-1.439 2.394-.601.612-1.285 1.05-2.053 1.313s-1.561.396-2.376.396h-5.04v-16.2h4.032c1.392 0 2.562.198 3.51.594.948.396 1.71.966 2.286 1.71s.99 1.639 1.242 2.682c.252 1.045.378 2.215.378 3.511 0 1.416-.181 2.615-.54 3.6zm58.028-46.242v-70.974h-21.908l-15.663 48.806h-.197l-16.556-48.806h-21.908v70.974h14.573v-49.802h.197l17.348 49.802h11.996l17.348-50.299h.198v50.299h14.572zm284.942 32.705c-1.08-1.224-2.4-2.184-3.96-2.879-1.562-.697-3.336-1.045-5.327-1.045-1.97 0-3.738.348-5.312 1.045-1.571.695-2.897 1.655-3.978 2.879-1.082 1.225-1.908 2.659-2.483 4.303-.576 1.644-.864 3.426-.864 5.346 0 1.872.288 3.618.864 5.238.575 1.619 1.403 3.029 2.483 4.229 1.079 1.2 2.405 2.142 3.978 2.826 1.571.685 3.342 1.026 5.312 1.026 1.991 0 3.768-.342 5.327-1.026s2.88-1.625 3.96-2.826c1.08-1.2 1.908-2.61 2.483-4.229.575-1.62.864-3.366.864-5.238 0-1.919-.289-3.702-.864-5.346s-1.403-3.079-2.483-4.303zm-2.683 12.798c-.253 1.02-.653 1.938-1.205 2.754-.554.815-1.272 1.47-2.16 1.962-.89.491-1.969.737-3.239.737-1.272 0-2.354-.246-3.24-.737-.889-.492-1.607-1.146-2.16-1.962-.553-.816-.953-1.734-1.205-2.754-.252-1.021-.379-2.07-.379-3.15 0-1.127.127-2.219.379-3.275s.652-1.998 1.205-2.826 1.271-1.488 2.16-1.98c.888-.491 1.968-.738 3.24-.738 1.271 0 2.352.247 3.239.738.888.492 1.606 1.152 2.16 1.98.552.828.953 1.771 1.205 2.826.252 1.057.379 2.147.379 3.275 0 1.08-.127 2.13-.379 3.15zm29.467-5.959l-6.013-10.151h-6.336l9.433 15.696v10.008h5.651v-9.864l9.54-15.84h-6.3l-5.975 10.151zm-208.58-90.837c-1.619-4.373-3.865-8.017-6.74-10.934-2.875-2.915-6.279-5.102-10.211-6.561-3.933-1.457-8.178-2.187-12.738-2.187h-30.532v70.973h30.532c5.418 0 10.127-.91 14.127-2.733 3.997-1.822 7.335-4.324 10.012-7.505 2.677-3.182 4.675-6.959 5.998-11.332 1.32-4.374 1.982-9.146 1.982-14.314 0-5.898-.811-11.032-2.43-15.407zm-14.621 26.837c-.992 2.719-2.314 4.92-3.965 6.61-1.653 1.689-3.537 2.899-5.651 3.628-2.116.73-4.296 1.094-6.542 1.094h-13.879v-44.73h11.103c3.832 0 7.054.546 9.665 1.641 2.61 1.092 4.709 2.668 6.295 4.721 1.586 2.055 2.727 4.522 3.42 7.406.694 2.881 1.041 6.112 1.041 9.69-.001 3.912-.496 7.226-1.487 9.94zm164.989 63.713h-10.404v-9.864h-5.65v25.704h5.65v-11.088h10.404v11.088h5.65v-25.704h-5.65v9.864zm84.167 16.416c1.992 0 3.768-.342 5.328-1.026s2.881-1.625 3.961-2.826c1.08-1.2 1.907-2.61 2.482-4.229.576-1.62.864-3.366.864-5.238 0-1.919-.288-3.702-.864-5.346-.575-1.645-1.402-3.078-2.482-4.303-1.08-1.224-2.4-2.184-3.961-2.879-1.562-.697-3.336-1.045-5.328-1.045-1.968 0-3.738.348-5.311 1.045-1.571.695-2.896 1.655-3.978 2.879-1.081 1.225-1.908 2.659-2.484 4.303-.575 1.644-.863 3.426-.863 5.346 0 1.872.288 3.618.863 5.238.576 1.619 1.404 3.029 2.484 4.229s2.405 2.142 3.978 2.826 3.343 1.026 5.311 1.026zm-6.605-10.17c-.252-1.021-.378-2.07-.378-3.15 0-1.127.126-2.219.378-3.275s.653-1.998 1.206-2.826 1.271-1.488 2.159-1.98c.89-.491 1.969-.738 3.24-.738s2.352.247 3.24.738c.888.492 1.606 1.152 2.159 1.98s.954 1.771 1.206 2.826c.253 1.057.378 2.147.378 3.275 0 1.08-.126 2.13-.378 3.15s-.653 1.938-1.206 2.754c-.553.815-1.271 1.47-2.159 1.962-.89.491-1.969.737-3.24.737s-2.353-.246-3.24-.737c-.888-.492-1.606-1.146-2.159-1.962-.553-.816-.954-1.734-1.206-2.754zm-178.792-12.798c-1.08-1.224-2.4-2.184-3.959-2.879-1.562-.697-3.338-1.045-5.328-1.045-1.97 0-3.738.348-5.312 1.045-1.571.695-2.897 1.655-3.979 2.879-1.08 1.225-1.906 2.659-2.482 4.303s-.864 3.426-.864 5.346c0 1.872.288 3.618.864 5.238.576 1.619 1.402 3.029 2.482 4.229s2.406 2.142 3.979 2.826c1.571.685 3.342 1.026 5.312 1.026 1.99 0 3.768-.342 5.328-1.026 1.559-.685 2.879-1.625 3.959-2.826 1.08-1.2 1.907-2.61 2.483-4.229.576-1.62.864-3.366.864-5.238 0-1.919-.288-3.702-.864-5.346s-1.403-3.079-2.483-4.303zm-2.683 12.798c-.252 1.02-.653 1.938-1.206 2.754-.552.815-1.271 1.47-2.16 1.962-.888.491-1.968.737-3.238.737-1.273 0-2.354-.246-3.24-.737-.889-.492-1.608-1.146-2.16-1.962-.553-.816-.954-1.734-1.206-2.754-.252-1.021-.378-2.07-.378-3.15 0-1.127.126-2.219.378-3.275s.653-1.998 1.206-2.826c.552-.828 1.271-1.488 2.16-1.98.887-.491 1.967-.738 3.24-.738 1.271 0 2.352.247 3.238.738.889.492 1.608 1.152 2.16 1.98.553.828.954 1.771 1.206 2.826.252 1.057.378 2.147.378 3.275 0 1.08-.126 2.13-.378 3.15zm75.51 1.602h-.071l-4.394-17.712h-5.291l-4.465 17.496h-.072l-4.067-17.496h-5.65l6.803 25.704h5.725l4.285-17.496h.07l4.356 17.496h5.616l6.912-25.704h-5.545l-4.212 17.712zm-103.896-.468h-.072l-10.728-17.244h-5.616v25.704h5.292v-17.208h.072l10.691 17.208h5.652v-25.704h-5.293v17.244h.002zm59.905.468h-.072l-4.391-17.712h-5.293l-4.465 17.496h-.07l-4.068-17.496h-5.652l6.805 25.704h5.725l4.283-17.496h.072l4.355 17.496h5.615l6.912-25.704h-5.543l-4.213 17.712z"/></svg>