<svg xmlns="http://www.w3.org/2000/svg" width="1200" height="320" viewBox="0 0 1200 320"><path fill="#fff" d="M210.064 108.168h26.468l5.353 15.805h16.159l-26.469-70.973h-15.96l-26.765 70.973h15.663l5.551-15.805zm13.284-37.673h.198l8.922 26.043h-18.339l9.219-26.043zm55.414 5.964h.198l29.442 47.514h15.563v-70.973h-14.572v47.614h-.198l-29.541-47.614h-15.464v70.973h14.572v-47.514zm102.006-23.459h-15.563v70.973h15.563v-70.973zm28.253 23.459h.197l29.442 47.514h15.563v-70.973h-14.572v47.614h-.198l-29.54-47.614h-15.464v70.973h14.572v-47.514zm117.668 47.514v-57.852h21.214v-13.121h-57.992v13.121h21.214v57.852h15.564zm44.907-30.616h28.648v30.616h15.562v-70.973h-15.562v27.236h-28.648v-27.236h-15.563v70.973h15.563v-30.616zm111.621 17.495h-38.165v-17.395h34.299v-12.127h-34.299v-15.209h37.372v-13.121h-52.937v70.973h53.729l.001-13.121zm-538.183 92.669h-.198l-16.556-48.808h-21.908v70.974h14.573v-49.802h.198l17.348 49.802h11.995l17.348-50.299h.198v50.299h14.572v-70.974h-21.908l-15.662 48.808zm51.251 22.167h15.563v-70.973h-15.563v70.973zm89.465-51.292c-1.62-4.375-3.866-8.018-6.741-10.935-2.875-2.915-6.279-5.102-10.21-6.561-3.933-1.457-8.179-2.187-12.739-2.187h-30.532v70.974h30.532c5.418 0 10.127-.91 14.126-2.734 3.998-1.822 7.335-4.324 10.012-7.505 2.677-3.181 4.675-6.958 5.998-11.332 1.321-4.374 1.982-9.146 1.982-14.314.001-5.896-.809-11.032-2.428-15.406zm-14.621 26.838c-.992 2.718-2.314 4.92-3.965 6.609-1.653 1.689-3.536 2.899-5.651 3.629-2.116.729-4.296 1.094-6.542 1.094h-13.878v-44.731h11.103c3.832 0 7.054.546 9.666 1.64 2.61 1.094 4.708 2.668 6.295 4.721 1.586 2.056 2.726 4.523 3.42 7.406s1.041 6.113 1.041 9.691c-.002 3.912-.498 7.225-1.489 9.941zm27.855 24.454h30.533c5.418 0 10.127-.91 14.126-2.733 3.998-1.822 7.336-4.324 10.012-7.505 2.677-3.182 4.675-6.958 5.998-11.332 1.321-4.374 1.983-9.145 1.983-14.314 0-5.896-.81-11.033-2.429-15.408-1.62-4.373-3.866-8.017-6.741-10.934-2.875-2.915-6.279-5.102-10.21-6.561-3.933-1.457-8.178-2.187-12.738-2.187h-30.533l-.001 70.974zm15.564-57.853h11.103c3.832 0 7.054.546 9.666 1.64 2.61 1.094 4.708 2.668 6.294 4.721 1.586 2.056 2.727 4.523 3.42 7.406.694 2.883 1.041 6.113 1.041 9.691 0 3.911-.496 7.225-1.487 9.939-.991 2.719-2.314 4.92-3.965 6.61-1.653 1.689-3.536 2.899-5.65 3.628-2.116.73-4.297 1.094-6.542 1.094h-13.879l-.001-44.729zm57.893-13.121v70.974h50.061v-13.121h-34.498v-57.853h-15.563zm111.72 13.121v-13.121h-52.937v70.974h53.729v-13.121h-38.166v-17.397h34.3v-12.127h-34.3v-15.208h37.374zm-380.161 92.999h7.704v20.952h5.652v-20.952h7.704v-4.752h-21.06v4.752zm40.068 5.111h-10.404v-9.863h-5.652v25.704h5.652v-11.088h10.404v11.088h5.652v-25.704h-5.652v9.863zm16.272 4.789h12.456v-4.393h-12.456v-5.508h13.572v-4.752h-19.224v25.704h19.512v-4.752h-13.86v-6.299zm44.099 2.592h-.072l-10.727-17.244h-5.616v25.704h5.292v-17.208h.072l10.692 17.208h5.652v-25.704h-5.292l-.001 17.244zm31.068-13.931c-1.08-1.225-2.4-2.185-3.959-2.881-1.561-.695-3.336-1.044-5.328-1.044-1.968 0-3.738.349-5.31 1.044-1.572.696-2.898 1.656-3.978 2.881-1.08 1.224-1.908 2.658-2.484 4.301-.576 1.645-.864 3.427-.864 5.347 0 1.872.288 3.618.864 5.238.576 1.62 1.404 3.03 2.484 4.229 1.08 1.2 2.406 2.143 3.978 2.826 1.572.684 3.342 1.025 5.31 1.025 1.992 0 3.768-.342 5.328-1.025s2.88-1.625 3.959-2.826c1.08-1.199 1.908-2.609 2.484-4.229.576-1.62.864-3.366.864-5.238 0-1.919-.288-3.702-.864-5.347-.575-1.643-1.404-3.078-2.484-4.301zm-2.681 12.796c-.252 1.021-.654 1.938-1.206 2.754-.552.816-1.272 1.471-2.16 1.963-.888.492-1.968.738-3.24.738-1.271 0-2.353-.246-3.24-.738-.888-.492-1.608-1.146-2.16-1.963-.553-.815-.954-1.733-1.206-2.754-.252-1.02-.378-2.069-.378-3.149 0-1.127.126-2.219.378-3.276.252-1.056.653-1.998 1.206-2.826.552-.828 1.271-1.487 2.16-1.979.888-.491 1.968-.737 3.24-.737s2.353.246 3.24.737c.888.492 1.608 1.151 2.16 1.979.552.828.954 1.771 1.206 2.826.252 1.058.378 2.148.378 3.276 0 1.08-.126 2.13-.378 3.149zm26.801-3.796c-.84-.553-1.686-.955-2.538-1.207s-1.518-.426-1.998-.521c-1.608-.408-2.91-.744-3.906-1.008s-1.776-.528-2.34-.792c-.563-.265-.942-.552-1.134-.864s-.288-.72-.288-1.225c0-.551.12-1.008.36-1.367.24-.36.545-.66.918-.9.372-.24.786-.408 1.242-.504s.912-.145 1.368-.145c.696 0 1.338.061 1.926.181.588.121 1.11.324 1.566.612.456.287.822.684 1.098 1.188s.438 1.141.486 1.908h5.472c0-1.488-.282-2.754-.846-3.798s-1.327-1.902-2.286-2.574c-.96-.671-2.058-1.157-3.294-1.458-1.236-.3-2.526-.449-3.87-.449-1.152 0-2.304.155-3.456.467-1.152.312-2.184.793-3.096 1.44-.913.647-1.65 1.458-2.214 2.431-.564.972-.846 2.118-.846 3.438 0 1.176.222 2.178.666 3.006.444.828 1.026 1.52 1.746 2.07.72.552 1.536 1.002 2.448 1.35s1.848.643 2.808.883c.936.264 1.859.504 2.772.719.912.217 1.728.469 2.448.757.72.288 1.302.647 1.746 1.079.444.433.666.996.666 1.692 0 .648-.168 1.183-.504 1.603s-.756.75-1.26.99c-.504.239-1.044.401-1.62.485-.576.084-1.116.126-1.62.126-.744 0-1.464-.09-2.16-.27-.696-.18-1.302-.456-1.818-.828s-.93-.858-1.242-1.458c-.312-.601-.468-1.332-.468-2.196h-5.472c-.024 1.584.264 2.952.864 4.104.6 1.152 1.41 2.101 2.43 2.845s2.196 1.291 3.528 1.638c1.332.348 2.706.522 4.122.522 1.751 0 3.294-.204 4.626-.612s2.448-.979 3.348-1.71c.9-.731 1.578-1.603 2.034-2.61s.684-2.1.684-3.275c0-1.44-.306-2.622-.918-3.547-.612-.925-1.338-1.666-2.178-2.216zm12.096 2.339h12.456v-4.393h-12.456v-5.508h13.572v-4.752h-19.224v25.704h19.512v-4.752h-13.86v-6.299zm27.252-4.5l-6.012-10.152h-6.336l9.432 15.695v10.009h5.652v-9.864l9.54-15.84h-6.3l-5.976 10.152zm41.255 1.584c1.152-.553 2.021-1.26 2.61-2.125.587-.863.882-1.943.882-3.239 0-1.2-.198-2.208-.594-3.024-.396-.814-.954-1.47-1.674-1.962-.72-.491-1.584-.846-2.592-1.062-1.008-.217-2.124-.324-3.348-.324h-12.096v25.704h12.456c1.152 0 2.274-.144 3.366-.433 1.092-.287 2.062-.73 2.916-1.332.852-.6 1.53-1.373 2.034-2.321s.756-2.07.756-3.366c0-1.607-.391-2.98-1.17-4.122-.779-1.139-1.962-1.939-3.546-2.394zm-11.159-7.343h5.292c.504 0 .99.041 1.458.125.468.084.882.234 1.242.45s.648.517.864.9c.216.384.324.876.324 1.476 0 1.08-.324 1.86-.972 2.34-.648.48-1.476.721-2.484.721h-5.724v-6.012zm9.882 15.191c-.229.432-.535.773-.918 1.025-.384.252-.828.433-1.332.541-.504.107-1.032.162-1.584.162h-6.048v-7.057h6.156c1.224 0 2.208.283 2.952.846.744.564 1.116 1.506 1.116 2.826-.001.675-.114 1.225-.342 1.657zm16.829-19.584l-9.72 25.704h5.688l2.016-5.724h9.612l1.944 5.724h5.868l-9.612-25.704h-5.796zm-.54 15.768l3.348-9.432h.072l3.24 9.432h-6.66zm30.133.252h5.688c-.168 1.801-.762 3.174-1.781 4.123-1.021.947-2.467 1.422-4.338 1.422-1.272 0-2.354-.246-3.24-.738-.889-.492-1.608-1.146-2.16-1.963-.552-.815-.954-1.733-1.206-2.754-.252-1.02-.378-2.069-.378-3.149 0-1.127.126-2.219.378-3.276.252-1.056.654-1.998 1.206-2.826s1.271-1.487 2.16-1.979c.888-.491 1.968-.737 3.24-.737 1.367 0 2.531.359 3.492 1.079.959.72 1.606 1.8 1.943 3.24h5.4c-.145-1.463-.541-2.759-1.188-3.888s-1.47-2.076-2.466-2.844c-.997-.769-2.112-1.351-3.348-1.746-1.236-.396-2.515-.595-3.834-.595-1.969 0-3.738.349-5.311 1.044-1.572.696-2.898 1.656-3.978 2.881-1.08 1.224-1.908 2.658-2.484 4.302s-.864 3.426-.864 5.346c0 1.872.288 3.618.864 5.238s1.404 3.03 2.484 4.229c1.08 1.2 2.406 2.143 3.978 2.826 1.572.684 3.342 1.025 5.311 1.025 1.248 0 2.483-.258 3.707-.773 1.225-.516 2.341-1.422 3.349-2.718l.576 2.916h3.6v-13.896h-10.8v4.211zm27.323 0h5.688c-.168 1.801-.762 3.174-1.782 4.123-1.021.947-2.466 1.422-4.338 1.422-1.271 0-2.353-.246-3.24-.738s-1.607-1.146-2.159-1.963c-.552-.815-.954-1.733-1.206-2.754-.252-1.02-.378-2.069-.378-3.149 0-1.127.126-2.219.378-3.276.252-1.056.652-1.998 1.206-2.826.552-.828 1.271-1.487 2.159-1.979.889-.491 1.969-.737 3.24-.737 1.368 0 2.532.359 3.492 1.079s1.608 1.8 1.944 3.24h5.399c-.144-1.463-.539-2.759-1.188-3.888s-1.471-2.076-2.466-2.844c-.996-.769-2.112-1.351-3.349-1.746-1.236-.396-2.515-.595-3.834-.595-1.968 0-3.738.349-5.31 1.044-1.572.696-2.897 1.656-3.978 2.881-1.08 1.224-1.908 2.658-2.484 4.302s-.864 3.426-.864 5.346c0 1.872.288 3.618.864 5.238s1.404 3.03 2.484 4.229c1.08 1.2 2.405 2.143 3.978 2.826 1.571.684 3.342 1.025 5.31 1.025 1.248 0 2.484-.258 3.709-.773 1.224-.516 2.34-1.422 3.348-2.718l.576 2.916h3.6v-13.896h-10.8v4.211zm22.391-16.02l-9.72 25.704h5.688l2.017-5.724h9.612l1.943 5.724h5.868l-9.612-25.704h-5.796zm-.54 15.768l3.348-9.432h.072l3.24 9.432h-6.66zm30.133.252h5.688c-.168 1.801-.762 3.174-1.782 4.123-1.021.947-2.466 1.422-4.338 1.422-1.272 0-2.353-.246-3.24-.738s-1.608-1.146-2.159-1.963c-.553-.815-.955-1.733-1.207-2.754-.252-1.02-.377-2.069-.377-3.149 0-1.127.125-2.219.377-3.276.252-1.056.653-1.998 1.207-2.826.551-.828 1.271-1.487 2.159-1.979.888-.491 1.968-.737 3.24-.737 1.368 0 2.532.359 3.492 1.079s1.608 1.8 1.944 3.24h5.399c-.144-1.463-.54-2.759-1.188-3.888-.647-1.129-1.471-2.076-2.465-2.844-.996-.769-2.113-1.351-3.349-1.746-1.235-.396-2.515-.595-3.834-.595-1.968 0-3.739.349-5.31 1.044-1.572.696-2.898 1.656-3.979 2.881-1.08 1.224-1.908 2.658-2.484 4.302s-.863 3.426-.863 5.346c0 1.872.287 3.618.863 5.238s1.404 3.03 2.484 4.229c1.08 1.2 2.406 2.143 3.979 2.826 1.57.684 3.342 1.025 5.31 1.025 1.248 0 2.483-.258 3.708-.773s2.34-1.422 3.348-2.718l.576 2.916h3.6v-13.896h-10.799v4.211zm21.023-1.368h12.456v-4.393h-12.456v-5.508h13.572v-4.752h-19.225v25.704h19.512v-4.752h-13.859v-6.299zm27.684-14.652v25.704h5.652v-11.088h10.404v11.088h5.651v-25.704h-5.651v9.863h-10.404v-9.863h-5.652zm23.976 25.704h5.688l2.017-5.724h9.611l1.944 5.724h5.867l-9.611-25.704h-5.797l-9.719 25.704zm12.6-19.368l3.24 9.432h-6.66l3.348-9.432h.072zm20.052 2.16h.071l10.692 17.208h5.651v-25.704h-5.292v17.244h-.071l-10.729-17.244h-5.615v25.704h5.292l.001-17.208zm41.238 13.5c.972-1.152 1.697-2.52 2.178-4.104.479-1.584.721-3.312.721-5.185 0-2.136-.294-3.996-.882-5.58-.59-1.584-1.404-2.903-2.448-3.96s-2.28-1.848-3.708-2.376c-1.428-.526-2.971-.792-4.626-.792h-11.09v25.704h11.088c1.968 0 3.678-.33 5.13-.99s2.664-1.565 3.637-2.717zm-6.786-1.439c-.769.264-1.561.396-2.376.396h-5.04v-16.2h4.031c1.392 0 2.562.198 3.511.594.947.396 1.71.967 2.286 1.711.575.743.989 1.637 1.241 2.682.252 1.044.378 2.214.378 3.51 0 1.417-.18 2.615-.54 3.6-.359.984-.84 1.782-1.438 2.395-.602.609-1.286 1.048-2.053 1.312zm31.787.395h-12.527v-20.952h-5.651v25.704h18.18l-.002-4.752zm22.68 0h-13.858v-6.3h12.456v-4.393h-12.456v-5.508h13.571v-4.752h-19.225v25.704h19.512v-4.751zm9.467-5.292h5.651c1.416 0 2.437.312 3.062.936.623.625 1.03 1.608 1.224 2.952.145 1.032.252 2.112.324 3.24.071 1.128.264 2.101.575 2.916h5.651c-.265-.36-.462-.798-.594-1.313-.133-.517-.229-1.062-.288-1.639-.061-.576-.103-1.141-.126-1.691-.023-.553-.049-1.033-.072-1.44-.048-.647-.139-1.296-.27-1.944-.133-.648-.342-1.242-.63-1.781-.288-.541-.661-1.009-1.116-1.404-.456-.396-1.032-.689-1.729-.883v-.071c1.44-.576 2.479-1.416 3.114-2.521.636-1.104.954-2.412.954-3.924 0-.984-.175-1.902-.521-2.754-.349-.852-.853-1.602-1.513-2.25s-1.452-1.156-2.376-1.529-1.962-.559-3.114-.559h-13.858v25.704h5.651l.001-10.045zm0-11.267h6.191c1.296 0 2.269.281 2.916.846.647.563.973 1.47.973 2.718 0 1.296-.324 2.231-.973 2.808-.647.576-1.62.864-2.916.864h-6.191v-7.236zm-523.369-158.668h-.198l-16.556-48.807h-21.908v70.973h14.573v-49.8h.198l17.348 49.8h11.995l17.348-50.297h.198v50.297h14.572v-70.973h-21.908l-15.662 48.807z"/></svg>